<?xml version="1.0" encoding="UTF-8"?>
<svg xmlns="http://www.w3.org/2000/svg" xmlns:xlink="http://www.w3.org/1999/xlink" version="1.2" >
<font id="SapientCentroSlab-LightItalic">
<font-face  font-family="Sapient Centro Slab" units-per-em="1000" ascent="750" descent="-250" font-style="italic" font-weight="300" font-stretch="normal" cap-height="683" x-height="489" underline-position="-80" underline-thickness="40" />
<missing-glyph  horiz-adv-x="419" d="M0 684 L419 684 L419 0 L0 0 L0 684 Z M365 654 L54 654 L210 369 L365 654 Z M390 48 L390 638 L229 342 L390 48 Z M365 30 L210 315 L54 30 L365 30 Z M29 50 L190 342 L29 635 L29 50 Z " />
<glyph glyph-name="NULL" d="" />
<glyph glyph-name="nonmarkingreturn" unicode="&#xd;" horiz-adv-x="252" d="" />
<glyph glyph-name="space" unicode="&#x20;" horiz-adv-x="252" d="" />
<glyph glyph-name="dollar" unicode="&#x24;" horiz-adv-x="524" d="M339 727 L373 727 L365 665 Q388 663 420.5 654.5 Q453 646 477 629 L462 511 L419 511 L430 600 Q416 608 397.5 612.5 Q379 617 360 619 L327 356 Q354 344 379 331.5 Q404 319 423 301.5 Q442 284 453.5 260 Q465 236 465 201 Q465 157 451 123 Q437 89 413 65 Q389 41 356 26.5 Q323 12 284 7 L274 -75 L240 -75 L339 727 Z M306 727 L207 -75 L173 -75 L183 4 Q148 8 112 19.5 Q76 31 47 52 L61 169 L104 169 L94 81 Q120 67 143 61.5 Q166 56 189 53 L224 338 Q198 348 176.5 360.5 Q155 373 140 389.5 Q125 406 116.5 428.5 Q108 451 108 481 Q108 522 121 553 Q134 584 155.5 605.5 Q177 627 205 640.5 Q233 654 264 661 L272 727 L306 727 Z M290 55 Q344 64 379.5 98 Q415 132 415 197 Q415 241 389 265 Q363 289 321 306 L290 55 Z M258 614 Q238 609 220 599 Q202 589 188.5 573.5 Q175 558 166.5 536 Q158 514 158 485 Q158 443 178.5 423 Q199 403 230 389 L258 614 Z " />
<glyph glyph-name="percent" unicode="&#x25;" horiz-adv-x="785" d="M200 669 Q240 669 265 655.5 Q290 642 304 620.5 Q318 599 323.5 572.5 Q329 546 329 519 Q329 482 322 437 Q315 392 296 353 Q277 314 243 288 Q209 262 155 262 Q116 262 90 274 Q64 286 48.5 306 Q33 326 27 352 Q21 378 21 407 Q21 423 23 448.5 Q25 474 31.5 503 Q38 532 50 562 Q62 592 81.5 615.5 Q101 639 130 654 Q159 669 200 669 Z M200 627 Q169 627 147 613 Q125 599 110.5 577 Q96 555 88 529 Q80 503 76 478 Q72 453 71 433 Q70 413 70 404 Q70 360 89.5 332 Q109 304 160 304 Q196 304 219 325 Q242 346 255.5 376.5 Q269 407 274.5 442.5 Q280 478 280 508 Q280 529 277 550 Q274 571 265 588.5 Q256 606 240.5 616.5 Q225 627 200 627 Z M244 -23 L201 -23 L572 698 L613 698 L244 -23 Z M635 403 Q675 403 700 389.5 Q725 376 739 354 Q753 332 758.5 305.5 Q764 279 764 252 Q764 215 757 170.5 Q750 126 731 87 Q712 48 678 22 Q644 -4 590 -4 Q551 -4 525 8 Q499 20 483.5 40 Q468 60 462 86 Q456 112 456 140 Q456 156 458 181.5 Q460 207 466.5 236.5 Q473 266 485 295.5 Q497 325 516.5 349 Q536 373 565 388 Q594 403 635 403 Z M635 361 Q604 361 582 347 Q560 333 545.5 311 Q531 289 523 262.5 Q515 236 511 211.5 Q507 187 506 166.5 Q505 146 505 137 Q505 94 524.5 66 Q544 38 595 38 Q631 38 654 58.5 Q677 79 690.5 110 Q704 141 709.5 176 Q715 211 715 241 Q715 262 712 283.5 Q709 305 700 322 Q691 339 675.5 350 Q660 361 635 361 Z " />
<glyph glyph-name="ampersand" unicode="&#x26;" horiz-adv-x="820" d="M383 298 Q412 304 436.5 307 Q461 310 487 310 Q519 310 554.5 305.5 Q590 301 630 293 Q637 317 640 342.5 Q643 368 643 391 Q643 439 630.5 482.5 Q618 526 589.5 559 Q561 592 514.5 611.5 Q468 631 401 631 Q332 631 277.5 605.5 Q223 580 183 537.5 Q143 495 118 438.5 Q93 382 82 319 L39 323 Q48 388 74.5 451 Q101 514 146 563.5 Q191 613 256 643.5 Q321 674 408 674 Q483 674 537 651.5 Q591 629 625 591 Q659 553 675 502.5 Q691 452 691 396 Q691 370 687 340.5 Q683 311 676 285 Q696 281 713 281 Q755 281 779 298.5 Q803 316 823 345 L856 329 Q835 290 802 266 Q769 242 717 242 Q709 242 695 242.5 Q681 243 664 247 Q644 196 612.5 150 Q581 104 538.5 69 Q496 34 444.5 13.5 Q393 -7 333 -7 Q279 -7 242.5 10 Q206 27 183.5 54 Q161 81 151 115.5 Q141 150 141 186 Q141 256 159 308.5 Q177 361 205 396.5 Q233 432 267 450 Q301 468 333 468 Q357 468 374 460 Q391 452 402.5 439 Q414 426 419 410 Q424 394 424 379 Q424 360 415 340 Q406 320 383 300 L383 298 Z M322 246 L308 278 Q339 301 359 326 Q379 351 379 374 Q379 400 364.5 412.5 Q350 425 330 425 Q307 425 282 411.5 Q257 398 236 370 Q215 342 201 297.5 Q187 253 187 192 Q187 111 228.5 72.5 Q270 34 341 34 Q382 34 423.5 50.5 Q465 67 502 96 Q539 125 569 166 Q599 207 617 255 Q582 263 547.5 267 Q513 271 482 271 Q444 271 408 264 Q372 257 330 243 L322 246 Z " />
<glyph glyph-name="quotesingle" unicode="&#x27;" horiz-adv-x="166" d="M106 498 L116 683 L170 683 L135 498 L106 498 Z " />
<glyph glyph-name="parenleft" unicode="&#x28;" horiz-adv-x="255" d="M145 -172 Q138 -158 124 -129.5 Q110 -101 95.5 -58 Q81 -15 70.5 42.5 Q60 100 60 173 Q60 287 84 377.5 Q108 468 140 536 Q172 604 204.5 648 Q237 692 254 713 L274 699 Q259 679 232 633.5 Q205 588 178 518 Q151 448 131 355.5 Q111 263 111 150 Q111 87 118 37.5 Q125 -12 134.5 -49.5 Q144 -87 154 -113 Q164 -139 171 -154 L145 -172 Z " />
<glyph glyph-name="parenright" unicode="&#x29;" horiz-adv-x="257" d="M-16 -154 Q-3 -135 25 -90.5 Q53 -46 81 23.5 Q109 93 130 187 Q151 281 151 399 Q151 459 144 508.5 Q137 558 127 596 Q117 634 106.5 660 Q96 686 89 699 L113 713 Q122 698 137 669.5 Q152 641 166.5 599 Q181 557 191.5 502 Q202 447 202 379 Q202 261 176 166.5 Q150 72 116 2 Q82 -68 49.5 -112 Q17 -156 4 -172 L-16 -154 Z " />
<glyph glyph-name="asterisk" unicode="&#x2a;" horiz-adv-x="363" d="M344 628 Q358 612 359.5 596 Q361 580 358 560 L245 547 L314 469 Q291 438 255 426 L220 531 L161 427 Q144 432 132 441.5 Q120 451 110 469 L199 548 L93 562 Q96 585 103 601 Q110 617 124 632 L213 576 L205 688 Q223 694 243 694 Q262 694 277 688 L241 576 L344 628 Z " />
<glyph glyph-name="plus" unicode="&#x2b;" horiz-adv-x="524" d="M295 274 L275 107 L228 107 L248 274 L89 274 L95 321 L254 321 L274 481 L321 481 L301 321 L458 321 L452 274 L295 274 Z " />
<glyph glyph-name="comma" unicode="&#x2c;" horiz-adv-x="180" d="M72 77 Q89 77 100.5 65 Q112 53 112 32 Q112 14 104 -5.5 Q96 -25 82 -43 Q68 -61 50 -76.5 Q32 -92 11 -102 L0 -84 Q19 -67 31.5 -50.5 Q44 -34 49 -8 Q25 -1 25 27 Q25 47 38.5 62 Q52 77 72 77 Z " />
<glyph glyph-name="hyphen" unicode="&#x2d;" horiz-adv-x="343" d="M52 235 L59 288 L303 288 L296 235 L52 235 Z " />
<glyph glyph-name="period" unicode="&#x2e;" horiz-adv-x="178" d="M68 76 Q85 76 95 65 Q105 54 105 38 Q105 18 90 4 Q75 -10 58 -10 Q42 -10 32 1 Q22 12 22 28 Q22 48 35 62 Q48 76 68 76 Z " />
<glyph glyph-name="slash" unicode="&#x2f;" horiz-adv-x="306" d="M21 -26 L-12 -26 L325 698 L357 698 L21 -26 Z " />
<glyph glyph-name="zero" unicode="0" horiz-adv-x="524" d="M309 673 Q373 673 411.5 648 Q450 623 471 583.5 Q492 544 498.5 495.5 Q505 447 505 400 Q505 359 500 312.5 Q495 266 483.5 220.5 Q472 175 453 134 Q434 93 405.5 61.5 Q377 30 338 11.5 Q299 -7 248 -7 Q189 -7 150.5 12.5 Q112 32 89 65 Q66 98 56 141 Q46 184 45 230 Q45 257 47.5 300.5 Q50 344 59 393 Q68 442 85 492 Q102 542 131.5 582 Q161 622 204.5 647.5 Q248 673 309 673 Z M310 624 Q258 624 222.5 599 Q187 574 163.5 535 Q140 496 127.5 448.5 Q115 401 108.5 357 Q102 313 101 277 Q100 241 100 225 Q101 185 109 151 Q117 117 134.5 92.5 Q152 68 181 54.5 Q210 41 254 41 Q293 41 323 58 Q353 75 374.5 103 Q396 131 410.5 167.5 Q425 204 434 244 Q443 284 446.5 324.5 Q450 365 450 400 Q450 438 445 478 Q440 518 425 550.5 Q410 583 382.5 603.5 Q355 624 310 624 Z " />
<glyph glyph-name="one" unicode="1" horiz-adv-x="524" d="M128 570 L125 606 L299 663 L351 663 L275 46 L407 46 L402 0 L74 0 L79 46 L221 46 L289 596 L128 570 Z " />
<glyph glyph-name="two" unicode="2" horiz-adv-x="524" d="M10 0 L15 43 Q45 70 85 104.5 Q125 139 168 178.5 Q211 218 252.5 260.5 Q294 303 327 346 Q360 389 380.5 431 Q401 473 401 512 Q401 570 365 596 Q329 622 272 622 Q261 622 244.5 620.5 Q228 619 206.5 613.5 Q185 608 158 597.5 Q131 587 100 568 L78 604 Q143 649 196 661.5 Q249 674 281 674 Q319 674 351.5 665 Q384 656 407.5 638 Q431 620 444.5 592 Q458 564 458 526 Q458 481 439 435 Q420 389 389 345 Q358 301 318.5 259.5 Q279 218 238 180 Q197 142 157.5 108 Q118 74 88 47 L375 47 L387 146 L436 146 L419 0 L10 0 Z " />
<glyph glyph-name="three" unicode="3" horiz-adv-x="524" d="M193 -10 Q130 -10 83.5 1 Q37 12 5 29 L22 67 Q53 56 77.5 50 Q102 44 121.5 41 Q141 38 157.5 37.5 Q174 37 188 37 Q228 37 264.5 48.5 Q301 60 328.5 82 Q356 104 372.5 134 Q389 164 389 202 Q389 268 343.5 305 Q298 342 226 342 Q200 342 176 339 L168 381 Q224 391 266 408.5 Q308 426 335.5 447 Q363 468 376.5 491.5 Q390 515 390 536 Q390 555 383.5 572 Q377 589 362 602 Q347 615 323.5 623 Q300 631 267 631 Q234 631 194 621.5 Q154 612 100 588 L83 624 Q127 651 178.5 665.5 Q230 680 273 680 Q318 680 350.5 669.5 Q383 659 404 642 Q425 625 435 601.5 Q445 578 445 553 Q445 497 406 451 Q367 405 293 382 L291 378 Q322 375 349.5 361.5 Q377 348 398 326 Q419 304 431.5 274.5 Q444 245 445 210 Q445 167 427 127 Q409 87 376 56.5 Q343 26 296.5 8 Q250 -10 193 -10 Z " />
<glyph glyph-name="four" unicode="4" horiz-adv-x="524" d="M397 190 L379 46 L451 46 L446 0 L253 0 L258 46 L326 46 L344 190 L29 190 L35 237 L398 663 L455 663 L403 237 L497 237 L491 190 L397 190 Z M388 589 L334 523 L92 237 L351 237 L394 589 L388 589 Z " />
<glyph glyph-name="five" unicode="5" horiz-adv-x="524" d="M280 411 Q313 411 345.5 401.5 Q378 392 403.5 371 Q429 350 444.5 316.5 Q460 283 460 235 Q460 172 437.5 126 Q415 80 379.5 50 Q344 20 299.5 5.5 Q255 -9 210 -9 Q153 -9 108 0 Q63 9 24 29 L43 73 Q72 62 95 56 Q118 50 136 47 Q154 44 169.5 43 Q185 42 199 42 Q243 42 280.5 53 Q318 64 346 87.5 Q374 111 389.5 146.5 Q405 182 405 231 Q405 264 393.5 289 Q382 314 361.5 330 Q341 346 314.5 354 Q288 362 258 362 Q199 362 139 333 L104 364 L143 663 L480 663 L464 530 L417 530 L427 613 L190 613 L159 389 Q172 393 201.5 402 Q231 411 280 411 Z " />
<glyph glyph-name="six" unicode="6" horiz-adv-x="524" d="M132 364 Q160 381 203.5 397 Q247 413 303 413 Q338 413 369.5 403.5 Q401 394 424.5 373 Q448 352 461.5 319 Q475 286 475 239 Q475 183 457 137.5 Q439 92 407.5 60 Q376 28 332 10.5 Q288 -7 237 -7 Q184 -7 149.5 10 Q115 27 94.5 57.5 Q74 88 65.5 129 Q57 170 57 218 Q57 314 77 397 Q97 480 134.5 541.5 Q172 603 226 638.5 Q280 674 348 674 Q400 674 435.5 662 Q471 650 485 641 L466 599 Q431 615 399.5 620 Q368 625 344 625 Q306 625 276.5 611 Q247 597 224 574.5 Q201 552 184 523.5 Q167 495 155.5 466.5 Q144 438 137 411.5 Q130 385 127 367 L132 364 Z M292 363 Q250 363 218.5 354.5 Q187 346 164 335 Q138 323 118 308 L115 285 Q113 270 112 253 Q111 236 111 217 Q111 186 116.5 155 Q122 124 136.5 98.5 Q151 73 177 57 Q203 41 245 41 Q288 41 320.5 56 Q353 71 374.5 97.5 Q396 124 407 159 Q418 194 418 234 Q418 292 390.5 327.5 Q363 363 292 363 Z " />
<glyph glyph-name="seven" unicode="7" horiz-adv-x="524" d="M157 0 L99 0 L444 613 L172 613 L159 510 L110 510 L129 663 L507 663 L501 616 L157 0 Z " />
<glyph glyph-name="eight" unicode="8" horiz-adv-x="524" d="M320 628 Q276 628 247 613 Q218 598 201.5 577 Q185 556 178.5 534.5 Q172 513 172 500 Q172 474 185 455 Q198 436 219.5 421 Q241 406 269.5 393 Q298 380 328 367 Q395 410 420 449 Q445 488 445 522 Q445 541 439 560 Q433 579 419 594 Q405 609 381 618.5 Q357 628 320 628 Z M242 37 Q287 37 320 50.5 Q353 64 374.5 85.5 Q396 107 406.5 133 Q417 159 417 185 Q417 219 405.5 243 Q394 267 370.5 286 Q347 305 313 320.5 Q279 336 234 354 Q195 333 168 308.5 Q141 284 125 258 Q109 232 102 206.5 Q95 181 95 158 Q95 134 103 112 Q111 90 128.5 73.5 Q146 57 174 47 Q202 37 242 37 Z M328 674 Q361 674 391.5 665.5 Q422 657 446 639 Q470 621 484 593.5 Q498 566 498 528 Q498 480 468 434.5 Q438 389 373 346 Q420 321 445 282.5 Q470 244 470 188 Q470 153 455 118 Q440 83 411 55 Q382 27 338.5 10 Q295 -7 237 -7 Q186 -7 149 6 Q112 19 87.5 40.5 Q63 62 51.5 91 Q40 120 40 153 Q40 184 49.5 215 Q59 246 78 275.5 Q97 305 126.5 330.5 Q156 356 195 375 Q118 422 118 495 Q118 531 133.5 563 Q149 595 176.5 620 Q204 645 242.5 659.5 Q281 674 328 674 Z " />
<glyph glyph-name="nine" unicode="9" horiz-adv-x="524" d="M414 304 Q385 287 341.5 270.5 Q298 254 241 254 Q206 254 174.5 263.5 Q143 273 120 293.5 Q97 314 83.5 346.5 Q70 379 70 426 Q70 482 88 527.5 Q106 573 137.5 605.5 Q169 638 212.5 656 Q256 674 307 674 Q360 674 394.5 657 Q429 640 449.5 609.5 Q470 579 478.5 537.5 Q487 496 487 448 Q487 352 467.5 269 Q448 186 410.5 125 Q373 64 319 29 Q265 -6 196 -6 Q144 -6 104 6 Q64 18 50 27 L68 69 Q103 53 139.5 48 Q176 43 200 43 Q257 43 296 73 Q335 103 360.5 145 Q386 187 399.5 230.5 Q413 274 417 301 L414 304 Z M253 304 Q294 304 325.5 312 Q357 320 380 331 Q406 343 426 359 L428 382 Q430 398 432 415.5 Q434 433 433 452 Q433 482 427.5 512.5 Q422 543 407.5 567.5 Q393 592 367 607.5 Q341 623 299 623 Q256 623 223.5 608.5 Q191 594 169 568 Q147 542 136 506.5 Q125 471 125 429 Q125 373 153.5 338.5 Q182 304 253 304 Z " />
<glyph glyph-name="colon" unicode="&#x3a;" horiz-adv-x="174" d="M73 79 Q90 79 100 68.5 Q110 58 110 43 Q110 23 97 8 Q84 -7 64 -7 Q47 -7 37 4 Q27 15 27 31 Q27 51 40.5 65 Q54 79 73 79 Z M113 400 Q130 400 140 390 Q150 380 150 364 Q150 344 136 329 Q122 314 103 314 Q86 314 76 326 Q66 338 66 354 Q66 374 81 387 Q96 400 113 400 Z " />
<glyph glyph-name="semicolon" unicode="&#x3b;" horiz-adv-x="174" d="M113 400 Q130 400 140 390 Q150 380 150 364 Q150 344 136 329 Q122 314 103 314 Q86 314 76 326 Q66 338 66 354 Q66 374 81 387 Q96 400 113 400 Z M72 77 Q89 77 100.5 65 Q112 53 112 32 Q112 14 104 -5.5 Q96 -25 82 -43 Q68 -61 50 -76.5 Q32 -92 11 -102 L0 -84 Q19 -67 31.5 -50.5 Q44 -34 49 -8 Q25 -1 25 27 Q25 47 38.5 62 Q52 77 72 77 Z " />
<glyph glyph-name="less" unicode="&#x3c;" horiz-adv-x="524" d="M91 276 L96 317 L485 509 L478 453 L148 295 L439 134 L433 82 L91 276 Z " />
<glyph glyph-name="equal" unicode="&#x3d;" horiz-adv-x="524" d="M88 347 L94 394 L475 394 L469 347 L88 347 Z M71 210 L77 256 L458 256 L452 210 L71 210 Z " />
<glyph glyph-name="greater" unicode="&#x3e;" horiz-adv-x="524" d="M68 82 L74 138 L406 299 L113 457 L120 509 L461 317 L456 276 L68 82 Z " />
<glyph glyph-name="question" unicode="&#x3f;" horiz-adv-x="403" d="M265 702 Q346 702 385 673 Q424 644 424 590 Q424 561 415 537.5 Q406 514 390.5 493.5 Q375 473 355 455 Q335 437 313 421 Q269 389 241 364 Q213 339 196.5 316 Q180 293 173.5 270.5 Q167 248 167 221 Q167 210 167.5 197 Q168 184 168 168 L124 158 Q122 176 121 191.5 Q120 207 120 221 Q120 252 126.5 278.5 Q133 305 150 331 Q167 357 196 384.5 Q225 412 270 444 Q315 477 342.5 507 Q370 537 370 581 Q370 620 340 636.5 Q310 653 264 653 Q237 653 203 648.5 Q169 644 136 633 L125 538 L80 538 L96 672 Q139 687 184.5 694.5 Q230 702 265 702 Z M153 76 Q170 76 179.5 65 Q189 54 189 38 Q189 18 174.5 4 Q160 -10 143 -10 Q126 -10 116 1 Q106 12 106 28 Q106 48 119.5 62 Q133 76 153 76 Z " />
<glyph glyph-name="at" unicode="&#x40;" horiz-adv-x="883" d="M619 162 Q591 162 573 171 Q555 180 544 194 Q533 208 528.5 226.5 Q524 245 524 263 Q524 281 527 298 L524 298 Q507 257 487.5 230.5 Q468 204 448.5 188.5 Q429 173 409.5 167 Q390 161 372 161 Q329 161 301 195 Q273 229 273 300 Q273 354 285.5 403 Q298 452 323 489 Q348 526 385 547.5 Q422 569 472 569 Q495 569 517 564.5 Q539 560 566 551 L588 573 L609 569 L583 424 Q577 386 571 350 Q565 314 565 284 Q565 246 578.5 223 Q592 200 630 200 Q650 200 677 211.5 Q704 223 728.5 249.5 Q753 276 770 319 Q787 362 787 424 Q787 485 768 532.5 Q749 580 713.5 613 Q678 646 627 663 Q576 680 512 680 Q429 680 357.5 650.5 Q286 621 233.5 570 Q181 519 151 451 Q121 383 121 305 Q121 240 141 186 Q161 132 198 93 Q235 54 286.5 32 Q338 10 400 10 Q421 10 453.5 13 Q486 16 521 28 L531 -4 Q506 -15 468.5 -20.5 Q431 -26 398 -26 Q324 -26 265.5 -1 Q207 24 166 68 Q125 112 103 172 Q81 232 81 303 Q81 390 115.5 466 Q150 542 208.5 597.5 Q267 653 345 685 Q423 717 510 717 Q584 717 642.5 696.5 Q701 676 742 638.5 Q783 601 805 548 Q827 495 827 429 Q827 360 807.5 310 Q788 260 758 227 Q728 194 691 178 Q654 162 619 162 Z M384 200 Q401 200 420 210 Q439 220 459 243 Q479 266 499 305 Q519 344 538 401 L558 513 Q531 524 507.5 528 Q484 532 468 532 Q424 532 395 508.5 Q366 485 349 450.5 Q332 416 325.5 376.5 Q319 337 319 305 Q319 251 337 225.5 Q355 200 384 200 Z " />
<glyph glyph-name="A" unicode="A" horiz-adv-x="617" d="M392 0 L397 46 L466 46 L441 189 L173 189 L112 46 L184 46 L179 0 L-6 0 L-1 46 L56 46 Q122 200 194 365 Q266 530 333 684 L402 684 L525 46 L578 46 L573 0 L392 0 Z M375 555 L362 629 L360 629 Q359 627 358 623.5 Q357 620 353.5 612 Q350 604 344.5 590 Q339 576 329 554 Q312 514 279.5 439.5 Q247 365 195 239 L432 239 L375 555 Z " />
<glyph glyph-name="B" unicode="B" horiz-adv-x="569" d="M377 683 Q466 683 507 641 Q548 599 548 533 Q548 508 542.5 483 Q537 458 523.5 435 Q510 412 488 392 Q466 372 433 357 Q461 349 480.5 333 Q500 317 511 296.5 Q522 276 527 253 Q532 230 532 208 Q532 155 513.5 116 Q495 77 465.5 51.5 Q436 26 399.5 13 Q363 0 327 0 L14 0 L19 47 L85 47 L158 637 L96 637 L101 683 L377 683 Z M175 331 L140 47 L311 47 Q354 47 385 59.5 Q416 72 436 94 Q456 116 465.5 145.5 Q475 175 475 210 Q475 234 467 256 Q459 278 443.5 294.5 Q428 311 403.5 321 Q379 331 346 331 L175 331 Z M213 637 L181 378 L333 378 Q371 378 401 389 Q431 400 451.5 420 Q472 440 483 467.5 Q494 495 494 527 Q494 575 464 606 Q434 637 365 637 L213 637 Z " />
<glyph glyph-name="C" unicode="C" horiz-adv-x="529" d="M491 23 Q474 17 452 11.5 Q430 6 405.5 2 Q381 -2 356 -4.5 Q331 -7 309 -7 Q181 -7 121 62.5 Q61 132 61 263 Q61 300 66 346 Q71 392 83.5 440 Q96 488 119 533.5 Q142 579 178 614.5 Q214 650 265 671.5 Q316 693 385 693 Q440 693 479.5 685 Q519 677 545 666 L528 522 L481 522 L494 629 Q473 636 443 640.5 Q413 645 381 645 Q316 645 267 616.5 Q218 588 185 537.5 Q152 487 135 416.5 Q118 346 118 262 Q118 215 128.5 175 Q139 135 163 105.5 Q187 76 226 59 Q265 42 322 42 Q350 42 394 47 Q438 52 481 66 L491 23 Z " />
<glyph glyph-name="D" unicode="D" horiz-adv-x="614" d="M349 683 Q417 683 462.5 662 Q508 641 535.5 604 Q563 567 574.5 517 Q586 467 586 410 Q586 329 569 254.5 Q552 180 514.5 123.5 Q477 67 417 33.5 Q357 0 270 0 L14 0 L19 46 L85 46 L158 637 L96 637 L101 683 L349 683 Z M215 637 L142 47 L259 47 Q273 47 298.5 49 Q324 51 354 61 Q384 71 415 93 Q446 115 471.5 154 Q497 193 513 253 Q529 313 529 400 Q529 488 507 536 Q485 584 454.5 606.5 Q424 629 391 633 Q358 637 336 637 L215 637 Z " />
<glyph glyph-name="E" unicode="E" horiz-adv-x="524" d="M19 46 L83 46 L156 637 L96 637 L101 682 L536 682 L520 548 L474 548 L485 637 L211 637 L179 382 L451 388 L445 334 L174 338 L138 46 L433 46 L444 135 L493 135 L477 0 L14 0 L19 46 Z " />
<glyph glyph-name="F" unicode="F" horiz-adv-x="498" d="M227 0 L14 0 L19 46 L83 46 L156 637 L96 637 L101 682 L531 682 L515 548 L469 548 L480 637 L211 637 L179 382 L447 388 L441 334 L174 338 L138 46 L232 46 L227 0 Z " />
<glyph glyph-name="G" unicode="G" horiz-adv-x="588" d="M400 693 Q454 693 494 685 Q534 677 559 666 L542 522 L496 522 L509 629 Q488 636 457.5 640.5 Q427 645 395 645 Q326 645 274.5 616.5 Q223 588 188 537.5 Q153 487 135.5 418.5 Q118 350 118 270 Q118 222 127.5 180.5 Q137 139 159.5 108.5 Q182 78 220 60.5 Q258 43 316 43 Q344 43 377.5 47 Q411 51 437 60 L467 303 L367 303 L372 348 L576 348 L571 303 L520 303 L485 22 Q437 7 393.5 0 Q350 -7 303 -7 Q240 -7 194 11.5 Q148 30 118.5 65 Q89 100 75 150 Q61 200 61 263 Q61 302 66.5 349 Q72 396 86.5 443.5 Q101 491 125.5 536 Q150 581 188 616 Q226 651 278 672 Q330 693 400 693 Z " />
<glyph glyph-name="H" unicode="H" horiz-adv-x="644" d="M402 0 L407 47 L467 47 L503 336 L171 336 L135 47 L196 47 L191 0 L14 0 L19 47 L79 47 L152 637 L92 637 L97 683 L274 683 L269 637 L208 637 L177 385 L509 385 L540 637 L480 637 L485 683 L663 683 L658 637 L597 637 L524 47 L585 47 L580 0 L402 0 Z " />
<glyph glyph-name="I" unicode="I" horiz-adv-x="311" d="M43 0 L48 46 L107 46 L180 637 L121 637 L126 683 L301 683 L296 637 L235 637 L162 46 L223 46 L218 0 L43 0 Z " />
<glyph glyph-name="J" unicode="J" horiz-adv-x="311" d="M87 637 L92 683 L337 683 L332 637 L243 637 L178 122 Q170 61 154.5 13.5 Q139 -34 111 -69.5 Q83 -105 42 -130.5 Q1 -156 -56 -174 L-69 -134 Q-18 -113 15.5 -89.5 Q49 -66 71 -37.5 Q93 -9 104 26 Q115 61 121 106 L187 637 L87 637 Z " />
<glyph glyph-name="K" unicode="K" horiz-adv-x="590" d="M305 413 L508 48 L565 48 L560 0 L378 0 L382 48 L449 48 L266 379 L164 287 L134 47 L197 47 L192 0 L14 0 L19 47 L79 47 L152 637 L92 637 L97 683 L273 683 L268 637 L207 637 L172 356 L483 637 L422 636 L427 683 L612 683 L607 636 L554 636 L305 413 Z " />
<glyph glyph-name="L" unicode="L" horiz-adv-x="504" d="M282 637 L211 637 L138 46 L426 46 L441 165 L490 165 L470 0 L14 0 L19 46 L83 46 L156 637 L96 637 L101 682 L287 682 L282 637 Z " />
<glyph glyph-name="M" unicode="M" horiz-adv-x="800" d="M392 130 L463 260 L695 683 L819 683 L814 637 L754 637 L681 46 L741 46 L736 0 L560 0 L565 46 L627 46 L693 580 L691 580 L630 466 L409 67 L355 67 L229 474 L197 580 L195 580 L131 46 L194 46 L189 0 L14 0 L19 46 L78 46 L151 637 L92 637 L97 683 L217 683 L347 258 L386 130 L392 130 Z " />
<glyph glyph-name="N" unicode="N" horiz-adv-x="678" d="M510 104 L576 637 L508 637 L513 683 L697 683 L692 637 L629 637 L551 0 L500 0 L263 475 L206 592 L203 591 L137 47 L205 47 L200 0 L14 0 L19 47 L84 47 L157 637 L92 637 L97 683 L221 683 L441 238 L505 104 L510 104 Z " />
<glyph glyph-name="O" unicode="O" horiz-adv-x="629" d="M373 693 Q440 693 483.5 671 Q527 649 553 611.5 Q579 574 589.5 524.5 Q600 475 600 419 Q600 331 581 253.5 Q562 176 524 118 Q486 60 429.5 26.5 Q373 -7 299 -7 Q234 -7 188.5 11 Q143 29 114.5 62.5 Q86 96 73 144 Q60 192 60 253 Q60 331 76.5 409.5 Q93 488 130.5 551 Q168 614 227.5 653.5 Q287 693 373 693 Z M374 646 Q299 646 249.5 609.5 Q200 573 170 516 Q140 459 127.5 389 Q115 319 115 252 Q115 146 158.5 93 Q202 40 299 40 Q365 40 411.5 72 Q458 104 488 157.5 Q518 211 531.5 279 Q545 347 545 419 Q545 462 538 503 Q531 544 512 576 Q493 608 459.5 627 Q426 646 374 646 Z " />
<glyph glyph-name="P" unicode="P" horiz-adv-x="526" d="M14 0 L19 46 L80 46 L153 637 L92 637 L97 683 L359 683 Q396 683 428 673 Q460 663 483.5 642 Q507 621 520 589 Q533 557 533 513 Q533 479 522.5 439.5 Q512 400 487.5 366.5 Q463 333 421.5 310.5 Q380 288 318 288 L165 288 L135 46 L217 46 L212 0 L14 0 Z M318 334 Q343 334 371 342.5 Q399 351 422.5 371 Q446 391 461 424.5 Q476 458 476 509 Q476 574 443 605.5 Q410 637 356 637 L208 637 L171 334 L318 334 Z " />
<glyph glyph-name="Q" unicode="Q" horiz-adv-x="628" d="M373 693 Q440 693 483.5 671 Q527 649 553 611.5 Q579 574 589.5 524.5 Q600 475 600 419 Q600 349 587.5 285 Q575 221 551 168 Q527 115 490.5 75.5 Q454 36 406 15 L550 -23 L520 -81 L299 -7 Q234 -7 188.5 11 Q143 29 114.5 62.5 Q86 96 73 144 Q60 192 60 253 Q60 331 76.5 409.5 Q93 488 130.5 551 Q168 614 227.5 653.5 Q287 693 373 693 Z M374 646 Q299 646 249.5 609.5 Q200 573 170 516 Q140 459 127.5 389 Q115 319 115 252 Q115 146 158.5 93 Q202 40 299 40 Q365 40 411.5 72 Q458 104 488 157.5 Q518 211 531.5 279 Q545 347 545 419 Q545 462 538 503 Q531 544 512 576 Q493 608 459.5 627 Q426 646 374 646 Z " />
<glyph glyph-name="R" unicode="R" horiz-adv-x="567" d="M14 0 L19 46 L80 46 L153 637 L92 637 L97 683 L359 683 Q397 683 429 674 Q461 665 484.5 645.5 Q508 626 521 595 Q534 564 534 519 Q534 487 526 455 Q518 423 500 395 Q482 367 453 345.5 Q424 324 381 315 L465 47 L535 38 L537 5 Q522 0 498 -3.5 Q474 -7 460 -7 Q435 -7 427 5 Q419 17 412 37 L327 308 L167 308 L135 46 L217 46 L212 0 L14 0 Z M324 354 Q350 354 377 361 Q404 368 426.5 385.5 Q449 403 463.5 434 Q478 465 478 513 Q478 581 444.5 609 Q411 637 356 637 L208 637 L173 354 L324 354 Z " />
<glyph glyph-name="S" unicode="S" horiz-adv-x="498" d="M76 168 L64 76 Q98 58 136.5 50.5 Q175 43 212 43 Q255 43 291.5 52.5 Q328 62 354.5 80.5 Q381 99 396 128 Q411 157 411 196 Q411 228 400 249 Q389 270 369.5 284.5 Q350 299 324 308 Q298 317 267 326 Q229 337 195.5 349 Q162 361 136.5 379.5 Q111 398 96.5 425 Q82 452 82 494 Q82 544 100.5 581.5 Q119 619 149 643.5 Q179 668 218.5 680.5 Q258 693 300 693 Q319 693 341 691 Q363 689 386.5 684.5 Q410 680 432.5 672.5 Q455 665 474 654 L458 529 L411 529 L423 624 Q390 637 361 641 Q332 645 300 645 Q268 645 238.5 636 Q209 627 186.5 609 Q164 591 150.5 563.5 Q137 536 137 499 Q137 472 149.5 452.5 Q162 433 181.5 419.5 Q201 406 225.5 396.5 Q250 387 275 379 Q309 368 343 357.5 Q377 347 404.5 329 Q432 311 449.5 281 Q467 251 467 202 Q467 145 445 105 Q423 65 386.5 40 Q350 15 304 4 Q258 -7 210 -7 Q158 -7 107 4.5 Q56 16 14 45 L29 168 L76 168 Z " />
<glyph glyph-name="T" unicode="T" horiz-adv-x="502" d="M529 538 L481 538 L493 637 L332 637 L259 46 L341 46 L336 0 L121 0 L126 46 L205 46 L278 637 L114 637 L102 538 L56 538 L73 683 L545 683 L529 538 Z " />
<glyph glyph-name="U" unicode="U" horiz-adv-x="662" d="M500 637 L505 683 L690 683 L685 637 L624 637 L575 243 Q568 187 549.5 141 Q531 95 498.5 62 Q466 29 420 11 Q374 -7 313 -7 Q246 -7 200.5 11 Q155 29 129 62.5 Q103 96 94.5 143 Q86 190 93 249 L141 637 L82 637 L87 683 L272 683 L267 637 L197 637 L148 244 Q136 143 175 92 Q214 41 309 41 Q401 41 455 92 Q509 143 521 244 L570 637 L500 637 Z " />
<glyph glyph-name="V" unicode="V" horiz-adv-x="585" d="M282 66 L335 198 L519 637 L458 637 L463 683 L638 683 L633 637 L574 637 L301 0 L239 0 L122 637 L63 637 L68 683 L244 683 L239 637 L177 637 L256 195 L278 66 L282 66 Z " />
<glyph glyph-name="W" unicode="W" horiz-adv-x="855" d="M720 637 L725 683 L908 683 L903 637 L843 637 Q816 561 787 480.5 Q758 400 728.5 318.5 Q699 237 670 156.5 Q641 76 614 0 L554 0 L486 413 L471 513 L469 513 L428 408 L261 0 L198 0 L122 637 L63 637 L68 683 L253 683 L248 637 L177 637 L228 171 L238 72 L240 72 L280 174 L453 603 L448 637 L379 637 L384 683 L577 683 L572 637 L500 637 L578 161 L591 72 L593 72 L628 173 L789 637 L720 637 Z " />
<glyph glyph-name="X" unicode="X" horiz-adv-x="586" d="M145 637 L87 637 L92 683 L278 683 L273 637 L205 637 L318 395 L492 637 L422 637 L427 683 L616 683 L611 637 L553 637 L343 351 L487 47 L548 47 L543 0 L348 0 L353 47 L428 47 L303 312 L117 47 L195 47 L190 0 L-6 0 L-1 47 L58 47 L279 356 L145 637 Z " />
<glyph glyph-name="Y" unicode="Y" horiz-adv-x="534" d="M284 356 L468 637 L403 637 L408 683 L582 683 L577 637 L526 637 L307 310 L274 46 L353 46 L348 0 L133 0 L138 46 L218 46 L250 307 L115 637 L63 637 L68 683 L237 683 L232 637 L169 637 L280 356 L284 356 Z " />
<glyph glyph-name="Z" unicode="Z" horiz-adv-x="481" d="M-6 0 L-1 46 L434 637 L142 637 L130 538 L84 538 L101 683 L503 683 L498 637 L63 47 L393 47 L407 155 L456 155 L437 0 L-6 0 Z " />
<glyph glyph-name="bracketleft" unicode="&#x5b;" horiz-adv-x="228" d="M4 -160 L109 696 L254 696 L249 654 L154 654 L59 -115 L154 -115 L149 -160 L4 -160 Z " />
<glyph glyph-name="backslash" unicode="&#x5c;" horiz-adv-x="306" d="M77 698 L109 698 L268 -26 L235 -26 L77 698 Z " />
<glyph glyph-name="bracketright" unicode="&#x5d;" horiz-adv-x="228" d="M-16 -160 L-11 -115 L84 -115 L179 654 L84 654 L89 696 L235 696 L130 -160 L-16 -160 Z " />
<glyph glyph-name="asciicircum" unicode="&#x5e;" horiz-adv-x="410" d="M366 393 L260 637 L93 393 L44 393 L244 683 L282 683 L408 393 L366 393 Z " />
<glyph glyph-name="underscore" unicode="&#x5f;" horiz-adv-x="485" d="M-40 -126 L-36 -90 L448 -90 L444 -126 L-40 -126 Z " />
<glyph glyph-name="grave" unicode="&#x60;" horiz-adv-x="458" d="M286 536 L176 675 L229 715 L318 557 L286 536 Z " />
<glyph glyph-name="a" unicode="a" horiz-adv-x="516" d="M283 493 Q310 493 338.5 486.5 Q367 480 399 469 L425 495 L450 493 Q441 435 432 373 Q423 311 414.5 252 Q406 193 400 140.5 Q394 88 391 49 Q412 51 435.5 60 Q459 69 481 82 L496 62 Q482 48 466.5 35 Q451 22 435 12 Q419 2 404.5 -4 Q390 -10 379 -10 Q364 -10 354.5 -3.5 Q345 3 340.5 13.5 Q336 24 335.5 38 Q335 52 337 67 Q339 90 342.5 112.5 Q346 135 351 159 L347 159 Q326 109 302 76.5 Q278 44 254 25.5 Q230 7 206 -0.5 Q182 -8 161 -8 Q107 -8 73.5 33.5 Q40 75 40 162 Q40 229 55.5 289 Q71 349 101.5 394.5 Q132 440 177.5 466.5 Q223 493 283 493 Z M176 39 Q197 39 220 51 Q243 63 267.5 91.5 Q292 120 317 167.5 Q342 215 365 285 L387 423 Q354 437 326 441.5 Q298 446 278 446 Q224 446 189 417.5 Q154 389 133 347 Q112 305 104 256.5 Q96 208 96 169 Q96 103 118 71 Q140 39 176 39 Z " />
<glyph glyph-name="b" unicode="b" horiz-adv-x="476" d="M315 496 Q369 496 402.5 454.5 Q436 413 436 326 Q436 259 420.5 199 Q405 139 374.5 93.5 Q344 48 298.5 21.5 Q253 -5 193 -5 Q158 -5 120.5 4 Q83 13 38 33 L35 40 Q57 198 75.5 348 Q94 498 111 662 L10 677 L13 705 Q45 713 76 717 Q107 721 134 721 Q153 721 160.5 712.5 Q168 704 168 690 Q168 684 166 660 Q164 636 160 602 Q156 568 151.5 527.5 Q147 487 142.5 449 Q138 411 133 378.5 Q128 346 125 329 L129 329 Q150 379 174 411.5 Q198 444 222 462.5 Q246 481 270 488.5 Q294 496 315 496 Z M300 449 Q279 449 256 437 Q233 425 208.5 396.5 Q184 368 159 320.5 Q134 273 111 203 L91 65 Q124 51 151 46.5 Q178 42 198 42 Q252 42 287 70.5 Q322 99 343 141 Q364 183 372 231.5 Q380 280 380 319 Q380 385 358 417 Q336 449 300 449 Z " />
<glyph glyph-name="c" unicode="c" horiz-adv-x="427" d="M208 39 Q246 39 279 47 Q312 55 352 72 L367 37 Q336 20 292.5 7 Q249 -6 203 -6 Q158 -6 127 7 Q96 20 76.5 44 Q57 68 48.5 101 Q40 134 40 174 Q40 200 43.5 234 Q47 268 57 303.5 Q67 339 84.5 374 Q102 409 129 436 Q156 463 194.5 480 Q233 497 286 497 Q318 497 344.5 490.5 Q371 484 385 479 Q399 473 406 465.5 Q413 458 411 442 Q411 437 408 425 Q405 413 400.5 398 Q396 383 390.5 367 Q385 351 379 338 L351 339 L357 439 Q342 444 320.5 447.5 Q299 451 278 451 Q232 451 197.5 428.5 Q163 406 139.5 368 Q116 330 104.5 279.5 Q93 229 93 173 Q93 144 98.5 119.5 Q104 95 117.5 77 Q131 59 153 49 Q175 39 208 39 Z " />
<glyph glyph-name="d" unicode="d" horiz-adv-x="519" d="M435 721 Q454 721 461.5 712.5 Q469 704 469 690 Q469 685 468 670 Q467 655 463 626 L394 49 Q415 51 438.5 60 Q462 69 484 82 L499 62 Q485 48 469.5 35 Q454 22 438 12 Q422 2 407.5 -4 Q393 -10 382 -10 Q367 -10 357.5 -3.5 Q348 3 343.5 13.5 Q339 24 338.5 38 Q338 52 340 67 Q342 90 345.5 112.5 Q349 135 354 159 L350 159 Q329 109 304.5 76.5 Q280 44 255.5 25.5 Q231 7 206.5 -0.5 Q182 -8 161 -8 Q107 -8 73.5 33.5 Q40 75 40 162 Q40 229 55.5 289 Q71 349 101.5 394.5 Q132 440 177.5 466.5 Q223 493 283 493 Q307 493 334.5 487.5 Q362 482 391 473 L412 662 L311 677 L314 705 Q346 713 377 717 Q408 721 435 721 Z M176 39 Q197 39 220.5 51 Q244 63 269 91.5 Q294 120 319.5 167.5 Q345 215 368 285 L387 423 Q354 437 326 441.5 Q298 446 278 446 Q224 446 189 417.5 Q154 389 133 347 Q112 305 104 256.5 Q96 208 96 169 Q96 103 118 71 Q140 39 176 39 Z " />
<glyph glyph-name="e" unicode="e" horiz-adv-x="441" d="M199 -6 Q151 -6 120 9 Q89 24 71.5 49.5 Q54 75 47 109.5 Q40 144 40 182 Q40 228 50.5 283.5 Q61 339 89 386.5 Q117 434 165 466 Q213 498 287 498 Q320 498 343.5 488 Q367 478 382 462 Q397 446 404 425 Q411 404 411 382 Q411 332 385 299 Q359 266 315.5 245.5 Q272 225 215 214.5 Q158 204 95 200 Q94 194 94 187 Q94 180 94 173 Q94 150 98.5 126 Q103 102 115.5 82.5 Q128 63 150 50.5 Q172 38 208 38 Q246 38 282 47.5 Q318 57 356 74 L371 40 Q343 22 296.5 8 Q250 -6 199 -6 Z M99 244 Q224 250 290.5 281.5 Q357 313 357 376 Q357 409 339.5 430 Q322 451 280 451 Q202 451 156 395.5 Q110 340 99 244 Z " />
<glyph glyph-name="f" unicode="f" horiz-adv-x="299" d="M165 448 L125 120 Q117 61 108.5 1.5 Q100 -58 81 -105.5 Q62 -153 28.5 -182.5 Q-5 -212 -62 -212 Q-79 -212 -100.5 -209 Q-122 -206 -144 -200 L-132 -162 Q-110 -167 -95 -168 Q-80 -169 -66 -169 Q-13 -169 16 -126 Q45 -83 58 12 Q69 96 79 174 Q89 252 96.5 312.5 Q104 373 108 409.5 Q112 446 112 448 L32 448 L35 474 L116 492 L119 516 Q125 562 135.5 601.5 Q146 641 165.5 669.5 Q185 698 215 714.5 Q245 731 289 731 Q306 731 328.5 728 Q351 725 373 719 L362 676 Q345 681 326 682.5 Q307 684 293 684 Q270 684 250.5 677 Q231 670 216 652 Q201 634 190.5 603 Q180 572 175 523 L171 487 L305 487 L301 448 L165 448 Z " />
<glyph glyph-name="g" unicode="g" horiz-adv-x="481" d="M380 -13 Q376 -45 366 -80.5 Q356 -116 332.5 -147 Q309 -178 268 -198 Q227 -218 162 -218 Q120 -218 83 -207.5 Q46 -197 25 -186 L44 -143 Q63 -154 97.5 -162.5 Q132 -171 163 -171 Q216 -171 247.5 -153 Q279 -135 296.5 -105.5 Q314 -76 321.5 -38 Q329 0 335 41 L351 159 L347 159 Q326 109 302 76.5 Q278 44 254 25.5 Q230 7 206 -0.5 Q182 -8 161 -8 Q107 -8 73.5 33.5 Q40 75 40 162 Q40 229 55.5 289 Q71 349 101.5 394.5 Q132 440 177.5 466.5 Q223 493 283 493 Q318 493 355.5 484 Q393 475 438 455 L441 448 L380 -13 Z M176 39 Q197 39 220 51 Q243 63 267.5 91.5 Q292 120 317 167.5 Q342 215 365 285 L385 423 Q352 437 325 441.5 Q298 446 278 446 Q224 446 189 417.5 Q154 389 133 347 Q112 305 104 256.5 Q96 208 96 169 Q96 103 118 71 Q140 39 176 39 Z " />
<glyph glyph-name="h" unicode="h" horiz-adv-x="539" d="M358 496 Q410 496 429.5 468 Q449 440 449 397 Q449 387 447.5 367.5 Q446 348 442.5 309.5 Q439 271 432 208 Q425 145 414 49 Q435 51 455.5 57 Q476 63 498 76 L513 56 Q450 -10 401 -10 Q378 -10 368.5 1.5 Q359 13 359 35 Q359 41 359.5 47.5 Q360 54 361 62 Q373 164 379.5 225 Q386 286 389.5 319 Q393 352 393.5 365 Q394 378 394 386 Q394 412 383.5 430.5 Q373 449 347 449 Q326 449 300.5 436 Q275 423 248.5 394 Q222 365 196 318 Q170 271 148 203 L120 0 L66 0 Q71 39 78 94 Q85 149 92.5 212.5 Q100 276 108 342 Q116 408 123 468.5 Q130 529 135.5 579.5 Q141 630 144 661 L45 676 L48 704 Q80 712 111 716 Q142 720 169 720 Q186 720 195 715 Q204 710 204 696 Q204 689 201.5 663 Q199 637 195 601.5 Q191 566 186.5 525 Q182 484 177 445.5 Q172 407 168 376 Q164 345 162 329 L166 329 Q188 377 215 409.5 Q242 442 268 461 Q294 480 318 488 Q342 496 358 496 Z " />
<glyph glyph-name="i" unicode="i" horiz-adv-x="263" d="M155 497 Q174 497 182 492 Q190 487 190 473 L137 49 Q158 51 179.5 57 Q201 63 223 76 L238 56 Q207 23 178 6.5 Q149 -10 126 -10 Q101 -10 92.5 3 Q84 16 84 36 Q84 42 84.5 48.5 Q85 55 86 62 L133 438 L44 453 L46 481 Q78 489 106 493 Q134 497 155 497 Z M174 647 Q188 647 198.5 637 Q209 627 209 612 Q209 595 197 581.5 Q185 568 167 568 Q153 568 143 578 Q133 588 133 602 Q133 620 145 633.5 Q157 647 174 647 Z " />
<glyph glyph-name="j" unicode="j" horiz-adv-x="247" d="M146 84 Q140 29 128.5 -20 Q117 -69 95.5 -108 Q74 -147 40.5 -175 Q7 -203 -43 -217 L-52 -186 Q-11 -168 15 -140.5 Q41 -113 56.5 -79 Q72 -45 79.5 -7 Q87 31 91 70 L129 438 L41 453 L44 481 Q76 489 103.5 493 Q131 497 152 497 Q169 497 179 492 Q189 487 189 473 L146 84 Z M205 612 Q205 595 193 581.5 Q181 568 163 568 Q149 568 139 578 Q129 588 129 602 Q129 620 141 633.5 Q153 647 170 647 Q184 647 194.5 637 Q205 627 205 612 Z " />
<glyph glyph-name="k" unicode="k" horiz-adv-x="434" d="M20 0 Q32 85 43.5 166 Q55 247 65.5 328.5 Q76 410 86 493 Q96 576 107 664 L19 675 L21 702 Q47 710 79.5 716.5 Q112 723 138 723 Q152 723 159 715.5 Q166 708 166 697 L166 692 Q158 628 151 575.5 Q144 523 137 474 Q130 425 123 376 Q116 327 109 271 L112 271 Q134 311 164 351.5 Q194 392 227.5 424.5 Q261 457 297 477.5 Q333 498 366 498 Q393 498 409 484.5 Q425 471 426 448 L406 427 Q377 439 353 439 Q328 439 306 428.5 Q284 418 264.5 401.5 Q245 385 227 364 Q209 343 192 321 Q210 283 233 238.5 Q256 194 278.5 153.5 Q301 113 319 83 Q337 53 345 46 Q374 52 392.5 65 Q411 78 425 89 L441 71 Q408 23 381 6.5 Q354 -10 336 -10 Q307 -10 266 62 Q225 134 156 273 Q144 257 136 245 Q128 233 122 222.5 Q116 212 110.5 200.5 Q105 189 98 173 L75 0 L20 0 Z " />
<glyph glyph-name="l" unicode="l" horiz-adv-x="256" d="M169 721 Q186 721 195 716 Q204 711 204 697 Q204 687 199.5 645.5 Q195 604 188 544.5 Q181 485 172 414 Q163 343 154.5 274.5 Q146 206 138 146 Q130 86 126 49 Q147 51 168 57 Q189 63 211 76 L226 56 Q195 23 166 6.5 Q137 -10 114 -10 Q91 -10 81.5 0.5 Q72 11 72 35 Q72 41 72.5 47.5 Q73 54 74 62 L146 662 L47 677 L49 705 Q81 713 114.5 717 Q148 721 169 721 Z " />
<glyph glyph-name="m" unicode="m" horiz-adv-x="786" d="M434 322 Q453 368 477 401.5 Q501 435 525.5 456.5 Q550 478 572.5 488 Q595 498 611 498 Q663 498 682.5 470 Q702 442 702 399 Q702 389 700.5 369.5 Q699 350 695.5 311.5 Q692 273 685 210 Q678 147 667 51 Q688 53 708.5 59 Q729 65 751 78 L766 58 Q703 -8 654 -8 Q631 -8 621.5 3.5 Q612 15 612 37 Q612 43 612.5 49.5 Q613 56 614 64 Q627 172 633.5 234 Q640 296 643 328.5 Q646 361 646.5 372 Q647 383 647 391 Q647 417 636 434 Q625 451 600 451 Q579 451 556.5 437.5 Q534 424 510.5 394.5 Q487 365 464 318 Q441 271 419 204 Q416 187 414.5 174 Q413 161 411 141 Q409 121 405.5 88.5 Q402 56 395 0 L341 0 L354 109 Q364 200 370 253 Q376 306 378 333.5 Q380 361 380.5 371.5 Q381 382 381 389 Q381 415 370 432 Q359 449 334 449 Q313 449 291 436 Q269 423 246 394 Q223 365 200 318 Q177 271 155 203 L127 0 L73 0 Q81 58 88.5 117.5 Q96 177 103 234 Q110 291 116 343 Q122 395 127 438 L28 453 L31 481 Q63 489 94 493 Q125 497 152 497 Q169 497 178 492 Q187 487 187 473 Q187 451 181.5 414 Q176 377 169 329 L173 329 Q195 377 218.5 409.5 Q242 442 265 461 Q288 480 308.5 488 Q329 496 345 496 Q397 496 416.5 468 Q436 440 436 397 Q436 388 434.5 371.5 Q433 355 431 324 L434 322 Z " />
<glyph glyph-name="n" unicode="n" horiz-adv-x="540" d="M365 496 Q417 496 436.5 468 Q456 440 456 397 Q456 387 454.5 367.5 Q453 348 449.5 309.5 Q446 271 439 208 Q432 145 421 49 Q442 51 462.5 57 Q483 63 505 76 L520 56 Q457 -10 408 -10 Q385 -10 375.5 1.5 Q366 13 366 35 Q366 41 366.5 47.5 Q367 54 368 62 Q381 170 387.5 232 Q394 294 397 326.5 Q400 359 400.5 370 Q401 381 401 389 Q401 415 390 432 Q379 449 354 449 Q333 449 307.5 436 Q282 423 255.5 394 Q229 365 203 318 Q177 271 155 203 L127 0 L73 0 Q81 58 88.5 117.5 Q96 177 103.5 234 Q111 291 117 343 Q123 395 128 438 L29 453 L31 481 Q63 489 94 493 Q125 497 152 497 Q169 497 178 492 Q187 487 187 473 Q187 451 181.5 414 Q176 377 169 329 L173 329 Q195 377 222 409.5 Q249 442 275 461 Q301 480 325 488 Q349 496 365 496 Z " />
<glyph glyph-name="o" unicode="o" horiz-adv-x="468" d="M270 450 Q234 450 206.5 436 Q179 422 159.5 399 Q140 376 127.5 346 Q115 316 107.5 285 Q100 254 97 223.5 Q94 193 94 168 Q94 143 99.5 119.5 Q105 96 118.5 78 Q132 60 155 49 Q178 38 213 38 Q266 38 299.5 67 Q333 96 351.5 137.5 Q370 179 376.5 224 Q383 269 383 302 Q383 330 378 357 Q373 384 360 404.5 Q347 425 325.5 437.5 Q304 450 270 450 Z M271 497 Q318 497 350 481 Q382 465 401.5 438 Q421 411 429.5 376 Q438 341 438 303 Q438 257 428 203 Q418 149 392.5 102.5 Q367 56 321.5 24.5 Q276 -7 206 -7 Q158 -7 126 7.5 Q94 22 75 47.5 Q56 73 48 107 Q40 141 40 179 Q40 231 52 287 Q64 343 91 389.5 Q118 436 162 466.5 Q206 497 271 497 Z " />
<glyph glyph-name="p" unicode="p" horiz-adv-x="506" d="M330 445 Q309 445 285.5 433 Q262 421 237 392.5 Q212 364 186.5 316.5 Q161 269 138 199 L119 61 Q152 47 180 42.5 Q208 38 228 38 Q282 38 317 66.5 Q352 95 373 137 Q394 179 402 227.5 Q410 276 410 315 Q410 381 388 413 Q366 445 330 445 Z M112 438 L13 453 L15 481 Q47 489 78 493 Q109 497 136 497 Q153 497 162 492 Q171 487 171 473 Q171 471 170 463.5 Q169 456 167 439.5 Q165 423 161.5 395.5 Q158 368 153 325 L157 325 Q178 375 202 407.5 Q226 440 251 458.5 Q276 477 300 484.5 Q324 492 345 492 Q399 492 432.5 450.5 Q466 409 466 322 Q466 255 450.5 195 Q435 135 404.5 89.5 Q374 44 328.5 17.5 Q283 -9 223 -9 Q199 -9 171.5 -3.5 Q144 2 115 11 L93 -163 L187 -163 L182 -208 L-40 -208 L-35 -163 L41 -163 L112 438 Z " />
<glyph glyph-name="q" unicode="q" horiz-adv-x="488" d="M366 -163 L443 -163 L438 -208 L216 -208 L221 -163 L311 -163 Q325 -29 335 49.5 Q345 128 351 159 L347 159 Q326 109 302 76.5 Q278 44 254 25.5 Q230 7 206 -0.5 Q182 -8 161 -8 Q107 -8 73.5 33.5 Q40 75 40 162 Q40 229 55.5 289 Q71 349 101.5 394.5 Q132 440 177.5 466.5 Q223 493 283 493 Q318 493 355.5 484 Q393 475 438 455 L441 448 L366 -163 Z M176 39 Q197 39 220 51 Q243 63 267.5 91.5 Q292 120 317 167.5 Q342 215 365 285 L385 423 Q352 437 325 441.5 Q298 446 278 446 Q224 446 189 417.5 Q154 389 133 347 Q112 305 104 256.5 Q96 208 96 169 Q96 103 118 71 Q140 39 176 39 Z " />
<glyph glyph-name="r" unicode="r" horiz-adv-x="391" d="M152 497 Q169 497 178 492 Q187 487 187 473 Q187 457 182.5 423.5 Q178 390 171 342 L174 342 Q193 393 213 423.5 Q233 454 253.5 470.5 Q274 487 293 492.5 Q312 498 328 498 Q357 498 371.5 483 Q386 468 386 448 L365 427 Q349 435 336.5 437 Q324 439 313 439 Q272 439 230 382.5 Q188 326 154 203 L127 0 L75 0 L130 438 L42 453 L44 481 Q76 489 100.5 493 Q125 497 152 497 Z " />
<glyph glyph-name="s" unicode="s" horiz-adv-x="396" d="M160 -6 Q119 -6 93 -1 Q67 4 52.5 12 Q38 20 32.5 31 Q27 42 27 54 Q27 74 37 105 Q47 136 59 162 L84 161 L78 52 Q114 38 160 38 Q186 38 211.5 43.5 Q237 49 257 60.5 Q277 72 289 90.5 Q301 109 301 135 Q301 155 292.5 169 Q284 183 269.5 193.5 Q255 204 237 212.5 Q219 221 200 230 Q168 245 141.5 259 Q115 273 96 289 Q77 305 66.5 323.5 Q56 342 56 365 Q56 400 71.5 425 Q87 450 111.5 466 Q136 482 167 489.5 Q198 497 228 497 Q253 497 275.5 492.5 Q298 488 315 480.5 Q332 473 342 463 Q352 453 352 441 Q352 431 349 417 Q346 403 341.5 387.5 Q337 372 331.5 356.5 Q326 341 320 328 L295 329 L301 434 Q287 442 268.5 446.5 Q250 451 226 451 Q205 451 184.5 446.5 Q164 442 148 432 Q132 422 122 405.5 Q112 389 112 365 Q112 349 122 336 Q132 323 147 312.5 Q162 302 179.5 293.5 Q197 285 212 278 Q238 266 263 253.5 Q288 241 308 224.5 Q328 208 340 187 Q352 166 352 138 Q352 101 335.5 74 Q319 47 292 29 Q265 11 230.5 2.5 Q196 -6 160 -6 Z " />
<glyph glyph-name="t" unicode="t" horiz-adv-x="334" d="M131 124 Q129 107 129.5 92.5 Q130 78 136 67 Q142 56 154 49.5 Q166 43 186 43 Q202 43 227 46.5 Q252 50 281 59 L292 23 Q266 11 234 3.5 Q202 -4 173 -4 Q149 -4 129.5 1.5 Q110 7 97 19.5 Q84 32 78 53 Q72 74 76 104 L119 448 L49 448 L52 476 L125 493 L159 597 L191 605 L176 487 L320 487 L316 448 L173 448 L131 124 Z " />
<glyph glyph-name="u" unicode="u" horiz-adv-x="539" d="M151 497 Q168 497 177 492 Q186 487 186 473 Q186 465 183 438 Q180 411 176 373.5 Q172 336 167 293 Q162 250 158 211 Q154 172 151 141.5 Q148 111 148 99 Q148 39 195 39 Q216 39 241.5 52 Q267 65 293.5 94 Q320 123 346 170 Q372 217 394 285 L423 488 L475 488 Q460 381 447 274 Q434 167 420 49 Q443 51 463.5 57.5 Q484 64 504 76 L519 56 Q456 -10 407 -10 Q384 -10 374.5 1.5 Q365 13 365 35 Q365 45 366.5 61 Q368 77 370 94.5 Q372 112 375 129 Q378 146 380 159 L376 159 Q354 111 327 78.5 Q300 46 274 27 Q248 8 224 0 Q200 -8 184 -8 Q132 -8 112.5 20 Q93 48 93 91 Q93 101 94.5 120 Q96 139 99.5 177 Q103 215 110 278 Q117 341 128 438 L29 453 L31 481 Q63 489 93.5 493 Q124 497 151 497 Z " />
<glyph glyph-name="v" unicode="v" horiz-adv-x="454" d="M386 500 Q404 500 413 490.5 Q422 481 423 455 Q424 396 400 330 Q376 264 340 201 Q304 138 261 84 Q218 30 182 -4 L136 -4 L82 441 L10 420 L0 442 Q28 471 54 485.5 Q80 500 97 500 Q115 500 124 490.5 Q133 481 135 455 L176 58 L180 58 Q215 98 249 145.5 Q283 193 310 243.5 Q337 294 353.5 345 Q370 396 371 441 L297 420 L288 442 Q316 471 342.5 485.5 Q369 500 386 500 Z " />
<glyph glyph-name="w" unicode="w" horiz-adv-x="662" d="M333 238 Q315 200 293 163.5 Q271 127 248 95 Q225 63 203.5 37 Q182 11 166 -4 L122 -4 L82 441 L11 418 L1 440 Q29 469 54.5 484.5 Q80 500 97 500 Q115 500 124 490.5 Q133 481 135 455 L165 65 L169 65 Q191 91 214 124.5 Q237 158 258 193.5 Q279 229 297.5 265 Q316 301 328 333 L320 441 L246 418 L236 440 Q264 469 291 484.5 Q318 500 335 500 Q353 500 362 490.5 Q371 481 373 455 L399 64 L403 64 Q438 104 469.5 150.5 Q501 197 525 246.5 Q549 296 563.5 346 Q578 396 579 441 L504 418 L495 440 Q523 469 550 484.5 Q577 500 594 500 Q612 500 621 490.5 Q630 481 631 455 Q632 398 610 332 Q588 266 554 203 Q520 140 479 85 Q438 30 402 -4 L355 -4 L335 237 L333 238 Z " />
<glyph glyph-name="x" unicode="x" horiz-adv-x="437" d="M56 -14 L18 17 L18 23 L189 240 L108 440 L31 412 L20 436 Q81 494 116 494 Q134 494 143.5 483.5 Q153 473 163 449 L226 292 L357 491 L363 491 L405 461 L405 455 L241 255 L325 48 Q348 50 370 58.5 Q392 67 413 79 L427 59 Q398 24 371.5 6.5 Q345 -11 325 -11 Q302 -11 292.5 0 Q283 11 275 31 L204 204 L62 -14 L56 -14 Z " />
<glyph glyph-name="y" unicode="y" horiz-adv-x="473" d="M397 496 Q415 496 426.5 486.5 Q438 477 438 451 Q438 395 421 323 Q404 251 372.5 175.5 Q341 100 297.5 27.5 Q254 -45 201 -102 Q148 -159 87 -194 Q26 -229 -39 -229 Q-74 -229 -95 -214.5 Q-116 -200 -116 -175 Q-116 -171 -114 -163 L-89 -147 Q-55 -174 -17 -174 Q31 -174 80.5 -147 Q130 -120 190 -51 Q181 5 169 75 Q157 145 144 213.5 Q131 282 119 341.5 Q107 401 98 437 L24 416 L14 438 Q42 467 65.5 481.5 Q89 496 106 496 Q124 496 133.5 486.5 Q143 477 149 451 Q155 424 166 370 Q177 316 188.5 251.5 Q200 187 211 119.5 Q222 52 230 0 Q265 50 294 110 Q323 170 344 230 Q365 290 376 344.5 Q387 399 387 437 L312 416 L303 438 Q331 467 355.5 481.5 Q380 496 397 496 Z " />
<glyph glyph-name="z" unicode="z" horiz-adv-x="431" d="M17 0 L8 39 L345 442 L123 442 L84 335 L56 338 L68 454 Q70 476 84 481.5 Q98 487 109 487 L396 487 L409 444 L76 44 L335 44 L373 150 L398 148 L385 33 Q384 22 380 15.5 Q376 9 370 5.5 Q364 2 358 1 Q352 0 346 0 L17 0 Z " />
<glyph glyph-name="braceleft" unicode="&#x7b;" horiz-adv-x="230" d="M117 -171 Q94 -171 80.5 -162 Q67 -153 60.5 -139 Q54 -125 53 -108 Q52 -91 54 -75 L85 172 Q87 191 88 209 Q89 227 85 242 Q81 257 70 268 Q59 279 37 283 L41 315 Q64 319 77.5 330.5 Q91 342 99 357 Q107 372 110.5 390 Q114 408 116 427 L138 607 Q140 623 145.5 639.5 Q151 656 161 670 Q171 684 186.5 693 Q202 702 224 702 L267 702 L261 659 L240 659 Q217 659 204 640.5 Q191 622 187 593 L166 423 Q164 404 159.5 384.5 Q155 365 147 348 Q139 331 127 318.5 Q115 306 97 300 Q114 289 123.5 276.5 Q133 264 136.5 249 Q140 234 139.5 216 Q139 198 136 176 L107 -62 Q103 -90 108.5 -108.5 Q114 -127 140 -127 L165 -127 L160 -171 L117 -171 Z " />
<glyph glyph-name="bar" unicode="&#x7c;" horiz-adv-x="205" d="M79 -136 L79 697 L117 697 L117 -136 L79 -136 Z " />
<glyph glyph-name="braceright" unicode="&#x7d;" horiz-adv-x="230" d="M-22 -171 L-17 -127 L8 -127 Q34 -127 43.5 -108.5 Q53 -90 57 -62 L86 176 Q89 198 92.5 216 Q96 234 103.5 249 Q111 264 123 276.5 Q135 289 155 300 Q138 306 129 318.5 Q120 331 116.5 348 Q113 365 113.5 384.5 Q114 404 116 423 L137 593 Q141 622 132 640.5 Q123 659 100 659 L79 659 L85 702 L128 702 Q150 702 163 694.5 Q176 687 183 674 Q190 661 191 643.5 Q192 626 190 607 L168 427 Q166 408 165 390 Q164 372 168 357 Q172 342 183 330.5 Q194 319 215 315 L211 283 Q188 279 174.5 268 Q161 257 153.5 242 Q146 227 142.5 209 Q139 191 137 172 L106 -75 Q104 -91 98.5 -108 Q93 -125 82.5 -139 Q72 -153 57 -162 Q42 -171 21 -171 L-22 -171 Z " />
<glyph glyph-name="asciitilde" unicode="&#x7e;" horiz-adv-x="524" d="M197 353 Q218 353 243.5 345.5 Q269 338 294.5 329 Q320 320 343 312.5 Q366 305 384 305 L456 353 L479 331 Q461 299 431 277 Q401 255 366 255 Q338 255 314 262.5 Q290 270 268 278.5 Q246 287 225.5 294.5 Q205 302 186 302 L108 255 L85 278 Q103 310 132.5 331.5 Q162 353 197 353 Z " />
<glyph glyph-name="endash" unicode="&#x2013;" horiz-adv-x="485" d="M29 232 L35 279 L471 279 L465 232 L29 232 Z " />
<glyph glyph-name="emdash" unicode="&#x2014;" horiz-adv-x="970" d="M29 232 L35 279 L948 279 L942 232 L29 232 Z " />
<glyph glyph-name="quoteleft" unicode="&#x2018;" horiz-adv-x="190" d="M185 557 Q183 540 168 526.5 Q153 513 136 513 Q116 513 104 527.5 Q92 542 95 567 Q97 585 106 605 Q115 625 129 644 Q143 663 161 679 Q179 695 200 705 L211 687 Q191 670 178.5 648.5 Q166 627 161 601 Q173 596 180 584.5 Q187 573 185 557 Z " />
<glyph glyph-name="quoteright" unicode="&#x2019;" horiz-adv-x="190" d="M118 661 Q120 678 134 691.5 Q148 705 166 705 Q186 705 197.5 690.5 Q209 676 206 651 Q204 633 195.5 613 Q187 593 173 574 Q159 555 141 539 Q123 523 102 513 L91 531 Q132 566 141 617 Q129 622 122.5 633.5 Q116 645 118 661 Z " />
<glyph glyph-name="quotedblleft" unicode="&#x201c;" horiz-adv-x="297" d="M185 557 Q183 540 168 526.5 Q153 513 136 513 Q116 513 104 527.5 Q92 542 95 567 Q97 585 106 605 Q115 625 129 644 Q143 663 161 679 Q179 695 200 705 L211 687 Q191 670 178.5 648.5 Q166 627 161 601 Q173 596 180 584.5 Q187 573 185 557 Z M296 557 Q294 540 279.5 526.5 Q265 513 247 513 Q227 513 215.5 527.5 Q204 542 207 567 Q209 585 218 605 Q227 625 240.5 644 Q254 663 272 679 Q290 695 311 705 L323 687 Q282 651 272 601 Q299 590 296 557 Z " />
<glyph glyph-name="quotedblright" unicode="&#x201d;" horiz-adv-x="297" d="M231 661 Q233 678 247 691.5 Q261 705 278 705 Q298 705 310 690.5 Q322 676 319 651 Q317 633 308.5 613 Q300 593 286 574 Q272 555 254 539 Q236 523 215 513 L204 531 Q224 548 236.5 569.5 Q249 591 254 617 Q226 628 231 661 Z M119 661 Q121 678 135 691.5 Q149 705 167 705 Q187 705 198.5 690.5 Q210 676 207 651 Q205 633 196.5 613 Q188 593 174 574 Q160 555 142 539 Q124 523 103 513 L92 531 Q133 566 142 617 Q130 622 123.5 633.5 Q117 645 119 661 Z " />
<glyph glyph-name="bullet" unicode="&#x2022;" horiz-adv-x="279" d="M160 375 Q195 375 219 350 Q243 325 243 289 Q243 267 234 247 Q225 227 210 211.5 Q195 196 175.5 187 Q156 178 135 178 Q100 178 76 203.5 Q52 229 52 265 Q52 287 61.5 307 Q71 327 86 342 Q101 357 120.5 366 Q140 375 160 375 Z " />
<glyph glyph-name="quotesinglbase" unicode="&#x201a;" horiz-adv-x="180" d="M25 34 Q27 51 41 64 Q55 77 72 77 Q91 77 102.5 63 Q114 49 112 25 Q107 -10 79.5 -46 Q52 -82 11 -102 L0 -84 Q19 -67 31.5 -50.5 Q44 -34 49 -8 Q20 2 25 34 Z " />
<glyph glyph-name="quotedblbase" unicode="&#x201e;" horiz-adv-x="284" d="M25 34 Q27 51 41 64 Q55 77 72 77 Q91 77 102.5 63 Q114 49 112 25 Q107 -10 79.5 -46 Q52 -82 11 -102 L0 -84 Q19 -67 31.5 -50.5 Q44 -34 49 -8 Q20 2 25 34 Z M135 34 Q137 51 151.5 64 Q166 77 183 77 Q202 77 213 63 Q224 49 222 25 Q217 -10 189.5 -46 Q162 -82 122 -102 L110 -84 Q130 -67 142 -50.5 Q154 -34 159 -8 Q146 -3 139.5 8 Q133 19 135 34 Z " />
<glyph glyph-name="alpha" unicode="&#x3b1;" horiz-adv-x="516" d="M283 493 Q310 493 338.5 486.5 Q367 480 399 469 L425 495 L450 493 Q441 435 432 373 Q423 311 414.5 252 Q406 193 400 140.5 Q394 88 391 49 Q412 51 435.5 60 Q459 69 481 82 L496 62 Q482 48 466.5 35 Q451 22 435 12 Q419 2 404.5 -4 Q390 -10 379 -10 Q364 -10 354.5 -3.5 Q345 3 340.5 13.5 Q336 24 335.5 38 Q335 52 337 67 Q339 90 342.5 112.5 Q346 135 351 159 L347 159 Q326 109 302 76.5 Q278 44 254 25.5 Q230 7 206 -0.5 Q182 -8 161 -8 Q107 -8 73.5 33.5 Q40 75 40 162 Q40 229 55.5 289 Q71 349 101.5 394.5 Q132 440 177.5 466.5 Q223 493 283 493 Z M176 39 Q197 39 220 51 Q243 63 267.5 91.5 Q292 120 317 167.5 Q342 215 365 285 L387 423 Q354 437 326 441.5 Q298 446 278 446 Q224 446 189 417.5 Q154 389 133 347 Q112 305 104 256.5 Q96 208 96 169 Q96 103 118 71 Q140 39 176 39 Z " />
<glyph glyph-name="beta" unicode="&#x3b2;" horiz-adv-x="463" d="M186 375 L191 422 L247 422 Q269 422 292.5 431.5 Q316 441 335 459.5 Q354 478 366 505.5 Q378 533 378 568 Q378 610 350.5 638 Q323 666 273 666 Q220 666 184.5 634 Q149 602 141 536 L82 62 Q99 53 117 48 Q135 43 151.5 40.5 Q168 38 181.5 37.5 Q195 37 204 37 Q239 37 269.5 54 Q300 71 322.5 100.5 Q345 130 357.5 170.5 Q370 211 370 258 Q370 318 339 346.5 Q308 375 243 375 L186 375 Z M89 532 Q95 580 113 614 Q131 648 156.5 669.5 Q182 691 212.5 701.5 Q243 712 274 712 Q349 712 391 677 Q433 642 433 576 Q433 547 424 520 Q415 493 400.5 470 Q386 447 367.5 429.5 Q349 412 329 403 Q382 384 403.5 350 Q425 316 425 265 Q425 202 406.5 151 Q388 100 357 64 Q326 28 285 8.5 Q244 -11 198 -11 Q160 -11 127.5 -4 Q95 3 76 14 L50 -207 L-2 -207 L89 532 Z " />
<glyph glyph-name="gamma" unicode="&#x3b3;" horiz-adv-x="475" d="M186 126 Q208 197 235.5 264 Q263 331 294.5 382.5 Q326 434 360.5 465 Q395 496 431 496 Q449 496 462 485 Q475 474 480 456 L463 430 Q453 435 446.5 436 Q440 437 435 437 Q403 437 369 399 Q335 361 302.5 300.5 Q270 240 241 164 Q212 88 190 13 Q187 -44 184.5 -97.5 Q182 -151 174 -203 L165 -215 Q149 -216 132 -212 Q115 -208 99 -198 Q104 -168 109 -143 Q114 -118 119.5 -94.5 Q125 -71 131.5 -46 Q138 -21 147 10 L90 441 L18 420 L8 442 Q37 471 63 485.5 Q89 500 106 500 Q124 500 132 490.5 Q140 481 143 455 L182 127 L186 126 Z " />
<glyph glyph-name="delta" unicode="&#x3b4;" horiz-adv-x="467" d="M298 654 Q278 654 258 650.5 Q238 647 221.5 637.5 Q205 628 194.5 612 Q184 596 184 572 Q184 556 194 543 Q204 530 219 518.5 Q234 507 251.5 498.5 Q269 490 284 483 Q317 467 344.5 449 Q372 431 392 407 Q412 383 423 350.5 Q434 318 434 273 Q434 239 425 191 Q416 143 391 99 Q366 55 323 24 Q280 -7 212 -7 Q164 -7 131 7.5 Q98 22 78 47.5 Q58 73 49 107 Q40 141 40 179 Q40 222 50 267 Q60 312 81 351 Q102 390 135 419.5 Q168 449 214 461 Q174 483 151 508 Q128 533 128 568 Q128 603 143.5 628 Q159 653 183.5 669 Q208 685 239 692.5 Q270 700 300 700 Q325 700 347.5 695.5 Q370 691 387 683.5 Q404 676 414 666 Q424 656 424 644 Q424 634 421 620 Q418 606 413.5 590.5 Q409 575 403.5 559.5 Q398 544 392 531 L367 532 L373 638 Q359 646 337.5 650 Q316 654 298 654 Z M272 433 Q217 427 182.5 399 Q148 371 128.5 332 Q109 293 101.5 249 Q94 205 94 168 Q94 143 99.5 119.5 Q105 96 118.5 78 Q132 60 155 49 Q178 38 213 38 Q264 38 296.5 62.5 Q329 87 348 122.5 Q367 158 374 198.5 Q381 239 381 272 Q381 310 371 337 Q361 364 345.5 382.5 Q330 401 310.5 412.5 Q291 424 272 433 Z " />
<glyph glyph-name="epsilon" unicode="&#x3b5;" horiz-adv-x="415" d="M246 452 Q221 452 198.5 446 Q176 440 159 428 Q142 416 132 397.5 Q122 379 122 355 Q122 332 133 318.5 Q144 305 161 298.5 Q178 292 197.5 290.5 Q217 289 235 289 L295 289 L290 245 L229 245 Q211 245 187 240 Q163 235 141.5 222 Q120 209 105 186.5 Q90 164 90 129 Q90 81 125.5 60 Q161 39 215 39 Q255 39 287.5 47 Q320 55 361 72 L376 38 Q346 21 299.5 8 Q253 -5 207 -5 Q175 -5 144 0.5 Q113 6 89 20.5 Q65 35 50 59 Q35 83 35 120 Q35 151 44.5 175.5 Q54 200 69 217.5 Q84 235 102.5 246 Q121 257 140 262 L142 265 Q115 273 92 296 Q69 319 69 355 Q69 392 84 418.5 Q99 445 124 462 Q149 479 182 487.5 Q215 496 250 496 Q282 497 314 491.5 Q346 486 373 476 Q387 470 394 462.5 Q401 455 399 439 Q399 434 396.5 422.5 Q394 411 390 396.5 Q386 382 380.5 366.5 Q375 351 370 338 L342 339 L345 438 Q319 446 294 449 Q269 452 246 452 Z " />
<glyph glyph-name="zeta" unicode="&#x3b6;" horiz-adv-x="350" d="M109 574 L119 673 Q121 695 135 700.5 Q149 706 160 706 L441 706 L452 663 Q371 600 304 532.5 Q237 465 189 401 Q141 337 114 280.5 Q87 224 87 184 Q87 162 97 145.5 Q107 129 129.5 113.5 Q152 98 188.5 81.5 Q225 65 278 44 Q313 30 328.5 12 Q344 -6 344 -26 Q344 -52 321 -84 Q298 -116 256 -159 L227 -134 Q249 -109 262 -92.5 Q275 -76 281 -65.5 Q287 -55 288.5 -49 Q290 -43 290 -39 Q290 -27 277 -17.5 Q264 -8 244 0 Q187 25 147.5 43 Q108 61 82.5 79.5 Q57 98 45.5 121.5 Q34 145 34 181 Q34 211 51.5 260.5 Q69 310 109.5 373 Q150 436 216.5 509 Q283 582 380 658 L380 661 L171 661 L141 572 L109 574 Z " />
<glyph glyph-name="eta" unicode="&#x3b7;" horiz-adv-x="540" d="M365 496 Q417 496 436.5 468 Q456 440 456 397 Q456 387 452.5 350.5 Q449 314 443 255 Q437 196 428 116.5 Q419 37 408 -59 Q429 -57 449.5 -51 Q470 -45 492 -32 L507 -52 Q444 -118 395 -118 Q372 -118 362.5 -106.5 Q353 -95 353 -73 Q353 -67 353.5 -60.5 Q354 -54 355 -46 Q368 62 376.5 141 Q385 220 390.5 272.5 Q396 325 398.5 353 Q401 381 401 389 Q401 415 390 432 Q379 449 354 449 Q333 449 307.5 436 Q282 423 255.5 394 Q229 365 203 318 Q177 271 155 203 L127 0 L73 0 Q81 58 88.5 117.5 Q96 177 103.5 234 Q111 291 117 343 Q123 395 128 438 L29 453 L31 481 Q63 489 94 493 Q125 497 152 497 Q169 497 178 492 Q187 487 187 473 Q187 451 181.5 414 Q176 377 169 329 L173 329 Q195 377 222 409.5 Q249 442 275 461 Q301 480 325 488 Q349 496 365 496 Z " />
<glyph glyph-name="theta" unicode="&#x3b8;" horiz-adv-x="485" d="M205 -5 Q155 -5 123 11 Q91 27 72.5 55.5 Q54 84 47 123.5 Q40 163 40 211 Q40 257 43.5 312.5 Q47 368 56.5 423.5 Q66 479 83.5 531 Q101 583 129 623.5 Q157 664 197.5 688 Q238 712 294 712 Q343 712 374.5 693.5 Q406 675 424 643 Q442 611 448.5 569 Q455 527 455 481 Q455 429 451 373 Q447 317 436 263 Q425 209 407 160 Q389 111 361.5 74.5 Q334 38 295 16.5 Q256 -5 205 -5 Z M291 664 Q244 664 212 640.5 Q180 617 159 579 Q138 541 125.5 493.5 Q113 446 106 397 L399 397 Q401 419 402.5 441.5 Q404 464 404 487 Q404 522 399 554 Q394 586 381 610.5 Q368 635 346.5 649.5 Q325 664 291 664 Z M99 356 Q94 313 92.5 273 Q91 233 91 201 Q91 123 117 82.5 Q143 42 213 42 Q258 42 289.5 68 Q321 94 343 137.5 Q365 181 377.5 238 Q390 295 396 356 L99 356 Z " />
<glyph glyph-name="upsilon" unicode="&#x3c5;" horiz-adv-x="515" d="M437 504 Q455 504 464.5 494.5 Q474 485 474 459 Q474 415 466 363.5 Q458 312 442 260 Q426 208 402 159.5 Q378 111 346.5 74 Q315 37 276 14.5 Q237 -8 191 -8 Q161 -8 142 -0.5 Q123 7 112 20 Q101 33 97 51.5 Q93 70 93 91 Q93 101 94.5 120 Q96 139 99.5 177 Q103 215 110 278 Q117 341 128 438 L29 453 L31 481 Q63 489 93.5 493 Q124 497 151 497 Q168 497 177 492 Q186 487 186 473 Q186 465 183 438 Q180 411 176 373.5 Q172 336 167 293 Q162 250 158 211 Q154 172 151 141.5 Q148 111 148 99 Q148 69 159 54 Q170 39 202 39 Q231 39 258 56.5 Q285 74 308.5 103.5 Q332 133 352 173 Q372 213 386.5 258.5 Q401 304 409.5 351.5 Q418 399 420 445 L348 424 L339 446 Q367 475 393.5 489.5 Q420 504 437 504 Z " />
<glyph glyph-name="omega" unicode="&#x3c9;" horiz-adv-x="689" d="M441 -6 Q393 -6 364 15.5 Q335 37 328 72 L325 72 Q305 37 270 15.5 Q235 -6 190 -6 Q144 -6 115 9 Q86 24 69.5 50 Q53 76 46.5 110 Q40 144 40 182 Q40 229 49 278 Q58 327 78.5 370 Q99 413 132.5 446 Q166 479 216 494 L226 456 Q187 437 161 405.5 Q135 374 119.5 336.5 Q104 299 98 258 Q92 217 92 179 Q92 152 96.5 127.5 Q101 103 113 84.5 Q125 66 145.5 54.5 Q166 43 198 43 Q225 43 245.5 52.5 Q266 62 280 77 Q294 92 302 111.5 Q310 131 312 151 L335 337 L388 337 L366 151 Q366 147 365.5 143.5 Q365 140 365 136 Q365 118 369.5 101 Q374 84 383.5 71.5 Q393 59 408 51 Q423 43 445 43 Q482 43 510.5 61.5 Q539 80 558.5 113 Q578 146 588.5 192 Q599 238 599 294 Q599 344 582 385.5 Q565 427 517 456 L537 494 Q570 480 591.5 459.5 Q613 439 626 412.5 Q639 386 644 355.5 Q649 325 649 292 Q649 238 637 185 Q625 132 599.5 89.5 Q574 47 534.5 20.5 Q495 -6 441 -6 Z " />
<glyph glyph-name="rho" unicode="&#x3c1;" horiz-adv-x="482" d="M203 -11 Q174 -11 141 -6 Q108 -1 80 13 L51 -207 L-2 -207 L58 280 Q64 326 79.5 365.5 Q95 405 121 434 Q147 463 184.5 480 Q222 497 272 497 Q370 497 410 432.5 Q450 368 439 250 Q428 129 367 59 Q306 -11 203 -11 Z M267 449 Q231 449 203.5 434 Q176 419 156.5 394.5 Q137 370 126 339 Q115 308 111 277 L85 62 Q104 51 137 44 Q170 37 206 37 Q238 37 267.5 46 Q297 55 321 78.5 Q345 102 361 144 Q377 186 383 252 Q388 310 381.5 348 Q375 386 359 408.5 Q343 431 319.5 440 Q296 449 267 449 Z " />
<glyph glyph-name="xi" unicode="&#x3be;" horiz-adv-x="405" d="M308 714 Q321 714 340 712.5 Q359 711 379 707.5 Q399 704 418.5 698.5 Q438 693 453 684 L434 643 Q396 658 362.5 663 Q329 668 301 668 Q262 668 233.5 657 Q205 646 186 626.5 Q167 607 158 581.5 Q149 556 149 528 Q149 474 187 445.5 Q225 417 291 417 L375 417 L369 371 L277 371 Q229 371 193 355 Q157 339 134 312.5 Q111 286 99.5 253 Q88 220 88 186 Q88 135 120.5 103 Q153 71 230 42 Q277 24 306 11.5 Q335 -1 350.5 -12.5 Q366 -24 371.5 -34.5 Q377 -45 377 -58 Q377 -73 369 -90 Q361 -107 348 -123.5 Q335 -140 317.5 -156 Q300 -172 282 -186 L254 -161 L281 -130 Q302 -106 310 -92.5 Q318 -79 318 -69 Q318 -58 306 -47 Q294 -36 265 -24 Q227 -9 186 6.5 Q145 22 110.5 44.5 Q76 67 54 100 Q32 133 32 182 Q32 212 40.5 244 Q49 276 67.5 305.5 Q86 335 114.5 358.5 Q143 382 183 396 Q155 406 137.5 421.5 Q120 437 110 455 Q100 473 96.5 492.5 Q93 512 93 530 Q93 575 109.5 609 Q126 643 155.5 666.5 Q185 690 224 702 Q263 714 308 714 Z " />
<glyph glyph-name="nu" unicode="&#x3bd;" horiz-adv-x="454" d="M386 500 Q404 500 413 490.5 Q422 481 423 455 Q424 396 400 330 Q376 264 340 201 Q304 138 261 84 Q218 30 182 -4 L136 -4 L82 441 L10 420 L0 442 Q28 471 54 485.5 Q80 500 97 500 Q115 500 124 490.5 Q133 481 135 455 L176 58 L180 58 Q215 98 249 145.5 Q283 193 310 243.5 Q337 294 353.5 345 Q370 396 371 441 L297 420 L288 442 Q316 471 342.5 485.5 Q369 500 386 500 Z " />
<glyph glyph-name="omicron" unicode="&#x3bf;" horiz-adv-x="468" d="M270 450 Q234 450 206.5 436 Q179 422 159.5 399 Q140 376 127.5 346 Q115 316 107.5 285 Q100 254 97 223.5 Q94 193 94 168 Q94 143 99.5 119.5 Q105 96 118.5 78 Q132 60 155 49 Q178 38 213 38 Q266 38 299.5 67 Q333 96 351.5 137.5 Q370 179 376.5 224 Q383 269 383 302 Q383 330 378 357 Q373 384 360 404.5 Q347 425 325.5 437.5 Q304 450 270 450 Z M271 497 Q318 497 350 481 Q382 465 401.5 438 Q421 411 429.5 376 Q438 341 438 303 Q438 257 428 203 Q418 149 392.5 102.5 Q367 56 321.5 24.5 Q276 -7 206 -7 Q158 -7 126 7.5 Q94 22 75 47.5 Q56 73 48 107 Q40 141 40 179 Q40 231 52 287 Q64 343 91 389.5 Q118 436 162 466.5 Q206 497 271 497 Z " />
<glyph glyph-name="Euro" unicode="&#x20ac;" horiz-adv-x="524" d="M446 310 L441 273 L138 273 Q135 225 143.5 182.5 Q152 140 174.5 108.5 Q197 77 236 58.5 Q275 40 334 40 Q354 40 386 43 Q418 46 449 54 L458 126 L501 126 L488 22 Q456 8 412 0.5 Q368 -7 326 -7 Q199 -7 138.5 65.5 Q78 138 86 273 L41 273 L46 310 L446 310 Z M52 359 L56 396 L103 396 Q110 445 131 494 Q152 543 187.5 582 Q223 621 273 645.5 Q323 670 388 670 Q439 670 479 662 Q519 654 543 644 L528 525 L484 525 L494 608 Q474 615 446 619.5 Q418 624 389 624 Q338 624 300 608 Q262 592 234 562 Q206 532 187 490 Q168 448 156 396 L456 396 L452 359 L52 359 Z " />
<glyph glyph-name="Phi" unicode="&#x3a6;" horiz-adv-x="741" d="M401 637 L332 637 L337 683 L531 683 L526 637 L457 637 L454 611 Q527 608 578 588.5 Q629 569 661 538 Q693 507 707.5 467.5 Q722 428 722 385 Q722 324 699 270.5 Q676 217 633.5 176.5 Q591 136 529 111 Q467 86 389 82 L384 47 L453 47 L448 0 L254 0 L259 47 L328 47 L333 82 Q192 88 123 146 Q54 204 54 303 Q54 356 73.5 409 Q93 462 134.5 505.5 Q176 549 241 577.5 Q306 606 398 611 L401 637 Z M392 570 Q313 566 258 542 Q203 518 168.5 481.5 Q134 445 118.5 399.5 Q103 354 103 307 Q103 219 163 174 Q223 129 338 124 L392 570 Z M394 124 Q461 128 513 149.5 Q565 171 600 205 Q635 239 653 284 Q671 329 671 379 Q671 412 661 445 Q651 478 625.5 505 Q600 532 557 549.5 Q514 567 448 570 L394 124 Z " />
<glyph glyph-name="Omega" unicode="&#x3a9;" horiz-adv-x="646" d="M378 693 Q447 693 492.5 671.5 Q538 650 564.5 614 Q591 578 601.5 529.5 Q612 481 612 427 Q612 370 603.5 313.5 Q595 257 577.5 207 Q560 157 532.5 115.5 Q505 74 467 48 L587 47 L582 0 L363 0 L369 51 Q419 63 454.5 100 Q490 137 512.5 188.5 Q535 240 545 301 Q555 362 555 422 Q555 465 547 505.5 Q539 546 519 577 Q499 608 466 626.5 Q433 645 382 645 Q309 645 260 611 Q211 577 181 521.5 Q151 466 138 395.5 Q125 325 125 251 Q125 212 130.5 179 Q136 146 149 120 Q162 94 183 76.5 Q204 59 235 52 L229 0 L14 0 L19 47 L133 48 Q95 78 80.5 129.5 Q66 181 66 244 Q66 293 72 345.5 Q78 398 92 447.5 Q106 497 129.5 542 Q153 587 187.5 620.5 Q222 654 269 673.5 Q316 693 378 693 Z " />
<glyph glyph-name="Psi" unicode="&#x3a8;" horiz-adv-x="750" d="M711 637 L683 415 Q670 312 597 249.5 Q524 187 401 182 L384 46 L453 46 L448 0 L256 0 L261 46 L329 46 L346 181 Q224 189 167 249 Q110 309 124 429 L150 637 L82 637 L87 683 L210 683 L179 426 Q167 330 212.5 282.5 Q258 235 352 229 L402 637 L344 637 L349 683 L522 683 L517 637 L457 637 L407 229 Q511 236 564 285 Q617 334 629 430 L661 683 L779 683 L774 637 L711 637 Z " />
<glyph glyph-name="sterling" unicode="&#xa3;" horiz-adv-x="524" d="M36 0 L41 46 Q65 54 82.5 73.5 Q100 93 111.5 118 Q123 143 130 171 Q137 199 142 224 L158 315 L90 315 L96 360 L165 360 L183 474 Q189 513 202.5 548.5 Q216 584 238.5 610.5 Q261 637 294.5 652.5 Q328 668 375 668 Q394 668 415.5 665.5 Q437 663 457 659 Q477 655 495 649 Q513 643 526 636 L511 516 L465 516 L475 602 Q455 609 431 614.5 Q407 620 373 620 Q336 620 312 608.5 Q288 597 272.5 577 Q257 557 248 529.5 Q239 502 233 470 L215 360 L408 360 L402 315 L208 315 L193 224 Q189 199 182.5 172.5 Q176 146 167 122 Q158 98 146.5 78 Q135 58 120 47 L462 47 L457 0 L36 0 Z " />
<glyph glyph-name="pi" unicode="&#x3c0;" horiz-adv-x="563" d="M106 0 L53 0 L107 442 L28 442 L33 487 L523 487 L518 442 L440 442 Q431 348 424.5 286 Q418 224 413.5 181.5 Q409 139 405.5 109 Q402 79 399 49 Q420 51 440.5 57 Q461 63 483 76 L498 56 Q435 -10 386 -10 Q363 -10 353.5 1.5 Q344 13 344 35 Q344 41 344.5 47.5 Q345 54 346 62 L389 442 L160 442 L106 0 Z " />
<glyph glyph-name="lambda" unicode="&#x3bb;" horiz-adv-x="428" d="M197 723 Q222 723 230 712.5 Q238 702 243 676 L352 51 Q370 52 390 56.5 Q410 61 428 70 L441 49 Q418 23 391 8 Q364 -7 347 -7 Q330 -7 319.5 -1 Q309 5 304 30 L232 434 L228 434 L41 0 L-12 0 L192 468 L226 468 L193 663 L94 674 L93 703 Q101 707 114.5 710.5 Q128 714 142.5 717 Q157 720 171.5 721.5 Q186 723 197 723 Z " />
<glyph glyph-name="kappa" unicode="&#x3ba;" horiz-adv-x="473" d="M59 0 L118 438 L30 449 L32 476 Q58 484 90.5 490.5 Q123 497 149 497 Q163 497 170 489.5 Q177 482 177 471 L177 466 Q176 452 173 430.5 Q170 409 166 382.5 Q162 356 157 327.5 Q152 299 148 271 L151 271 Q173 311 203 351.5 Q233 392 266.5 424.5 Q300 457 336 477.5 Q372 498 405 498 Q432 498 448 484.5 Q464 471 465 448 L445 427 Q416 439 392 439 Q367 439 345 428.5 Q323 418 303.5 401.5 Q284 385 266 364 Q248 343 231 321 Q249 283 272 238.5 Q295 194 317.5 153.5 Q340 113 358 83 Q376 53 384 46 Q413 52 431.5 65 Q450 78 464 89 L480 71 Q447 23 420 6.5 Q393 -10 375 -10 Q346 -10 305 62 Q264 134 195 273 Q183 257 175 245 Q167 233 161 222.5 Q155 212 149.5 200.5 Q144 189 137 173 L114 0 L59 0 Z " />
<glyph glyph-name="&amp;#xb5;" unicode="&#xb5;" horiz-adv-x="527" d="M139 497 Q156 497 165 492 Q174 487 174 473 Q174 465 171 438 Q168 411 164 373.5 Q160 336 155 293 Q150 250 146 211 Q142 172 139 141.5 Q136 111 136 99 Q136 39 183 39 Q204 39 229.5 52 Q255 65 281.5 94 Q308 123 334 170 Q360 217 382 285 L411 488 L463 488 Q448 381 435 274 Q422 167 408 49 Q431 51 451.5 57.5 Q472 64 492 76 L507 56 Q444 -10 395 -10 Q372 -10 362.5 1.5 Q353 13 353 35 Q353 45 354.5 61 Q356 77 358 94.5 Q360 112 363 129 Q366 146 368 159 L364 159 Q342 111 315 78.5 Q288 46 262 27 Q236 8 212 0 Q188 -8 172 -8 Q156 -8 144 -5.5 Q132 -3 122 2 L104 -164 L168 -164 L163 -208 L-13 -208 L-8 -164 L52 -164 Q65 -40 74.5 49 Q84 138 90.5 200 Q97 262 101 301.5 Q105 341 108 366.5 Q111 392 112.5 407.5 Q114 423 116 438 L17 453 L19 481 Q51 489 81.5 493 Q112 497 139 497 Z " />
<glyph glyph-name="&amp;#x3bc;" unicode="&#x3bc;" horiz-adv-x="527" d="M139 497 Q156 497 165 492 Q174 487 174 473 Q174 465 171 438 Q168 411 164 373.5 Q160 336 155 293 Q150 250 146 211 Q142 172 139 141.5 Q136 111 136 99 Q136 39 183 39 Q204 39 229.5 52 Q255 65 281.5 94 Q308 123 334 170 Q360 217 382 285 L411 488 L463 488 Q448 381 435 274 Q422 167 408 49 Q431 51 451.5 57.5 Q472 64 492 76 L507 56 Q444 -10 395 -10 Q372 -10 362.5 1.5 Q353 13 353 35 Q353 45 354.5 61 Q356 77 358 94.5 Q360 112 363 129 Q366 146 368 159 L364 159 Q342 111 315 78.5 Q288 46 262 27 Q236 8 212 0 Q188 -8 172 -8 Q156 -8 144 -5.5 Q132 -3 122 2 L104 -164 L168 -164 L163 -208 L-13 -208 L-8 -164 L52 -164 Q65 -40 74.5 49 Q84 138 90.5 200 Q97 262 101 301.5 Q105 341 108 366.5 Q111 392 112.5 407.5 Q114 423 116 438 L17 453 L19 481 Q51 489 81.5 493 Q112 497 139 497 Z " />
<glyph glyph-name="phi" unicode="&#x3c6;" horiz-adv-x="607" d="M567 303 Q567 253 553.5 199.5 Q540 146 508.5 101.5 Q477 57 424.5 26.5 Q372 -4 293 -7 L268 -207 L219 -207 L244 -7 Q188 -5 149 10 Q110 25 86 50.5 Q62 76 51 110 Q40 144 40 184 Q40 233 51 281.5 Q62 330 85 371 Q108 412 143.5 443.5 Q179 475 228 491 L239 449 Q201 435 173.5 409 Q146 383 128 348.5 Q110 314 101.5 273.5 Q93 233 93 190 Q93 157 101 129.5 Q109 102 127 82.5 Q145 63 175 51 Q205 39 249 38 L283 294 Q290 351 306.5 389.5 Q323 428 344 451 Q365 474 389.5 484 Q414 494 438 494 Q494 494 530.5 445.5 Q567 397 567 303 Z M299 38 Q364 39 405.5 66.5 Q447 94 471 133 Q495 172 504.5 216.5 Q514 261 514 297 Q514 369 490.5 408.5 Q467 448 435 448 Q423 448 407.5 443 Q392 438 377 421.5 Q362 405 349.5 372.5 Q337 340 331 286 L299 38 Z " />
<glyph glyph-name="chi" unicode="&#x3c7;" horiz-adv-x="437" d="M56 -14 L18 17 L18 23 L189 240 L108 440 L31 412 L20 436 Q81 494 116 494 Q134 494 143.5 483.5 Q153 473 163 449 L226 292 L357 491 L363 491 L405 461 L405 455 L241 255 L325 48 Q348 50 370 58.5 Q392 67 413 79 L427 59 Q398 24 371.5 6.5 Q345 -11 325 -11 Q302 -11 292.5 0 Q283 11 275 31 L204 204 L62 -14 L56 -14 Z " />
<glyph glyph-name="psi" unicode="&#x3c8;" horiz-adv-x="629" d="M290 -164 L371 -164 L366 -207 L155 -207 L160 -164 L237 -164 L256 -5 Q205 -1 172 18 Q139 37 120 65.5 Q101 94 95.5 131 Q90 168 94 210 Q97 236 101 269 Q105 302 109.5 334 Q114 366 117.5 394 Q121 422 123 438 L24 453 L26 481 Q58 489 88.5 493 Q119 497 146 497 Q163 497 172 492 Q181 487 181 473 Q181 464 177 433 Q173 402 168 362.5 Q163 323 157 281 Q151 239 147 207 Q138 135 165.5 91.5 Q193 48 261 40 L329 596 L230 611 L232 639 Q264 647 297.5 651 Q331 655 352 655 Q369 655 378 650 Q387 645 387 631 Q387 627 383.5 598 Q380 569 374.5 523.5 Q369 478 361.5 419 Q354 360 346 295.5 Q338 231 329.5 165 Q321 99 314 39 Q375 45 417 85 Q459 125 485 183.5 Q511 242 523.5 312 Q536 382 538 448 L466 427 L457 449 Q485 478 511.5 492.5 Q538 507 555 507 Q573 507 582.5 497.5 Q592 488 592 462 Q592 419 587 369 Q582 319 569 268 Q556 217 535 169 Q514 121 482.5 83.5 Q451 46 408 21.5 Q365 -3 309 -6 L309 -8 L290 -164 Z " />
<glyph glyph-name="sigma" unicode="&#x3c3;" horiz-adv-x="505" d="M394 438 Q419 414 428.5 377 Q438 340 438 298 Q438 237 423 182 Q408 127 379 85.5 Q350 44 307.5 19.5 Q265 -5 211 -5 Q118 -5 79 43.5 Q40 92 40 175 Q40 231 52.5 287 Q65 343 92.5 387.5 Q120 432 164.5 459.5 Q209 487 273 487 L490 487 L485 442 L398 442 L394 438 Z M268 441 Q219 441 186 417.5 Q153 394 132.5 357 Q112 320 103.5 273.5 Q95 227 95 182 Q95 112 124 76.5 Q153 41 219 41 Q261 41 292 62.5 Q323 84 343 120 Q363 156 373 203 Q383 250 383 301 Q383 329 378 354 Q373 379 360 398.5 Q347 418 324.5 429.5 Q302 441 268 441 Z " />
<glyph glyph-name="tau" unicode="&#x3c4;" horiz-adv-x="360" d="M162 124 Q160 107 160.5 92.5 Q161 78 167 67 Q173 56 185 49.5 Q197 43 217 43 Q253 43 312 61 L322 23 Q296 11 264.5 3.5 Q233 -4 204 -4 Q180 -4 160.5 1.5 Q141 7 128 19.5 Q115 32 109 53 Q103 74 107 104 L149 443 L36 443 L41 487 L347 487 L342 443 L201 443 L162 124 Z " />
<glyph glyph-name="iota" unicode="&#x3b9;" horiz-adv-x="263" d="M156 497 Q175 497 183 492 Q191 487 191 473 L138 49 Q159 51 180 57 Q201 63 223 76 L238 56 Q207 23 178 6.5 Q149 -10 126 -10 Q101 -10 92.5 3 Q84 16 84 36 Q84 42 84.5 48.5 Q85 55 86 62 L133 438 L44 453 L46 481 Q78 489 106.5 493 Q135 497 156 497 Z " />
<glyph glyph-name="Alpha" unicode="&#x391;" horiz-adv-x="617" d="M392 0 L397 46 L466 46 L441 189 L173 189 L112 46 L184 46 L179 0 L-6 0 L-1 46 L56 46 Q122 200 194 365 Q266 530 333 684 L402 684 L525 46 L578 46 L573 0 L392 0 Z M375 555 L362 629 L360 629 Q359 627 358 623.5 Q357 620 353.5 612 Q350 604 344.5 590 Q339 576 329 554 Q312 514 279.5 439.5 Q247 365 195 239 L432 239 L375 555 Z " />
<glyph glyph-name="Beta" unicode="&#x392;" horiz-adv-x="569" d="M377 683 Q466 683 507 641 Q548 599 548 533 Q548 508 542.5 483 Q537 458 523.5 435 Q510 412 488 392 Q466 372 433 357 Q461 349 480.5 333 Q500 317 511 296.5 Q522 276 527 253 Q532 230 532 208 Q532 155 513.5 116 Q495 77 465.5 51.5 Q436 26 399.5 13 Q363 0 327 0 L14 0 L19 47 L85 47 L158 637 L96 637 L101 683 L377 683 Z M175 331 L140 47 L311 47 Q354 47 385 59.5 Q416 72 436 94 Q456 116 465.5 145.5 Q475 175 475 210 Q475 234 467 256 Q459 278 443.5 294.5 Q428 311 403.5 321 Q379 331 346 331 L175 331 Z M213 637 L181 378 L333 378 Q371 378 401 389 Q431 400 451.5 420 Q472 440 483 467.5 Q494 495 494 527 Q494 575 464 606 Q434 637 365 637 L213 637 Z " />
<glyph glyph-name="Gamma" unicode="&#x393;" horiz-adv-x="498" d="M227 0 L14 0 L19 46 L83 46 L156 637 L96 637 L101 682 L536 682 L520 548 L474 548 L485 637 L211 637 L138 46 L232 46 L227 0 Z " />
<glyph glyph-name="Epsilon" unicode="&#x395;" horiz-adv-x="524" d="M19 46 L83 46 L156 637 L96 637 L101 682 L536 682 L520 548 L474 548 L485 637 L211 637 L179 382 L451 388 L445 334 L174 338 L138 46 L433 46 L444 135 L493 135 L477 0 L14 0 L19 46 Z " />
<glyph glyph-name="Zeta" unicode="&#x396;" horiz-adv-x="481" d="M-6 0 L-1 46 L434 637 L142 637 L130 538 L84 538 L101 683 L503 683 L498 637 L63 47 L393 47 L407 155 L456 155 L437 0 L-6 0 Z " />
<glyph glyph-name="Eta" unicode="&#x397;" horiz-adv-x="644" d="M402 0 L407 47 L467 47 L503 336 L171 336 L135 47 L196 47 L191 0 L14 0 L19 47 L79 47 L152 637 L92 637 L97 683 L274 683 L269 637 L208 637 L177 385 L509 385 L540 637 L480 637 L485 683 L663 683 L658 637 L597 637 L524 47 L585 47 L580 0 L402 0 Z " />
<glyph glyph-name="Theta" unicode="&#x398;" horiz-adv-x="629" d="M189 380 L480 386 L473 329 L183 333 L189 380 Z M373 693 Q440 693 483.5 671 Q527 649 553 611.5 Q579 574 589.5 524.5 Q600 475 600 419 Q600 331 581 253.5 Q562 176 524 118 Q486 60 429.5 26.5 Q373 -7 299 -7 Q234 -7 188.5 11 Q143 29 114.5 62.5 Q86 96 73 144 Q60 192 60 253 Q60 331 76.5 409.5 Q93 488 130.5 551 Q168 614 227.5 653.5 Q287 693 373 693 Z M374 646 Q299 646 249.5 609.5 Q200 573 170 516 Q140 459 127.5 389 Q115 319 115 252 Q115 146 158.5 93 Q202 40 299 40 Q365 40 411.5 72 Q458 104 488 157.5 Q518 211 531.5 279 Q545 347 545 419 Q545 462 538 503 Q531 544 512 576 Q493 608 459.5 627 Q426 646 374 646 Z " />
<glyph glyph-name="Iota" unicode="&#x399;" horiz-adv-x="311" d="M43 0 L48 46 L107 46 L180 637 L121 637 L126 683 L301 683 L296 637 L235 637 L162 46 L223 46 L218 0 L43 0 Z " />
<glyph glyph-name="Kappa" unicode="&#x39a;" horiz-adv-x="590" d="M305 413 L508 48 L565 48 L560 0 L378 0 L382 48 L449 48 L266 379 L164 287 L134 47 L197 47 L192 0 L14 0 L19 47 L79 47 L152 637 L92 637 L97 683 L273 683 L268 637 L207 637 L172 356 L483 637 L422 636 L427 683 L612 683 L607 636 L554 636 L305 413 Z " />
<glyph glyph-name="Lambda" unicode="&#x39b;" horiz-adv-x="617" d="M112 46 L184 46 L179 0 L-6 0 L-1 46 L56 46 Q122 200 194 365 Q266 530 333 684 L402 684 L525 46 L578 46 L573 0 L392 0 L397 46 L466 46 L375 555 L362 629 L360 629 Q359 627 358 623.5 Q357 620 353.5 612 Q350 604 344.5 590 Q339 576 329 554 L112 46 Z " />
<glyph glyph-name="Mu" unicode="&#x39c;" horiz-adv-x="800" d="M392 130 L463 260 L695 683 L819 683 L814 637 L754 637 L681 46 L741 46 L736 0 L560 0 L565 46 L627 46 L693 580 L691 580 L630 466 L409 67 L355 67 L229 474 L197 580 L195 580 L131 46 L194 46 L189 0 L14 0 L19 46 L78 46 L151 637 L92 637 L97 683 L217 683 L347 258 L386 130 L392 130 Z " />
<glyph glyph-name="Nu" unicode="&#x39d;" horiz-adv-x="678" d="M510 104 L576 637 L508 637 L513 683 L697 683 L692 637 L629 637 L551 0 L500 0 L263 475 L206 592 L203 591 L137 47 L205 47 L200 0 L14 0 L19 47 L84 47 L157 637 L92 637 L97 683 L221 683 L441 238 L505 104 L510 104 Z " />
<glyph glyph-name="Xi" unicode="&#x39e;" horiz-adv-x="505" d="M-5 0 L13 153 L62 153 L50 57 L423 57 L435 153 L483 153 L465 0 L-5 0 Z M122 528 L77 528 L96 682 L524 682 L505 528 L459 528 L471 626 L134 626 L122 528 Z M130 377 L417 383 L409 324 L124 328 L130 377 Z " />
<glyph glyph-name="Omicron" unicode="&#x39f;" horiz-adv-x="629" d="M373 693 Q440 693 483.5 671 Q527 649 553 611.5 Q579 574 589.5 524.5 Q600 475 600 419 Q600 331 581 253.5 Q562 176 524 118 Q486 60 429.5 26.5 Q373 -7 299 -7 Q234 -7 188.5 11 Q143 29 114.5 62.5 Q86 96 73 144 Q60 192 60 253 Q60 331 76.5 409.5 Q93 488 130.5 551 Q168 614 227.5 653.5 Q287 693 373 693 Z M374 646 Q299 646 249.5 609.5 Q200 573 170 516 Q140 459 127.5 389 Q115 319 115 252 Q115 146 158.5 93 Q202 40 299 40 Q365 40 411.5 72 Q458 104 488 157.5 Q518 211 531.5 279 Q545 347 545 419 Q545 462 538 503 Q531 544 512 576 Q493 608 459.5 627 Q426 646 374 646 Z " />
<glyph glyph-name="Pi" unicode="&#x3a0;" horiz-adv-x="644" d="M402 0 L407 47 L467 47 L539 634 L207 634 L135 47 L196 47 L191 0 L14 0 L19 47 L79 47 L151 634 L91 634 L97 683 L663 683 L657 634 L596 634 L524 47 L585 47 L580 0 L402 0 Z " />
<glyph glyph-name="Rho" unicode="&#x3a1;" horiz-adv-x="526" d="M14 0 L19 46 L80 46 L153 637 L92 637 L97 683 L359 683 Q396 683 428 673 Q460 663 483.5 642 Q507 621 520 589 Q533 557 533 513 Q533 479 522.5 439.5 Q512 400 487.5 366.5 Q463 333 421.5 310.5 Q380 288 318 288 L165 288 L135 46 L217 46 L212 0 L14 0 Z M318 334 Q343 334 371 342.5 Q399 351 422.5 371 Q446 391 461 424.5 Q476 458 476 509 Q476 574 443 605.5 Q410 637 356 637 L208 637 L171 334 L318 334 Z " />
<glyph glyph-name="Delta" unicode="&#x394;" horiz-adv-x="617" d="M544 0 L22 0 L27 41 L331 684 L400 684 L549 41 L544 0 Z M396 486 L363 637 L362 637 L291 485 L83 46 L495 46 L396 486 Z " />
<glyph glyph-name="Sigma" unicode="&#x3a3;" horiz-adv-x="496" d="M286 354 L71 47 L417 47 L431 155 L479 155 L460 0 L4 0 L9 46 L228 365 L82 637 L87 683 L514 683 L497 538 L450 538 L462 637 L144 637 L288 373 L286 354 Z " />
<glyph glyph-name="dagger" unicode="&#x2020;" horiz-adv-x="443" d="M274 428 L215 -56 L166 -56 L225 428 L66 428 L72 480 L231 480 L256 683 L305 683 L280 480 L439 480 L433 428 L274 428 Z " />
<glyph glyph-name="ellipsis" unicode="&#x2026;" horiz-adv-x="565" d="M296 34 Q294 16 280 3 Q266 -10 249 -10 Q232 -10 221.5 3 Q211 16 213 34 Q215 51 228.5 63.5 Q242 76 259 76 Q277 76 287.5 63.5 Q298 51 296 34 Z M502 34 Q500 16 485.5 3 Q471 -10 455 -10 Q438 -10 427 3 Q416 16 418 34 Q420 51 434 63.5 Q448 76 465 76 Q482 76 493 63.5 Q504 51 502 34 Z M105 34 Q103 16 89 3 Q75 -10 58 -10 Q41 -10 30.5 3 Q20 16 22 34 Q24 51 37.5 63.5 Q51 76 68 76 Q86 76 96.5 63.5 Q107 51 105 34 Z " />
<glyph glyph-name="registered" unicode="&#xae;" horiz-adv-x="550" d="M299 242 Q249 242 207.5 260 Q166 278 135.5 309.5 Q105 341 88 383 Q71 425 71 473 Q71 521 88 563.5 Q105 606 135.5 637.5 Q166 669 207.5 687.5 Q249 706 299 706 Q349 706 391 687.5 Q433 669 463.5 637.5 Q494 606 511 563.5 Q528 521 528 473 Q528 425 511 383 Q494 341 463.5 309.5 Q433 278 391 260 Q349 242 299 242 Z M299 677 Q256 677 219.5 661 Q183 645 156.5 617.5 Q130 590 115 552.5 Q100 515 100 473 Q100 432 115 395 Q130 358 156 330.5 Q182 303 218.5 287 Q255 271 299 271 Q345 271 381.5 287 Q418 303 444 330.5 Q470 358 484 395 Q498 432 498 473 Q498 515 483.5 552.5 Q469 590 442.5 617.5 Q416 645 379.5 661 Q343 677 299 677 Z M196 329 L196 356 L220 356 L220 594 L196 594 L196 621 L309 621 Q346 621 371 602.5 Q396 584 396 541 Q396 522 383 498 Q370 474 341 462 L391 357 L420 353 L420 331 Q405 326 387 326 Q376 326 369.5 333 Q363 340 360 347 L307 458 L253 458 L253 356 L287 356 L287 329 L196 329 Z M310 485 Q330 485 347 496 Q364 507 364 540 Q364 570 347.5 582 Q331 594 310 594 L253 594 L253 485 L310 485 Z " />
<glyph glyph-name="trademark" unicode="&#x2122;" horiz-adv-x="691" d="M496 461 L525 525 L600 683 L675 683 L675 649 L641 649 L641 396 L675 396 L675 365 L568 365 L568 396 L602 396 L602 609 L600 609 L567 537 L509 416 L478 416 L419 537 L389 603 L388 603 L388 396 L423 396 L423 365 L316 365 L316 396 L350 396 L350 649 L316 649 L316 683 L392 683 L462 528 L491 461 L496 461 Z M258 650 L187 650 L187 396 L228 396 L228 366 L105 366 L105 396 L146 396 L146 650 L78 650 L78 601 L47 601 L47 683 L288 683 L288 601 L258 601 L258 650 Z " />
<glyph glyph-name="copyright" unicode="&#xa9;" horiz-adv-x="799" d="M536 96 Q514 87 476.5 80.5 Q439 74 406 74 Q352 74 314 91.5 Q276 109 252 142 Q228 175 217 221.5 Q206 268 206 326 Q206 364 214.5 409.5 Q223 455 246 494.5 Q269 534 308 560.5 Q347 587 409 587 Q451 587 480.5 581 Q510 575 529 567 L529 459 L493 459 L493 536 Q476 541 454 544.5 Q432 548 410 548 Q369 548 339 532 Q309 516 289 486.5 Q269 457 259.5 416 Q250 375 250 325 Q250 283 256.5 244.5 Q263 206 280.5 177 Q298 148 329.5 131 Q361 114 411 114 Q421 114 435.5 115 Q450 116 466 118 Q482 120 498 123 Q514 126 528 131 L536 96 Z M400 -23 Q316 -23 251 5 Q186 33 141.5 81.5 Q97 130 73.5 195 Q50 260 50 334 Q50 407 76.5 472 Q103 537 150 585.5 Q197 634 261 662 Q325 690 400 690 Q478 690 542.5 662 Q607 634 653.5 585.5 Q700 537 725.5 472 Q751 407 751 334 Q751 260 723 195 Q695 130 647.5 81.5 Q600 33 536 5 Q472 -23 400 -23 Z M400 655 Q333 655 275 630 Q217 605 174.5 561.5 Q132 518 108 459.5 Q84 401 84 334 Q84 268 105 209 Q126 150 166 106 Q206 62 265 36.5 Q324 11 400 11 Q466 11 523 36.5 Q580 62 623 106 Q666 150 690.5 209 Q715 268 715 334 Q715 401 692 459.5 Q669 518 627.5 561.5 Q586 605 528 630 Q470 655 400 655 Z " />
<glyph glyph-name="sigma1" unicode="&#x3c2;" horiz-adv-x="442" d="M278 451 Q233 451 199 433 Q165 415 142.5 384.5 Q120 354 108.5 313 Q97 272 97 226 Q97 197 104 173.5 Q111 150 127.5 129 Q144 108 171 89 Q198 70 237 51 Q293 24 314.5 4.5 Q336 -15 336 -37 Q336 -41 335 -49.5 Q334 -58 327 -72 Q320 -86 304.5 -107 Q289 -128 259 -157 L231 -132 Q250 -110 260 -96 Q270 -82 275 -73 Q280 -64 281 -58.5 Q282 -53 282 -49 Q282 -37 266.5 -24.5 Q251 -12 207 8 Q158 30 126 53.5 Q94 77 75.5 103 Q57 129 49.5 157 Q42 185 42 216 Q42 278 58 330 Q74 382 104 419 Q134 456 178.5 476.5 Q223 497 280 497 Q316 497 348.5 491 Q381 485 395 480 Q409 474 416 466.5 Q423 459 421 443 Q421 438 418 426 Q415 414 410.5 398.5 Q406 383 400.5 367 Q395 351 389 338 L361 339 L367 439 Q352 444 325.5 447.5 Q299 451 278 451 Z " />
<glyph glyph-name="yen" unicode="&#xa5;" horiz-adv-x="524" d="M80 282 L84 317 L230 317 L118 617 L66 617 L72 663 L241 663 L235 617 L172 617 L270 338 L274 338 L443 617 L378 617 L384 663 L557 663 L551 617 L501 617 L312 317 L460 317 L456 282 L80 282 Z M450 232 L445 194 L282 194 L264 46 L346 46 L341 0 L125 0 L130 46 L211 46 L229 194 L69 194 L74 232 L450 232 Z " />
<glyph glyph-name="section" unicode="&#xa7;" horiz-adv-x="434" d="M274 619 Q252 619 230.5 614 Q209 609 192.5 597.5 Q176 586 165.5 568 Q155 550 155 525 Q155 498 172.5 479 Q190 460 216 444 Q242 428 272 413 Q302 398 328 379.5 Q354 361 371.5 336.5 Q389 312 389 277 Q389 267 386 251 Q383 235 374 216 Q365 197 349 175 Q333 153 308 131 Q325 120 336 106 Q347 92 354 77 Q361 62 363.5 48 Q366 34 366 23 Q366 -19 350 -50 Q334 -81 308.5 -101.5 Q283 -122 250.5 -132.5 Q218 -143 184 -143 Q145 -143 102 -135.5 Q59 -128 30 -117 L45 0 L89 0 L79 -82 Q102 -89 129 -93 Q156 -97 179 -97 Q204 -97 228.5 -90 Q253 -83 271.5 -69 Q290 -55 301.5 -32.5 Q313 -10 313 21 Q313 51 294.5 72 Q276 93 248.5 109 Q221 125 189 140 Q157 155 129.5 174 Q102 193 83.5 218 Q65 243 65 280 Q65 314 84 354 Q103 394 146 424 Q121 445 109 468 Q97 491 97 520 Q97 557 111.5 584.5 Q126 612 150.5 631 Q175 650 208.5 659.5 Q242 669 280 669 Q330 669 359.5 661.5 Q389 654 415 646 L399 526 L354 526 L364 605 Q347 610 326.5 614.5 Q306 619 274 619 Z M185 398 Q155 374 136.5 344 Q118 314 118 284 Q118 258 132.5 240.5 Q147 223 169.5 208.5 Q192 194 219 182 Q246 170 271 157 Q304 187 320 217.5 Q336 248 336 268 Q336 296 321 314.5 Q306 333 283.5 347 Q261 361 234.5 372.5 Q208 384 185 398 Z " />
<glyph glyph-name="guillemotright" unicode="&#xbb;" horiz-adv-x="393" d="M195 335 L220 354 L335 204 L330 165 L176 16 L157 34 L272 184 L195 335 Z M69 335 L94 354 L209 204 L204 165 L50 16 L31 34 L146 184 L69 335 Z " />
<glyph glyph-name="Aring" unicode="&#xc5;" horiz-adv-x="617" d="M392 0 L397 46 L466 46 L441 189 L173 189 L112 46 L184 46 L179 0 L-6 0 L-1 46 L56 46 Q122 200 194 365 Q266 530 333 684 L402 684 L525 46 L578 46 L573 0 L392 0 Z M375 555 L362 629 L360 629 Q359 627 358 623.5 Q357 620 353.5 612 Q350 604 344.5 590 Q339 576 329 554 Q312 514 279.5 439.5 Q247 365 195 239 L432 239 L375 555 Z M366 699 Q345 699 328 706.5 Q311 714 299.5 727.5 Q288 741 282.5 759 Q277 777 279 797 Q284 837 314.5 866.5 Q345 896 390 896 Q410 896 426.5 888 Q443 880 454.5 866.5 Q466 853 471.5 835 Q477 817 474 797 Q469 755 438.5 727 Q408 699 366 699 Z M386 862 Q357 862 337.5 843 Q318 824 314 795 Q311 767 326 748.5 Q341 730 370 730 Q397 730 416.5 748.5 Q436 767 439 795 Q443 823 428 842.5 Q413 862 386 862 Z " />
<glyph glyph-name="degree" unicode="&#xb0;" horiz-adv-x="334" d="M171 428 Q114 428 82 462 Q50 496 50 546 Q50 570 59.5 592 Q69 614 85.5 630.5 Q102 647 124 657 Q146 667 171 667 Q196 667 217.5 657 Q239 647 255 630.5 Q271 614 280 592 Q289 570 289 546 Q289 521 280 499.5 Q271 478 255 462 Q239 446 217.5 437 Q196 428 171 428 Z M168 629 Q151 629 136 622 Q121 615 110 603.5 Q99 592 92.5 576.5 Q86 561 86 543 Q86 509 109.5 485 Q133 461 168 461 Q202 461 227 485 Q252 509 252 543 Q252 561 245 576.5 Q238 592 226.5 603.5 Q215 615 200 622 Q185 629 168 629 Z " />
<glyph glyph-name="germandbls" unicode="&#xdf;" horiz-adv-x="533" d="M135 120 Q127 61 118.5 1.5 Q110 -58 91 -105.5 Q72 -153 38.5 -182.5 Q5 -212 -52 -212 Q-69 -212 -90.5 -209 Q-112 -206 -134 -200 L-122 -162 Q-100 -167 -85 -168 Q-70 -169 -56 -169 Q-3 -169 26.5 -126 Q56 -83 70 12 L116 388 L45 388 L50 431 L121 431 L135 545 Q138 567 148.5 597 Q159 627 180.5 653 Q202 679 237 697.5 Q272 716 323 716 Q363 716 389.5 705.5 Q416 695 431.5 679.5 Q447 664 453.5 644.5 Q460 625 460 607 Q460 563 440.5 534.5 Q421 506 397 483 Q373 460 353.5 439.5 Q334 419 334 392 Q334 370 345.5 351.5 Q357 333 374.5 315 Q392 297 412 279 Q432 261 449.5 240.5 Q467 220 478.5 195 Q490 170 490 139 Q490 114 481.5 87 Q473 60 453.5 37.5 Q434 15 402 0.5 Q370 -14 323 -14 Q288 -14 251 -6.5 Q214 1 191 13 L210 56 Q239 42 267.5 36.5 Q296 31 324 31 Q347 31 367 36.5 Q387 42 401.5 53.5 Q416 65 424.5 83 Q433 101 433 126 Q433 149 425.5 167 Q418 185 406.5 199.5 Q395 214 381.5 226.5 Q368 239 355 253 Q341 268 326.5 284.5 Q312 301 300.5 318 Q289 335 282 353 Q275 371 275 389 Q275 420 295 445.5 Q315 471 339.5 494.5 Q364 518 384 542 Q404 566 404 595 Q404 605 401 617.5 Q398 630 388 641.5 Q378 653 359.5 661 Q341 669 310 669 Q282 669 260.5 659 Q239 649 224 632.5 Q209 616 200 593.5 Q191 571 188 546 L135 120 Z " />
<glyph glyph-name="guillemotleft" unicode="&#xab;" horiz-adv-x="393" d="M119 184 L198 34 L174 16 L58 165 L63 204 L214 354 L234 335 L119 184 Z M245 184 L324 34 L300 16 L184 165 L189 204 L340 354 L360 335 L245 184 Z " />
<glyph glyph-name="divide" unicode="&#xf7;" horiz-adv-x="524" d="M89 274 L95 320 L458 320 L452 274 L89 274 Z M298 492 Q314 492 324.5 481.5 Q335 471 335 455 Q335 435 320 420 Q305 405 288 405 Q272 405 261.5 416.5 Q251 428 251 444 Q251 464 265.5 478 Q280 492 298 492 Z M260 186 Q276 186 286.5 176 Q297 166 297 150 Q297 130 282.5 115 Q268 100 251 100 Q235 100 224 111.5 Q213 123 213 139 Q213 159 227.5 172.5 Q242 186 260 186 Z " />
<glyph glyph-name="circumflex" unicode="&#x2c6;" horiz-adv-x="464" d="M285 632 L127 532 L110 554 L271 693 L309 693 L438 556 L419 533 L285 632 Z " />
<glyph glyph-name="perthousand" unicode="&#x2030;" horiz-adv-x="1148" d="M200 669 Q240 669 265 655.5 Q290 642 304 620.5 Q318 599 323.5 572.5 Q329 546 329 519 Q329 482 322 437 Q315 392 296 353 Q277 314 243 288 Q209 262 155 262 Q116 262 90 274 Q64 286 48.5 306 Q33 326 27 352 Q21 378 21 407 Q21 423 23 448.5 Q25 474 31.5 503 Q38 532 50 562 Q62 592 81.5 615.5 Q101 639 130 654 Q159 669 200 669 Z M200 627 Q169 627 147 613 Q125 599 110.5 577 Q96 555 88 529 Q80 503 76 478 Q72 453 71 433 Q70 413 70 404 Q70 360 89.5 332 Q109 304 160 304 Q196 304 219 325 Q242 346 255.5 376.5 Q269 407 274.5 442.5 Q280 478 280 508 Q280 529 277 550 Q274 571 265 588.5 Q256 606 240.5 616.5 Q225 627 200 627 Z M244 -23 L201 -23 L572 698 L613 698 L244 -23 Z M635 403 Q675 403 700 389.5 Q725 376 739 354 Q753 332 758.5 305.5 Q764 279 764 252 Q764 215 757 170.5 Q750 126 731 87 Q712 48 678 22 Q644 -4 590 -4 Q551 -4 525 8 Q499 20 483.5 40 Q468 60 462 86 Q456 112 456 140 Q456 156 458 181.5 Q460 207 466.5 236.5 Q473 266 485 295.5 Q497 325 516.5 349 Q536 373 565 388 Q594 403 635 403 Z M635 361 Q604 361 582 347 Q560 333 545.5 311 Q531 289 523 262.5 Q515 236 511 211.5 Q507 187 506 166.5 Q505 146 505 137 Q505 94 524.5 66 Q544 38 595 38 Q631 38 654 58.5 Q677 79 690.5 110 Q704 141 709.5 176 Q715 211 715 241 Q715 262 712 283.5 Q709 305 700 322 Q691 339 675.5 350 Q660 361 635 361 Z M998 403 Q1038 403 1063 389.5 Q1088 376 1102 354 Q1116 332 1121.5 305.5 Q1127 279 1127 252 Q1127 215 1120 170.5 Q1113 126 1094 87 Q1075 48 1041 22 Q1007 -4 953 -4 Q914 -4 888 8 Q862 20 846.5 40 Q831 60 825 86 Q819 112 819 140 Q819 156 821 181.5 Q823 207 829.5 236.5 Q836 266 848 295.5 Q860 325 879.5 349 Q899 373 928 388 Q957 403 998 403 Z M998 361 Q967 361 945 347 Q923 333 908.5 311 Q894 289 886 262.5 Q878 236 874 211.5 Q870 187 869 166.5 Q868 146 868 137 Q868 94 887.5 66 Q907 38 958 38 Q994 38 1017 58.5 Q1040 79 1053.5 110 Q1067 141 1072.5 176 Q1078 211 1078 241 Q1078 262 1075 283.5 Q1072 305 1063 322 Q1054 339 1038.5 350 Q1023 361 998 361 Z " />
<glyph glyph-name="dieresis" unicode="&#xa8;" horiz-adv-x="464" d="M374 639 Q391 639 401 630.5 Q411 622 411 607 Q411 588 398 576 Q385 564 365 564 Q351 564 342.5 573 Q334 582 334 597 Q334 614 347 626.5 Q360 639 374 639 Z M199 639 Q236 639 236 607 Q236 588 224 576 Q212 564 192 564 Q177 564 167.5 573 Q158 582 158 597 Q158 614 171.5 626.5 Q185 639 199 639 Z " />
<glyph glyph-name="florin" unicode="&#x192;" horiz-adv-x="524" d="M311 355 L287 207 Q277 148 265.5 88.5 Q254 29 233.5 -18.5 Q213 -66 178.5 -95.5 Q144 -125 87 -125 Q70 -125 49 -122 Q28 -119 6 -113 L19 -75 Q41 -80 56 -81 Q71 -82 85 -82 Q138 -82 168 -39 Q198 4 215 99 Q230 183 238.5 232.5 Q247 282 251.5 309 Q256 336 257 344.5 Q258 353 258 355 L169 355 L173 394 L265 394 L274 455 Q281 501 293.5 540.5 Q306 580 327 608.5 Q348 637 379 653.5 Q410 670 454 670 Q487 670 531 658 L518 615 Q501 620 485.5 621.5 Q470 623 456 623 Q433 623 413 616 Q393 609 376.5 591 Q360 573 348 542 Q336 511 329 462 L319 394 L417 394 L413 355 L311 355 Z " />
<glyph glyph-name="daggerdbl" unicode="&#x2021;" horiz-adv-x="443" d="M196 188 L225 428 L66 428 L72 480 L231 480 L256 683 L305 683 L280 480 L439 480 L433 428 L274 428 L245 188 L404 188 L397 136 L238 136 L215 -56 L166 -56 L189 136 L30 136 L37 188 L196 188 Z " />
<glyph glyph-name="logicalnot" unicode="&#xac;" horiz-adv-x="524" d="M432 107 L385 107 L405 274 L89 274 L95 321 L458 321 L432 107 Z " />
<glyph glyph-name="multiply" unicode="&#xd7;" horiz-adv-x="524" d="M270 252 L125 120 L97 155 L241 287 L131 416 L168 449 L277 320 L415 447 L445 413 L306 285 L415 157 L379 123 L270 252 Z " />
<glyph glyph-name="plusminus" unicode="&#xb1;" horiz-adv-x="524" d="M61 41 L423 41 L418 0 L56 0 L61 41 Z M293 264 L272 97 L225 97 L246 264 L88 264 L94 311 L252 311 L271 471 L318 471 L299 311 L456 311 L450 264 L293 264 Z " />
<glyph glyph-name="brokenbar" unicode="&#xa6;" horiz-adv-x="205" d="M106 338 L106 697 L144 697 L144 338 L106 338 Z M144 245 L144 -136 L106 -136 L106 245 L144 245 Z " />
<glyph glyph-name="guilsinglright" unicode="&#x203a;" horiz-adv-x="291" d="M80 337 L103 354 L218 204 L213 165 L59 16 L42 36 L157 186 L80 337 Z " />
<glyph glyph-name="guilsinglleft" unicode="&#x2039;" horiz-adv-x="291" d="M118 183 L197 33 L174 16 L58 165 L63 204 L214 354 L233 334 L118 183 Z " />
<glyph glyph-name="currency" unicode="&#xa4;" horiz-adv-x="524" d="M123 306 Q123 277 134 251 Q145 225 163.5 206 Q182 187 207 176 Q232 165 261 165 Q289 165 313.5 176 Q338 187 357 206 Q376 225 387 251 Q398 277 398 306 Q398 335 387 361 Q376 387 357.5 406 Q339 425 314 436 Q289 447 261 447 Q232 447 207 436 Q182 425 163.5 406 Q145 387 134 361 Q123 335 123 306 Z M60 486 L86 514 L148 451 Q171 471 200.5 481.5 Q230 492 262 492 Q294 492 321.5 481.5 Q349 471 374 451 L436 514 L464 485 L401 423 Q423 395 431.5 367 Q440 339 440 307 Q440 275 430 245.5 Q420 216 402 190 L464 131 L436 100 L373 163 Q347 139 318.5 130.5 Q290 122 262 122 Q233 122 205 130.5 Q177 139 149 163 L87 99 L59 129 L121 190 Q97 219 89 249 Q81 279 81 305 Q81 336 89.5 366.5 Q98 397 121 423 L60 486 Z " />
<glyph glyph-name="exclamdown" unicode="&#xa1;" horiz-adv-x="192" d="M125 327 L106 106 L73 -206 L18 -206 L59 106 L93 327 L125 327 Z M84 452 Q86 470 100.5 483 Q115 496 131 496 Q148 496 159 483 Q170 470 168 452 Q166 435 152 422.5 Q138 410 121 410 Q104 410 93 422.5 Q82 435 84 452 Z " />
<glyph glyph-name="questiondown" unicode="&#xbf;" horiz-adv-x="403" d="M160 -216 Q79 -216 40 -187 Q1 -158 1 -104 Q1 -76 10 -52 Q19 -28 34.5 -7.5 Q50 13 70 31 Q90 49 112 65 Q155 97 183.5 122 Q212 147 228.5 170 Q245 193 251.5 215.5 Q258 238 258 265 Q258 276 257.5 289 Q257 302 257 318 L301 328 Q303 310 304 294.5 Q305 279 305 265 Q305 234 298.5 207.5 Q292 181 275 155 Q258 129 229 101.5 Q200 74 155 42 Q110 9 82.5 -21 Q55 -51 55 -95 Q55 -134 85 -150.5 Q115 -167 161 -167 Q188 -167 222 -162.5 Q256 -158 289 -147 L300 -52 L345 -52 L329 -186 Q286 -201 240.5 -208.5 Q195 -216 160 -216 Z M272 410 Q255 410 245.5 421 Q236 432 236 448 Q236 468 250.5 482 Q265 496 282 496 Q299 496 309 485 Q319 474 319 458 Q319 438 305.5 424 Q292 410 272 410 Z " />
<glyph glyph-name="sfthyphen" unicode="&#xad;" horiz-adv-x="343" d="M52 235 L59 288 L303 288 L296 235 L52 235 Z " />
<glyph glyph-name="periodcentered" unicode="&#xb7;" horiz-adv-x="174" d="M104 330 Q121 330 131 320 Q141 310 141 294 Q141 274 126.5 259 Q112 244 94 244 Q78 244 68 255.5 Q58 267 58 283 Q58 303 72 316.5 Q86 330 104 330 Z " />
<glyph glyph-name="cedilla" unicode="&#xb8;" horiz-adv-x="420" d="M173 -65 Q216 -67 242.5 -83 Q269 -99 269 -132 Q269 -154 257.5 -174 Q246 -194 223.5 -209 Q201 -224 167.5 -232.5 Q134 -241 89 -241 L93 -210 Q147 -205 181.5 -189.5 Q216 -174 216 -145 Q216 -133 207 -125.5 Q198 -118 184.5 -113.5 Q171 -109 153.5 -107.5 Q136 -106 120 -106 L112 -89 L220 34 L245 17 L173 -65 Z " />
<glyph glyph-name="acute" unicode="&#xb4;" horiz-adv-x="464" d="M235 557 L362 715 L404 675 L260 536 L235 557 Z " />
<glyph glyph-name="primemod" unicode="&#x2b9;" horiz-adv-x="227" d="M71 416 L237 685 L285 653 L99 399 L71 416 Z " />
<glyph glyph-name="caron" unicode="&#x2c7;" horiz-adv-x="464" d="M438 706 L454 683 L292 546 L254 546 L127 685 L146 707 L280 607 L438 706 Z " />
<glyph glyph-name="breve" unicode="&#x2d8;" horiz-adv-x="487" d="M278 552 Q254 552 234 561 Q214 570 197.5 585 Q181 600 168 618.5 Q155 637 143 656 L186 684 Q207 649 233 626 Q259 603 288 603 Q297 603 310 605 Q323 607 340 614.5 Q357 622 379.5 636.5 Q402 651 430 677 L449 658 Q401 600 357.5 576 Q314 552 278 552 Z " />
<glyph glyph-name="dotaccent" unicode="&#x2d9;" horiz-adv-x="464" d="M287 653 Q303 653 313 642.5 Q323 632 323 616 Q323 596 309.5 582 Q296 568 276 568 Q260 568 250 579 Q240 590 240 606 Q240 626 255 639.5 Q270 653 287 653 Z " />
<glyph glyph-name="ring" unicode="&#x2da;" horiz-adv-x="464" d="M273 552 Q252 552 235 559.5 Q218 567 206.5 580.5 Q195 594 189.5 612 Q184 630 186 650 Q191 690 221.5 719.5 Q252 749 297 749 Q317 749 333.5 741 Q350 733 361.5 719.5 Q373 706 378.5 688 Q384 670 381 650 Q376 608 345.5 580 Q315 552 273 552 Z M293 715 Q264 715 244.5 696 Q225 677 221 648 Q218 620 233 601.5 Q248 583 277 583 Q304 583 323.5 601.5 Q343 620 346 648 Q350 676 335 695.5 Q320 715 293 715 Z " />
<glyph glyph-name="ogonek" unicode="&#x2db;" horiz-adv-x="489" d="M373 14 Q357 -1 343 -20.5 Q329 -40 319 -59.5 Q309 -79 303 -96.5 Q297 -114 297 -126 Q297 -146 312.5 -153 Q328 -160 350 -160 Q370 -160 390 -156 Q410 -152 424 -149 L425 -175 Q402 -186 375 -193 Q348 -200 322 -200 Q282 -200 262 -184.5 Q242 -169 242 -141 Q242 -127 247.5 -107.5 Q253 -88 266.5 -66 Q280 -44 303.5 -20 Q327 4 363 27 L373 14 Z " />
<glyph glyph-name="hungarumlaut" unicode="&#x2dd;" horiz-adv-x="464" d="M177 557 L304 715 L346 675 L202 536 L177 557 Z M286 557 L412 715 L455 675 L311 536 L286 557 Z " />
<glyph glyph-name="tonos" unicode="&#x384;" horiz-adv-x="464" d="M235 557 L362 715 L404 675 L260 536 L235 557 Z " />
<glyph glyph-name="dieresistonos" unicode="&#x385;" horiz-adv-x="464" d="M220 552 L316 729 L367 700 L251 538 L220 552 Z M377 639 Q391 639 401 630.5 Q411 622 411 607 Q411 588 397 576 Q383 564 365 564 Q351 564 342.5 573 Q334 582 334 597 Q334 614 348.5 626.5 Q363 639 377 639 Z M180 639 Q197 639 207 630.5 Q217 622 217 607 Q217 588 204 576 Q191 564 173 564 Q157 564 147.5 573.5 Q138 583 138 597 Q138 614 152 626.5 Q166 639 180 639 Z " />
<glyph glyph-name="anoteleia" unicode="&#x387;" horiz-adv-x="174" d="M113 400 Q130 400 140 390 Q150 380 150 364 Q150 344 136 329 Q122 314 103 314 Q86 314 76 326 Q66 338 66 354 Q66 374 81 387 Q96 400 113 400 Z " />
<glyph glyph-name="Alphatonos" unicode="&#x386;" horiz-adv-x="617" d="M392 0 L397 46 L466 46 L441 189 L173 189 L112 46 L184 46 L179 0 L-6 0 L-1 46 L56 46 Q122 200 194 365 Q266 530 333 684 L402 684 L525 46 L578 46 L573 0 L392 0 Z M375 555 L362 629 L360 629 Q359 627 358 623.5 Q357 620 353.5 612 Q350 604 344.5 590 Q339 576 329 554 Q312 514 279.5 439.5 Q247 365 195 239 L432 239 L375 555 Z M60 557 L187 715 L229 675 L85 536 L60 557 Z " />
<glyph glyph-name="Epsilontonos" unicode="&#x388;" horiz-adv-x="524" d="M19 46 L83 46 L156 637 L96 637 L101 682 L536 682 L520 548 L474 548 L485 637 L211 637 L179 382 L451 388 L445 334 L174 338 L138 46 L433 46 L444 135 L493 135 L477 0 L14 0 L19 46 Z M-106 557 L21 715 L63 675 L-81 536 L-106 557 Z " />
<glyph glyph-name="Etatonos" unicode="&#x389;" horiz-adv-x="644" d="M402 0 L407 47 L467 47 L503 336 L171 336 L135 47 L196 47 L191 0 L14 0 L19 47 L79 47 L152 637 L92 637 L97 683 L274 683 L269 637 L208 637 L177 385 L509 385 L540 637 L480 637 L485 683 L663 683 L658 637 L597 637 L524 47 L585 47 L580 0 L402 0 Z M-110 557 L17 715 L59 675 L-85 536 L-110 557 Z " />
<glyph glyph-name="Iotatonos" unicode="&#x38a;" horiz-adv-x="311" d="M43 0 L48 46 L107 46 L180 637 L121 637 L126 683 L301 683 L296 637 L235 637 L162 46 L223 46 L218 0 L43 0 Z M-80 557 L47 715 L89 675 L-55 536 L-80 557 Z " />
<glyph glyph-name="Omicrontonos" unicode="&#x38c;" horiz-adv-x="629" d="M373 693 Q440 693 483.5 671 Q527 649 553 611.5 Q579 574 589.5 524.5 Q600 475 600 419 Q600 331 581 253.5 Q562 176 524 118 Q486 60 429.5 26.5 Q373 -7 299 -7 Q234 -7 188.5 11 Q143 29 114.5 62.5 Q86 96 73 144 Q60 192 60 253 Q60 331 76.5 409.5 Q93 488 130.5 551 Q168 614 227.5 653.5 Q287 693 373 693 Z M374 646 Q299 646 249.5 609.5 Q200 573 170 516 Q140 459 127.5 389 Q115 319 115 252 Q115 146 158.5 93 Q202 40 299 40 Q365 40 411.5 72 Q458 104 488 157.5 Q518 211 531.5 279 Q545 347 545 419 Q545 462 538 503 Q531 544 512 576 Q493 608 459.5 627 Q426 646 374 646 Z M-53 557 L74 715 L116 675 L-28 536 L-53 557 Z " />
<glyph glyph-name="Upsilontonos" unicode="&#x38e;" horiz-adv-x="534" d="M284 356 L468 637 L403 637 L408 683 L582 683 L577 637 L526 637 L307 310 L274 46 L353 46 L348 0 L133 0 L138 46 L218 46 L250 307 L115 637 L63 637 L68 683 L237 683 L232 637 L169 637 L280 356 L284 356 Z M-126 557 L1 715 L43 675 L-101 536 L-126 557 Z " />
<glyph glyph-name="Omegatonos" unicode="&#x38f;" horiz-adv-x="646" d="M378 693 Q447 693 492.5 671.5 Q538 650 564.5 614 Q591 578 601.5 529.5 Q612 481 612 427 Q612 370 603.5 313.5 Q595 257 577.5 207 Q560 157 532.5 115.5 Q505 74 467 48 L587 47 L582 0 L363 0 L369 51 Q419 63 454.5 100 Q490 137 512.5 188.5 Q535 240 545 301 Q555 362 555 422 Q555 465 547 505.5 Q539 546 519 577 Q499 608 466 626.5 Q433 645 382 645 Q309 645 260 611 Q211 577 181 521.5 Q151 466 138 395.5 Q125 325 125 251 Q125 212 130.5 179 Q136 146 149 120 Q162 94 183 76.5 Q204 59 235 52 L229 0 L14 0 L19 47 L133 48 Q95 78 80.5 129.5 Q66 181 66 244 Q66 293 72 345.5 Q78 398 92 447.5 Q106 497 129.5 542 Q153 587 187.5 620.5 Q222 654 269 673.5 Q316 693 378 693 Z M-40 557 L87 715 L129 675 L-15 536 L-40 557 Z " />
<glyph glyph-name="Tau" unicode="&#x3a4;" horiz-adv-x="502" d="M529 538 L481 538 L493 637 L332 637 L259 46 L341 46 L336 0 L121 0 L126 46 L205 46 L278 637 L114 637 L102 538 L56 538 L73 683 L545 683 L529 538 Z " />
<glyph glyph-name="Upsilon" unicode="&#x3a5;" horiz-adv-x="534" d="M284 356 L468 637 L403 637 L408 683 L582 683 L577 637 L526 637 L307 310 L274 46 L353 46 L348 0 L133 0 L138 46 L218 46 L250 307 L115 637 L63 637 L68 683 L237 683 L232 637 L169 637 L280 356 L284 356 Z " />
<glyph glyph-name="Chi" unicode="&#x3a7;" horiz-adv-x="586" d="M145 637 L87 637 L92 683 L278 683 L273 637 L205 637 L318 395 L492 637 L422 637 L427 683 L616 683 L611 637 L553 637 L343 351 L487 47 L548 47 L543 0 L348 0 L353 47 L428 47 L303 312 L117 47 L195 47 L190 0 L-6 0 L-1 47 L58 47 L279 356 L145 637 Z " />
<glyph glyph-name="iotadieresistonos" unicode="&#x390;" horiz-adv-x="263" d="M156 497 Q175 497 183 492 Q191 487 191 473 L138 49 Q159 51 180 57 Q201 63 223 76 L238 56 Q207 23 178 6.5 Q149 -10 126 -10 Q101 -10 92.5 3 Q84 16 84 36 Q84 42 84.5 48.5 Q85 55 86 62 L133 438 L44 453 L46 481 Q78 489 106.5 493 Q135 497 156 497 Z M100 552 L196 729 L247 700 L131 538 L100 552 Z M257 639 Q271 639 281 630.5 Q291 622 291 607 Q291 588 277 576 Q263 564 245 564 Q231 564 222.5 573 Q214 582 214 597 Q214 614 228.5 626.5 Q243 639 257 639 Z M60 639 Q77 639 87 630.5 Q97 622 97 607 Q97 588 84 576 Q71 564 53 564 Q37 564 27.5 573.5 Q18 583 18 597 Q18 614 32 626.5 Q46 639 60 639 Z " />
<glyph glyph-name="Iotadieresis" unicode="&#x3aa;" horiz-adv-x="311" d="M43 0 L48 46 L107 46 L180 637 L121 637 L126 683 L301 683 L296 637 L235 637 L162 46 L223 46 L218 0 L43 0 Z M302 727 Q288 727 279.5 736 Q271 745 271 759 Q271 776 283.5 789 Q296 802 311 802 Q328 802 338 793.5 Q348 785 348 770 Q348 751 335 739 Q322 727 302 727 Z M129 727 Q113 727 103.5 736.5 Q94 746 94 760 Q94 777 108 789.5 Q122 802 136 802 Q153 802 163 793.5 Q173 785 173 770 Q173 751 160 739 Q147 727 129 727 Z " />
<glyph glyph-name="Upsilondieresis" unicode="&#x3ab;" horiz-adv-x="534" d="M284 356 L468 637 L403 637 L408 683 L582 683 L577 637 L526 637 L307 310 L274 46 L353 46 L348 0 L133 0 L138 46 L218 46 L250 307 L115 637 L63 637 L68 683 L237 683 L232 637 L169 637 L280 356 L284 356 Z M421 727 Q407 727 398.5 736 Q390 745 390 759 Q390 776 402.5 789 Q415 802 430 802 Q447 802 457 793.5 Q467 785 467 770 Q467 751 454 739 Q441 727 421 727 Z M248 727 Q232 727 222.5 736.5 Q213 746 213 760 Q213 777 227 789.5 Q241 802 255 802 Q272 802 282 793.5 Q292 785 292 770 Q292 751 279 739 Q266 727 248 727 Z " />
<glyph glyph-name="tilde" unicode="&#x2dc;" horiz-adv-x="464" d="M224 661 Q240 661 257 655 Q274 649 290 641.5 Q306 634 321 628 Q336 622 347 622 L407 661 L425 643 Q413 615 390 595.5 Q367 576 341 576 Q321 576 304 582 Q287 588 272 595.5 Q257 603 244 609 Q231 615 218 615 L158 576 L138 594 Q152 622 175 641.5 Q198 661 224 661 Z " />
<glyph glyph-name="macron" unicode="&#xaf;" horiz-adv-x="464" d="M433 647 L427 596 L124 596 L130 647 L433 647 Z " />
<glyph glyph-name="omicrontonos" unicode="&#x3cc;" horiz-adv-x="468" d="M270 450 Q234 450 206.5 436 Q179 422 159.5 399 Q140 376 127.5 346 Q115 316 107.5 285 Q100 254 97 223.5 Q94 193 94 168 Q94 143 99.5 119.5 Q105 96 118.5 78 Q132 60 155 49 Q178 38 213 38 Q266 38 299.5 67 Q333 96 351.5 137.5 Q370 179 376.5 224 Q383 269 383 302 Q383 330 378 357 Q373 384 360 404.5 Q347 425 325.5 437.5 Q304 450 270 450 Z M271 497 Q318 497 350 481 Q382 465 401.5 438 Q421 411 429.5 376 Q438 341 438 303 Q438 257 428 203 Q418 149 392.5 102.5 Q367 56 321.5 24.5 Q276 -7 206 -7 Q158 -7 126 7.5 Q94 22 75 47.5 Q56 73 48 107 Q40 141 40 179 Q40 231 52 287 Q64 343 91 389.5 Q118 436 162 466.5 Q206 497 271 497 Z M255 557 L382 715 L424 675 L280 536 L255 557 Z " />
<glyph glyph-name="iotadieresis" unicode="&#x3ca;" horiz-adv-x="263" d="M156 497 Q175 497 183 492 Q191 487 191 473 L138 49 Q159 51 180 57 Q201 63 223 76 L238 56 Q207 23 178 6.5 Q149 -10 126 -10 Q101 -10 92.5 3 Q84 16 84 36 Q84 42 84.5 48.5 Q85 55 86 62 L133 438 L44 453 L46 481 Q78 489 106.5 493 Q135 497 156 497 Z M233 639 Q250 639 260 630.5 Q270 622 270 607 Q270 588 257 576 Q244 564 224 564 Q210 564 201.5 573 Q193 582 193 597 Q193 614 206 626.5 Q219 639 233 639 Z M58 639 Q95 639 95 607 Q95 588 83 576 Q71 564 51 564 Q36 564 26.5 573 Q17 582 17 597 Q17 614 30.5 626.5 Q44 639 58 639 Z " />
<glyph glyph-name="upsilondieresis" unicode="&#x3cb;" horiz-adv-x="515" d="M437 504 Q455 504 464.5 494.5 Q474 485 474 459 Q474 415 466 363.5 Q458 312 442 260 Q426 208 402 159.5 Q378 111 346.5 74 Q315 37 276 14.5 Q237 -8 191 -8 Q161 -8 142 -0.5 Q123 7 112 20 Q101 33 97 51.5 Q93 70 93 91 Q93 101 94.5 120 Q96 139 99.5 177 Q103 215 110 278 Q117 341 128 438 L29 453 L31 481 Q63 489 93.5 493 Q124 497 151 497 Q168 497 177 492 Q186 487 186 473 Q186 465 183 438 Q180 411 176 373.5 Q172 336 167 293 Q162 250 158 211 Q154 172 151 141.5 Q148 111 148 99 Q148 69 159 54 Q170 39 202 39 Q231 39 258 56.5 Q285 74 308.5 103.5 Q332 133 352 173 Q372 213 386.5 258.5 Q401 304 409.5 351.5 Q418 399 420 445 L348 424 L339 446 Q367 475 393.5 489.5 Q420 504 437 504 Z M393 639 Q410 639 420 630.5 Q430 622 430 607 Q430 588 417 576 Q404 564 384 564 Q370 564 361.5 573 Q353 582 353 597 Q353 614 366 626.5 Q379 639 393 639 Z M218 639 Q255 639 255 607 Q255 588 243 576 Q231 564 211 564 Q196 564 186.5 573 Q177 582 177 597 Q177 614 190.5 626.5 Q204 639 218 639 Z " />
<glyph glyph-name="etatonos" unicode="&#x3ae;" horiz-adv-x="540" d="M365 496 Q417 496 436.5 468 Q456 440 456 397 Q456 387 452.5 350.5 Q449 314 443 255 Q437 196 428 116.5 Q419 37 408 -59 Q429 -57 449.5 -51 Q470 -45 492 -32 L507 -52 Q444 -118 395 -118 Q372 -118 362.5 -106.5 Q353 -95 353 -73 Q353 -67 353.5 -60.5 Q354 -54 355 -46 Q368 62 376.5 141 Q385 220 390.5 272.5 Q396 325 398.5 353 Q401 381 401 389 Q401 415 390 432 Q379 449 354 449 Q333 449 307.5 436 Q282 423 255.5 394 Q229 365 203 318 Q177 271 155 203 L127 0 L73 0 Q81 58 88.5 117.5 Q96 177 103.5 234 Q111 291 117 343 Q123 395 128 438 L29 453 L31 481 Q63 489 94 493 Q125 497 152 497 Q169 497 178 492 Q187 487 187 473 Q187 451 181.5 414 Q176 377 169 329 L173 329 Q195 377 222 409.5 Q249 442 275 461 Q301 480 325 488 Q349 496 365 496 Z M227 557 L354 715 L396 675 L252 536 L227 557 Z " />
<glyph glyph-name="iotatonos" unicode="&#x3af;" horiz-adv-x="263" d="M156 497 Q175 497 183 492 Q191 487 191 473 L138 49 Q159 51 180 57 Q201 63 223 76 L238 56 Q207 23 178 6.5 Q149 -10 126 -10 Q101 -10 92.5 3 Q84 16 84 36 Q84 42 84.5 48.5 Q85 55 86 62 L133 438 L44 453 L46 481 Q78 489 106.5 493 Q135 497 156 497 Z M105 557 L232 715 L274 675 L130 536 L105 557 Z " />
<glyph glyph-name="upsilondieresistonos" unicode="&#x3b0;" horiz-adv-x="515" d="M437 504 Q455 504 464.5 494.5 Q474 485 474 459 Q474 415 466 363.5 Q458 312 442 260 Q426 208 402 159.5 Q378 111 346.5 74 Q315 37 276 14.5 Q237 -8 191 -8 Q161 -8 142 -0.5 Q123 7 112 20 Q101 33 97 51.5 Q93 70 93 91 Q93 101 94.5 120 Q96 139 99.5 177 Q103 215 110 278 Q117 341 128 438 L29 453 L31 481 Q63 489 93.5 493 Q124 497 151 497 Q168 497 177 492 Q186 487 186 473 Q186 465 183 438 Q180 411 176 373.5 Q172 336 167 293 Q162 250 158 211 Q154 172 151 141.5 Q148 111 148 99 Q148 69 159 54 Q170 39 202 39 Q231 39 258 56.5 Q285 74 308.5 103.5 Q332 133 352 173 Q372 213 386.5 258.5 Q401 304 409.5 351.5 Q418 399 420 445 L348 424 L339 446 Q367 475 393.5 489.5 Q420 504 437 504 Z M246 552 L342 729 L393 700 L277 538 L246 552 Z M403 639 Q417 639 427 630.5 Q437 622 437 607 Q437 588 423 576 Q409 564 391 564 Q377 564 368.5 573 Q360 582 360 597 Q360 614 374.5 626.5 Q389 639 403 639 Z M206 639 Q223 639 233 630.5 Q243 622 243 607 Q243 588 230 576 Q217 564 199 564 Q183 564 173.5 573.5 Q164 583 164 597 Q164 614 178 626.5 Q192 639 206 639 Z " />
<glyph glyph-name="upsilontonos" unicode="&#x3cd;" horiz-adv-x="515" d="M437 504 Q455 504 464.5 494.5 Q474 485 474 459 Q474 415 466 363.5 Q458 312 442 260 Q426 208 402 159.5 Q378 111 346.5 74 Q315 37 276 14.5 Q237 -8 191 -8 Q161 -8 142 -0.5 Q123 7 112 20 Q101 33 97 51.5 Q93 70 93 91 Q93 101 94.5 120 Q96 139 99.5 177 Q103 215 110 278 Q117 341 128 438 L29 453 L31 481 Q63 489 93.5 493 Q124 497 151 497 Q168 497 177 492 Q186 487 186 473 Q186 465 183 438 Q180 411 176 373.5 Q172 336 167 293 Q162 250 158 211 Q154 172 151 141.5 Q148 111 148 99 Q148 69 159 54 Q170 39 202 39 Q231 39 258 56.5 Q285 74 308.5 103.5 Q332 133 352 173 Q372 213 386.5 258.5 Q401 304 409.5 351.5 Q418 399 420 445 L348 424 L339 446 Q367 475 393.5 489.5 Q420 504 437 504 Z M263 557 L390 715 L432 675 L288 536 L263 557 Z " />
<glyph glyph-name="omegatonos" unicode="&#x3ce;" horiz-adv-x="689" d="M441 -6 Q393 -6 364 15.5 Q335 37 328 72 L325 72 Q305 37 270 15.5 Q235 -6 190 -6 Q144 -6 115 9 Q86 24 69.5 50 Q53 76 46.5 110 Q40 144 40 182 Q40 229 49 278 Q58 327 78.5 370 Q99 413 132.5 446 Q166 479 216 494 L226 456 Q187 437 161 405.5 Q135 374 119.5 336.5 Q104 299 98 258 Q92 217 92 179 Q92 152 96.5 127.5 Q101 103 113 84.5 Q125 66 145.5 54.5 Q166 43 198 43 Q225 43 245.5 52.5 Q266 62 280 77 Q294 92 302 111.5 Q310 131 312 151 L335 337 L388 337 L366 151 Q366 147 365.5 143.5 Q365 140 365 136 Q365 118 369.5 101 Q374 84 383.5 71.5 Q393 59 408 51 Q423 43 445 43 Q482 43 510.5 61.5 Q539 80 558.5 113 Q578 146 588.5 192 Q599 238 599 294 Q599 344 582 385.5 Q565 427 517 456 L537 494 Q570 480 591.5 459.5 Q613 439 626 412.5 Q639 386 644 355.5 Q649 325 649 292 Q649 238 637 185 Q625 132 599.5 89.5 Q574 47 534.5 20.5 Q495 -6 441 -6 Z M339 557 L466 715 L508 675 L364 536 L339 557 Z " />
<glyph glyph-name="alphatonos" unicode="&#x3ac;" horiz-adv-x="516" d="M239 557 L366 715 L408 675 L264 536 L239 557 Z M283 493 Q310 493 338.5 486.5 Q367 480 399 469 L425 495 L450 493 Q441 435 432 373 Q423 311 414.5 252 Q406 193 400 140.5 Q394 88 391 49 Q412 51 435.5 60 Q459 69 481 82 L496 62 Q482 48 466.5 35 Q451 22 435 12 Q419 2 404.5 -4 Q390 -10 379 -10 Q364 -10 354.5 -3.5 Q345 3 340.5 13.5 Q336 24 335.5 38 Q335 52 337 67 Q339 90 342.5 112.5 Q346 135 351 159 L347 159 Q326 109 302 76.5 Q278 44 254 25.5 Q230 7 206 -0.5 Q182 -8 161 -8 Q107 -8 73.5 33.5 Q40 75 40 162 Q40 229 55.5 289 Q71 349 101.5 394.5 Q132 440 177.5 466.5 Q223 493 283 493 Z M176 39 Q197 39 220 51 Q243 63 267.5 91.5 Q292 120 317 167.5 Q342 215 365 285 L387 423 Q354 437 326 441.5 Q298 446 278 446 Q224 446 189 417.5 Q154 389 133 347 Q112 305 104 256.5 Q96 208 96 169 Q96 103 118 71 Q140 39 176 39 Z " />
<glyph glyph-name="epsilontonos" unicode="&#x3ad;" horiz-adv-x="415" d="M246 452 Q221 452 198.5 446 Q176 440 159 428 Q142 416 132 397.5 Q122 379 122 355 Q122 332 133 318.5 Q144 305 161 298.5 Q178 292 197.5 290.5 Q217 289 235 289 L295 289 L290 245 L229 245 Q211 245 187 240 Q163 235 141.5 222 Q120 209 105 186.5 Q90 164 90 129 Q90 81 125.5 60 Q161 39 215 39 Q255 39 287.5 47 Q320 55 361 72 L376 38 Q346 21 299.5 8 Q253 -5 207 -5 Q175 -5 144 0.5 Q113 6 89 20.5 Q65 35 50 59 Q35 83 35 120 Q35 151 44.5 175.5 Q54 200 69 217.5 Q84 235 102.5 246 Q121 257 140 262 L142 265 Q115 273 92 296 Q69 319 69 355 Q69 392 84 418.5 Q99 445 124 462 Q149 479 182 487.5 Q215 496 250 496 Q282 497 314 491.5 Q346 486 373 476 Q387 470 394 462.5 Q401 455 399 439 Q399 434 396.5 422.5 Q394 411 390 396.5 Q386 382 380.5 366.5 Q375 351 370 338 L342 339 L345 438 Q319 446 294 449 Q269 452 246 452 Z M209 557 L336 715 L378 675 L234 536 L209 557 Z " />
<glyph glyph-name="OE" unicode="&#x152;" horiz-adv-x="753" d="M373 693 Q418 693 456 682 L765 682 L749 548 L703 548 L714 637 L453 637 L421 382 L680 388 L674 334 L416 338 L380 46 L662 46 L673 135 L722 135 L706 0 L362 0 Q347 -3 331.5 -5 Q316 -7 299 -7 Q234 -7 188.5 11 Q143 29 114.5 62.5 Q86 96 73 144 Q60 192 60 253 Q60 331 76.5 409.5 Q93 488 130.5 551 Q168 614 227.5 653.5 Q287 693 373 693 Z M299 40 Q306 40 312 40 Q318 40 325 41 L399 644 Q393 645 387 645.5 Q381 646 374 646 Q299 646 249.5 609.5 Q200 573 170 516 Q140 459 127.5 389 Q115 319 115 252 Q115 146 158.5 93 Q202 40 299 40 Z " />
<glyph glyph-name="paragraph" unicode="&#xb6;" horiz-adv-x="473" d="M331 -188 L290 -188 L393 645 L324 645 L222 -188 L104 -188 L110 -144 L185 -144 L244 339 L231 339 Q195 339 165.5 352 Q136 365 116 387.5 Q96 410 86 441.5 Q76 473 79 511 Q82 550 98.5 582.5 Q115 615 141 638.5 Q167 662 200 675 Q233 688 269 688 L504 688 L499 645 L434 645 L331 -188 Z " />
<glyph glyph-name="oe" unicode="&#x153;" horiz-adv-x="778" d="M536 -6 Q469 -6 435 23.5 Q401 53 387 98 Q361 54 317 23.5 Q273 -7 206 -7 Q156 -7 124 7.5 Q92 22 73 47.5 Q54 73 47 107 Q40 141 40 179 Q40 231 52 287 Q64 343 91 389.5 Q118 436 162 466.5 Q206 497 271 497 Q338 497 374.5 466.5 Q411 436 426 388 Q454 436 501.5 467 Q549 498 624 498 Q657 498 681 488 Q705 478 720.5 462 Q736 446 743 425 Q750 404 750 382 Q750 332 724 298 Q698 264 654.5 242.5 Q611 221 553 211 Q495 201 432 200 Q431 194 431 187 Q431 180 431 173 Q431 150 435.5 126 Q440 102 452.5 82.5 Q465 63 487 50.5 Q509 38 545 38 Q583 38 619 47.5 Q655 57 693 74 L708 40 Q680 22 633.5 8 Q587 -6 536 -6 Z M270 450 Q234 450 206.5 436 Q179 422 159.5 399 Q140 376 127.5 346 Q115 316 107.5 285 Q100 254 97 223.5 Q94 193 94 168 Q94 143 99.5 119.5 Q105 96 118.5 78 Q132 60 155 49 Q178 38 213 38 Q266 38 299.5 67 Q333 96 351.5 137.5 Q370 179 376.5 224 Q383 269 383 302 Q383 330 378 357 Q373 384 360 404.5 Q347 425 325.5 437.5 Q304 450 270 450 Z M437 241 Q561 246 631 279.5 Q701 313 701 376 Q701 409 681 430 Q661 451 619 451 Q537 451 492.5 393.5 Q448 336 437 241 Z " />
<glyph glyph-name="ae" unicode="&#xe6;" horiz-adv-x="730" d="M488 -6 Q425 -6 391 19 Q357 44 343 84 Q281 28 228 9 Q175 -10 131 -10 Q98 -10 77 0.5 Q56 11 44 27.5 Q32 44 27.5 64 Q23 84 23 103 Q23 139 36.5 169 Q50 199 85.5 221 Q121 243 181.5 255 Q242 267 336 267 Q338 286 341.5 310 Q345 334 345 348 Q345 407 322 428 Q299 449 246 449 Q234 449 216 446.5 Q198 444 178 440 Q158 436 137 430.5 Q116 425 97 418 L84 456 Q126 475 169.5 485 Q213 495 256 495 Q272 495 292 492.5 Q312 490 331 481 Q350 472 365.5 453.5 Q381 435 389 404 Q417 445 462 471.5 Q507 498 576 498 Q609 498 632.5 488 Q656 478 671 462 Q686 446 693 425 Q700 404 700 382 Q700 335 673.5 305.5 Q647 276 603 259 Q559 242 502 236 Q445 230 383 229 Q382 218 381.5 205.5 Q381 193 381 180 Q381 154 385.5 128.5 Q390 103 402.5 83 Q415 63 437.5 50.5 Q460 38 497 38 Q535 38 571 47.5 Q607 57 645 74 L660 40 Q632 22 585.5 8 Q539 -6 488 -6 Z M81 111 Q81 80 96.5 59 Q112 38 152 38 Q167 38 187 41 Q207 44 230.5 52.5 Q254 61 280 77 Q306 93 334 119 Q331 134 330 149.5 Q329 165 329 182 Q329 193 329 204.5 Q329 216 331 230 Q248 228 199 217 Q150 206 123.5 189 Q97 172 89 151.5 Q81 131 81 111 Z M569 451 Q527 451 495 436 Q463 421 440 396 Q417 371 403.5 337 Q390 303 386 266 Q510 268 580.5 292.5 Q651 317 651 376 Q651 409 631 430 Q611 451 569 451 Z " />
<glyph glyph-name="AE" unicode="&#xc6;" horiz-adv-x="891" d="M483 46 L490 209 L230 209 L125 46 L202 46 L201 0 L4 0 L5 46 L64 46 L479 682 L851 682 L846 548 L800 548 L804 637 L562 637 L550 382 L803 388 L802 334 L550 338 L538 46 L807 46 L811 135 L860 135 L855 0 L418 0 L419 46 L483 46 Z M262 259 L492 259 L506 631 L500 631 L262 259 Z " />
<glyph glyph-name="numbersign" unicode="&#x23;" horiz-adv-x="493" d="M305 194 L148 194 L86 0 L47 0 L110 194 L37 194 L52 231 L122 231 L184 417 L107 417 L122 454 L196 454 L253 624 L292 624 L235 454 L392 454 L449 624 L488 624 L431 454 L497 454 L482 417 L419 417 L357 231 L427 231 L411 194 L344 194 L282 0 L243 0 L305 194 Z M161 231 L318 231 L380 417 L223 417 L161 231 Z " />
<glyph glyph-name="fj" unicode="&#xe1f8;" horiz-adv-x="489" d="M401 84 Q395 29 383.5 -20 Q372 -69 350.5 -108 Q329 -147 295.5 -175 Q262 -203 212 -217 L203 -186 Q244 -168 270 -140.5 Q296 -113 311.5 -79 Q327 -45 334.5 -7 Q342 31 346 70 L386 448 L165 448 L125 120 Q117 61 108.5 1.5 Q100 -58 81 -105.5 Q62 -153 28.5 -182.5 Q-5 -212 -62 -212 Q-79 -212 -100.5 -209 Q-122 -206 -144 -200 L-132 -162 Q-110 -167 -95 -168 Q-80 -169 -66 -169 Q-13 -169 15.5 -126 Q44 -83 58 12 Q71 117 80 190.5 Q89 264 95 312 Q101 360 104.5 387 Q108 414 109.5 427 Q111 440 111.5 443.5 Q112 447 112 448 L32 448 L35 474 L117 492 L129 576 Q135 620 153 648.5 Q171 677 196 693.5 Q221 710 251.5 716.5 Q282 723 314 723 Q382 723 436 708 L427 667 Q398 672 368.5 675.5 Q339 679 313 679 Q249 679 218.5 651.5 Q188 624 180 556 L171 487 L290 487 Q312 487 352 491 Q392 495 433 503 L447 496 L401 84 Z " />
<glyph glyph-name="ffj" unicode="&#xe1f9;" horiz-adv-x="758" d="M672 127 Q666 72 654.5 23 Q643 -26 621.5 -65 Q600 -104 566.5 -132 Q533 -160 483 -174 L474 -143 Q515 -125 541 -97.5 Q567 -70 582.5 -36 Q598 -2 605.5 36 Q613 74 617 113 L655 448 L440 448 L404 139 Q396 80 387.5 20.5 Q379 -39 360 -86.5 Q341 -134 307.5 -163.5 Q274 -193 217 -193 Q200 -193 178.5 -190 Q157 -187 135 -181 L147 -143 Q169 -148 184 -149 Q199 -150 213 -150 Q266 -150 294.5 -107 Q323 -64 337 31 Q350 136 359 208 Q368 280 373.5 326 Q379 372 381.5 396.5 Q384 421 385.5 432 Q387 443 387 445 Q387 447 387 448 L172 448 L132 120 Q124 61 115.5 1.5 Q107 -58 88 -105.5 Q69 -153 35.5 -182.5 Q2 -212 -55 -212 Q-72 -212 -93.5 -209 Q-115 -206 -137 -200 L-125 -162 Q-103 -167 -88 -168 Q-73 -169 -59 -169 Q-6 -169 22.5 -126 Q51 -83 65 12 Q78 117 87 190.5 Q96 264 102 312 Q108 360 111.5 387 Q115 414 116.5 427 Q118 440 118.5 443.5 Q119 447 119 448 L39 448 L42 474 L123 492 L126 516 Q132 562 145.5 599 Q159 636 183.5 661.5 Q208 687 245.5 700.5 Q283 714 337 714 Q369 714 399.5 708 Q430 702 453 697 Q480 723 516.5 733 Q553 743 593 743 Q626 743 657 738.5 Q688 734 715 728 L706 687 Q677 692 647.5 696 Q618 700 592 700 Q560 700 537 694 Q514 688 498 673.5 Q482 659 472.5 635 Q463 611 459 576 L446 487 L559 487 Q581 487 621 491 Q661 495 702 503 L716 496 L672 127 Z M408 596 Q413 632 424 656 Q412 658 398.5 659.5 Q385 661 372.5 662.5 Q360 664 350 665 Q340 666 335 666 Q306 666 280.5 662 Q255 658 235 643.5 Q215 629 201 600.5 Q187 572 182 523 L178 487 L393 487 L408 596 Z " />
<glyph glyph-name="ff" unicode="&#xfb00;" horiz-adv-x="579" d="M444 448 L406 136 Q398 77 389.5 17.5 Q381 -42 362 -89.5 Q343 -137 309.5 -166.5 Q276 -196 219 -196 Q202 -196 180.5 -193 Q159 -190 137 -184 L149 -146 Q171 -151 186 -152 Q201 -153 215 -153 Q268 -153 297.5 -110 Q327 -67 341 28 L393 448 L170 448 L130 120 Q122 61 113.5 1.5 Q105 -58 86 -105.5 Q67 -153 33.5 -182.5 Q0 -212 -57 -212 Q-74 -212 -95.5 -209 Q-117 -206 -139 -200 L-127 -162 Q-105 -167 -90 -168 Q-75 -169 -61 -169 Q-8 -169 21.5 -126 Q51 -83 65 12 Q78 117 87 190.5 Q96 264 102 312 Q108 360 111.5 387 Q115 414 116.5 427 Q118 440 118.5 443.5 Q119 447 119 448 L37 448 L40 474 L126 492 L134 547 Q141 594 159 626 Q177 658 203.5 677.5 Q230 697 264 705 Q298 713 337 713 Q364 713 395.5 708.5 Q427 704 458 694 Q478 715 504.5 727 Q531 739 569 739 Q586 739 608.5 736 Q631 733 653 727 L642 684 Q625 689 606 690.5 Q587 692 573 692 Q550 692 530.5 684.5 Q511 677 496 658.5 Q481 640 470.5 608.5 Q460 577 454 528 L449 487 L584 487 L580 448 L444 448 Z M402 524 Q407 560 412.5 593 Q418 626 431 652 Q407 658 379 661.5 Q351 665 335 665 Q295 665 267.5 657.5 Q240 650 222.5 633.5 Q205 617 195.5 591.5 Q186 566 182 531 L176 487 L397 487 L402 524 Z " />
<glyph glyph-name="fi" unicode="&#xfb01;" horiz-adv-x="498" d="M290 487 Q312 487 351.5 491 Q391 495 432 503 L446 496 L445 496 L392 49 Q413 51 434.5 57 Q456 63 478 76 L493 56 Q462 23 433 6.5 Q404 -10 381 -10 Q356 -10 347.5 3 Q339 16 339 36 Q339 42 339.5 48.5 Q340 55 341 62 L386 448 L165 448 L125 120 Q117 61 108.5 1.5 Q100 -58 81 -105.5 Q62 -153 28.5 -182.5 Q-5 -212 -62 -212 Q-79 -212 -100.5 -209 Q-122 -206 -144 -200 L-132 -162 Q-110 -167 -95 -168 Q-80 -169 -66 -169 Q-13 -169 15.5 -126 Q44 -83 58 12 Q71 117 80 190.5 Q89 264 95 312 Q101 360 104.5 387 Q108 414 109.5 427 Q111 440 111.5 443.5 Q112 447 112 448 L32 448 L35 474 L117 492 L129 576 Q135 620 152.5 648.5 Q170 677 195 693.5 Q220 710 251 716.5 Q282 723 314 723 Q347 723 378 718.5 Q409 714 436 708 L427 667 Q398 672 368.5 675 Q339 678 313 678 Q281 678 258 672 Q235 666 219 652 Q203 638 193.5 614.5 Q184 591 180 556 L171 487 L290 487 L290 487 Z " />
<glyph glyph-name="fl" unicode="&#xfb02;" horiz-adv-x="498" d="M393 49 Q414 51 435 57 Q456 63 478 76 L493 56 Q462 23 433 6.5 Q404 -10 381 -10 Q358 -10 348.5 0.5 Q339 11 339 35 Q339 41 339.5 47.5 Q340 54 341 62 L412 669 Q386 674 361 676 Q336 678 313 678 Q281 678 258 672 Q235 666 219 652 Q203 638 193.5 614.5 Q184 591 180 556 L171 487 L319 487 L313 448 L165 448 L125 120 Q117 61 108.5 1.5 Q100 -58 81 -105.5 Q62 -153 28.5 -182.5 Q-5 -212 -62 -212 Q-79 -212 -100.5 -209 Q-122 -206 -144 -200 L-132 -162 Q-110 -167 -95 -168 Q-80 -169 -66 -169 Q-13 -169 15.5 -126 Q44 -83 58 12 Q71 117 80 190.5 Q89 264 95 312 Q101 360 104.5 387 Q108 414 109.5 427 Q111 440 111.5 443.5 Q112 447 112 448 L32 448 L35 474 L117 492 L129 576 Q135 620 152.5 648.5 Q170 677 195 693.5 Q220 710 251 716.5 Q282 723 314 723 Q325 723 352 722 Q379 721 402 719 Q409 720 413 720.5 Q417 721 422.5 722 Q428 723 435.5 724.5 Q443 726 458 728 L472 721 L393 49 Z " />
<glyph glyph-name="ffi" unicode="&#xfb03;" horiz-adv-x="766" d="M715 496 L661 49 Q682 51 703.5 57 Q725 63 747 76 L762 56 Q731 23 702 6.5 Q673 -10 650 -10 Q625 -10 616.5 3 Q608 16 608 36 Q608 42 608.5 48.5 Q609 55 610 62 L655 448 L440 448 L403 134 Q395 75 386.5 15.5 Q378 -44 359 -91.5 Q340 -139 306.5 -168.5 Q273 -198 216 -198 Q199 -198 177.5 -195 Q156 -192 134 -186 L146 -148 Q168 -153 183 -154 Q198 -155 212 -155 Q265 -155 293.5 -112 Q322 -69 336 26 Q349 131 358 203.5 Q367 276 372.5 322.5 Q378 369 381 394 Q384 419 385.5 430.5 Q387 442 387 444.5 Q387 447 387 448 L172 448 L132 120 Q124 61 115.5 1.5 Q107 -58 88 -105.5 Q69 -153 35.5 -182.5 Q2 -212 -55 -212 Q-72 -212 -93.5 -209 Q-115 -206 -137 -200 L-125 -162 Q-103 -167 -88 -168 Q-73 -169 -59 -169 Q-6 -169 22.5 -126 Q51 -83 65 12 Q78 117 87 190.5 Q96 264 102 312 Q108 360 111.5 387 Q115 414 116.5 427 Q118 440 118.5 443.5 Q119 447 119 448 L39 448 L42 474 L123 492 L126 516 Q132 562 145.5 599 Q159 636 183.5 661.5 Q208 687 245.5 700.5 Q283 714 337 714 Q369 714 399.5 708 Q430 702 453 697 Q480 723 516.5 733 Q553 743 593 743 Q626 743 657 738.5 Q688 734 715 728 L706 687 Q677 692 647.5 695.5 Q618 699 592 699 Q560 699 537 693 Q514 687 498 672.5 Q482 658 472.5 634.5 Q463 611 459 576 L446 487 L559 487 Q581 487 621 491 Q661 495 702 503 L716 496 L715 496 Z M408 596 Q413 632 424 656 Q412 658 398.5 659.5 Q385 661 372.5 662.5 Q360 664 350 665 Q340 666 335 666 Q306 666 280.5 662 Q255 658 235 643.5 Q215 629 201 600.5 Q187 572 182 523 L178 487 L393 487 L408 596 Z " />
<glyph glyph-name="ffl" unicode="&#xfb04;" horiz-adv-x="766" d="M407 596 Q411 629 424 656 Q387 662 347 665.5 Q307 669 272.5 658.5 Q238 648 213.5 617 Q189 586 182 523 L178 487 L393 487 L407 596 Z M593 743 Q604 743 627.5 742 Q651 741 674 739 Q681 740 685 740.5 Q689 741 694.5 742 Q700 743 707.5 744.5 Q715 746 730 748 L744 741 L660 49 Q681 51 702 57 Q723 63 745 76 L760 56 Q729 23 700 6.5 Q671 -10 648 -10 Q625 -10 615.5 0.5 Q606 11 606 35 Q606 41 606.5 47.5 Q607 54 608 62 L682 691 Q656 696 635.5 697.5 Q615 699 592 699 Q560 699 536.5 693 Q513 687 497 672.5 Q481 658 471.5 634.5 Q462 611 458 576 L446 487 L594 487 L588 448 L440 448 L404 132 Q396 73 387.5 13.5 Q379 -46 360 -93.5 Q341 -141 307.5 -170.5 Q274 -200 217 -200 Q200 -200 178.5 -197 Q157 -194 135 -188 L147 -149 Q169 -154 184 -155.5 Q199 -157 213 -157 Q266 -157 294.5 -114 Q323 -71 337 24 Q350 129 359 201.5 Q368 274 373.5 320.5 Q379 367 381.5 392.5 Q384 418 385.5 430 Q387 442 387 444.5 Q387 447 387 448 L172 448 L132 120 Q124 61 115.5 1.5 Q107 -58 88 -105.5 Q69 -153 35.5 -182.5 Q2 -212 -55 -212 Q-72 -212 -93.5 -209 Q-115 -206 -137 -200 L-125 -162 Q-103 -167 -88 -168 Q-73 -169 -59 -169 Q-6 -169 22.5 -126 Q51 -83 65 12 Q78 117 87 190.5 Q96 264 102 312 Q108 360 111.5 387 Q115 414 116.5 427 Q118 440 118.5 443.5 Q119 447 119 448 L39 448 L42 474 L123 492 L126 516 Q132 562 145.5 599 Q159 636 183.5 661.5 Q208 687 245.5 700.5 Q283 714 337 714 Q369 714 397.5 709.5 Q426 705 453 697 Q480 723 516.5 733 Q553 743 593 743 Z " />
<glyph glyph-name="ft" unicode="&#xfb05;" horiz-adv-x="605" d="M401 117 Q399 100 400 86.5 Q401 73 406.5 63.5 Q412 54 424 48.5 Q436 43 456 43 Q472 43 497 46.5 Q522 50 551 59 L562 23 Q536 11 504 3.5 Q472 -4 443 -4 Q419 -4 399.5 1.5 Q380 7 367 19.5 Q354 32 348 53 Q342 74 346 104 L389 448 L165 448 L125 120 Q117 61 108.5 1.5 Q100 -58 81 -105.5 Q62 -153 28.5 -182.5 Q-5 -212 -62 -212 Q-79 -212 -100.5 -209 Q-122 -206 -144 -200 L-132 -162 Q-110 -167 -95 -168 Q-80 -169 -66 -169 Q-13 -169 15.5 -126 Q44 -83 58 12 Q71 117 80 190.5 Q89 264 95 312 Q101 360 104.5 387 Q108 414 109.5 427 Q111 440 111.5 443.5 Q112 447 112 448 L32 448 L35 474 L116 492 L119 516 Q125 562 135.5 601.5 Q146 641 165.5 669.5 Q185 698 215 714.5 Q245 731 289 731 Q306 731 328.5 728 Q351 725 373 719 L362 676 Q345 681 326 682.5 Q307 684 293 684 Q270 684 250.5 677 Q231 670 216 652 Q201 634 190.5 603 Q180 572 175 523 L171 487 L393 487 L429 597 L461 605 L446 487 L590 487 L586 448 L442 448 L401 117 Z " />
<glyph glyph-name="afii10023" unicode="&#x401;" horiz-adv-x="524" d="M19 46 L83 46 L156 637 L96 637 L101 682 L536 682 L520 548 L474 548 L485 637 L211 637 L179 382 L451 388 L445 334 L174 338 L138 46 L433 46 L444 135 L493 135 L477 0 L14 0 L19 46 Z M428 727 Q414 727 405.5 736 Q397 745 397 759 Q397 776 409.5 789 Q422 802 437 802 Q454 802 464 793.5 Q474 785 474 770 Q474 751 461 739 Q448 727 428 727 Z M255 727 Q239 727 229.5 736.5 Q220 746 220 760 Q220 777 234 789.5 Q248 802 262 802 Q279 802 289 793.5 Q299 785 299 770 Q299 751 286 739 Q273 727 255 727 Z " />
<glyph glyph-name="afii10051" unicode="&#x402;" horiz-adv-x="695" d="M608 538 L561 538 L573 637 L343 637 L311 376 Q363 398 409.5 407.5 Q456 417 492 417 Q535 417 566 404 Q597 391 617.5 368.5 Q638 346 648 314.5 Q658 283 658 246 Q658 187 638.5 135.5 Q619 84 587.5 40.5 Q556 -3 516 -37.5 Q476 -72 436 -96 L420 -66 Q459 -39 492 -7 Q525 25 549 62 Q573 99 587 140.5 Q601 182 601 229 Q601 301 569.5 334 Q538 367 474 367 Q439 367 394.5 358 Q350 349 305 331 L270 46 L345 46 L340 0 L144 0 L149 46 L216 46 L289 637 L125 637 L113 538 L66 538 L83 682 L625 682 L608 538 Z " />
<glyph glyph-name="afii10053" unicode="&#x404;" horiz-adv-x="529" d="M491 23 Q474 17 452 11.5 Q430 6 405.5 2 Q381 -2 356 -4.5 Q331 -7 309 -7 Q181 -7 121 62.5 Q61 132 61 263 Q61 300 66 346 Q71 392 83.5 440 Q96 488 119 533.5 Q142 579 178 614.5 Q214 650 265 671.5 Q316 693 385 693 Q440 693 479.5 685 Q519 677 545 666 L528 522 L481 522 L494 629 Q473 636 443 640.5 Q413 645 381 645 Q328 645 286 626.5 Q244 608 212 573.5 Q180 539 158.5 490.5 Q137 442 127 383 L422 389 L416 334 L121 339 Q118 301 118 262 Q118 215 128.5 175 Q139 135 163 105.5 Q187 76 226 59 Q265 42 322 42 Q350 42 394 47 Q438 52 481 66 L491 23 Z " />
<glyph glyph-name="afii10054" unicode="&#x405;" horiz-adv-x="498" d="M76 168 L64 76 Q98 58 136.5 50.5 Q175 43 212 43 Q255 43 291.5 52.5 Q328 62 354.5 80.5 Q381 99 396 128 Q411 157 411 196 Q411 228 400 249 Q389 270 369.5 284.5 Q350 299 324 308 Q298 317 267 326 Q229 337 195.5 349 Q162 361 136.5 379.5 Q111 398 96.5 425 Q82 452 82 494 Q82 544 100.5 581.5 Q119 619 149 643.5 Q179 668 218.5 680.5 Q258 693 300 693 Q319 693 341 691 Q363 689 386.5 684.5 Q410 680 432.5 672.5 Q455 665 474 654 L458 529 L411 529 L423 624 Q390 637 361 641 Q332 645 300 645 Q268 645 238.5 636 Q209 627 186.5 609 Q164 591 150.5 563.5 Q137 536 137 499 Q137 472 149.5 452.5 Q162 433 181.5 419.5 Q201 406 225.5 396.5 Q250 387 275 379 Q309 368 343 357.5 Q377 347 404.5 329 Q432 311 449.5 281 Q467 251 467 202 Q467 145 445 105 Q423 65 386.5 40 Q350 15 304 4 Q258 -7 210 -7 Q158 -7 107 4.5 Q56 16 14 45 L29 168 L76 168 Z " />
<glyph glyph-name="afii10055" unicode="&#x406;" horiz-adv-x="311" d="M43 0 L48 46 L107 46 L180 637 L121 637 L126 683 L301 683 L296 637 L235 637 L162 46 L223 46 L218 0 L43 0 Z " />
<glyph glyph-name="afii10056" unicode="&#x407;" horiz-adv-x="311" d="M43 0 L48 46 L107 46 L180 637 L121 637 L126 683 L301 683 L296 637 L235 637 L162 46 L223 46 L218 0 L43 0 Z M313 818 Q330 818 340 809.5 Q350 801 350 786 Q350 767 337 755 Q324 743 304 743 Q290 743 281.5 752 Q273 761 273 776 Q273 793 286 805.5 Q299 818 313 818 Z M138 818 Q175 818 175 786 Q175 767 163 755 Q151 743 131 743 Q116 743 106.5 752 Q97 761 97 776 Q97 793 110.5 805.5 Q124 818 138 818 Z " />
<glyph glyph-name="afii10057" unicode="&#x408;" horiz-adv-x="311" d="M87 637 L92 683 L337 683 L332 637 L243 637 L178 122 Q170 61 154.5 13.5 Q139 -34 111 -69.5 Q83 -105 42 -130.5 Q1 -156 -56 -174 L-69 -134 Q-18 -113 15.5 -89.5 Q49 -66 71 -37.5 Q93 -9 104 26 Q115 61 121 106 L187 637 L87 637 Z " />
<glyph glyph-name="afii10058" unicode="&#x409;" horiz-adv-x="895" d="M281 636 L272 562 Q258 450 241 350 Q224 250 194 172 Q164 94 116 43 Q68 -8 -8 -20 L-17 21 Q40 38 78 77 Q116 116 142.5 180 Q169 244 186 335.5 Q203 427 218 550 L229 636 L145 636 L150 683 L613 683 L608 637 L539 637 L509 395 L667 395 Q718 395 753.5 380 Q789 365 811.5 340 Q834 315 844.5 283.5 Q855 252 855 219 Q855 165 836.5 124.5 Q818 84 788 56 Q758 28 719 14 Q680 0 638 0 L340 0 L345 46 L411 46 L484 637 L281 636 Z M503 349 L466 46 L641 46 Q674 46 703 56.5 Q732 67 754 88.5 Q776 110 789 142.5 Q802 175 802 219 Q802 253 790.5 278 Q779 303 759 318.5 Q739 334 712.5 341.5 Q686 349 656 349 L503 349 Z " />
<glyph glyph-name="afii10059" unicode="&#x40a;" horiz-adv-x="904" d="M620 683 L615 637 L546 637 L516 395 L674 395 Q725 395 760.5 380 Q796 365 818.5 340 Q841 315 851.5 283.5 Q862 252 862 219 Q862 165 843.5 124.5 Q825 84 795 56 Q765 28 726 14 Q687 0 645 0 L347 0 L352 46 L418 46 L455 348 L172 348 L135 46 L196 46 L191 0 L14 0 L19 46 L79 46 L152 637 L92 637 L97 682 L274 682 L269 637 L208 637 L178 393 L461 393 L491 637 L425 637 L430 683 L620 683 Z M510 349 L473 46 L648 46 Q681 46 710 56.5 Q739 67 761 88.5 Q783 110 796 142.5 Q809 175 809 219 Q809 253 797.5 278 Q786 303 766 318.5 Q746 334 719.5 341.5 Q693 349 663 349 L510 349 Z " />
<glyph glyph-name="afii10060" unicode="&#x40b;" horiz-adv-x="758" d="M634 46 L695 46 L690 0 L512 0 L517 46 L578 46 L603 248 Q611 316 580.5 341.5 Q550 367 480 367 Q438 367 391.5 356 Q345 345 310 329 L275 46 L344 46 L339 0 L151 0 L156 46 L221 46 L294 637 L129 637 L117 538 L70 538 L87 682 L630 682 L613 538 L566 538 L578 637 L348 637 L316 378 Q367 397 414 406.5 Q461 416 501 416 Q589 416 630 379 Q671 342 661 267 L634 46 Z " />
<glyph glyph-name="afii10145" unicode="&#x40f;" horiz-adv-x="644" d="M663 682 L658 637 L597 637 L524 46 L585 46 L580 0 L320 0 L299 -164 L253 -164 L274 0 L14 0 L19 46 L79 46 L152 637 L92 637 L97 682 L274 682 L269 637 L208 637 L135 46 L467 46 L540 637 L480 637 L485 682 L663 682 Z " />
<glyph glyph-name="afii10017" unicode="&#x410;" horiz-adv-x="617" d="M392 0 L397 46 L466 46 L441 189 L173 189 L112 46 L184 46 L179 0 L-6 0 L-1 46 L56 46 Q122 200 194 365 Q266 530 333 684 L402 684 L525 46 L578 46 L573 0 L392 0 Z M375 555 L362 629 L360 629 Q359 627 358 623.5 Q357 620 353.5 612 Q350 604 344.5 590 Q339 576 329 554 Q312 514 279.5 439.5 Q247 365 195 239 L432 239 L375 555 Z " />
<glyph glyph-name="afii10018" unicode="&#x411;" horiz-adv-x="565" d="M153 637 L94 637 L99 682 L519 682 L503 548 L456 548 L467 637 L208 637 L178 395 L336 395 Q387 395 422.5 380 Q458 365 480.5 340 Q503 315 513.5 283.5 Q524 252 524 219 Q524 165 505.5 124.5 Q487 84 457 56 Q427 28 388 14 Q349 0 307 0 L9 0 L14 46 L80 46 L153 637 Z M172 349 L135 46 L310 46 Q343 46 372 56.5 Q401 67 423 88.5 Q445 110 458 142.5 Q471 175 471 219 Q471 253 459.5 278 Q448 303 428 318.5 Q408 334 381.5 341.5 Q355 349 325 349 L172 349 Z " />
<glyph glyph-name="afii10019" unicode="&#x412;" horiz-adv-x="569" d="M377 683 Q466 683 507 641 Q548 599 548 533 Q548 508 542.5 483 Q537 458 523.5 435 Q510 412 488 392 Q466 372 433 357 Q461 349 480.5 333 Q500 317 511 296.5 Q522 276 527 253 Q532 230 532 208 Q532 155 513.5 116 Q495 77 465.5 51.5 Q436 26 399.5 13 Q363 0 327 0 L14 0 L19 47 L85 47 L158 637 L96 637 L101 683 L377 683 Z M175 331 L140 47 L311 47 Q354 47 385 59.5 Q416 72 436 94 Q456 116 465.5 145.5 Q475 175 475 210 Q475 234 467 256 Q459 278 443.5 294.5 Q428 311 403.5 321 Q379 331 346 331 L175 331 Z M213 637 L181 378 L333 378 Q371 378 401 389 Q431 400 451.5 420 Q472 440 483 467.5 Q494 495 494 527 Q494 575 464 606 Q434 637 365 637 L213 637 Z " />
<glyph glyph-name="afii10020" unicode="&#x413;" horiz-adv-x="498" d="M227 0 L14 0 L19 46 L83 46 L156 637 L96 637 L101 682 L536 682 L520 548 L474 548 L485 637 L211 637 L138 46 L232 46 L227 0 Z " />
<glyph glyph-name="afii10021" unicode="&#x414;" horiz-adv-x="657" d="M31 -162 L-16 -162 L9 46 L60 46 Q95 74 124.5 129.5 Q154 185 177.5 258 Q201 331 218.5 416 Q236 501 247 587 L253 637 L189 637 L194 682 L660 682 L655 637 L594 637 L521 46 L585 46 L560 -162 L514 -162 L534 0 L51 0 L31 -162 Z M467 46 L540 637 L302 637 L295 586 Q283 487 267.5 406 Q252 325 231 259 Q210 193 183.5 140.5 Q157 88 123 46 L467 46 Z " />
<glyph glyph-name="afii10022" unicode="&#x415;" horiz-adv-x="524" d="M19 46 L83 46 L156 637 L96 637 L101 682 L536 682 L520 548 L474 548 L485 637 L211 637 L179 382 L451 388 L445 334 L174 338 L138 46 L433 46 L444 135 L493 135 L477 0 L14 0 L19 46 Z " />
<glyph glyph-name="afii10024" unicode="&#x416;" horiz-adv-x="840" d="M429 46 L490 46 L485 0 L310 0 L315 46 L374 46 L447 637 L388 637 L393 683 L568 683 L563 637 L502 637 L429 46 Z M154 626 L70 636 L70 672 Q87 679 106.5 684.5 Q126 690 143 690 Q161 691 173 683.5 Q185 676 194 661 L384 362 L382 347 L126 27 Q109 5 91 -2 Q73 -9 56 -8 Q40 -8 22.5 -4 Q5 0 -10 6 L-8 42 L80 52 L325 361 L154 626 Z M549 356 L720 52 L806 42 L808 6 Q791 -2 770.5 -5 Q750 -8 734 -8 Q715 -8 700.5 -0.5 Q686 7 675 24 L495 351 L496 366 L741 651 Q760 673 774.5 681.5 Q789 690 807 689 Q825 689 841.5 684.5 Q858 680 875 672 L869 636 L780 626 L549 356 Z " />
<glyph glyph-name="afii10025" unicode="&#x417;" horiz-adv-x="530" d="M137 506 L90 506 L107 650 Q145 669 198 681 Q251 693 308 693 Q351 693 387 685.5 Q423 678 449 661 Q475 644 490 617 Q505 590 505 552 Q505 486 469 443.5 Q433 401 369 381 Q420 365 451 327.5 Q482 290 482 227 Q482 168 458.5 125 Q435 82 396.5 53.5 Q358 25 309 11 Q260 -3 209 -3 Q152 -3 101.5 6 Q51 15 12 35 L32 77 Q84 58 126 53 Q168 48 197 48 Q249 48 291.5 59.5 Q334 71 364 93.5 Q394 116 410 149 Q426 182 426 225 Q426 255 413.5 279 Q401 303 378.5 319 Q356 335 325.5 343.5 Q295 352 259 352 L180 352 L185 398 L263 398 Q305 398 338.5 409 Q372 420 396 439 Q420 458 433 484 Q446 510 446 540 Q446 597 405.5 621 Q365 645 298 645 Q259 645 220.5 637 Q182 629 150 615 L137 506 Z " />
<glyph glyph-name="afii10026" unicode="&#x418;" horiz-adv-x="660" d="M485 682 L684 682 L679 637 L614 637 L541 46 L606 46 L601 0 L414 0 L419 46 L487 46 L547 532 L544 532 L140 76 L136 46 L201 46 L196 0 L12 0 L17 46 L83 46 L156 637 L93 637 L98 682 L282 682 L277 637 L209 637 L149 154 L151 154 L558 608 L562 637 L480 637 L485 682 Z " />
<glyph glyph-name="afii10028" unicode="&#x41a;" horiz-adv-x="567" d="M14 0 L19 46 L78 46 L151 637 L92 637 L97 683 L272 683 L267 637 L206 637 L133 46 L194 46 L189 0 L14 0 Z M260 356 L445 52 L533 42 L533 6 Q516 -2 495.5 -5 Q475 -8 459 -8 Q440 -8 425.5 -0.5 Q411 7 400 24 L206 351 L207 366 L452 651 Q471 673 485.5 681.5 Q500 690 518 689 Q536 689 552.5 684.5 Q569 680 586 672 L580 636 L491 626 L260 356 Z " />
<glyph glyph-name="afii10029" unicode="&#x41b;" horiz-adv-x="628" d="M378 0 L383 47 L442 47 L515 636 L281 636 L272 562 Q258 450 241 350 Q224 250 194 172 Q164 94 116 43 Q68 -8 -8 -20 L-17 21 Q40 38 78 77 Q116 116 142.5 180 Q169 244 186 335.5 Q203 427 218 550 L229 636 L145 636 L150 683 L637 683 L632 637 L571 637 L498 47 L559 47 L554 0 L378 0 Z " />
<glyph glyph-name="afii10030" unicode="&#x41c;" horiz-adv-x="800" d="M392 130 L463 260 L695 683 L819 683 L814 637 L754 637 L681 46 L741 46 L736 0 L560 0 L565 46 L627 46 L693 580 L691 580 L630 466 L409 67 L355 67 L229 474 L197 580 L195 580 L131 46 L194 46 L189 0 L14 0 L19 46 L78 46 L151 637 L92 637 L97 683 L217 683 L347 258 L386 130 L392 130 Z " />
<glyph glyph-name="afii10031" unicode="&#x41d;" horiz-adv-x="644" d="M402 0 L407 47 L467 47 L503 336 L171 336 L135 47 L196 47 L191 0 L14 0 L19 47 L79 47 L152 637 L92 637 L97 683 L274 683 L269 637 L208 637 L177 385 L509 385 L540 637 L480 637 L485 683 L663 683 L658 637 L597 637 L524 47 L585 47 L580 0 L402 0 Z " />
<glyph glyph-name="afii10032" unicode="&#x41e;" horiz-adv-x="629" d="M373 693 Q440 693 483.5 671 Q527 649 553 611.5 Q579 574 589.5 524.5 Q600 475 600 419 Q600 331 581 253.5 Q562 176 524 118 Q486 60 429.5 26.5 Q373 -7 299 -7 Q234 -7 188.5 11 Q143 29 114.5 62.5 Q86 96 73 144 Q60 192 60 253 Q60 331 76.5 409.5 Q93 488 130.5 551 Q168 614 227.5 653.5 Q287 693 373 693 Z M374 646 Q299 646 249.5 609.5 Q200 573 170 516 Q140 459 127.5 389 Q115 319 115 252 Q115 146 158.5 93 Q202 40 299 40 Q365 40 411.5 72 Q458 104 488 157.5 Q518 211 531.5 279 Q545 347 545 419 Q545 462 538 503 Q531 544 512 576 Q493 608 459.5 627 Q426 646 374 646 Z " />
<glyph glyph-name="afii10033" unicode="&#x41f;" horiz-adv-x="644" d="M402 0 L407 47 L467 47 L539 634 L207 634 L135 47 L196 47 L191 0 L14 0 L19 47 L79 47 L151 634 L91 634 L97 683 L663 683 L657 634 L596 634 L524 47 L585 47 L580 0 L402 0 Z " />
<glyph glyph-name="afii10034" unicode="&#x420;" horiz-adv-x="526" d="M14 0 L19 46 L80 46 L153 637 L92 637 L97 683 L359 683 Q396 683 428 673 Q460 663 483.5 642 Q507 621 520 589 Q533 557 533 513 Q533 479 522.5 439.5 Q512 400 487.5 366.5 Q463 333 421.5 310.5 Q380 288 318 288 L165 288 L135 46 L217 46 L212 0 L14 0 Z M318 334 Q343 334 371 342.5 Q399 351 422.5 371 Q446 391 461 424.5 Q476 458 476 509 Q476 574 443 605.5 Q410 637 356 637 L208 637 L171 334 L318 334 Z " />
<glyph glyph-name="afii10035" unicode="&#x421;" horiz-adv-x="529" d="M491 23 Q474 17 452 11.5 Q430 6 405.5 2 Q381 -2 356 -4.5 Q331 -7 309 -7 Q181 -7 121 62.5 Q61 132 61 263 Q61 300 66 346 Q71 392 83.5 440 Q96 488 119 533.5 Q142 579 178 614.5 Q214 650 265 671.5 Q316 693 385 693 Q440 693 479.5 685 Q519 677 545 666 L528 522 L481 522 L494 629 Q473 636 443 640.5 Q413 645 381 645 Q316 645 267 616.5 Q218 588 185 537.5 Q152 487 135 416.5 Q118 346 118 262 Q118 215 128.5 175 Q139 135 163 105.5 Q187 76 226 59 Q265 42 322 42 Q350 42 394 47 Q438 52 481 66 L491 23 Z " />
<glyph glyph-name="afii10036" unicode="&#x422;" horiz-adv-x="502" d="M529 538 L481 538 L493 637 L332 637 L259 46 L341 46 L336 0 L121 0 L126 46 L205 46 L278 637 L114 637 L102 538 L56 538 L73 683 L545 683 L529 538 Z " />
<glyph glyph-name="afii10037" unicode="&#x423;" horiz-adv-x="541" d="M74 683 L254 683 L249 637 L181 637 L297 239 L302 239 L478 637 L412 637 L417 683 L595 683 L590 637 L534 637 L293 93 Q270 39 242.5 14.5 Q215 -10 173 -10 Q165 -10 138.5 -9 Q112 -8 67 6 L81 46 Q104 41 124 37.5 Q144 34 161 34 Q187 34 207 50 Q227 66 245 108 L284 196 L258 196 L124 637 L69 637 L74 683 Z " />
<glyph glyph-name="afii10038" unicode="&#x424;" horiz-adv-x="741" d="M401 637 L332 637 L337 683 L531 683 L526 637 L457 637 L454 611 Q527 608 578 588.5 Q629 569 661 538 Q693 507 707.5 467.5 Q722 428 722 385 Q722 324 699 270.5 Q676 217 633.5 176.5 Q591 136 529 111 Q467 86 389 82 L384 47 L453 47 L448 0 L254 0 L259 47 L328 47 L333 82 Q192 88 123 146 Q54 204 54 303 Q54 356 73.5 409 Q93 462 134.5 505.5 Q176 549 241 577.5 Q306 606 398 611 L401 637 Z M392 570 Q313 566 258 542 Q203 518 168.5 481.5 Q134 445 118.5 399.5 Q103 354 103 307 Q103 219 163 174 Q223 129 338 124 L392 570 Z M394 124 Q461 128 513 149.5 Q565 171 600 205 Q635 239 653 284 Q671 329 671 379 Q671 412 661 445 Q651 478 625.5 505 Q600 532 557 549.5 Q514 567 448 570 L394 124 Z " />
<glyph glyph-name="afii10039" unicode="&#x425;" horiz-adv-x="586" d="M145 637 L87 637 L92 683 L278 683 L273 637 L205 637 L318 395 L492 637 L422 637 L427 683 L616 683 L611 637 L553 637 L343 351 L487 47 L548 47 L543 0 L348 0 L353 47 L428 47 L303 312 L117 47 L195 47 L190 0 L-6 0 L-1 47 L58 47 L279 356 L145 637 Z " />
<glyph glyph-name="afii10040" unicode="&#x426;" horiz-adv-x="644" d="M523 46 L583 46 L558 -162 L512 -162 L532 0 L13 0 L18 46 L78 46 L151 637 L91 637 L96 682 L273 682 L268 637 L207 637 L134 46 L466 46 L539 637 L479 637 L484 682 L662 682 L657 637 L596 637 L523 46 Z " />
<glyph glyph-name="afii10041" unicode="&#x427;" horiz-adv-x="602" d="M539 0 L363 0 L368 46 L427 46 L460 315 Q409 296 363.5 289 Q318 282 278 282 Q190 282 143 316.5 Q96 351 105 426 L131 636 L70 636 L75 682 L253 682 L248 636 L186 636 L162 445 Q158 411 165 389 Q172 367 189 354 Q206 341 233.5 336 Q261 331 297 331 Q340 331 385.5 339.5 Q431 348 466 364 L500 636 L441 636 L446 682 L622 682 L617 636 L554 636 L481 46 L544 46 L539 0 Z " />
<glyph glyph-name="afii10042" unicode="&#x428;" horiz-adv-x="878" d="M897 682 L892 637 L831 637 L758 46 L819 46 L814 0 L14 0 L19 46 L79 46 L152 637 L92 637 L97 682 L274 682 L269 637 L208 637 L135 46 L392 46 L465 637 L405 637 L410 682 L589 682 L584 637 L522 637 L449 46 L701 46 L774 637 L714 637 L719 682 L897 682 Z " />
<glyph glyph-name="afii10043" unicode="&#x429;" horiz-adv-x="878" d="M758 46 L817 46 L792 -162 L746 -162 L766 0 L14 0 L19 46 L79 46 L152 637 L92 637 L97 682 L274 682 L269 637 L208 637 L135 46 L392 46 L465 637 L405 637 L410 682 L589 682 L584 637 L522 637 L449 46 L701 46 L774 637 L714 637 L719 682 L897 682 L892 637 L831 637 L758 46 Z " />
<glyph glyph-name="afii10044" unicode="&#x42a;" horiz-adv-x="708" d="M114 637 L99 521 L53 521 L73 682 L418 682 L413 637 L352 637 L322 395 L480 395 Q531 395 566.5 380 Q602 365 624.5 340 Q647 315 657.5 283.5 Q668 252 668 219 Q668 165 649.5 124.5 Q631 84 601 56 Q571 28 532 14 Q493 0 451 0 L153 0 L158 46 L224 46 L296 637 L114 637 Z M316 349 L279 46 L454 46 Q487 46 516 56.5 Q545 67 567 88.5 Q589 110 602 142.5 Q615 175 615 219 Q615 253 603.5 278 Q592 303 572 318.5 Q552 334 525.5 341.5 Q499 349 469 349 L316 349 Z " />
<glyph glyph-name="afii10045" unicode="&#x42b;" horiz-adv-x="797" d="M553 0 L558 46 L617 46 L690 637 L631 637 L636 682 L812 682 L807 637 L746 637 L673 46 L734 46 L729 0 L553 0 Z M287 683 L282 637 L213 637 L183 395 L341 395 Q392 395 427.5 380 Q463 365 485.5 340 Q508 315 518.5 283.5 Q529 252 529 219 Q529 165 510.5 124.5 Q492 84 462 56 Q432 28 393 14 Q354 0 312 0 L14 0 L19 46 L85 46 L158 637 L92 637 L97 683 L287 683 Z M177 349 L140 46 L315 46 Q348 46 377 56.5 Q406 67 428 88.5 Q450 110 463 142.5 Q476 175 476 219 Q476 253 464.5 278 Q453 303 433 318.5 Q413 334 386.5 341.5 Q360 349 330 349 L177 349 Z " />
<glyph glyph-name="afii10046" unicode="&#x42c;" horiz-adv-x="574" d="M292 683 L287 637 L218 637 L188 395 L346 395 Q397 395 432.5 380 Q468 365 490.5 340 Q513 315 523.5 283.5 Q534 252 534 219 Q534 165 515.5 124.5 Q497 84 467 56 Q437 28 398 14 Q359 0 317 0 L19 0 L24 46 L90 46 L163 637 L97 637 L102 683 L292 683 Z M182 349 L145 46 L320 46 Q353 46 382 56.5 Q411 67 433 88.5 Q455 110 468 142.5 Q481 175 481 219 Q481 253 469.5 278 Q458 303 438 318.5 Q418 334 391.5 341.5 Q365 349 335 349 L182 349 Z " />
<glyph glyph-name="afii10047" unicode="&#x42d;" horiz-adv-x="530" d="M177 333 L184 387 L456 381 Q459 408 459 433 Q459 531 413.5 588 Q368 645 270 645 Q254 645 236.5 643.5 Q219 642 202 639.5 Q185 637 169.5 633.5 Q154 630 142 627 L129 520 L82 520 L100 664 Q130 675 175 684 Q220 693 275 693 Q345 693 391 671.5 Q437 650 464 613 Q491 576 501.5 528 Q512 480 512 427 Q512 335 492 256 Q472 177 430.5 118.5 Q389 60 326 26.5 Q263 -7 177 -7 Q133 -7 86 1 Q39 9 10 22 L29 66 Q48 59 68.5 54 Q89 49 109 46 Q129 43 147 41.5 Q165 40 179 40 Q247 40 296 65 Q345 90 378 131.5 Q411 173 428.5 226.5 Q446 280 451 337 L177 333 Z " />
<glyph glyph-name="afii10048" unicode="&#x42e;" horiz-adv-x="857" d="M608 693 Q671 693 713.5 671.5 Q756 650 782.5 613.5 Q809 577 820.5 527.5 Q832 478 832 422 Q832 332 813 254 Q794 176 757.5 118 Q721 60 666.5 26.5 Q612 -7 542 -7 Q480 -7 435.5 10.5 Q391 28 362.5 61.5 Q334 95 320.5 143 Q307 191 307 251 Q307 271 308 291.5 Q309 312 312 335 L171 336 L135 47 L196 47 L191 0 L14 0 L19 47 L79 47 L152 637 L92 637 L97 682 L274 682 L269 637 L208 637 L177 385 L319 385 Q330 444 350 499.5 Q370 555 404 598 Q438 641 488 667 Q538 693 608 693 Z M606 646 Q534 646 487 609 Q440 572 412 514 Q384 456 373 385.5 Q362 315 362 248 Q362 145 404 92.5 Q446 40 542 40 Q605 40 650 72 Q695 104 723.5 157.5 Q752 211 765 280 Q778 349 778 423 Q778 466 769.5 506 Q761 546 741.5 577 Q722 608 688.5 627 Q655 646 606 646 Z " />
<glyph glyph-name="afii10049" unicode="&#x42f;" horiz-adv-x="587" d="M312 0 L317 46 L388 46 L420 305 L275 305 L115 37 Q103 17 92.5 5 Q82 -7 57 -7 Q43 -7 21 -3.5 Q-1 0 -15 5 L-11 38 L59 47 L219 312 Q183 319 159 336 Q135 353 121 375.5 Q107 398 101.5 423 Q96 448 96 472 Q96 529 114.5 569.5 Q133 610 163.5 635 Q194 660 233 671.5 Q272 683 314 683 L583 683 L578 637 L517 637 L444 46 L509 46 L504 0 L312 0 Z M426 351 L461 637 L307 637 Q276 637 248 626.5 Q220 616 199 595 Q178 574 165.5 542 Q153 510 153 467 Q153 431 166 408 Q179 385 198.5 372.5 Q218 360 241.5 355.5 Q265 351 286 351 L426 351 Z " />
<glyph glyph-name="afii10065" unicode="&#x430;" horiz-adv-x="516" d="M283 493 Q310 493 338.5 486.5 Q367 480 399 469 L425 495 L450 493 Q441 435 432 373 Q423 311 414.5 252 Q406 193 400 140.5 Q394 88 391 49 Q412 51 435.5 60 Q459 69 481 82 L496 62 Q482 48 466.5 35 Q451 22 435 12 Q419 2 404.5 -4 Q390 -10 379 -10 Q364 -10 354.5 -3.5 Q345 3 340.5 13.5 Q336 24 335.5 38 Q335 52 337 67 Q339 90 342.5 112.5 Q346 135 351 159 L347 159 Q326 109 302 76.5 Q278 44 254 25.5 Q230 7 206 -0.5 Q182 -8 161 -8 Q107 -8 73.5 33.5 Q40 75 40 162 Q40 229 55.5 289 Q71 349 101.5 394.5 Q132 440 177.5 466.5 Q223 493 283 493 Z M176 39 Q197 39 220 51 Q243 63 267.5 91.5 Q292 120 317 167.5 Q342 215 365 285 L387 423 Q354 437 326 441.5 Q298 446 278 446 Q224 446 189 417.5 Q154 389 133 347 Q112 305 104 256.5 Q96 208 96 169 Q96 103 118 71 Q140 39 176 39 Z " />
<glyph glyph-name="afii10066" unicode="&#x431;" horiz-adv-x="476" d="M302 488 Q340 488 367 475 Q394 462 411.5 439 Q429 416 437.5 383 Q446 350 446 311 Q446 265 435 209.5 Q424 154 397 106 Q370 58 325 25.5 Q280 -7 212 -7 Q164 -7 131.5 7.5 Q99 22 79.5 46 Q60 70 52 101.5 Q44 133 44 167 Q44 192 46.5 223.5 Q49 255 53 289.5 Q57 324 63 358.5 Q69 393 75 424 Q85 471 98.5 514 Q112 557 132.5 593 Q153 629 180.5 655 Q208 681 246 694 Q263 700 286 703 Q309 706 335.5 708.5 Q362 711 389 714 Q416 717 442 722 L450 680 Q408 672 376 669 Q344 666 323 664 Q283 661 252.5 648.5 Q222 636 199.5 611 Q177 586 160.5 548 Q144 510 131 456 Q130 451 127 439.5 Q124 428 121 413.5 Q118 399 114.5 383.5 Q111 368 110 355 L113 353 Q134 394 158.5 420 Q183 446 208 461 Q233 476 257 482 Q281 488 302 488 Z M294 444 Q261 444 233 430.5 Q205 417 181.5 393 Q158 369 139 336.5 Q120 304 105 267 Q99 228 98 206.5 Q97 185 97 171 Q97 142 102 117.5 Q107 93 120.5 74 Q134 55 158 44.5 Q182 34 220 34 Q262 34 294 57 Q326 80 347.5 118.5 Q369 157 379.5 206 Q390 255 390 308 Q390 336 385 361 Q380 386 368.5 404.5 Q357 423 338.5 433.5 Q320 444 294 444 Z " />
<glyph glyph-name="afii10067" unicode="&#x432;" horiz-adv-x="460" d="M123 311 Q116 247 109 183.5 Q102 120 94 57 Q151 36 219 36 Q247 36 272.5 44 Q298 52 318 68 Q338 84 350 108.5 Q362 133 362 167 Q362 206 334 226 Q306 246 260 246 L192 246 Q193 257 194 268 Q195 279 197 290 L235 290 Q286 290 318 312 Q350 334 350 376 Q350 407 327.5 429 Q305 451 257 451 Q222 451 198 438.5 Q174 426 158 406 Q142 386 134 361 Q126 336 123 311 Z M71 310 Q75 350 89 384 Q103 418 126.5 443 Q150 468 182.5 482.5 Q215 497 256 497 Q293 497 320 487.5 Q347 478 365 462 Q383 446 392 425.5 Q401 405 401 383 Q401 308 332 277 L332 273 Q354 269 370.5 258 Q387 247 397 233 Q407 219 412 202.5 Q417 186 417 171 Q417 135 405 103 Q393 71 368.5 47 Q344 23 307.5 8.5 Q271 -6 223 -7 Q180 -7 131.5 0 Q83 7 44 24 Q42 26 41 27.5 Q40 29 38 31 L71 310 Z " />
<glyph glyph-name="afii10068" unicode="&#x433;" horiz-adv-x="388" d="M25 106 Q26 139 39.5 165 Q53 191 75.5 212 Q98 233 126.5 249 Q155 265 185 279 Q205 288 228.5 299.5 Q252 311 271.5 325.5 Q291 340 304 357 Q317 374 317 394 Q317 413 309 424.5 Q301 436 289 442.5 Q277 449 262 451.5 Q247 454 232 454 Q197 454 163 443 Q129 432 91 415 L74 451 Q107 472 150.5 485.5 Q194 499 242 499 Q268 499 291 493 Q314 487 331 475 Q348 463 358 445 Q368 427 368 403 Q368 374 355 350.5 Q342 327 319 306.5 Q296 286 262.5 267.5 Q229 249 189 231 Q144 211 110.5 181.5 Q77 152 77 108 Q77 68 106.5 52 Q136 36 178 36 Q218 36 257.5 48 Q297 60 334 79 L352 47 Q312 20 262.5 6.5 Q213 -7 171 -7 Q140 -7 113 -1 Q86 5 66.5 18.5 Q47 32 36 53.5 Q25 75 25 106 Z " />
<glyph glyph-name="afii10069" unicode="&#x434;" horiz-adv-x="491" d="M119 692 Q157 708 193.5 715 Q230 722 264 722 Q308 722 343.5 707.5 Q379 693 404.5 661 Q430 629 443.5 579 Q457 529 457 459 Q457 396 448.5 327 Q440 258 420 190 Q409 154 392 118.5 Q375 83 349 55 Q323 27 287.5 10 Q252 -7 205 -7 Q155 -7 123.5 8.5 Q92 24 73 50.5 Q54 77 47 111.5 Q40 146 40 184 Q40 232 54 285 Q68 338 97 383 Q126 428 170 457.5 Q214 487 274 487 Q312 487 343.5 478.5 Q375 470 406 455 Q406 457 407 457 Q406 505 399.5 545 Q393 585 377 614.5 Q361 644 333.5 660 Q306 676 264 676 Q238 676 208 672 Q178 668 131 653 L119 692 Z M277 442 Q231 442 197 419 Q163 396 140.5 358.5 Q118 321 107 272.5 Q96 224 96 173 Q96 147 101 122.5 Q106 98 118.5 78.5 Q131 59 153 47 Q175 35 209 35 Q263 35 298.5 69 Q334 103 356 157 Q378 211 389 277.5 Q400 344 404 409 Q371 427 339.5 434.5 Q308 442 277 442 Z " />
<glyph glyph-name="afii10070" unicode="&#x435;" horiz-adv-x="441" d="M199 -6 Q151 -6 120 9 Q89 24 71.5 49.5 Q54 75 47 109.5 Q40 144 40 182 Q40 228 50.5 283.5 Q61 339 89 386.5 Q117 434 165 466 Q213 498 287 498 Q320 498 343.5 488 Q367 478 382 462 Q397 446 404 425 Q411 404 411 382 Q411 332 385 299 Q359 266 315.5 245.5 Q272 225 215 214.5 Q158 204 95 200 Q94 194 94 187 Q94 180 94 173 Q94 150 98.5 126 Q103 102 115.5 82.5 Q128 63 150 50.5 Q172 38 208 38 Q246 38 282 47.5 Q318 57 356 74 L371 40 Q343 22 296.5 8 Q250 -6 199 -6 Z M99 244 Q224 250 290.5 281.5 Q357 313 357 376 Q357 409 339.5 430 Q322 451 280 451 Q202 451 156 395.5 Q110 340 99 244 Z " />
<glyph glyph-name="afii10072" unicode="&#x436;" horiz-adv-x="740" d="M376 0 L321 0 L380 438 L303 449 L305 476 Q331 484 358 490.5 Q385 497 411 497 Q439 497 439 466 Q438 457 436 442 Q434 427 431.5 408.5 Q429 390 426 368.5 Q423 347 420 325 L376 0 Z M670 498 Q697 498 713 484.5 Q729 471 730 448 L710 429 Q694 437 681.5 439 Q669 441 657 441 Q636 441 612.5 428 Q589 415 565 393 Q541 371 518 341.5 Q495 312 476 280 Q494 242 515.5 203 Q537 164 556.5 131 Q576 98 592 74.5 Q608 51 615 45 Q644 51 662.5 64 Q681 77 695 88 L711 70 Q678 22 652.5 6 Q627 -10 609 -10 Q591 -10 569.5 15.5 Q548 41 527 78 Q498 129 472 180.5 Q446 232 431 266 L432 278 Q454 320 482.5 359.5 Q511 399 542.5 430 Q574 461 606.5 479.5 Q639 498 670 498 Z M126 495 Q157 495 190.5 473 Q224 451 254 418 Q284 385 307 346.5 Q330 308 340 275 L337 263 Q314 229 276.5 176.5 Q239 124 197 73 Q159 27 134 7 Q109 -13 91 -13 Q73 -13 52 2.5 Q31 18 10 66 L30 84 Q43 73 58 60 Q73 47 100 41 Q109 47 130.5 70.5 Q152 94 180 127 Q208 160 239 199 Q270 238 297 276 Q286 304 267 332.5 Q248 361 224.5 384 Q201 407 174.5 422 Q148 437 123 437 Q111 437 98 435 Q85 433 68 425 L54 445 Q73 495 126 495 Z " />
<glyph glyph-name="afii10073" unicode="&#x437;" horiz-adv-x="413" d="M216 497 Q242 497 270 491.5 Q298 486 321 473 Q344 460 358.5 438.5 Q373 417 373 386 Q373 353 352 320 Q331 287 282 271 L282 268 Q318 259 342 231.5 Q366 204 366 161 Q366 118 347.5 86.5 Q329 55 299 34.5 Q269 14 230.5 4 Q192 -6 153 -6 Q112 -6 74.5 2.5 Q37 11 6 29 L23 63 Q53 49 87 43 Q121 37 156 37 Q186 37 214.5 44 Q243 51 265.5 66 Q288 81 301.5 104.5 Q315 128 315 161 Q315 185 304 201 Q293 217 276.5 226.5 Q260 236 240 240 Q220 244 203 244 L139 244 L146 285 L198 285 Q217 285 238.5 290.5 Q260 296 279 307 Q298 318 310.5 336 Q323 354 323 378 Q323 419 289.5 437.5 Q256 456 210 456 Q187 456 162 451.5 Q137 447 117 438 L95 332 L71 332 Q67 358 65.5 384.5 Q64 411 64 426 Q64 433 66 444.5 Q68 456 82 467.5 Q96 479 127 487.5 Q158 496 216 497 Z " />
<glyph glyph-name="afii10074" unicode="&#x438;" horiz-adv-x="539" d="M151 497 Q168 497 177 492 Q186 487 186 473 Q186 465 183 438 Q180 411 176 373.5 Q172 336 167 293 Q162 250 158 211 Q154 172 151 141.5 Q148 111 148 99 Q148 39 195 39 Q216 39 241.5 52 Q267 65 293.5 94 Q320 123 346 170 Q372 217 394 285 L423 488 L475 488 Q460 381 447 274 Q434 167 420 49 Q443 51 463.5 57.5 Q484 64 504 76 L519 56 Q456 -10 407 -10 Q384 -10 374.5 1.5 Q365 13 365 35 Q365 45 366.5 61 Q368 77 370 94.5 Q372 112 375 129 Q378 146 380 159 L376 159 Q354 111 327 78.5 Q300 46 274 27 Q248 8 224 0 Q200 -8 184 -8 Q132 -8 112.5 20 Q93 48 93 91 Q93 101 94.5 120 Q96 139 99.5 177 Q103 215 110 278 Q117 341 128 438 L29 453 L31 481 Q63 489 93.5 493 Q124 497 151 497 Z " />
<glyph glyph-name="afii10076" unicode="&#x43a;" horiz-adv-x="473" d="M115 0 L60 0 L119 438 L42 449 L44 476 Q70 484 97 490.5 Q124 497 150 497 Q178 497 178 466 Q178 457 176 442 Q174 427 171.5 408.5 Q169 390 165.5 368.5 Q162 347 159 325 L115 0 Z M419 498 Q446 498 462 484.5 Q478 471 479 448 L459 429 Q443 437 430.5 439 Q418 441 406 441 Q385 441 360 428 Q335 415 309.5 393 Q284 371 259 341.5 Q234 312 215 280 Q233 242 257.5 203 Q282 164 305.5 131 Q329 98 348 74.5 Q367 51 374 45 Q403 51 421.5 64 Q440 77 454 88 L470 70 Q437 22 411.5 6 Q386 -10 368 -10 Q350 -10 328 16.5 Q306 43 283 78 Q266 103 249 129 Q232 155 217 180 Q202 205 189.5 227 Q177 249 170 266 L171 278 Q193 320 223 359.5 Q253 399 286 430 Q319 461 353.5 479.5 Q388 498 419 498 Z " />
<glyph glyph-name="afii10077" unicode="&#x43b;" horiz-adv-x="479" d="M7 7 Q73 125 135 240.5 Q197 356 262 481 L309 493 L318 480 Q329 362 342.5 252.5 Q356 143 371 55 Q388 57 407.5 64.5 Q427 72 446 85 L462 66 Q453 54 440.5 41.5 Q428 29 414.5 19 Q401 9 387 2.5 Q373 -4 360 -4 Q342 -4 331.5 4 Q321 12 316 41 Q301 131 291 219.5 Q281 308 273 404 L269 404 Q216 297 167 200 Q118 103 61 0 L10 0 L7 7 Z " />
<glyph glyph-name="afii10078" unicode="&#x43c;" horiz-adv-x="632" d="M12 5 Q41 83 65 150 Q89 217 111 275.5 Q133 334 153 384.5 Q173 435 194 481 L238 493 L246 487 Q258 369 272.5 271.5 Q287 174 301 98 Q326 159 347.5 211.5 Q369 264 388.5 310 Q408 356 426.5 398 Q445 440 465 481 L509 493 L517 487 Q518 361 519.5 250 Q521 139 531 55 Q548 57 567.5 64.5 Q587 72 606 85 L622 66 Q613 54 600.5 41.5 Q588 29 574.5 19 Q561 9 547 2.5 Q533 -4 520 -4 Q502 -4 490 4 Q478 12 476 41 Q470 109 469 197 Q468 285 473 404 L469 404 Q448 354 431 314 Q414 274 396 233 Q378 192 357.5 144.5 Q337 97 310 33 L272 24 L265 29 Q251 102 234.5 200.5 Q218 299 208 404 L204 404 Q187 359 172 316.5 Q157 274 140.5 227.5 Q124 181 105.5 126 Q87 71 65 0 L17 0 L12 5 Z " />
<glyph glyph-name="afii10079" unicode="&#x43d;" horiz-adv-x="535" d="M469 488 Q454 381 441 274 Q428 167 414 49 Q437 51 457.5 57.5 Q478 64 498 76 L513 56 Q450 -10 401 -10 Q378 -10 368.5 1.5 Q359 13 359 35 Q359 56 365.5 104 Q372 152 383 239 L159 239 Q154 199 149 160 Q144 121 139.5 88.5 Q135 56 132 32.5 Q129 9 128 0 L76 0 Q79 26 93 134.5 Q107 243 129 438 L30 453 L32 481 Q64 489 94.5 493 Q125 497 152 497 Q169 497 178 492 Q187 487 187 473 Q187 468 185 450 Q183 432 180 405.5 Q177 379 172.5 345.5 Q168 312 164 276 L388 276 L417 488 L469 488 L469 488 Z " />
<glyph glyph-name="afii10080" unicode="&#x43e;" horiz-adv-x="468" d="M270 450 Q234 450 206.5 436 Q179 422 159.5 399 Q140 376 127.5 346 Q115 316 107.5 285 Q100 254 97 223.5 Q94 193 94 168 Q94 143 99.5 119.5 Q105 96 118.5 78 Q132 60 155 49 Q178 38 213 38 Q266 38 299.5 67 Q333 96 351.5 137.5 Q370 179 376.5 224 Q383 269 383 302 Q383 330 378 357 Q373 384 360 404.5 Q347 425 325.5 437.5 Q304 450 270 450 Z M271 497 Q318 497 350 481 Q382 465 401.5 438 Q421 411 429.5 376 Q438 341 438 303 Q438 257 428 203 Q418 149 392.5 102.5 Q367 56 321.5 24.5 Q276 -7 206 -7 Q158 -7 126 7.5 Q94 22 75 47.5 Q56 73 48 107 Q40 141 40 179 Q40 231 52 287 Q64 343 91 389.5 Q118 436 162 466.5 Q206 497 271 497 Z " />
<glyph glyph-name="afii10081" unicode="&#x43f;" horiz-adv-x="540" d="M365 496 Q417 496 436.5 468 Q456 440 456 397 Q456 387 454.5 367.5 Q453 348 449.5 309.5 Q446 271 439 208 Q432 145 421 49 Q442 51 462.5 57 Q483 63 505 76 L520 56 Q457 -10 408 -10 Q385 -10 375.5 1.5 Q366 13 366 35 Q366 41 366.5 47.5 Q367 54 368 62 Q381 170 387.5 232 Q394 294 397 326.5 Q400 359 400.5 370 Q401 381 401 389 Q401 415 390 432 Q379 449 354 449 Q333 449 307.5 436 Q282 423 255.5 394 Q229 365 203 318 Q177 271 155 203 L127 0 L73 0 Q81 58 88.5 117.5 Q96 177 103.5 234 Q111 291 117 343 Q123 395 128 438 L29 453 L31 481 Q63 489 94 493 Q125 497 152 497 Q169 497 178 492 Q187 487 187 473 Q187 451 181.5 414 Q176 377 169 329 L173 329 Q195 377 222 409.5 Q249 442 275 461 Q301 480 325 488 Q349 496 365 496 Z " />
<glyph glyph-name="afii10082" unicode="&#x440;" horiz-adv-x="506" d="M330 445 Q309 445 285.5 433 Q262 421 237 392.5 Q212 364 186.5 316.5 Q161 269 138 199 L119 61 Q152 47 180 42.5 Q208 38 228 38 Q282 38 317 66.5 Q352 95 373 137 Q394 179 402 227.5 Q410 276 410 315 Q410 381 388 413 Q366 445 330 445 Z M112 438 L13 453 L15 481 Q47 489 78 493 Q109 497 136 497 Q153 497 162 492 Q171 487 171 473 Q171 471 170 463.5 Q169 456 167 439.5 Q165 423 161.5 395.5 Q158 368 153 325 L157 325 Q178 375 202 407.5 Q226 440 251 458.5 Q276 477 300 484.5 Q324 492 345 492 Q399 492 432.5 450.5 Q466 409 466 322 Q466 255 450.5 195 Q435 135 404.5 89.5 Q374 44 328.5 17.5 Q283 -9 223 -9 Q199 -9 171.5 -3.5 Q144 2 115 11 L93 -163 L187 -163 L182 -208 L-40 -208 L-35 -163 L41 -163 L112 438 Z " />
<glyph glyph-name="afii10083" unicode="&#x441;" horiz-adv-x="427" d="M208 39 Q246 39 279 47 Q312 55 352 72 L367 37 Q336 20 292.5 7 Q249 -6 203 -6 Q158 -6 127 7 Q96 20 76.5 44 Q57 68 48.5 101 Q40 134 40 174 Q40 200 43.5 234 Q47 268 57 303.5 Q67 339 84.5 374 Q102 409 129 436 Q156 463 194.5 480 Q233 497 286 497 Q318 497 344.5 490.5 Q371 484 385 479 Q399 473 406 465.5 Q413 458 411 442 Q411 437 408 425 Q405 413 400.5 398 Q396 383 390.5 367 Q385 351 379 338 L351 339 L357 439 Q342 444 320.5 447.5 Q299 451 278 451 Q232 451 197.5 428.5 Q163 406 139.5 368 Q116 330 104.5 279.5 Q93 229 93 173 Q93 144 98.5 119.5 Q104 95 117.5 77 Q131 59 153 49 Q175 39 208 39 Z " />
<glyph glyph-name="afii10084" unicode="&#x442;" horiz-adv-x="786" d="M434 322 Q453 368 477 401.5 Q501 435 525.5 456.5 Q550 478 572.5 488 Q595 498 611 498 Q663 498 682.5 470 Q702 442 702 399 Q702 389 700.5 369.5 Q699 350 695.5 311.5 Q692 273 685 210 Q678 147 667 51 Q688 53 708.5 59 Q729 65 751 78 L766 58 Q703 -8 654 -8 Q631 -8 621.5 3.5 Q612 15 612 37 Q612 43 612.5 49.5 Q613 56 614 64 Q627 172 633.5 234 Q640 296 643 328.5 Q646 361 646.5 372 Q647 383 647 391 Q647 417 636 434 Q625 451 600 451 Q579 451 556.5 437.5 Q534 424 510.5 394.5 Q487 365 464 318 Q441 271 419 204 Q416 187 414.5 174 Q413 161 411 141 Q409 121 405.5 88.5 Q402 56 395 0 L341 0 L354 109 Q364 200 370 253 Q376 306 378 333.5 Q380 361 380.5 371.5 Q381 382 381 389 Q381 415 370 432 Q359 449 334 449 Q313 449 291 436 Q269 423 246 394 Q223 365 200 318 Q177 271 155 203 L127 0 L73 0 Q81 58 88.5 117.5 Q96 177 103 234 Q110 291 116 343 Q122 395 127 438 L28 453 L31 481 Q63 489 94 493 Q125 497 152 497 Q169 497 178 492 Q187 487 187 473 Q187 451 181.5 414 Q176 377 169 329 L173 329 Q195 377 218.5 409.5 Q242 442 265 461 Q288 480 308.5 488 Q329 496 345 496 Q397 496 416.5 468 Q436 440 436 397 Q436 388 434.5 371.5 Q433 355 431 324 L434 322 Z " />
<glyph glyph-name="afii10085" unicode="&#x443;" horiz-adv-x="473" d="M397 496 Q415 496 426.5 486.5 Q438 477 438 451 Q438 395 421 323 Q404 251 372.5 175.5 Q341 100 297.5 27.5 Q254 -45 201 -102 Q148 -159 87 -194 Q26 -229 -39 -229 Q-74 -229 -95 -214.5 Q-116 -200 -116 -175 Q-116 -171 -114 -163 L-89 -147 Q-55 -174 -17 -174 Q31 -174 80.5 -147 Q130 -120 190 -51 Q181 5 169 75 Q157 145 144 213.5 Q131 282 119 341.5 Q107 401 98 437 L24 416 L14 438 Q42 467 65.5 481.5 Q89 496 106 496 Q124 496 133.5 486.5 Q143 477 149 451 Q155 424 166 370 Q177 316 188.5 251.5 Q200 187 211 119.5 Q222 52 230 0 Q265 50 294 110 Q323 170 344 230 Q365 290 376 344.5 Q387 399 387 437 L312 416 L303 438 Q331 467 355.5 481.5 Q380 496 397 496 Z " />
<glyph glyph-name="afii10086" unicode="&#x444;" horiz-adv-x="620" d="M539 281 Q539 317 530 347 Q521 377 500.5 399.5 Q480 422 446 435 Q412 448 363 449 L313 38 Q376 41 419.5 61.5 Q463 82 489.5 114.5 Q516 147 527.5 190 Q539 233 539 281 Z M357 718 Q373 718 382.5 713.5 Q392 709 392 697 Q392 690 389.5 668 Q387 646 383.5 616.5 Q380 587 376 554 Q372 521 369 494 Q427 492 469 476 Q511 460 538 433 Q565 406 577.5 369 Q590 332 590 288 Q590 230 574.5 178.5 Q559 127 525 87.5 Q491 48 437.5 23 Q384 -2 308 -7 L289 -164 L370 -164 L365 -207 L157 -207 L162 -164 L239 -164 L258 -7 Q195 -4 153 13.5 Q111 31 86 59 Q61 87 50.5 123 Q40 159 40 200 Q40 261 57.5 313.5 Q75 366 109.5 405.5 Q144 445 196.5 468 Q249 491 318 494 L336 659 L238 674 L240 702 Q272 710 304 714 Q336 718 357 718 Z M90 199 Q90 164 99 135 Q108 106 128.5 85 Q149 64 182 51.5 Q215 39 263 38 L313 449 Q251 446 208.5 425 Q166 404 140 370.5 Q114 337 102 293 Q90 249 90 199 Z " />
<glyph glyph-name="afii10087" unicode="&#x445;" horiz-adv-x="437" d="M56 -14 L18 17 L18 23 L189 240 L108 440 L31 412 L20 436 Q81 494 116 494 Q134 494 143.5 483.5 Q153 473 163 449 L226 292 L357 491 L363 491 L405 461 L405 455 L241 255 L325 48 Q348 50 370 58.5 Q392 67 413 79 L427 59 Q398 24 371.5 6.5 Q345 -11 325 -11 Q302 -11 292.5 0 Q283 11 275 31 L204 204 L62 -14 L56 -14 Z " />
<glyph glyph-name="afii10088" unicode="&#x446;" horiz-adv-x="539" d="M473 17 Q457 5 438 -2.5 Q419 -10 407 -10 Q384 -10 374.5 1.5 Q365 13 365 35 Q365 45 366.5 61 Q368 77 370 94.5 Q372 112 375 129 Q378 146 380 159 L376 159 Q354 111 327 78.5 Q300 46 274 27 Q248 8 224 0 Q200 -8 184 -8 Q132 -8 112.5 20 Q93 48 93 91 Q93 101 94.5 120 Q96 139 99.5 177 Q103 215 110 278 Q117 341 128 438 L29 453 L31 481 Q63 489 93.5 493 Q124 497 151 497 Q168 497 177 492 Q186 487 186 473 Q186 465 183 438 Q180 411 176 373.5 Q172 336 167 293 Q162 250 158 211 Q154 172 151 141.5 Q148 111 148 99 Q148 39 195 39 Q216 39 241.5 52 Q267 65 293.5 94 Q320 123 346 170 Q372 217 394 285 L423 488 L475 488 Q460 381 447 274 Q434 167 420 49 Q444 50 465 57.5 Q486 65 508 79 L531 59 L462 -161 L418 -161 L412 -150 Q428 -102 443 -62 Q458 -22 475 15 L473 17 Z " />
<glyph glyph-name="afii10089" unicode="&#x447;" horiz-adv-x="536" d="M148 497 Q165 497 174 492 Q183 487 183 473 Q183 463 179.5 434.5 Q176 406 172.5 373.5 Q169 341 165.5 311.5 Q162 282 162 271 Q162 245 173 228 Q184 211 209 211 Q230 211 256 223 Q282 235 309 260.5 Q336 286 361.5 326.5 Q387 367 405 425 L414 487 L466 487 Q459 427 452.5 373 Q446 319 439.5 266.5 Q433 214 426.5 160.5 Q420 107 413 49 Q434 51 454.5 57 Q475 63 497 76 L512 56 Q449 -10 400 -10 Q377 -10 367.5 1.5 Q358 13 358 35 Q358 41 358.5 47.5 Q359 54 360 62 Q363 93 367.5 127 Q372 161 376.5 194.5 Q381 228 386 259.5 Q391 291 394 317 L390 317 Q371 275 344.5 246 Q318 217 291 198.5 Q264 180 239 172 Q214 164 198 164 Q146 164 126.5 192 Q107 220 107 263 Q107 273 109 295.5 Q111 318 114 343.5 Q117 369 120 394.5 Q123 420 125 438 L25 453 L27 481 Q59 489 90 493 Q121 497 148 497 Z " />
<glyph glyph-name="afii10090" unicode="&#x448;" horiz-adv-x="786" d="M723 488 Q707 374 693.5 267.5 Q680 161 667 49 Q690 51 710.5 57.5 Q731 64 751 76 L766 56 Q703 -10 654 -10 Q631 -10 621.5 1.5 Q612 13 612 35 Q612 45 613.5 61 Q615 77 617 94.5 Q619 112 622 129 Q625 146 627 159 L623 159 Q601 111 577.5 78.5 Q554 46 531 27 Q508 8 487.5 0 Q467 -8 451 -8 Q399 -8 379.5 20 Q360 48 360 91 Q360 100 361 116.5 Q362 133 365 164 L362 164 Q343 117 319 84 Q295 51 270.5 30 Q246 9 223.5 -0.5 Q201 -10 185 -10 Q133 -10 113.5 18 Q94 46 94 89 Q94 116 98 158 Q102 200 107.5 248 Q113 296 119 346 Q125 396 129 439 L30 454 L32 482 Q64 490 94.5 494 Q125 498 152 498 Q169 498 178 493 Q187 488 187 474 Q187 469 185 447.5 Q183 426 179.5 395 Q176 364 171.5 328 Q167 292 163 258 Q159 224 156 195 Q153 166 152 151 Q150 124 149.5 114 Q149 104 149 97 Q149 71 160 54 Q171 37 196 37 Q217 37 239.5 50.5 Q262 64 285.5 93.5 Q309 123 332 170 Q355 217 377 284 Q380 301 381.5 314 Q383 327 385 347 Q387 367 390.5 399.5 Q394 432 401 488 L455 488 L442 379 Q435 318 430.5 275 Q426 232 423 202.5 Q420 173 418 155 Q416 137 415.5 126 Q415 115 415 109.5 Q415 104 415 99 Q415 73 426 56 Q437 39 462 39 Q483 39 505 52 Q527 65 550 94 Q573 123 596 170 Q619 217 641 285 L671 488 L723 488 Z " />
<glyph glyph-name="afii10091" unicode="&#x449;" horiz-adv-x="786" d="M455 488 L442 379 Q435 318 430.5 275 Q426 232 423 202.5 Q420 173 418 155 Q416 137 415.5 126 Q415 115 415 109.5 Q415 104 415 99 Q415 73 426 56 Q437 39 462 39 Q483 39 505 52 Q527 65 550 94 Q573 123 596 170 Q619 217 641 285 L669 488 L721 488 Q706 381 693 274 Q680 167 666 49 Q690 50 711 57.5 Q732 65 754 79 L777 59 L708 -161 L664 -161 L658 -150 Q674 -102 689 -62 Q704 -22 721 15 L719 17 Q703 5 684 -2.5 Q665 -10 653 -10 Q630 -10 621 1.5 Q612 13 612 35 Q612 45 613.5 61 Q615 77 617 94.5 Q619 112 622 129 Q625 146 627 159 L623 159 Q601 111 577.5 78.5 Q554 46 531 27 Q508 8 487.5 0 Q467 -8 451 -8 Q399 -8 379.5 20 Q360 48 360 91 Q360 100 361 116.5 Q362 133 365 164 L362 164 Q343 117 319 84 Q295 51 270.5 30 Q246 9 223.5 -0.5 Q201 -10 185 -10 Q133 -10 113.5 18 Q94 46 94 89 Q94 116 98 158 Q102 200 107.5 248 Q113 296 119 346 Q125 396 129 439 L30 454 L32 482 Q64 490 94.5 494 Q125 498 152 498 Q169 498 178 493 Q187 488 187 474 Q187 469 185 447.5 Q183 426 179.5 395 Q176 364 171.5 328 Q167 292 163 258 Q159 224 156 195 Q153 166 152 151 Q150 124 149.5 114 Q149 104 149 97 Q149 71 160 54 Q171 37 196 37 Q217 37 239.5 50.5 Q262 64 285.5 93.5 Q309 123 332 170 Q355 217 377 284 Q380 301 381.5 314 Q383 327 385 347 Q387 367 390.5 399.5 Q394 432 401 488 L455 488 Z " />
<glyph glyph-name="afii10092" unicode="&#x44a;" horiz-adv-x="519" d="M294 456 Q280 444 260.5 418 Q241 392 223 362.5 Q205 333 191 303.5 Q177 274 173 254 L177 254 Q202 290 228.5 313.5 Q255 337 279.5 351 Q304 365 326 371 Q348 377 365 377 Q420 377 449.5 342 Q479 307 479 244 Q479 214 468 171 Q457 128 430 88 Q403 48 357.5 20 Q312 -8 243 -8 Q203 -8 176 2 Q149 12 132.5 29 Q116 46 108.5 68 Q101 90 101 114 Q101 159 110.5 203.5 Q120 248 136.5 290 Q153 332 173.5 370.5 Q194 409 217 441 L84 432 L39 359 L10 364 Q18 406 25.5 431 Q33 456 43 469.5 Q53 483 66 487 Q79 491 99 491 L282 486 L294 456 Z M348 332 Q335 332 314 325.5 Q293 319 268 301.5 Q243 284 216.5 253 Q190 222 165 174 Q158 146 158 121 Q158 91 170.5 74 Q183 57 199.5 49 Q216 41 233 39 Q250 37 258 37 Q300 37 331 57 Q362 77 382.5 107.5 Q403 138 413.5 174.5 Q424 211 424 245 Q424 287 405 309.5 Q386 332 348 332 Z " />
<glyph glyph-name="afii10093" unicode="&#x44b;" horiz-adv-x="691" d="M352 377 Q407 377 436.5 341.5 Q466 306 466 243 Q466 213 455 170.5 Q444 128 417.5 89 Q391 50 347.5 22.5 Q304 -5 238 -5 Q224 -5 205 -3.5 Q186 -2 165 2 Q144 6 123 12 Q102 18 84 27 L81 34 Q101 193 112.5 292 Q124 391 129 439 L30 454 L30 482 Q62 490 93 494 Q124 498 151 498 Q168 498 177 490.5 Q186 483 186 471 Q186 460 183.5 435 Q181 410 177 378.5 Q173 347 168.5 313.5 Q164 280 160 254 L164 254 Q189 290 215.5 313.5 Q242 337 266.5 351 Q291 365 313 371 Q335 377 352 377 Z M335 332 Q322 332 301 325.5 Q280 319 255.5 301.5 Q231 284 204.5 253 Q178 222 153 174 L137 58 Q165 47 193.5 43.5 Q222 40 242 40 Q285 40 316.5 59 Q348 78 369 108 Q390 138 400.5 174 Q411 210 411 244 Q411 286 392 309 Q373 332 335 332 Z M626 487 L570 49 Q591 51 612.5 57 Q634 63 656 76 L671 56 Q640 23 611 6.5 Q582 -10 559 -10 Q534 -10 525.5 3 Q517 16 517 36 Q517 42 517.5 48.5 Q518 55 519 62 L573 487 L626 487 Z " />
<glyph glyph-name="afii10094" unicode="&#x44c;" horiz-adv-x="496" d="M347 377 Q402 377 431.5 341.5 Q461 306 461 243 Q461 213 450 170.5 Q439 128 412.5 89 Q386 50 342.5 22.5 Q299 -5 233 -5 Q219 -5 200 -3.5 Q181 -2 160 2 Q139 6 118 12 Q97 18 79 27 L76 34 Q96 193 107.5 292 Q119 391 124 439 L25 454 L25 482 Q57 490 88 494 Q119 498 146 498 Q163 498 172 490.5 Q181 483 181 471 Q181 460 178.5 435 Q176 410 172 378.5 Q168 347 163.5 313.5 Q159 280 155 254 L159 254 Q184 290 210.5 313.5 Q237 337 261.5 351 Q286 365 308 371 Q330 377 347 377 Z M330 332 Q317 332 296 325.5 Q275 319 250.5 301.5 Q226 284 199.5 253 Q173 222 148 174 L132 58 Q160 47 188.5 43.5 Q217 40 237 40 Q280 40 311.5 59 Q343 78 364 108 Q385 138 395.5 174 Q406 210 406 244 Q406 286 387 309 Q368 332 330 332 Z " />
<glyph glyph-name="afii10095" unicode="&#x44d;" horiz-adv-x="412" d="M149 -7 Q101 -7 69.5 -0.5 Q38 6 14 17 L27 55 Q47 49 80.5 43 Q114 37 144 37 Q187 37 219 52.5 Q251 68 272.5 95 Q294 122 305.5 158.5 Q317 195 321 237 L108 234 L114 281 L325 276 Q329 365 291.5 409.5 Q254 454 188 454 Q158 454 125 445 L94 339 L70 341 Q68 366 66.5 387.5 Q65 409 65 424 Q65 429 65 436 Q65 443 67 450.5 Q69 458 74.5 465 Q80 472 91 478 Q106 486 134 491.5 Q162 497 201 497 Q247 497 281 481.5 Q315 466 337.5 439 Q360 412 371.5 376 Q383 340 383 298 Q383 242 370.5 187 Q358 132 330 89 Q302 46 257.5 19.5 Q213 -7 149 -7 Z " />
<glyph glyph-name="afii10096" unicode="&#x44e;" horiz-adv-x="660" d="M466 497 Q512 497 543.5 481 Q575 465 594.5 438 Q614 411 622 376 Q630 341 630 303 Q630 272 626 237.5 Q622 203 612 168.5 Q602 134 585.5 102.5 Q569 71 543.5 46.5 Q518 22 483.5 7.5 Q449 -7 403 -7 Q356 -7 324.5 7.5 Q293 22 274 47.5 Q255 73 247.5 107 Q240 141 240 179 Q240 194 241 209.5 Q242 225 244 241 L147 241 L118 0 L65 0 L119 438 L30 453 L32 481 Q64 489 92 493 Q120 497 141 497 Q160 497 168 492 Q176 487 176 473 L153 286 L251 286 Q260 327 277 365 Q294 403 320 432.5 Q346 462 382 479.5 Q418 497 466 497 Z M465 450 Q412 450 378.5 420 Q345 390 326 346.5 Q307 303 300 254 Q293 205 293 168 Q293 143 298 119.5 Q303 96 316.5 78 Q330 60 352.5 49 Q375 38 410 38 Q462 38 494.5 67 Q527 96 545 137.5 Q563 179 569.5 224 Q576 269 576 302 Q576 330 571 357 Q566 384 553.5 404.5 Q541 425 519.5 437.5 Q498 450 465 450 Z " />
<glyph glyph-name="afii10097" unicode="&#x44f;" horiz-adv-x="466" d="M339 436 Q318 444 289.5 447.5 Q261 451 241 451 Q217 451 194.5 446 Q172 441 154.5 428.5 Q137 416 126 395 Q115 374 115 343 Q115 318 127 301.5 Q139 285 159.5 274 Q180 263 206.5 256.5 Q233 250 263 246 L267 230 L83 2 L21 -5 L15 5 L196 215 Q129 224 94.5 257 Q60 290 60 341 Q60 382 75 412 Q90 442 115.5 461.5 Q141 481 174.5 490 Q208 499 246 499 Q280 499 319 492.5 Q358 486 393 475 L345 49 Q366 51 387.5 57 Q409 63 431 76 L446 56 Q415 23 386 6.5 Q357 -10 334 -10 Q309 -10 300.5 3 Q292 16 292 36 Q292 42 292.5 48.5 Q293 55 294 62 L339 436 Z " />
<glyph glyph-name="afii10071" unicode="&#x451;" horiz-adv-x="441" d="M199 -6 Q151 -6 120 9 Q89 24 71.5 49.5 Q54 75 47 109.5 Q40 144 40 182 Q40 228 50.5 283.5 Q61 339 89 386.5 Q117 434 165 466 Q213 498 287 498 Q320 498 343.5 488 Q367 478 382 462 Q397 446 404 425 Q411 404 411 382 Q411 332 385 299 Q359 266 315.5 245.5 Q272 225 215 214.5 Q158 204 95 200 Q94 194 94 187 Q94 180 94 173 Q94 150 98.5 126 Q103 102 115.5 82.5 Q128 63 150 50.5 Q172 38 208 38 Q246 38 282 47.5 Q318 57 356 74 L371 40 Q343 22 296.5 8 Q250 -6 199 -6 Z M99 244 Q224 250 290.5 281.5 Q357 313 357 376 Q357 409 339.5 430 Q322 451 280 451 Q202 451 156 395.5 Q110 340 99 244 Z M344 646 Q361 646 371 637.5 Q381 629 381 614 Q381 595 368 583 Q355 571 335 571 Q321 571 312.5 580 Q304 589 304 604 Q304 621 317 633.5 Q330 646 344 646 Z M169 646 Q206 646 206 614 Q206 595 194 583 Q182 571 162 571 Q147 571 137.5 580 Q128 589 128 604 Q128 621 141.5 633.5 Q155 646 169 646 Z " />
<glyph glyph-name="afii10099" unicode="&#x452;" horiz-adv-x="499" d="M43 585 L122 585 L130 661 L31 676 L34 704 Q66 712 97 716 Q128 720 155 720 Q172 720 181 715 Q190 710 190 696 Q190 688 187 657.5 Q184 627 179 585 L360 585 L357 548 L175 548 Q171 515 167 481.5 Q163 448 159.5 418.5 Q156 389 153 365.5 Q150 342 148 329 L152 329 Q174 377 201 409.5 Q228 442 254 461 Q280 480 304 488 Q328 496 344 496 Q374 496 395 481 Q416 466 429.5 440.5 Q443 415 449 380.5 Q455 346 455 308 Q455 225 439.5 158 Q424 91 398.5 44 Q373 -3 341 -28.5 Q309 -54 277 -54 Q255 -54 233 -41.5 Q211 -29 188 -1 L211 24 Q244 -8 278 -8 Q306 -8 329 22.5 Q352 53 368.5 100 Q385 147 393.5 202.5 Q402 258 402 308 Q402 338 398 363.5 Q394 389 386 408 Q378 427 364.5 438 Q351 449 333 449 Q312 449 286.5 436 Q261 423 234.5 394 Q208 365 182 318 Q156 271 134 203 L106 0 L52 0 Q58 45 66.5 113 Q75 181 84 256.5 Q93 332 102 408.5 Q111 485 118 548 L40 548 L43 585 Z " />
<glyph glyph-name="afii10100" unicode="&#x453;" horiz-adv-x="388" d="M194 557 L321 715 L363 675 L219 536 L194 557 Z M25 106 Q26 139 39.5 165 Q53 191 75.5 212 Q98 233 126.5 249 Q155 265 185 279 Q205 288 228.5 299.5 Q252 311 271.5 325.5 Q291 340 304 357 Q317 374 317 394 Q317 413 309 424.5 Q301 436 289 442.5 Q277 449 262 451.5 Q247 454 232 454 Q197 454 163 443 Q129 432 91 415 L74 451 Q107 472 150.5 485.5 Q194 499 242 499 Q268 499 291 493 Q314 487 331 475 Q348 463 358 445 Q368 427 368 403 Q368 374 355 350.5 Q342 327 319 306.5 Q296 286 262.5 267.5 Q229 249 189 231 Q144 211 110.5 181.5 Q77 152 77 108 Q77 68 106.5 52 Q136 36 178 36 Q218 36 257.5 48 Q297 60 334 79 L352 47 Q312 20 262.5 6.5 Q213 -7 171 -7 Q140 -7 113 -1 Q86 5 66.5 18.5 Q47 32 36 53.5 Q25 75 25 106 Z " />
<glyph glyph-name="afii10101" unicode="&#x454;" horiz-adv-x="414" d="M203 -6 Q158 -6 127 7 Q96 20 76.5 44 Q57 68 48.5 101 Q40 134 40 174 Q40 200 43.5 234 Q47 268 57 303.5 Q67 339 84.5 374 Q102 409 129 436 Q156 463 194.5 480 Q233 497 286 497 Q318 497 344.5 490.5 Q371 484 385 479 Q399 473 406 465.5 Q413 458 411 442 Q411 437 408 425 Q405 413 400.5 398 Q396 383 390.5 367 Q385 351 379 338 L351 339 L357 439 Q342 444 320.5 447.5 Q299 451 278 451 Q242 451 213.5 437 Q185 423 163 399 Q141 375 125.5 341.5 Q110 308 102 269 L317 274 L311 227 L96 229 Q93 202 93 173 Q93 144 98.5 119.5 Q104 95 117.5 77 Q131 59 153 49 Q175 39 208 39 Q246 39 279 47 Q312 55 352 72 L367 37 Q336 20 292.5 7 Q249 -6 203 -6 Z " />
<glyph glyph-name="afii10102" unicode="&#x455;" horiz-adv-x="396" d="M160 -6 Q119 -6 93 -1 Q67 4 52.5 12 Q38 20 32.5 31 Q27 42 27 54 Q27 74 37 105 Q47 136 59 162 L84 161 L78 52 Q114 38 160 38 Q186 38 211.5 43.5 Q237 49 257 60.5 Q277 72 289 90.5 Q301 109 301 135 Q301 155 292.5 169 Q284 183 269.5 193.5 Q255 204 237 212.5 Q219 221 200 230 Q168 245 141.5 259 Q115 273 96 289 Q77 305 66.5 323.5 Q56 342 56 365 Q56 400 71.5 425 Q87 450 111.5 466 Q136 482 167 489.5 Q198 497 228 497 Q253 497 275.5 492.5 Q298 488 315 480.5 Q332 473 342 463 Q352 453 352 441 Q352 431 349 417 Q346 403 341.5 387.5 Q337 372 331.5 356.5 Q326 341 320 328 L295 329 L301 434 Q287 442 268.5 446.5 Q250 451 226 451 Q205 451 184.5 446.5 Q164 442 148 432 Q132 422 122 405.5 Q112 389 112 365 Q112 349 122 336 Q132 323 147 312.5 Q162 302 179.5 293.5 Q197 285 212 278 Q238 266 263 253.5 Q288 241 308 224.5 Q328 208 340 187 Q352 166 352 138 Q352 101 335.5 74 Q319 47 292 29 Q265 11 230.5 2.5 Q196 -6 160 -6 Z " />
<glyph glyph-name="afii10103" unicode="&#x456;" horiz-adv-x="263" d="M155 497 Q174 497 182 492 Q190 487 190 473 L137 49 Q158 51 179.5 57 Q201 63 223 76 L238 56 Q207 23 178 6.5 Q149 -10 126 -10 Q101 -10 92.5 3 Q84 16 84 36 Q84 42 84.5 48.5 Q85 55 86 62 L133 438 L44 453 L46 481 Q78 489 106 493 Q134 497 155 497 Z M174 647 Q188 647 198.5 637 Q209 627 209 612 Q209 595 197 581.5 Q185 568 167 568 Q153 568 143 578 Q133 588 133 602 Q133 620 145 633.5 Q157 647 174 647 Z " />
<glyph glyph-name="afii10105" unicode="&#x458;" horiz-adv-x="247" d="M146 84 Q140 29 128.5 -20 Q117 -69 95.5 -108 Q74 -147 40.5 -175 Q7 -203 -43 -217 L-52 -186 Q-11 -168 15 -140.5 Q41 -113 56.5 -79 Q72 -45 79.5 -7 Q87 31 91 70 L129 438 L41 453 L44 481 Q76 489 103.5 493 Q131 497 152 497 Q169 497 179 492 Q189 487 189 473 L146 84 Z M205 612 Q205 595 193 581.5 Q181 568 163 568 Q149 568 139 578 Q129 588 129 602 Q129 620 141 633.5 Q153 647 170 647 Q184 647 194.5 637 Q205 627 205 612 Z " />
<glyph glyph-name="afii10106" unicode="&#x459;" horiz-adv-x="671" d="M13 6 Q71 112 132 232 Q193 352 259 481 L306 493 L314 489 Q319 432 323.5 373 Q328 314 333 260 Q353 284 376 305 Q399 326 423.5 342 Q448 358 474.5 367.5 Q501 377 528 377 Q549 377 568.5 368.5 Q588 360 603 343 Q618 326 627 300.5 Q636 275 636 242 Q636 207 624.5 164 Q613 121 586 82.5 Q559 44 515 18 Q471 -8 406 -8 Q360 -8 330.5 4 Q301 16 298 42 Q288 123 282 212 Q276 301 270 404 L266 404 Q240 350 217 303 Q194 256 171.5 208.5 Q149 161 124 110.5 Q99 60 68 0 L16 0 L13 6 Z M513 332 Q465 332 422 299.5 Q379 267 337 220 Q341 175 344.5 133.5 Q348 92 353 47 Q369 41 384 39 Q399 37 413 37 Q450 37 481 54 Q512 71 534 99 Q556 127 568.5 164 Q581 201 581 241 Q581 283 563 307.5 Q545 332 513 332 Z " />
<glyph glyph-name="afii10107" unicode="&#x45a;" horiz-adv-x="774" d="M463 487 Q461 469 457.5 437 Q454 405 449.5 370.5 Q445 336 440.5 304.5 Q436 273 433 254 L437 254 Q462 290 488.5 313.5 Q515 337 539.5 351 Q564 365 586 371 Q608 377 625 377 Q680 377 709.5 341.5 Q739 306 739 243 Q739 213 728 170.5 Q717 128 690.5 89 Q664 50 620.5 22.5 Q577 -5 511 -5 Q497 -5 478 -3.5 Q459 -2 438 2 Q417 6 396 12 Q375 18 357 27 L354 34 Q360 88 366.5 139.5 Q373 191 379 239 L159 239 Q154 199 149 160 Q144 121 139.5 88.5 Q135 56 132 32.5 Q129 9 128 0 L76 0 Q79 26 93 134.5 Q107 243 129 438 L30 453 L32 481 Q64 489 94.5 493 Q125 497 152 497 Q169 497 178 492 Q187 487 187 473 Q187 468 185 450 Q183 432 180 405.5 Q177 379 172.5 345.5 Q168 312 164 276 L383 276 Q392 348 398.5 403 Q405 458 408 487 L463 487 Z M608 332 Q595 332 574 325.5 Q553 319 528.5 301.5 Q504 284 477.5 253 Q451 222 426 174 L410 58 Q438 47 466.5 43.5 Q495 40 515 40 Q558 40 589.5 59 Q621 78 642 108 Q663 138 673.5 174 Q684 210 684 244 Q684 286 665 309 Q646 332 608 332 Z " />
<glyph glyph-name="afii10108" unicode="&#x45b;" horiz-adv-x="539" d="M50 578 L135 578 Q137 603 139.5 624 Q142 645 144 661 L45 676 L48 704 Q80 712 111 716 Q142 720 169 720 Q186 720 195 715 Q204 710 204 696 Q204 688 200.5 655 Q197 622 192 578 L367 578 L363 546 L189 546 Q185 514 181 480.5 Q177 447 173.5 418 Q170 389 167 365.5 Q164 342 162 329 L166 329 Q188 377 215 409.5 Q242 442 268 461 Q294 480 318 488 Q342 496 358 496 Q410 496 429.5 468 Q449 440 449 397 Q449 387 447.5 367.5 Q446 348 442.5 309.5 Q439 271 432 208 Q425 145 414 49 Q435 51 455.5 57 Q476 63 498 76 L513 56 Q450 -10 401 -10 Q378 -10 368.5 1.5 Q359 13 359 35 Q359 41 359.5 47.5 Q360 54 361 62 Q374 170 380.5 232 Q387 294 390 326.5 Q393 359 393.5 370 Q394 381 394 389 Q394 415 383 432 Q372 449 347 449 Q326 449 300.5 436 Q275 423 248.5 394 Q222 365 196 318 Q170 271 148 203 L120 0 L66 0 Q72 45 80.5 112.5 Q89 180 98 255.5 Q107 331 115.5 407 Q124 483 131 546 L46 546 L50 578 Z " />
<glyph glyph-name="afii10110" unicode="&#x45e;" horiz-adv-x="473" d="M397 496 Q415 496 426.5 486.5 Q438 477 438 451 Q438 395 421 323 Q404 251 372.5 175.5 Q341 100 297.5 27.5 Q254 -45 201 -102 Q148 -159 87 -194 Q26 -229 -39 -229 Q-74 -229 -95 -214.5 Q-116 -200 -116 -175 Q-116 -171 -114 -163 L-89 -147 Q-55 -174 -17 -174 Q31 -174 80.5 -147 Q130 -120 190 -51 Q181 5 169 75 Q157 145 144 213.5 Q131 282 119 341.5 Q107 401 98 437 L24 416 L14 438 Q42 467 65.5 481.5 Q89 496 106 496 Q124 496 133.5 486.5 Q143 477 149 451 Q155 424 166 370 Q177 316 188.5 251.5 Q200 187 211 119.5 Q222 52 230 0 Q265 50 294 110 Q323 170 344 230 Q365 290 376 344.5 Q387 399 387 437 L312 416 L303 438 Q331 467 355.5 481.5 Q380 496 397 496 Z M263 552 Q239 552 219 561 Q199 570 182.5 585 Q166 600 153 618.5 Q140 637 128 656 L171 684 Q192 649 218 626 Q244 603 273 603 Q282 603 295 605 Q308 607 325 614.5 Q342 622 364.5 636.5 Q387 651 415 677 L434 658 Q386 600 342.5 576 Q299 552 263 552 Z " />
<glyph glyph-name="afii10193" unicode="&#x45f;" horiz-adv-x="539" d="M343 -3 L297 -190 L253 -192 L247 -182 Q260 -133 275.5 -80 Q291 -27 307 11 L343 -3 Z M151 497 Q168 497 177 492 Q186 487 186 473 Q186 465 183 438 Q180 411 176 373.5 Q172 336 167 293 Q162 250 158 211 Q154 172 151 141.5 Q148 111 148 99 Q148 39 195 39 Q216 39 241.5 52 Q267 65 293.5 94 Q320 123 346 170 Q372 217 394 285 L423 488 L475 488 Q460 381 447 274 Q434 167 420 49 Q443 51 463.5 57.5 Q484 64 504 76 L519 56 Q456 -10 407 -10 Q384 -10 374.5 1.5 Q365 13 365 35 Q365 45 366.5 61 Q368 77 370 94.5 Q372 112 375 129 Q378 146 380 159 L376 159 Q354 111 327 78.5 Q300 46 274 27 Q248 8 224 0 Q200 -8 184 -8 Q132 -8 112.5 20 Q93 48 93 91 Q93 101 94.5 120 Q96 139 99.5 177 Q103 215 110 278 Q117 341 128 438 L29 453 L31 481 Q63 489 93.5 493 Q124 497 151 497 Z " />
<glyph glyph-name="afii10050" unicode="&#x490;" horiz-adv-x="498" d="M227 0 L14 0 L19 46 L83 46 L156 637 L96 637 L101 682 L491 682 L506 794 L552 794 L532 637 L211 637 L138 46 L232 46 L227 0 Z " />
<glyph glyph-name="afii10098" unicode="&#x491;" horiz-adv-x="393" d="M350 487 L373 600 L401 600 L407 504 Q409 472 397 457.5 Q385 443 356 443 L160 443 L106 0 L54 0 L110 443 L63 443 L68 487 L350 487 Z " />
<glyph glyph-name="schwacyrillic" unicode="&#x4d9;" horiz-adv-x="441" d="M247 498 Q295 498 326 483 Q357 468 374.5 442.5 Q392 417 399 382.5 Q406 348 406 310 Q406 263 395 208 Q384 153 356.5 105.5 Q329 58 281 26 Q233 -6 159 -6 Q126 -6 102.5 4 Q79 14 64 30 Q49 46 42 67 Q35 88 35 110 Q35 160 60.5 193 Q86 226 129.5 246.5 Q173 267 230.5 277.5 Q288 288 351 292 Q352 298 352 305 Q352 312 352 319 Q352 342 347.5 366 Q343 390 330.5 409.5 Q318 429 296 441.5 Q274 454 238 454 Q200 454 164 444.5 Q128 435 90 418 L75 452 Q103 470 149.5 484 Q196 498 247 498 Z M347 248 Q222 242 155.5 210.5 Q89 179 89 116 Q89 83 106.5 62 Q124 41 166 41 Q244 41 290 96.5 Q336 152 347 248 Z " />
<glyph glyph-name="afii10104" unicode="&#x457;" horiz-adv-x="263" d="M237 639 Q254 639 264 630.5 Q274 622 274 607 Q274 588 261 576 Q248 564 228 564 Q214 564 205.5 573 Q197 582 197 597 Q197 614 210 626.5 Q223 639 237 639 Z M62 639 Q99 639 99 607 Q99 588 87 576 Q75 564 55 564 Q40 564 30.5 573 Q21 582 21 597 Q21 614 34.5 626.5 Q48 639 62 639 Z M155 497 Q174 497 182 492 Q190 487 190 473 L137 49 Q158 51 179.5 57 Q201 63 223 76 L238 56 Q207 23 178 6.5 Q149 -10 126 -10 Q101 -10 92.5 3 Q84 16 84 36 Q84 42 84.5 48 Q85 54 86 61 L133 438 L44 453 L46 481 Q78 489 106 493 Q134 497 155 497 Z " />
<glyph glyph-name="afii10075" unicode="&#x439;" horiz-adv-x="539" d="M151 497 Q168 497 177 492 Q186 487 186 473 Q186 465 183 438 Q180 411 176 373.5 Q172 336 167 293 Q162 250 158 211 Q154 172 151 141.5 Q148 111 148 99 Q148 39 195 39 Q216 39 241.5 52 Q267 65 293.5 94 Q320 123 346 170 Q372 217 394 285 L423 488 L475 488 Q460 381 447 274 Q434 167 420 49 Q443 51 463.5 57.5 Q484 64 504 76 L519 56 Q456 -10 407 -10 Q384 -10 374.5 1.5 Q365 13 365 35 Q365 45 366.5 61 Q368 77 370 94.5 Q372 112 375 129 Q378 146 380 159 L376 159 Q354 111 327 78.5 Q300 46 274 27 Q248 8 224 0 Q200 -8 184 -8 Q132 -8 112.5 20 Q93 48 93 91 Q93 101 94.5 120 Q96 139 99.5 177 Q103 215 110 278 Q117 341 128 438 L29 453 L31 481 Q63 489 93.5 493 Q124 497 151 497 Z M298 552 Q274 552 254 561 Q234 570 217.5 585 Q201 600 188 618.5 Q175 637 163 656 L206 684 Q227 649 253 626 Q279 603 308 603 Q317 603 330 605 Q343 607 360 614.5 Q377 622 399.5 636.5 Q422 651 450 677 L469 658 Q421 600 377.5 576 Q334 552 298 552 Z " />
<glyph glyph-name="afii10109" unicode="&#x45c;" horiz-adv-x="473" d="M217 557 L344 715 L386 675 L242 536 L217 557 Z M115 0 L60 0 L119 438 L42 449 L44 476 Q70 484 97 490.5 Q124 497 150 497 Q178 497 178 466 Q178 457 176 442 Q174 427 171.5 408.5 Q169 390 165.5 368.5 Q162 347 159 325 L115 0 Z M419 498 Q446 498 462 484.5 Q478 471 479 448 L459 429 Q443 437 430.5 439 Q418 441 406 441 Q385 441 360 428 Q335 415 309.5 393 Q284 371 259 341.5 Q234 312 215 280 Q233 242 257.5 203 Q282 164 305.5 131 Q329 98 348 74.5 Q367 51 374 45 Q403 51 421.5 64 Q440 77 454 88 L470 70 Q437 22 411.5 6 Q386 -10 368 -10 Q350 -10 328 16.5 Q306 43 283 78 Q266 103 249 129 Q232 155 217 180 Q202 205 189.5 227 Q177 249 170 266 L171 278 Q193 320 223 359.5 Q253 399 286 430 Q319 461 353.5 479.5 Q388 498 419 498 Z " />
<glyph glyph-name="afii10052" unicode="&#x403;" horiz-adv-x="498" d="M227 0 L14 0 L19 46 L83 46 L156 637 L96 637 L101 682 L536 682 L520 548 L474 548 L485 637 L211 637 L138 46 L232 46 L227 0 Z M289 746 L462 852 L488 800 L305 718 L289 746 Z " />
<glyph glyph-name="afii10062" unicode="&#x40e;" horiz-adv-x="541" d="M74 683 L254 683 L249 637 L181 637 L297 239 L302 239 L478 637 L412 637 L417 683 L595 683 L590 637 L534 637 L293 93 Q270 39 242.5 14.5 Q215 -10 173 -10 Q165 -10 138.5 -9 Q112 -8 67 6 L81 46 Q104 41 124 37.5 Q144 34 161 34 Q187 34 207 50 Q227 66 245 108 L284 196 L258 196 L124 637 L69 637 L74 683 Z M342 725 Q318 725 298 734 Q278 743 261.5 758 Q245 773 232 791.5 Q219 810 207 829 L250 857 Q271 822 297 799 Q323 776 352 776 Q361 776 374 778 Q387 780 404 787.5 Q421 795 443.5 809.5 Q466 824 494 850 L513 831 Q465 773 421.5 749 Q378 725 342 725 Z " />
<glyph glyph-name="afii10061" unicode="&#x40c;" horiz-adv-x="567" d="M14 0 L19 46 L78 46 L151 637 L92 637 L97 683 L272 683 L267 637 L206 637 L133 46 L194 46 L189 0 L14 0 Z M260 356 L445 52 L533 42 L533 6 Q516 -2 495.5 -5 Q475 -8 459 -8 Q440 -8 425.5 -0.5 Q411 7 400 24 L206 351 L207 366 L452 651 Q471 673 485.5 681.5 Q500 690 518 689 Q536 689 552.5 684.5 Q569 680 586 672 L580 636 L491 626 L260 356 Z M316 749 L489 855 L515 803 L332 721 L316 749 Z " />
<glyph glyph-name="afii10027" unicode="&#x419;" horiz-adv-x="660" d="M485 682 L684 682 L679 637 L614 637 L541 46 L606 46 L601 0 L414 0 L419 46 L487 46 L547 532 L544 532 L140 76 L136 46 L201 46 L196 0 L12 0 L17 46 L83 46 L156 637 L93 637 L98 682 L282 682 L277 637 L209 637 L149 154 L151 154 L558 608 L562 637 L480 637 L485 682 Z M399 746 Q375 746 355 755 Q335 764 318.5 779 Q302 794 289 812.5 Q276 831 264 850 L307 878 Q328 843 354 820 Q380 797 409 797 Q418 797 431 799 Q444 801 461 808.5 Q478 816 500.5 830.5 Q523 845 551 871 L570 852 Q522 794 478.5 770 Q435 746 399 746 Z " />
<glyph glyph-name="Agrave" unicode="&#xc0;" horiz-adv-x="617" d="M392 0 L397 46 L466 46 L441 189 L173 189 L112 46 L184 46 L179 0 L-6 0 L-1 46 L56 46 Q122 200 194 365 Q266 530 333 684 L402 684 L525 46 L578 46 L573 0 L392 0 Z M375 555 L362 629 L360 629 Q359 627 358 623.5 Q357 620 353.5 612 Q350 604 344.5 590 Q339 576 329 554 Q312 514 279.5 439.5 Q247 365 195 239 L432 239 L375 555 Z M396 718 L230 791 L260 851 L414 751 L396 718 Z " />
<glyph glyph-name="Aacute" unicode="&#xc1;" horiz-adv-x="617" d="M392 0 L397 46 L466 46 L441 189 L173 189 L112 46 L184 46 L179 0 L-6 0 L-1 46 L56 46 Q122 200 194 365 Q266 530 333 684 L402 684 L525 46 L578 46 L573 0 L392 0 Z M375 555 L362 629 L360 629 Q359 627 358 623.5 Q357 620 353.5 612 Q350 604 344.5 590 Q339 576 329 554 Q312 514 279.5 439.5 Q247 365 195 239 L432 239 L375 555 Z M321 746 L494 852 L520 800 L337 718 L321 746 Z " />
<glyph glyph-name="Acircumflex" unicode="&#xc2;" horiz-adv-x="617" d="M392 0 L397 46 L466 46 L441 189 L173 189 L112 46 L184 46 L179 0 L-6 0 L-1 46 L56 46 Q122 200 194 365 Q266 530 333 684 L402 684 L525 46 L578 46 L573 0 L392 0 Z M375 555 L362 629 L360 629 Q359 627 358 623.5 Q357 620 353.5 612 Q350 604 344.5 590 Q339 576 329 554 Q312 514 279.5 439.5 Q247 365 195 239 L432 239 L375 555 Z M375 800 L217 700 L200 722 L361 861 L399 861 L528 724 L509 701 L375 800 Z " />
<glyph glyph-name="Atilde" unicode="&#xc3;" horiz-adv-x="617" d="M392 0 L397 46 L466 46 L441 189 L173 189 L112 46 L184 46 L179 0 L-6 0 L-1 46 L56 46 Q122 200 194 365 Q266 530 333 684 L402 684 L525 46 L578 46 L573 0 L392 0 Z M375 555 L362 629 L360 629 Q359 627 358 623.5 Q357 620 353.5 612 Q350 604 344.5 590 Q339 576 329 554 Q312 514 279.5 439.5 Q247 365 195 239 L432 239 L375 555 Z M314 812 Q330 812 347 806 Q364 800 380 792.5 Q396 785 411 779 Q426 773 437 773 L497 812 L515 794 Q503 766 480 746.5 Q457 727 431 727 Q411 727 394 733 Q377 739 362 746.5 Q347 754 334 760 Q321 766 308 766 L248 727 L228 745 Q242 773 265 792.5 Q288 812 314 812 Z " />
<glyph glyph-name="Adieresis" unicode="&#xc4;" horiz-adv-x="617" d="M392 0 L397 46 L466 46 L441 189 L173 189 L112 46 L184 46 L179 0 L-6 0 L-1 46 L56 46 Q122 200 194 365 Q266 530 333 684 L402 684 L525 46 L578 46 L573 0 L392 0 Z M375 555 L362 629 L360 629 Q359 627 358 623.5 Q357 620 353.5 612 Q350 604 344.5 590 Q339 576 329 554 Q312 514 279.5 439.5 Q247 365 195 239 L432 239 L375 555 Z M452 727 Q438 727 429.5 736 Q421 745 421 759 Q421 776 433.5 789 Q446 802 461 802 Q478 802 488 793.5 Q498 785 498 770 Q498 751 485 739 Q472 727 452 727 Z M279 727 Q263 727 253.5 736.5 Q244 746 244 760 Q244 777 258 789.5 Q272 802 286 802 Q303 802 313 793.5 Q323 785 323 770 Q323 751 310 739 Q297 727 279 727 Z " />
<glyph glyph-name="Ccedilla" unicode="&#xc7;" horiz-adv-x="529" d="M491 23 Q476 17 457 12 Q438 7 416.5 3.5 Q395 0 373 -2.5 Q351 -5 330 -6 L266 -80 Q309 -82 335.5 -98 Q362 -114 362 -147 Q362 -169 350.5 -189 Q339 -209 316.5 -224 Q294 -239 260.5 -247.5 Q227 -256 182 -256 L186 -225 Q240 -220 274.5 -204.5 Q309 -189 309 -160 Q309 -148 300 -140.5 Q291 -133 277.5 -128.5 Q264 -124 246.5 -122.5 Q229 -121 213 -121 L205 -104 L290 -7 Q172 -2 116.5 67 Q61 136 61 263 Q61 300 66 346 Q71 392 83.5 440 Q96 488 119 533.5 Q142 579 178 614.5 Q214 650 265 671.5 Q316 693 385 693 Q440 693 479.5 685 Q519 677 545 666 L528 522 L481 522 L494 629 Q473 636 443 640.5 Q413 645 381 645 Q316 645 267 616.5 Q218 588 185 537.5 Q152 487 135 416.5 Q118 346 118 262 Q118 215 128.5 175 Q139 135 163 105.5 Q187 76 226 59 Q265 42 322 42 Q350 42 394 47 Q438 52 481 66 L491 23 Z " />
<glyph glyph-name="Egrave" unicode="&#xc8;" horiz-adv-x="524" d="M19 46 L83 46 L156 637 L96 637 L101 682 L536 682 L520 548 L474 548 L485 637 L211 637 L179 382 L451 388 L445 334 L174 338 L138 46 L433 46 L444 135 L493 135 L477 0 L14 0 L19 46 Z M386 718 L220 791 L250 851 L404 751 L386 718 Z " />
<glyph glyph-name="Eacute" unicode="&#xc9;" horiz-adv-x="524" d="M19 46 L83 46 L156 637 L96 637 L101 682 L536 682 L520 548 L474 548 L485 637 L211 637 L179 382 L451 388 L445 334 L174 338 L138 46 L433 46 L444 135 L493 135 L477 0 L14 0 L19 46 Z M267 746 L440 852 L466 800 L283 718 L267 746 Z " />
<glyph glyph-name="Ecircumflex" unicode="&#xca;" horiz-adv-x="524" d="M19 46 L83 46 L156 637 L96 637 L101 682 L536 682 L520 548 L474 548 L485 637 L211 637 L179 382 L451 388 L445 334 L174 338 L138 46 L433 46 L444 135 L493 135 L477 0 L14 0 L19 46 Z M350 800 L192 700 L175 722 L336 861 L374 861 L503 724 L484 701 L350 800 Z " />
<glyph glyph-name="Edieresis" unicode="&#xcb;" horiz-adv-x="524" d="M19 46 L83 46 L156 637 L96 637 L101 682 L536 682 L520 548 L474 548 L485 637 L211 637 L179 382 L451 388 L445 334 L174 338 L138 46 L433 46 L444 135 L493 135 L477 0 L14 0 L19 46 Z M426 727 Q412 727 403.5 736 Q395 745 395 759 Q395 776 407.5 789 Q420 802 435 802 Q452 802 462 793.5 Q472 785 472 770 Q472 751 459 739 Q446 727 426 727 Z M253 727 Q237 727 227.5 736.5 Q218 746 218 760 Q218 777 232 789.5 Q246 802 260 802 Q277 802 287 793.5 Q297 785 297 770 Q297 751 284 739 Q271 727 253 727 Z " />
<glyph glyph-name="Igrave" unicode="&#xcc;" horiz-adv-x="311" d="M43 0 L48 46 L107 46 L180 637 L121 637 L126 683 L301 683 L296 637 L235 637 L162 46 L223 46 L218 0 L43 0 Z M257 718 L91 791 L121 851 L275 751 L257 718 Z " />
<glyph glyph-name="Iacute" unicode="&#xcd;" horiz-adv-x="311" d="M43 0 L48 46 L107 46 L180 637 L121 637 L126 683 L301 683 L296 637 L235 637 L162 46 L223 46 L218 0 L43 0 Z M141 746 L314 852 L340 800 L157 718 L141 746 Z " />
<glyph glyph-name="Icircumflex" unicode="&#xce;" horiz-adv-x="311" d="M43 0 L48 46 L107 46 L180 637 L121 637 L126 683 L301 683 L296 637 L235 637 L162 46 L223 46 L218 0 L43 0 Z M226 800 L68 700 L51 722 L212 861 L250 861 L379 724 L360 701 L226 800 Z " />
<glyph glyph-name="Idieresis" unicode="&#xcf;" horiz-adv-x="311" d="M43 0 L48 46 L107 46 L180 637 L121 637 L126 683 L301 683 L296 637 L235 637 L162 46 L223 46 L218 0 L43 0 Z M298 727 Q284 727 275.5 736 Q267 745 267 759 Q267 776 279.5 789 Q292 802 307 802 Q324 802 334 793.5 Q344 785 344 770 Q344 751 331 739 Q318 727 298 727 Z M125 727 Q109 727 99.5 736.5 Q90 746 90 760 Q90 777 104 789.5 Q118 802 132 802 Q149 802 159 793.5 Q169 785 169 770 Q169 751 156 739 Q143 727 125 727 Z " />
<glyph glyph-name="Eth" unicode="&#xd0;" horiz-adv-x="614" d="M349 683 Q417 683 462.5 662 Q508 641 535.5 604 Q563 567 574.5 517 Q586 467 586 410 Q586 329 569 254.5 Q552 180 514.5 123.5 Q477 67 417 33.5 Q357 0 270 0 L14 0 L19 46 L85 46 L119 327 L58 327 L63 366 L124 366 L158 637 L96 637 L101 683 L349 683 Z M215 637 L181 366 L336 366 L331 327 L176 327 L142 47 L259 47 Q273 47 298.5 49 Q324 51 354 61 Q384 71 415 93 Q446 115 471.5 154 Q497 193 513 253 Q529 313 529 400 Q529 488 507 536 Q485 584 454.5 606.5 Q424 629 391 633 Q358 637 336 637 L215 637 Z " />
<glyph glyph-name="Ntilde" unicode="&#xd1;" horiz-adv-x="678" d="M510 104 L576 637 L508 637 L513 683 L697 683 L692 637 L629 637 L551 0 L500 0 L263 475 L206 592 L203 591 L137 47 L205 47 L200 0 L14 0 L19 47 L84 47 L157 637 L92 637 L97 683 L221 683 L441 238 L505 104 L510 104 Z M342 852 Q358 852 375 846 Q392 840 408 832.5 Q424 825 439 819 Q454 813 465 813 L525 852 L543 834 Q531 806 508 786.5 Q485 767 459 767 Q439 767 422 773 Q405 779 390 786.5 Q375 794 362 800 Q349 806 336 806 L276 767 L256 785 Q270 813 293 832.5 Q316 852 342 852 Z " />
<glyph glyph-name="Ograve" unicode="&#xd2;" horiz-adv-x="629" d="M373 693 Q440 693 483.5 671 Q527 649 553 611.5 Q579 574 589.5 524.5 Q600 475 600 419 Q600 331 581 253.5 Q562 176 524 118 Q486 60 429.5 26.5 Q373 -7 299 -7 Q234 -7 188.5 11 Q143 29 114.5 62.5 Q86 96 73 144 Q60 192 60 253 Q60 331 76.5 409.5 Q93 488 130.5 551 Q168 614 227.5 653.5 Q287 693 373 693 Z M374 646 Q299 646 249.5 609.5 Q200 573 170 516 Q140 459 127.5 389 Q115 319 115 252 Q115 146 158.5 93 Q202 40 299 40 Q365 40 411.5 72 Q458 104 488 157.5 Q518 211 531.5 279 Q545 347 545 419 Q545 462 538 503 Q531 544 512 576 Q493 608 459.5 627 Q426 646 374 646 Z M416 718 L250 791 L280 851 L434 751 L416 718 Z " />
<glyph glyph-name="Oacute" unicode="&#xd3;" horiz-adv-x="629" d="M373 693 Q440 693 483.5 671 Q527 649 553 611.5 Q579 574 589.5 524.5 Q600 475 600 419 Q600 331 581 253.5 Q562 176 524 118 Q486 60 429.5 26.5 Q373 -7 299 -7 Q234 -7 188.5 11 Q143 29 114.5 62.5 Q86 96 73 144 Q60 192 60 253 Q60 331 76.5 409.5 Q93 488 130.5 551 Q168 614 227.5 653.5 Q287 693 373 693 Z M374 646 Q299 646 249.5 609.5 Q200 573 170 516 Q140 459 127.5 389 Q115 319 115 252 Q115 146 158.5 93 Q202 40 299 40 Q365 40 411.5 72 Q458 104 488 157.5 Q518 211 531.5 279 Q545 347 545 419 Q545 462 538 503 Q531 544 512 576 Q493 608 459.5 627 Q426 646 374 646 Z M298 746 L471 852 L497 800 L314 718 L298 746 Z " />
<glyph glyph-name="Ocircumflex" unicode="&#xd4;" horiz-adv-x="629" d="M373 693 Q440 693 483.5 671 Q527 649 553 611.5 Q579 574 589.5 524.5 Q600 475 600 419 Q600 331 581 253.5 Q562 176 524 118 Q486 60 429.5 26.5 Q373 -7 299 -7 Q234 -7 188.5 11 Q143 29 114.5 62.5 Q86 96 73 144 Q60 192 60 253 Q60 331 76.5 409.5 Q93 488 130.5 551 Q168 614 227.5 653.5 Q287 693 373 693 Z M374 646 Q299 646 249.5 609.5 Q200 573 170 516 Q140 459 127.5 389 Q115 319 115 252 Q115 146 158.5 93 Q202 40 299 40 Q365 40 411.5 72 Q458 104 488 157.5 Q518 211 531.5 279 Q545 347 545 419 Q545 462 538 503 Q531 544 512 576 Q493 608 459.5 627 Q426 646 374 646 Z M402 800 L244 700 L227 722 L388 861 L426 861 L555 724 L536 701 L402 800 Z " />
<glyph glyph-name="Otilde" unicode="&#xd5;" horiz-adv-x="629" d="M373 693 Q440 693 483.5 671 Q527 649 553 611.5 Q579 574 589.5 524.5 Q600 475 600 419 Q600 331 581 253.5 Q562 176 524 118 Q486 60 429.5 26.5 Q373 -7 299 -7 Q234 -7 188.5 11 Q143 29 114.5 62.5 Q86 96 73 144 Q60 192 60 253 Q60 331 76.5 409.5 Q93 488 130.5 551 Q168 614 227.5 653.5 Q287 693 373 693 Z M374 646 Q299 646 249.5 609.5 Q200 573 170 516 Q140 459 127.5 389 Q115 319 115 252 Q115 146 158.5 93 Q202 40 299 40 Q365 40 411.5 72 Q458 104 488 157.5 Q518 211 531.5 279 Q545 347 545 419 Q545 462 538 503 Q531 544 512 576 Q493 608 459.5 627 Q426 646 374 646 Z M341 854 Q357 854 374 848 Q391 842 407 834.5 Q423 827 438 821 Q453 815 464 815 L524 854 L542 836 Q530 808 507 788.5 Q484 769 458 769 Q438 769 421 775 Q404 781 389 788.5 Q374 796 361 802 Q348 808 335 808 L275 769 L255 787 Q269 815 292 834.5 Q315 854 341 854 Z " />
<glyph glyph-name="Odieresis" unicode="&#xd6;" horiz-adv-x="629" d="M373 693 Q440 693 483.5 671 Q527 649 553 611.5 Q579 574 589.5 524.5 Q600 475 600 419 Q600 331 581 253.5 Q562 176 524 118 Q486 60 429.5 26.5 Q373 -7 299 -7 Q234 -7 188.5 11 Q143 29 114.5 62.5 Q86 96 73 144 Q60 192 60 253 Q60 331 76.5 409.5 Q93 488 130.5 551 Q168 614 227.5 653.5 Q287 693 373 693 Z M374 646 Q299 646 249.5 609.5 Q200 573 170 516 Q140 459 127.5 389 Q115 319 115 252 Q115 146 158.5 93 Q202 40 299 40 Q365 40 411.5 72 Q458 104 488 157.5 Q518 211 531.5 279 Q545 347 545 419 Q545 462 538 503 Q531 544 512 576 Q493 608 459.5 627 Q426 646 374 646 Z M474 727 Q460 727 451.5 736 Q443 745 443 759 Q443 776 455.5 789 Q468 802 483 802 Q500 802 510 793.5 Q520 785 520 770 Q520 751 507 739 Q494 727 474 727 Z M301 727 Q285 727 275.5 736.5 Q266 746 266 760 Q266 777 280 789.5 Q294 802 308 802 Q325 802 335 793.5 Q345 785 345 770 Q345 751 332 739 Q319 727 301 727 Z " />
<glyph glyph-name="Oslash" unicode="&#xd8;" horiz-adv-x="629" d="M373 693 Q434 693 475.5 675 Q517 657 543 625 L601 695 L641 695 L561 599 Q583 563 591.5 516.5 Q600 470 600 419 Q600 331 581 253.5 Q562 176 524 118 Q486 60 429.5 26.5 Q373 -7 299 -7 Q234 -7 189 10.5 Q144 28 115 62 L59 -5 L19 -5 L96 88 Q77 120 68.5 161 Q60 202 60 253 Q60 331 76.5 409.5 Q93 488 130.5 551 Q168 614 227.5 653.5 Q287 693 373 693 Z M545 419 Q545 455 540 489.5 Q535 524 523 553 L150 104 Q195 40 299 40 Q365 40 411.5 72 Q458 104 488 157.5 Q518 211 531.5 279 Q545 347 545 419 Z M374 646 Q299 646 249.5 609.5 Q200 573 170 516 Q140 459 127.5 389 Q115 319 115 252 Q115 217 119.5 187 Q124 157 135 134 L507 582 Q488 611 456 628.5 Q424 646 374 646 Z " />
<glyph glyph-name="Ugrave" unicode="&#xd9;" horiz-adv-x="662" d="M500 637 L505 683 L690 683 L685 637 L624 637 L575 243 Q568 187 549.5 141 Q531 95 498.5 62 Q466 29 420 11 Q374 -7 313 -7 Q246 -7 200.5 11 Q155 29 129 62.5 Q103 96 94.5 143 Q86 190 93 249 L141 637 L82 637 L87 683 L272 683 L267 637 L197 637 L148 244 Q136 143 175 92 Q214 41 309 41 Q401 41 455 92 Q509 143 521 244 L570 637 L500 637 Z M420 718 L254 791 L284 851 L438 751 L420 718 Z " />
<glyph glyph-name="Uacute" unicode="&#xda;" horiz-adv-x="662" d="M500 637 L505 683 L690 683 L685 637 L624 637 L575 243 Q568 187 549.5 141 Q531 95 498.5 62 Q466 29 420 11 Q374 -7 313 -7 Q246 -7 200.5 11 Q155 29 129 62.5 Q103 96 94.5 143 Q86 190 93 249 L141 637 L82 637 L87 683 L272 683 L267 637 L197 637 L148 244 Q136 143 175 92 Q214 41 309 41 Q401 41 455 92 Q509 143 521 244 L570 637 L500 637 Z M334 746 L507 852 L533 800 L350 718 L334 746 Z " />
<glyph glyph-name="Ucircumflex" unicode="&#xdb;" horiz-adv-x="662" d="M500 637 L505 683 L690 683 L685 637 L624 637 L575 243 Q568 187 549.5 141 Q531 95 498.5 62 Q466 29 420 11 Q374 -7 313 -7 Q246 -7 200.5 11 Q155 29 129 62.5 Q103 96 94.5 143 Q86 190 93 249 L141 637 L82 637 L87 683 L272 683 L267 637 L197 637 L148 244 Q136 143 175 92 Q214 41 309 41 Q401 41 455 92 Q509 143 521 244 L570 637 L500 637 Z M404 799 L240 701 L223 723 L390 859 L429 859 L563 725 L544 702 L404 799 Z " />
<glyph glyph-name="Udieresis" unicode="&#xdc;" horiz-adv-x="662" d="M500 637 L505 683 L690 683 L685 637 L624 637 L575 243 Q568 187 549.5 141 Q531 95 498.5 62 Q466 29 420 11 Q374 -7 313 -7 Q246 -7 200.5 11 Q155 29 129 62.5 Q103 96 94.5 143 Q86 190 93 249 L141 637 L82 637 L87 683 L272 683 L267 637 L197 637 L148 244 Q136 143 175 92 Q214 41 309 41 Q401 41 455 92 Q509 143 521 244 L570 637 L500 637 Z M487 727 Q473 727 464.5 736 Q456 745 456 759 Q456 776 468.5 789 Q481 802 496 802 Q513 802 523 793.5 Q533 785 533 770 Q533 751 520 739 Q507 727 487 727 Z M314 727 Q298 727 288.5 736.5 Q279 746 279 760 Q279 777 293 789.5 Q307 802 321 802 Q338 802 348 793.5 Q358 785 358 770 Q358 751 345 739 Q332 727 314 727 Z " />
<glyph glyph-name="Yacute" unicode="&#xdd;" horiz-adv-x="534" d="M284 356 L468 637 L403 637 L408 683 L582 683 L577 637 L526 637 L307 310 L274 46 L353 46 L348 0 L133 0 L138 46 L218 46 L250 307 L115 637 L63 637 L68 683 L237 683 L232 637 L169 637 L280 356 L284 356 Z M270 745 L443 851 L469 799 L286 717 L270 745 Z " />
<glyph glyph-name="Thorn" unicode="&#xde;" horiz-adv-x="526" d="M195 553 L344 553 Q381 553 413 542.5 Q445 532 468.5 511 Q492 490 505 458 Q518 426 518 382 Q518 347 507.5 307.5 Q497 268 472.5 235 Q448 202 406.5 180 Q365 158 303 158 L149 158 L135 46 L217 46 L212 0 L14 0 L19 46 L80 46 L151 637 L89 637 L94 683 L292 683 L287 637 L206 637 L195 553 Z M154 204 L303 204 Q328 204 356 212.5 Q384 221 407.5 241.5 Q431 262 446 295.5 Q461 329 461 380 Q461 445 428 476 Q395 507 341 507 L190 507 L154 204 Z " />
<glyph glyph-name="agrave" unicode="&#xe0;" horiz-adv-x="516" d="M283 493 Q310 493 338.5 486.5 Q367 480 399 469 L425 495 L450 493 Q441 435 432 373 Q423 311 414.5 252 Q406 193 400 140.5 Q394 88 391 49 Q412 51 435.5 60 Q459 69 481 82 L496 62 Q482 48 466.5 35 Q451 22 435 12 Q419 2 404.5 -4 Q390 -10 379 -10 Q364 -10 354.5 -3.5 Q345 3 340.5 13.5 Q336 24 335.5 38 Q335 52 337 67 Q339 90 342.5 112.5 Q346 135 351 159 L347 159 Q326 109 302 76.5 Q278 44 254 25.5 Q230 7 206 -0.5 Q182 -8 161 -8 Q107 -8 73.5 33.5 Q40 75 40 162 Q40 229 55.5 289 Q71 349 101.5 394.5 Q132 440 177.5 466.5 Q223 493 283 493 Z M176 39 Q197 39 220 51 Q243 63 267.5 91.5 Q292 120 317 167.5 Q342 215 365 285 L387 423 Q354 437 326 441.5 Q298 446 278 446 Q224 446 189 417.5 Q154 389 133 347 Q112 305 104 256.5 Q96 208 96 169 Q96 103 118 71 Q140 39 176 39 Z M289 536 L179 675 L232 715 L321 557 L289 536 Z " />
<glyph glyph-name="aacute" unicode="&#xe1;" horiz-adv-x="516" d="M283 493 Q310 493 338.5 486.5 Q367 480 399 469 L425 495 L450 493 Q441 435 432 373 Q423 311 414.5 252 Q406 193 400 140.5 Q394 88 391 49 Q412 51 435.5 60 Q459 69 481 82 L496 62 Q482 48 466.5 35 Q451 22 435 12 Q419 2 404.5 -4 Q390 -10 379 -10 Q364 -10 354.5 -3.5 Q345 3 340.5 13.5 Q336 24 335.5 38 Q335 52 337 67 Q339 90 342.5 112.5 Q346 135 351 159 L347 159 Q326 109 302 76.5 Q278 44 254 25.5 Q230 7 206 -0.5 Q182 -8 161 -8 Q107 -8 73.5 33.5 Q40 75 40 162 Q40 229 55.5 289 Q71 349 101.5 394.5 Q132 440 177.5 466.5 Q223 493 283 493 Z M176 39 Q197 39 220 51 Q243 63 267.5 91.5 Q292 120 317 167.5 Q342 215 365 285 L387 423 Q354 437 326 441.5 Q298 446 278 446 Q224 446 189 417.5 Q154 389 133 347 Q112 305 104 256.5 Q96 208 96 169 Q96 103 118 71 Q140 39 176 39 Z M259 557 L386 715 L428 675 L284 536 L259 557 Z " />
<glyph glyph-name="acircumflex" unicode="&#xe2;" horiz-adv-x="516" d="M283 493 Q310 493 338.5 486.5 Q367 480 399 469 L425 495 L450 493 Q441 435 432 373 Q423 311 414.5 252 Q406 193 400 140.5 Q394 88 391 49 Q412 51 435.5 60 Q459 69 481 82 L496 62 Q482 48 466.5 35 Q451 22 435 12 Q419 2 404.5 -4 Q390 -10 379 -10 Q364 -10 354.5 -3.5 Q345 3 340.5 13.5 Q336 24 335.5 38 Q335 52 337 67 Q339 90 342.5 112.5 Q346 135 351 159 L347 159 Q326 109 302 76.5 Q278 44 254 25.5 Q230 7 206 -0.5 Q182 -8 161 -8 Q107 -8 73.5 33.5 Q40 75 40 162 Q40 229 55.5 289 Q71 349 101.5 394.5 Q132 440 177.5 466.5 Q223 493 283 493 Z M176 39 Q197 39 220 51 Q243 63 267.5 91.5 Q292 120 317 167.5 Q342 215 365 285 L387 423 Q354 437 326 441.5 Q298 446 278 446 Q224 446 189 417.5 Q154 389 133 347 Q112 305 104 256.5 Q96 208 96 169 Q96 103 118 71 Q140 39 176 39 Z M322 632 L164 532 L147 554 L308 693 L346 693 L475 556 L456 533 L322 632 Z " />
<glyph glyph-name="atilde" unicode="&#xe3;" horiz-adv-x="516" d="M283 493 Q310 493 338.5 486.5 Q367 480 399 469 L425 495 L450 493 Q441 435 432 373 Q423 311 414.5 252 Q406 193 400 140.5 Q394 88 391 49 Q412 51 435.5 60 Q459 69 481 82 L496 62 Q482 48 466.5 35 Q451 22 435 12 Q419 2 404.5 -4 Q390 -10 379 -10 Q364 -10 354.5 -3.5 Q345 3 340.5 13.5 Q336 24 335.5 38 Q335 52 337 67 Q339 90 342.5 112.5 Q346 135 351 159 L347 159 Q326 109 302 76.5 Q278 44 254 25.5 Q230 7 206 -0.5 Q182 -8 161 -8 Q107 -8 73.5 33.5 Q40 75 40 162 Q40 229 55.5 289 Q71 349 101.5 394.5 Q132 440 177.5 466.5 Q223 493 283 493 Z M176 39 Q197 39 220 51 Q243 63 267.5 91.5 Q292 120 317 167.5 Q342 215 365 285 L387 423 Q354 437 326 441.5 Q298 446 278 446 Q224 446 189 417.5 Q154 389 133 347 Q112 305 104 256.5 Q96 208 96 169 Q96 103 118 71 Q140 39 176 39 Z M257 661 Q273 661 290 655 Q307 649 323 641.5 Q339 634 354 628 Q369 622 380 622 L440 661 L458 643 Q446 615 423 595.5 Q400 576 374 576 Q354 576 337 582 Q320 588 305 595.5 Q290 603 277 609 Q264 615 251 615 L191 576 L171 594 Q185 622 208 641.5 Q231 661 257 661 Z " />
</font>
</svg>
