<?xml version="1.0" encoding="UTF-8"?>
<svg xmlns="http://www.w3.org/2000/svg" xmlns:xlink="http://www.w3.org/1999/xlink" version="1.2" >
<font id="SapientCentroSlab-BoldItalic">
<font-face  font-family="Sapient Centro Slab" units-per-em="1000" ascent="750" descent="-250" font-style="italic" font-weight="700" font-stretch="normal" slope="-12" cap-height="688" x-height="490" underline-position="-85" underline-thickness="70" />
<missing-glyph  horiz-adv-x="438" d="M0 687 L437 687 L437 0 L0 0 L0 687 Z M345 60 L219 288 L92 60 L345 60 Z M345 627 L92 627 L219 400 L345 627 Z M60 118 L184 344 L60 570 L60 118 Z M377 117 L377 572 L253 343 L377 117 Z " />
<glyph glyph-name="NULL" d="" />
<glyph glyph-name="nonmarkingreturn" unicode="&#xd;" horiz-adv-x="287" d="" />
<glyph glyph-name="space" unicode="&#x20;" horiz-adv-x="287" d="" />
<glyph glyph-name="dollar" unicode="&#x24;" horiz-adv-x="579" d="M266 -75 Q292 128 317 331 Q342 534 367 739 L407 739 L399 671 Q429 668 463.5 659 Q498 650 524 633 Q519 598 514.5 561 Q510 524 506 488 L429 488 L440 563 Q429 569 415.5 572.5 Q402 576 388 578 L364 384 Q393 373 421 359.5 Q449 346 470.5 326.5 Q492 307 505.5 279.5 Q519 252 519 214 Q519 168 504 132 Q489 96 462.5 70.5 Q436 45 399 29.5 Q362 14 318 8 Q315 -12 312.5 -33.5 Q310 -55 307 -75 L266 -75 Z M334 739 L235 -75 L193 -75 Q196 -55 198.5 -34 Q201 -13 204 5 Q165 10 125 21 Q85 32 51 52 Q57 89 61.5 126 Q66 163 71 200 L147 200 L138 123 Q156 114 175.5 109.5 Q195 105 215 102 L241 308 Q211 318 185.5 332 Q160 346 141.5 365.5 Q123 385 112 410.5 Q101 436 101 470 Q101 515 116 549.5 Q131 584 156.5 608.5 Q182 633 215 648 Q248 663 285 669 L294 739 L334 739 Z M329 108 Q365 116 387 139 Q409 162 409 204 Q409 231 393.5 247.5 Q378 264 350 275 L329 108 Z M273 572 Q247 564 227.5 544 Q208 524 207 486 L207 485 Q208 457 220 443.5 Q232 430 255 420 L273 572 Z " />
<glyph glyph-name="percent" unicode="&#x25;" horiz-adv-x="870" d="M248 672 Q292 672 321 659 Q350 646 367.5 624 Q385 602 392.5 572.5 Q400 543 400 510 Q400 466 390 421.5 Q380 377 357 341.5 Q334 306 296.5 284 Q259 262 203 262 Q159 262 130 274.5 Q101 287 83 308.5 Q65 330 57.5 359 Q50 388 50 421 Q50 458 58.5 502 Q67 546 89.5 584 Q112 622 150.5 647 Q189 672 248 672 Z M244 598 Q212 598 193 576.5 Q174 555 164 525.5 Q154 496 151 464.5 Q148 433 148 414 Q148 379 161.5 357 Q175 335 211 335 Q237 335 254.5 351 Q272 367 282.5 392 Q293 417 297.5 448 Q302 479 302 509 Q302 526 299.5 542 Q297 558 290.5 570.5 Q284 583 273 590.5 Q262 598 244 598 Z M317 -20 L236 -20 L634 708 L714 708 L317 -20 Z M727 407 Q771 407 800 394 Q829 381 846.5 358.5 Q864 336 871 306.5 Q878 277 878 245 Q878 200 868 155.5 Q858 111 835.5 75.5 Q813 40 775 18 Q737 -4 682 -4 Q638 -4 608.5 8.5 Q579 21 561 42.5 Q543 64 535.5 92.5 Q528 121 528 154 Q528 192 537 236 Q546 280 568.5 318 Q591 356 629.5 381.5 Q668 407 727 407 Z M723 332 Q691 332 672 310.5 Q653 289 643 259.5 Q633 230 630 199 Q627 168 627 148 Q627 113 640.5 91.5 Q654 70 690 70 Q715 70 732.5 85.5 Q750 101 761 125.5 Q772 150 776.5 181 Q781 212 781 243 Q781 260 778.5 276 Q776 292 769.5 304.5 Q763 317 751.5 324.5 Q740 332 723 332 Z " />
<glyph glyph-name="ampersand" unicode="&#x26;" horiz-adv-x="908" d="M476 312 Q514 319 552 319 Q578 319 607 314.5 Q636 310 665 303 Q671 324 673 345.5 Q675 367 675 389 Q675 441 660.5 483 Q646 525 617.5 555 Q589 585 547 601 Q505 617 449 617 Q375 617 318 590 Q261 563 220 519.5 Q179 476 153.5 421.5 Q128 367 116 312 L29 323 Q38 385 67.5 452 Q97 519 149.5 574.5 Q202 630 278 666 Q354 702 456 702 Q545 702 606.5 675.5 Q668 649 706.5 605.5 Q745 562 762 507 Q779 452 779 396 Q779 370 775.5 344 Q772 318 767 294 Q792 295 810.5 298 Q829 301 843 307 Q857 313 868.5 322.5 Q880 332 891 345 Q900 332 910 319 Q920 306 931 293 Q915 271 897.5 257 Q880 243 858 234.5 Q836 226 807 221 Q778 216 740 213 Q718 163 682.5 120.5 Q647 78 601.5 46 Q556 14 501 -4 Q446 -22 385 -22 Q326 -22 283.5 -6 Q241 10 214 38.5 Q187 67 174 105 Q161 143 161 187 Q161 266 183.5 325 Q206 384 240.5 423.5 Q275 463 317 483 Q359 503 398 503 Q428 503 451 493.5 Q474 484 489 469 Q504 454 512 435.5 Q520 417 520 399 Q520 381 511 357.5 Q502 334 476 314 L476 312 Z M388 221 Q378 232 372.5 250 Q367 268 361 285 Q389 305 401.5 322 Q414 339 414 355 Q414 372 404 382 Q394 392 377 392 Q362 392 344.5 382.5 Q327 373 311 350.5 Q295 328 284.5 291.5 Q274 255 274 202 Q274 137 307 101.5 Q340 66 409 66 Q440 66 473 77.5 Q506 89 536.5 110 Q567 131 592.5 160.5 Q618 190 635 226 Q605 234 576 239 Q547 244 519 244 Q509 244 493.5 242.5 Q478 241 460.5 238 Q443 235 424 231 Q405 227 388 221 Z " />
<glyph glyph-name="quotesingle" unicode="&#x27;" horiz-adv-x="231" d="M106 448 L119 689 L230 689 L182 448 L106 448 Z " />
<glyph glyph-name="parenleft" unicode="&#x28;" horiz-adv-x="322" d="M176 168 Q176 110 183 63.5 Q190 17 199.5 -19.5 Q209 -56 220 -83 Q231 -110 239 -128 L176 -169 Q155 -141 135 -103 Q115 -65 99.5 -18 Q84 29 74.5 83.5 Q65 138 65 198 Q65 289 85.5 367.5 Q106 446 138 511 Q170 576 209 626.5 Q248 677 284 713 L336 671 Q319 649 291.5 604.5 Q264 560 238.5 496 Q213 432 194.5 349.5 Q176 267 176 168 Z " />
<glyph glyph-name="parenright" unicode="&#x29;" horiz-adv-x="322" d="M160 379 Q160 436 153 482.5 Q146 529 136 565.5 Q126 602 114.5 629 Q103 656 95 673 L157 712 Q179 683 199.5 645 Q220 607 235.5 561 Q251 515 260.5 462 Q270 409 270 351 Q270 258 248.5 177.5 Q227 97 194 31 Q161 -35 122.5 -85.5 Q84 -136 50 -169 L-3 -126 Q14 -104 41.5 -60.5 Q69 -17 95.5 47 Q122 111 141 194.5 Q160 278 160 379 Z " />
<glyph glyph-name="asterisk" unicode="&#x2a;" horiz-adv-x="409" d="M291 520 Q297 514 307 503 Q317 492 328 480 Q339 468 349 457 Q359 446 365 440 Q360 434 348 424.5 Q336 415 322.5 405.5 Q309 396 296 388 Q283 380 276 377 Q273 385 268 400 Q263 415 258 431.5 Q253 448 248 463 Q243 478 240 486 L178 378 Q172 380 161 388 Q150 396 138 405.5 Q126 415 116 424.5 Q106 434 102 440 Q109 446 122.5 457.5 Q136 469 150 481 Q164 493 177 504.5 Q190 516 197 522 L84 537 Q85 545 90.5 559.5 Q96 574 103 590 Q110 606 117 619.5 Q124 633 128 639 Q135 634 148 626 Q161 618 175 609 Q189 600 202 592 Q215 584 223 580 Q222 589 221 605 Q220 621 218.5 638.5 Q217 656 216 672 Q215 688 215 697 Q221 698 235.5 699 Q250 700 266.5 700 Q283 700 298 699 Q313 698 319 697 Q316 688 311 672 Q306 656 300 638.5 Q294 621 289 605 Q284 589 281 580 L393 636 Q396 630 400 616 Q404 602 406.5 586.5 Q409 571 410.5 555.5 Q412 540 411 531 L291 520 Z " />
<glyph glyph-name="plus" unicode="&#x2b;" horiz-adv-x="579" d="M347 261 L325 91 L243 91 L263 261 L104 261 L114 344 L274 344 L294 509 L377 509 L356 344 L514 344 L504 261 L347 261 Z " />
<glyph glyph-name="comma" unicode="&#x2c;" horiz-adv-x="254" d="M113 141 Q146 141 163 118 Q180 95 180 63 Q180 35 167.5 6.5 Q155 -22 134.5 -47.5 Q114 -73 88 -94 Q62 -115 36 -128 L8 -84 Q34 -64 50 -44 Q66 -24 73 5 Q54 9 43 23.5 Q32 38 32 60 Q32 92 53.5 116.5 Q75 141 113 141 Z " />
<glyph glyph-name="hyphen" unicode="&#x2d;" horiz-adv-x="381" d="M58 219 L71 318 L337 318 L324 219 L58 219 Z " />
<glyph glyph-name="period" unicode="&#x2e;" horiz-adv-x="253" d="M116 140 Q144 140 162 120.5 Q180 101 180 72 Q180 54 173 39 Q166 24 154.5 13 Q143 2 128 -4.5 Q113 -11 98 -11 Q70 -11 51.5 8.5 Q33 28 33 56 Q33 74 40 89.5 Q47 105 58.5 116 Q70 127 85 133.5 Q100 140 116 140 Z " />
<glyph glyph-name="slash" unicode="&#x2f;" horiz-adv-x="360" d="M72 -33 L-22 -33 L320 706 L414 706 L72 -33 Z " />
<glyph glyph-name="zero" unicode="0" horiz-adv-x="579" d="M337 676 Q405 676 450 653 Q495 630 521.5 591 Q548 552 558.5 501.5 Q569 451 569 396 Q569 324 553.5 252 Q538 180 503.5 122.5 Q469 65 412 28.5 Q355 -8 273 -8 Q207 -8 162.5 12 Q118 32 90.5 67 Q63 102 51 149 Q39 196 39 249 Q39 291 44.5 339 Q50 387 63 434.5 Q76 482 98 525.5 Q120 569 153 602.5 Q186 636 231.5 656 Q277 676 337 676 Z M332 575 Q296 575 270 556.5 Q244 538 226.5 508.5 Q209 479 198.5 442 Q188 405 182.5 368 Q177 331 175 297 Q173 263 173 240 Q173 208 178.5 181 Q184 154 197 134 Q210 114 230.5 103 Q251 92 282 92 Q325 92 354 120 Q383 148 401 193 Q419 238 427 294 Q435 350 435 406 Q435 437 430.5 467.5 Q426 498 414.5 522 Q403 546 383 560.5 Q363 575 332 575 Z " />
<glyph glyph-name="one" unicode="1" horiz-adv-x="579" d="M76 91 L213 91 L270 549 L121 530 L117 606 L299 667 L418 667 L347 91 L482 91 L471 0 L66 0 L76 91 Z " />
<glyph glyph-name="two" unicode="2" horiz-adv-x="579" d="M209 91 L403 91 L413 168 L511 168 L491 0 L14 0 L23 83 Q76 125 139.5 175.5 Q203 226 258.5 279.5 Q314 333 351 385.5 Q388 438 388 485 Q388 525 362 546.5 Q336 568 288 568 Q263 568 220 558 Q177 548 120 516 L82 600 Q148 643 208.5 660 Q269 677 317 677 Q411 677 468 634 Q525 591 525 505 Q525 446 493 389.5 Q461 333 413.5 280.5 Q366 228 310.5 181.5 Q255 135 208 96 L209 91 Z " />
<glyph glyph-name="three" unicode="3" horiz-adv-x="579" d="M390 373 Q450 359 483.5 317.5 Q517 276 517 222 Q517 175 497.5 132.5 Q478 90 441 58.5 Q404 27 351 8.5 Q298 -10 231 -10 Q207 -10 178.5 -8 Q150 -6 121.5 -0.5 Q93 5 65.5 13.5 Q38 22 17 35 Q19 39 25 52 Q31 65 37 79.5 Q43 94 48.5 107 Q54 120 56 124 Q85 114 108 108 Q131 102 150.5 98.5 Q170 95 187 93.5 Q204 92 221 92 Q252 92 281.5 100 Q311 108 333 123.5 Q355 139 368.5 162 Q382 185 382 215 Q382 263 347.5 288 Q313 313 261 313 Q250 313 236 312 Q222 311 201 308 L186 389 Q286 407 335 440 Q384 473 384 512 Q384 538 363.5 558.5 Q343 579 295 579 Q261 579 221 569 Q181 559 126 535 Q124 539 119.5 551 Q115 563 110 577.5 Q105 592 100.5 604.5 Q96 617 94 621 Q160 653 216.5 667 Q273 681 327 681 Q379 681 415.5 669 Q452 657 474.5 637.5 Q497 618 507.5 592 Q518 566 518 538 Q518 517 511 494.5 Q504 472 488.5 450 Q473 428 448.5 409.5 Q424 391 390 378 L390 373 Z " />
<glyph glyph-name="four" unicode="4" horiz-adv-x="579" d="M514 667 Q510 634 503.5 582 Q497 530 490 474 Q483 418 477 366 Q471 314 467 281 L562 281 Q561 276 559.5 263 Q558 250 556 235 Q554 220 552 206.5 Q550 193 550 189 L455 189 L443 90 L507 90 Q506 85 504.5 72.5 Q503 60 501.5 45 Q500 30 498.5 17 Q497 4 496 0 L242 0 Q243 4 244.5 17 Q246 30 248 45 Q250 60 251.5 72.5 Q253 85 253 90 L312 90 L325 189 L27 189 L37 270 Q56 292 82.5 324 Q109 356 139 392.5 Q169 429 201 468.5 Q233 508 263 544.5 Q293 581 319 613 Q345 645 364 667 L514 667 Z M364 536 Q360 531 353 522.5 Q346 514 339 504.5 Q332 495 325 486 Q318 477 314 472 Q296 451 275.5 426.5 Q255 402 234 376.5 Q213 351 193 326.5 Q173 302 155 281 L337 281 Q340 306 344 339.5 Q348 373 352.5 408.5 Q357 444 361.5 477.5 Q366 511 369 536 L364 536 Z " />
<glyph glyph-name="five" unicode="5" horiz-adv-x="579" d="M274 335 Q222 335 164 310 L101 347 L157 667 L543 667 L523 507 L423 507 L431 574 L253 574 L229 416 Q242 420 264.5 425.5 Q287 431 318 431 Q363 431 401.5 420 Q440 409 467.5 385.5 Q495 362 510.5 327 Q526 292 526 244 Q526 181 502.5 134 Q479 87 440 55 Q401 23 350 7 Q299 -9 244 -9 Q221 -9 194 -7 Q167 -5 138.5 0 Q110 5 82 14 Q54 23 31 37 L70 131 Q126 111 161.5 104.5 Q197 98 229 98 Q263 98 292.5 106 Q322 114 344 131 Q366 148 378.5 174 Q391 200 391 237 Q391 262 381.5 280.5 Q372 299 356 311 Q340 323 319 329 Q298 335 274 335 Z " />
<glyph glyph-name="six" unicode="6" horiz-adv-x="579" d="M204 381 Q220 390 239.5 397.5 Q259 405 279.5 411 Q300 417 320.5 420 Q341 423 359 423 Q395 423 427 412.5 Q459 402 483 380 Q507 358 520.5 325 Q534 292 534 246 Q534 185 513.5 138 Q493 91 457.5 58.5 Q422 26 374 9 Q326 -8 271 -8 Q210 -8 168 10 Q126 28 100.5 60 Q75 92 64 137 Q53 182 53 235 Q53 326 73 406.5 Q93 487 133.5 547 Q174 607 236 641.5 Q298 676 382 676 Q433 676 475 667 Q517 658 537 649 L505 556 Q471 569 437.5 572.5 Q404 576 384 576 Q339 576 306.5 556 Q274 536 252 507 Q230 478 217.5 444.5 Q205 411 200 384 L204 381 Z M316 329 Q290 329 269 323.5 Q248 318 232 311 Q216 304 205 297 Q194 290 190 288 Q188 272 186.5 256.5 Q185 241 185 225 Q185 201 189 178 Q193 155 203.5 137 Q214 119 233 108 Q252 97 283 97 Q341 97 373.5 136.5 Q406 176 406 240 Q406 279 386.5 304 Q367 329 316 329 Z " />
<glyph glyph-name="seven" unicode="7" horiz-adv-x="579" d="M111 479 L134 666 L564 666 L556 584 L225 0 L94 0 L421 574 L224 574 L213 479 L111 479 Z " />
<glyph glyph-name="eight" unicode="8" horiz-adv-x="579" d="M340 580 Q310 580 290 569.5 Q270 559 258 545 Q246 531 241 515.5 Q236 500 236 490 Q236 472 245 459.5 Q254 447 269 436 Q284 425 304 415.5 Q324 406 347 394 Q394 426 411 454 Q428 482 428 505 Q428 533 408.5 556.5 Q389 580 340 580 Z M274 94 Q307 94 330.5 103 Q354 112 369.5 127 Q385 142 392 160.5 Q399 179 399 198 Q399 238 367.5 264 Q336 290 264 319 Q212 285 192.5 247 Q173 209 173 177 Q173 142 198 118 Q223 94 274 94 Z M353 679 Q391 679 427 669.5 Q463 660 491 639.5 Q519 619 536 588.5 Q553 558 553 516 Q553 474 528.5 431.5 Q504 389 443 349 Q483 327 507.5 289.5 Q532 252 532 198 Q532 159 515 121.5 Q498 84 464 55.5 Q430 27 379.5 9.5 Q329 -8 263 -8 Q208 -8 166 5 Q124 18 95.5 41.5 Q67 65 52 96.5 Q37 128 37 166 Q37 190 44 218 Q51 246 67 273 Q83 300 109 324.5 Q135 349 173 368 Q141 390 124 417.5 Q107 445 107 482 Q107 524 126 560 Q145 596 178 622.5 Q211 649 256 664 Q301 679 353 679 Z " />
<glyph glyph-name="nine" unicode="9" horiz-adv-x="579" d="M400 287 Q368 269 324.5 257 Q281 245 244 245 Q208 245 176 255.5 Q144 266 120 287.5 Q96 309 82.5 342.5 Q69 376 69 422 Q69 483 89.5 530 Q110 577 145.5 609.5 Q181 642 229 659 Q277 676 333 676 Q394 676 435.5 658 Q477 640 502.5 607.5 Q528 575 539.5 530.5 Q551 486 551 433 Q551 341 531 261 Q511 181 470 121 Q429 61 367 26.5 Q305 -8 221 -8 Q170 -8 129 1 Q88 10 69 19 L98 111 Q132 99 166 95.5 Q200 92 220 92 Q265 92 297.5 112 Q330 132 352 161 Q374 190 386 223.5 Q398 257 403 284 L400 287 Z M288 339 Q313 339 334 344.5 Q355 350 371 357 Q387 364 397.5 371 Q408 378 413 380 Q415 396 416.5 412 Q418 428 418 443 Q418 467 414.5 490 Q411 513 400.5 531 Q390 549 371 560 Q352 571 321 571 Q262 571 230 531.5 Q198 492 198 428 Q198 389 217 364 Q236 339 288 339 Z " />
<glyph glyph-name="colon" unicode="&#x3a;" horiz-adv-x="251" d="M119 141 Q147 141 164.5 122 Q182 103 182 75 Q182 57 175.5 41.5 Q169 26 158 14.5 Q147 3 132 -3.5 Q117 -10 101 -10 Q72 -10 54 9.5 Q36 29 36 58 Q36 76 43 91 Q50 106 61.5 117.5 Q73 129 88 135 Q103 141 119 141 Z M155 439 Q184 439 201.5 420.5 Q219 402 219 373 Q219 355 212 339.5 Q205 324 194 312.5 Q183 301 168 294.5 Q153 288 137 288 Q108 288 90 308 Q72 328 72 357 Q72 375 79 390 Q86 405 98 416 Q110 427 125 433 Q140 439 155 439 Z " />
<glyph glyph-name="semicolon" unicode="&#x3b;" horiz-adv-x="251" d="M116 141 Q149 141 166 118 Q183 95 183 63 Q183 35 170 6.5 Q157 -22 136.5 -47.5 Q116 -73 90.5 -94 Q65 -115 39 -128 L10 -84 Q36 -64 52.5 -44 Q69 -24 76 5 Q57 9 46 23.5 Q35 38 35 60 Q35 92 56.5 116.5 Q78 141 116 141 Z M155 439 Q184 439 201.5 420.5 Q219 402 219 373 Q219 355 212 339.5 Q205 324 194 312.5 Q183 301 168 294.5 Q153 288 137 288 Q108 288 90 308 Q72 328 72 357 Q72 375 79 390 Q86 405 98 416 Q110 427 125 433 Q140 439 155 439 Z " />
<glyph glyph-name="less" unicode="&#x3c;" horiz-adv-x="579" d="M486 47 L81 263 L90 335 L547 551 L535 450 L202 298 Q213 292 236.5 280.5 Q260 269 289 253.5 Q318 238 350 221.5 Q382 205 411 189.5 Q440 174 463 162 Q486 150 498 144 L486 47 Z " />
<glyph glyph-name="equal" unicode="&#x3d;" horiz-adv-x="579" d="M100 340 L110 421 L521 421 L511 340 L100 340 Z M80 180 L90 260 L502 260 L491 180 L80 180 Z " />
<glyph glyph-name="greater" unicode="&#x3e;" horiz-adv-x="579" d="M67 147 L402 300 Q390 306 367 318 Q344 330 314.5 344.5 Q285 359 253 376 Q221 393 192 407.5 Q163 422 139.5 434 Q116 446 105 452 L117 551 L522 335 L513 263 L55 47 L67 147 Z " />
<glyph glyph-name="question" unicode="&#x3f;" horiz-adv-x="481" d="M307 709 Q398 709 445.5 670 Q493 631 493 568 Q493 537 484.5 512 Q476 487 461 466 Q446 445 426.5 426.5 Q407 408 385 392 Q351 367 326.5 348 Q302 329 286.5 311 Q271 293 263.5 274 Q256 255 256 230 L256 197 L148 183 Q146 199 145 213.5 Q144 228 144 240 Q144 273 153 300 Q162 327 179 350.5 Q196 374 220.5 396 Q245 418 276 441 Q307 464 329 489 Q351 514 351 546 Q351 570 332.5 587.5 Q314 605 268 605 Q249 605 227 602 Q205 599 184 593 L173 511 L80 511 L100 672 Q159 693 212.5 701 Q266 709 307 709 Z M212 127 Q241 127 258.5 109 Q276 91 276 65 Q276 30 251.5 9 Q227 -12 196 -12 Q168 -12 150.5 5 Q133 22 133 48 Q133 79 155 103 Q177 127 212 127 Z " />
<glyph glyph-name="at" unicode="&#x40;" horiz-adv-x="921" d="M632 154 Q578 154 549 178 Q520 202 520 249 Q520 254 520 258.5 Q520 263 521 268 Q519 268 518 267 Q504 234 486 213 Q468 192 449 181 Q430 170 412 166 Q394 162 382 162 Q332 162 301.5 194.5 Q271 227 271 293 Q271 345 283.5 391.5 Q296 438 320.5 472.5 Q345 507 381.5 527 Q418 547 466 547 Q486 547 510 541.5 Q534 536 556 527 L574 549 L644 542 Q638 510 631 474 Q624 438 619 403 Q614 368 610.5 337 Q607 306 607 285 Q607 259 617 243 Q627 227 653 227 Q671 227 692 237.5 Q713 248 731.5 270.5 Q750 293 762.5 329 Q775 365 775 415 Q775 523 709.5 583.5 Q644 644 525 644 Q450 644 385 617.5 Q320 591 272 545.5 Q224 500 196.5 438 Q169 376 169 304 Q169 246 185 197.5 Q201 149 233.5 113.5 Q266 78 314 58.5 Q362 39 425 39 Q448 39 482 42.5 Q516 46 559 60 L577 0 Q539 -18 495 -25 Q451 -32 416 -32 Q336 -32 274.5 -7.5 Q213 17 171.5 61 Q130 105 108.5 165 Q87 225 87 297 Q87 387 121.5 464 Q156 541 216 597.5 Q276 654 357 686 Q438 718 530 718 Q604 718 664.5 697.5 Q725 677 768 638.5 Q811 600 834.5 545 Q858 490 858 422 Q858 360 839.5 310.5 Q821 261 789.5 226.5 Q758 192 717 173 Q676 154 632 154 Z M415 235 Q426 235 439 242 Q452 249 465.5 265.5 Q479 282 493 309.5 Q507 337 521 378 Q525 400 528 420 Q531 440 536 462 Q516 469 500 471.5 Q484 474 472 474 Q443 474 423.5 457.5 Q404 441 392 416 Q380 391 375 361.5 Q370 332 370 307 Q370 271 382.5 253 Q395 235 415 235 Z " />
<glyph glyph-name="A" unicode="A" horiz-adv-x="714" d="M473 190 L236 190 L194 94 L257 94 L246 0 L-6 0 L4 94 L60 94 L334 688 L505 688 L628 94 L681 94 L670 0 L419 0 L429 94 L491 94 L473 190 Z M351 454 L277 282 L457 282 L427 448 L406 576 L403 576 L351 454 Z " />
<glyph glyph-name="B" unicode="B" horiz-adv-x="665" d="M533 360 Q561 350 579.5 333.5 Q598 317 608 297 Q618 277 622 255.5 Q626 234 626 215 Q626 163 607.5 123 Q589 83 557 55.5 Q525 28 483 14 Q441 0 393 0 L15 0 Q16 7 17.5 20 Q19 33 21 47 Q23 61 24.5 74 Q26 87 27 94 L96 94 L157 594 L90 594 L102 687 L459 687 Q554 687 598 643 Q642 599 642 529 Q642 505 637 481.5 Q632 458 619.5 436 Q607 414 586 394.5 Q565 375 533 361 L533 360 Z M261 309 Q258 286 254.5 258 Q251 230 247.5 201 Q244 172 241 144 Q238 116 235 94 L356 94 Q419 94 449.5 128.5 Q480 163 480 217 Q480 254 456.5 281.5 Q433 309 383 309 L261 309 Z M296 594 L272 397 L381 397 Q435 397 466.5 429 Q498 461 498 510 Q498 548 476 571 Q454 594 405 594 L296 594 Z " />
<glyph glyph-name="C" unicode="C" horiz-adv-x="604" d="M429 701 Q482 701 527 693.5 Q572 686 607 673 L583 480 L484 480 L496 581 Q481 585 461.5 588 Q442 591 422 591 Q367 591 327 568.5 Q287 546 260.5 505.5 Q234 465 221.5 409 Q209 353 209 286 Q209 193 251.5 152 Q294 111 388 111 Q400 111 418 112.5 Q436 114 457 116.5 Q478 119 499.5 123 Q521 127 541 132 L559 26 Q538 18 511 11 Q484 4 455 -0.5 Q426 -5 397 -7.5 Q368 -10 343 -10 Q263 -10 209.5 11 Q156 32 123 69.5 Q90 107 76 159 Q62 211 62 273 Q62 318 68 367.5 Q74 417 89.5 464.5 Q105 512 131.5 555 Q158 598 199 630.5 Q240 663 296.5 682 Q353 701 429 701 Z " />
<glyph glyph-name="D" unicode="D" horiz-adv-x="707" d="M17 0 L27 94 L98 94 L159 594 L93 594 L105 688 L408 688 Q486 688 538 666 Q590 644 621 605.5 Q652 567 665 515.5 Q678 464 678 404 Q678 324 659 250.5 Q640 177 599 121.5 Q558 66 492 33 Q426 0 332 0 L17 0 Z M299 594 L238 94 L320 94 Q350 94 386.5 106.5 Q423 119 455 152.5 Q487 186 509 245.5 Q531 305 531 399 Q531 460 517 498 Q503 536 481.5 557.5 Q460 579 433 586.5 Q406 594 380 594 L299 594 Z " />
<glyph glyph-name="E" unicode="E" horiz-adv-x="630" d="M17 0 L27 94 L95 94 L156 594 L91 594 L102 687 L641 687 L616 489 L518 489 L531 594 L295 594 L271 400 L486 405 L475 308 L260 313 L234 94 L488 94 L502 204 L602 204 L577 0 L17 0 Z " />
<glyph glyph-name="F" unicode="F" horiz-adv-x="614" d="M17 0 L27 94 L96 94 L157 594 L91 594 L102 687 L637 687 L612 489 L514 489 L527 594 L296 594 L272 400 L484 404 L473 308 L261 313 L234 94 L325 94 L314 0 L17 0 Z " />
<glyph glyph-name="G" unicode="G" horiz-adv-x="669" d="M441 701 Q495 701 542 693.5 Q589 686 624 673 L602 484 L503 484 L515 583 Q499 588 477.5 590.5 Q456 593 435 593 Q377 593 334.5 569.5 Q292 546 264 504.5 Q236 463 222.5 406 Q209 349 209 283 Q209 197 243.5 149.5 Q278 102 362 102 Q382 102 406 105 Q430 108 450 114 L470 276 L390 276 L400 361 L654 361 L644 276 L595 276 L565 27 Q508 7 451.5 -1.5 Q395 -10 341 -10 Q262 -10 208.5 12 Q155 34 122.5 72 Q90 110 76 161.5 Q62 213 62 273 Q62 318 68.5 367.5 Q75 417 91.5 464.5 Q108 512 135.5 555 Q163 598 205 630.5 Q247 663 305 682 Q363 701 441 701 Z " />
<glyph glyph-name="H" unicode="H" horiz-adv-x="762" d="M429 0 L441 94 L501 94 L527 312 L260 312 L234 94 L295 94 L284 0 L17 0 L27 94 L94 94 L156 594 L89 594 L100 688 L367 688 L356 594 L295 594 L271 403 L538 403 L562 594 L501 594 L513 688 L780 688 L769 594 L702 594 L641 94 L707 94 L697 0 L429 0 Z " />
<glyph glyph-name="I" unicode="I" horiz-adv-x="406" d="M43 0 L54 94 L120 94 L181 594 L115 594 L127 688 L397 688 L385 594 L320 594 L258 94 L324 94 L313 0 L43 0 Z " />
<glyph glyph-name="J" unicode="J" horiz-adv-x="424" d="M116 688 L439 688 L428 594 L342 594 L288 160 Q279 89 258 31.5 Q237 -26 199 -69 Q161 -112 104 -140 Q47 -168 -33 -181 L-58 -83 Q3 -62 41 -38.5 Q79 -15 101 14 Q123 43 133 78 Q143 113 149 155 L203 594 L105 595 L116 688 Z " />
<glyph glyph-name="K" unicode="K" horiz-adv-x="699" d="M438 416 L619 95 L674 95 L663 0 L402 0 L414 95 L470 95 L335 335 L250 264 L229 94 L290 94 L279 0 L17 0 L27 94 L94 94 L155 594 L89 594 L100 687 L365 687 L354 594 L290 594 L266 391 L508 594 L454 594 L465 687 L721 687 L710 594 L651 594 L438 416 Z " />
<glyph glyph-name="L" unicode="L" horiz-adv-x="606" d="M17 0 L27 94 L96 94 L157 594 L91 594 L102 687 L379 687 L367 594 L297 594 L235 94 L478 94 L493 220 L593 220 L566 0 L17 0 Z " />
<glyph glyph-name="M" unicode="M" horiz-adv-x="934" d="M475 245 L523 338 Q549 387 574.5 435 Q600 483 626 531 L709 687 L952 687 Q949 664 945.5 640 Q942 616 940 593 L878 593 Q863 468 848 343.5 Q833 219 817 93 L878 93 L867 0 L614 0 Q616 23 618.5 46.5 Q621 70 624 93 L682 93 L731 498 L729 498 Q718 478 707.5 457 Q697 436 686 416 L614 282 Q589 236 564 190.5 Q539 145 515 100 L399 100 L348 258 L274 498 L271 498 L222 93 L284 93 Q281 70 278 46.5 Q275 23 273 0 L15 0 L26 93 L94 93 L154 593 L88 593 Q90 616 93 640 Q96 664 99 687 L336 687 L387 522 Q400 484 411.5 445 Q423 406 435 366 L470 245 L475 245 Z " />
<glyph glyph-name="N" unicode="N" horiz-adv-x="790" d="M553 204 L601 593 L534 593 L546 687 L806 687 Q803 664 800 640 Q797 616 795 593 L730 593 Q712 444 694 296.5 Q676 149 657 0 L523 0 Q494 56 467 111 Q440 166 413 221 Q409 229 395 257 Q381 285 365.5 317 Q350 349 335.5 377 Q321 405 317 414 Q306 436 295 458 Q284 480 274 503 Q273 503 272.5 502.5 Q272 502 271 502 Q258 399 245.5 297.5 Q233 196 221 93 L288 93 Q285 70 282 46.5 Q279 23 277 0 L15 0 L26 93 L93 93 Q107 219 123 343 Q139 467 154 593 L88 593 Q90 616 93 640 Q96 664 99 687 L314 687 L407 498 L503 297 L548 204 L553 204 Z " />
<glyph glyph-name="O" unicode="O" horiz-adv-x="718" d="M414 700 Q489 700 541 677.5 Q593 655 626 615.5 Q659 576 674 522.5 Q689 469 689 406 Q689 317 666 241 Q643 165 599 109.5 Q555 54 490 22 Q425 -10 341 -10 Q268 -10 215.5 10.5 Q163 31 129 68.5 Q95 106 78.5 158.5 Q62 211 62 276 Q62 359 83 436 Q104 513 147.5 571.5 Q191 630 257.5 665 Q324 700 414 700 Z M408 599 Q351 599 312.5 570 Q274 541 250.5 494.5 Q227 448 217 389.5 Q207 331 207 273 Q207 185 240.5 138.5 Q274 92 349 92 Q401 92 437.5 117.5 Q474 143 497.5 187 Q521 231 531.5 289 Q542 347 542 412 Q542 450 536 484 Q530 518 515 543.5 Q500 569 474 584 Q448 599 408 599 Z " />
<glyph glyph-name="P" unicode="P" horiz-adv-x="614" d="M418 688 Q523 688 572.5 639 Q622 590 622 503 Q622 460 608 417.5 Q594 375 564 341.5 Q534 308 487.5 287 Q441 266 377 266 L253 266 L231 94 L317 94 L306 0 L17 0 L27 94 L93 94 L154 594 L89 594 L100 688 L418 688 Z M293 594 L264 357 L353 357 Q377 357 399 365.5 Q421 374 438 391 Q455 408 465 433.5 Q475 459 475 494 Q475 545 450 569.5 Q425 594 381 594 L293 594 Z " />
<glyph glyph-name="Q" unicode="Q" horiz-adv-x="720" d="M414 700 Q489 700 541 677.5 Q593 655 626 615.5 Q659 576 674 522.5 Q689 469 689 406 Q689 280 644 181.5 Q599 83 512 35 L652 -4 L595 -115 L299 -5 Q237 0 192 22 Q147 44 118 80.5 Q89 117 75.5 166.5 Q62 216 62 276 Q62 359 83 436 Q104 513 147.5 571.5 Q191 630 257.5 665 Q324 700 414 700 Z M408 599 Q351 599 312.5 570 Q274 541 250.5 494.5 Q227 448 217 389.5 Q207 331 207 273 Q207 185 240.5 138.5 Q274 92 349 92 Q401 92 437.5 117.5 Q474 143 497.5 187 Q521 231 531.5 289 Q542 347 542 412 Q542 450 536 484 Q530 518 515 543.5 Q500 569 474 584 Q448 599 408 599 Z " />
<glyph glyph-name="R" unicode="R" horiz-adv-x="668" d="M291 594 L265 375 L362 375 Q384 375 406 381.5 Q428 388 445.5 402.5 Q463 417 474 441 Q485 465 485 500 Q485 549 460.5 571.5 Q436 594 392 594 L291 594 Z M253 285 L231 94 L301 94 L290 0 L19 0 L29 94 L93 94 L154 594 L91 594 L103 688 L434 688 Q537 688 584.5 639.5 Q632 591 632 512 Q632 482 624.5 451 Q617 420 600.5 392.5 Q584 365 557.5 343 Q531 321 493 309 L564 94 L640 84 L642 4 Q628 -1 611 -4 Q594 -7 577 -9 Q560 -11 545.5 -12 Q531 -13 522 -13 Q481 -13 463 5.5 Q445 24 434 60 L365 285 L253 285 Z " />
<glyph glyph-name="S" unicode="S" horiz-adv-x="596" d="M350 596 Q297 596 262 570.5 Q227 545 227 495 Q227 476 238 461.5 Q249 447 267.5 436.5 Q286 426 309.5 417.5 Q333 409 357 402 Q398 390 435 377 Q472 364 499.5 343.5 Q527 323 543.5 292.5 Q560 262 560 216 Q560 158 538 115.5 Q516 73 476 45 Q436 17 379.5 3 Q323 -11 255 -11 Q229 -11 199 -8.5 Q169 -6 138 0 Q107 6 78 16 Q49 26 24 41 L42 200 L140 200 L130 118 Q159 105 194.5 100 Q230 95 256 95 Q330 95 367 123 Q404 151 404 196 Q404 220 394.5 236 Q385 252 365.5 263 Q346 274 317 283 Q288 292 250 302 Q211 313 179 327.5 Q147 342 125 362.5 Q103 383 91 410.5 Q79 438 79 476 Q79 530 99 571.5 Q119 613 155 641 Q191 669 241.5 683.5 Q292 698 352 698 Q373 698 400.5 696 Q428 694 456.5 688.5 Q485 683 512 675 Q539 667 561 655 L541 498 L443 498 L453 579 Q427 589 400 592.5 Q373 596 350 596 Z " />
<glyph glyph-name="T" unicode="T" horiz-adv-x="611" d="M133 0 L144 94 L223 94 L285 594 L162 594 L149 484 L51 484 L76 688 L653 688 L628 484 L530 484 L544 594 L422 594 L361 94 L441 94 L430 0 L133 0 Z " />
<glyph glyph-name="U" unicode="U" horiz-adv-x="734" d="M650 253 Q642 192 621 143.5 Q600 95 563.5 61 Q527 27 474.5 9 Q422 -9 350 -9 Q273 -9 220.5 10 Q168 29 137.5 64 Q107 99 96.5 149 Q86 199 94 262 L135 594 L79 594 L90 688 L345 688 L335 594 L272 594 L229 247 Q211 92 356 92 Q420 92 462 129.5 Q504 167 514 247 L557 594 L495 594 L507 688 L762 688 L750 594 L692 594 L650 253 Z " />
<glyph glyph-name="V" unicode="V" horiz-adv-x="694" d="M407 281 L539 593 L479 593 L490 688 L743 688 L732 593 L677 593 L410 0 L239 0 L112 593 L60 593 L71 688 L325 688 L314 593 L254 593 L311 281 L338 123 L342 123 L407 281 Z " />
<glyph glyph-name="W" unicode="W" horiz-adv-x="1011" d="M529 381 L488 281 L371 0 L197 0 L114 593 L59 593 L71 688 L334 688 L323 593 L262 593 L298 278 L313 130 L315 130 L374 277 L484 549 L476 593 L416 593 L428 688 L688 688 L677 593 L610 593 L667 275 L691 144 L693 144 L743 287 L850 593 L788 593 L800 688 L1062 688 L1050 593 L992 593 Q982 566 964 519.5 Q946 473 924 416 Q902 359 878 297 Q854 235 832 178 Q810 121 792 74 Q774 27 765 0 L598 0 L548 283 L533 381 L529 381 Z " />
<glyph glyph-name="X" unicode="X" horiz-adv-x="685" d="M469 688 L721 688 L710 593 L657 593 L453 348 L591 95 L653 95 L643 0 L362 0 L374 95 L431 95 L335 280 L192 95 L256 95 L245 0 L-8 0 L3 95 L50 95 L264 367 L144 593 L74 593 L86 688 L364 688 L352 593 L298 593 L382 429 L514 593 L458 593 L469 688 Z " />
<glyph glyph-name="Y" unicode="Y" horiz-adv-x="646" d="M491 593 L431 593 L443 688 L693 688 L681 593 L632 593 L403 272 L382 94 L457 94 L447 0 L146 0 L156 94 L233 94 L254 270 L109 593 L60 593 L71 688 L318 688 L306 593 L248 593 L339 369 L343 369 L491 593 Z " />
<glyph glyph-name="Z" unicode="Z" horiz-adv-x="590" d="M186 94 L452 94 L468 220 L567 220 L540 0 L-1 0 L10 93 L419 595 L194 595 L179 483 L81 483 L107 688 L607 688 L597 598 L186 94 Z " />
<glyph glyph-name="bracketleft" unicode="&#x5b;" horiz-adv-x="302" d="M15 -159 Q21 -106 30 -36.5 Q39 33 48.5 110.5 Q58 188 68 269.5 Q78 351 87.5 428.5 Q97 506 105.5 575.5 Q114 645 121 699 L328 699 L318 620 L226 620 Q220 575 213.5 517.5 Q207 460 199 397 Q191 334 183 268 Q175 202 167 139.5 Q159 77 152 20 Q145 -37 139 -82 L231 -82 Q230 -88 229 -99 Q228 -110 227 -121 Q226 -132 224.5 -142.5 Q223 -153 222 -159 L15 -159 Z " />
<glyph glyph-name="backslash" unicode="&#x5c;" horiz-adv-x="360" d="M69 706 L163 706 L323 -33 L229 -33 L69 706 Z " />
<glyph glyph-name="bracketright" unicode="&#x5d;" horiz-adv-x="302" d="M-7 -159 Q-6 -153 -5 -142.5 Q-4 -132 -2.5 -121 Q-1 -110 0.5 -99 Q2 -88 3 -82 L93 -82 Q99 -37 106 20 Q113 77 120.5 139.5 Q128 202 136.5 268 Q145 334 152.5 397 Q160 460 167 517 Q174 574 180 620 L88 620 Q88 626 89.5 637 Q91 648 92.5 659.5 Q94 671 95 682 Q96 693 97 699 L304 699 L199 -159 L-7 -159 Z " />
<glyph glyph-name="asciicircum" unicode="&#x5e;" horiz-adv-x="471" d="M374 357 L280 578 L130 357 L37 357 L258 680 L323 680 L463 357 L374 357 Z " />
<glyph glyph-name="underscore" unicode="&#x5f;" horiz-adv-x="485" d="M-43 -145 L-34 -75 L451 -75 L442 -145 L-43 -145 Z " />
<glyph glyph-name="grave" unicode="&#x60;" horiz-adv-x="539" d="M186 696 L263 767 L389 588 L341 544 L186 696 Z " />
<glyph glyph-name="a" unicode="a" horiz-adv-x="605" d="M303 500 Q361 500 422 471 L445 500 L542 494 Q524 379 509 277.5 Q494 176 486 95 Q507 97 524 103 Q541 109 561 119 Q562 116 566 107.5 Q570 99 575 88.5 Q580 78 584 69.5 Q588 61 590 58 Q574 43 554 30 Q534 17 513 7 Q492 -3 472 -8.5 Q452 -14 435 -14 Q396 -14 378.5 4 Q361 22 358 52 Q357 69 359 86.5 Q361 104 364 123 L359 123 Q337 84 314 58 Q291 32 268 16.5 Q245 1 221.5 -5 Q198 -11 175 -11 Q113 -11 76.5 31 Q40 73 40 159 Q40 229 56.5 291 Q73 353 106 399.5 Q139 446 188.5 473 Q238 500 303 500 Z M233 84 Q249 84 267 93 Q285 102 303 123.5 Q321 145 339.5 181 Q358 217 375 271 L394 384 Q368 393 346.5 396 Q325 399 310 399 Q271 399 245 377.5 Q219 356 203 323.5 Q187 291 180.5 252.5 Q174 214 174 181 Q174 132 190.5 108 Q207 84 233 84 Z " />
<glyph glyph-name="b" unicode="b" horiz-adv-x="572" d="M224 376 Q268 448 314.5 474.5 Q361 501 403 501 Q464 501 501 458.5 Q538 416 538 330 Q538 261 521 199 Q504 137 469.5 90.5 Q435 44 383 17 Q331 -10 262 -10 Q243 -10 219 -7.5 Q195 -5 167.5 1 Q140 7 110.5 16.5 Q81 26 53 40 L45 55 Q55 130 64.5 200.5 Q74 271 82.5 341 Q91 411 98.5 480.5 Q106 550 114 624 L20 639 L25 703 Q74 717 114.5 722.5 Q155 728 186 728 Q228 728 241 712 Q254 696 254 667 Q254 661 252.5 642.5 Q251 624 248 598 Q245 572 241.5 541 Q238 510 234 480 Q230 450 226 422.5 Q222 395 219 377 L224 376 Z M342 402 Q326 402 308 393 Q290 384 271.5 362 Q253 340 235 304.5 Q217 269 201 216 L185 106 Q210 97 229.5 94 Q249 91 264 91 Q304 91 330.5 112 Q357 133 373 165.5 Q389 198 396 236 Q403 274 403 307 Q403 357 385.5 379.5 Q368 402 342 402 Z " />
<glyph glyph-name="c" unicode="c" horiz-adv-x="484" d="M310 501 Q325 501 341 499.5 Q357 498 372.5 495.5 Q388 493 400.5 489.5 Q413 486 420 483 Q442 475 451.5 463 Q461 451 461 431 Q461 422 458 407.5 Q455 393 450.5 375.5 Q446 358 439.5 340.5 Q433 323 427 308 L356 312 L359 397 Q350 400 337 401.5 Q324 403 310 403 Q276 403 251 386.5 Q226 370 209.5 342 Q193 314 185 276.5 Q177 239 177 198 Q177 147 199.5 120 Q222 93 273 93 Q303 93 332.5 98 Q362 103 400 114 L426 31 Q408 22 385 15 Q362 8 336.5 2.5 Q311 -3 285 -6 Q259 -9 235 -9 Q180 -9 142.5 4.5 Q105 18 82.5 43 Q60 68 50 102 Q40 136 40 177 Q40 234 52.5 292 Q65 350 96 396.5 Q127 443 179 472 Q231 501 310 501 Z " />
<glyph glyph-name="d" unicode="d" horiz-adv-x="608" d="M308 499 Q331 499 355.5 493.5 Q380 488 405 480 L422 623 L324 638 L328 703 Q378 717 419 722.5 Q460 728 489 728 Q532 728 546 709.5 Q560 691 560 661 Q560 654 556.5 626.5 Q553 599 547.5 557 Q542 515 534.5 460.5 Q527 406 519 345 Q511 284 502.5 220 Q494 156 487 95 Q507 97 527 103.5 Q547 110 565 119 L593 59 Q577 44 557 30.5 Q537 17 515.5 7 Q494 -3 472.5 -8.5 Q451 -14 431 -14 Q390 -14 374.5 6.5 Q359 27 359 62 Q359 77 361 91.5 Q363 106 366 123 L361 123 Q338 82 315 56 Q292 30 268.5 15 Q245 0 221.5 -5.5 Q198 -11 175 -11 Q114 -11 77 31 Q40 73 40 159 Q40 231 57 293 Q74 355 108 400.5 Q142 446 192 472.5 Q242 499 308 499 Z M233 84 Q249 84 266.5 93 Q284 102 303 123.5 Q322 145 341 181 Q360 217 378 271 L394 384 Q368 393 346.5 396 Q325 399 311 399 Q271 399 244.5 377.5 Q218 356 202 323.5 Q186 291 179.5 252.5 Q173 214 173 181 Q173 131 189.5 107.5 Q206 84 233 84 Z " />
<glyph glyph-name="e" unicode="e" horiz-adv-x="506" d="M321 503 Q390 503 433 468 Q476 433 476 369 Q476 294 404 248 Q332 202 173 193 Q172 188 172 182.5 Q172 177 172 172 Q172 155 175.5 139 Q179 123 189.5 111 Q200 99 217.5 91.5 Q235 84 264 84 Q299 84 337.5 93 Q376 102 411 116 L436 40 Q394 17 338.5 4 Q283 -9 232 -9 Q173 -9 135.5 6.5 Q98 22 77 49 Q56 76 48 111.5 Q40 147 40 187 Q40 241 53.5 297 Q67 353 99.5 398.5 Q132 444 186 473.5 Q240 503 321 503 Z M301 407 Q246 407 214.5 367 Q183 327 176 257 Q354 265 354 354 Q354 377 341.5 392 Q329 407 301 407 Z " />
<glyph glyph-name="f" unicode="f" horiz-adv-x="401" d="M342 732 Q367 732 397.5 728.5 Q428 725 462 714 L440 623 Q417 628 398 630 Q379 632 364 632 Q345 632 329 626.5 Q313 621 300.5 607 Q288 593 279 568.5 Q270 544 266 506 L262 474 L397 474 L387 388 L251 388 Q242 313 234.5 239.5 Q227 166 219 91 Q211 26 199 -30.5 Q187 -87 163 -128.5 Q139 -170 98.5 -194 Q58 -218 -6 -218 Q-31 -218 -59.5 -214.5 Q-88 -211 -120 -200 L-98 -114 Q-73 -119 -58 -120 Q-43 -121 -27 -121 Q19 -121 43 -87.5 Q67 -54 78 26 Q86 86 93 144 Q100 202 105.5 250.5 Q111 299 115 335 Q119 371 121 388 L36 388 Q36 391 37 401.5 Q38 412 39.5 424 Q41 436 42.5 446.5 Q44 457 45 460 L131 481 L138 531 Q144 572 157.5 608.5 Q171 645 194.5 672.5 Q218 700 254 716 Q290 732 342 732 Z " />
<glyph glyph-name="g" unicode="g" horiz-adv-x="567" d="M316 498 Q358 497 414.5 487.5 Q471 478 525 452 L532 437 L483 52 Q479 27 475 -3.5 Q471 -34 461.5 -64.5 Q452 -95 435.5 -123.5 Q419 -152 390.5 -174 Q362 -196 318.5 -209.5 Q275 -223 213 -223 Q187 -223 161 -219.5 Q135 -216 111 -210 Q87 -204 67 -196.5 Q47 -189 32 -181 L67 -89 Q107 -105 143 -112 Q179 -119 211 -119 Q250 -119 274.5 -108 Q299 -97 314.5 -77 Q330 -57 338 -27.5 Q346 2 351 39 Q351 41 352.5 53 Q354 65 356 79 Q358 93 359.5 104.5 Q361 116 361 117 Q361 118 359.5 118 Q358 118 357 119 Q314 48 267 21.5 Q220 -5 177 -5 Q116 -5 78.5 36.5 Q41 78 41 165 Q41 234 58 295 Q75 356 109 401 Q143 446 195 472 Q247 498 316 498 Z M236 91 Q252 91 270 100.5 Q288 110 306.5 131.5 Q325 153 343.5 189 Q362 225 378 279 L393 384 Q367 393 347.5 396 Q328 399 312 399 Q272 399 245.5 378.5 Q219 358 203 326.5 Q187 295 180.5 258 Q174 221 174 187 Q174 137 191.5 114 Q209 91 236 91 Z " />
<glyph glyph-name="h" unicode="h" horiz-adv-x="631" d="M433 502 Q494 502 518 472.5 Q542 443 542 389 Q542 367 533.5 294 Q525 221 511 95 Q548 98 586 116 L612 56 Q573 20 528.5 2.5 Q484 -15 453 -15 Q406 -15 389.5 5 Q373 25 373 60 Q373 67 373.5 73.5 Q374 80 375 88 Q385 171 391 219.5 Q397 268 400 294 Q403 320 403.5 330 Q404 340 404 346 Q404 369 394.5 383.5 Q385 398 363 398 Q348 398 329.5 388.5 Q311 379 292 358 Q273 337 255 303 Q237 269 222 221 L192 0 L58 0 Q67 68 77 152 Q87 236 97.5 320.5 Q108 405 117 484.5 Q126 564 132 623 L38 638 L44 702 Q94 716 134.5 721.5 Q175 727 205 727 Q247 727 261.5 712.5 Q276 698 276 670 Q276 661 272.5 625 Q269 589 263.5 543 Q258 497 252 449.5 Q246 402 241 371 L245 370 Q267 407 293 432.5 Q319 458 344.5 473.5 Q370 489 393 495.5 Q416 502 433 502 Z " />
<glyph glyph-name="i" unicode="i" horiz-adv-x="353" d="M202 502 Q242 502 256 489 Q270 476 270 450 Q270 445 267 420 Q264 395 260 360 Q256 325 250.5 284 Q245 243 240 205.5 Q235 168 231 138 Q227 108 226 95 Q245 97 265 102 Q285 107 303 116 L330 56 Q292 21 247 3 Q202 -15 170 -15 Q123 -15 105.5 6 Q88 27 88 61 Q88 67 88.5 73.5 Q89 80 90 88 L130 398 L47 412 L51 477 Q100 491 138 496.5 Q176 502 202 502 Z M215 718 Q245 718 266 696.5 Q287 675 287 643 Q287 607 263.5 581 Q240 555 202 555 Q172 555 151 575.5 Q130 596 130 626 Q130 667 154.5 692.5 Q179 718 215 718 Z " />
<glyph glyph-name="j" unicode="j" horiz-adv-x="318" d="M196 502 Q236 502 251.5 489 Q267 476 267 450 Q267 446 265 426 Q263 406 260 375.5 Q257 345 253 308 Q249 271 244.5 232.5 Q240 194 236 158.5 Q232 123 229 97 Q221 31 204.5 -23 Q188 -77 157.5 -118 Q127 -159 80.5 -186.5 Q34 -214 -33 -227 L-56 -142 Q-10 -122 17 -98.5 Q44 -75 59 -46.5 Q74 -18 81 17 Q88 52 93 94 L125 398 L42 412 L47 477 Q96 491 133 496.5 Q170 502 196 502 Z M211 718 Q241 718 262 696.5 Q283 675 283 643 Q283 607 259.5 581 Q236 555 197 555 Q168 555 146.5 575.5 Q125 596 125 626 Q125 667 149.5 692.5 Q174 718 211 718 Z " />
<glyph glyph-name="k" unicode="k" horiz-adv-x="540" d="M187 730 Q225 730 239.5 713 Q254 696 254 668 Q254 660 251.5 638.5 Q249 617 245 587 Q241 557 236 521 Q231 485 225 448.5 Q219 412 213.5 376.5 Q208 341 203 312 L207 312 Q230 348 258.5 382 Q287 416 317.5 442.5 Q348 469 380.5 485.5 Q413 502 444 502 Q481 502 500.5 480.5 Q520 459 527 430 L482 387 Q460 398 437 398 Q402 398 370 376.5 Q338 355 303 316 Q318 285 337 249 Q356 213 374.5 181 Q393 149 408.5 123.5 Q424 98 433 88 Q457 94 472 103 Q487 112 500 122 L539 74 Q519 49 497.5 32 Q476 15 456.5 4.5 Q437 -6 420.5 -10.5 Q404 -15 393 -15 Q372 -15 355 -6.5 Q338 2 320 26.5 Q302 51 280 96 Q258 141 226 213 Q212 190 199.5 168 Q187 146 176 123 L159 0 L28 0 Q50 157 72 317 Q94 477 111 625 Q104 626 92 627.5 Q80 629 67.5 630.5 Q55 632 43 634 Q31 636 24 637 L28 701 Q75 715 116.5 722.5 Q158 730 187 730 Z " />
<glyph glyph-name="l" unicode="l" horiz-adv-x="327" d="M203 728 Q241 728 256.5 715.5 Q272 703 272 676 Q272 662 268 622.5 Q264 583 257.5 529.5 Q251 476 243 413.5 Q235 351 227 291.5 Q219 232 212.5 180 Q206 128 202 95 Q243 98 279 116 L307 56 Q269 21 225 3 Q181 -15 149 -15 Q102 -15 83.5 4.5 Q65 24 65 60 Q65 67 65.5 73.5 Q66 80 67 88 L133 624 L39 639 L43 703 Q93 717 134.5 722.5 Q176 728 203 728 Z " />
<glyph glyph-name="m" unicode="m" horiz-adv-x="909" d="M537 358 Q559 398 584.5 426 Q610 454 634.5 471 Q659 488 681 495.5 Q703 503 720 503 Q774 503 800 472.5 Q826 442 826 389 Q826 366 817 294.5 Q808 223 794 96 Q814 97 831 102.5 Q848 108 867 117 L893 57 Q855 21 811.5 3.5 Q768 -14 736 -14 Q689 -14 673.5 5 Q658 24 658 59 Q658 64 658 72 Q658 80 660 88 Q668 155 673.5 200.5 Q679 246 682 276 Q685 306 686.5 323 Q688 340 688 349 Q688 369 680.5 384 Q673 399 650 399 Q618 399 583.5 354 Q549 309 522 216 Q520 198 515.5 162.5 Q511 127 506.5 91 Q502 55 498.5 27.5 Q495 0 495 0 L363 0 Q375 107 382.5 171 Q390 235 394 271.5 Q398 308 399.5 323.5 Q401 339 401 348 Q401 368 393 382.5 Q385 397 362 397 Q330 397 296.5 353.5 Q263 310 235 216 L207 0 L73 0 Q82 68 88 117.5 Q94 167 99.5 210 Q105 253 110 296.5 Q115 340 121 397 L34 412 L38 476 Q88 491 124.5 496.5 Q161 502 190 502 Q231 502 243.5 487.5 Q256 473 256 449 Q256 434 253 410.5 Q250 387 246 357 L251 357 Q275 400 300 428.5 Q325 457 349 473 Q373 489 395 495.5 Q417 502 434 502 Q490 502 512 470.5 Q534 439 534 387 Q534 381 534 374 Q534 367 533 358 L537 358 Z " />
<glyph glyph-name="n" unicode="n" horiz-adv-x="639" d="M450 501 Q507 501 531.5 468 Q556 435 556 379 Q556 357 547 282 Q538 207 525 95 Q544 96 561 101.5 Q578 107 597 116 Q598 113 602 104.5 Q606 96 610.5 85.5 Q615 75 618.5 66.5 Q622 58 624 55 Q604 37 581.5 24 Q559 11 537 2.5 Q515 -6 495.5 -10 Q476 -14 461 -14 Q417 -14 402.5 4 Q388 22 388 57 Q388 62 389 74 Q390 86 391 94 Q396 143 401 185.5 Q406 228 409.5 261 Q413 294 415.5 316 Q418 338 418 347 Q418 367 409 382 Q400 397 378 397 Q343 397 303.5 353.5 Q264 310 235 215 L206 0 L73 0 Q82 68 88 117 Q94 166 99.5 209 Q105 252 110 295.5 Q115 339 122 396 L34 411 L38 476 Q88 490 124.5 495.5 Q161 501 190 501 Q231 501 243 487 Q255 473 255 446 Q255 430 252.5 407 Q250 384 246 357 L250 357 Q274 400 302 428 Q330 456 357 472 Q384 488 408.5 494.5 Q433 501 450 501 Z " />
<glyph glyph-name="o" unicode="o" horiz-adv-x="555" d="M312 501 Q369 501 409 485 Q449 469 475 440.5 Q501 412 513 373.5 Q525 335 525 290 Q525 236 509.5 182.5 Q494 129 461 86.5 Q428 44 376 17.5 Q324 -9 251 -9 Q194 -9 154 6.5 Q114 22 88.5 49.5 Q63 77 51.5 114.5 Q40 152 40 196 Q40 254 56 308.5 Q72 363 105 406 Q138 449 189.5 475 Q241 501 312 501 Z M304 402 Q266 402 241 380 Q216 358 201.5 326 Q187 294 181.5 256.5 Q176 219 176 188 Q176 167 180 148.5 Q184 130 194 116 Q204 102 220.5 94 Q237 86 262 86 Q299 86 323 106 Q347 126 361 157 Q375 188 380.5 224.5 Q386 261 386 293 Q386 315 382 335 Q378 355 369 370 Q360 385 344 393.5 Q328 402 304 402 Z " />
<glyph glyph-name="p" unicode="p" horiz-adv-x="596" d="M-12 -118 L51 -118 Q58 -57 66 9.5 Q74 76 82 142.5 Q90 209 98 274 Q106 339 112 396 L24 410 L29 475 Q67 488 108 494.5 Q149 501 184 501 Q223 501 235.5 485.5 Q248 470 246 441 Q245 433 242.5 413 Q240 393 235 356 L240 356 Q285 436 334 467 Q383 498 429 498 Q488 498 524 455 Q560 412 560 322 Q560 252 543.5 191 Q527 130 494 85 Q461 40 411.5 14 Q362 -12 297 -12 Q274 -12 249.5 -7 Q225 -2 200 6 Q197 -20 192 -55.5 Q187 -91 184 -118 L264 -118 L254 -209 L-23 -209 L-12 -118 Z M368 394 Q352 394 333.5 385.5 Q315 377 296.5 355.5 Q278 334 259.5 298 Q241 262 224 208 L209 103 Q234 94 255.5 90.5 Q277 87 292 87 Q331 87 357 107.5 Q383 128 398.5 159.5 Q414 191 420.5 227 Q427 263 427 295 Q427 346 410.5 370 Q394 394 368 394 Z " />
<glyph glyph-name="q" unicode="q" horiz-adv-x="574" d="M260 -119 L332 -119 Q341 -34 348 23.5 Q355 81 361 112 L356 113 Q312 42 265 15 Q218 -12 176 -12 Q115 -12 77.5 30 Q40 72 40 159 Q40 228 57.5 290 Q75 352 109.5 398.5 Q144 445 196 472 Q248 499 317 499 Q335 499 360 497 Q385 495 412.5 489.5 Q440 484 469.5 475 Q499 466 527 452 L534 438 Q531 417 525.5 373 Q520 329 513.5 273 Q507 217 499.5 156 Q492 95 485.5 40 Q479 -15 474.5 -57.5 Q470 -100 468 -119 L534 -119 L524 -211 L250 -211 L260 -119 Z M235 85 Q251 85 269 94 Q287 103 306 125 Q325 147 343 183 Q361 219 378 272 L393 384 Q367 394 347.5 396.5 Q328 399 313 399 Q273 399 246.5 377.5 Q220 356 204 324 Q188 292 181 253.5 Q174 215 174 182 Q174 131 191 108 Q208 85 235 85 Z " />
<glyph glyph-name="r" unicode="r" horiz-adv-x="473" d="M193 501 Q234 501 246.5 487 Q259 473 259 445 Q259 431 256 406.5 Q253 382 249 356 L252 356 Q270 404 289 433 Q308 462 327 477 Q346 492 364.5 497 Q383 502 400 502 Q438 502 458 478.5 Q478 455 482 424 L422 352 Q405 362 389.5 365 Q374 368 361 368 Q319 368 285.5 319 Q252 270 229 174 Q226 153 223 129 Q220 105 217 81.5 Q214 58 211.5 36.5 Q209 15 207 0 L75 0 Q90 118 103.5 219.5 Q117 321 125 396 L44 411 Q44 414 44.5 423.5 Q45 433 45.5 443.5 Q46 454 47 463.5 Q48 473 48 476 Q98 490 131 495.5 Q164 501 193 501 Z " />
<glyph glyph-name="s" unicode="s" horiz-adv-x="492" d="M212 -9 Q130 -9 78.5 11.5 Q27 32 27 72 Q27 91 38 121 Q49 151 67 177 L134 174 L131 90 Q145 83 166 80 Q187 77 207 77 Q226 77 245 80.5 Q264 84 278.5 91 Q293 98 302 109 Q311 120 311 135 Q311 150 302 161 Q293 172 278 181 Q263 190 244 198 Q225 206 205 214 Q176 226 150 239.5 Q124 253 104.5 269 Q85 285 73.5 305 Q62 325 62 350 Q62 387 79 415.5 Q96 444 125.5 463.5 Q155 483 195.5 493 Q236 503 284 503 Q311 503 341 498.5 Q371 494 395.5 485 Q420 476 436 462 Q452 448 452 428 Q452 419 448 405 Q444 391 438 376 Q432 361 424.5 346.5 Q417 332 410 321 L345 325 L348 402 Q324 414 286 414 Q270 414 255 411.5 Q240 409 228 403 Q216 397 209 386.5 Q202 376 202 361 Q202 348 212 337.5 Q222 327 238 318 Q254 309 273.5 301 Q293 293 312 285 Q337 274 361.5 261.5 Q386 249 405.5 232.5 Q425 216 437 194.5 Q449 173 450 145 Q450 108 433 79.5 Q416 51 384.5 31.5 Q353 12 309 1.5 Q265 -9 212 -9 Z " />
<glyph glyph-name="t" unicode="t" horiz-adv-x="411" d="M270 626 L254 491 L396 491 Q395 484 393.5 472 Q392 460 390.5 446.5 Q389 433 387.5 421 Q386 409 385 403 L245 403 L216 175 Q215 169 214.5 163 Q214 157 214 152 Q214 125 227 113 Q240 101 270 101 Q282 101 307.5 104 Q333 107 359 114 L377 19 Q360 12 338.5 7 Q317 2 295 -1.5 Q273 -5 254 -6.5 Q235 -8 224 -8 Q146 -8 111 22.5 Q76 53 76 116 Q76 137 79 158 L110 403 L40 403 L48 477 L129 497 L179 616 L270 626 Z " />
<glyph glyph-name="u" unicode="u" horiz-adv-x="635" d="M197 501 Q235 501 248 483 Q261 465 261 434 Q261 423 258.5 400 Q256 377 253 348.5 Q250 320 245.5 288.5 Q241 257 238 229 Q235 201 232.5 178.5 Q230 156 230 145 Q230 122 238.5 108.5 Q247 95 270 95 Q286 95 304 104.5 Q322 114 341 136 Q360 158 377.5 193 Q395 228 410 278 L439 490 L567 490 Q554 394 541 292 Q528 190 516 94 Q537 95 555 100.5 Q573 106 591 114 L618 55 Q599 37 578 24.5 Q557 12 536 3.5 Q515 -5 495.5 -9 Q476 -13 461 -13 Q421 -13 405 5 Q389 23 389 49 Q389 66 391 86 Q393 106 395 122 L390 122 Q367 83 341.5 57.5 Q316 32 290.5 17 Q265 2 241 -4 Q217 -10 198 -10 Q90 -10 90 92 Q90 136 100 209.5 Q110 283 124 398 L35 412 L41 475 Q89 489 128.5 495 Q168 501 197 501 Z " />
<glyph glyph-name="v" unicode="v" horiz-adv-x="574" d="M150 503 Q171 503 184.5 496 Q198 489 206 475.5 Q214 462 218 443.5 Q222 425 225 403 L258 114 L264 114 Q289 142 314 177.5 Q339 213 360 251 Q381 289 395.5 328 Q410 367 414 402 L346 388 L329 447 Q367 473 405.5 489 Q444 505 477 505 Q509 505 529 489 Q549 473 549 435 Q549 399 536.5 358 Q524 317 503 275.5 Q482 234 454.5 192.5 Q427 151 397 114.5 Q367 78 335.5 47 Q304 16 276 -5 L147 -5 L95 391 L28 375 L7 433 Q49 468 86 485.5 Q123 503 150 503 Z " />
<glyph glyph-name="w" unicode="w" horiz-adv-x="813" d="M391 174 Q390 174 390 174.5 Q390 175 389 175 Q375 147 357 119 Q339 91 321 67 Q303 43 286.5 24 Q270 5 258 -5 L132 -5 Q123 93 114.5 193 Q106 293 95 391 Q78 387 61.5 382.5 Q45 378 28 374 Q23 388 18 402.5 Q13 417 8 431 Q53 466 92 483.5 Q131 501 162 501 Q173 501 183 498.5 Q193 496 201.5 488.5 Q210 481 215.5 467 Q221 453 224 430 Q232 356 236.5 274 Q241 192 246 116 L252 116 Q270 137 288.5 163 Q307 189 323.5 217 Q340 245 354.5 272.5 Q369 300 378 323 Q376 343 375 357.5 Q374 372 372 392 L311 376 L290 433 Q331 465 368.5 483.5 Q406 502 435 502 Q471 502 482.5 479 Q494 456 497 403 L513 110 L519 110 Q543 139 566 174.5 Q589 210 608 248 Q627 286 640 325.5 Q653 365 657 401 Q641 398 625.5 395 Q610 392 594 388 L579 446 Q620 474 656 489.5 Q692 505 731 505 Q753 503 770.5 488 Q788 473 788 432 Q788 379 763.5 316 Q739 253 701.5 192 Q664 131 619 78.5 Q574 26 532 -5 L404 -5 Q401 39 398 84 Q395 129 391 174 Z " />
<glyph glyph-name="x" unicode="x" horiz-adv-x="554" d="M100 -18 Q97 -18 94 -18.5 Q91 -19 88 -19 Q70 -2 52.5 17 Q35 36 17 56 Q17 61 17.5 64.5 Q18 68 18 72 Q64 116 109 159 Q154 202 202 246 Q185 281 170 315.5 Q155 350 139 385 L61 364 Q54 378 47.5 393 Q41 408 33 422 Q80 464 120.5 480.5 Q161 497 191 497 Q216 497 228.5 486.5 Q241 476 249 461 Q258 442 265 427 Q272 412 278.5 398 Q285 384 292 369.5 Q299 355 308 337 Q340 377 371 417.5 Q402 458 434 498 L448 498 L521 424 Q521 415 520 410 L351 249 L418 102 Q440 105 458.5 113 Q477 121 496 132 L541 77 Q520 49 497 31 Q474 13 453 3 Q432 -7 413 -11 Q394 -15 380 -15 Q354 -15 336 -2 Q318 11 303.5 34.5 Q289 58 275.5 89.5 Q262 121 245 159 Q210 114 173.5 69.5 Q137 25 100 -18 Z " />
<glyph glyph-name="y" unicode="y" horiz-adv-x="570" d="M470 503 Q505 503 521 479 Q537 455 537 401 Q537 337 515 265.5 Q493 194 454.5 124 Q416 54 363 -10 Q310 -74 248 -123 Q186 -172 117.5 -201 Q49 -230 -21 -230 Q-37 -230 -55 -226 Q-73 -222 -88.5 -213 Q-104 -204 -114 -189 Q-124 -174 -124 -151 Q-124 -143 -123 -138 L-79 -103 Q-52 -123 -31 -127 Q-10 -131 11 -131 Q59 -131 113 -109 Q167 -87 211 -42 Q200 9 187 68.5 Q174 128 160.5 187 Q147 246 134 298.5 Q121 351 111 387 Q92 383 74 379.5 Q56 376 38 371 Q33 385 28 400 Q23 415 18 429 Q60 465 99 481.5 Q138 498 163 498 Q189 498 203.5 488.5 Q218 479 225 449 Q232 419 242 370.5 Q252 322 262.5 268 Q273 214 283 161 Q293 108 300 69 Q326 100 346.5 141.5 Q367 183 381.5 227.5 Q396 272 404 316 Q412 360 412 396 Q395 393 378.5 390 Q362 387 345 383 L329 444 Q366 473 402 488 Q438 503 470 503 Z " />
<glyph glyph-name="z" unicode="z" horiz-adv-x="512" d="M14 71 L315 404 L159 404 L122 311 L55 317 L66 438 Q67 455 74 465 Q81 475 90 480.5 Q99 486 109 488 Q119 490 127 490 L479 490 L489 421 L185 85 L378 85 L423 188 L483 184 L467 49 Q465 33 457.5 23.5 Q450 14 440.5 8.5 Q431 3 420.5 1.5 Q410 0 403 0 L24 0 L14 71 Z " />
<glyph glyph-name="braceleft" unicode="&#x7b;" horiz-adv-x="309" d="M168 -166 Q133 -166 112 -155 Q91 -144 80.5 -125 Q70 -106 68 -81.5 Q66 -57 69 -30 L92 156 Q94 174 93 189 Q92 204 86 216 Q80 228 68 236 Q56 244 35 249 L44 322 Q115 335 125 419 L146 579 Q149 605 156 627.5 Q163 650 177 667 Q191 684 213.5 693.5 Q236 703 271 703 L357 703 L347 625 L319 625 Q286 625 273.5 605.5 Q261 586 258 559 L239 406 Q234 362 216 330 Q198 298 157 289 L157 287 Q180 279 191.5 264.5 Q203 250 207.5 231.5 Q212 213 211.5 192 Q211 171 208 151 L186 -24 Q184 -36 184 -48 Q184 -60 188 -69 Q192 -78 201 -84 Q210 -90 227 -90 L260 -90 Q257 -109 255 -128 Q253 -147 250 -166 L168 -166 Z " />
<glyph glyph-name="bar" unicode="&#x7c;" horiz-adv-x="301" d="M110 -146 L110 707 L202 707 L202 -146 L110 -146 Z " />
<glyph glyph-name="braceright" unicode="&#x7d;" horiz-adv-x="315" d="M164 704 Q199 704 220 693 Q241 682 251.5 663 Q262 644 264 619.5 Q266 595 263 568 L242 413 Q237 378 247.5 353.5 Q258 329 299 320 L290 247 Q219 234 209 150 L186 -41 Q183 -67 176 -89.5 Q169 -112 155 -129 Q141 -146 118 -155.5 Q95 -165 61 -165 L-25 -165 L-15 -87 L13 -87 Q46 -87 58.5 -67.5 Q71 -48 74 -21 L95 163 Q100 206 118 238.5 Q136 271 177 280 L177 282 Q154 290 142 304.5 Q130 319 125.5 337.5 Q121 356 122 377 Q123 398 126 418 L146 562 Q147 574 147.5 586 Q148 598 144 607 Q140 616 131 622 Q122 628 105 628 L72 628 Q75 647 77 666 Q79 685 82 704 L164 704 Z " />
<glyph glyph-name="asciitilde" unicode="&#x7e;" horiz-adv-x="579" d="M403 231 Q372 231 342.5 238 Q313 245 286 254 Q259 263 235 270 Q211 277 191 277 L118 230 L75 268 Q103 324 138 349 Q173 374 213 374 Q238 374 266 367 Q294 360 322 351.5 Q350 343 377 336 Q404 329 428 329 L498 377 L541 340 Q515 288 480.5 259.5 Q446 231 403 231 Z " />
<glyph glyph-name="endash" unicode="&#x2013;" horiz-adv-x="485" d="M39 214 L49 300 L460 300 L449 214 L39 214 Z " />
<glyph glyph-name="emdash" unicode="&#x2014;" horiz-adv-x="970" d="M49 214 L59 300 L930 300 L920 214 L49 214 Z " />
<glyph glyph-name="quoteleft" unicode="&#x2018;" horiz-adv-x="248" d="M159 451 Q124 451 107 473.5 Q90 496 90 527 Q90 555 102 585 Q114 615 134 642 Q154 669 181 691 Q208 713 237 727 L265 682 Q239 662 222.5 640 Q206 618 199 588 Q240 575 240 529 Q240 498 217 474.5 Q194 451 159 451 Z " />
<glyph glyph-name="quoteright" unicode="&#x2019;" horiz-adv-x="248" d="M192 727 Q226 727 242.5 705 Q259 683 259 652 Q259 623 247.5 593.5 Q236 564 216 537 Q196 510 169 487.5 Q142 465 112 451 L85 496 Q112 516 128 538.5 Q144 561 151 590 Q130 596 120.5 610.5 Q111 625 111 646 Q111 678 132.5 702.5 Q154 727 192 727 Z " />
<glyph glyph-name="quotedblleft" unicode="&#x201c;" horiz-adv-x="408" d="M161 451 Q126 451 109.5 473.5 Q93 496 93 527 Q93 555 105 585 Q117 615 137.5 642 Q158 669 185 691 Q212 713 241 727 L268 682 Q242 662 225.5 640 Q209 618 202 588 Q243 575 243 529 Q243 514 237 499.5 Q231 485 220 474.5 Q209 464 194 457.5 Q179 451 161 451 Z M331 451 Q296 451 279.5 473.5 Q263 496 263 527 Q263 555 275 585 Q287 615 307 642 Q327 669 353.5 691 Q380 713 409 727 L437 682 Q411 662 395 640 Q379 618 371 588 Q392 582 401.5 567 Q411 552 411 530 Q411 499 389 475 Q367 451 331 451 Z " />
<glyph glyph-name="quotedblright" unicode="&#x201d;" horiz-adv-x="408" d="M356 727 Q391 727 408 704.5 Q425 682 425 652 Q425 623 413 593.5 Q401 564 381 537 Q361 510 334.5 487.5 Q308 465 278 451 L251 496 Q277 516 293 538.5 Q309 561 316 590 Q276 602 276 646 Q276 678 297.5 702.5 Q319 727 356 727 Z M190 727 Q225 727 241.5 705 Q258 683 258 652 Q258 623 246.5 593.5 Q235 564 214.5 537 Q194 510 167.5 487.5 Q141 465 111 451 L84 496 Q110 516 126 538.5 Q142 561 149 590 Q128 596 118.5 610.5 Q109 625 109 646 Q109 678 130.5 702.5 Q152 727 190 727 Z " />
<glyph glyph-name="bullet" unicode="&#x2022;" horiz-adv-x="385" d="M324 278 Q324 250 313 225.5 Q302 201 284 182.5 Q266 164 241.5 153 Q217 142 190 142 Q165 142 143 151.5 Q121 161 105 178 Q89 195 79.5 217 Q70 239 70 265 Q70 293 81 317.5 Q92 342 110.5 360.5 Q129 379 153 389.5 Q177 400 204 400 Q229 400 251 390.5 Q273 381 289 364.5 Q305 348 314.5 325.5 Q324 303 324 278 Z " />
<glyph glyph-name="quotesinglbase" unicode="&#x201a;" horiz-adv-x="254" d="M113 141 Q148 141 165 117 Q182 93 180 59 Q179 31 166 3 Q153 -25 132.5 -49.5 Q112 -74 87 -94.5 Q62 -115 36 -128 L8 -84 Q34 -64 50 -44 Q66 -24 73 5 Q53 10 42 25.5 Q31 41 32 63 Q34 94 56 117.5 Q78 141 113 141 Z " />
<glyph glyph-name="quotedblbase" unicode="&#x201e;" horiz-adv-x="428" d="M137 141 Q172 141 189 117 Q206 93 204 59 Q203 31 190 3 Q177 -25 156.5 -49.5 Q136 -74 111 -94.5 Q86 -115 60 -128 L32 -84 Q58 -64 74 -44 Q90 -24 97 5 Q77 10 66 25.5 Q55 41 57 63 Q57 94 79.5 117.5 Q102 141 137 141 Z M312 141 Q347 141 364 117 Q381 93 380 59 Q378 31 365 3 Q352 -25 332 -49.5 Q312 -74 286.5 -94.5 Q261 -115 235 -128 L207 -84 Q233 -64 249 -44 Q265 -24 272 5 Q252 10 241 25.5 Q230 41 231 63 Q233 94 255 117.5 Q277 141 312 141 Z " />
<glyph glyph-name="alpha" unicode="&#x3b1;" horiz-adv-x="605" d="M303 500 Q361 500 422 471 L445 500 L542 494 Q524 379 509 277.5 Q494 176 486 95 Q507 97 524 103 Q541 109 561 119 Q562 116 566 107.5 Q570 99 575 88.5 Q580 78 584 69.5 Q588 61 590 58 Q574 43 554 30 Q534 17 513 7 Q492 -3 472 -8.5 Q452 -14 435 -14 Q396 -14 378.5 4 Q361 22 358 52 Q357 69 359 86.5 Q361 104 364 123 L359 123 Q337 84 314 58 Q291 32 268 16.5 Q245 1 221.5 -5 Q198 -11 175 -11 Q113 -11 76.5 31 Q40 73 40 159 Q40 229 56.5 291 Q73 353 106 399.5 Q139 446 188.5 473 Q238 500 303 500 Z M233 84 Q249 84 267 93 Q285 102 303 123.5 Q321 145 339.5 181 Q358 217 375 271 L394 384 Q368 393 346.5 396 Q325 399 310 399 Q271 399 245 377.5 Q219 356 203 323.5 Q187 291 180.5 252.5 Q174 214 174 181 Q174 132 190.5 108 Q207 84 233 84 Z " />
<glyph glyph-name="beta" unicode="&#x3b2;" horiz-adv-x="555" d="M1 -207 Q10 -141 18.5 -71 Q27 -1 37 77 Q47 155 57.5 244.5 Q68 334 82 441 Q89 506 107 557.5 Q125 609 155 645 Q185 681 228 700 Q271 719 328 719 Q379 719 415 707 Q451 695 474.5 673.5 Q498 652 508.5 623 Q519 594 519 560 Q519 533 511 508.5 Q503 484 490 463.5 Q477 443 460 427.5 Q443 412 425 404 L425 403 Q478 384 498.5 344 Q519 304 519 259 Q519 197 500 147.5 Q481 98 448 63 Q415 28 370.5 9 Q326 -10 275 -10 Q242 -10 210.5 -4 Q179 2 161 11 Q153 -48 146.5 -106.5 Q140 -165 135 -207 L1 -207 Z M251 353 L260 436 L297 436 Q314 436 331 442.5 Q348 449 361.5 463 Q375 477 383.5 498.5 Q392 520 392 550 Q392 579 374.5 596.5 Q357 614 322 614 Q308 614 292 609.5 Q276 605 262 593 Q248 581 237.5 560 Q227 539 223 506 L173 106 Q197 94 221 90 Q245 86 262 86 Q317 86 352 132.5 Q387 179 387 258 Q387 304 363 328.5 Q339 353 287 353 L251 353 Z " />
<glyph glyph-name="gamma" unicode="&#x3b3;" horiz-adv-x="580" d="M267 182 Q285 246 309 304.5 Q333 363 362.5 407 Q392 451 426 477 Q460 503 499 503 Q528 503 552 490.5 Q576 478 587 455 L560 396 Q552 400 545.5 401 Q539 402 534 402 Q509 402 484 383 Q459 364 436 331.5 Q413 299 392 257 Q371 215 352.5 168.5 Q334 122 318.5 74 Q303 26 291 -17 Q289 -74 288.5 -121.5 Q288 -169 280 -218 L267 -233 Q218 -235 184 -224.5 Q150 -214 128 -200 Q136 -156 148.5 -107.5 Q161 -59 178 -5 L105 392 L38 376 L18 433 Q61 468 102 485.5 Q143 503 171 503 Q205 503 220.5 486.5 Q236 470 239 424 L263 182 L267 182 Z " />
<glyph glyph-name="delta" unicode="&#x3b4;" horiz-adv-x="551" d="M301 394 Q265 389 241 367 Q217 345 202.5 315 Q188 285 182 251 Q176 217 176 186 Q176 166 180 148 Q184 130 194 116.5 Q204 103 220.5 95 Q237 87 262 87 Q297 87 320 103.5 Q343 120 357 146 Q371 172 377 204 Q383 236 383 267 Q383 320 359.5 350 Q336 380 301 394 Z M348 715 Q376 715 404.5 711 Q433 707 456 698 Q479 689 493.5 674.5 Q508 660 508 640 Q508 623 500 592 Q492 561 478 529 L405 532 L407 615 Q396 620 381.5 623 Q367 626 353 626 Q338 626 322.5 623 Q307 620 295 613.5 Q283 607 275 595 Q267 583 267 565 Q267 554 273.5 545 Q280 536 289.5 528.5 Q299 521 310.5 514.5 Q322 508 333 504 Q375 484 409.5 463.5 Q444 443 468.5 416 Q493 389 506.5 353 Q520 317 520 268 Q520 221 505.5 172 Q491 123 459 83 Q427 43 376.5 17 Q326 -9 255 -9 Q198 -9 157.5 6 Q117 21 91 48 Q65 75 52.5 112 Q40 149 40 192 Q40 235 50 276 Q60 317 80 352 Q100 387 130 414 Q160 441 201 455 Q168 476 149.5 500.5 Q131 525 131 558 Q131 597 147.5 626.5 Q164 656 193 675.5 Q222 695 261.5 705 Q301 715 348 715 Z " />
<glyph glyph-name="epsilon" unicode="&#x3b5;" horiz-adv-x="476" d="M284 503 Q366 503 417 483 Q445 472 452 458.5 Q459 445 457 429 Q457 424 455 413.5 Q453 403 449.5 388.5 Q446 374 440.5 358.5 Q435 343 429 328 L355 333 L355 405 Q323 414 293 414 Q256 414 230 396.5 Q204 379 204 343 Q204 328 211 318.5 Q218 309 229 304 Q240 299 254 297 Q268 295 282 295 L326 295 L321 224 L271 224 Q257 224 240 220.5 Q223 217 209 208.5 Q195 200 185.5 185.5 Q176 171 176 149 Q176 114 203 100 Q230 86 277 86 Q308 86 344.5 92.5 Q381 99 418 110 L443 34 Q423 23 397.5 15 Q372 7 344.5 1.5 Q317 -4 289 -7 Q261 -10 237 -10 Q142 -10 90.5 24 Q39 58 38 124 Q38 175 66.5 208.5 Q95 242 137 255 L139 259 Q107 270 87.5 294.5 Q68 319 68 352 Q68 384 82.5 411.5 Q97 439 124.5 459.5 Q152 480 192 491.5 Q232 503 284 503 Z " />
<glyph glyph-name="zeta" unicode="&#x3b6;" horiz-adv-x="433" d="M176 542 L102 549 L112 662 Q113 678 120 688.5 Q127 699 136 704.5 Q145 710 155 712 Q165 714 173 714 L506 714 L521 634 Q440 572 377 510.5 Q314 449 270.5 392.5 Q227 336 203.5 288 Q180 240 179 205 Q178 187 185 172.5 Q192 158 208.5 145 Q225 132 251 119.5 Q277 107 315 92 Q340 83 361.5 73.5 Q383 64 399.5 52.5 Q416 41 425 26.5 Q434 12 433 -8 Q432 -31 419 -54.5 Q406 -78 386 -100.5 Q366 -123 341.5 -144.5 Q317 -166 294 -185 L240 -129 Q259 -108 271 -93.5 Q283 -79 289.5 -69 Q296 -59 298 -53.5 Q300 -48 300 -44 Q301 -24 257 -10 Q198 11 156.5 29 Q115 47 89 67.5 Q63 88 51 115 Q39 142 40 181 Q41 218 63 268.5 Q85 319 126.5 377.5 Q168 436 229 499 Q290 562 369 624 L368 627 L209 627 L176 542 Z " />
<glyph glyph-name="eta" unicode="&#x3b7;" horiz-adv-x="609" d="M450 501 Q507 501 531.5 470 Q556 439 556 379 Q556 372 553.5 348 Q551 324 547 289 Q543 254 538 211 Q533 168 528 123 Q523 78 517.5 34 Q512 -10 508 -47 Q528 -45 545 -39.5 Q562 -34 581 -26 L607 -86 Q587 -104 564.5 -117 Q542 -130 520.5 -138.5 Q499 -147 479.5 -151 Q460 -155 445 -155 Q403 -155 387.5 -137 Q372 -119 372 -85 Q372 -80 372 -72 Q372 -64 373 -55 Q379 9 387 77 Q395 145 401.5 202 Q408 259 413 298.5 Q418 338 418 347 Q418 367 409 382 Q400 397 378 397 Q343 397 303.5 353.5 Q264 310 235 215 L206 0 L73 0 Q82 68 88 117 Q94 166 99.5 209 Q105 252 110 295.5 Q115 339 122 396 L34 411 L38 476 Q88 490 124.5 495.5 Q161 501 190 501 Q231 501 243 487 Q255 473 255 446 Q255 430 252.5 407 Q250 384 246 357 L250 357 Q274 400 302 428 Q330 456 357 472 Q384 488 408.5 494.5 Q433 501 450 501 Z " />
<glyph glyph-name="theta" unicode="&#x3b8;" horiz-adv-x="557" d="M334 722 Q391 722 429.5 702 Q468 682 491.5 647 Q515 612 524.5 565 Q534 518 534 463 Q534 377 519.5 292.5 Q505 208 471 141 Q437 74 382 32.5 Q327 -9 245 -9 Q186 -9 147 10.5 Q108 30 84.5 64 Q61 98 51 145 Q41 192 41 246 Q41 302 47.5 359.5 Q54 417 68.5 469.5 Q83 522 105.5 568 Q128 614 160.5 648.5 Q193 683 236 702.5 Q279 722 334 722 Z M178 328 Q173 290 171 258 Q169 226 169 201 Q169 144 188 115.5 Q207 87 256 87 Q287 87 310 106.5 Q333 126 348.5 159 Q364 192 374 235.5 Q384 279 389 328 L178 328 Z M398 412 Q404 457 404 495 Q404 550 386.5 586.5 Q369 623 322 623 Q290 623 267.5 606.5 Q245 590 229.5 561.5 Q214 533 204.5 494.5 Q195 456 189 412 L398 412 Z " />
<glyph glyph-name="upsilon" unicode="&#x3c5;" horiz-adv-x="613" d="M196 501 Q231 501 246 488.5 Q261 476 261 449 Q261 442 258.5 418 Q256 394 252 361 Q248 328 244 291 Q240 254 236 221.5 Q232 189 229.5 165.5 Q227 142 227 137 Q227 114 236.5 100.5 Q246 87 271 87 Q304 87 333 118 Q362 149 385 196 Q408 243 423 299 Q438 355 441 405 L378 393 L365 450 Q402 481 440 495.5 Q478 510 504 510 Q535 510 556 495.5 Q577 481 577 442 Q577 404 569 355.5 Q561 307 544 256.5 Q527 206 500 158 Q473 110 435 72.5 Q397 35 347 12 Q297 -11 234 -11 Q193 -11 166.5 -1 Q140 9 124 25.5 Q108 42 102 64.5 Q96 87 96 112 Q96 120 98 145.5 Q100 171 103 209 Q106 247 111 295.5 Q116 344 122 398 L33 411 L39 476 Q88 490 127 495.5 Q166 501 196 501 Z " />
<glyph glyph-name="omega" unicode="&#x3c9;" horiz-adv-x="770" d="M458 334 L439 172 Q438 167 438 158 Q438 129 452 109.5 Q466 90 497 90 Q545 90 575 140.5 Q605 191 605 291 Q605 329 590.5 361 Q576 393 538 414 L576 499 Q621 489 651.5 469.5 Q682 450 700.5 422.5 Q719 395 727 361 Q735 327 735 289 Q735 233 721.5 179.5 Q708 126 679 84.5 Q650 43 605 17.5 Q560 -8 496 -8 Q451 -8 416.5 10 Q382 28 366 65 L362 65 Q336 28 296 10 Q256 -8 213 -8 Q161 -8 127 7.5 Q93 23 73 49.5 Q53 76 45 111.5 Q37 147 37 188 Q37 244 49 296 Q61 348 88 389.5 Q115 431 158 460 Q201 489 263 500 L285 414 Q251 400 228.5 375.5 Q206 351 193 320.5 Q180 290 174.5 255 Q169 220 169 184 Q169 142 185 116 Q201 90 241 90 Q279 90 299.5 114 Q320 138 324 172 L343 334 L458 334 Z " />
<glyph glyph-name="rho" unicode="&#x3c1;" horiz-adv-x="563" d="M262 91 Q284 91 307 100 Q330 109 349 131 Q368 153 380 190.5 Q392 228 392 285 Q392 321 383.5 343.5 Q375 366 362 378.5 Q349 391 333.5 396 Q318 401 303 401 Q277 401 257 390.5 Q237 380 223.5 362 Q210 344 201.5 319.5 Q193 295 189 266 L168 111 Q186 101 211 96 Q236 91 262 91 Z M46 204 Q64 353 126.5 427 Q189 501 307 501 Q362 501 403 485.5 Q444 470 471.5 441.5 Q499 413 513 373.5 Q527 334 527 286 Q527 221 510.5 166.5 Q494 112 462.5 73 Q431 34 385.5 12 Q340 -10 281 -10 Q269 -10 252.5 -8.5 Q236 -7 219 -4.5 Q202 -2 185.5 2.5 Q169 7 156 13 L129 -207 L-4 -207 L46 204 Z " />
<glyph glyph-name="xi" unicode="&#x3be;" horiz-adv-x="467" d="M346 722 Q361 722 380.5 720.5 Q400 719 422 715.5 Q444 712 465 706.5 Q486 701 504 694 Q498 671 491.5 648 Q485 625 479 601 Q437 614 401 618 Q365 622 342 622 Q282 622 253 591.5 Q224 561 224 516 Q224 477 253.5 457 Q283 437 331 437 L427 437 Q425 414 422 390 Q419 366 416 343 L322 343 Q284 343 255.5 331.5 Q227 320 208.5 301.5 Q190 283 180.5 258.5 Q171 234 171 208 Q171 188 179 171.5 Q187 155 204 140.5 Q221 126 247.5 112 Q274 98 312 83 Q351 67 377.5 54 Q404 41 420 28 Q436 15 442.5 1.5 Q449 -12 449 -28 Q449 -73 413 -119.5 Q377 -166 320 -212 Q304 -199 288.5 -184 Q273 -169 258 -155 Q290 -118 304 -97.5 Q318 -77 318 -67 Q318 -55 301.5 -42.5 Q285 -30 236 -10 Q197 5 161.5 22.5 Q126 40 98.5 63 Q71 86 54.5 116.5 Q38 147 38 188 Q38 259 73.5 313.5 Q109 368 174 393 Q87 431 87 528 Q87 569 104.5 604.5 Q122 640 155.5 666 Q189 692 237 707 Q285 722 346 722 Z " />
<glyph glyph-name="nu" unicode="&#x3bd;" horiz-adv-x="574" d="M150 503 Q171 503 184.5 496 Q198 489 206 475.5 Q214 462 218 443.5 Q222 425 225 403 L258 114 L264 114 Q289 142 314 177.5 Q339 213 360 251 Q381 289 395.5 328 Q410 367 414 402 L346 388 L329 447 Q367 473 405.5 489 Q444 505 477 505 Q509 505 529 489 Q549 473 549 435 Q549 399 536.5 358 Q524 317 503 275.5 Q482 234 454.5 192.5 Q427 151 397 114.5 Q367 78 335.5 47 Q304 16 276 -5 L147 -5 L95 391 L28 375 L7 433 Q49 468 86 485.5 Q123 503 150 503 Z " />
<glyph glyph-name="omicron" unicode="&#x3bf;" horiz-adv-x="555" d="M312 501 Q369 501 409 485 Q449 469 475 440.5 Q501 412 513 373.5 Q525 335 525 290 Q525 236 509.5 182.5 Q494 129 461 86.5 Q428 44 376 17.5 Q324 -9 251 -9 Q194 -9 154 6.5 Q114 22 88.5 49.5 Q63 77 51.5 114.5 Q40 152 40 196 Q40 254 56 308.5 Q72 363 105 406 Q138 449 189.5 475 Q241 501 312 501 Z M304 402 Q266 402 241 380 Q216 358 201.5 326 Q187 294 181.5 256.5 Q176 219 176 188 Q176 167 180 148.5 Q184 130 194 116 Q204 102 220.5 94 Q237 86 262 86 Q299 86 323 106 Q347 126 361 157 Q375 188 380.5 224.5 Q386 261 386 293 Q386 315 382 335 Q378 355 369 370 Q360 385 344 393.5 Q328 402 304 402 Z " />
<glyph glyph-name="Euro" unicode="&#x20ac;" horiz-adv-x="579" d="M46 356 Q48 381 52 406 L100 406 Q109 460 131.5 509 Q154 558 192.5 595.5 Q231 633 287 655 Q343 677 419 677 Q468 677 511.5 669 Q555 661 587 650 L567 495 L476 495 L485 563 Q471 568 453 570 Q435 572 416 572 Q342 572 295.5 528 Q249 484 234 406 L466 406 Q464 393 462.5 380.5 Q461 368 459 356 L46 356 Z M453 311 L448 262 L217 262 L217 241 Q217 169 252 134 Q287 99 375 99 Q388 99 407.5 100.5 Q427 102 446 106 Q448 121 450 136 Q452 151 454 165 L544 165 Q539 128 534.5 91.5 Q530 55 526 18 Q488 5 440 -1.5 Q392 -8 349 -8 Q275 -8 224.5 11.5 Q174 31 142.5 66.5 Q111 102 97 152 Q83 202 83 262 L34 262 Q36 275 37 287 Q38 299 40 311 L453 311 Z " />
<glyph glyph-name="Phi" unicode="&#x3a6;" horiz-adv-x="804" d="M548 687 L542 641 Q613 636 665.5 613.5 Q718 591 753 556 Q788 521 805.5 475.5 Q823 430 823 378 Q823 314 796 259 Q769 204 721.5 163 Q674 122 610 96.5 Q546 71 472 67 L464 0 L329 0 L337 67 Q269 70 216 89.5 Q163 109 126 142 Q89 175 70 220 Q51 265 51 320 Q51 380 77 436.5 Q103 493 149.5 537 Q196 581 261.5 609.5 Q327 638 407 642 L413 687 L548 687 Z M395 538 Q349 534 310 516.5 Q271 499 243 471.5 Q215 444 199.5 408 Q184 372 184 330 Q184 260 227 219 Q270 178 349 169 L395 538 Z M484 169 Q526 173 563.5 189 Q601 205 629 231 Q657 257 673.5 292.5 Q690 328 690 371 Q690 403 680.5 432 Q671 461 651.5 483.5 Q632 506 602 520.5 Q572 535 531 538 L484 169 Z " />
<glyph glyph-name="Omega" unicode="&#x3a9;" horiz-adv-x="732" d="M420 700 Q495 700 548 678.5 Q601 657 635 618.5 Q669 580 684.5 527.5 Q700 475 700 414 Q700 370 691 321.5 Q682 273 665.5 229 Q649 185 626 148.5 Q603 112 576 93 L683 93 Q679 70 676.5 46.5 Q674 23 671 0 L392 0 L404 97 Q440 107 469 134 Q498 161 518 202 Q538 243 549 296.5 Q560 350 560 413 Q560 498 524 548 Q488 598 414 598 Q360 598 321.5 571 Q283 544 258.5 498 Q234 452 222.5 390.5 Q211 329 211 260 Q211 194 235.5 151.5 Q260 109 297 98 Q290 49 285 0 L6 0 Q9 23 12 46.5 Q15 70 17 93 L128 93 L130 95 Q98 124 83.5 172.5 Q69 221 69 278 Q69 363 90 439.5 Q111 516 154 574 Q197 632 263 666 Q329 700 420 700 Z " />
<glyph glyph-name="Psi" unicode="&#x3a8;" horiz-adv-x="872" d="M514 284 Q585 288 628.5 325 Q672 362 682 440 L713 688 L908 688 L896 594 L837 594 L819 455 Q812 397 789 348.5 Q766 300 727 264.5 Q688 229 632 209 Q576 189 503 187 L491 94 L561 94 L550 0 L274 0 L286 94 L357 94 L368 186 Q220 193 160 264 Q100 335 114 460 L131 594 L69 594 L81 688 L279 688 L249 437 Q240 366 274 327 Q308 288 380 284 L418 594 L365 594 L376 688 L616 688 L605 594 L553 594 L514 284 Z " />
<glyph glyph-name="sterling" unicode="&#xa3;" horiz-adv-x="579" d="M150 373 L165 466 Q172 516 188.5 556 Q205 596 232 623.5 Q259 651 297.5 666 Q336 681 388 681 Q443 681 489.5 670.5 Q536 660 567 643 L553 492 L460 492 L468 567 Q451 572 434 575.5 Q417 579 394 579 Q368 579 350 571 Q332 563 320 547.5 Q308 532 300 509.5 Q292 487 287 458 L273 373 L426 373 L419 302 L261 302 L252 242 Q244 197 230 155.5 Q216 114 188 91 L514 91 L506 0 L35 0 L42 90 Q63 102 78 120 Q93 138 103 159 Q113 180 119 202.5 Q125 225 129 248 L139 302 L77 302 L85 373 L150 373 Z " />
<glyph glyph-name="pi" unicode="&#x3c0;" horiz-adv-x="646" d="M235 400 Q224 299 211.5 199.5 Q199 100 187 0 L53 0 Q66 100 78 199.5 Q90 299 102 400 L34 400 L45 488 L616 488 Q614 465 611.5 444 Q609 423 606 400 L537 400 Q530 338 525 292.5 Q520 247 516 212.5 Q512 178 508.5 150 Q505 122 502 94 Q522 95 541 100.5 Q560 106 579 114 Q585 99 591.5 84.5 Q598 70 605 55 Q586 37 563.5 24.5 Q541 12 518.5 4 Q496 -4 476 -8 Q456 -12 441 -12 Q399 -12 381.5 7.5 Q364 27 364 62 Q364 67 364 72.5 Q364 78 365 83 L403 400 L235 400 L235 400 Z " />
<glyph glyph-name="lambda" unicode="&#x3bb;" horiz-adv-x="561" d="M470 96 Q506 99 537 114 L563 53 Q528 21 488.5 4.5 Q449 -12 422 -12 Q387 -12 369 2 Q351 16 345 50 L288 373 L284 373 L119 0 L-12 0 L202 461 L273 461 L245 625 L135 643 L132 712 Q149 718 170 723 Q191 728 212 731.5 Q233 735 251.5 737 Q270 739 281 739 Q304 739 318.5 734 Q333 729 342 720 Q351 711 355.5 698 Q360 685 363 668 L470 96 Z " />
<glyph glyph-name="kappa" unicode="&#x3ba;" horiz-adv-x="578" d="M193 504 Q231 504 245.5 487 Q260 470 260 442 Q260 435 258 418.5 Q256 402 253.5 383 Q251 364 247.5 344.5 Q244 325 241 312 L245 312 Q268 348 296.5 382 Q325 416 355.5 442.5 Q386 469 418.5 485.5 Q451 502 482 502 Q519 502 538.5 480.5 Q558 459 565 430 L520 387 Q498 398 475 398 Q440 398 408 376.5 Q376 355 341 316 Q356 285 375 249 Q394 213 412.5 181 Q431 149 446.5 123.5 Q462 98 471 88 Q495 94 510 103 Q525 112 538 122 L577 74 Q557 49 535.5 32 Q514 15 494.5 4.5 Q475 -6 458.5 -10.5 Q442 -15 431 -15 Q410 -15 393 -6.5 Q376 2 358 26.5 Q340 51 318 96 Q296 141 264 213 Q250 190 237.5 168 Q225 146 214 123 L197 0 L66 0 Q76 75 84.5 140 Q93 205 99.5 256.5 Q106 308 110.5 344.5 Q115 381 117 399 L30 411 L34 475 Q81 489 122.5 496.5 Q164 504 193 504 Z " />
<glyph glyph-name="&amp;#xb5;" unicode="&#xb5;" horiz-adv-x="628" d="M191 501 Q229 501 241.5 481 Q254 461 254 431 Q254 423 252 401.5 Q250 380 246.5 352 Q243 324 239 292.5 Q235 261 231.5 232 Q228 203 226 179.5 Q224 156 224 145 Q224 122 232.5 108.5 Q241 95 264 95 Q280 95 298 104.5 Q316 114 335 136 Q354 158 371.5 193 Q389 228 403 278 L432 490 L561 490 Q549 390 535.5 289 Q522 188 510 94 Q531 95 549 100.5 Q567 106 585 114 Q591 99 597.5 84.5 Q604 70 611 55 Q591 37 570 24 Q549 11 528 2.5 Q507 -6 488.5 -9.5 Q470 -13 455 -13 Q413 -13 398.5 6.5 Q384 26 384 58 Q384 72 385.5 88 Q387 104 388 118 L384 118 Q349 59 316 33.5 Q283 8 247 6 Q238 6 227 6.5 Q216 7 205 9 Q202 -23 198 -55.5 Q194 -88 190 -120 L253 -120 Q250 -142 247 -164.5 Q244 -187 242 -209 L-7 -209 Q-5 -187 -2.5 -164.5 Q0 -142 2 -120 L59 -120 Q66 -53 73 10.5 Q80 74 87 137 Q94 200 101.5 264 Q109 328 117 397 Q94 400 72.5 403.5 Q51 407 29 411 L34 475 Q83 489 122 495 Q161 501 191 501 Z " />
<glyph glyph-name="&amp;#x3bc;" unicode="&#x3bc;" horiz-adv-x="628" d="M191 501 Q229 501 241.5 481 Q254 461 254 431 Q254 423 252 401.5 Q250 380 246.5 352 Q243 324 239 292.5 Q235 261 231.5 232 Q228 203 226 179.5 Q224 156 224 145 Q224 122 232.5 108.5 Q241 95 264 95 Q280 95 298 104.5 Q316 114 335 136 Q354 158 371.5 193 Q389 228 403 278 L432 490 L561 490 Q549 390 535.5 289 Q522 188 510 94 Q531 95 549 100.5 Q567 106 585 114 Q591 99 597.5 84.5 Q604 70 611 55 Q591 37 570 24 Q549 11 528 2.5 Q507 -6 488.5 -9.5 Q470 -13 455 -13 Q413 -13 398.5 6.5 Q384 26 384 58 Q384 72 385.5 88 Q387 104 388 118 L384 118 Q349 59 316 33.5 Q283 8 247 6 Q238 6 227 6.5 Q216 7 205 9 Q202 -23 198 -55.5 Q194 -88 190 -120 L253 -120 Q250 -142 247 -164.5 Q244 -187 242 -209 L-7 -209 Q-5 -187 -2.5 -164.5 Q0 -142 2 -120 L59 -120 Q66 -53 73 10.5 Q80 74 87 137 Q94 200 101.5 264 Q109 328 117 397 Q94 400 72.5 403.5 Q51 407 29 411 L34 475 Q83 489 122 495 Q161 501 191 501 Z " />
<glyph glyph-name="phi" unicode="&#x3c6;" horiz-adv-x="732" d="M520 500 Q601 500 648.5 445 Q696 390 696 292 Q696 237 678 184 Q660 131 623 89 Q586 47 529 20 Q472 -7 395 -9 L373 -207 L244 -207 L268 -9 Q202 -5 158 14.5 Q114 34 87.5 63.5 Q61 93 50.5 128.5 Q40 164 40 201 Q40 246 51 292.5 Q62 339 87 380 Q112 421 150.5 453.5 Q189 486 245 502 Q248 496 253 484.5 Q258 473 264 461 Q270 449 275 438.5 Q280 428 282 422 Q226 396 197 337.5 Q168 279 168 207 Q168 155 195.5 122 Q223 89 278 84 Q286 138 292.5 190 Q299 242 307 287 Q323 393 378 446.5 Q433 500 520 500 Z M507 402 Q500 402 490.5 399 Q481 396 471.5 387 Q462 378 453 360.5 Q444 343 438 313 Q437 307 434.5 290.5 Q432 274 428.5 252 Q425 230 422 204 Q419 178 415.5 155 Q412 132 409.5 113 Q407 94 406 86 Q448 89 478 106.5 Q508 124 527 153.5 Q546 183 555 222 Q564 261 564 306 Q564 325 560.5 342.5 Q557 360 550 373 Q543 386 532.5 394 Q522 402 507 402 Z " />
<glyph glyph-name="chi" unicode="&#x3c7;" horiz-adv-x="554" d="M100 -18 Q97 -18 94 -18.5 Q91 -19 88 -19 Q70 -2 52.5 17 Q35 36 17 56 Q17 61 17.5 64.5 Q18 68 18 72 Q64 116 109 159 Q154 202 202 246 Q185 281 170 315.5 Q155 350 139 385 L61 364 Q54 378 47.5 393 Q41 408 33 422 Q80 464 120.5 480.5 Q161 497 191 497 Q216 497 228.5 486.5 Q241 476 249 461 Q258 442 265 427 Q272 412 278.5 398 Q285 384 292 369.5 Q299 355 308 337 Q340 377 371 417.5 Q402 458 434 498 L448 498 L521 424 Q521 415 520 410 L351 249 L418 102 Q440 105 458.5 113 Q477 121 496 132 L541 77 Q520 49 497 31 Q474 13 453 3 Q432 -7 413 -11 Q394 -15 380 -15 Q354 -15 336 -2 Q318 11 303.5 34.5 Q289 58 275.5 89.5 Q262 121 245 159 Q210 114 173.5 69.5 Q137 25 100 -18 Z " />
<glyph glyph-name="psi" unicode="&#x3c8;" horiz-adv-x="780" d="M402 -119 L477 -119 L467 -208 L199 -208 Q201 -186 204.5 -163.5 Q208 -141 211 -119 L277 -119 Q280 -90 283.5 -61.5 Q287 -33 291 -5 Q184 7 133 63 Q82 119 82 202 Q82 219 84.5 243 Q87 267 90 293 Q93 319 96.5 345.5 Q100 372 103 394 Q83 398 64 401.5 Q45 405 25 408 Q27 425 28 440.5 Q29 456 30 473 Q78 487 113 492.5 Q148 498 177 498 Q210 498 224 486.5 Q238 475 238 450 Q238 429 235 396 Q232 363 227.5 329 Q223 295 219 264 Q215 233 214 216 Q209 157 230 129.5 Q251 102 302 91 Q319 216 334 339.5 Q349 463 365 588 Q342 591 320.5 594.5 Q299 598 276 602 L281 667 Q377 692 430 692 Q454 692 467.5 686.5 Q481 681 487.5 671.5 Q494 662 495.5 649.5 Q497 637 496 623 Q495 611 492 580.5 Q489 550 483.5 507.5 Q478 465 471.5 412.5 Q465 360 457.5 305 Q450 250 442.5 194 Q435 138 429 89 Q478 95 512.5 125.5 Q547 156 569.5 200.5 Q592 245 603 297 Q614 349 616 398 Q602 396 587.5 393 Q573 390 559 387 Q557 402 553 417.5 Q549 433 546 448 Q580 474 617.5 489.5 Q655 505 681 505 Q719 505 731 478.5 Q743 452 743 414 Q743 375 736 330.5 Q729 286 713 242 Q697 198 672 156 Q647 114 611 80.5 Q575 47 526.5 24 Q478 1 417 -6 L417 -7 L402 -119 Z " />
<glyph glyph-name="sigma" unicode="&#x3c3;" horiz-adv-x="578" d="M479 394 Q499 373 507.5 341.5 Q516 310 516 275 Q516 216 498 165 Q480 114 445.5 76 Q411 38 361 16 Q311 -6 248 -6 Q135 -6 84.5 48.5 Q34 103 34 194 Q34 252 51.5 306 Q69 360 103.5 400.5 Q138 441 190 465.5 Q242 490 312 490 L577 490 L566 400 L483 400 L479 394 Z M296 394 Q261 394 237 376 Q213 358 198.5 329.5 Q184 301 178 265.5 Q172 230 172 195 Q172 141 192 114 Q212 87 260 87 Q290 87 312.5 103 Q335 119 350 146 Q365 173 372.5 209.5 Q380 246 380 287 Q380 309 376.5 328.5 Q373 348 363.5 362.5 Q354 377 337.5 385.5 Q321 394 296 394 Z " />
<glyph glyph-name="tau" unicode="&#x3c4;" horiz-adv-x="435" d="M31 400 L42 490 L419 490 Q416 467 413 445 Q410 423 408 400 L270 400 L244 174 Q243 169 243 163.5 Q243 158 243 153 Q243 130 254.5 115.5 Q266 101 299 101 Q302 101 311.5 101.5 Q321 102 333.5 103.5 Q346 105 361 107.5 Q376 110 391 113 L406 19 Q389 12 367 7 Q345 2 323 -1 Q301 -4 282 -5.5 Q263 -7 251 -7 Q175 -7 140 24 Q105 55 105 117 Q105 124 105.5 131 Q106 138 107 146 L135 400 L31 400 Z " />
<glyph glyph-name="iota" unicode="&#x3b9;" horiz-adv-x="353" d="M203 502 Q243 502 257 489 Q271 476 271 450 Q271 445 268 420 Q265 395 260.5 360 Q256 325 250.5 284 Q245 243 240 205.5 Q235 168 231 138 Q227 108 226 95 Q267 98 303 116 L330 56 Q292 21 247 3 Q202 -15 170 -15 Q123 -15 105.5 6 Q88 27 88 61 Q88 67 88.5 73.5 Q89 80 90 88 L130 398 L47 412 L51 477 Q100 491 138.5 496.5 Q177 502 203 502 Z " />
<glyph glyph-name="Alpha" unicode="&#x391;" horiz-adv-x="714" d="M473 190 L236 190 L194 94 L257 94 L246 0 L-6 0 L4 94 L60 94 L334 688 L505 688 L628 94 L681 94 L670 0 L419 0 L429 94 L491 94 L473 190 Z M351 454 L277 282 L457 282 L427 448 L406 576 L403 576 L351 454 Z " />
<glyph glyph-name="Beta" unicode="&#x392;" horiz-adv-x="665" d="M533 360 Q561 350 579.5 333.5 Q598 317 608 297 Q618 277 622 255.5 Q626 234 626 215 Q626 163 607.5 123 Q589 83 557 55.5 Q525 28 483 14 Q441 0 393 0 L15 0 Q16 7 17.5 20 Q19 33 21 47 Q23 61 24.5 74 Q26 87 27 94 L96 94 L157 594 L90 594 L102 687 L459 687 Q554 687 598 643 Q642 599 642 529 Q642 505 637 481.5 Q632 458 619.5 436 Q607 414 586 394.5 Q565 375 533 361 L533 360 Z M261 309 Q258 286 254.5 258 Q251 230 247.5 201 Q244 172 241 144 Q238 116 235 94 L356 94 Q419 94 449.5 128.5 Q480 163 480 217 Q480 254 456.5 281.5 Q433 309 383 309 L261 309 Z M296 594 L272 397 L381 397 Q435 397 466.5 429 Q498 461 498 510 Q498 548 476 571 Q454 594 405 594 L296 594 Z " />
<glyph glyph-name="Gamma" unicode="&#x393;" horiz-adv-x="601" d="M17 0 L27 94 L96 94 L157 594 L91 594 L102 687 L644 687 L619 489 L521 489 L534 594 L296 594 L234 94 L325 94 L314 0 L17 0 Z " />
<glyph glyph-name="Epsilon" unicode="&#x395;" horiz-adv-x="630" d="M17 0 L27 94 L95 94 L156 594 L91 594 L102 687 L641 687 L616 489 L518 489 L531 594 L295 594 L271 400 L486 405 L475 308 L260 313 L234 94 L488 94 L502 204 L602 204 L577 0 L17 0 Z " />
<glyph glyph-name="Zeta" unicode="&#x396;" horiz-adv-x="590" d="M186 94 L452 94 L468 220 L567 220 L540 0 L-1 0 L10 93 L419 595 L194 595 L179 483 L81 483 L107 688 L607 688 L597 598 L186 94 Z " />
<glyph glyph-name="Eta" unicode="&#x397;" horiz-adv-x="762" d="M429 0 L441 94 L501 94 L527 312 L260 312 L234 94 L295 94 L284 0 L17 0 L27 94 L94 94 L156 594 L89 594 L100 688 L367 688 L356 594 L295 594 L271 403 L538 403 L562 594 L501 594 L513 688 L780 688 L769 594 L702 594 L641 94 L707 94 L697 0 L429 0 Z " />
<glyph glyph-name="Theta" unicode="&#x398;" horiz-adv-x="718" d="M266 399 L498 402 L486 308 L255 310 L266 399 Z M414 700 Q489 700 541 677.5 Q593 655 626 615.5 Q659 576 674 522.5 Q689 469 689 406 Q689 317 666 241 Q643 165 599 109.5 Q555 54 490 22 Q425 -10 341 -10 Q268 -10 215.5 10.5 Q163 31 129 68.5 Q95 106 78.5 158.5 Q62 211 62 276 Q62 359 83 436 Q104 513 147.5 571.5 Q191 630 257.5 665 Q324 700 414 700 Z M408 599 Q351 599 312.5 570 Q274 541 250.5 494.5 Q227 448 217 389.5 Q207 331 207 273 Q207 185 240.5 138.5 Q274 92 349 92 Q401 92 437.5 117.5 Q474 143 497.5 187 Q521 231 531.5 289 Q542 347 542 412 Q542 450 536 484 Q530 518 515 543.5 Q500 569 474 584 Q448 599 408 599 Z " />
<glyph glyph-name="Iota" unicode="&#x399;" horiz-adv-x="406" d="M43 0 L54 94 L120 94 L181 594 L115 594 L127 688 L397 688 L385 594 L320 594 L258 94 L324 94 L313 0 L43 0 Z " />
<glyph glyph-name="Kappa" unicode="&#x39a;" horiz-adv-x="699" d="M438 416 L619 95 L674 95 L663 0 L402 0 L414 95 L470 95 L335 335 L250 264 L229 94 L290 94 L279 0 L17 0 L27 94 L94 94 L155 594 L89 594 L100 687 L365 687 L354 594 L290 594 L266 391 L508 594 L454 594 L465 687 L721 687 L710 594 L651 594 L438 416 Z " />
<glyph glyph-name="Lambda" unicode="&#x39b;" horiz-adv-x="706" d="M417 469 L400 574 L397 574 L353 471 L187 94 L252 94 L241 0 L-11 0 L0 94 L55 94 Q66 121 88 168 Q110 215 136.5 272 Q163 329 192 391 Q221 453 247.5 510 Q274 567 296 614 Q318 661 330 688 L503 688 L625 94 L678 94 L667 0 L413 0 L424 94 L484 94 L417 469 Z " />
<glyph glyph-name="Mu" unicode="&#x39c;" horiz-adv-x="934" d="M475 245 L523 338 Q549 387 574.5 435 Q600 483 626 531 L709 687 L952 687 Q949 664 945.5 640 Q942 616 940 593 L878 593 Q863 468 848 343.5 Q833 219 817 93 L878 93 L867 0 L614 0 Q616 23 618.5 46.5 Q621 70 624 93 L682 93 L731 498 L729 498 Q718 478 707.5 457 Q697 436 686 416 L614 282 Q589 236 564 190.5 Q539 145 515 100 L399 100 L348 258 L274 498 L271 498 L222 93 L284 93 Q281 70 278 46.5 Q275 23 273 0 L15 0 L26 93 L94 93 L154 593 L88 593 Q90 616 93 640 Q96 664 99 687 L336 687 L387 522 Q400 484 411.5 445 Q423 406 435 366 L470 245 L475 245 Z " />
<glyph glyph-name="Nu" unicode="&#x39d;" horiz-adv-x="790" d="M553 204 L601 593 L534 593 L546 687 L806 687 Q803 664 800 640 Q797 616 795 593 L730 593 Q712 444 694 296.5 Q676 149 657 0 L523 0 Q494 56 467 111 Q440 166 413 221 Q409 229 395 257 Q381 285 365.5 317 Q350 349 335.5 377 Q321 405 317 414 Q306 436 295 458 Q284 480 274 503 Q273 503 272.5 502.5 Q272 502 271 502 Q258 399 245.5 297.5 Q233 196 221 93 L288 93 Q285 70 282 46.5 Q279 23 277 0 L15 0 L26 93 L93 93 Q107 219 123 343 Q139 467 154 593 L88 593 Q90 616 93 640 Q96 664 99 687 L314 687 L407 498 L503 297 L548 204 L553 204 Z " />
<glyph glyph-name="Xi" unicode="&#x39e;" horiz-adv-x="608" d="M184 575 L173 486 L75 486 L100 687 L626 687 L601 486 L502 486 L513 575 L184 575 Z M472 113 L484 212 L583 212 L558 0 L5 0 L30 212 L130 212 L118 113 L472 113 Z M175 310 L186 400 L472 403 L459 307 L175 310 Z " />
<glyph glyph-name="Omicron" unicode="&#x39f;" horiz-adv-x="718" d="M414 700 Q489 700 541 677.5 Q593 655 626 615.5 Q659 576 674 522.5 Q689 469 689 406 Q689 317 666 241 Q643 165 599 109.5 Q555 54 490 22 Q425 -10 341 -10 Q268 -10 215.5 10.5 Q163 31 129 68.5 Q95 106 78.5 158.5 Q62 211 62 276 Q62 359 83 436 Q104 513 147.5 571.5 Q191 630 257.5 665 Q324 700 414 700 Z M408 599 Q351 599 312.5 570 Q274 541 250.5 494.5 Q227 448 217 389.5 Q207 331 207 273 Q207 185 240.5 138.5 Q274 92 349 92 Q401 92 437.5 117.5 Q474 143 497.5 187 Q521 231 531.5 289 Q542 347 542 412 Q542 450 536 484 Q530 518 515 543.5 Q500 569 474 584 Q448 599 408 599 Z " />
<glyph glyph-name="Pi" unicode="&#x3a0;" horiz-adv-x="762" d="M429 0 L441 94 L501 94 L562 593 L295 593 L234 94 L295 94 L284 0 L17 0 L27 94 L94 94 L155 593 L88 593 L100 688 L780 688 L768 593 L701 593 L641 94 L707 94 L697 0 L429 0 Z " />
<glyph glyph-name="Rho" unicode="&#x3a1;" horiz-adv-x="614" d="M418 688 Q523 688 572.5 639 Q622 590 622 503 Q622 460 608 417.5 Q594 375 564 341.5 Q534 308 487.5 287 Q441 266 377 266 L253 266 L231 94 L317 94 L306 0 L17 0 L27 94 L93 94 L154 594 L89 594 L100 688 L418 688 Z M293 594 L264 357 L353 357 Q377 357 399 365.5 Q421 374 438 391 Q455 408 465 433.5 Q475 459 475 494 Q475 545 450 569.5 Q425 594 381 594 L293 594 Z " />
<glyph glyph-name="Delta" unicode="&#x394;" horiz-adv-x="698" d="M636 0 L12 0 L22 87 L328 688 L493 688 L645 83 L636 0 Z M433 431 L398 582 L396 582 L323 430 L158 94 L509 94 L433 431 Z " />
<glyph glyph-name="Sigma" unicode="&#x3a3;" horiz-adv-x="604" d="M381 373 L379 347 L185 94 L467 94 L481 207 L580 207 L555 0 L1 0 L12 83 L225 361 L81 609 L91 688 L617 688 L593 484 L495 484 L509 594 L253 594 L381 373 Z " />
<glyph glyph-name="dagger" unicode="&#x2020;" horiz-adv-x="479" d="M318 400 L259 -69 L150 -69 L207 400 L63 400 L75 495 L218 495 L243 692 L353 692 L329 495 L476 495 L464 400 L318 400 Z " />
<glyph glyph-name="ellipsis" unicode="&#x2026;" horiz-adv-x="733" d="M116 140 Q144 140 162 121 Q180 102 180 74 Q180 56 173 40.5 Q166 25 154.5 13.5 Q143 2 128 -4.5 Q113 -11 98 -11 Q69 -11 51 8.5 Q33 28 33 57 Q33 75 40 90 Q47 105 58.5 116 Q70 127 85 133.5 Q100 140 116 140 Z M544 140 Q572 140 590 120.5 Q608 101 608 72 Q608 54 601 39 Q594 24 582 13 Q570 2 555 -4.5 Q540 -11 525 -11 Q497 -11 479 8.5 Q461 28 461 57 Q461 75 468 90 Q475 105 486.5 116 Q498 127 513 133.5 Q528 140 544 140 Z M330 140 Q358 140 375.5 121 Q393 102 393 74 Q393 56 386 40.5 Q379 25 367.5 13.5 Q356 2 341.5 -4.5 Q327 -11 311 -11 Q283 -11 265 8.5 Q247 28 247 57 Q247 75 254 90 Q261 105 272.5 116 Q284 127 299 133.5 Q314 140 330 140 Z " />
<glyph glyph-name="registered" unicode="&#xae;" horiz-adv-x="599" d="M577 466 Q577 413 558.5 366.5 Q540 320 506 285.5 Q472 251 425.5 231 Q379 211 324 211 Q269 211 222.5 231 Q176 251 142 285.5 Q108 320 89 366.5 Q70 413 70 466 Q70 519 88.5 565.5 Q107 612 141 646.5 Q175 681 221.5 701 Q268 721 324 721 Q380 721 426.5 701 Q473 681 506.5 646.5 Q540 612 558.5 565.5 Q577 519 577 466 Z M532 466 Q532 509 517 547.5 Q502 586 474.5 614.5 Q447 643 408.5 659.5 Q370 676 324 676 Q278 676 240 659.5 Q202 643 174.5 614.5 Q147 586 131.5 547.5 Q116 509 116 466 Q116 423 131 384.5 Q146 346 173 317.5 Q200 289 238.5 272.5 Q277 256 324 256 Q373 256 411.5 272.5 Q450 289 477 317.5 Q504 346 518 384.5 Q532 423 532 466 Z M294 445 L294 370 L323 370 L323 327 L203 327 L203 370 L230 370 L230 573 L203 573 L203 617 L346 617 Q396 617 419 593 Q442 569 442 531 Q442 512 430.5 489.5 Q419 467 393 456 L434 370 L466 366 L466 328 Q455 325 441 323.5 Q427 322 418 322 Q400 322 391.5 329.5 Q383 337 375 354 L332 445 L294 445 Z M376 532 Q376 555 363.5 564.5 Q351 574 334 574 L294 574 L294 488 L331 488 Q349 488 362.5 497 Q376 506 376 532 Z " />
<glyph glyph-name="trademark" unicode="&#x2122;" horiz-adv-x="843" d="M613 492 Q614 496 618.5 507 Q623 518 628.5 530.5 Q634 543 638.5 554 Q643 565 645 569 Q650 579 657.5 595 Q665 611 672.5 628 Q680 645 687 661 Q694 677 699 688 L837 688 L837 632 L802 632 L802 396 L837 396 L837 342 L690 342 L690 396 L722 396 L722 575 L720 575 L689 503 L645 405 L578 405 L531 503 L500 572 L499 572 L499 396 L533 396 L533 342 L384 342 L384 396 L422 396 L422 632 L384 632 L384 688 L522 688 L575 569 L609 492 L613 492 Z M122 342 L122 396 L164 396 L164 632 L109 632 L109 575 L51 575 L51 688 L363 688 L363 575 L305 575 L305 632 L248 632 L248 396 L290 396 L290 342 L122 342 Z " />
<glyph glyph-name="copyright" unicode="&#xa9;" horiz-adv-x="845" d="M805 330 Q805 252 775.5 183 Q746 114 695 63 Q644 12 576 -18 Q508 -48 431 -48 Q347 -48 278 -18 Q209 12 159.5 63 Q110 114 83 183 Q56 252 56 330 Q56 408 85 477 Q114 546 164.5 597 Q215 648 283.5 678 Q352 708 431 708 Q511 708 579.5 678 Q648 648 698 597 Q748 546 776.5 477 Q805 408 805 330 Z M746 330 Q746 396 722 454 Q698 512 656 555.5 Q614 599 556 624 Q498 649 431 649 Q365 649 307.5 624 Q250 599 207 555.5 Q164 512 139.5 454 Q115 396 115 330 Q115 264 137.5 206 Q160 148 201.5 104.5 Q243 61 301.5 36 Q360 11 431 11 Q496 11 553.5 36 Q611 61 653.5 104.5 Q696 148 721 206 Q746 264 746 330 Z M320 325 Q320 241 352.5 199.5 Q385 158 462 158 Q471 158 484.5 159 Q498 160 513 161.5 Q528 163 543 166 Q558 169 570 172 L585 104 Q556 93 515 86.5 Q474 80 438 80 Q375 80 332.5 99 Q290 118 265 150.5 Q240 183 229.5 227 Q219 271 219 322 Q219 364 229 408 Q239 452 265.5 488.5 Q292 525 336.5 548.5 Q381 572 450 572 Q488 572 518.5 566 Q549 560 573 552 L573 422 L508 422 L508 490 Q497 492 481.5 494 Q466 496 452 496 Q383 496 351.5 450.5 Q320 405 320 325 Z " />
<glyph glyph-name="sigma1" unicode="&#x3c2;" horiz-adv-x="476" d="M38 219 Q38 270 52.5 321 Q67 372 99 412 Q131 452 182.5 477 Q234 502 308 502 Q344 502 380 496.5 Q416 491 432 485 Q455 477 464.5 464.5 Q474 452 473 433 Q473 424 470 409 Q467 394 462 377 Q457 360 451 342 Q445 324 438 309 L364 312 L367 398 Q357 401 341.5 402.5 Q326 404 313 404 Q280 404 254.5 391 Q229 378 211.5 354.5 Q194 331 185 299 Q176 267 176 229 Q176 208 182 190 Q188 172 202 155.5 Q216 139 239 123 Q262 107 296 90 Q354 61 379 36 Q404 11 404 -18 Q404 -48 374.5 -94 Q345 -140 282 -193 L216 -136 Q233 -116 243 -102.5 Q253 -89 258.5 -79.5 Q264 -70 265.5 -64.5 Q267 -59 267 -55 Q267 -44 254 -34 Q241 -24 211 -8 Q166 14 133.5 37 Q101 60 80 87 Q59 114 48.5 146 Q38 178 38 219 Z " />
<glyph glyph-name="yen" unicode="&#xa5;" horiz-adv-x="579" d="M74 302 Q76 315 77.5 327 Q79 339 81 352 L185 352 Q165 408 145.5 463.5 Q126 519 106 575 L60 575 Q62 598 65.5 621 Q69 644 72 667 L298 667 L286 575 L233 575 Q250 518 268 463 Q286 408 304 351 L307 351 Q338 408 369.5 463 Q401 518 432 575 L378 575 Q380 598 382.5 621 Q385 644 388 667 L616 667 L605 575 L559 575 L424 352 L531 352 L525 302 L74 302 Z M519 257 Q517 243 516 230.5 Q515 218 513 205 L351 205 L351 204 Q349 177 344.5 148 Q340 119 337 90 L411 90 Q408 67 405 45 Q402 23 400 0 L122 0 L133 90 L205 90 Q207 110 210 131 Q213 152 216 172 L219 205 L63 205 L69 257 L519 257 Z " />
<glyph glyph-name="section" unicode="&#xa7;" horiz-adv-x="509" d="M318 610 Q281 609 254.5 590.5 Q228 572 228 540 Q228 524 238.5 510 Q249 496 265.5 484.5 Q282 473 301 463.5 Q320 454 337 446 Q359 435 382 423 Q405 411 423 394.5 Q441 378 452.5 356.5 Q464 335 464 305 Q464 271 445 235.5 Q426 200 383 166 Q415 144 429 112 Q443 80 443 48 Q443 42 442 39 Q440 2 422 -27 Q404 -56 374 -76.5 Q344 -97 303 -108 Q262 -119 215 -119 Q168 -119 120 -110.5 Q72 -102 40 -89 L58 48 L145 48 L135 -25 Q171 -36 214 -36 Q258 -36 281 -16 Q304 -6 313.5 9.5 Q323 25 323 46 Q323 73 297.5 92 Q272 111 220 133 Q191 145 164.5 158.5 Q138 172 117.5 189.5 Q97 207 84.5 230 Q72 253 72 284 Q72 329 93.5 364 Q115 399 153 425 Q130 445 118 468.5 Q106 492 106 524 Q106 532 107 536 Q109 575 127.5 604.5 Q146 634 176 653.5 Q206 673 244.5 682.5 Q283 692 326 692 Q377 692 418.5 682.5 Q460 673 485 662 Q480 627 476 593 Q472 559 468 524 L379 524 L389 599 Q370 604 354 607 Q338 610 318 610 Z M228 384 Q205 367 192.5 345.5 Q180 324 180 302 Q180 273 206.5 256.5 Q233 240 271 223 Q282 218 291.5 214 Q301 210 312 205 Q327 219 337.5 234 Q348 249 353 263 Q357 275 357 287 Q356 305 344.5 318.5 Q333 332 315 343 Q297 354 274 363.5 Q251 373 228 384 Z " />
<glyph glyph-name="guillemotright" unicode="&#xbb;" horiz-adv-x="478" d="M433 178 L251 -1 L202 41 L320 197 L239 355 L300 395 L438 216 L433 178 Z M254 178 L73 -1 L22 41 L141 197 L60 355 L120 395 L259 216 L254 178 Z " />
<glyph glyph-name="Aring" unicode="&#xc5;" horiz-adv-x="714" d="M473 190 L236 190 L194 94 L257 94 L246 0 L-6 0 L4 94 L60 94 L334 688 L505 688 L628 94 L681 94 L670 0 L419 0 L429 94 L491 94 L473 190 Z M351 454 L277 282 L457 282 L427 448 L406 576 L403 576 L351 454 Z M418 719 Q393 719 372 728.5 Q351 738 337 754 Q323 770 316 792 Q309 814 312 838 Q315 863 326.5 885 Q338 907 356 923.5 Q374 940 397.5 949.5 Q421 959 448 959 Q473 959 493 949.5 Q513 940 526.5 923.5 Q540 907 546 885 Q552 863 549 838 Q546 813 534.5 791.5 Q523 770 505 754 Q487 738 464.5 728.5 Q442 719 418 719 Z M439 895 Q413 895 395.5 878 Q378 861 375 836 Q372 813 385 795.5 Q398 778 425 778 Q450 778 466.5 795.5 Q483 813 486 836 Q489 860 476.5 877.5 Q464 895 439 895 Z " />
<glyph glyph-name="degree" unicode="&#xb0;" horiz-adv-x="368" d="M344 542 Q343 511 330.5 485 Q318 459 298 440 Q278 421 251 410.5 Q224 400 194 400 Q163 400 137 410 Q111 420 93 439 Q75 458 66 484 Q57 510 59 542 Q61 574 74 601 Q87 628 107.5 647 Q128 666 155 676.5 Q182 687 212 687 Q242 687 266.5 675.5 Q291 664 308.5 644.5 Q326 625 335.5 598.5 Q345 572 344 542 Z M276 540 Q278 574 256.5 596.5 Q235 619 203 619 Q171 619 149.5 596 Q128 573 126 540 Q124 508 144 486 Q164 464 196 464 Q228 464 251.5 484.5 Q275 505 276 540 Z " />
<glyph glyph-name="germandbls" unicode="&#xdf;" horiz-adv-x="644" d="M263 529 Q250 423 238 317 Q226 211 214 104 Q206 37 194.5 -22 Q183 -81 159.5 -124.5 Q136 -168 96 -193 Q56 -218 -10 -218 L-21 -218 Q-42 -217 -68.5 -212.5 Q-95 -208 -124 -200 L-102 -112 Q-77 -117 -62 -118.5 Q-47 -120 -32 -120 Q7 -120 28.5 -98 Q50 -76 63.5 -20 Q77 36 87.5 131.5 Q98 227 116 374 L49 374 Q51 393 53 411.5 Q55 430 57 449 L122 449 Q124 463 125.5 489 Q127 515 134 546 Q141 577 155.5 608.5 Q170 640 198 666 Q226 692 270 708.5 Q314 725 379 725 Q427 725 460.5 713 Q494 701 514.5 682.5 Q535 664 544.5 642 Q554 620 554 600 Q554 564 535 535 Q516 506 493 481.5 Q470 457 451 437 Q432 417 432 399 Q432 374 458 350 Q484 326 515.5 297.5 Q547 269 573 233.5 Q599 198 599 150 Q599 115 585 85.5 Q571 56 545.5 34 Q520 12 483 -0.5 Q446 -13 400 -13 Q364 -13 326 -6.5 Q288 0 257 10 L285 97 Q315 87 337.5 83 Q360 79 383 79 Q414 79 437.5 94.5 Q461 110 461 140 Q461 162 450 181.5 Q439 201 423 219.5 Q407 238 388 256.5 Q369 275 353 295 Q337 315 326 338 Q315 361 315 389 Q315 412 323.5 431 Q332 450 345 465 Q358 480 373.5 493.5 Q389 507 402 520 Q415 533 423.5 546.5 Q432 560 432 576 Q432 585 429 594 Q426 603 418 611 Q410 619 396 624 Q382 629 361 629 Q317 629 292.5 602.5 Q268 576 263 529 Z " />
<glyph glyph-name="guillemotleft" unicode="&#xab;" horiz-adv-x="478" d="M48 216 L231 395 L281 355 L160 197 L241 41 L181 -1 L43 178 L48 216 Z M228 216 L410 395 L460 355 L340 197 L420 41 L361 -1 L223 178 L228 216 Z " />
<glyph glyph-name="divide" unicode="&#xf7;" horiz-adv-x="579" d="M386 478 Q384 449 362.5 428.5 Q341 408 315 408 Q289 408 272.5 427 Q256 446 258 472 Q260 499 282 519 Q304 539 330 539 Q356 539 372 521.5 Q388 504 386 478 Z M94 261 L104 344 L508 344 L498 261 L94 261 Z M344 135 Q342 106 320.5 85.5 Q299 65 273 65 Q247 65 230.5 84 Q214 103 216 129 Q218 157 239.5 176.5 Q261 196 288 196 Q314 196 330 178.5 Q346 161 344 135 Z " />
<glyph glyph-name="circumflex" unicode="&#x2c6;" horiz-adv-x="542" d="M469 534 L322 635 L152 535 L123 575 L289 724 L374 724 L507 576 L469 534 Z " />
<glyph glyph-name="perthousand" unicode="&#x2030;" horiz-adv-x="1262" d="M248 672 Q292 672 321 659 Q350 646 367.5 624 Q385 602 392.5 572.5 Q400 543 400 510 Q400 466 390 421.5 Q380 377 357 341.5 Q334 306 296.5 284 Q259 262 203 262 Q159 262 130 274.5 Q101 287 83 308.5 Q65 330 57.5 359 Q50 388 50 421 Q50 458 58.5 502 Q67 546 89.5 584 Q112 622 150.5 647 Q189 672 248 672 Z M244 598 Q212 598 193 576.5 Q174 555 164 525.5 Q154 496 151 464.5 Q148 433 148 414 Q148 379 161.5 357 Q175 335 211 335 Q237 335 254.5 351 Q272 367 282.5 392 Q293 417 297.5 448 Q302 479 302 509 Q302 526 299.5 542 Q297 558 290.5 570.5 Q284 583 273 590.5 Q262 598 244 598 Z M317 -20 L236 -20 L634 708 L714 708 L317 -20 Z M727 407 Q771 407 800 394 Q829 381 846.5 358.5 Q864 336 871 306.5 Q878 277 878 245 Q878 200 868 155.5 Q858 111 835.5 75.5 Q813 40 775 18 Q737 -4 682 -4 Q638 -4 608.5 8.5 Q579 21 561 42.5 Q543 64 535.5 92.5 Q528 121 528 154 Q528 192 537 236 Q546 280 568.5 318 Q591 356 629.5 381.5 Q668 407 727 407 Z M723 332 Q691 332 672 310.5 Q653 289 643 259.5 Q633 230 630 199 Q627 168 627 148 Q627 113 640.5 91.5 Q654 70 690 70 Q715 70 732.5 85.5 Q750 101 761 125.5 Q772 150 776.5 181 Q781 212 781 243 Q781 260 778.5 276 Q776 292 769.5 304.5 Q763 317 751.5 324.5 Q740 332 723 332 Z M1119 407 Q1163 407 1192 394 Q1221 381 1238.5 358.5 Q1256 336 1263 306.5 Q1270 277 1270 245 Q1270 200 1260 155.5 Q1250 111 1227.5 75.5 Q1205 40 1167 18 Q1129 -4 1074 -4 Q1030 -4 1000.5 8.5 Q971 21 953 42.5 Q935 64 927.5 92.5 Q920 121 920 154 Q920 192 929 236 Q938 280 960.5 318 Q983 356 1021.5 381.5 Q1060 407 1119 407 Z M1115 332 Q1083 332 1064 310.5 Q1045 289 1035 259.5 Q1025 230 1022 199 Q1019 168 1019 148 Q1019 113 1032.5 91.5 Q1046 70 1082 70 Q1107 70 1124.5 85.5 Q1142 101 1153 125.5 Q1164 150 1168.5 181 Q1173 212 1173 243 Q1173 260 1170.5 276 Q1168 292 1161.5 304.5 Q1155 317 1143.5 324.5 Q1132 332 1115 332 Z " />
<glyph glyph-name="dieresis" unicode="&#xa8;" horiz-adv-x="542" d="M483 630 Q482 600 461 579 Q440 558 410 558 Q385 558 369.5 575 Q354 592 355 618 Q356 649 378 669 Q400 689 426 689 Q452 689 468.5 672.5 Q485 656 483 630 Z M288 630 Q286 600 265 579 Q244 558 215 558 Q189 558 172.5 575 Q156 592 158 618 Q159 649 181.5 669 Q204 689 230 689 Q256 689 272.5 672.5 Q289 656 288 630 Z " />
<glyph glyph-name="florin" unicode="&#x192;" horiz-adv-x="579" d="M164 398 L254 398 L261 448 Q267 490 278 531.5 Q289 573 312 605.5 Q335 638 372.5 658.5 Q410 679 469 679 Q492 679 521.5 676 Q551 673 583 662 L562 569 Q542 574 527.5 575.5 Q513 577 498 577 Q477 577 460 572 Q443 567 430 553.5 Q417 540 407.5 515.5 Q398 491 392 452 Q392 450 390.5 442 Q389 434 387.5 425 Q386 416 385 408 Q384 400 384 398 L480 398 L478 314 L373 314 Q372 307 369 287.5 Q366 268 362.5 245.5 Q359 223 355.5 202.5 Q352 182 351 173 Q343 126 333 75 Q323 24 300.5 -19 Q278 -62 239 -90 Q200 -118 134 -118 Q111 -118 79 -115 Q47 -112 14 -102 L37 -12 Q78 -19 104 -19 Q126 -19 143 -12 Q160 -5 173 11 Q186 27 195.5 53 Q205 79 211 117 Q221 171 226.5 206 Q232 241 235.5 262.5 Q239 284 240 295.5 Q241 307 242 314 L162 314 L164 398 Z " />
<glyph glyph-name="daggerdbl" unicode="&#x2021;" horiz-adv-x="479" d="M183 205 L207 400 L63 400 L75 495 L218 495 L243 692 L353 692 L329 495 L476 495 L464 400 L318 400 L294 205 L441 205 L428 110 L282 110 L259 -69 L150 -69 L171 110 L27 110 L40 205 L183 205 Z " />
<glyph glyph-name="logicalnot" unicode="&#xac;" horiz-adv-x="579" d="M484 91 L401 91 L422 261 L104 261 L114 344 L514 344 L484 91 Z " />
<glyph glyph-name="multiply" unicode="&#xd7;" horiz-adv-x="579" d="M298 237 L159 109 L107 169 L248 297 L141 424 L205 483 L311 355 L447 481 L499 420 L362 295 L469 170 L406 110 L298 237 Z " />
<glyph glyph-name="plusminus" unicode="&#xb1;" horiz-adv-x="579" d="M348 277 L329 125 L246 125 L264 277 L106 277 L116 360 L275 360 L294 510 L376 510 L358 360 L515 360 L505 277 L348 277 Z M482 79 L472 0 L72 0 L82 79 L482 79 Z " />
<glyph glyph-name="brokenbar" unicode="&#xa6;" horiz-adv-x="301" d="M133 351 L133 707 L224 707 L224 351 L133 351 Z M224 240 L224 -146 L133 -146 L133 240 L224 240 Z " />
<glyph glyph-name="guilsinglright" unicode="&#x203a;" horiz-adv-x="335" d="M265 178 L84 -1 L35 42 L153 198 L73 356 L131 395 L270 216 L265 178 Z " />
<glyph glyph-name="guilsinglleft" unicode="&#x2039;" horiz-adv-x="335" d="M55 216 L238 395 L287 355 L166 196 L247 40 L187 -1 L50 178 L55 216 Z " />
<glyph glyph-name="currency" unicode="&#xa4;" horiz-adv-x="562" d="M182 306 Q182 282 191 260.5 Q200 239 215.5 223.5 Q231 208 251.5 199 Q272 190 296 190 Q319 190 340 199 Q361 208 376.5 223.5 Q392 239 401.5 260.5 Q411 282 411 306 Q411 330 402 351 Q393 372 377 387.5 Q361 403 340.5 412.5 Q320 422 296 422 Q272 422 251.5 413 Q231 404 215.5 388 Q200 372 191 351 Q182 330 182 306 Z M68 480 L124 538 L188 474 Q211 490 239.5 498.5 Q268 507 297 507 Q356 507 405 473 L469 538 L526 479 L462 416 Q494 367 494 306 Q494 277 485 249 Q476 221 462 196 L526 135 L469 75 L404 139 Q379 120 352.5 113 Q326 106 297 106 Q268 106 241.5 113 Q215 120 189 139 L125 74 L67 134 L131 197 Q112 223 105 251 Q98 279 98 305 Q98 334 106 362.5 Q114 391 131 415 L68 480 Z " />
<glyph glyph-name="exclamdown" unicode="&#xa1;" horiz-adv-x="273" d="M21 -218 L56 55 L98 295 L194 295 L177 55 L148 -218 L21 -218 Z M154 358 Q124 358 106.5 377.5 Q89 397 91 425 Q94 455 116.5 477.5 Q139 500 172 500 Q203 500 220.5 480.5 Q238 461 236 433 Q234 402 211.5 380 Q189 358 154 358 Z " />
<glyph glyph-name="questiondown" unicode="&#xbf;" horiz-adv-x="481" d="M202 -223 Q108 -223 62 -186 Q16 -149 16 -84 Q16 -30 43 9.5 Q70 49 108 80 Q145 108 172.5 129 Q200 150 218 169.5 Q236 189 244.5 209 Q253 229 253 255 L253 288 L358 301 Q360 285 361 271 Q362 257 362 244 Q362 208 352 181 Q342 154 324 130.5 Q306 107 280.5 85.5 Q255 64 224 40 Q195 18 176.5 -2 Q158 -22 158 -51 Q158 -86 177.5 -102.5 Q197 -119 240 -119 Q281 -119 326 -107 L335 -25 L429 -25 L410 -186 Q350 -206 296.5 -214.5 Q243 -223 202 -223 Z M297 358 Q269 358 251 376 Q233 394 233 420 Q233 454 258 475.5 Q283 497 313 497 Q341 497 358.5 479.5 Q376 462 376 437 Q376 405 354 381.5 Q332 358 297 358 Z " />
<glyph glyph-name="sfthyphen" unicode="&#xad;" horiz-adv-x="381" d="M58 219 L71 318 L337 318 L324 219 L58 219 Z " />
<glyph glyph-name="periodcentered" unicode="&#xb7;" horiz-adv-x="251" d="M141 355 Q169 355 187 336.5 Q205 318 205 289 Q205 271 198 255.5 Q191 240 179.5 228.5 Q168 217 153 210.5 Q138 204 122 204 Q95 204 76.5 224 Q58 244 58 273 Q58 290 65 305 Q72 320 83.5 331 Q95 342 110 348.5 Q125 355 141 355 Z " />
<glyph glyph-name="cedilla" unicode="&#xb8;" horiz-adv-x="479" d="M217 -55 Q262 -60 286 -79.5 Q310 -99 310 -133 Q310 -153 300 -174 Q290 -195 266.5 -212.5 Q243 -230 204.5 -242 Q166 -254 109 -254 Q108 -240 108 -228 Q108 -216 108 -202 Q163 -197 197 -182 Q231 -167 231 -143 Q231 -133 222.5 -127 Q214 -121 201.5 -118 Q189 -115 173.5 -114 Q158 -113 144 -113 L132 -88 Q161 -53 189.5 -20.5 Q218 12 247 44 Q256 37 265 31.5 Q274 26 283 20 L217 -55 Z " />
<glyph glyph-name="acute" unicode="&#xb4;" horiz-adv-x="542" d="M309 541 L266 585 L420 765 L487 693 L309 541 Z " />
<glyph glyph-name="primemod" unicode="&#x2b9;" horiz-adv-x="227" d="M106 375 L59 406 L244 702 L321 653 L106 375 Z " />
<glyph glyph-name="caron" unicode="&#x2c7;" horiz-adv-x="542" d="M523 697 L354 549 L269 549 L139 698 L175 738 L321 638 L494 738 L523 697 Z " />
<glyph glyph-name="breve" unicode="&#x2d8;" horiz-adv-x="555" d="M315 550 Q286 550 262.5 560.5 Q239 571 219 588.5 Q199 606 182.5 629.5 Q166 653 153 679 L214 724 Q240 680 271.5 658.5 Q303 637 329 637 Q338 637 351 638 Q364 639 382.5 646.5 Q401 654 426 670.5 Q451 687 485 717 L518 679 Q464 606 411 578 Q358 550 315 550 Z " />
<glyph glyph-name="dotaccent" unicode="&#x2d9;" horiz-adv-x="542" d="M393 641 Q391 625 384 610.5 Q377 596 365.5 585.5 Q354 575 340 569 Q326 563 310 563 Q280 563 262 584 Q244 605 247 636 Q248 652 255.5 666.5 Q263 681 274 691.5 Q285 702 299.5 708 Q314 714 329 714 Q358 714 376.5 692.5 Q395 671 393 641 Z " />
<glyph glyph-name="ring" unicode="&#x2da;" horiz-adv-x="542" d="M319 552 Q294 552 273 561.5 Q252 571 238 587 Q224 603 217 625 Q210 647 213 671 Q216 696 227.5 718 Q239 740 257 756.5 Q275 773 298.5 782.5 Q322 792 349 792 Q374 792 394 782.5 Q414 773 427.5 756.5 Q441 740 447 718 Q453 696 450 671 Q447 646 435.5 624.5 Q424 603 406 587 Q388 571 365.5 561.5 Q343 552 319 552 Z M340 728 Q314 728 296.5 711 Q279 694 276 669 Q273 646 286 628.5 Q299 611 326 611 Q351 611 367.5 628.5 Q384 646 387 669 Q390 693 377.5 710.5 Q365 728 340 728 Z " />
<glyph glyph-name="ogonek" unicode="&#x2db;" horiz-adv-x="555" d="M398 24 Q407 13 418 4 Q403 -11 389.5 -29.5 Q376 -48 365.5 -66.5 Q355 -85 349 -102 Q343 -119 343 -132 Q343 -155 356.5 -164 Q370 -173 392 -173 Q411 -173 429.5 -170 Q448 -167 465 -163 Q467 -174 468 -184.5 Q469 -195 471 -206 Q442 -220 411 -228.5 Q380 -237 351 -237 Q305 -237 282 -218.5 Q259 -200 259 -167 Q259 -152 264.5 -130.5 Q270 -109 285.5 -83.5 Q301 -58 328 -30.5 Q355 -3 398 24 Z " />
<glyph glyph-name="hungarumlaut" unicode="&#x2dd;" horiz-adv-x="542" d="M223 540 L178 581 L326 767 L398 699 L223 540 Z M376 540 L332 581 L480 767 L551 699 L376 540 Z " />
<glyph glyph-name="tonos" unicode="&#x384;" horiz-adv-x="542" d="M309 541 L266 585 L420 765 L487 693 L309 541 Z " />
<glyph glyph-name="dieresistonos" unicode="&#x385;" horiz-adv-x="542" d="M520 632 Q518 604 497.5 586 Q477 568 451 568 Q426 568 411.5 584.5 Q397 601 399 626 Q401 653 421.5 672 Q442 691 467 691 Q491 691 506.5 674.5 Q522 658 520 632 Z M248 634 Q246 606 225.5 588 Q205 570 179 570 Q154 570 138.5 587 Q123 604 125 628 Q127 655 148.5 673.5 Q170 692 193 692 Q218 692 234 676 Q250 660 248 634 Z M300 544 L246 569 L348 776 L439 733 L300 544 Z " />
<glyph glyph-name="anoteleia" unicode="&#x387;" horiz-adv-x="251" d="M219 367 Q217 351 210 336.5 Q203 322 192 311.5 Q181 301 166.5 294.5 Q152 288 137 288 Q107 288 88.5 309.5 Q70 331 72 361 Q73 377 81 391.5 Q89 406 100 416.5 Q111 427 125.5 433 Q140 439 155 439 Q184 439 202.5 418 Q221 397 219 367 Z " />
<glyph glyph-name="Alphatonos" unicode="&#x386;" horiz-adv-x="714" d="M473 190 L236 190 L194 94 L257 94 L246 0 L-6 0 L4 94 L60 94 L334 688 L505 688 L628 94 L681 94 L670 0 L419 0 L429 94 L491 94 L473 190 Z M351 454 L277 282 L457 282 L427 448 L406 576 L403 576 L351 454 Z M60 520 L17 564 L171 744 L238 672 L60 520 Z " />
<glyph glyph-name="Epsilontonos" unicode="&#x388;" horiz-adv-x="630" d="M17 0 L27 94 L95 94 L156 594 L91 594 L102 687 L641 687 L616 489 L518 489 L531 594 L295 594 L271 400 L486 405 L475 308 L260 313 L234 94 L488 94 L502 204 L602 204 L577 0 L17 0 Z M-111 521 L-154 565 L0 745 L67 673 L-111 521 Z " />
<glyph glyph-name="Etatonos" unicode="&#x389;" horiz-adv-x="762" d="M429 0 L441 94 L501 94 L527 312 L260 312 L234 94 L295 94 L284 0 L17 0 L27 94 L94 94 L156 594 L89 594 L100 688 L367 688 L356 594 L295 594 L271 403 L538 403 L562 594 L501 594 L513 688 L780 688 L769 594 L702 594 L641 94 L707 94 L697 0 L429 0 Z M-111 518 L-154 562 L0 742 L67 670 L-111 518 Z " />
<glyph glyph-name="Iotatonos" unicode="&#x38a;" horiz-adv-x="406" d="M43 0 L54 94 L120 94 L181 594 L115 594 L127 688 L397 688 L385 594 L320 594 L258 94 L324 94 L313 0 L43 0 Z M-83 518 L-126 562 L28 742 L95 670 L-83 518 Z " />
<glyph glyph-name="Omicrontonos" unicode="&#x38c;" horiz-adv-x="718" d="M414 700 Q489 700 541 677.5 Q593 655 626 615.5 Q659 576 674 522.5 Q689 469 689 406 Q689 317 666 241 Q643 165 599 109.5 Q555 54 490 22 Q425 -10 341 -10 Q268 -10 215.5 10.5 Q163 31 129 68.5 Q95 106 78.5 158.5 Q62 211 62 276 Q62 359 83 436 Q104 513 147.5 571.5 Q191 630 257.5 665 Q324 700 414 700 Z M408 599 Q351 599 312.5 570 Q274 541 250.5 494.5 Q227 448 217 389.5 Q207 331 207 273 Q207 185 240.5 138.5 Q274 92 349 92 Q401 92 437.5 117.5 Q474 143 497.5 187 Q521 231 531.5 289 Q542 347 542 412 Q542 450 536 484 Q530 518 515 543.5 Q500 569 474 584 Q448 599 408 599 Z M-41 523 L-84 567 L70 747 L137 675 L-41 523 Z " />
<glyph glyph-name="Upsilontonos" unicode="&#x38e;" horiz-adv-x="646" d="M491 593 L431 593 L443 688 L693 688 L681 593 L632 593 L403 272 L382 94 L457 94 L447 0 L146 0 L156 94 L233 94 L254 270 L109 593 L60 593 L71 688 L318 688 L306 593 L248 593 L339 369 L343 369 L491 593 Z M-133 523 L-176 567 L-22 747 L45 675 L-133 523 Z " />
<glyph glyph-name="Omegatonos" unicode="&#x38f;" horiz-adv-x="732" d="M420 700 Q495 700 548 678.5 Q601 657 635 618.5 Q669 580 684.5 527.5 Q700 475 700 414 Q700 370 691 321.5 Q682 273 665.5 229 Q649 185 626 148.5 Q603 112 576 93 L683 93 Q679 70 676.5 46.5 Q674 23 671 0 L392 0 L404 97 Q440 107 469 134 Q498 161 518 202 Q538 243 549 296.5 Q560 350 560 413 Q560 498 524 548 Q488 598 414 598 Q360 598 321.5 571 Q283 544 258.5 498 Q234 452 222.5 390.5 Q211 329 211 260 Q211 194 235.5 151.5 Q260 109 297 98 Q290 49 285 0 L6 0 Q9 23 12 46.5 Q15 70 17 93 L128 93 L130 95 Q98 124 83.5 172.5 Q69 221 69 278 Q69 363 90 439.5 Q111 516 154 574 Q197 632 263 666 Q329 700 420 700 Z M-35 523 L-78 567 L76 747 L143 675 L-35 523 Z " />
<glyph glyph-name="Tau" unicode="&#x3a4;" horiz-adv-x="611" d="M133 0 L144 94 L223 94 L285 594 L162 594 L149 484 L51 484 L76 688 L653 688 L628 484 L530 484 L544 594 L422 594 L361 94 L441 94 L430 0 L133 0 Z " />
<glyph glyph-name="Upsilon" unicode="&#x3a5;" horiz-adv-x="646" d="M491 593 L431 593 L443 688 L693 688 L681 593 L632 593 L403 272 L382 94 L457 94 L447 0 L146 0 L156 94 L233 94 L254 270 L109 593 L60 593 L71 688 L318 688 L306 593 L248 593 L339 369 L343 369 L491 593 Z " />
<glyph glyph-name="Chi" unicode="&#x3a7;" horiz-adv-x="685" d="M469 688 L721 688 L710 593 L657 593 L453 348 L591 95 L653 95 L643 0 L362 0 L374 95 L431 95 L335 280 L192 95 L256 95 L245 0 L-8 0 L3 95 L50 95 L264 367 L144 593 L74 593 L86 688 L364 688 L352 593 L298 593 L382 429 L514 593 L458 593 L469 688 Z " />
<glyph glyph-name="iotadieresistonos" unicode="&#x390;" horiz-adv-x="353" d="M203 502 Q243 502 257 489 Q271 476 271 450 Q271 445 268 420 Q265 395 260.5 360 Q256 325 250.5 284 Q245 243 240 205.5 Q235 168 231 138 Q227 108 226 95 Q267 98 303 116 L330 56 Q292 21 247 3 Q202 -15 170 -15 Q123 -15 105.5 6 Q88 27 88 61 Q88 67 88.5 73.5 Q89 80 90 88 L130 398 L47 412 L51 477 Q100 491 138.5 496.5 Q177 502 203 502 Z M401 632 Q399 604 378.5 586 Q358 568 332 568 Q307 568 292.5 584.5 Q278 601 280 626 Q282 653 302.5 672 Q323 691 348 691 Q372 691 387.5 674.5 Q403 658 401 632 Z M129 634 Q127 606 106.5 588 Q86 570 60 570 Q35 570 19.5 587 Q4 604 6 628 Q8 655 29.5 673.5 Q51 692 74 692 Q99 692 115 676 Q131 660 129 634 Z M181 544 L127 569 L229 776 L320 733 L181 544 Z " />
<glyph glyph-name="Iotadieresis" unicode="&#x3aa;" horiz-adv-x="406" d="M43 0 L54 94 L120 94 L181 594 L115 594 L127 688 L397 688 L385 594 L320 594 L258 94 L324 94 L313 0 L43 0 Z M433 800 Q431 772 411 753 Q391 734 363 734 Q337 734 322.5 751 Q308 768 310 794 Q312 822 332 840.5 Q352 859 378 859 Q404 859 419.5 842.5 Q435 826 433 800 Z M243 800 Q241 772 220.5 753 Q200 734 174 734 Q148 734 132.5 751.5 Q117 769 119 794 Q121 822 142 840.5 Q163 859 187 859 Q213 859 229 842.5 Q245 826 243 800 Z " />
<glyph glyph-name="Upsilondieresis" unicode="&#x3ab;" horiz-adv-x="646" d="M491 593 L431 593 L443 688 L693 688 L681 593 L632 593 L403 272 L382 94 L457 94 L447 0 L146 0 L156 94 L233 94 L254 270 L109 593 L60 593 L71 688 L318 688 L306 593 L248 593 L339 369 L343 369 L491 593 Z M557 800 Q555 772 535 753 Q515 734 487 734 Q461 734 446.5 751 Q432 768 434 794 Q436 822 456 840.5 Q476 859 502 859 Q528 859 543.5 842.5 Q559 826 557 800 Z M367 800 Q365 772 344.5 753 Q324 734 298 734 Q272 734 256.5 751.5 Q241 769 243 794 Q245 822 266 840.5 Q287 859 311 859 Q337 859 353 842.5 Q369 826 367 800 Z " />
<glyph glyph-name="tilde" unicode="&#x2dc;" horiz-adv-x="542" d="M400 568 Q376 568 353 574 Q330 580 309 587.5 Q288 595 269.5 601 Q251 607 236 607 L178 568 L142 598 Q165 646 193 667.5 Q221 689 252 689 Q273 689 294.5 683.5 Q316 678 337 671 Q358 664 378 658.5 Q398 653 415 653 L475 692 L508 661 Q488 616 461 592 Q434 568 400 568 Z " />
<glyph glyph-name="macron" unicode="&#xaf;" horiz-adv-x="542" d="M158 665 L501 665 L489 574 L147 574 L158 665 Z " />
<glyph glyph-name="iotadieresis" unicode="&#x3ca;" horiz-adv-x="353" d="M203 502 Q243 502 257 489 Q271 476 271 450 Q271 445 268 420 Q265 395 260.5 360 Q256 325 250.5 284 Q245 243 240 205.5 Q235 168 231 138 Q227 108 226 95 Q267 98 303 116 L330 56 Q292 21 247 3 Q202 -15 170 -15 Q123 -15 105.5 6 Q88 27 88 61 Q88 67 88.5 73.5 Q89 80 90 88 L130 398 L47 412 L51 477 Q100 491 138.5 496.5 Q177 502 203 502 Z M353 630 Q352 600 331 579 Q310 558 280 558 Q255 558 239.5 575 Q224 592 225 618 Q226 649 248 669 Q270 689 296 689 Q322 689 338.5 672.5 Q355 656 353 630 Z M158 630 Q156 600 135 579 Q114 558 85 558 Q59 558 42.5 575 Q26 592 28 618 Q29 649 51.5 669 Q74 689 100 689 Q126 689 142.5 672.5 Q159 656 158 630 Z " />
<glyph glyph-name="upsilondieresis" unicode="&#x3cb;" horiz-adv-x="613" d="M196 501 Q231 501 246 488.5 Q261 476 261 449 Q261 442 258.5 418 Q256 394 252 361 Q248 328 244 291 Q240 254 236 221.5 Q232 189 229.5 165.5 Q227 142 227 137 Q227 114 236.5 100.5 Q246 87 271 87 Q304 87 333 118 Q362 149 385 196 Q408 243 423 299 Q438 355 441 405 L378 393 L365 450 Q402 481 440 495.5 Q478 510 504 510 Q535 510 556 495.5 Q577 481 577 442 Q577 404 569 355.5 Q561 307 544 256.5 Q527 206 500 158 Q473 110 435 72.5 Q397 35 347 12 Q297 -11 234 -11 Q193 -11 166.5 -1 Q140 9 124 25.5 Q108 42 102 64.5 Q96 87 96 112 Q96 120 98 145.5 Q100 171 103 209 Q106 247 111 295.5 Q116 344 122 398 L33 411 L39 476 Q88 490 127 495.5 Q166 501 196 501 Z M305 630 Q303 600 282 579 Q261 558 232 558 Q206 558 189.5 575 Q173 592 175 618 Q176 649 198.5 669 Q221 689 247 689 Q273 689 289.5 672.5 Q306 656 305 630 Z M500 630 Q499 600 478 579 Q457 558 427 558 Q402 558 386.5 575 Q371 592 372 618 Q373 649 395 669 Q417 689 443 689 Q469 689 485.5 672.5 Q502 656 500 630 Z " />
<glyph glyph-name="etatonos" unicode="&#x3ae;" horiz-adv-x="609" d="M450 501 Q507 501 531.5 470 Q556 439 556 379 Q556 372 553.5 348 Q551 324 547 289 Q543 254 538 211 Q533 168 528 123 Q523 78 517.5 34 Q512 -10 508 -47 Q528 -45 545 -39.5 Q562 -34 581 -26 L607 -86 Q587 -104 564.5 -117 Q542 -130 520.5 -138.5 Q499 -147 479.5 -151 Q460 -155 445 -155 Q403 -155 387.5 -137 Q372 -119 372 -85 Q372 -80 372 -72 Q372 -64 373 -55 Q379 9 387 77 Q395 145 401.5 202 Q408 259 413 298.5 Q418 338 418 347 Q418 367 409 382 Q400 397 378 397 Q343 397 303.5 353.5 Q264 310 235 215 L206 0 L73 0 Q82 68 88 117 Q94 166 99.5 209 Q105 252 110 295.5 Q115 339 122 396 L34 411 L38 476 Q88 490 124.5 495.5 Q161 501 190 501 Q231 501 243 487 Q255 473 255 446 Q255 430 252.5 407 Q250 384 246 357 L250 357 Q274 400 302 428 Q330 456 357 472 Q384 488 408.5 494.5 Q433 501 450 501 Z M307 541 L264 585 L418 765 L485 693 L307 541 Z " />
<glyph glyph-name="iotatonos" unicode="&#x3af;" horiz-adv-x="353" d="M203 502 Q243 502 257 489 Q271 476 271 450 Q271 445 268 420 Q265 395 260.5 360 Q256 325 250.5 284 Q245 243 240 205.5 Q235 168 231 138 Q227 108 226 95 Q267 98 303 116 L330 56 Q292 21 247 3 Q202 -15 170 -15 Q123 -15 105.5 6 Q88 27 88 61 Q88 67 88.5 73.5 Q89 80 90 88 L130 398 L47 412 L51 477 Q100 491 138.5 496.5 Q177 502 203 502 Z M169 541 L126 585 L280 765 L347 693 L169 541 Z " />
<glyph glyph-name="upsilondieresistonos" unicode="&#x3b0;" horiz-adv-x="613" d="M196 501 Q231 501 246 488.5 Q261 476 261 449 Q261 442 258.5 418 Q256 394 252 361 Q248 328 244 291 Q240 254 236 221.5 Q232 189 229.5 165.5 Q227 142 227 137 Q227 114 236.5 100.5 Q246 87 271 87 Q304 87 333 118 Q362 149 385 196 Q408 243 423 299 Q438 355 441 405 L378 393 L365 450 Q402 481 440 495.5 Q478 510 504 510 Q535 510 556 495.5 Q577 481 577 442 Q577 404 569 355.5 Q561 307 544 256.5 Q527 206 500 158 Q473 110 435 72.5 Q397 35 347 12 Q297 -11 234 -11 Q193 -11 166.5 -1 Q140 9 124 25.5 Q108 42 102 64.5 Q96 87 96 112 Q96 120 98 145.5 Q100 171 103 209 Q106 247 111 295.5 Q116 344 122 398 L33 411 L39 476 Q88 490 127 495.5 Q166 501 196 501 Z M321 544 L267 569 L369 776 L460 733 L321 544 Z M269 634 Q267 606 246.5 588 Q226 570 200 570 Q175 570 159.5 587 Q144 604 146 628 Q148 655 169.5 673.5 Q191 692 214 692 Q239 692 255 676 Q271 660 269 634 Z M541 632 Q539 604 518.5 586 Q498 568 472 568 Q447 568 432.5 584.5 Q418 601 420 626 Q422 653 442.5 672 Q463 691 488 691 Q512 691 527.5 674.5 Q543 658 541 632 Z " />
<glyph glyph-name="omegatonos" unicode="&#x3ce;" horiz-adv-x="770" d="M458 334 L439 172 Q438 167 438 158 Q438 129 452 109.5 Q466 90 497 90 Q545 90 575 140.5 Q605 191 605 291 Q605 329 590.5 361 Q576 393 538 414 L576 499 Q621 489 651.5 469.5 Q682 450 700.5 422.5 Q719 395 727 361 Q735 327 735 289 Q735 233 721.5 179.5 Q708 126 679 84.5 Q650 43 605 17.5 Q560 -8 496 -8 Q451 -8 416.5 10 Q382 28 366 65 L362 65 Q336 28 296 10 Q256 -8 213 -8 Q161 -8 127 7.5 Q93 23 73 49.5 Q53 76 45 111.5 Q37 147 37 188 Q37 244 49 296 Q61 348 88 389.5 Q115 431 158 460 Q201 489 263 500 L285 414 Q251 400 228.5 375.5 Q206 351 193 320.5 Q180 290 174.5 255 Q169 220 169 184 Q169 142 185 116 Q201 90 241 90 Q279 90 299.5 114 Q320 138 324 172 L343 334 L458 334 Z M401 541 L358 585 L512 765 L579 693 L401 541 Z " />
<glyph glyph-name="epsilontonos" unicode="&#x3ad;" horiz-adv-x="476" d="M284 503 Q366 503 417 483 Q445 472 452 458.5 Q459 445 457 429 Q457 424 455 413.5 Q453 403 449.5 388.5 Q446 374 440.5 358.5 Q435 343 429 328 L355 333 L355 405 Q323 414 293 414 Q256 414 230 396.5 Q204 379 204 343 Q204 328 211 318.5 Q218 309 229 304 Q240 299 254 297 Q268 295 282 295 L326 295 L321 224 L271 224 Q257 224 240 220.5 Q223 217 209 208.5 Q195 200 185.5 185.5 Q176 171 176 149 Q176 114 203 100 Q230 86 277 86 Q308 86 344.5 92.5 Q381 99 418 110 L443 34 Q423 23 397.5 15 Q372 7 344.5 1.5 Q317 -4 289 -7 Q261 -10 237 -10 Q142 -10 90.5 24 Q39 58 38 124 Q38 175 66.5 208.5 Q95 242 137 255 L139 259 Q107 270 87.5 294.5 Q68 319 68 352 Q68 384 82.5 411.5 Q97 439 124.5 459.5 Q152 480 192 491.5 Q232 503 284 503 Z M257 541 L214 585 L368 765 L435 693 L257 541 Z " />
<glyph glyph-name="OE" unicode="&#x152;" horiz-adv-x="871" d="M411 700 Q439 700 465.5 696 Q492 692 515 686 L887 686 Q881 636 874.5 587 Q868 538 863 488 L765 488 Q768 514 771 540.5 Q774 567 778 593 L564 593 L540 400 L729 405 Q727 381 724 355.5 Q721 330 718 307 L530 311 L503 93 L731 93 Q734 121 737.5 148.5 Q741 176 745 203 L844 203 Q838 152 831.5 101.5 Q825 51 820 0 L417 0 Q374 -8 333 -8 Q260 -8 207.5 12 Q155 32 121.5 69 Q88 106 72.5 158.5 Q57 211 57 275 Q57 359 78 435.5 Q99 512 142.5 571 Q186 630 252.5 665 Q319 700 411 700 Z M342 90 Q347 90 352.5 90 Q358 90 363 91 Q380 219 395 343.5 Q410 468 426 596 Q421 597 416.5 597.5 Q412 598 405 598 Q347 598 308 568 Q269 538 245 490.5 Q221 443 210.5 383.5 Q200 324 200 266 Q200 181 232.5 135.5 Q265 90 342 90 Z " />
<glyph glyph-name="paragraph" unicode="&#xb6;" horiz-adv-x="592" d="M251 295 Q170 295 123 344 Q76 393 76 475 Q76 523 93 565 Q110 607 139.5 637.5 Q169 668 209.5 685.5 Q250 703 297 703 L623 703 L612 611 L547 611 L446 -206 L355 -206 L456 611 L397 611 L297 -206 L120 -206 L131 -120 L215 -120 L266 295 L251 295 Z " />
<glyph glyph-name="oe" unicode="&#x153;" horiz-adv-x="850" d="M669 502 Q740 502 782.5 467 Q825 432 825 369 Q825 294 752.5 246.5 Q680 199 520 192 Q520 187 519.5 182 Q519 177 519 172 Q519 155 523 139.5 Q527 124 537 111.5 Q547 99 565 91.5 Q583 84 612 84 Q648 84 686 93 Q724 102 760 115 Q761 112 765 101 Q769 90 772.5 78 Q776 66 779.5 55 Q783 44 785 40 Q743 16 687 4 Q631 -8 580 -8 Q518 -8 482.5 12.5 Q447 33 428 67 Q398 35 353.5 13.5 Q309 -8 251 -8 Q192 -8 152 7.5 Q112 23 87 50 Q62 77 51 114.5 Q40 152 40 196 Q40 254 55.5 308.5 Q71 363 104 405.5 Q137 448 188 474 Q239 500 310 500 Q371 500 413 477.5 Q455 455 476 418 Q509 456 554.5 479 Q600 502 669 502 Z M304 402 Q266 402 241 380 Q216 358 201.5 326 Q187 294 181.5 256.5 Q176 219 176 188 Q176 167 180 148.5 Q184 130 194 116 Q204 102 220.5 94 Q237 86 262 86 Q299 86 323 106 Q347 126 361 157 Q375 188 380.5 224.5 Q386 261 386 293 Q386 315 382 335 Q378 355 369 370 Q360 385 344 393.5 Q328 402 304 402 Z M651 406 Q593 406 562.5 365 Q532 324 525 255 Q613 259 659.5 283.5 Q706 308 706 354 Q706 377 692.5 391.5 Q679 406 651 406 Z " />
<glyph glyph-name="ae" unicode="&#xe6;" horiz-adv-x="814" d="M630 503 Q699 503 741.5 468 Q784 433 784 369 Q784 297 711.5 255.5 Q639 214 481 208 Q481 200 480.5 192 Q480 184 480 176 Q480 157 483.5 140.5 Q487 124 497 111.5 Q507 99 525 91.5 Q543 84 572 84 Q608 84 646.5 93 Q685 102 720 116 L746 40 Q704 17 647.5 4 Q591 -9 540 -9 Q473 -9 434 12 Q395 33 376 68 Q320 23 262.5 4.5 Q205 -14 159 -14 Q118 -14 93 -3.5 Q68 7 54.5 24 Q41 41 36 62 Q31 83 31 103 Q31 134 42 166 Q53 198 87.5 223 Q122 248 186 262.5 Q250 277 356 274 Q357 284 359 301 Q361 318 361 325 Q361 369 340.5 385.5 Q320 402 269 402 Q232 402 192 395.5 Q152 389 118 378 L99 461 Q144 480 197.5 490.5 Q251 501 302 501 Q323 501 344 499 Q365 497 384 489 Q403 481 417.5 465.5 Q432 450 441 424 Q473 463 519 483 Q565 503 630 503 Z M228 73 Q238 73 252 75 Q266 77 282.5 83 Q299 89 317 99.5 Q335 110 352 127 Q349 152 349 181 L349 214 Q293 213 259 205.5 Q225 198 206 186 Q187 174 181 158.5 Q175 143 175 126 Q175 102 188 87.5 Q201 73 228 73 Z M610 407 Q581 407 558.5 396.5 Q536 386 520.5 367.5 Q505 349 495.5 323.5 Q486 298 484 269 Q572 271 619 290.5 Q666 310 666 354 Q666 377 652.5 392 Q639 407 610 407 Z " />
<glyph glyph-name="AE" unicode="&#xc6;" horiz-adv-x="996" d="M506 93 L511 201 L278 201 Q260 174 242.5 147 Q225 120 208 93 L269 93 L263 0 L7 0 L13 93 L64 93 L446 686 L971 686 L961 488 L863 488 L868 593 L669 593 Q667 545 663.5 496.5 Q660 448 658 400 L844 404 L839 303 L653 309 L642 93 L861 93 L867 203 L967 203 Q964 152 962.5 101.5 Q961 51 958 0 L431 0 L436 93 L506 93 Z M527 590 Q479 515 429 441.5 Q379 368 331 293 L514 293 L533 590 L527 590 Z " />
<glyph glyph-name="numbersign" unicode="&#x23;" horiz-adv-x="568" d="M456 395 L409 264 L488 264 L475 197 L387 197 L320 0 L246 0 L312 197 L202 197 L134 0 L60 0 L127 197 L55 197 L68 264 L150 264 L197 395 L116 395 L129 461 L219 461 L281 637 L354 637 L294 461 L405 461 L467 637 L540 637 L478 461 L550 461 L537 395 L456 395 Z M225 264 L336 264 L381 395 L271 395 L225 264 Z " />
<glyph glyph-name="fj" unicode="&#xe1f8;" horiz-adv-x="606" d="M534 101 Q526 35 511 -18.5 Q496 -72 468.5 -112.5 Q441 -153 396.5 -180.5 Q352 -208 286 -221 L262 -134 Q304 -116 329 -93.5 Q354 -71 368 -42.5 Q382 -14 388 21 Q394 56 399 98 L428 389 L249 389 L217 99 Q209 31 197.5 -28 Q186 -87 162.5 -131 Q139 -175 98 -200 Q57 -225 -9 -225 Q-33 -225 -62 -221.5 Q-91 -218 -123 -207 L-101 -121 Q-76 -126 -60.5 -127 Q-45 -128 -31 -128 Q-10 -128 7 -121.5 Q24 -115 37 -98.5 Q50 -82 59.5 -54.5 Q69 -27 75 15 Q87 116 95 180.5 Q103 245 107.5 285.5 Q112 326 114.5 348.5 Q117 371 119 389 L33 389 L42 461 L127 480 L139 555 Q144 594 159 627.5 Q174 661 201 686 Q228 711 269 725 Q310 739 368 739 Q400 739 440.5 734.5 Q481 730 530 715 L505 622 Q467 630 440.5 632.5 Q414 635 385 635 Q331 635 303 614.5 Q275 594 269 541 L260 474 L399 474 Q423 474 468 479.5 Q513 485 559 493 L574 485 L534 101 Z " />
<glyph glyph-name="ffj" unicode="&#xe1f9;" horiz-adv-x="912" d="M879 484 Q868 393 859.5 303.5 Q851 214 840 123 Q832 58 817 4.5 Q802 -49 774.5 -89.5 Q747 -130 702.5 -157 Q658 -184 592 -197 Q585 -175 579.5 -153.5 Q574 -132 568 -111 Q613 -92 638.5 -66.5 Q664 -41 677.5 -10 Q691 21 696.5 58.5 Q702 96 707 141 L733 387 L557 387 L526 111 Q518 43 508 -16 Q498 -75 475 -119 Q452 -163 412.5 -188.5 Q373 -214 307 -214 Q276 -214 252 -210.5 Q228 -207 204 -199 Q209 -177 215.5 -155 Q222 -133 227 -112 Q243 -114 256 -115.5 Q269 -117 281 -117 Q307 -117 325 -107 Q343 -97 355 -78 Q367 -59 374 -32 Q381 -5 385 29 Q387 44 390.5 74.5 Q394 105 398.5 142.5 Q403 180 407.5 220 Q412 260 416 294.5 Q420 329 422.5 354 Q425 379 426 387 L253 387 L219 93 Q211 26 200 -33 Q189 -92 165.5 -135.5 Q142 -179 102 -204 Q62 -229 -4 -229 Q-35 -229 -63 -224 Q-91 -219 -119 -210 Q-114 -188 -107.5 -166 Q-101 -144 -96 -123 Q-70 -128 -55.5 -129 Q-41 -130 -25 -130 Q23 -130 46 -89 Q69 -48 79 27 Q85 68 92 125 Q99 182 105 237 Q111 292 116 334 Q121 376 122 387 L37 387 Q39 406 41 423.5 Q43 441 46 460 L133 480 Q138 539 153 584 Q168 629 197 659.5 Q226 690 273 705.5 Q320 721 390 721 Q419 720 452.5 715.5 Q486 711 515 701 Q545 724 584.5 735.5 Q624 747 687 747 Q723 747 762 741.5 Q801 736 840 725 L815 629 Q782 637 753.5 640.5 Q725 644 698 644 Q655 644 631 632 Q607 620 594.5 598 Q582 576 577 544.5 Q572 513 567 474 L703 474 Q728 474 772.5 479 Q817 484 863 492 L879 484 Z M384 621 Q359 621 339 616.5 Q319 612 303.5 596.5 Q288 581 277.5 552 Q267 523 263 474 L436 474 Q441 509 445 547 Q449 585 459 613 Q439 617 417 619 Q395 621 384 621 Z " />
<glyph glyph-name="ff" unicode="&#xfb00;" horiz-adv-x="712" d="M560 387 Q556 347 551.5 304 Q547 261 542.5 218 Q538 175 533 134 Q528 93 524 59 Q516 1 504.5 -49.5 Q493 -100 469.5 -137 Q446 -174 406 -195 Q366 -216 302 -216 Q282 -216 257.5 -212.5 Q233 -209 207 -201 Q213 -179 219 -157 Q225 -135 230 -113 Q247 -117 258.5 -118 Q270 -119 281 -119 Q303 -119 320 -112.5 Q337 -106 350 -90 Q363 -74 371.5 -47.5 Q380 -21 386 19 Q387 29 390.5 57.5 Q394 86 398.5 123.5 Q403 161 408 203 Q413 245 417.5 282.5 Q422 320 425.5 348.5 Q429 377 430 387 L252 387 Q243 317 234.5 240.5 Q226 164 218 93 Q210 26 199 -33 Q188 -92 164.5 -135.5 Q141 -179 101 -204 Q61 -229 -5 -229 Q-35 -229 -63 -224 Q-91 -219 -120 -211 Q-115 -189 -108.5 -167.5 Q-102 -146 -97 -125 Q-72 -130 -57.5 -131 Q-43 -132 -27 -132 Q-3 -132 14.5 -123.5 Q32 -115 44.5 -97 Q57 -79 65.5 -50 Q74 -21 79 20 Q82 43 86 76 Q90 109 94.5 146.5 Q99 184 103.5 222 Q108 260 111.5 293.5 Q115 327 118 351.5 Q121 376 122 387 L37 387 L44 460 Q67 465 89 470 Q111 475 133 480 L140 539 Q146 590 167.5 624.5 Q189 659 221.5 680.5 Q254 702 296 711.5 Q338 721 386 721 Q415 720 448 715.5 Q481 711 517 700 Q529 713 547.5 721.5 Q566 730 586.5 735.5 Q607 741 628.5 743.5 Q650 746 670 746 Q719 744 773 728 L751 637 Q728 642 708.5 644 Q689 646 675 646 Q645 646 617.5 628.5 Q590 611 582 570 Q578 548 575.5 527 Q573 506 570 474 L706 474 Q704 452 701.5 430.5 Q699 409 696 387 L560 387 Z M438 474 Q442 498 445 522 Q448 546 452 569 Q454 580 456 590 Q458 600 463 610 Q443 615 420.5 618 Q398 621 384 621 Q325 621 298.5 593 Q272 565 266 509 L262 474 L438 474 Z " />
<glyph glyph-name="fi" unicode="&#xfb01;" horiz-adv-x="638" d="M398 474 Q422 474 467 479 Q512 484 557 492 Q562 490 565 488 Q568 486 572 484 Q564 421 558 368 Q552 315 546.5 268 Q541 221 536 178.5 Q531 136 525 94 Q545 95 565 100.5 Q585 106 602 114 L630 55 Q610 37 588 24 Q566 11 544 2.5 Q522 -6 502.5 -9.5 Q483 -13 468 -13 Q421 -13 404.5 7 Q388 27 388 61 Q388 71 392 107 Q396 143 402 190.5 Q408 238 414.5 290.5 Q421 343 427 387 L248 387 L215 98 Q207 30 196 -28.5 Q185 -87 161.5 -131 Q138 -175 98 -200 Q58 -225 -8 -225 Q-62 -225 -123 -206 L-99 -114 Q-73 -119 -58 -120 Q-43 -121 -27 -121 Q21 -121 44.5 -82 Q68 -43 76 36 Q88 135 95.5 197 Q103 259 107.5 296.5 Q112 334 113.5 353.5 Q115 373 117 387 L32 387 L41 460 L127 479 Q129 495 131 510 Q133 525 135 540 Q142 595 159.5 633 Q177 671 207 694 Q237 717 280.5 727 Q324 737 383 737 Q415 737 454.5 731.5 Q494 726 529 716 L504 621 Q466 629 440 631.5 Q414 634 385 634 Q340 634 316.5 623 Q293 612 282 591 Q271 570 267 540.5 Q263 511 259 474 L398 474 L398 474 Z " />
<glyph glyph-name="fl" unicode="&#xfb02;" horiz-adv-x="638" d="M569 738 L596 722 Q589 661 580 579 Q571 497 561.5 411 Q552 325 542.5 241.5 Q533 158 526 94 Q546 95 565.5 100.5 Q585 106 603 114 L632 52 Q590 15 547.5 0.5 Q505 -14 473 -14 Q434 -14 412 4.5 Q390 23 390 57 Q390 60 390 61.5 Q390 63 390.5 67.5 Q391 72 391.5 80.5 Q392 89 394 105 Q395 115 399.5 153.5 Q404 192 410 244 Q416 296 423 356 Q430 416 436.5 469.5 Q443 523 447.5 563.5 Q452 604 454 618 Q436 621 417.5 623 Q399 625 382 625 Q335 625 303.5 606 Q272 587 265 533 L259 474 L381 474 Q378 452 375.5 430.5 Q373 409 371 387 L248 387 L215 98 Q207 30 196 -28.5 Q185 -87 161.5 -131 Q138 -175 98 -200 Q58 -225 -8 -225 Q-36 -225 -64.5 -219.5 Q-93 -214 -123 -206 Q-118 -184 -111.5 -160.5 Q-105 -137 -99 -115 Q-73 -120 -58.5 -121 Q-44 -122 -28 -122 Q-4 -122 13 -114 Q30 -106 42 -88.5 Q54 -71 62 -43 Q70 -15 75 25 Q78 46 82 78 Q86 110 90 146.5 Q94 183 98.5 221.5 Q103 260 107 293 Q111 326 113.5 351 Q116 376 117 387 L35 387 L43 460 L127 479 Q132 538 146 585 Q160 632 188 664.5 Q216 697 259.5 714.5 Q303 732 368 732 Q391 732 417.5 729.5 Q444 727 472 720 L569 738 Z " />
<glyph glyph-name="ffi" unicode="&#xfb03;" horiz-adv-x="940" d="M860 490 Q864 488 868 486.5 Q872 485 876 483 L828 94 Q847 95 867 100.5 Q887 106 905 114 L933 55 Q914 37 892 24 Q870 11 848 3 Q826 -5 805.5 -9 Q785 -13 770 -13 Q744 -13 728.5 -6.5 Q713 0 704.5 11 Q696 22 693 36.5 Q690 51 690 66 Q690 75 693.5 110 Q697 145 702.5 192.5 Q708 240 714.5 292 Q721 344 727 387 L558 387 Q550 315 543.5 247 Q537 179 529 113 Q521 44 509 -16.5 Q497 -77 473 -121.5 Q449 -166 408.5 -191.5 Q368 -217 301 -217 Q281 -217 256.5 -213.5 Q232 -210 206 -202 L228 -112 Q245 -115 257 -116 Q269 -117 280 -117 Q307 -117 324.5 -107 Q342 -97 354 -79 Q366 -61 372.5 -36.5 Q379 -12 384 18 Q388 41 392 74 Q396 107 400.5 144.5 Q405 182 409 220 Q413 258 416.5 291.5 Q420 325 422.5 350.5 Q425 376 426 387 L253 387 Q245 317 236 240.5 Q227 164 219 93 Q211 26 200 -33 Q189 -92 165.5 -135.5 Q142 -179 102 -204 Q62 -229 -4 -229 Q-35 -229 -63.5 -224 Q-92 -219 -119 -210 L-96 -122 Q-70 -127 -55.5 -128.5 Q-41 -130 -25 -130 Q-3 -130 14 -123.5 Q31 -117 43 -100.5 Q55 -84 63.5 -56 Q72 -28 78 14 L122 387 L37 387 L46 460 L133 480 L140 531 Q154 629 218 675 Q282 721 387 721 Q420 721 452.5 715.5 Q485 710 515 701 Q543 723 583 735 Q623 747 677 747 Q715 747 756.5 742 Q798 737 840 725 Q833 702 827 677.5 Q821 653 815 630 Q786 636 759.5 640 Q733 644 708 644 Q667 644 642.5 636.5 Q618 629 604 613 Q590 597 583.5 571 Q577 545 572 509 Q571 501 570 492 Q569 483 567 474 L695 474 Q707 474 726.5 475 Q746 476 769 477.5 Q792 479 816 482 Q840 485 860 490 Z M384 621 Q362 621 343 617.5 Q324 614 309 602.5 Q294 591 283.5 569 Q273 547 268 511 L263 474 L436 474 L440 508 Q443 535 447 562 Q451 589 459 612 Q439 616 417 618.5 Q395 621 384 621 Z " />
<glyph glyph-name="ffl" unicode="&#xfb04;" horiz-adv-x="945" d="M676 749 Q693 749 719 747 Q745 745 777 740 L878 758 L905 742 Q900 700 894 648 Q888 596 881.5 538.5 Q875 481 868.5 421 Q862 361 855.5 303 Q849 245 842.5 191.5 Q836 138 831 94 Q851 95 870.5 100.5 Q890 106 909 114 Q916 99 922 84.5 Q928 70 936 55 Q893 17 850 2 Q807 -13 777 -13 Q728 -13 711.5 8.5 Q695 30 695 68 Q695 73 696 84.5 Q697 96 699 113 Q700 125 705 166 Q710 207 716.5 261.5 Q723 316 730.5 377.5 Q738 439 744.5 493.5 Q751 548 756 588 Q761 628 762 640 Q744 643 728 644.5 Q712 646 695 646 Q655 646 631.5 635.5 Q608 625 595 604 Q582 583 576.5 550.5 Q571 518 567 474 L690 474 Q688 452 685.5 430.5 Q683 409 681 387 L557 387 Q552 344 547 298.5 Q542 253 537.5 209 Q533 165 528 123.5 Q523 82 519 48 Q511 -9 500.5 -58 Q490 -107 467 -142.5 Q444 -178 404.5 -198 Q365 -218 301 -218 Q281 -218 258 -214.5 Q235 -211 209 -203 L231 -116 Q248 -118 259.5 -119 Q271 -120 282 -120 Q304 -120 320 -115.5 Q336 -111 347.5 -99 Q359 -87 366.5 -66.5 Q374 -46 380 -13 Q383 5 387.5 38 Q392 71 396.5 110 Q401 149 405.5 191.5 Q410 234 414 272 Q418 310 421 340.5 Q424 371 426 387 L253 387 L219 93 Q210 18 198.5 -42 Q187 -102 164 -143.5 Q141 -185 101.5 -207 Q62 -229 -4 -229 Q-35 -229 -63.5 -224 Q-92 -219 -119 -210 L-97 -125 Q-71 -130 -56 -131 Q-41 -132 -26 -132 Q-5 -132 11.5 -126 Q28 -120 41 -103.5 Q54 -87 63 -59 Q72 -31 78 14 Q79 20 82.5 49 Q86 78 91 118 Q96 158 101 203.5 Q106 249 111 288.5 Q116 328 119 355.5 Q122 383 122 387 L37 387 Q39 406 41 423.5 Q43 441 46 460 L133 480 L141 528 Q148 572 166 607.5 Q184 643 213.5 668.5 Q243 694 284.5 708 Q326 722 381 722 Q416 722 448.5 716 Q481 710 515 701 Q573 749 676 749 Z M437 474 Q441 509 445 546.5 Q449 584 459 612 Q439 616 419 619 Q399 622 380 622 Q356 622 336.5 615.5 Q317 609 302 592.5 Q287 576 277 547.5 Q267 519 263 474 L437 474 Z " />
<glyph glyph-name="ft" unicode="&#xfb05;" horiz-adv-x="724" d="M431 631 Q412 636 395.5 637.5 Q379 639 365 639 Q342 639 325.5 632 Q309 625 296.5 606.5 Q284 588 276 556 Q268 524 262 474 L435 474 L490 596 L582 606 L566 474 L706 474 L697 388 L559 388 L532 175 Q531 169 530.5 163 Q530 157 530 152 Q530 125 543 113 Q556 101 586 101 Q598 101 623.5 104 Q649 107 675 114 L693 19 Q676 12 654.5 7 Q633 2 611 -1.5 Q589 -5 570 -6.5 Q551 -8 540 -8 Q462 -8 427 22.5 Q392 53 392 116 Q392 137 395 158 L424 388 L251 388 Q242 317 234.5 242 Q227 167 219 96 Q210 22 198.5 -36.5 Q187 -95 164 -135.5 Q141 -176 100.5 -197.5 Q60 -219 -6 -219 Q-26 -219 -56.5 -215.5 Q-87 -212 -120 -201 L-98 -114 Q-73 -119 -58 -120 Q-43 -121 -27 -121 Q-5 -121 11.5 -115 Q28 -109 41 -92.5 Q54 -76 63 -47.5 Q72 -19 78 26 Q79 33 82.5 61.5 Q86 90 90.5 128.5 Q95 167 100 211 Q105 255 109.5 292.5 Q114 330 117 356.5 Q120 383 121 388 L36 388 L45 460 L130 481 L136 522 Q142 564 155 603 Q168 642 192 672.5 Q216 703 253.5 721 Q291 739 347 739 Q368 739 395 736 Q422 733 451 724 L431 631 Z " />
<glyph glyph-name="afii10051" unicode="&#x402;" horiz-adv-x="818" d="M579 425 Q671 425 725.5 378.5 Q780 332 780 236 Q780 172 758.5 116.5 Q737 61 702.5 16 Q668 -29 624.5 -64 Q581 -99 536 -122 L489 -48 Q555 0 593.5 64 Q632 128 632 206 Q632 269 604.5 296 Q577 323 526 323 Q496 323 461 316.5 Q426 310 391 297 L366 94 L438 94 L428 0 L151 0 L162 94 L229 94 L290 594 L168 594 L158 512 L60 512 L81 687 L724 687 L702 512 L605 512 L614 594 L428 594 L403 392 Q449 409 494.5 417 Q540 425 579 425 Z " />
<glyph glyph-name="afii10053" unicode="&#x404;" horiz-adv-x="604" d="M541 126 Q545 101 549.5 76 Q554 51 559 25 Q537 17 510 10.5 Q483 4 454 0 Q425 -4 396 -6 Q367 -8 342 -8 Q262 -8 208.5 12.5 Q155 33 122 70 Q89 107 75 158.5 Q61 210 61 272 Q61 318 67 367.5 Q73 417 88.5 464.5 Q104 512 130.5 554.5 Q157 597 197.5 629.5 Q238 662 295 681 Q352 700 428 700 Q482 700 525.5 692 Q569 684 604 673 Q598 627 593 582 Q588 537 582 491 L482 491 L494 580 Q478 585 458 587.5 Q438 590 418 590 Q336 590 286.5 538.5 Q237 487 219 400 L452 403 Q449 380 447 356.5 Q445 333 443 310 L210 312 Q209 303 209 294.5 Q209 286 209 278 Q209 238 218 206 Q227 174 248 151.5 Q269 129 303.5 117 Q338 105 388 105 Q400 105 418.5 106.5 Q437 108 457.5 110.5 Q478 113 499.5 117 Q521 121 541 126 Z " />
<glyph glyph-name="afii10054" unicode="&#x405;" horiz-adv-x="596" d="M350 596 Q297 596 262 570.5 Q227 545 227 495 Q227 476 238 461.5 Q249 447 267.5 436.5 Q286 426 309.5 417.5 Q333 409 357 402 Q398 390 435 377 Q472 364 499.5 343.5 Q527 323 543.5 292.5 Q560 262 560 216 Q560 158 538 115.5 Q516 73 476 45 Q436 17 379.5 3 Q323 -11 255 -11 Q229 -11 199 -8.5 Q169 -6 138 0 Q107 6 78 16 Q49 26 24 41 L42 200 L140 200 L130 118 Q159 105 194.5 100 Q230 95 256 95 Q330 95 367 123 Q404 151 404 196 Q404 220 394.5 236 Q385 252 365.5 263 Q346 274 317 283 Q288 292 250 302 Q211 313 179 327.5 Q147 342 125 362.5 Q103 383 91 410.5 Q79 438 79 476 Q79 530 99 571.5 Q119 613 155 641 Q191 669 241.5 683.5 Q292 698 352 698 Q373 698 400.5 696 Q428 694 456.5 688.5 Q485 683 512 675 Q539 667 561 655 L541 498 L443 498 L453 579 Q427 589 400 592.5 Q373 596 350 596 Z " />
<glyph glyph-name="afii10055" unicode="&#x406;" horiz-adv-x="406" d="M43 0 L54 94 L120 94 L181 594 L115 594 L127 688 L397 688 L385 594 L320 594 L258 94 L324 94 L313 0 L43 0 Z " />
<glyph glyph-name="afii10057" unicode="&#x408;" horiz-adv-x="424" d="M116 688 L439 688 L428 594 L342 594 L288 160 Q279 89 258 31.5 Q237 -26 199 -69 Q161 -112 104 -140 Q47 -168 -33 -181 L-58 -83 Q3 -62 41 -38.5 Q79 -15 101 14 Q123 43 133 78 Q143 113 149 155 L203 594 L105 595 L116 688 Z " />
<glyph glyph-name="afii10058" unicode="&#x409;" horiz-adv-x="1008" d="M347 524 Q334 415 316.5 322.5 Q299 230 264 159.5 Q229 89 171 42.5 Q113 -4 19 -22 L-7 82 Q56 108 94 138.5 Q132 169 154.5 215 Q177 261 190 329 Q203 397 215 498 L227 594 L141 594 L153 688 L722 688 L711 594 L641 594 L618 418 L750 418 Q799 418 839.5 406.5 Q880 395 909 372 Q938 349 954 314 Q970 279 970 232 Q970 173 950.5 129.5 Q931 86 898 57.5 Q865 29 820.5 14.5 Q776 0 725 0 L366 0 L377 94 L439 94 L502 594 L355 594 L347 524 Z M607 325 L579 94 L703 94 Q728 94 750.5 102.5 Q773 111 789.5 127.5 Q806 144 816 169 Q826 194 826 226 Q826 277 795.5 301 Q765 325 718 325 L607 325 Z " />
<glyph glyph-name="afii10059" unicode="&#x40a;" horiz-adv-x="1042" d="M745 594 L673 594 L652 413 L783 413 Q831 413 871.5 402 Q912 391 941.5 369 Q971 347 987 312.5 Q1003 278 1003 232 Q1003 176 984 132.5 Q965 89 932 59.5 Q899 30 854.5 15 Q810 0 759 0 L401 0 L412 94 L473 94 L501 322 L264 322 L236 94 L295 94 L284 0 L19 0 L29 94 L97 94 L158 594 L91 594 L103 687 L367 687 L356 594 L297 594 L274 411 L513 411 L535 594 L472 594 L483 688 L756 688 L745 594 Z M640 321 L613 94 L737 94 Q788 94 823.5 127 Q859 160 859 226 Q859 275 829 298 Q799 321 753 321 L640 321 Z " />
<glyph glyph-name="afii10060" unicode="&#x40b;" horiz-adv-x="870" d="M819 94 L809 0 L543 0 L555 94 L616 94 L633 234 Q640 287 613.5 307 Q587 327 535 327 Q498 327 459.5 317.5 Q421 308 393 296 L369 94 L433 94 L422 0 L153 0 L164 94 L231 94 L293 594 L170 594 L161 512 L62 512 L83 687 L721 687 L699 512 L602 512 L612 594 L431 594 L406 395 Q451 409 499 417.5 Q547 426 589 426 Q634 426 671 416.5 Q708 407 733 386.5 Q758 366 769.5 333.5 Q781 301 775 254 L755 94 L819 94 Z " />
<glyph glyph-name="afii10145" unicode="&#x40f;" horiz-adv-x="762" d="M779 686 L768 593 L701 593 Q695 543 686.5 477.5 Q678 412 670 343 Q662 274 654 208.5 Q646 143 640 93 L706 93 L696 0 L410 0 L386 -189 L280 -189 Q282 -172 285.5 -146.5 Q289 -121 292 -94 Q295 -67 298 -42 Q301 -17 303 0 L15 0 Q16 7 17.5 19.5 Q19 32 21 46.5 Q23 61 24.5 73.5 Q26 86 27 93 L93 93 L156 593 L88 593 Q89 600 90.5 613 Q92 626 93.5 640 Q95 654 97 666.5 Q99 679 100 686 L367 686 Q366 679 364.5 666.5 Q363 654 361.5 640 Q360 626 358.5 613 Q357 600 356 593 L295 593 L232 93 L499 93 L562 593 L501 593 Q502 600 503.5 613 Q505 626 506.5 640 Q508 654 510 666.5 Q512 679 513 686 L779 686 Z " />
<glyph glyph-name="afii10017" unicode="&#x410;" horiz-adv-x="714" d="M473 190 L236 190 L194 94 L257 94 L246 0 L-6 0 L4 94 L60 94 L334 688 L505 688 L628 94 L681 94 L670 0 L419 0 L429 94 L491 94 L473 190 Z M351 454 L277 282 L457 282 L427 448 L406 576 L403 576 L351 454 Z " />
<glyph glyph-name="afii10018" unicode="&#x411;" horiz-adv-x="662" d="M596 517 L497 517 L507 594 L294 594 L272 418 L404 418 Q453 418 493 406.5 Q533 395 562 372 Q591 349 607 314 Q623 279 623 232 Q623 173 603.5 129.5 Q584 86 551 57.5 Q518 29 473.5 14.5 Q429 0 379 0 L14 0 L24 94 L93 94 L155 594 L90 594 L102 687 L617 687 L596 517 Z M261 325 L233 94 L357 94 Q382 94 404.5 102.5 Q427 111 443.5 128 Q460 145 469.5 170 Q479 195 479 228 Q479 277 449.5 301 Q420 325 373 325 L261 325 Z " />
<glyph glyph-name="afii10019" unicode="&#x412;" horiz-adv-x="665" d="M533 360 Q561 350 579.5 333.5 Q598 317 608 297 Q618 277 622 255.5 Q626 234 626 215 Q626 163 607.5 123 Q589 83 557 55.5 Q525 28 483 14 Q441 0 393 0 L15 0 Q16 7 17.5 20 Q19 33 21 47 Q23 61 24.5 74 Q26 87 27 94 L96 94 L157 594 L90 594 L102 687 L459 687 Q554 687 598 643 Q642 599 642 529 Q642 505 637 481.5 Q632 458 619.5 436 Q607 414 586 394.5 Q565 375 533 361 L533 360 Z M261 309 Q258 286 254.5 258 Q251 230 247.5 201 Q244 172 241 144 Q238 116 235 94 L356 94 Q419 94 449.5 128.5 Q480 163 480 217 Q480 254 456.5 281.5 Q433 309 383 309 L261 309 Z M296 594 L272 397 L381 397 Q435 397 466.5 429 Q498 461 498 510 Q498 548 476 571 Q454 594 405 594 L296 594 Z " />
<glyph glyph-name="afii10020" unicode="&#x413;" horiz-adv-x="601" d="M17 0 L27 94 L96 94 L157 594 L91 594 L102 687 L644 687 L619 489 L521 489 L534 594 L296 594 L234 94 L325 94 L314 0 L17 0 Z " />
<glyph glyph-name="afii10021" unicode="&#x414;" horiz-adv-x="751" d="M98 0 L76 -177 L-27 -177 L5 91 L62 94 Q103 131 132 179 Q161 227 181 285 Q201 343 214 409.5 Q227 476 236 550 L241 594 L167 594 L179 687 L757 687 L745 594 L678 594 L617 94 L686 91 L653 -177 L551 -177 L573 0 L98 0 Z M361 541 Q352 463 340.5 396 Q329 329 312 273.5 Q295 218 272 173.5 Q249 129 217 94 L479 94 L540 594 L367 594 L361 541 Z " />
<glyph glyph-name="afii10022" unicode="&#x415;" horiz-adv-x="630" d="M17 0 L27 94 L95 94 L156 594 L91 594 L102 687 L641 687 L616 489 L518 489 L531 594 L295 594 L271 400 L486 405 L475 308 L260 313 L234 94 L488 94 L502 204 L602 204 L577 0 L17 0 Z " />
<glyph glyph-name="afii10024" unicode="&#x416;" horiz-adv-x="1008" d="M619 593 Q604 467 588 343 Q572 219 558 93 L623 93 Q620 70 617 46.5 Q614 23 612 0 L348 0 L359 93 L423 93 L484 593 L420 593 Q423 616 426 639.5 Q429 663 431 686 L695 686 Q692 663 689 639.5 Q686 616 684 593 L619 593 Z M1021 590 Q998 588 976.5 586 Q955 584 932 582 L741 350 Q775 287 808.5 224.5 Q842 162 875 99 L967 89 Q968 69 968 49.5 Q968 30 970 10 Q957 5 942 2 Q927 -1 912 -3.5 Q897 -6 883.5 -7 Q870 -8 861 -8 Q844 -8 830.5 -7 Q817 -6 805 -0.5 Q793 5 782.5 15.5 Q772 26 763 44 L614 327 L618 370 L861 663 Q878 683 896.5 688.5 Q915 694 935 694 Q963 694 988 687 Q1013 680 1036 669 L1021 590 Z M306 355 L164 582 Q142 584 120 586 Q98 588 75 590 Q74 610 74 629.5 Q74 649 74 669 Q97 681 127.5 688 Q158 695 184 696 Q201 696 218.5 691 Q236 686 251 661 L428 369 Q426 358 425 347 Q424 336 423 325 L182 30 Q170 16 156.5 8 Q143 0 129.5 -3.5 Q116 -7 103 -7.5 Q90 -8 79 -8 Q61 -8 38.5 -3 Q16 2 -1 10 Q0 30 1.5 49.5 Q3 69 5 89 L96 99 L306 355 Z " />
<glyph glyph-name="afii10025" unicode="&#x417;" horiz-adv-x="596" d="M189 482 L88 482 Q94 526 98.5 569 Q103 612 108 655 Q135 667 165.5 675.5 Q196 684 226 689.5 Q256 695 284 697.5 Q312 700 334 700 Q380 700 422 691 Q464 682 496.5 662.5 Q529 643 548 612.5 Q567 582 567 538 Q567 484 536.5 440 Q506 396 447 373 L447 372 Q500 353 525.5 313.5 Q551 274 551 228 Q551 169 525.5 125 Q500 81 457 52 Q414 23 356.5 8.5 Q299 -6 236 -6 Q209 -6 178.5 -3 Q148 0 118 5 Q88 10 60.5 18 Q33 26 12 36 L52 131 Q103 114 148 107.5 Q193 101 226 101 Q317 101 361 135.5 Q405 170 405 228 Q405 270 373.5 293.5 Q342 317 283 317 L200 317 L210 410 L286 410 Q319 410 345 418.5 Q371 427 388.5 442 Q406 457 415 476.5 Q424 496 424 518 Q424 541 415 556.5 Q406 572 390.5 582 Q375 592 354 596 Q333 600 308 600 Q281 600 253.5 594.5 Q226 589 201 581 L189 482 Z " />
<glyph glyph-name="afii10026" unicode="&#x418;" horiz-adv-x="781" d="M523 686 L800 686 L788 593 L719 593 L657 93 L727 93 L716 0 L445 0 L457 93 L522 93 L565 443 L563 443 L236 124 L232 93 L297 93 L286 0 L14 0 L25 93 L96 93 L157 593 L88 593 L99 686 L371 686 L360 593 L294 593 L252 248 L253 248 L581 566 L584 593 L511 593 L523 686 Z " />
<glyph glyph-name="afii10028" unicode="&#x41a;" horiz-adv-x="700" d="M232 94 L296 94 L285 0 L17 0 L27 94 L93 94 L155 594 L89 594 L100 687 L368 687 L358 594 L293 594 L232 94 Z M567 98 L657 91 L659 11 Q646 6 631 2 Q616 -2 601 -4.5 Q586 -7 572.5 -8 Q559 -9 550 -9 Q514 -11 491.5 -0.5 Q469 10 452 39 L292 332 L297 376 L508 641 Q532 673 555 685 Q578 697 607 696 Q665 696 711 670 L695 591 L614 584 L419 356 L567 98 Z " />
<glyph glyph-name="afii10029" unicode="&#x41b;" horiz-adv-x="733" d="M393 0 L404 94 L464 94 L525 594 L355 594 L347 524 Q334 415 316.5 322.5 Q299 230 264 159.5 Q229 89 171 42.5 Q113 -4 19 -22 L-7 82 Q56 108 94 138.5 Q132 169 154.5 215 Q177 261 190 329 Q203 397 215 498 L227 594 L141 594 L153 688 L743 688 L731 594 L664 594 L603 94 L670 94 L659 0 L393 0 Z " />
<glyph glyph-name="afii10030" unicode="&#x41c;" horiz-adv-x="934" d="M475 245 L523 338 Q549 387 574.5 435 Q600 483 626 531 L709 687 L952 687 Q949 664 945.5 640 Q942 616 940 593 L878 593 Q863 468 848 343.5 Q833 219 817 93 L878 93 L867 0 L614 0 Q616 23 618.5 46.5 Q621 70 624 93 L682 93 L731 498 L729 498 Q718 478 707.5 457 Q697 436 686 416 L614 282 Q589 236 564 190.5 Q539 145 515 100 L399 100 L348 258 L274 498 L271 498 L222 93 L284 93 Q281 70 278 46.5 Q275 23 273 0 L15 0 L26 93 L94 93 L154 593 L88 593 Q90 616 93 640 Q96 664 99 687 L336 687 L387 522 Q400 484 411.5 445 Q423 406 435 366 L470 245 L475 245 Z " />
<glyph glyph-name="afii10031" unicode="&#x41d;" horiz-adv-x="762" d="M429 0 L441 94 L501 94 L527 312 L260 312 L234 94 L295 94 L284 0 L17 0 L27 94 L94 94 L156 594 L89 594 L100 688 L367 688 L356 594 L295 594 L271 403 L538 403 L562 594 L501 594 L513 688 L780 688 L769 594 L702 594 L641 94 L707 94 L697 0 L429 0 Z " />
<glyph glyph-name="afii10032" unicode="&#x41e;" horiz-adv-x="718" d="M414 700 Q489 700 541 677.5 Q593 655 626 615.5 Q659 576 674 522.5 Q689 469 689 406 Q689 317 666 241 Q643 165 599 109.5 Q555 54 490 22 Q425 -10 341 -10 Q268 -10 215.5 10.5 Q163 31 129 68.5 Q95 106 78.5 158.5 Q62 211 62 276 Q62 359 83 436 Q104 513 147.5 571.5 Q191 630 257.5 665 Q324 700 414 700 Z M408 599 Q351 599 312.5 570 Q274 541 250.5 494.5 Q227 448 217 389.5 Q207 331 207 273 Q207 185 240.5 138.5 Q274 92 349 92 Q401 92 437.5 117.5 Q474 143 497.5 187 Q521 231 531.5 289 Q542 347 542 412 Q542 450 536 484 Q530 518 515 543.5 Q500 569 474 584 Q448 599 408 599 Z " />
<glyph glyph-name="afii10033" unicode="&#x41f;" horiz-adv-x="762" d="M429 0 L441 94 L501 94 L562 593 L295 593 L234 94 L295 94 L284 0 L17 0 L27 94 L94 94 L155 593 L88 593 L100 688 L780 688 L768 593 L701 593 L641 94 L707 94 L697 0 L429 0 Z " />
<glyph glyph-name="afii10034" unicode="&#x420;" horiz-adv-x="614" d="M418 688 Q523 688 572.5 639 Q622 590 622 503 Q622 460 608 417.5 Q594 375 564 341.5 Q534 308 487.5 287 Q441 266 377 266 L253 266 L231 94 L317 94 L306 0 L17 0 L27 94 L93 94 L154 594 L89 594 L100 688 L418 688 Z M293 594 L264 357 L353 357 Q377 357 399 365.5 Q421 374 438 391 Q455 408 465 433.5 Q475 459 475 494 Q475 545 450 569.5 Q425 594 381 594 L293 594 Z " />
<glyph glyph-name="afii10035" unicode="&#x421;" horiz-adv-x="604" d="M429 701 Q482 701 527 693.5 Q572 686 607 673 L583 480 L484 480 L496 581 Q481 585 461.5 588 Q442 591 422 591 Q367 591 327 568.5 Q287 546 260.5 505.5 Q234 465 221.5 409 Q209 353 209 286 Q209 193 251.5 152 Q294 111 388 111 Q400 111 418 112.5 Q436 114 457 116.5 Q478 119 499.5 123 Q521 127 541 132 L559 26 Q538 18 511 11 Q484 4 455 -0.5 Q426 -5 397 -7.5 Q368 -10 343 -10 Q263 -10 209.5 11 Q156 32 123 69.5 Q90 107 76 159 Q62 211 62 273 Q62 318 68 367.5 Q74 417 89.5 464.5 Q105 512 131.5 555 Q158 598 199 630.5 Q240 663 296.5 682 Q353 701 429 701 Z " />
<glyph glyph-name="afii10036" unicode="&#x422;" horiz-adv-x="611" d="M133 0 L144 94 L223 94 L285 594 L162 594 L149 484 L51 484 L76 688 L653 688 L628 484 L530 484 L544 594 L422 594 L361 94 L441 94 L430 0 L133 0 Z " />
<glyph glyph-name="afii10037" unicode="&#x423;" horiz-adv-x="650" d="M320 687 L309 593 L249 593 Q254 576 261.5 553 Q269 530 276.5 505.5 Q284 481 291.5 457.5 Q299 434 304 417 L346 284 L352 284 Q356 296 364 312.5 Q372 329 380.5 347 Q389 365 397.5 382 Q406 399 411 410 L498 593 L437 593 L449 687 L697 687 L686 593 L633 593 L384 95 Q367 63 351 41.5 Q335 20 316.5 7 Q298 -6 276 -11.5 Q254 -17 226 -17 Q199 -17 167 -13 Q135 -9 93 3 L118 95 Q144 90 166 87.5 Q188 85 202 85 Q222 85 237.5 96 Q253 107 268 136 L297 196 L258 196 Q251 218 239.5 250 Q228 282 214.5 318.5 Q201 355 186.5 394.5 Q172 434 158.5 470.5 Q145 507 134 539 Q123 571 116 593 L64 593 L74 687 L320 687 Z " />
<glyph glyph-name="afii10038" unicode="&#x424;" horiz-adv-x="804" d="M548 687 L542 641 Q613 636 665.5 613.5 Q718 591 753 556 Q788 521 805.5 475.5 Q823 430 823 378 Q823 314 796 259 Q769 204 721.5 163 Q674 122 610 96.5 Q546 71 472 67 L464 0 L329 0 L337 67 Q269 70 216 89.5 Q163 109 126 142 Q89 175 70 220 Q51 265 51 320 Q51 380 77 436.5 Q103 493 149.5 537 Q196 581 261.5 609.5 Q327 638 407 642 L413 687 L548 687 Z M395 538 Q349 534 310 516.5 Q271 499 243 471.5 Q215 444 199.5 408 Q184 372 184 330 Q184 260 227 219 Q270 178 349 169 L395 538 Z M484 169 Q526 173 563.5 189 Q601 205 629 231 Q657 257 673.5 292.5 Q690 328 690 371 Q690 403 680.5 432 Q671 461 651.5 483.5 Q632 506 602 520.5 Q572 535 531 538 L484 169 Z " />
<glyph glyph-name="afii10039" unicode="&#x425;" horiz-adv-x="685" d="M469 688 L721 688 L710 593 L657 593 L453 348 L591 95 L653 95 L643 0 L362 0 L374 95 L431 95 L335 280 L192 95 L256 95 L245 0 L-8 0 L3 95 L50 95 L264 367 L144 593 L74 593 L86 688 L364 688 L352 593 L298 593 L382 429 L514 593 L458 593 L469 688 Z " />
<glyph glyph-name="afii10040" unicode="&#x426;" horiz-adv-x="762" d="M699 593 Q685 467 669.5 342.5 Q654 218 639 92 L723 92 Q715 26 707 -40.5 Q699 -107 691 -175 L588 -175 Q594 -131 599.5 -87.5 Q605 -44 610 0 L14 0 Q18 23 20.5 46 Q23 69 25 92 L93 92 L154 593 L88 593 Q90 616 93 639.5 Q96 663 99 686 L366 686 L354 593 L293 593 L232 92 L499 92 L560 593 L500 593 Q503 616 505.5 639.5 Q508 663 512 686 L778 686 L767 593 L699 593 L699 593 Z " />
<glyph glyph-name="afii10041" unicode="&#x427;" horiz-adv-x="722" d="M653 0 L382 0 L393 93 L459 93 Q464 141 470.5 189 Q477 237 483 285 Q439 273 396 268 Q353 263 313 263 Q268 263 230 272 Q192 281 164.5 299.5 Q137 318 122 346.5 Q107 375 107 413 Q107 419 107.5 425 Q108 431 109 438 L129 593 L64 593 Q71 639 76 686 L340 686 L329 593 L268 593 L252 463 Q251 458 251 454 Q251 450 251 445 Q251 403 279.5 384 Q308 365 361 365 Q394 365 429.5 370.5 Q465 376 495 387 L520 593 L461 593 Q464 616 467 639.5 Q470 663 472 686 L736 686 L726 593 L658 593 Q644 467 628 343 Q612 219 597 93 L664 93 L653 0 Z " />
<glyph glyph-name="afii10042" unicode="&#x428;" horiz-adv-x="1040" d="M499 593 L443 593 L454 687 L703 687 L692 593 L634 593 L573 93 L784 93 L845 593 L786 593 L797 687 L1058 687 L1046 593 L980 593 L919 93 L985 93 L974 0 L17 0 L27 93 L94 93 L156 593 L89 593 L100 687 L361 687 L350 593 L291 593 L229 93 L438 93 L499 593 Z " />
<glyph glyph-name="afii10043" unicode="&#x429;" horiz-adv-x="1040" d="M499 593 L443 593 L454 687 L703 687 L692 593 L634 593 L573 93 L784 93 L845 593 L786 593 L797 687 L1058 687 L1046 593 L980 593 L919 93 L1002 93 L969 -177 L867 -177 L889 0 L17 0 L27 93 L94 93 L156 593 L89 593 L100 687 L361 687 L350 593 L291 593 L229 93 L438 93 L499 593 Z " />
<glyph glyph-name="afii10044" unicode="&#x42a;" horiz-adv-x="815" d="M425 418 L558 418 Q606 418 646 406.5 Q686 395 715.5 372.5 Q745 350 761 315 Q777 280 777 234 Q777 175 757.5 131 Q738 87 705 58 Q672 29 627.5 14.5 Q583 0 532 0 L167 0 L178 94 L247 94 L308 594 L163 594 L148 479 L50 479 L76 687 L525 687 L513 594 L448 594 L425 418 Z M415 325 L386 94 L510 94 Q561 94 597 128.5 Q633 163 633 229 Q633 277 603 301 Q573 325 527 325 L415 325 Z " />
<glyph glyph-name="afii10045" unicode="&#x42b;" horiz-adv-x="982" d="M263 325 L236 94 L359 94 Q410 94 446 128.5 Q482 163 482 229 Q482 277 452 301 Q422 325 376 325 L263 325 Z M367 594 L296 594 L275 418 L407 418 Q455 418 495.5 406.5 Q536 395 565 372.5 Q594 350 610 315 Q626 280 626 234 Q626 176 606.5 132 Q587 88 554 59 Q521 30 476.5 15 Q432 0 381 0 L17 0 L27 94 L96 94 L158 594 L89 594 L100 688 L379 688 L367 594 Z M643 0 L654 94 L720 94 L782 594 L716 594 L727 687 L997 687 L986 594 L920 594 L860 94 L925 94 L914 0 L643 0 Z " />
<glyph glyph-name="afii10046" unicode="&#x42c;" horiz-adv-x="670" d="M268 325 L241 94 L364 94 Q415 94 451 128.5 Q487 163 487 229 Q487 277 457 301 Q427 325 381 325 L268 325 Z M372 594 L301 594 L280 418 L412 418 Q460 418 500.5 407 Q541 396 570 373.5 Q599 351 615.5 316.5 Q632 282 632 236 Q632 176 612.5 132 Q593 88 559.5 58.5 Q526 29 481.5 14.5 Q437 0 386 0 L22 0 L32 94 L101 94 L163 594 L94 594 L105 688 L384 688 L372 594 Z " />
<glyph glyph-name="afii10047" unicode="&#x42d;" horiz-adv-x="604" d="M424 313 Q368 312 313 311 Q258 310 202 310 Q206 333 208.5 356.5 Q211 380 215 403 L435 400 Q437 410 437 419 Q437 428 437 437 Q437 471 428.5 499.5 Q420 528 402 548.5 Q384 569 355 580.5 Q326 592 285 592 Q265 592 240 588.5 Q215 585 198 581 Q195 558 192 535.5 Q189 513 187 490 L87 490 L110 671 Q148 684 197.5 692 Q247 700 300 700 Q383 700 437 677 Q491 654 523 615 Q555 576 567.5 524 Q580 472 580 414 Q580 330 560 254 Q540 178 496 119.5 Q452 61 382.5 26.5 Q313 -8 213 -8 Q162 -8 110 0 Q58 8 20 25 Q28 51 37 75.5 Q46 100 54 125 Q90 116 130 110 Q170 104 199 104 Q250 104 289.5 119 Q329 134 356.5 161.5 Q384 189 401 227.5 Q418 266 424 313 Z " />
<glyph glyph-name="afii10048" unicode="&#x42e;" horiz-adv-x="1021" d="M727 700 Q799 700 849.5 678 Q900 656 932 617 Q964 578 978.5 524.5 Q993 471 993 409 Q993 320 971.5 243.5 Q950 167 907 111 Q864 55 801 23.5 Q738 -8 655 -8 Q582 -8 530.5 12.5 Q479 33 446 71 Q413 109 398 163 Q383 217 383 284 Q383 291 383.5 297.5 Q384 304 384 311 L259 311 L232 93 L293 93 L282 0 L15 0 L26 93 L93 93 Q108 219 124 343 Q140 467 155 593 L88 593 Q90 616 93 639.5 Q96 663 99 686 L369 686 L357 593 L294 593 L270 401 L397 401 Q410 462 435.5 516.5 Q461 571 501 611.5 Q541 652 596.5 676 Q652 700 727 700 Z M717 598 Q661 598 624 568.5 Q587 539 564.5 491.5 Q542 444 532.5 384.5 Q523 325 523 266 Q523 180 555 135 Q587 90 663 90 Q713 90 749 116 Q785 142 808 186.5 Q831 231 841.5 289.5 Q852 348 852 414 Q852 452 845 485.5 Q838 519 822.5 544 Q807 569 781 583.5 Q755 598 717 598 Z " />
<glyph glyph-name="afii10049" unicode="&#x42f;" horiz-adv-x="682" d="M370 594 Q346 594 324 586.5 Q302 579 285.5 563 Q269 547 259 522 Q249 497 249 463 Q249 435 259 417.5 Q269 400 284.5 390.5 Q300 381 318.5 377.5 Q337 374 354 374 L447 374 L474 594 L370 594 Z M331 284 L206 63 Q196 45 186 31 Q176 17 164 7.5 Q152 -2 136.5 -6.5 Q121 -11 100 -11 Q91 -11 77.5 -10 Q64 -9 49.5 -7 Q35 -5 20.5 -2 Q6 1 -5 5 L2 83 L82 94 L206 307 Q177 316 157.5 333 Q138 350 126.5 372 Q115 394 110 418 Q105 442 105 465 Q105 516 121.5 557 Q138 598 169.5 627 Q201 656 246.5 672 Q292 688 351 688 L688 688 L677 594 L613 594 L551 94 L617 94 L606 0 L337 0 L348 94 L413 94 L436 284 L331 284 Z " />
<glyph glyph-name="afii10065" unicode="&#x430;" horiz-adv-x="605" d="M303 500 Q361 500 422 471 L445 500 L542 494 Q524 379 509 277.5 Q494 176 486 95 Q507 97 524 103 Q541 109 561 119 Q562 116 566 107.5 Q570 99 575 88.5 Q580 78 584 69.5 Q588 61 590 58 Q574 43 554 30 Q534 17 513 7 Q492 -3 472 -8.5 Q452 -14 435 -14 Q396 -14 378.5 4 Q361 22 358 52 Q357 69 359 86.5 Q361 104 364 123 L359 123 Q337 84 314 58 Q291 32 268 16.5 Q245 1 221.5 -5 Q198 -11 175 -11 Q113 -11 76.5 31 Q40 73 40 159 Q40 229 56.5 291 Q73 353 106 399.5 Q139 446 188.5 473 Q238 500 303 500 Z M233 84 Q249 84 267 93 Q285 102 303 123.5 Q321 145 339.5 181 Q358 217 375 271 L394 384 Q368 393 346.5 396 Q325 399 310 399 Q271 399 245 377.5 Q219 356 203 323.5 Q187 291 180.5 252.5 Q174 214 174 181 Q174 132 190.5 108 Q207 84 233 84 Z " />
<glyph glyph-name="afii10066" unicode="&#x431;" horiz-adv-x="555" d="M354 489 Q439 489 481.5 438.5 Q524 388 524 294 Q524 241 508.5 187.5 Q493 134 460 90.5 Q427 47 374.5 19.5 Q322 -8 248 -8 Q185 -8 144.5 8 Q104 24 81 52.5 Q58 81 49 119.5 Q40 158 40 204 Q40 231 42.5 262 Q45 293 49.5 325 Q54 357 60 388.5 Q66 420 73 447 Q99 547 145 612 Q191 677 267 700 Q291 707 319.5 711.5 Q348 716 378.5 719 Q409 722 440.5 726 Q472 730 502 736 Q503 729 505 716 Q507 703 509 689 Q511 675 513 662 Q515 649 517 642 Q469 631 426 627 Q383 623 354 618 Q315 613 286.5 598.5 Q258 584 237 557 Q216 530 201.5 489 Q187 448 177 388 L182 384 Q205 419 229.5 439.5 Q254 460 277 471 Q300 482 320 485.5 Q340 489 354 489 Z M253 89 Q282 89 306 104 Q330 119 347 146 Q364 173 373 212 Q382 251 382 299 Q382 351 359.5 371.5 Q337 392 308 392 Q279 392 240.5 364 Q202 336 176 272 Q172 249 170 228 Q168 207 168 191 Q168 170 172 151.5 Q176 133 185.5 119 Q195 105 211.5 97 Q228 89 253 89 Z " />
<glyph glyph-name="afii10067" unicode="&#x432;" horiz-adv-x="529" d="M235 -12 Q193 -12 137 -4 Q81 4 27 30 L19 44 L48 287 Q52 334 69 373.5 Q86 413 115 442 Q144 471 186.5 487 Q229 503 285 503 Q323 503 356 494 Q389 485 414 467.5 Q439 450 453.5 425.5 Q468 401 468 370 Q468 342 454 313.5 Q440 285 405 269 L405 268 Q449 261 469 231.5 Q489 202 489 171 Q489 123 468.5 88 Q448 53 413 31 Q378 9 332 -1.5 Q286 -12 235 -12 Z M241 81 Q258 81 277 85 Q296 89 312.5 98.5 Q329 108 340 124.5 Q351 141 351 166 Q351 194 330 209 Q309 224 274 224 L231 224 L238 296 L274 296 Q303 296 319.5 313 Q336 330 336 356 Q336 376 321 394 Q306 412 271 412 Q247 412 230.5 402.5 Q214 393 202.5 376 Q191 359 185 336.5 Q179 314 176 287 L154 94 Q174 87 199 84 Q224 81 241 81 Z " />
<glyph glyph-name="afii10068" unicode="&#x433;" horiz-adv-x="466" d="M284 502 Q356 502 398 473.5 Q440 445 440 388 Q440 358 425 333.5 Q410 309 384 287.5 Q358 266 322.5 247.5 Q287 229 245 211 Q210 196 186.5 177 Q163 158 163 129 Q163 106 180.5 94.5 Q198 83 230 83 Q263 83 306.5 95.5 Q350 108 395 128 L427 55 Q401 38 371.5 25.5 Q342 13 312.5 5 Q283 -3 255 -7 Q227 -11 203 -11 Q122 -11 76 17 Q30 45 30 112 Q30 145 46.5 172 Q63 199 89 221 Q115 243 147.5 261 Q180 279 213 294 Q231 302 247 311 Q263 320 276 329.5 Q289 339 296.5 350 Q304 361 304 373 Q304 396 287 403.5 Q270 411 250 411 Q221 411 183.5 399.5 Q146 388 105 371 L75 443 Q120 471 175 486.5 Q230 502 284 502 Z " />
<glyph glyph-name="afii10069" unicode="&#x434;" horiz-adv-x="584" d="M297 732 Q427 732 482.5 660 Q538 588 538 451 Q537 411 533.5 361 Q530 311 518.5 260 Q507 209 487.5 161 Q468 113 435.5 75.5 Q403 38 356.5 15 Q310 -8 246 -8 Q184 -8 144 7 Q104 22 81 48.5 Q58 75 48.5 111 Q39 147 39 189 Q39 245 54 299.5 Q69 354 100 397.5 Q131 441 177.5 468 Q224 495 287 495 Q315 495 348 490 Q381 485 410 470 L412 473 Q414 506 410 534.5 Q406 563 392.5 584.5 Q379 606 355 618 Q331 630 292 630 Q279 630 266 629.5 Q253 629 237 627 Q221 625 201 620.5 Q181 616 154 609 Q149 632 144.5 654 Q140 676 135 699 Q223 732 297 732 Z M398 378 Q375 388 351 391 Q327 394 307 394 Q272 394 247 375.5 Q222 357 205.5 326.5 Q189 296 181 257 Q173 218 173 178 Q173 133 190.5 111 Q208 89 248 89 Q281 89 307.5 105.5 Q334 122 353 156.5 Q372 191 383.5 246 Q395 301 398 378 Z " />
<glyph glyph-name="afii10070" unicode="&#x435;" horiz-adv-x="506" d="M321 503 Q390 503 433 468 Q476 433 476 369 Q476 294 404 248 Q332 202 173 193 Q172 188 172 182.5 Q172 177 172 172 Q172 155 175.5 139 Q179 123 189.5 111 Q200 99 217.5 91.5 Q235 84 264 84 Q299 84 337.5 93 Q376 102 411 116 L436 40 Q394 17 338.5 4 Q283 -9 232 -9 Q173 -9 135.5 6.5 Q98 22 77 49 Q56 76 48 111.5 Q40 147 40 187 Q40 241 53.5 297 Q67 353 99.5 398.5 Q132 444 186 473.5 Q240 503 321 503 Z M301 407 Q246 407 214.5 367 Q183 327 176 257 Q354 265 354 354 Q354 377 341.5 392 Q329 407 301 407 Z " />
<glyph glyph-name="afii10072" unicode="&#x436;" horiz-adv-x="876" d="M490 504 Q518 504 531 487.5 Q544 471 544 447 Q544 440 543 436 Q538 395 530.5 339 Q523 283 515 222.5 Q507 162 499 103.5 Q491 45 485 0 L352 0 Q367 110 379.5 205.5 Q392 301 405 401 L346 409 L351 478 Q397 492 429 498 Q461 504 490 504 Z M777 501 Q797 501 811 495 Q825 489 834.5 479 Q844 469 849 457.5 Q854 446 856 434 L812 388 Q798 396 787 398.5 Q776 401 766 401 Q750 401 733 391 Q716 381 699 365 Q682 349 665.5 328 Q649 307 634 286 Q650 253 667.5 221.5 Q685 190 701.5 163.5 Q718 137 732 116.5 Q746 96 755 86 Q775 92 790 100.5 Q805 109 820 120 L860 75 Q822 26 784.5 6 Q747 -14 709 -14 Q681 -14 656 13 Q631 40 609 79 Q587 118 568.5 162 Q550 206 536 240 L541 278 Q564 326 593.5 366.5 Q623 407 654.5 437 Q686 467 717.5 484 Q749 501 777 501 Z M154 499 Q184 499 217.5 478 Q251 457 282 424 Q313 391 336.5 350.5 Q360 310 371 271 L365 238 Q343 202 314 158 Q285 114 253 75.5 Q221 37 186.5 11.5 Q152 -14 119 -14 Q87 -14 58.5 5 Q30 24 3 69 L51 118 Q65 107 77.5 98.5 Q90 90 109 85 Q140 114 183 165 Q226 216 271 277 Q261 300 245.5 321.5 Q230 343 212 360 Q194 377 174.5 387 Q155 397 138 397 Q127 397 115 395 Q103 393 89 385 L55 432 Q68 457 91 478 Q114 499 154 499 Z " />
<glyph glyph-name="afii10073" unicode="&#x437;" horiz-adv-x="481" d="M250 502 Q338 502 389.5 470.5 Q441 439 441 382 Q441 368 436.5 352.5 Q432 337 422 321 Q412 305 395.5 291 Q379 277 354 268 L354 264 Q399 253 420 222.5 Q441 192 441 156 Q441 118 423.5 87.5 Q406 57 374 35.5 Q342 14 296.5 2.5 Q251 -9 195 -9 Q138 -9 89 -0.5 Q40 8 9 23 Q17 44 23.5 64.5 Q30 85 37 106 Q72 94 108.5 88 Q145 82 176 82 Q203 82 226.5 87 Q250 92 267.5 102.5 Q285 113 295 129.5 Q305 146 305 169 Q305 184 298 194.5 Q291 205 280 211 Q269 217 255.5 219.5 Q242 222 229 222 L174 222 L182 297 L230 297 Q243 297 257 300 Q271 303 282.5 310 Q294 317 301.5 328 Q309 339 309 354 Q309 384 284.5 396.5 Q260 409 228 409 Q211 409 193.5 405.5 Q176 402 161 397 L133 316 L66 321 Q63 350 61.5 374.5 Q60 399 62 425 Q63 449 79.5 461.5 Q96 474 116 482 Q142 491 178.5 496.5 Q215 502 250 502 Z " />
<glyph glyph-name="afii10074" unicode="&#x438;" horiz-adv-x="635" d="M197 501 Q235 501 248 483 Q261 465 261 434 Q261 423 258.5 400 Q256 377 253 348.5 Q250 320 245.5 288.5 Q241 257 238 229 Q235 201 232.5 178.5 Q230 156 230 145 Q230 122 238.5 108.5 Q247 95 270 95 Q286 95 304 104.5 Q322 114 341 136 Q360 158 377.5 193 Q395 228 410 278 L439 490 L567 490 Q554 394 541 292 Q528 190 516 94 Q537 95 555 100.5 Q573 106 591 114 L618 55 Q599 37 578 24.5 Q557 12 536 3.5 Q515 -5 495.5 -9 Q476 -13 461 -13 Q421 -13 405 5 Q389 23 389 49 Q389 66 391 86 Q393 106 395 122 L390 122 Q367 83 341.5 57.5 Q316 32 290.5 17 Q265 2 241 -4 Q217 -10 198 -10 Q90 -10 90 92 Q90 136 100 209.5 Q110 283 124 398 L35 412 L41 475 Q89 489 128.5 495 Q168 501 197 501 Z " />
<glyph glyph-name="afii10076" unicode="&#x43a;" horiz-adv-x="586" d="M495 501 Q529 501 548.5 480 Q568 459 574 434 L524 387 Q511 395 500 397.5 Q489 400 478 400 Q460 400 442.5 391 Q425 382 407.5 367 Q390 352 373.5 333 Q357 314 342 293 Q358 263 377 231 Q396 199 415 170 Q434 141 449.5 118.5 Q465 96 474 86 Q494 92 510 101.5 Q526 111 540 120 L579 72 Q538 20 502.5 3.5 Q467 -13 439 -13 Q419 -13 404 -6 Q389 1 376.5 14.5 Q364 28 351 47.5 Q338 67 323 91 Q299 129 278 170.5 Q257 212 242 246 L247 282 Q268 322 298 361.5 Q328 401 361.5 432 Q395 463 430 482 Q465 501 495 501 Z M189 504 Q221 504 236.5 490 Q252 476 252 450 Q252 445 249 421.5 Q246 398 241.5 362 Q237 326 231 281 Q225 236 218.5 187.5 Q212 139 205 90.5 Q198 42 193 0 L61 0 L113 399 L36 411 L41 477 Q87 490 123.5 497 Q160 504 189 504 Z " />
<glyph glyph-name="afii10077" unicode="&#x43b;" horiz-adv-x="593" d="M10 15 Q41 74 71.5 130.5 Q102 187 132 244.5 Q162 302 192.5 361 Q223 420 255 484 L416 500 L430 489 Q441 378 455 280 Q469 182 488 99 Q504 101 520.5 107 Q537 113 553 122 L580 62 Q548 30 508.5 9.5 Q469 -11 435 -11 Q400 -11 382.5 2 Q365 15 357 54 Q343 126 335.5 202 Q328 278 321 363 L316 363 Q294 315 273.5 269.5 Q253 224 233 180 Q213 136 191.5 91 Q170 46 147 0 L23 0 L10 15 Z " />
<glyph glyph-name="afii10078" unicode="&#x43c;" horiz-adv-x="799" d="M382 158 Q383 158 384 157.5 Q385 157 386 157 Q395 177 402.5 196 Q410 215 417 233 Q446 303 472 364.5 Q498 426 528 486 Q562 491 598.5 494 Q635 497 670 502 Q672 499 675.5 496 Q679 493 681 491 L681 418 Q681 327 683.5 245.5 Q686 164 694 96 Q712 98 728 104 Q744 110 761 120 Q767 104 774 89.5 Q781 75 787 60 Q749 25 707.5 7.5 Q666 -10 634 -10 Q605 -10 586.5 -1 Q568 8 564 34 Q558 70 557 103 Q556 136 556 177 Q556 210 557 246.5 Q558 283 559 323 Q558 323 557 323.5 Q556 324 555 324 Q537 283 523 250.5 Q509 218 495.5 186 Q482 154 467 117.5 Q452 81 432 33 Q403 30 374 26.5 Q345 23 316 21 L298 33 Q285 98 275 175 Q265 252 257 339 Q255 339 254.5 339.5 Q254 340 252 340 Q227 269 200.5 188 Q174 107 140 0 L27 0 L13 17 Q64 159 108 277 Q152 395 194 486 Q229 491 259 494.5 Q289 498 323 503 L342 486 Q347 433 351.5 388.5 Q356 344 360.5 305 Q365 266 370.5 230 Q376 194 382 158 Z " />
<glyph glyph-name="afii10079" unicode="&#x43d;" horiz-adv-x="647" d="M579 489 Q574 451 567 400.5 Q560 350 552.5 296 Q545 242 538 189 Q531 136 526 94 Q547 95 566 100.5 Q585 106 602 114 L629 55 Q605 32 582 18.5 Q559 5 538 -2 Q517 -9 499 -11 Q481 -13 467 -13 Q437 -13 420 -2.5 Q403 8 396 25.5 Q389 43 389 64.5 Q389 86 392 109 L406 215 L234 215 Q229 179 224 145 Q219 111 215 82.5 Q211 54 208 32 Q205 10 203 0 L70 0 Q78 54 92 152.5 Q106 251 123 397 Q100 400 78 403.5 Q56 407 34 411 L38 475 Q87 489 126 495 Q165 501 195 501 Q262 501 262 451 Q262 446 260.5 431 Q259 416 256.5 394.5 Q254 373 251 346.5 Q248 320 244 292 L418 292 Q425 342 431 391 Q437 440 445 489 L579 489 L579 489 Z " />
<glyph glyph-name="afii10080" unicode="&#x43e;" horiz-adv-x="555" d="M312 501 Q369 501 409 485 Q449 469 475 440.5 Q501 412 513 373.5 Q525 335 525 290 Q525 236 509.5 182.5 Q494 129 461 86.5 Q428 44 376 17.5 Q324 -9 251 -9 Q194 -9 154 6.5 Q114 22 88.5 49.5 Q63 77 51.5 114.5 Q40 152 40 196 Q40 254 56 308.5 Q72 363 105 406 Q138 449 189.5 475 Q241 501 312 501 Z M304 402 Q266 402 241 380 Q216 358 201.5 326 Q187 294 181.5 256.5 Q176 219 176 188 Q176 167 180 148.5 Q184 130 194 116 Q204 102 220.5 94 Q237 86 262 86 Q299 86 323 106 Q347 126 361 157 Q375 188 380.5 224.5 Q386 261 386 293 Q386 315 382 335 Q378 355 369 370 Q360 385 344 393.5 Q328 402 304 402 Z " />
<glyph glyph-name="afii10081" unicode="&#x43f;" horiz-adv-x="639" d="M450 501 Q507 501 531.5 468 Q556 435 556 379 Q556 357 547 282 Q538 207 525 95 Q544 96 561 101.5 Q578 107 597 116 Q598 113 602 104.5 Q606 96 610.5 85.5 Q615 75 618.5 66.5 Q622 58 624 55 Q604 37 581.5 24 Q559 11 537 2.5 Q515 -6 495.5 -10 Q476 -14 461 -14 Q417 -14 402.5 4 Q388 22 388 57 Q388 62 389 74 Q390 86 391 94 Q396 143 401 185.5 Q406 228 409.5 261 Q413 294 415.5 316 Q418 338 418 347 Q418 367 409 382 Q400 397 378 397 Q343 397 303.5 353.5 Q264 310 235 215 L206 0 L73 0 Q82 68 88 117 Q94 166 99.5 209 Q105 252 110 295.5 Q115 339 122 396 L34 411 L38 476 Q88 490 124.5 495.5 Q161 501 190 501 Q231 501 243 487 Q255 473 255 446 Q255 430 252.5 407 Q250 384 246 357 L250 357 Q274 400 302 428 Q330 456 357 472 Q384 488 408.5 494.5 Q433 501 450 501 Z " />
<glyph glyph-name="afii10082" unicode="&#x440;" horiz-adv-x="596" d="M-12 -118 L51 -118 Q58 -57 66 9.5 Q74 76 82 142.5 Q90 209 98 274 Q106 339 112 396 L24 410 L29 475 Q67 488 108 494.5 Q149 501 184 501 Q223 501 235.5 485.5 Q248 470 246 441 Q245 433 242.5 413 Q240 393 235 356 L240 356 Q285 436 334 467 Q383 498 429 498 Q488 498 524 455 Q560 412 560 322 Q560 252 543.5 191 Q527 130 494 85 Q461 40 411.5 14 Q362 -12 297 -12 Q274 -12 249.5 -7 Q225 -2 200 6 Q197 -20 192 -55.5 Q187 -91 184 -118 L264 -118 L254 -209 L-23 -209 L-12 -118 Z M368 394 Q352 394 333.5 385.5 Q315 377 296.5 355.5 Q278 334 259.5 298 Q241 262 224 208 L209 103 Q234 94 255.5 90.5 Q277 87 292 87 Q331 87 357 107.5 Q383 128 398.5 159.5 Q414 191 420.5 227 Q427 263 427 295 Q427 346 410.5 370 Q394 394 368 394 Z " />
<glyph glyph-name="afii10083" unicode="&#x441;" horiz-adv-x="484" d="M310 501 Q325 501 341 499.5 Q357 498 372.5 495.5 Q388 493 400.5 489.5 Q413 486 420 483 Q442 475 451.5 463 Q461 451 461 431 Q461 422 458 407.5 Q455 393 450.5 375.5 Q446 358 439.5 340.5 Q433 323 427 308 L356 312 L359 397 Q350 400 337 401.5 Q324 403 310 403 Q276 403 251 386.5 Q226 370 209.5 342 Q193 314 185 276.5 Q177 239 177 198 Q177 147 199.5 120 Q222 93 273 93 Q303 93 332.5 98 Q362 103 400 114 L426 31 Q408 22 385 15 Q362 8 336.5 2.5 Q311 -3 285 -6 Q259 -9 235 -9 Q180 -9 142.5 4.5 Q105 18 82.5 43 Q60 68 50 102 Q40 136 40 177 Q40 234 52.5 292 Q65 350 96 396.5 Q127 443 179 472 Q231 501 310 501 Z " />
<glyph glyph-name="afii10084" unicode="&#x442;" horiz-adv-x="909" d="M537 358 Q559 398 584.5 426 Q610 454 634.5 471 Q659 488 681 495.5 Q703 503 720 503 Q774 503 800 472.5 Q826 442 826 389 Q826 366 817 294.5 Q808 223 794 96 Q814 97 831 102.5 Q848 108 867 117 L893 57 Q855 21 811.5 3.5 Q768 -14 736 -14 Q689 -14 673.5 5 Q658 24 658 59 Q658 64 658 72 Q658 80 660 88 Q668 155 673.5 200.5 Q679 246 682 276 Q685 306 686.5 323 Q688 340 688 349 Q688 369 680.5 384 Q673 399 650 399 Q618 399 583.5 354 Q549 309 522 216 Q520 198 515.5 162.5 Q511 127 506.5 91 Q502 55 498.5 27.5 Q495 0 495 0 L363 0 Q375 107 382.5 171 Q390 235 394 271.5 Q398 308 399.5 323.5 Q401 339 401 348 Q401 368 393 382.5 Q385 397 362 397 Q330 397 296.5 353.5 Q263 310 235 216 L207 0 L73 0 Q82 68 88 117.5 Q94 167 99.5 210 Q105 253 110 296.5 Q115 340 121 397 L34 412 L38 476 Q88 491 124.5 496.5 Q161 502 190 502 Q231 502 243.5 487.5 Q256 473 256 449 Q256 434 253 410.5 Q250 387 246 357 L251 357 Q275 400 300 428.5 Q325 457 349 473 Q373 489 395 495.5 Q417 502 434 502 Q490 502 512 470.5 Q534 439 534 387 Q534 381 534 374 Q534 367 533 358 L537 358 Z " />
<glyph glyph-name="afii10085" unicode="&#x443;" horiz-adv-x="570" d="M470 503 Q505 503 521 479 Q537 455 537 401 Q537 337 515 265.5 Q493 194 454.5 124 Q416 54 363 -10 Q310 -74 248 -123 Q186 -172 117.5 -201 Q49 -230 -21 -230 Q-37 -230 -55 -226 Q-73 -222 -88.5 -213 Q-104 -204 -114 -189 Q-124 -174 -124 -151 Q-124 -143 -123 -138 L-79 -103 Q-52 -123 -31 -127 Q-10 -131 11 -131 Q59 -131 113 -109 Q167 -87 211 -42 Q200 9 187 68.5 Q174 128 160.5 187 Q147 246 134 298.5 Q121 351 111 387 Q92 383 74 379.5 Q56 376 38 371 Q33 385 28 400 Q23 415 18 429 Q60 465 99 481.5 Q138 498 163 498 Q189 498 203.5 488.5 Q218 479 225 449 Q232 419 242 370.5 Q252 322 262.5 268 Q273 214 283 161 Q293 108 300 69 Q326 100 346.5 141.5 Q367 183 381.5 227.5 Q396 272 404 316 Q412 360 412 396 Q395 393 378.5 390 Q362 387 345 383 L329 444 Q366 473 402 488 Q438 503 470 503 Z " />
<glyph glyph-name="afii10086" unicode="&#x444;" horiz-adv-x="740" d="M420 727 Q460 727 475 713.5 Q490 700 490 673 Q490 666 488.5 649 Q487 632 484.5 608.5 Q482 585 478.5 557 Q475 529 471 500 Q533 498 578 482 Q623 466 652.5 438 Q682 410 696 371 Q710 332 710 284 Q710 223 691.5 171 Q673 119 635.5 80 Q598 41 541.5 18 Q485 -5 408 -8 Q404 -33 400.5 -65.5 Q397 -98 394 -122 L464 -122 L453 -209 L185 -209 L195 -122 L263 -122 L277 -8 Q206 -5 160 14 Q114 33 87.5 63 Q61 93 50.5 131 Q40 169 40 209 Q40 271 59.5 323.5 Q79 376 117 414.5 Q155 453 210.5 475.5 Q266 498 339 500 Q341 526 345.5 561 Q350 596 352 622 L259 637 L263 701 Q312 715 353 721 Q394 727 420 727 Z M581 278 Q581 305 575 328 Q569 351 554.5 368 Q540 385 516.5 395.5 Q493 406 459 408 L419 83 Q461 85 491.5 100.5 Q522 116 542 141.5 Q562 167 571.5 201.5 Q581 236 581 278 Z M166 210 Q166 152 194.5 119 Q223 86 288 83 Q292 116 297 158.5 Q302 201 307.5 245.5 Q313 290 318 332.5 Q323 375 327 408 Q283 405 252.5 388 Q222 371 203 344 Q184 317 175 282.5 Q166 248 166 210 Z " />
<glyph glyph-name="afii10087" unicode="&#x445;" horiz-adv-x="554" d="M100 -18 Q97 -18 94 -18.5 Q91 -19 88 -19 Q70 -2 52.5 17 Q35 36 17 56 Q17 61 17.5 64.5 Q18 68 18 72 Q64 116 109 159 Q154 202 202 246 Q185 281 170 315.5 Q155 350 139 385 L61 364 Q54 378 47.5 393 Q41 408 33 422 Q80 464 120.5 480.5 Q161 497 191 497 Q216 497 228.5 486.5 Q241 476 249 461 Q258 442 265 427 Q272 412 278.5 398 Q285 384 292 369.5 Q299 355 308 337 Q340 377 371 417.5 Q402 458 434 498 L448 498 L521 424 Q521 415 520 410 L351 249 L418 102 Q440 105 458.5 113 Q477 121 496 132 L541 77 Q520 49 497 31 Q474 13 453 3 Q432 -7 413 -11 Q394 -15 380 -15 Q354 -15 336 -2 Q318 11 303.5 34.5 Q289 58 275.5 89.5 Q262 121 245 159 Q210 114 173.5 69.5 Q137 25 100 -18 Z " />
<glyph glyph-name="afii10088" unicode="&#x446;" horiz-adv-x="659" d="M547 6 Q546 7 545 7 Q544 7 542 9 Q522 -2 499 -7.5 Q476 -13 462 -13 Q424 -13 406.5 5.5 Q389 24 389 63 Q389 77 391 92 Q393 107 395 122 L390 122 Q367 81 341 55.5 Q315 30 289 15.5 Q263 1 239 -4.5 Q215 -10 196 -10 Q145 -10 117.5 16 Q90 42 90 92 Q90 103 93 132 Q94 147 98 182 Q102 217 107 257 Q112 297 116.5 335.5 Q121 374 124 397 Q102 400 80 403.5 Q58 407 35 411 L41 475 Q89 489 128.5 495 Q168 501 197 501 Q234 501 247.5 485 Q261 469 261 427 Q261 417 258.5 395 Q256 373 253 345 Q250 317 245.5 286.5 Q241 256 238 228 Q235 200 232.5 178 Q230 156 230 145 Q230 122 238.5 108.5 Q247 95 270 95 Q287 95 305.5 105.5 Q324 116 342 139 Q360 162 377.5 198.5 Q395 235 411 288 L438 490 L568 490 L516 94 Q538 95 561 102.5 Q584 110 602 120 L651 69 Q633 9 615.5 -53 Q598 -115 579 -176 L486 -176 L480 -165 Q494 -121 512 -75 Q530 -29 547 6 Z " />
<glyph glyph-name="afii10089" unicode="&#x447;" horiz-adv-x="638" d="M564 491 Q553 406 541 303.5 Q529 201 517 95 Q536 96 555.5 101.5 Q575 107 593 116 Q594 113 598 104.5 Q602 96 606.5 85.5 Q611 75 615 66.5 Q619 58 621 55 Q583 20 538 3 Q493 -14 461 -14 Q414 -14 397 7 Q380 28 380 65 Q380 83 383 108 Q386 133 389.5 160 Q393 187 397 212 Q401 237 404 255 L400 256 Q379 222 353.5 198.5 Q328 175 302.5 160 Q277 145 253 138.5 Q229 132 212 132 Q157 132 130.5 158.5 Q104 185 104 235 Q104 245 106 265 Q108 285 111 308.5 Q114 332 117 355.5 Q120 379 123 396 Q115 397 103 399.5 Q91 402 78.5 404 Q66 406 53.5 408.5 Q41 411 34 412 Q34 415 34.5 424.5 Q35 434 36 444.5 Q37 455 38 464.5 Q39 474 39 477 Q88 491 127.5 496.5 Q167 502 196 502 Q233 502 247 489 Q261 476 261 444 Q261 433 258.5 411.5 Q256 390 252.5 367 Q249 344 246.5 323 Q244 302 244 293 Q244 243 285 243 Q299 243 317.5 251.5 Q336 260 354.5 278.5 Q373 297 390 326.5 Q407 356 419 397 L431 491 L564 491 Z " />
<glyph glyph-name="afii10090" unicode="&#x448;" horiz-adv-x="912" d="M846 490 Q832 390 818.5 289 Q805 188 794 96 Q814 98 832.5 103.5 Q851 109 868 117 Q875 102 881.5 87 Q888 72 896 57 Q876 39 854.5 26.5 Q833 14 812 6 Q791 -2 772.5 -6 Q754 -10 739 -10 Q699 -10 681 6 Q663 22 663 54 Q663 73 665.5 94 Q668 115 671 132 L667 132 Q643 89 617 61.5 Q591 34 566 18.5 Q541 3 518.5 -3 Q496 -9 479 -9 Q428 -9 405.5 16.5 Q383 42 383 89 Q383 98 383 107.5 Q383 117 384 132 Q382 132 381 131.5 Q380 131 379 131 Q357 91 332 64 Q307 37 282.5 20.5 Q258 4 236 -3 Q214 -10 197 -10 Q141 -10 116 21.5 Q91 53 91 108 Q91 130 94.5 165.5 Q98 201 103 241.5 Q108 282 113.5 323 Q119 364 123 397 L34 412 Q35 428 36 444 Q37 460 39 476 Q89 490 128 496 Q167 502 196 502 Q234 502 247 488 Q260 474 260 441 Q260 431 257.5 409 Q255 387 251.5 358.5 Q248 330 244 298 Q240 266 236.5 236 Q233 206 230.5 180.5 Q228 155 228 141 Q228 121 236 106 Q244 91 266 91 Q299 91 333 136 Q367 181 395 275 L421 490 L554 490 Q541 388 533.5 324 Q526 260 522 222.5 Q518 185 517 168 Q516 151 516 142 Q516 122 524 107.5 Q532 93 555 93 Q584 93 616 128 Q648 163 673 233 Q684 286 694 355 Q704 424 714 490 L846 490 Z " />
<glyph glyph-name="afii10091" unicode="&#x449;" horiz-adv-x="931" d="M554 490 Q540 388 532.5 323.5 Q525 259 521.5 221.5 Q518 184 517 167 Q516 150 516 142 Q516 122 524 107.5 Q532 93 555 93 Q568 93 584 103 Q600 113 617 135 Q634 157 650.5 192.5 Q667 228 682 278 L710 490 L840 490 Q826 394 813 291 Q800 188 788 94 Q810 95 832.5 102.5 Q855 110 874 120 L923 69 L851 -176 L757 -176 L751 -165 Q765 -121 783.5 -75 Q802 -29 819 6 Q816 8 815 9 Q794 -2 771.5 -7.5 Q749 -13 735 -13 Q693 -13 677.5 6 Q662 25 662 61 Q662 87 668 122 L663 122 Q639 80 614.5 54.5 Q590 29 566.5 15 Q543 1 521.5 -4 Q500 -9 482 -9 Q428 -9 405 15.5 Q382 40 382 94 Q382 102 382.5 111.5 Q383 121 384 132 Q382 132 381 131.5 Q380 131 379 131 Q357 91 332 64 Q307 37 282.5 20.5 Q258 4 236 -3 Q214 -10 197 -10 Q166 -10 146 -1 Q126 8 114 24 Q102 40 97 60 Q92 80 92 103 Q92 134 95.5 172.5 Q99 211 104 251 Q109 291 114.5 329 Q120 367 123 397 L34 412 Q35 428 36 444 Q37 460 39 476 Q89 490 128 496 Q167 502 196 502 Q232 502 246 488 Q260 474 260 442 Q260 422 255 380.5 Q250 339 244 293 Q238 247 233 204.5 Q228 162 228 141 Q228 121 236 106 Q244 91 266 91 Q299 91 333.5 136 Q368 181 396 275 Q402 316 405 343.5 Q408 371 410.5 393 Q413 415 415 437 Q417 459 421 490 L554 490 Z " />
<glyph glyph-name="afii10092" unicode="&#x44a;" horiz-adv-x="637" d="M315 -12 Q262 -12 226 0 Q190 12 167.5 31.5 Q145 51 135 77 Q125 103 125 132 Q125 169 133 206 Q141 243 154 278.5 Q167 314 184 347 Q201 380 219 407 L115 399 L77 333 L13 343 Q17 389 22 420 Q27 451 37.5 469.5 Q48 488 66 496 Q84 504 115 504 Q125 504 145.5 503.5 Q166 503 192 502 Q218 501 246.5 500 Q275 499 300.5 498.5 Q326 498 345.5 497 Q365 496 373 496 L387 457 Q376 448 360.5 427 Q345 406 329 381.5 Q313 357 300 331.5 Q287 306 282 287 L286 285 Q335 343 384 365 Q433 387 470 387 Q530 387 565.5 349 Q601 311 601 244 Q601 205 585 160 Q569 115 534.5 77 Q500 39 445.5 13.5 Q391 -12 315 -12 Z M403 295 Q394 295 378.5 290.5 Q363 286 344.5 273 Q326 260 306.5 237.5 Q287 215 269 179 Q267 168 265.5 158.5 Q264 149 264 141 Q264 119 273 106.5 Q282 94 294.5 88 Q307 82 319.5 80.5 Q332 79 338 79 Q368 79 391 93.5 Q414 108 429 130.5 Q444 153 451.5 180 Q459 207 459 232 Q459 295 403 295 Z " />
<glyph glyph-name="afii10093" unicode="&#x44b;" horiz-adv-x="870" d="M253 288 Q300 342 350 364.5 Q400 387 437 387 Q497 387 532 350 Q567 313 567 246 Q567 205 552 159.5 Q537 114 504.5 76.5 Q472 39 422 14.5 Q372 -10 302 -10 Q285 -10 260 -8.5 Q235 -7 206.5 -3 Q178 1 148 9 Q118 17 92 29 L85 42 Q98 142 108.5 232.5 Q119 323 128 401 L35 416 L36 481 Q85 495 126 500.5 Q167 506 197 506 Q235 506 252 494 Q269 482 269 458 Q269 447 267 427 Q265 407 262 383.5 Q259 360 255 334.5 Q251 309 248 288 L253 288 Z M669 490 L803 490 L749 95 Q769 97 789 102 Q809 107 827 116 L854 56 Q816 21 771 3 Q726 -15 695 -15 Q647 -15 630 6 Q613 27 613 61 Q613 67 613.5 73.5 Q614 80 615 88 L669 490 Z M370 291 Q358 291 341 285 Q324 279 306 265 Q288 251 269 227.5 Q250 204 234 170 L223 96 Q243 90 263 87 Q283 84 297 84 Q329 84 353.5 96.5 Q378 109 395 129 Q412 149 420.5 174.5 Q429 200 429 226 Q429 258 413 274.5 Q397 291 370 291 Z " />
<glyph glyph-name="afii10094" unicode="&#x44c;" horiz-adv-x="597" d="M250 288 Q297 342 347 364.5 Q397 387 434 387 Q494 387 529 350 Q564 313 564 246 Q564 205 549 159.5 Q534 114 501.5 76.5 Q469 39 419 14.5 Q369 -10 299 -10 Q283 -10 258 -8.5 Q233 -7 204 -3 Q175 1 145 9 Q115 17 89 29 L83 42 L125 401 L32 416 L33 481 Q82 495 123 500.5 Q164 506 195 506 Q233 506 249.5 494 Q266 482 266 458 Q266 447 264 427 Q262 407 259 383.5 Q256 360 252.5 334.5 Q249 309 245 288 L250 288 Z M367 291 Q354 291 337.5 285 Q321 279 303 265 Q285 251 266.5 227.5 Q248 204 231 170 L221 96 Q241 90 260.5 87 Q280 84 294 84 Q326 84 350.5 96.5 Q375 109 392 129 Q409 149 417.5 174.5 Q426 200 426 226 Q426 258 410 274.5 Q394 291 367 291 Z " />
<glyph glyph-name="afii10095" unicode="&#x44d;" horiz-adv-x="474" d="M183 -11 Q126 -11 85.5 -2.5 Q45 6 19 17 L45 100 Q71 94 101 88 Q131 82 160 82 Q224 82 262.5 118 Q301 154 304 221 L154 220 L161 293 L308 287 Q308 291 308.5 294.5 Q309 298 309 301 Q309 358 279 383.5 Q249 409 203 409 Q185 409 168 405 L141 321 L69 327 Q67 354 65 375 Q63 396 63 411 Q63 428 68 445.5 Q73 463 91 474 Q122 491 161 496.5 Q200 502 232 502 Q287 502 327.5 485 Q368 468 394 438.5 Q420 409 432.5 370 Q445 331 445 288 Q445 236 432.5 182.5 Q420 129 390 86 Q360 43 309.5 16 Q259 -11 183 -11 Z " />
<glyph glyph-name="afii10096" unicode="&#x44e;" horiz-adv-x="805" d="M568 501 Q624 501 663.5 484.5 Q703 468 727.5 439.5 Q752 411 763 372 Q774 333 774 289 Q774 233 759 179.5 Q744 126 712 84.5 Q680 43 630 17.5 Q580 -8 510 -8 Q454 -8 415.5 6.5 Q377 21 353 48 Q329 75 318 112.5 Q307 150 307 196 Q307 201 307.5 207 Q308 213 308 219 L227 219 L198 0 L65 0 Q79 100 92 198.5 Q105 297 118 397 Q96 400 75 403.5 Q54 407 34 411 Q35 427 35.5 443 Q36 459 38 475 Q87 489 125 495 Q163 501 189 501 Q225 501 240.5 486.5 Q256 472 256 443 Q256 440 254.5 426 Q253 412 250.5 391.5 Q248 371 244.5 346 Q241 321 238 296 L316 296 Q327 339 347.5 376 Q368 413 399.5 441 Q431 469 473 485 Q515 501 568 501 Z M560 403 Q523 403 499.5 381 Q476 359 462 326 Q448 293 442.5 255 Q437 217 437 186 Q437 166 440.5 147.5 Q444 129 453.5 115.5 Q463 102 479 94 Q495 86 519 86 Q555 86 578 106.5 Q601 127 614.5 158 Q628 189 633 225 Q638 261 638 293 Q638 315 634.5 335 Q631 355 622 370 Q613 385 598 394 Q583 403 560 403 Z " />
<glyph glyph-name="afii10097" unicode="&#x44f;" horiz-adv-x="581" d="M299 503 Q345 503 401.5 493 Q458 483 505 465 L462 95 Q502 98 539 116 L566 56 Q529 21 486 3 Q443 -15 412 -15 Q364 -15 345.5 6 Q327 27 327 61 Q327 67 327.5 73.5 Q328 80 329 88 L367 397 Q353 403 333 406 Q313 409 298 409 Q280 409 263 405 Q246 401 233 391 Q220 381 212 365 Q204 349 204 325 Q204 293 233 278 Q262 263 301 257 L309 207 L155 -1 L25 -5 L12 13 L177 208 Q125 216 95.5 246.5 Q66 277 66 325 Q66 370 83 403.5 Q100 437 130.5 459 Q161 481 204 492 Q247 503 299 503 Z " />
<glyph glyph-name="afii10071" unicode="&#x451;" horiz-adv-x="506" d="M321 503 Q390 503 433 468 Q476 433 476 369 Q476 294 404 248 Q332 202 173 193 Q172 188 172 182.5 Q172 177 172 172 Q172 155 175.5 139 Q179 123 189.5 111 Q200 99 217.5 91.5 Q235 84 264 84 Q299 84 337.5 93 Q376 102 411 116 L436 40 Q394 17 338.5 4 Q283 -9 232 -9 Q173 -9 135.5 6.5 Q98 22 77 49 Q56 76 48 111.5 Q40 147 40 187 Q40 241 53.5 297 Q67 353 99.5 398.5 Q132 444 186 473.5 Q240 503 321 503 Z M301 407 Q246 407 214.5 367 Q183 327 176 257 Q354 265 354 354 Q354 377 341.5 392 Q329 407 301 407 Z M469 637 Q468 607 447 586 Q426 565 396 565 Q371 565 355.5 582 Q340 599 341 625 Q342 656 364 676 Q386 696 412 696 Q438 696 454.5 679.5 Q471 663 469 637 Z M274 637 Q272 607 251 586 Q230 565 201 565 Q175 565 158.5 582 Q142 599 144 625 Q145 656 167.5 676 Q190 696 216 696 Q242 696 258.5 679.5 Q275 663 274 637 Z " />
<glyph glyph-name="afii10099" unicode="&#x452;" horiz-adv-x="587" d="M235 355 Q256 391 281 415.5 Q306 440 330.5 455 Q355 470 377.5 476.5 Q400 483 417 483 Q455 483 480.5 466 Q506 449 521 421 Q536 393 542.5 356 Q549 319 549 280 Q549 209 534.5 146 Q520 83 494 36.5 Q468 -10 432.5 -37 Q397 -64 355 -64 Q329 -64 301 -56 Q273 -48 244 -22 L275 45 Q289 37 299 33.5 Q309 30 320 30 Q340 30 357.5 50 Q375 70 388 104 Q401 138 408.5 183 Q416 228 416 278 Q416 323 403 353 Q390 383 358 383 Q341 383 322.5 373 Q304 363 284.5 341 Q265 319 246.5 283.5 Q228 248 212 197 L185 0 L52 0 Q67 115 82 246.5 Q97 378 114 520 L50 520 L56 572 L119 572 L125 623 L31 638 L37 702 Q86 716 126 721.5 Q166 727 196 727 Q235 727 251.5 715 Q268 703 268 678 Q268 667 265 644 Q262 621 257 572 L412 572 L406 520 L250 520 Q248 503 245.5 477.5 Q243 452 240 427.5 Q237 403 234.5 383 Q232 363 231 356 L235 355 Z " />
<glyph glyph-name="afii10101" unicode="&#x454;" horiz-adv-x="477" d="M239 -9 Q182 -9 143.5 5.5 Q105 20 82 46 Q59 72 49.5 107.5 Q40 143 40 184 Q40 213 44.5 248 Q49 283 60.5 318.5 Q72 354 91 387.5 Q110 421 140 446.5 Q170 472 212 487.5 Q254 503 310 503 Q342 503 367 499.5 Q392 496 411 490 Q462 473 462 435 Q462 414 451.5 380.5 Q441 347 429 320 L357 324 L360 402 Q350 405 337.5 407 Q325 409 312 409 Q261 409 228 375 Q195 341 185 281 L333 284 L326 210 L179 214 Q176 196 176 179 Q177 135 200 111.5 Q223 88 269 88 Q301 88 334 94 Q367 100 404 112 L426 32 Q390 14 339 2.5 Q288 -9 239 -9 Z " />
<glyph glyph-name="afii10102" unicode="&#x455;" horiz-adv-x="492" d="M212 -9 Q130 -9 78.5 11.5 Q27 32 27 72 Q27 91 38 121 Q49 151 67 177 L134 174 L131 90 Q145 83 166 80 Q187 77 207 77 Q226 77 245 80.5 Q264 84 278.5 91 Q293 98 302 109 Q311 120 311 135 Q311 150 302 161 Q293 172 278 181 Q263 190 244 198 Q225 206 205 214 Q176 226 150 239.5 Q124 253 104.5 269 Q85 285 73.5 305 Q62 325 62 350 Q62 387 79 415.5 Q96 444 125.5 463.5 Q155 483 195.5 493 Q236 503 284 503 Q311 503 341 498.5 Q371 494 395.5 485 Q420 476 436 462 Q452 448 452 428 Q452 419 448 405 Q444 391 438 376 Q432 361 424.5 346.5 Q417 332 410 321 L345 325 L348 402 Q324 414 286 414 Q270 414 255 411.5 Q240 409 228 403 Q216 397 209 386.5 Q202 376 202 361 Q202 348 212 337.5 Q222 327 238 318 Q254 309 273.5 301 Q293 293 312 285 Q337 274 361.5 261.5 Q386 249 405.5 232.5 Q425 216 437 194.5 Q449 173 450 145 Q450 108 433 79.5 Q416 51 384.5 31.5 Q353 12 309 1.5 Q265 -9 212 -9 Z " />
<glyph glyph-name="afii10103" unicode="&#x456;" horiz-adv-x="353" d="M202 502 Q242 502 256 489 Q270 476 270 450 Q270 445 267 420 Q264 395 260 360 Q256 325 250.5 284 Q245 243 240 205.5 Q235 168 231 138 Q227 108 226 95 Q245 97 265 102 Q285 107 303 116 L330 56 Q292 21 247 3 Q202 -15 170 -15 Q123 -15 105.5 6 Q88 27 88 61 Q88 67 88.5 73.5 Q89 80 90 88 L130 398 L47 412 L51 477 Q100 491 138 496.5 Q176 502 202 502 Z M215 718 Q245 718 266 696.5 Q287 675 287 643 Q287 607 263.5 581 Q240 555 202 555 Q172 555 151 575.5 Q130 596 130 626 Q130 667 154.5 692.5 Q179 718 215 718 Z " />
<glyph glyph-name="afii10105" unicode="&#x458;" horiz-adv-x="318" d="M196 502 Q236 502 251.5 489 Q267 476 267 450 Q267 446 265 426 Q263 406 260 375.5 Q257 345 253 308 Q249 271 244.5 232.5 Q240 194 236 158.5 Q232 123 229 97 Q221 31 204.5 -23 Q188 -77 157.5 -118 Q127 -159 80.5 -186.5 Q34 -214 -33 -227 L-56 -142 Q-10 -122 17 -98.5 Q44 -75 59 -46.5 Q74 -18 81 17 Q88 52 93 94 L125 398 L42 412 L47 477 Q96 491 133 496.5 Q170 502 196 502 Z M211 718 Q241 718 262 696.5 Q283 675 283 643 Q283 607 259.5 581 Q236 555 197 555 Q168 555 146.5 575.5 Q125 596 125 626 Q125 667 149.5 692.5 Q174 718 211 718 Z " />
<glyph glyph-name="afii10106" unicode="&#x459;" horiz-adv-x="798" d="M146 0 Q114 0 83 -1 Q52 -2 20 -3 L11 7 Q69 118 130.5 236.5 Q192 355 256 485 Q295 489 331.5 493 Q368 497 407 500 L423 491 Q430 431 434.5 381 Q439 331 444 283 L445 283 Q493 333 542 358.5 Q591 384 637 384 Q663 384 686 376 Q709 368 726 351 Q743 334 753 306.5 Q763 279 763 240 Q763 198 744.5 153.5 Q726 109 688.5 72 Q651 35 594.5 11.5 Q538 -12 462 -12 Q422 -12 398.5 -6.5 Q375 -1 362.5 10 Q350 21 345.5 37.5 Q341 54 339 75 Q338 82 336 104.5 Q334 127 331.5 157 Q329 187 326.5 220.5 Q324 254 321.5 283.5 Q319 313 317 335 Q315 357 315 364 L310 364 Q288 316 269 272.5 Q250 229 231 185 Q212 141 191.5 96 Q171 51 146 0 Z M575 289 Q560 289 543.5 282 Q527 275 511 264.5 Q495 254 480.5 240.5 Q466 227 456 215 Q458 183 461 148.5 Q464 114 469 81 Q475 80 480.5 80 Q486 80 491 80 Q551 80 588 120 Q625 160 625 226 Q623 256 610 272.5 Q597 289 575 289 Z " />
<glyph glyph-name="afii10107" unicode="&#x45a;" horiz-adv-x="900" d="M554 288 Q601 342 650.5 364.5 Q700 387 737 387 Q798 387 832.5 350 Q867 313 867 246 Q867 205 852 159.5 Q837 114 804.5 76.5 Q772 39 722 14.5 Q672 -10 602 -10 Q586 -10 561 -8.5 Q536 -7 507 -3 Q478 1 448 9 Q418 17 392 29 L385 42 Q389 77 395 122 Q401 167 407 216 L234 216 L205 0 L71 0 Q71 4 74.5 26 Q78 48 82.5 80.5 Q87 113 92.5 154 Q98 195 103.5 237.5 Q109 280 114.5 321.5 Q120 363 124 398 L35 412 L39 477 Q89 491 128 496.5 Q167 502 196 502 Q235 502 249.5 489 Q264 476 264 450 Q264 439 258.5 395 Q253 351 245 294 L417 294 Q426 354 432 405 Q438 456 442 490 L577 490 Q574 471 570.5 443.5 Q567 416 563.5 387 Q560 358 556.5 331.5 Q553 305 550 288 L554 288 Z M670 291 Q658 291 641 285 Q624 279 606 265 Q588 251 569.5 227.5 Q551 204 535 170 L524 96 Q544 90 563.5 87 Q583 84 598 84 Q630 84 654.5 96.5 Q679 109 695.5 129 Q712 149 720.5 174.5 Q729 200 729 226 Q729 258 713 274.5 Q697 291 670 291 Z " />
<glyph glyph-name="afii10108" unicode="&#x45b;" horiz-adv-x="631" d="M60 568 L126 568 Q128 583 129.5 597.5 Q131 612 132 623 L38 638 L44 702 Q94 716 134.5 721.5 Q175 727 205 727 Q247 727 261.5 712.5 Q276 698 276 670 Q276 663 273 634.5 Q270 606 265 568 L425 568 L418 519 L260 519 Q254 470 247.5 422 Q241 374 237 347 L241 347 Q263 384 289 409 Q315 434 340.5 449.5 Q366 465 389.5 471.5 Q413 478 430 478 Q490 478 514 448.5 Q538 419 538 365 Q538 354 536.5 334 Q535 314 531.5 281.5 Q528 249 523 203.5 Q518 158 511 95 Q548 98 586 116 L612 56 Q573 20 528.5 2.5 Q484 -15 453 -15 Q406 -15 389.5 5 Q373 25 373 60 Q373 67 373.5 73.5 Q374 80 375 88 Q383 156 388 199.5 Q393 243 395.5 268.5 Q398 294 399 306 Q400 318 400 324 Q400 347 390.5 360.5 Q381 374 360 374 Q345 374 326.5 364.5 Q308 355 289 334 Q270 313 251.5 279.5 Q233 246 218 197 L193 0 L59 0 Q66 55 74 120 Q82 185 90.5 253.5 Q99 322 106.5 389.5 Q114 457 121 519 L53 519 L60 568 Z " />
<glyph glyph-name="afii10193" unicode="&#x45f;" horiz-adv-x="635" d="M197 501 Q235 501 248 483 Q261 465 261 434 Q261 423 258.5 400 Q256 377 253 348.5 Q250 320 245.5 288.5 Q241 257 238 229 Q235 201 232.5 178.5 Q230 156 230 145 Q230 122 238.5 108.5 Q247 95 270 95 Q286 95 304 104.5 Q322 114 341 136 Q360 158 377.5 193 Q395 228 410 278 L439 490 L567 490 Q554 394 541 292 Q528 190 516 94 Q537 95 555 100.5 Q573 106 591 114 L618 55 Q599 37 578 24.5 Q557 12 536 3.5 Q515 -5 495.5 -9 Q476 -13 461 -13 Q421 -13 405 5 Q389 23 389 49 Q389 66 391 86 Q393 106 395 122 L390 122 Q367 83 341.5 57.5 Q316 32 290.5 17 Q265 2 241 -4 Q217 -10 198 -10 Q90 -10 90 92 Q90 136 100 209.5 Q110 283 124 398 L35 412 L41 475 Q89 489 128.5 495 Q168 501 197 501 Z M317 -3 Q336 -6 355 -9.5 Q374 -13 392 -18 Q384 -68 374.5 -118 Q365 -168 356 -218 L264 -220 L258 -210 Q272 -153 286 -99 Q300 -45 317 -3 Z " />
<glyph glyph-name="afii10050" unicode="&#x490;" horiz-adv-x="601" d="M17 0 L27 94 L96 94 L157 594 L91 594 L102 687 L547 687 L564 809 L660 809 L633 594 L296 594 L234 94 L325 94 L314 0 L17 0 Z " />
<glyph glyph-name="afii10098" unicode="&#x491;" horiz-adv-x="483" d="M387 489 L418 611 L486 611 Q486 588 487 570.5 Q488 553 488.5 537.5 Q489 522 489.5 507 Q490 492 490 475 Q490 437 474.5 420 Q459 403 436 401 Q386 399 333 400.5 Q280 402 238 401 L190 0 L54 0 Q66 100 79 200 Q92 300 104 401 L54 401 Q56 424 59 445.5 Q62 467 65 489 L387 489 Z " />
<glyph glyph-name="schwacyrillic" unicode="&#x4d9;" horiz-adv-x="506" d="M193 -9 Q124 -9 81 26 Q38 61 38 124 Q38 200 109.5 246 Q181 292 341 301 Q342 306 342 311.5 Q342 317 342 322 Q342 339 338 355 Q334 371 324 383 Q314 395 295.5 402.5 Q277 410 249 410 Q214 410 175.5 401 Q137 392 102 378 L76 454 Q97 466 122 475 Q147 484 174 490.5 Q201 497 228.5 500 Q256 503 281 503 Q341 503 378.5 486.5 Q416 470 437 442 Q458 414 466 378 Q474 342 474 302 Q474 248 460.5 193 Q447 138 414.5 93 Q382 48 328 19.5 Q274 -9 193 -9 Z M212 87 Q267 87 298.5 127.5 Q330 168 337 238 Q159 229 159 140 Q159 117 171.5 102 Q184 87 212 87 Z " />
<glyph glyph-name="afii10062" unicode="&#x40e;" horiz-adv-x="650" d="M320 687 L309 593 L249 593 Q254 576 261.5 553 Q269 530 276.5 505.5 Q284 481 291.5 457.5 Q299 434 304 417 L346 284 L352 284 Q356 296 364 312.5 Q372 329 380.5 347 Q389 365 397.5 382 Q406 399 411 410 L498 593 L437 593 L449 687 L697 687 L686 593 L633 593 L384 95 Q367 63 351 41.5 Q335 20 316.5 7 Q298 -6 276 -11.5 Q254 -17 226 -17 Q199 -17 167 -13 Q135 -9 93 3 L118 95 Q144 90 166 87.5 Q188 85 202 85 Q222 85 237.5 96 Q253 107 268 136 L297 196 L258 196 Q251 218 239.5 250 Q228 282 214.5 318.5 Q201 355 186.5 394.5 Q172 434 158.5 470.5 Q145 507 134 539 Q123 571 116 593 L64 593 L74 687 L320 687 Z M397 735 Q368 735 344.5 745.5 Q321 756 301 773.5 Q281 791 264.5 814.5 Q248 838 235 864 L296 909 Q322 866 353.5 843.5 Q385 821 411 821 Q420 821 433 822.5 Q446 824 464.5 832 Q483 840 508 856 Q533 872 567 902 L600 865 Q573 828 546 803 Q519 778 492.5 763 Q466 748 442 741.5 Q418 735 397 735 Z " />
<glyph glyph-name="afii10061" unicode="&#x40c;" horiz-adv-x="700" d="M232 94 L296 94 L285 0 L17 0 L27 94 L93 94 L155 594 L89 594 L100 687 L368 687 L358 594 L293 594 L232 94 Z M567 98 L657 91 L659 11 Q646 6 631 2 Q616 -2 601 -4.5 Q586 -7 572.5 -8 Q559 -9 550 -9 Q514 -11 491.5 -0.5 Q469 10 452 39 L292 332 L297 376 L508 641 Q532 673 555 685 Q578 697 607 696 Q665 696 711 670 L695 591 L614 584 L419 356 L567 98 Z M406 734 L372 786 L560 927 L613 844 L406 734 Z " />
<glyph glyph-name="afii10027" unicode="&#x419;" horiz-adv-x="781" d="M523 686 L800 686 L788 593 L719 593 L657 93 L727 93 L716 0 L445 0 L457 93 L522 93 L565 443 L563 443 L236 124 L232 93 L297 93 L286 0 L14 0 L25 93 L96 93 L157 593 L88 593 L99 686 L371 686 L360 593 L294 593 L252 248 L253 248 L581 566 L584 593 L511 593 L523 686 Z M457 754 Q428 754 404.5 764.5 Q381 775 361 792.5 Q341 810 324.5 833.5 Q308 857 295 883 L356 928 Q382 884 413.5 862.5 Q445 841 471 841 Q480 841 493 842 Q506 843 524.5 850.5 Q543 858 568 874.5 Q593 891 627 921 L660 883 Q606 810 553 782 Q500 754 457 754 Z " />
<glyph glyph-name="Agrave" unicode="&#xc0;" horiz-adv-x="714" d="M473 190 L236 190 L194 94 L257 94 L246 0 L-6 0 L4 94 L60 94 L334 688 L505 688 L628 94 L681 94 L670 0 L419 0 L429 94 L491 94 L473 190 Z M351 454 L277 282 L457 282 L427 448 L406 576 L403 576 L351 454 Z M261 846 L328 932 L487 785 L448 733 L261 846 Z " />
<glyph glyph-name="Aacute" unicode="&#xc1;" horiz-adv-x="714" d="M473 190 L236 190 L194 94 L257 94 L246 0 L-6 0 L4 94 L60 94 L334 688 L505 688 L628 94 L681 94 L670 0 L419 0 L429 94 L491 94 L473 190 Z M351 454 L277 282 L457 282 L427 448 L406 576 L403 576 L351 454 Z M405 731 L371 783 L559 924 L612 841 L405 731 Z " />
<glyph glyph-name="Acircumflex" unicode="&#xc2;" horiz-adv-x="714" d="M473 190 L236 190 L194 94 L257 94 L246 0 L-6 0 L4 94 L60 94 L334 688 L505 688 L628 94 L681 94 L670 0 L419 0 L429 94 L491 94 L473 190 Z M351 454 L277 282 L457 282 L427 448 L406 576 L403 576 L351 454 Z M576 722 L428 823 L258 723 L228 763 L396 913 L480 913 L614 764 L576 722 Z " />
<glyph glyph-name="Atilde" unicode="&#xc3;" horiz-adv-x="714" d="M473 190 L236 190 L194 94 L257 94 L246 0 L-6 0 L4 94 L60 94 L334 688 L505 688 L628 94 L681 94 L670 0 L419 0 L429 94 L491 94 L473 190 Z M351 454 L277 282 L457 282 L427 448 L406 576 L403 576 L351 454 Z M501 744 Q477 744 454 750 Q431 756 410 763.5 Q389 771 370.5 777 Q352 783 337 783 L279 744 L243 774 Q266 822 294 843.5 Q322 865 353 865 Q374 865 395.5 859.5 Q417 854 438 847 Q459 840 479 834.5 Q499 829 516 829 L576 868 L609 837 Q589 792 562 768 Q535 744 501 744 Z " />
<glyph glyph-name="Adieresis" unicode="&#xc4;" horiz-adv-x="714" d="M473 190 L236 190 L194 94 L257 94 L246 0 L-6 0 L4 94 L60 94 L334 688 L505 688 L628 94 L681 94 L670 0 L419 0 L429 94 L491 94 L473 190 Z M351 454 L277 282 L457 282 L427 448 L406 576 L403 576 L351 454 Z M589 800 Q587 772 567 753 Q547 734 519 734 Q493 734 478.5 751 Q464 768 466 794 Q468 822 488 840.5 Q508 859 534 859 Q560 859 575.5 842.5 Q591 826 589 800 Z M399 800 Q397 772 376.5 753 Q356 734 330 734 Q304 734 288.5 751.5 Q273 769 275 794 Q277 822 298 840.5 Q319 859 343 859 Q369 859 385 842.5 Q401 826 399 800 Z " />
<glyph glyph-name="Ccedilla" unicode="&#xc7;" horiz-adv-x="604" d="M429 701 Q482 701 527 693.5 Q572 686 607 673 L583 480 L484 480 L496 581 Q481 585 461.5 588 Q442 591 422 591 Q367 591 327 568.5 Q287 546 260.5 505.5 Q234 465 221.5 409 Q209 353 209 286 Q209 193 251.5 152 Q294 111 388 111 Q400 111 418 112.5 Q436 114 457 116.5 Q478 119 499.5 123 Q521 127 541 132 L559 26 Q519 11 464 1.5 Q409 -8 360 -10 L307 -70 Q352 -75 376 -94.5 Q400 -114 400 -148 Q400 -168 390 -189 Q380 -210 356.5 -227.5 Q333 -245 294.5 -257 Q256 -269 199 -269 Q198 -255 198 -243 Q198 -231 198 -217 Q253 -212 287 -197 Q321 -182 321 -158 Q321 -148 312.5 -142 Q304 -136 291.5 -133 Q279 -130 263.5 -129 Q248 -128 234 -128 L222 -103 Q242 -78 262.5 -54.5 Q283 -31 303 -8 Q235 -3 189 19.5 Q143 42 114.5 79 Q86 116 74 165.5 Q62 215 62 273 Q62 318 68 367.5 Q74 417 89.5 464.5 Q105 512 131.5 555 Q158 598 199 630.5 Q240 663 296.5 682 Q353 701 429 701 Z " />
<glyph glyph-name="Egrave" unicode="&#xc8;" horiz-adv-x="630" d="M17 0 L27 94 L95 94 L156 594 L91 594 L102 687 L641 687 L616 489 L518 489 L531 594 L295 594 L271 400 L486 405 L475 308 L260 313 L234 94 L488 94 L502 204 L602 204 L577 0 L17 0 Z M257 846 L324 932 L483 785 L444 733 L257 846 Z " />
<glyph glyph-name="Eacute" unicode="&#xc9;" horiz-adv-x="630" d="M17 0 L27 94 L95 94 L156 594 L91 594 L102 687 L641 687 L616 489 L518 489 L531 594 L295 594 L271 400 L486 405 L475 308 L260 313 L234 94 L488 94 L502 204 L602 204 L577 0 L17 0 Z M353 731 L319 783 L507 924 L560 841 L353 731 Z " />
<glyph glyph-name="Ecircumflex" unicode="&#xca;" horiz-adv-x="630" d="M17 0 L27 94 L95 94 L156 594 L91 594 L102 687 L641 687 L616 489 L518 489 L531 594 L295 594 L271 400 L486 405 L475 308 L260 313 L234 94 L488 94 L502 204 L602 204 L577 0 L17 0 Z M553 722 L405 823 L235 723 L205 763 L373 913 L457 913 L591 764 L553 722 Z " />
<glyph glyph-name="Edieresis" unicode="&#xcb;" horiz-adv-x="630" d="M17 0 L27 94 L95 94 L156 594 L91 594 L102 687 L641 687 L616 489 L518 489 L531 594 L295 594 L271 400 L486 405 L475 308 L260 313 L234 94 L488 94 L502 204 L602 204 L577 0 L17 0 Z M563 800 Q561 772 541 753 Q521 734 493 734 Q467 734 452.5 751 Q438 768 440 794 Q442 822 462 840.5 Q482 859 508 859 Q534 859 549.5 842.5 Q565 826 563 800 Z M373 800 Q371 772 350.5 753 Q330 734 304 734 Q278 734 262.5 751.5 Q247 769 249 794 Q251 822 272 840.5 Q293 859 317 859 Q343 859 359 842.5 Q375 826 373 800 Z " />
<glyph glyph-name="Igrave" unicode="&#xcc;" horiz-adv-x="406" d="M43 0 L54 94 L120 94 L181 594 L115 594 L127 688 L397 688 L385 594 L320 594 L258 94 L324 94 L313 0 L43 0 Z M107 846 L174 932 L333 785 L294 733 L107 846 Z " />
<glyph glyph-name="Iacute" unicode="&#xcd;" horiz-adv-x="406" d="M43 0 L54 94 L120 94 L181 594 L115 594 L127 688 L397 688 L385 594 L320 594 L258 94 L324 94 L313 0 L43 0 Z M241 731 L207 783 L395 924 L448 841 L241 731 Z " />
<glyph glyph-name="Icircumflex" unicode="&#xce;" horiz-adv-x="406" d="M43 0 L54 94 L120 94 L181 594 L115 594 L127 688 L397 688 L385 594 L320 594 L258 94 L324 94 L313 0 L43 0 Z M426 722 L278 823 L108 723 L78 763 L246 913 L330 913 L464 764 L426 722 Z " />
<glyph glyph-name="Idieresis" unicode="&#xcf;" horiz-adv-x="406" d="M43 0 L54 94 L120 94 L181 594 L115 594 L127 688 L397 688 L385 594 L320 594 L258 94 L324 94 L313 0 L43 0 Z M430 800 Q428 772 408 753 Q388 734 360 734 Q334 734 319.5 751 Q305 768 307 794 Q309 822 329 840.5 Q349 859 375 859 Q401 859 416.5 842.5 Q432 826 430 800 Z M240 800 Q238 772 217.5 753 Q197 734 171 734 Q145 734 129.5 751.5 Q114 769 116 794 Q118 822 139 840.5 Q160 859 184 859 Q210 859 226 842.5 Q242 826 240 800 Z " />
<glyph glyph-name="Eth" unicode="&#xd0;" horiz-adv-x="707" d="M17 0 L27 94 L98 94 L125 318 L59 318 L68 382 L132 382 L159 594 L93 594 L105 688 L408 688 Q486 688 538 666 Q590 644 621 605.5 Q652 567 665 515.5 Q678 464 678 404 Q678 324 659 250.5 Q640 177 599 121.5 Q558 66 492 33 Q426 0 332 0 L17 0 Z M299 594 L273 382 L388 382 L380 318 L265 318 L238 94 L320 94 Q350 94 386.5 106.5 Q423 119 455 152.5 Q487 186 509 245.5 Q531 305 531 399 Q531 460 517 498 Q503 536 481.5 557.5 Q460 579 433 586.5 Q406 594 380 594 L299 594 Z " />
<glyph glyph-name="Ntilde" unicode="&#xd1;" horiz-adv-x="790" d="M553 204 L601 593 L534 593 L546 687 L806 687 Q803 664 800 640 Q797 616 795 593 L730 593 Q712 444 694 296.5 Q676 149 657 0 L523 0 Q494 56 467 111 Q440 166 413 221 Q409 229 395 257 Q381 285 365.5 317 Q350 349 335.5 377 Q321 405 317 414 Q306 436 295 458 Q284 480 274 503 Q273 503 272.5 502.5 Q272 502 271 502 Q258 399 245.5 297.5 Q233 196 221 93 L288 93 Q285 70 282 46.5 Q279 23 277 0 L15 0 L26 93 L93 93 Q107 219 123 343 Q139 467 154 593 L88 593 Q90 616 93 640 Q96 664 99 687 L314 687 L407 498 L503 297 L548 204 L553 204 Z M531 766 Q507 766 484 772 Q461 778 440 785.5 Q419 793 400.5 799 Q382 805 367 805 L309 766 L273 796 Q296 844 324 865.5 Q352 887 383 887 Q404 887 425.5 881.5 Q447 876 468 869 Q489 862 509 856.5 Q529 851 546 851 L606 890 L639 859 Q619 814 592 790 Q565 766 531 766 Z " />
<glyph glyph-name="Ograve" unicode="&#xd2;" horiz-adv-x="718" d="M414 700 Q489 700 541 677.5 Q593 655 626 615.5 Q659 576 674 522.5 Q689 469 689 406 Q689 317 666 241 Q643 165 599 109.5 Q555 54 490 22 Q425 -10 341 -10 Q268 -10 215.5 10.5 Q163 31 129 68.5 Q95 106 78.5 158.5 Q62 211 62 276 Q62 359 83 436 Q104 513 147.5 571.5 Q191 630 257.5 665 Q324 700 414 700 Z M408 599 Q351 599 312.5 570 Q274 541 250.5 494.5 Q227 448 217 389.5 Q207 331 207 273 Q207 185 240.5 138.5 Q274 92 349 92 Q401 92 437.5 117.5 Q474 143 497.5 187 Q521 231 531.5 289 Q542 347 542 412 Q542 450 536 484 Q530 518 515 543.5 Q500 569 474 584 Q448 599 408 599 Z M261 846 L328 932 L487 785 L448 733 L261 846 Z " />
<glyph glyph-name="Oacute" unicode="&#xd3;" horiz-adv-x="718" d="M414 700 Q489 700 541 677.5 Q593 655 626 615.5 Q659 576 674 522.5 Q689 469 689 406 Q689 317 666 241 Q643 165 599 109.5 Q555 54 490 22 Q425 -10 341 -10 Q268 -10 215.5 10.5 Q163 31 129 68.5 Q95 106 78.5 158.5 Q62 211 62 276 Q62 359 83 436 Q104 513 147.5 571.5 Q191 630 257.5 665 Q324 700 414 700 Z M408 599 Q351 599 312.5 570 Q274 541 250.5 494.5 Q227 448 217 389.5 Q207 331 207 273 Q207 185 240.5 138.5 Q274 92 349 92 Q401 92 437.5 117.5 Q474 143 497.5 187 Q521 231 531.5 289 Q542 347 542 412 Q542 450 536 484 Q530 518 515 543.5 Q500 569 474 584 Q448 599 408 599 Z M410 731 L376 783 L564 924 L617 841 L410 731 Z " />
<glyph glyph-name="Ocircumflex" unicode="&#xd4;" horiz-adv-x="718" d="M414 700 Q489 700 541 677.5 Q593 655 626 615.5 Q659 576 674 522.5 Q689 469 689 406 Q689 317 666 241 Q643 165 599 109.5 Q555 54 490 22 Q425 -10 341 -10 Q268 -10 215.5 10.5 Q163 31 129 68.5 Q95 106 78.5 158.5 Q62 211 62 276 Q62 359 83 436 Q104 513 147.5 571.5 Q191 630 257.5 665 Q324 700 414 700 Z M408 599 Q351 599 312.5 570 Q274 541 250.5 494.5 Q227 448 217 389.5 Q207 331 207 273 Q207 185 240.5 138.5 Q274 92 349 92 Q401 92 437.5 117.5 Q474 143 497.5 187 Q521 231 531.5 289 Q542 347 542 412 Q542 450 536 484 Q530 518 515 543.5 Q500 569 474 584 Q448 599 408 599 Z M589 722 L441 823 L271 723 L241 763 L409 913 L493 913 L627 764 L589 722 Z " />
<glyph glyph-name="Otilde" unicode="&#xd5;" horiz-adv-x="718" d="M414 700 Q489 700 541 677.5 Q593 655 626 615.5 Q659 576 674 522.5 Q689 469 689 406 Q689 317 666 241 Q643 165 599 109.5 Q555 54 490 22 Q425 -10 341 -10 Q268 -10 215.5 10.5 Q163 31 129 68.5 Q95 106 78.5 158.5 Q62 211 62 276 Q62 359 83 436 Q104 513 147.5 571.5 Q191 630 257.5 665 Q324 700 414 700 Z M408 599 Q351 599 312.5 570 Q274 541 250.5 494.5 Q227 448 217 389.5 Q207 331 207 273 Q207 185 240.5 138.5 Q274 92 349 92 Q401 92 437.5 117.5 Q474 143 497.5 187 Q521 231 531.5 289 Q542 347 542 412 Q542 450 536 484 Q530 518 515 543.5 Q500 569 474 584 Q448 599 408 599 Z M514 768 Q490 768 467 774 Q444 780 423 787.5 Q402 795 383.5 801 Q365 807 350 807 L292 768 L256 798 Q279 846 307 867.5 Q335 889 366 889 Q387 889 408.5 883.5 Q430 878 451 871 Q472 864 492 858.5 Q512 853 529 853 L589 892 L622 861 Q602 816 575 792 Q548 768 514 768 Z " />
<glyph glyph-name="Odieresis" unicode="&#xd6;" horiz-adv-x="718" d="M414 700 Q489 700 541 677.5 Q593 655 626 615.5 Q659 576 674 522.5 Q689 469 689 406 Q689 317 666 241 Q643 165 599 109.5 Q555 54 490 22 Q425 -10 341 -10 Q268 -10 215.5 10.5 Q163 31 129 68.5 Q95 106 78.5 158.5 Q62 211 62 276 Q62 359 83 436 Q104 513 147.5 571.5 Q191 630 257.5 665 Q324 700 414 700 Z M408 599 Q351 599 312.5 570 Q274 541 250.5 494.5 Q227 448 217 389.5 Q207 331 207 273 Q207 185 240.5 138.5 Q274 92 349 92 Q401 92 437.5 117.5 Q474 143 497.5 187 Q521 231 531.5 289 Q542 347 542 412 Q542 450 536 484 Q530 518 515 543.5 Q500 569 474 584 Q448 599 408 599 Z M594 800 Q592 772 572 753 Q552 734 524 734 Q498 734 483.5 751 Q469 768 471 794 Q473 822 493 840.5 Q513 859 539 859 Q565 859 580.5 842.5 Q596 826 594 800 Z M404 800 Q402 772 381.5 753 Q361 734 335 734 Q309 734 293.5 751.5 Q278 769 280 794 Q282 822 303 840.5 Q324 859 348 859 Q374 859 390 842.5 Q406 826 404 800 Z " />
<glyph glyph-name="Oslash" unicode="&#xd8;" horiz-adv-x="718" d="M414 700 Q479 700 526.5 683 Q574 666 606 635 L666 700 L730 700 L637 599 Q664 561 676 512 Q688 463 688 406 Q688 317 665.5 241.5 Q643 166 598.5 110 Q554 54 489.5 22.5 Q425 -9 341 -9 Q272 -9 222 8.5 Q172 26 137 58 Q123 41 107.5 25.5 Q92 10 78 -6 L19 -6 Q33 8 56.5 32.5 Q80 57 110 91 Q65 157 62 260 Q62 347 82 426.5 Q102 506 144.5 566.5 Q187 627 253.5 663.5 Q320 700 414 700 Z M542 412 Q542 433 540 452 Q538 471 533 489 L229 155 Q246 124 275 107.5 Q304 91 349 91 Q401 91 437.5 116.5 Q474 142 497 186 Q520 230 531 288.5 Q542 347 542 412 Z M408 599 Q352 599 314 571.5 Q276 544 252.5 499.5 Q229 455 218.5 399 Q208 343 207 286 Q207 264 208 243 Q209 222 214 202 L517 538 Q502 566 476 582.5 Q450 599 408 599 Z " />
<glyph glyph-name="Ugrave" unicode="&#xd9;" horiz-adv-x="734" d="M650 253 Q642 192 621 143.5 Q600 95 563.5 61 Q527 27 474.5 9 Q422 -9 350 -9 Q273 -9 220.5 10 Q168 29 137.5 64 Q107 99 96.5 149 Q86 199 94 262 L135 594 L79 594 L90 688 L345 688 L335 594 L272 594 L229 247 Q211 92 356 92 Q420 92 462 129.5 Q504 167 514 247 L557 594 L495 594 L507 688 L762 688 L750 594 L692 594 L650 253 Z M266 846 L333 932 L492 785 L453 733 L266 846 Z " />
<glyph glyph-name="Uacute" unicode="&#xda;" horiz-adv-x="734" d="M650 253 Q642 192 621 143.5 Q600 95 563.5 61 Q527 27 474.5 9 Q422 -9 350 -9 Q273 -9 220.5 10 Q168 29 137.5 64 Q107 99 96.5 149 Q86 199 94 262 L135 594 L79 594 L90 688 L345 688 L335 594 L272 594 L229 247 Q211 92 356 92 Q420 92 462 129.5 Q504 167 514 247 L557 594 L495 594 L507 688 L762 688 L750 594 L692 594 L650 253 Z M406 731 L372 783 L560 924 L613 841 L406 731 Z " />
<glyph glyph-name="Ucircumflex" unicode="&#xdb;" horiz-adv-x="734" d="M650 253 Q642 192 621 143.5 Q600 95 563.5 61 Q527 27 474.5 9 Q422 -9 350 -9 Q273 -9 220.5 10 Q168 29 137.5 64 Q107 99 96.5 149 Q86 199 94 262 L135 594 L79 594 L90 688 L345 688 L335 594 L272 594 L229 247 Q211 92 356 92 Q420 92 462 129.5 Q504 167 514 247 L557 594 L495 594 L507 688 L762 688 L750 594 L692 594 L650 253 Z M598 723 L444 822 L268 724 L237 763 L411 910 L498 910 L638 764 L598 723 Z " />
<glyph glyph-name="Udieresis" unicode="&#xdc;" horiz-adv-x="734" d="M650 253 Q642 192 621 143.5 Q600 95 563.5 61 Q527 27 474.5 9 Q422 -9 350 -9 Q273 -9 220.5 10 Q168 29 137.5 64 Q107 99 96.5 149 Q86 199 94 262 L135 594 L79 594 L90 688 L345 688 L335 594 L272 594 L229 247 Q211 92 356 92 Q420 92 462 129.5 Q504 167 514 247 L557 594 L495 594 L507 688 L762 688 L750 594 L692 594 L650 253 Z M600 800 Q598 772 578 753 Q558 734 530 734 Q504 734 489.5 751 Q475 768 477 794 Q479 822 499 840.5 Q519 859 545 859 Q571 859 586.5 842.5 Q602 826 600 800 Z M410 800 Q408 772 387.5 753 Q367 734 341 734 Q315 734 299.5 751.5 Q284 769 286 794 Q288 822 309 840.5 Q330 859 354 859 Q380 859 396 842.5 Q412 826 410 800 Z " />
<glyph glyph-name="Yacute" unicode="&#xdd;" horiz-adv-x="646" d="M491 593 L431 593 L443 688 L693 688 L681 593 L632 593 L403 272 L382 94 L457 94 L447 0 L146 0 L156 94 L233 94 L254 270 L109 593 L60 593 L71 688 L318 688 L306 593 L248 593 L339 369 L343 369 L491 593 Z M360 730 L326 782 L514 923 L567 840 L360 730 Z " />
<glyph glyph-name="Thorn" unicode="&#xde;" horiz-adv-x="614" d="M286 540 L401 540 Q509 540 559 497 Q609 454 609 372 Q609 331 594.5 293 Q580 255 550.5 225.5 Q521 196 475 178 Q429 160 366 161 L241 161 L231 87 L304 87 L294 0 L15 0 L26 87 L93 87 L155 596 L86 596 L98 688 L376 688 L365 596 L294 596 L286 540 Z M276 460 L250 242 L341 242 Q365 242 387 249 Q409 256 426.5 271 Q444 286 454 310 Q464 334 464 367 Q464 416 437.5 438 Q411 460 366 460 L276 460 Z " />
<glyph glyph-name="agrave" unicode="&#xe0;" horiz-adv-x="605" d="M303 500 Q361 500 422 471 L445 500 L542 494 Q524 379 509 277.5 Q494 176 486 95 Q507 97 524 103 Q541 109 561 119 Q562 116 566 107.5 Q570 99 575 88.5 Q580 78 584 69.5 Q588 61 590 58 Q574 43 554 30 Q534 17 513 7 Q492 -3 472 -8.5 Q452 -14 435 -14 Q396 -14 378.5 4 Q361 22 358 52 Q357 69 359 86.5 Q361 104 364 123 L359 123 Q337 84 314 58 Q291 32 268 16.5 Q245 1 221.5 -5 Q198 -11 175 -11 Q113 -11 76.5 31 Q40 73 40 159 Q40 229 56.5 291 Q73 353 106 399.5 Q139 446 188.5 473 Q238 500 303 500 Z M233 84 Q249 84 267 93 Q285 102 303 123.5 Q321 145 339.5 181 Q358 217 375 271 L394 384 Q368 393 346.5 396 Q325 399 310 399 Q271 399 245 377.5 Q219 356 203 323.5 Q187 291 180.5 252.5 Q174 214 174 181 Q174 132 190.5 108 Q207 84 233 84 Z M189 696 L266 767 L392 588 L344 544 L189 696 Z " />
</font>
</svg>
