<?xml version="1.0" encoding="UTF-8"?>
<svg xmlns="http://www.w3.org/2000/svg" xmlns:xlink="http://www.w3.org/1999/xlink" version="1.2" >
<font id="SapientCentroSlab-BlackItalic">
<font-face  font-family="Sapient Centro Slab" units-per-em="1000" ascent="750" descent="-250" font-style="italic" font-weight="900" font-stretch="normal" slope="-12" cap-height="691" x-height="492" underline-position="-80" underline-thickness="80" />
<missing-glyph  horiz-adv-x="449" d="M0 689 L448 689 L448 0 L0 0 L0 689 Z M333 77 L224 273 L115 77 L333 77 Z M333 611 L114 611 L224 417 L333 611 Z M78 157 L180 345 L78 533 L78 157 Z M370 157 L370 534 L267 344 L370 157 Z " />
<glyph glyph-name="NULL" d="" />
<glyph glyph-name="nonmarkingreturn" unicode="&#xd;" horiz-adv-x="308" d="" />
<glyph glyph-name="space" unicode="&#x20;" horiz-adv-x="308" d="" />
<glyph glyph-name="dollar" unicode="&#x24;" horiz-adv-x="611" d="M384 746 L428 746 L419 675 Q453 672 488.5 663 Q524 654 552 637 Q547 597 542 556.5 Q537 516 532 476 L436 476 Q439 493 441 509.5 Q443 526 446 543 Q437 548 427 550.5 Q417 553 405 555 Q400 517 395.5 478 Q391 439 386 401 Q416 391 445.5 377 Q475 363 498.5 342 Q522 321 536.5 291.5 Q551 262 551 222 Q551 128 492.5 75.5 Q434 23 338 10 L327 -76 L282 -76 L384 746 Z M352 746 Q326 539 301.5 334 Q277 129 251 -76 L206 -76 Q209 -56 211.5 -34.5 Q214 -13 217 7 Q175 12 133 22.5 Q91 33 55 52 Q61 94 66.5 135.5 Q72 177 77 219 L173 219 L164 148 Q178 142 195.5 138 Q213 134 231 132 L252 292 Q220 302 192 317 Q164 332 143 352.5 Q122 373 110 400.5 Q98 428 98 464 Q98 511 114 547.5 Q130 584 157 610.5 Q184 637 220.5 653 Q257 669 298 675 L307 746 L352 746 Z M353 139 Q379 146 393 163 Q407 180 407 208 Q407 226 397 238 Q387 250 368 258 L353 139 Z M283 549 Q263 543 250.5 528 Q238 513 236 487 Q237 467 244.5 456.5 Q252 446 270 438 Q273 466 276 494 Q279 522 283 549 Z " />
<glyph glyph-name="percent" unicode="&#x25;" horiz-adv-x="920" d="M250 674 Q296 674 327.5 661 Q359 648 378 625.5 Q397 603 405.5 572 Q414 541 414 505 Q414 457 402.5 412.5 Q391 368 366 334.5 Q341 301 301 281 Q261 261 204 261 Q158 261 127 273.5 Q96 286 76.5 308.5 Q57 331 48.5 361.5 Q40 392 40 428 Q40 474 50.5 518 Q61 562 86 596.5 Q111 631 151 652.5 Q191 674 250 674 Z M243 582 Q219 582 204 565.5 Q189 549 180.5 524.5 Q172 500 169 471.5 Q166 443 166 420 Q166 390 176.5 372 Q187 354 215 354 Q234 354 248 366.5 Q262 379 271 400.5 Q280 422 284.5 450.5 Q289 479 289 510 Q289 540 279.5 561 Q270 582 243 582 Z M332 -19 L229 -19 L643 714 L747 714 L332 -19 Z M755 409 Q801 409 832.5 396 Q864 383 883 360.5 Q902 338 910.5 307 Q919 276 919 240 Q919 191 907.5 147 Q896 103 871 69.5 Q846 36 806.5 16 Q767 -4 710 -4 Q664 -4 632.5 8.5 Q601 21 581.5 43.5 Q562 66 553.5 96.5 Q545 127 545 162 Q545 208 556 252 Q567 296 591.5 331 Q616 366 656 387.5 Q696 409 755 409 Z M749 316 Q725 316 710 299.5 Q695 283 686.5 258.5 Q678 234 675 206 Q672 178 672 155 Q672 125 682.5 107 Q693 89 720 89 Q739 89 753 101.5 Q767 114 776 135.5 Q785 157 789.5 185 Q794 213 794 244 Q794 274 784.5 295 Q775 316 749 316 Z " />
<glyph glyph-name="ampersand" unicode="&#x26;" horiz-adv-x="958" d="M437 524 Q470 524 496 513.5 Q522 503 540 486.5 Q558 470 567.5 450 Q577 430 577 410 Q577 391 567 367 Q557 343 531 323 L531 321 Q545 323 558 324 Q571 325 584 325 Q608 325 634 321 Q660 317 687 310 Q692 329 693.5 348.5 Q695 368 695 389 Q695 498 636 554 Q577 610 477 610 Q400 610 342 582 Q284 554 242 510 Q200 466 174 413 Q148 360 136 309 L24 324 Q30 364 46 409 Q62 454 89 498 Q116 542 153.5 582 Q191 622 240 653 Q289 684 350 702 Q411 720 484 720 Q581 720 647 690.5 Q713 661 753.5 614.5 Q794 568 812 510 Q830 452 830 396 Q830 371 827.5 347 Q825 323 820 300 Q859 304 884.5 315 Q910 326 931 346 L975 273 Q943 236 897 218 Q851 200 785 194 Q761 145 724 103 Q687 61 639 30.5 Q591 0 534 -17 Q477 -34 414 -34 Q353 -34 308 -17.5 Q263 -1 233 28.5 Q203 58 188 99 Q173 140 173 189 Q173 273 198 335.5 Q223 398 261.5 440 Q300 482 346.5 503 Q393 524 437 524 Z M405 374 Q395 374 381.5 366.5 Q368 359 355.5 340 Q343 321 334 289 Q325 257 325 209 Q325 154 353 120 Q381 86 448 86 Q474 86 502 94.5 Q530 103 556.5 119 Q583 135 606 158 Q629 181 646 210 Q619 218 593 223.5 Q567 229 541 229 Q526 229 514 228.5 Q502 228 489 226 Q476 224 460 220.5 Q444 217 421 210 L392 290 Q418 307 427 320 Q436 333 436 344 Q436 357 427.5 365.5 Q419 374 405 374 Z " />
<glyph glyph-name="quotesingle" unicode="&#x27;" horiz-adv-x="269" d="M106 419 L120 692 L265 692 L209 419 L106 419 Z " />
<glyph glyph-name="parenleft" unicode="&#x28;" horiz-adv-x="360" d="M213 178 Q213 123 220 78 Q227 33 237 -3 Q247 -39 258.5 -66 Q270 -93 279 -113 L195 -167 Q135 -95 101.5 5 Q68 105 68 213 Q68 291 86.5 362 Q105 433 137 496 Q169 559 211 613 Q253 667 301 712 L372 655 Q353 631 325.5 587.5 Q298 544 273 483 Q248 422 230.5 345 Q213 268 213 178 Z " />
<glyph glyph-name="parenright" unicode="&#x29;" horiz-adv-x="360" d="M165 368 Q165 423 158 467.5 Q151 512 141 548 Q131 584 119.5 611 Q108 638 99 658 L182 711 Q212 675 235.5 631 Q259 587 275.5 538.5 Q292 490 301 438 Q310 386 310 334 Q310 255 291 183 Q272 111 239.5 47.5 Q207 -16 164.5 -70.5 Q122 -125 76 -168 L5 -110 Q24 -86 51 -42.5 Q78 1 103.5 61.5 Q129 122 147 199.5 Q165 277 165 368 Z " />
<glyph glyph-name="asterisk" unicode="&#x2a;" horiz-adv-x="435" d="M318 505 Q321 502 332 490 Q343 478 356 464 Q369 450 380.5 438 Q392 426 395 423 Q392 420 376.5 408.5 Q361 397 342.5 384.5 Q324 372 308 361 Q292 350 289 349 Q287 353 282 369.5 Q277 386 270.5 405 Q264 424 258.5 440.5 Q253 457 252 461 L188 350 Q185 351 171.5 361.5 Q158 372 142 384.5 Q126 397 113 408.5 Q100 420 98 423 L196 507 L79 523 Q79 527 86.5 545.5 Q94 564 103.5 585 Q113 606 121 623.5 Q129 641 131 644 Q134 642 148.5 632.5 Q163 623 179.5 612.5 Q196 602 210.5 593 Q225 584 229 582 L220 702 Q223 703 241.5 703 Q260 703 282 703 Q304 703 322.5 703 Q341 703 344 702 L304 583 L420 643 Q421 640 425 622 Q429 604 433 583 Q437 562 439.5 543 Q442 524 442 520 L318 505 Z " />
<glyph glyph-name="plus" unicode="&#x2b;" horiz-adv-x="611" d="M376 254 L354 81 L251 81 L272 254 L113 254 L125 357 L285 357 L306 526 L409 526 L388 357 L547 357 L534 254 L376 254 Z " />
<glyph glyph-name="comma" unicode="&#x2c;" horiz-adv-x="297" d="M136 178 Q158 178 173.5 170 Q189 162 199.5 148.5 Q210 135 215 117.5 Q220 100 220 81 Q220 47 204.5 13 Q189 -21 164.5 -51 Q140 -81 110 -105 Q80 -129 50 -143 L13 -83 Q42 -61 60.5 -40 Q79 -19 87 13 Q64 17 50.5 35 Q37 53 37 79 Q37 98 43.5 116 Q50 134 63 147.5 Q76 161 94.5 169.5 Q113 178 136 178 Z " />
<glyph glyph-name="hyphen" unicode="&#x2d;" horiz-adv-x="403" d="M62 210 L78 335 L357 335 L341 210 L62 210 Z " />
<glyph glyph-name="period" unicode="&#x2e;" horiz-adv-x="296" d="M144 177 Q179 177 201 152.5 Q223 128 223 92 Q223 70 214.5 51 Q206 32 191.5 18 Q177 4 158.5 -4 Q140 -12 121 -12 Q86 -12 63 13 Q40 38 40 73 Q40 95 49 114.5 Q58 134 72.5 147.5 Q87 161 105.5 169 Q124 177 144 177 Z " />
<glyph glyph-name="slash" unicode="&#x2f;" horiz-adv-x="391" d="M101 -37 L-27 -37 L317 711 L447 711 L101 -37 Z " />
<glyph glyph-name="zero" unicode="0" horiz-adv-x="611" d="M353 678 Q424 678 472.5 656 Q521 634 550.5 595.5 Q580 557 593 505 Q606 453 606 394 Q606 317 588.5 244 Q571 171 533 115 Q495 59 434.5 25 Q374 -9 288 -9 Q219 -9 170.5 11.5 Q122 32 92 68 Q62 104 48 153 Q34 202 34 260 Q34 337 50.5 412 Q67 487 104.5 546 Q142 605 203 641.5 Q264 678 353 678 Z M345 546 Q305 546 280 515 Q255 484 240.5 438 Q226 392 221 340.5 Q216 289 216 248 Q216 194 234 158 Q252 122 298 122 Q331 122 355 145.5 Q379 169 395 208.5 Q411 248 418.5 300.5 Q426 353 426 410 Q426 437 422 461.5 Q418 486 408 505 Q398 524 382.5 535 Q367 546 345 546 Z " />
<glyph glyph-name="one" unicode="1" horiz-adv-x="611" d="M73 118 L207 118 L257 521 L116 506 L111 607 L298 670 L457 670 L389 118 L526 118 L512 0 L59 0 L73 118 Z " />
<glyph glyph-name="two" unicode="2" horiz-adv-x="611" d="M274 117 L419 117 L427 182 L555 182 L533 0 L13 0 L25 106 Q83 149 145.5 196.5 Q208 244 260 291 Q312 338 345.5 383.5 Q379 429 379 469 Q379 498 359.5 516.5 Q340 535 297 535 Q271 535 228 524 Q185 513 131 484 L84 598 Q151 640 216 659 Q281 678 338 678 Q443 678 503.5 632 Q564 586 564 494 Q564 440 536.5 389 Q509 338 466.5 291 Q424 244 373 201.5 Q322 159 274 122 L274 117 Z " />
<glyph glyph-name="three" unicode="3" horiz-adv-x="611" d="M444 373 Q503 356 531.5 315.5 Q560 275 560 229 Q560 179 539.5 135.5 Q519 92 479.5 59.5 Q440 27 383 8 Q326 -11 253 -11 Q233 -11 204 -9 Q175 -7 143 -1 Q111 5 79.5 15 Q48 25 24 40 Q25 42 33 60 Q41 78 50.5 99 Q60 120 67.5 138 Q75 156 76 158 Q132 140 168.5 132.5 Q205 125 240 125 Q266 125 291 130.5 Q316 136 335 148 Q354 160 365.5 178.5 Q377 197 377 223 Q377 260 349.5 278 Q322 296 281 296 Q272 296 256.5 295 Q241 294 214 290 L196 394 Q287 411 333 436.5 Q379 462 379 498 Q379 518 363.5 533 Q348 548 311 548 Q278 548 238 538 Q198 528 141 503 Q140 505 134 522.5 Q128 540 120.5 561 Q113 582 107 599.5 Q101 617 100 619 Q139 637 173 649 Q207 661 238.5 668.5 Q270 676 299.5 679 Q329 682 359 682 Q414 682 453 669.5 Q492 657 516 636 Q540 615 551 587.5 Q562 560 562 530 Q562 511 555.5 489.5 Q549 468 534.5 447.5 Q520 427 497.5 409 Q475 391 444 379 L444 373 Z " />
<glyph glyph-name="four" unicode="4" horiz-adv-x="611" d="M549 670 L505 309 L600 309 L585 190 L490 190 Q490 185 488.5 175 Q487 165 485.5 153.5 Q484 142 483 132 Q482 122 481 117 L541 117 L527 0 L235 0 Q235 2 237.5 20 Q240 38 242.5 58.5 Q245 79 247 97 Q249 115 249 117 L303 117 L313 190 L25 190 L38 292 Q47 303 70.5 332 Q94 361 125 399.5 Q156 438 190 481 Q224 524 254.5 562 Q285 600 308.5 629.5 Q332 659 341 670 L549 670 Z M348 506 Q346 504 339 494.5 Q332 485 324 474 Q316 463 308.5 453.5 Q301 444 299 441 Q290 430 276 412 Q262 394 246.5 374.5 Q231 355 216.5 337 Q202 319 193 309 L328 309 L353 506 L348 506 Z " />
<glyph glyph-name="five" unicode="5" horiz-adv-x="611" d="M284 318 Q262 318 234 312.5 Q206 307 179 296 L99 337 L164 670 L580 670 L558 493 L426 493 L433 550 L291 550 L271 433 Q284 436 302 439.5 Q320 443 340 443 Q446 443 505 394.5 Q564 346 564 250 Q564 188 540.5 139.5 Q517 91 476 58 Q435 25 380.5 7.5 Q326 -10 264 -10 Q245 -10 216.5 -8 Q188 -6 156.5 0 Q125 6 93 16 Q61 26 35 42 L86 166 Q141 146 177.5 139 Q214 132 247 132 Q275 132 299.5 138 Q324 144 342 157 Q360 170 370.5 190.5 Q381 211 381 241 Q381 261 373 275.5 Q365 290 351.5 299.5 Q338 309 320.5 313.5 Q303 318 284 318 Z " />
<glyph glyph-name="six" unicode="6" horiz-adv-x="611" d="M248 392 Q283 412 322.5 420 Q362 428 391 428 Q428 428 460.5 417 Q493 406 517 383.5 Q541 361 555 327 Q569 293 569 248 Q569 184 547 136 Q525 88 487 55.5 Q449 23 398.5 6.5 Q348 -10 290 -10 Q224 -10 178 8.5 Q132 27 103.5 60.5 Q75 94 62 140.5 Q49 187 49 243 Q49 332 69.5 411 Q90 490 132.5 549 Q175 608 242 642.5 Q309 677 402 677 Q453 677 493 669.5 Q533 662 556 654 L521 530 Q487 541 456.5 543.5 Q426 546 407 546 Q369 546 341 532.5 Q313 519 293.5 497.5 Q274 476 262 449 Q250 422 244 396 L248 392 Z M329 307 Q297 307 272 295 Q247 283 233 275 Q228 247 228 227 Q228 207 231 189 Q234 171 242.5 157.5 Q251 144 266 136 Q281 128 304 128 Q346 128 371 158 Q396 188 396 241 Q396 270 382 288.5 Q368 307 329 307 Z " />
<glyph glyph-name="seven" unicode="7" horiz-adv-x="611" d="M111 461 L136 669 L598 669 L583 555 L266 0 L90 0 L403 550 L255 550 L244 461 L111 461 Z " />
<glyph glyph-name="eight" unicode="8" horiz-adv-x="611" d="M351 555 Q329 555 313.5 547.5 Q298 540 288 529 Q278 518 273.5 506 Q269 494 269 485 Q269 471 276.5 460.5 Q284 450 296.5 441.5 Q309 433 326 425 Q343 417 362 407 Q397 434 409.5 457 Q422 480 422 497 Q422 520 406 537.5 Q390 555 351 555 Z M292 126 Q319 126 338 134 Q357 142 368 154 Q379 166 384 180.5 Q389 195 389 208 Q389 236 365.5 257 Q342 278 282 301 Q244 273 228.5 244.5 Q213 216 213 190 Q213 164 233 145 Q253 126 292 126 Z M367 681 Q406 681 445.5 671 Q485 661 516 640.5 Q547 620 566.5 588 Q586 556 586 512 Q586 471 564.5 429 Q543 387 482 349 Q521 327 544 290 Q567 253 567 203 Q567 161 548 123 Q529 85 492.5 55.5 Q456 26 401.5 9 Q347 -8 276 -8 Q218 -8 172.5 5.5 Q127 19 96 43 Q65 67 49 100.5 Q33 134 33 174 Q33 196 39 222 Q45 248 59.5 273.5 Q74 299 99 323.5 Q124 348 162 367 Q133 388 117.5 414.5 Q102 441 102 476 Q102 520 122.5 557.5 Q143 595 179 622.5 Q215 650 263.5 665.5 Q312 681 367 681 Z " />
<glyph glyph-name="nine" unicode="9" horiz-adv-x="611" d="M389 276 Q354 256 314.5 248 Q275 240 246 240 Q208 240 175.5 251 Q143 262 119 284.5 Q95 307 81 341 Q67 375 67 420 Q67 484 89 532 Q111 580 149 612.5 Q187 645 238 661.5 Q289 678 347 678 Q413 678 459 659.5 Q505 641 533.5 607.5 Q562 574 575 527.5 Q588 481 588 425 Q588 336 567.5 257 Q547 178 504 119 Q461 60 394.5 25.5 Q328 -9 235 -9 Q184 -9 144.5 -1.5 Q105 6 82 14 L114 137 Q148 127 180 124.5 Q212 122 230 122 Q268 122 296 135.5 Q324 149 343.5 170.5 Q363 192 374.5 219 Q386 246 392 272 L389 276 Z M308 361 Q340 361 365 373 Q390 385 404 393 Q406 406 407 419 Q408 432 408 442 Q408 461 405 479 Q402 497 394 510.5 Q386 524 371.5 532 Q357 540 334 540 Q291 540 266 510 Q241 480 241 427 Q241 398 255 379.5 Q269 361 308 361 Z " />
<glyph glyph-name="colon" unicode="&#x3a;" horiz-adv-x="295" d="M145 177 Q180 177 202 153 Q224 129 224 94 Q224 72 215.5 53 Q207 34 193 19.5 Q179 5 160.5 -3 Q142 -11 122 -11 Q87 -11 64 13.5 Q41 38 41 74 Q41 96 50 115 Q59 134 73.5 148 Q88 162 106.5 169.5 Q125 177 145 177 Z M180 462 Q215 462 237 438 Q259 414 259 378 Q259 355 250.5 336 Q242 317 228 303 Q214 289 195.5 281 Q177 273 157 273 Q122 273 99 298 Q76 323 76 359 Q76 381 85 400 Q94 419 108.5 432.5 Q123 446 141.5 454 Q160 462 180 462 Z " />
<glyph glyph-name="semicolon" unicode="&#x3b;" horiz-adv-x="295" d="M141 178 Q162 178 178 170 Q194 162 204 148.5 Q214 135 219 117.5 Q224 100 224 81 Q224 47 208.5 13 Q193 -21 168.5 -51 Q144 -81 114 -105 Q84 -129 55 -143 L17 -83 Q46 -61 64.5 -40 Q83 -19 91 13 Q68 17 54.5 35 Q41 53 41 79 Q41 98 48 116 Q55 134 68 147.5 Q81 161 99.5 169.5 Q118 178 141 178 Z M180 462 Q215 462 237 438 Q259 414 259 378 Q259 355 250.5 336 Q242 317 228 303 Q214 289 195.5 281 Q177 273 157 273 Q122 273 99 298 Q76 323 76 359 Q76 381 85 400 Q94 419 108.5 432.5 Q123 446 141.5 454 Q160 462 180 462 Z " />
<glyph glyph-name="less" unicode="&#x3c;" horiz-adv-x="611" d="M517 26 L75 255 L86 345 L584 575 L568 448 L233 300 Q260 287 300 267 Q340 247 382.5 225.5 Q425 204 465 184 Q505 164 532 151 L517 26 Z " />
<glyph glyph-name="equal" unicode="&#x3d;" horiz-adv-x="611" d="M107 336 L119 437 L548 437 L535 336 L107 336 Z M85 163 L98 262 L527 262 L514 163 L85 163 Z " />
<glyph glyph-name="greater" unicode="&#x3e;" horiz-adv-x="611" d="M63 152 L400 301 L100 449 L115 575 L557 345 L546 255 L48 26 L63 152 Z " />
<glyph glyph-name="question" unicode="&#x3f;" horiz-adv-x="525" d="M332 714 Q433 714 485 669.5 Q537 625 537 554 Q537 519 526.5 491 Q516 463 498 440.5 Q480 418 457.5 399.5 Q435 381 411 365 Q384 347 364.5 332.5 Q345 318 332.5 304 Q320 290 314 274 Q308 258 308 236 L308 214 Q304 214 282.5 211.5 Q261 209 236.5 206.5 Q212 204 190.5 201.5 Q169 199 165 198 Q162 228 162 252 Q162 283 170.5 308 Q179 333 194 354 Q209 375 229 393 Q249 411 272 429 Q301 451 322 473 Q343 495 343 524 Q343 547 326.5 562.5 Q310 578 272 578 Q258 578 242.5 576 Q227 574 212 571 L202 496 L81 496 L102 672 Q171 698 229.5 706 Q288 714 332 714 Z M247 157 Q282 157 304 135 Q326 113 326 81 Q326 60 318 42.5 Q310 25 296 12.5 Q282 0 264 -7 Q246 -14 227 -14 Q193 -14 171 7.5 Q149 29 149 60 Q149 79 156 96.5 Q163 114 176 127.5 Q189 141 207 149 Q225 157 247 157 Z " />
<glyph glyph-name="at" unicode="&#x40;" horiz-adv-x="944" d="M515 247 Q489 200 455.5 182 Q422 164 388 164 Q335 164 303 195.5 Q271 227 271 290 Q271 341 283.5 386 Q296 431 320 464 Q344 497 380 516 Q416 535 464 535 Q483 535 507.5 529.5 Q532 524 551 515 L567 536 L665 528 Q660 501 654.5 469 Q649 437 644 405 Q639 373 635.5 342.5 Q632 312 632 287 Q632 267 639.5 255 Q647 243 667 243 Q683 243 701 253 Q719 263 734 284 Q749 305 759 336.5 Q769 368 769 411 Q769 511 708.5 567.5 Q648 624 533 624 Q462 624 401.5 599.5 Q341 575 296 532 Q251 489 224.5 430.5 Q198 372 197 304 Q197 251 211 206 Q225 161 254.5 127.5 Q284 94 329.5 75 Q375 56 439 56 Q464 56 498.5 60 Q533 64 581 80 Q587 60 593 40.5 Q599 21 604 1 Q559 -21 511.5 -28.5 Q464 -36 427 -36 Q343 -36 280 -11.5 Q217 13 175 57.5 Q133 102 112 162.5 Q91 223 91 295 Q91 386 126 463.5 Q161 541 222 598 Q283 655 365 687.5 Q447 720 542 720 Q617 720 678.5 699 Q740 678 784 639 Q828 600 852 544.5 Q876 489 876 419 Q876 361 858 312 Q840 263 808.5 227 Q777 191 733.5 170.5 Q690 150 640 150 Q592 150 556.5 172.5 Q521 195 518 247 L515 247 Z M433 257 Q443 257 453.5 263 Q464 269 474 283.5 Q484 298 494 323 Q504 348 514 386 L524 433 Q509 438 497 439.5 Q485 441 476 441 Q455 441 440.5 428.5 Q426 416 417 396.5 Q408 377 404 353.5 Q400 330 400 309 Q400 283 409 270 Q418 257 433 257 Z " />
<glyph glyph-name="A" unicode="A" horiz-adv-x="770" d="M492 192 L273 192 L242 122 L300 122 L286 0 L-6 0 L8 122 L62 122 L336 691 L566 691 L688 122 L741 122 L726 0 L435 0 L449 122 L506 122 L492 192 Z M378 427 L325 308 L472 308 L451 423 L432 543 L428 543 L378 427 Z " />
<glyph glyph-name="B" unicode="B" horiz-adv-x="720" d="M591 362 Q620 351 637.5 334 Q655 317 665 297.5 Q675 278 678 258 Q681 238 681 220 Q681 168 662.5 127.5 Q644 87 611 58.5 Q578 30 532.5 15 Q487 0 433 0 L17 0 Q18 3 20 21.5 Q22 40 24.5 61 Q27 82 29.5 100 Q32 118 32 122 L103 122 Q105 138 109 173 Q113 208 118.5 252.5 Q124 297 130 345.5 Q136 394 141 438.5 Q146 483 150.5 517.5 Q155 552 157 569 L87 569 L103 690 L507 690 Q606 690 651.5 645 Q697 600 697 527 Q697 504 692.5 481 Q688 458 676 436.5 Q664 415 643.5 396.5 Q623 378 592 364 L591 362 Z M311 297 Q309 286 306.5 261 Q304 236 300.5 209 Q297 182 294 157.5 Q291 133 290 122 L383 122 Q431 122 457.5 149 Q484 176 484 221 Q484 252 465 274.5 Q446 297 405 297 L311 297 Z M345 569 Q343 559 340.5 536.5 Q338 514 335 489 Q332 464 329 441.5 Q326 419 325 409 L409 409 Q451 409 476 434.5 Q501 460 501 501 Q501 532 484 550.5 Q467 569 429 569 L345 569 Z " />
<glyph glyph-name="C" unicode="C" horiz-adv-x="648" d="M454 706 Q506 706 553.5 698.5 Q601 691 642 678 L615 456 L486 456 L497 553 Q485 556 472 558 Q459 560 445 560 Q396 560 361.5 541 Q327 522 305 487.5 Q283 453 272.5 405 Q262 357 262 300 Q262 254 272.5 224 Q283 194 303.5 177 Q324 160 355 153 Q386 146 427 146 Q438 146 456 147.5 Q474 149 495 151.5 Q516 154 537.5 157.5 Q559 161 577 165 L599 28 Q574 19 544.5 11.5 Q515 4 483.5 -1 Q452 -6 421 -8.5 Q390 -11 363 -11 Q274 -11 216 11.5 Q158 34 124 73.5 Q90 113 76.5 166 Q63 219 63 279 Q63 355 79 431 Q95 507 138.5 568 Q182 629 258 667.5 Q334 706 454 706 Z " />
<glyph glyph-name="D" unicode="D" horiz-adv-x="760" d="M18 0 L32 122 L105 122 L160 569 L91 569 L107 691 L443 691 Q527 691 582.5 668.5 Q638 646 671 606.5 Q704 567 717.5 514 Q731 461 731 400 Q731 320 711 248 Q691 176 647.5 120.5 Q604 65 535 32.5 Q466 0 367 0 L18 0 Z M348 569 L293 122 L355 122 Q389 122 421 138 Q453 154 477.5 187.5 Q502 221 517 273 Q532 325 532 398 Q532 489 497 529 Q462 569 406 569 L348 569 Z " />
<glyph glyph-name="E" unicode="E" horiz-adv-x="692" d="M18 0 L32 122 L102 122 L156 569 L88 569 L103 690 L701 690 L672 455 L544 455 L558 569 L344 569 L324 411 L506 415 L493 295 L310 298 L289 122 L520 122 L535 244 L664 244 L635 0 L18 0 Z " />
<glyph glyph-name="F" unicode="F" horiz-adv-x="681" d="M18 0 L32 122 L103 122 L158 569 L88 569 L103 690 L698 690 L668 455 L540 455 L554 569 L345 569 L325 411 L506 414 L493 294 L311 298 L290 122 L379 122 L364 0 L18 0 Z " />
<glyph glyph-name="G" unicode="G" horiz-adv-x="715" d="M465 706 Q518 706 570 698.5 Q622 691 662 678 L637 462 L507 462 L518 557 Q505 560 489 561.5 Q473 563 458 563 Q406 563 369 542.5 Q332 522 308 485.5 Q284 449 272.5 399 Q261 349 261 290 Q261 209 291.5 173 Q322 137 388 137 Q422 137 457 145 L472 260 L403 260 L416 369 L699 369 L686 260 L639 260 L611 30 Q548 7 484.5 -2 Q421 -11 364 -11 Q276 -11 218 12.5 Q160 36 125.5 76 Q91 116 77 168.5 Q63 221 63 280 Q63 329 70 380 Q77 431 94.5 478 Q112 525 141 566.5 Q170 608 215 639 Q260 670 321.5 688 Q383 706 465 706 Z " />
<glyph glyph-name="H" unicode="H" horiz-adv-x="830" d="M445 0 L460 122 L520 122 L541 298 L312 298 L291 122 L352 122 L337 0 L18 0 L32 122 L103 122 L158 569 L87 569 L102 691 L421 691 L406 569 L345 569 L326 413 L555 413 L575 569 L514 569 L529 691 L848 691 L833 569 L762 569 L708 122 L778 122 L764 0 L445 0 Z " />
<glyph glyph-name="I" unicode="I" horiz-adv-x="461" d="M43 0 L58 122 L128 122 L182 569 L112 569 L128 691 L452 691 L437 569 L369 569 L314 122 L382 122 L368 0 L43 0 Z " />
<glyph glyph-name="J" unicode="J" horiz-adv-x="489" d="M130 691 L498 691 L483 569 L399 569 L352 183 Q343 106 318.5 42.5 Q294 -21 250 -68 Q206 -115 139.5 -145.5 Q73 -176 -20 -186 L-48 -54 Q21 -35 60.5 -11 Q100 13 121.5 42.5 Q143 72 151.5 107 Q160 142 165 183 L213 569 L116 569 L130 691 Z " />
<glyph glyph-name="K" unicode="K" horiz-adv-x="763" d="M518 420 L683 123 L737 123 L723 0 L412 0 L427 123 L478 123 L375 310 L300 251 L284 122 L344 122 L329 0 L18 0 L32 122 L103 122 L157 569 L87 569 L102 689 L418 689 L403 569 L338 569 L319 407 L521 569 L471 569 L485 689 L785 689 L770 569 L707 569 L518 420 Z " />
<glyph glyph-name="L" unicode="L" horiz-adv-x="664" d="M18 0 L32 122 L104 122 L158 569 L88 569 L103 690 L432 690 L416 569 L346 569 L291 122 L507 122 L523 252 L652 252 L622 0 L18 0 Z " />
<glyph glyph-name="M" unicode="M" horiz-adv-x="1012" d="M524 317 Q532 334 541 350.5 Q550 367 559 384 Q580 425 600.5 464.5 Q621 504 643 544 Q649 556 660 575.5 Q671 595 682 617 Q693 639 703.5 658.5 Q714 678 720 690 L1029 690 L1013 569 L951 569 Q937 457 923.5 345 Q910 233 896 121 L958 121 L944 0 L645 0 L659 121 L715 121 L755 451 L752 451 Q744 435 736 419.5 Q728 404 719 388 Q705 359 690 331.5 Q675 304 660 276 L576 120 L425 120 Q412 156 400 193 Q388 230 376 266 L319 451 L316 451 L276 121 L337 121 L322 0 L17 0 L31 121 L103 121 L157 569 L86 569 L101 690 L405 690 L453 537 Q464 502 474 467.5 Q484 433 495 398 L519 317 L524 317 Z " />
<glyph glyph-name="N" unicode="N" horiz-adv-x="854" d="M578 263 L616 569 L550 569 L566 690 L870 690 Q866 660 862 629.5 Q858 599 855 569 L789 569 L720 0 L537 0 Q508 57 480 113 Q452 169 423 226 Q417 238 406.5 260 Q396 282 384.5 306 Q373 330 362 352 Q351 374 345 386 Q337 403 329 419 Q321 435 313 452 L311 452 Q300 369 290 286.5 Q280 204 270 121 L336 121 Q332 90 328.5 60 Q325 30 322 0 L17 0 L31 121 L99 121 Q112 233 125.5 344.5 Q139 456 153 569 L86 569 L101 690 L368 690 L460 503 Q480 462 499.5 420 Q519 378 540 333 L574 263 L578 263 Z " />
<glyph glyph-name="O" unicode="O" horiz-adv-x="769" d="M438 705 Q517 705 574 682 Q631 659 668 618.5 Q705 578 722.5 521.5 Q740 465 740 399 Q740 310 715 235 Q690 160 642.5 105 Q595 50 525.5 19.5 Q456 -11 366 -11 Q288 -11 231 11 Q174 33 136.5 72.5 Q99 112 81 167 Q63 222 63 289 Q63 375 86.5 451 Q110 527 157.5 583.5 Q205 640 275 672.5 Q345 705 438 705 Z M428 572 Q381 572 349 547.5 Q317 523 297 482.5 Q277 442 268.5 390.5 Q260 339 260 285 Q260 207 287 164 Q314 121 378 121 Q422 121 453 143 Q484 165 503.5 203.5 Q523 242 532 294.5 Q541 347 541 408 Q541 443 535.5 473 Q530 503 517.5 525 Q505 547 483 559.5 Q461 572 428 572 Z " />
<glyph glyph-name="P" unicode="P" horiz-adv-x="665" d="M452 691 Q513 691 555 677 Q597 663 623.5 637.5 Q650 612 661.5 576 Q673 540 673 497 Q673 449 656.5 404.5 Q640 360 607.5 326.5 Q575 293 526 273 Q477 253 412 253 L304 253 L287 122 L375 122 L361 0 L18 0 L32 122 L100 122 L155 569 L87 569 L102 691 L452 691 Z M342 569 L318 370 L373 370 Q418 370 446 401.5 Q474 433 474 486 Q474 569 395 569 L342 569 Z " />
<glyph glyph-name="Q" unicode="Q" horiz-adv-x="773" d="M438 705 Q517 705 574 682 Q631 659 668 618.5 Q705 578 722.5 521.5 Q740 465 740 399 Q740 281 697.5 189 Q655 97 574 47 L710 7 L639 -135 L298 -4 Q238 5 193.5 29.5 Q149 54 120 92 Q91 130 77 180 Q63 230 63 289 Q63 375 86.5 451 Q110 527 157.5 583.5 Q205 640 275 672.5 Q345 705 438 705 Z M428 572 Q381 572 349 547.5 Q317 523 297 482.5 Q277 442 268.5 390.5 Q260 339 260 285 Q260 207 287 164 Q314 121 378 121 Q422 121 453 143 Q484 165 503.5 203.5 Q523 242 532 294.5 Q541 347 541 408 Q541 443 535.5 473 Q530 503 517.5 525 Q505 547 483 559.5 Q461 572 428 572 Z " />
<glyph glyph-name="R" unicode="R" horiz-adv-x="726" d="M340 569 L318 387 L384 387 Q404 387 423 393 Q442 399 456.5 411.5 Q471 424 480 444 Q489 464 489 492 Q489 569 413 569 L340 569 Z M303 272 L286 122 L350 122 L335 0 L22 0 L36 122 L101 122 L155 569 L90 569 L106 691 L477 691 Q537 691 577 676 Q617 661 642 636 Q667 611 677.5 577.5 Q688 544 688 508 Q688 478 681 448 Q674 418 658 391 Q642 364 617.5 341.5 Q593 319 558 305 L621 119 L698 108 L700 4 Q683 -2 662.5 -6.5 Q642 -11 622 -13 Q602 -15 585 -16 Q568 -17 558 -17 Q532 -17 514 -11.5 Q496 -6 483.5 5.5 Q471 17 462.5 33.5 Q454 50 447 73 L387 272 L303 272 Z " />
<glyph glyph-name="S" unicode="S" horiz-adv-x="652" d="M379 568 Q332 568 305.5 548 Q279 528 279 493 Q279 478 289.5 467 Q300 456 317 446.5 Q334 437 357 429.5 Q380 422 404 415 Q449 402 487.5 387.5 Q526 373 553.5 351.5 Q581 330 597 299.5 Q613 269 613 224 Q613 107 527.5 47 Q442 -13 281 -13 Q255 -13 222.5 -10.5 Q190 -8 156.5 -2 Q123 4 90 13.5 Q57 23 30 38 L50 219 L177 219 L168 143 Q181 138 196.5 134 Q212 130 227.5 128 Q243 126 257 125 Q271 124 281 124 Q314 124 337 130.5 Q360 137 374 147.5 Q388 158 394 171 Q400 184 400 197 Q400 216 391 228.5 Q382 241 362.5 250.5 Q343 260 312.5 268.5 Q282 277 240 289 Q159 312 118 353 Q77 394 77 466 Q77 579 158 640 Q239 701 382 701 Q405 701 435 698.5 Q465 696 496.5 690.5 Q528 685 558 676.5 Q588 668 611 656 L589 480 L462 480 L470 553 Q448 561 422.5 564.5 Q397 568 379 568 Z " />
<glyph glyph-name="T" unicode="T" horiz-adv-x="674" d="M140 0 L154 122 L234 122 L289 569 L190 569 L176 453 L48 453 L78 691 L715 691 L686 453 L559 453 L573 569 L474 569 L419 122 L499 122 L484 0 L140 0 Z " />
<glyph glyph-name="U" unicode="U" horiz-adv-x="776" d="M693 259 Q685 195 663 145 Q641 95 602 60.5 Q563 26 506.5 8 Q450 -10 372 -10 Q289 -10 232.5 9.5 Q176 29 143 65 Q110 101 98.5 152.5 Q87 204 95 269 L131 569 L77 569 L92 691 L388 691 L373 569 L316 569 L276 249 Q261 121 383 121 Q431 121 466.5 151 Q502 181 510 249 L549 569 L492 569 L508 691 L803 691 L788 569 L731 569 L693 259 Z " />
<glyph glyph-name="V" unicode="V" horiz-adv-x="756" d="M448 321 L551 568 L491 568 L506 691 L803 691 L788 568 L737 568 L473 0 L238 0 L107 568 L58 568 L73 691 L372 691 L357 568 L298 568 L343 323 L373 148 L377 148 L448 321 Z " />
<glyph glyph-name="W" unicode="W" horiz-adv-x="1101" d="M564 305 L523 208 L435 0 L196 0 L109 568 L57 568 L73 691 L381 691 L366 568 L311 568 L338 340 L357 164 L359 164 L428 337 L502 518 L493 568 L437 568 L453 691 L752 691 L737 568 L674 568 L718 341 L749 186 L751 186 L809 352 L885 568 L827 568 L843 691 L1150 691 L1135 568 L1078 568 Q1073 555 1056 511.5 Q1039 468 1015.5 409.5 Q992 351 965 284.5 Q938 218 914.5 159.5 Q891 101 874 57 Q857 13 852 0 L623 0 L584 209 L568 305 L564 305 Z " />
<glyph glyph-name="X" unicode="X" horiz-adv-x="742" d="M503 691 L783 691 L768 568 L718 568 L518 342 L652 123 L715 123 L701 0 L363 0 L378 123 L424 123 L346 264 L232 123 L283 123 L269 0 L-9 0 L6 123 L53 123 L257 371 L143 567 L67 567 L82 691 L422 691 L407 567 L360 567 L431 442 L539 568 L488 568 L503 691 Z " />
<glyph glyph-name="Y" unicode="Y" horiz-adv-x="711" d="M504 568 L448 568 L463 691 L757 691 L741 568 L693 568 L459 250 L444 122 L517 122 L503 0 L153 0 L167 122 L242 122 L257 249 L105 568 L58 568 L73 691 L364 691 L349 568 L294 568 L374 376 L378 376 L504 568 Z " />
<glyph glyph-name="Z" unicode="Z" horiz-adv-x="652" d="M257 122 L487 122 L503 257 L631 257 L600 0 L2 0 L17 120 L410 570 L223 570 L208 452 L80 452 L110 691 L667 691 L653 575 L257 122 Z " />
<glyph glyph-name="bracketleft" unicode="&#x5b;" horiz-adv-x="345" d="M23 -159 Q25 -139 30.5 -96 Q36 -53 43 5 Q50 63 58.5 131.5 Q67 200 75.5 270.5 Q84 341 92.5 409.5 Q101 478 108.5 536 Q116 594 121.5 637.5 Q127 681 129 701 L371 701 L359 600 L268 600 Q265 577 259 525.5 Q253 474 244.5 407.5 Q236 341 227 267.5 Q218 194 210 127.5 Q202 61 195.5 9.5 Q189 -42 186 -64 L277 -64 Q277 -67 275 -81.5 Q273 -96 271 -112 Q269 -128 267.5 -142 Q266 -156 265 -159 L23 -159 Z " />
<glyph glyph-name="backslash" unicode="&#x5c;" horiz-adv-x="391" d="M64 711 L194 711 L355 -37 L226 -37 L64 711 Z " />
<glyph glyph-name="bracketright" unicode="&#x5d;" horiz-adv-x="345" d="M-2 -159 Q-2 -156 0 -142 Q2 -128 4 -112 Q6 -96 7.5 -81.5 Q9 -67 10 -64 L99 -64 L181 600 L91 600 Q91 603 92.5 618 Q94 633 96.5 650.5 Q99 668 101 683 Q103 698 103 701 L345 701 L240 -159 L-2 -159 Z " />
<glyph glyph-name="asciicircum" unicode="&#x5e;" horiz-adv-x="506" d="M379 336 L292 544 L152 336 L33 336 L266 678 L347 678 L495 336 L379 336 Z " />
<glyph glyph-name="underscore" unicode="&#x5f;" horiz-adv-x="485" d="M-44 -156 L-33 -67 L452 -67 L441 -156 L-44 -156 Z " />
<glyph glyph-name="grave" unicode="&#x60;" horiz-adv-x="585" d="M191 708 L283 798 L430 606 L373 549 L191 708 Z " />
<glyph glyph-name="a" unicode="a" horiz-adv-x="657" d="M315 504 Q345 504 376 496.5 Q407 489 436 473 L457 502 L595 495 Q577 382 564 292.5 Q551 203 542 122 Q561 124 576 128.5 Q591 133 609 141 L644 56 Q626 40 604 26.5 Q582 13 558.5 3.5 Q535 -6 511.5 -11.5 Q488 -17 468 -17 Q414 -17 390 3 Q366 23 366 63 Q366 79 371 102 L366 102 Q321 36 276.5 11.5 Q232 -13 183 -13 Q117 -13 78.5 29.5 Q40 72 40 158 Q40 230 57.5 293 Q75 356 109.5 403 Q144 450 195.5 477 Q247 504 315 504 Z M267 111 Q280 111 294.5 117.5 Q309 124 323.5 141.5 Q338 159 353 188.5 Q368 218 382 263 L398 361 Q377 368 359 370 Q341 372 329 372 Q299 372 278 354.5 Q257 337 244 310 Q231 283 225 250.5 Q219 218 219 188 Q219 149 232.5 130 Q246 111 267 111 Z " />
<glyph glyph-name="b" unicode="b" horiz-adv-x="628" d="M279 403 Q323 459 367 481.5 Q411 504 453 504 Q519 504 557.5 461 Q596 418 596 333 Q596 262 578 199 Q560 136 523.5 89 Q487 42 431.5 14.5 Q376 -13 302 -13 Q282 -13 254 -10 Q226 -7 194 -0.5 Q162 6 127.5 17 Q93 28 61 45 L51 64 Q61 137 69.5 204.5 Q78 272 86.5 337.5 Q95 403 102 468 Q109 533 116 602 L25 616 L32 702 Q91 719 137 726 Q183 733 215 733 Q243 733 260.5 727.5 Q278 722 288 712 Q298 702 301 687 Q304 672 304 654 Q304 645 301 615.5 Q298 586 293.5 548.5 Q289 511 284 472 Q279 433 274 405 L279 403 Z M366 375 Q353 375 338 367.5 Q323 360 308 342.5 Q293 325 279 296 Q265 267 253 224 L240 130 Q260 123 275 121 Q290 119 302 119 Q333 119 355 136 Q377 153 390.5 179.5 Q404 206 410 238 Q416 270 416 300 Q416 340 401.5 357.5 Q387 375 366 375 Z " />
<glyph glyph-name="c" unicode="c" horiz-adv-x="517" d="M324 505 Q340 505 357.5 503.5 Q375 502 391 499.5 Q407 497 420.5 493.5 Q434 490 442 487 Q468 476 479.5 461.5 Q491 447 491 426 Q491 415 488 398.5 Q485 382 480 363 Q475 344 469 325.5 Q463 307 456 291 Q453 291 438.5 292 Q424 293 407.5 294 Q391 295 376.5 295.5 Q362 296 360 296 Q360 300 360 311 Q360 322 360.5 334.5 Q361 347 361 358 Q361 369 361 373 Q355 375 346.5 376 Q338 377 330 377 Q304 377 284.5 364.5 Q265 352 252 330.5 Q239 309 232.5 279 Q226 249 226 214 Q226 165 247 143 Q268 121 312 121 Q362 121 432 138 L461 28 Q441 19 415.5 12 Q390 5 362.5 -0.5 Q335 -6 307 -8.5 Q279 -11 254 -11 Q191 -11 149.5 4 Q108 19 83.5 46 Q59 73 49.5 109 Q40 145 40 187 Q40 240 52.5 296.5 Q65 353 97.5 399.5 Q130 446 185 475.5 Q240 505 324 505 Z " />
<glyph glyph-name="d" unicode="d" horiz-adv-x="659" d="M318 503 Q341 503 365.5 498 Q390 493 413 485 Q415 502 416.5 515 Q418 528 419.5 540.5 Q421 553 423 567.5 Q425 582 427 601 L331 616 L337 702 Q397 719 443 726 Q489 733 521 733 Q549 733 567 727 Q585 721 595 710.5 Q605 700 608.5 685 Q612 670 612 651 Q612 641 608.5 612 Q605 583 599 540.5 Q593 498 585.5 445.5 Q578 393 570.5 337.5 Q563 282 555 226.5 Q547 171 541 122 Q560 124 577.5 129 Q595 134 612 141 L646 57 Q626 40 603 26 Q580 12 555.5 2.5 Q531 -7 507.5 -12 Q484 -17 463 -17 Q416 -17 395 2 Q374 21 371 56 Q370 67 370.5 78 Q371 89 373 102 L368 102 Q344 67 321.5 44.5 Q299 22 276.5 9.5 Q254 -3 230.5 -8 Q207 -13 183 -13 Q117 -13 78.5 29.5 Q40 72 40 158 Q40 230 58 293 Q76 356 111 402.5 Q146 449 198 476 Q250 503 318 503 Z M266 111 Q279 111 293.5 117.5 Q308 124 323 141.5 Q338 159 353.5 188.5 Q369 218 383 263 L398 361 Q378 368 359.5 370 Q341 372 330 372 Q298 372 277 354.5 Q256 337 242.5 310 Q229 283 223.5 250.5 Q218 218 218 188 Q218 148 231 129.5 Q244 111 266 111 Z " />
<glyph glyph-name="e" unicode="e" horiz-adv-x="543" d="M340 506 Q375 506 406.5 497.5 Q438 489 461.5 471 Q485 453 499 426 Q513 399 513 362 Q513 332 500 302.5 Q487 273 454 249.5 Q421 226 363.5 209.5 Q306 193 217 189 Q217 184 216.5 180 Q216 176 216 171 Q216 145 231.5 128 Q247 111 296 111 Q330 111 369.5 120 Q409 129 443 140 L474 40 Q450 26 421.5 16.5 Q393 7 363.5 1 Q334 -5 305 -8 Q276 -11 251 -11 Q185 -11 144 5 Q103 21 79.5 49 Q56 77 48 113 Q40 149 40 190 Q40 248 55 304.5 Q70 361 105.5 406 Q141 451 198.5 478.5 Q256 506 340 506 Z M314 381 Q272 381 248.5 350 Q225 319 220 264 Q352 270 352 341 Q352 359 343 370 Q334 381 314 381 Z " />
<glyph glyph-name="f" unicode="f" horiz-adv-x="459" d="M373 734 Q400 734 436 729.5 Q472 725 514 711 Q513 709 509 691 Q505 673 500 651.5 Q495 630 490.5 612 Q486 594 486 592 Q460 598 441 600 Q422 602 405 602 Q389 602 375 597.5 Q361 593 349.5 581 Q338 569 330 548.5 Q322 528 318 496 Q318 494 316.5 482 Q315 470 315 467 L451 467 L437 354 L301 354 Q293 288 287 222 Q281 156 274 90 Q266 18 252.5 -40 Q239 -98 212.5 -138.5 Q186 -179 141.5 -201 Q97 -223 26 -223 Q-2 -223 -35.5 -218.5 Q-69 -214 -107 -201 L-79 -86 Q-52 -91 -37 -92 Q-22 -93 -5 -93 Q13 -93 28 -88 Q43 -83 55 -69.5 Q67 -56 75.5 -32 Q84 -8 89 29 Q95 77 101 123.5 Q107 170 111.5 212.5 Q116 255 119.5 291.5 Q123 328 126 354 L38 354 Q38 355 39.5 370 Q41 385 43.5 403 Q46 421 48 435.5 Q50 450 50 452 L140 474 L146 522 Q152 560 165 598 Q178 636 203.5 666 Q229 696 270 715 Q311 734 373 734 Z " />
<glyph glyph-name="g" unicode="g" horiz-adv-x="617" d="M335 502 Q355 502 384 499.5 Q413 497 445.5 491 Q478 485 512 475 Q546 465 576 450 L585 431 Q579 385 572.5 335 Q566 285 560 234.5 Q554 184 548 136 Q542 88 537 45 Q532 2 521.5 -45.5 Q511 -93 481.5 -133 Q452 -173 397.5 -199.5 Q343 -226 250 -226 Q221 -226 190.5 -222 Q160 -218 131.5 -211 Q103 -204 78.5 -195.5 Q54 -187 37 -178 L80 -62 Q132 -80 169 -86 Q206 -92 238 -92 Q268 -92 289 -85 Q310 -78 324.5 -62.5 Q339 -47 347 -22 Q355 3 360 38 L368 94 Q367 95 366 95 Q365 95 363 96 Q320 41 274.5 18.5 Q229 -4 187 -4 Q121 -4 81.5 38.5 Q42 81 42 167 Q42 238 60 299 Q78 360 114.5 405 Q151 450 206 476 Q261 502 335 502 Z M271 121 Q284 121 299 128.5 Q314 136 329.5 154 Q345 172 359.5 202 Q374 232 386 276 L398 361 Q377 368 361.5 370 Q346 372 333 372 Q301 372 279.5 356 Q258 340 244.5 315 Q231 290 225.5 259 Q220 228 220 198 Q220 157 234.5 139 Q249 121 271 121 Z " />
<glyph glyph-name="h" unicode="h" horiz-adv-x="684" d="M477 505 Q543 505 569.5 474.5 Q596 444 596 384 Q596 373 593 346.5 Q590 320 586 284.5 Q582 249 576.5 207 Q571 165 567 122 Q586 123 602.5 127.5 Q619 132 636 139 L670 55 Q648 36 622.5 22.5 Q597 9 572 0 Q547 -9 523.5 -13.5 Q500 -18 482 -18 Q422 -18 401.5 7 Q381 32 381 75 Q381 82 381.5 88.5 Q382 95 383 103 Q393 175 398.5 216 Q404 257 406.5 279 Q409 301 409.5 309.5 Q410 318 410 323 Q410 344 401.5 356.5 Q393 369 373 369 Q348 369 317 337.5 Q286 306 265 232 L234 0 L53 0 Q62 74 72 152 Q82 230 91.5 308 Q101 386 109.5 460.5 Q118 535 125 601 L34 615 L42 701 Q102 718 148 725 Q194 732 226 732 Q254 732 272 726.5 Q290 721 300 711.5 Q310 702 313.5 687.5 Q317 673 317 655 Q317 647 314.5 619 Q312 591 307.5 553 Q303 515 298 473 Q293 431 287 396 L291 394 Q313 425 338.5 446.5 Q364 468 389 481 Q414 494 436.5 499.5 Q459 505 477 505 Z " />
<glyph glyph-name="i" unicode="i" horiz-adv-x="405" d="M230 505 Q282 505 299 487 Q316 469 316 437 Q316 428 314 407 Q312 386 308.5 358 Q305 330 300.5 297 Q296 264 291.5 232 Q287 200 283 171 Q279 142 277 122 Q295 123 314 127.5 Q333 132 349 139 L383 55 Q363 37 338 23.5 Q313 10 287.5 0.5 Q262 -9 238 -13.5 Q214 -18 196 -18 Q135 -18 113 7.5 Q91 33 91 75 Q91 82 91.5 88.5 Q92 95 93 103 L129 375 L49 388 L54 474 Q114 491 157 498 Q200 505 230 505 Z M239 759 Q258 759 275 751.5 Q292 744 305 731 Q318 718 325 700.5 Q332 683 332 662 Q332 614 302.5 581 Q273 548 222 548 Q183 548 155.5 574.5 Q128 601 128 640 Q128 694 159.5 726.5 Q191 759 239 759 Z " />
<glyph glyph-name="j" unicode="j" horiz-adv-x="359" d="M222 505 Q275 505 293 488 Q311 471 311 437 Q311 429 308.5 399.5 Q306 370 301.5 325 Q297 280 290.5 223.5 Q284 167 276 104 Q267 32 247 -25 Q227 -82 192 -124.5 Q157 -167 103.5 -194.5 Q50 -222 -26 -234 L-58 -116 Q-10 -95 17.5 -74.5 Q45 -54 60 -28.5 Q75 -3 81.5 30 Q88 63 94 107 L123 375 L43 388 L49 474 Q108 491 150.5 498 Q193 505 222 505 Z M234 759 Q274 759 301 731.5 Q328 704 328 662 Q328 614 298 581 Q268 548 217 548 Q178 548 150.5 574.5 Q123 601 123 640 Q123 694 154.5 726.5 Q186 759 234 759 Z " />
<glyph glyph-name="k" unicode="k" horiz-adv-x="602" d="M489 505 Q513 505 529.5 496.5 Q546 488 558 475.5 Q570 463 577.5 448 Q585 433 590 420 L530 354 Q517 363 504 368.5 Q491 374 475 374 Q450 374 423.5 356 Q397 338 370 309 Q384 281 400 251.5 Q416 222 431.5 195 Q447 168 461 146.5 Q475 125 485 113 Q504 118 517 125.5 Q530 133 544 141 L591 75 Q567 48 543.5 29.5 Q520 11 498.5 0.5 Q477 -10 458.5 -14.5 Q440 -19 428 -19 Q405 -19 386 -10.5 Q367 -2 348.5 20 Q330 42 309.5 80.5 Q289 119 264 179 Q252 161 244 147 Q236 133 227 113 L210 0 L33 0 L114 602 L27 615 L33 701 Q91 718 137.5 726 Q184 734 216 734 Q267 734 285.5 712.5 Q304 691 304 655 Q304 644 299 606.5 Q294 569 286.5 520.5 Q279 472 271.5 422 Q264 372 258 336 L262 335 Q286 368 313.5 399 Q341 430 370 453.5 Q399 477 429 491 Q459 505 489 505 Z " />
<glyph glyph-name="l" unicode="l" horiz-adv-x="368" d="M222 733 Q273 733 292.5 716 Q312 699 312 664 Q312 647 308 609 Q304 571 298 521 Q292 471 284.5 413.5 Q277 356 269.5 301.5 Q262 247 256 199.5 Q250 152 246 122 Q265 123 283.5 127.5 Q302 132 319 139 L353 55 Q333 37 308.5 23.5 Q284 10 259 0.5 Q234 -9 210.5 -13.5 Q187 -18 169 -18 Q109 -18 84.5 6.5 Q60 31 60 75 Q60 82 60.5 88.5 Q61 95 62 103 L125 602 L34 616 L40 702 Q100 719 146 726 Q192 733 222 733 Z " />
<glyph glyph-name="m" unicode="m" horiz-adv-x="980" d="M597 378 Q621 415 646.5 439.5 Q672 464 696.5 478.5 Q721 493 743 499 Q765 505 783 505 Q837 505 867 473.5 Q897 442 897 383 Q897 375 894 349.5 Q891 324 887 288 Q883 252 877.5 208.5 Q872 165 868 122 Q887 123 901.5 127.5 Q916 132 933 139 L967 56 Q945 37 920 23.5 Q895 10 870.5 1 Q846 -8 823.5 -12.5 Q801 -17 783 -17 Q723 -17 703.5 6.5 Q684 30 684 69 Q684 77 684.5 85 Q685 93 686 101 Q696 188 704 246.5 Q712 305 712 325 Q712 342 706 355.5 Q700 369 679 369 Q651 369 625 330 Q599 291 581 222 Q575 178 570 138 Q565 98 561.5 67.5 Q558 37 555.5 19 Q553 1 553 0 L375 0 Q386 87 393.5 145.5 Q401 204 405 240.5 Q409 277 410.5 296 Q412 315 412 324 Q412 341 405.5 354.5 Q399 368 378 368 Q351 368 325 330 Q299 292 281 222 L252 0 L73 0 Q79 49 83.5 84 Q88 119 91.5 146 Q95 173 98 195.5 Q101 218 103.5 243 Q106 268 109.5 298.5 Q113 329 118 373 L37 388 Q38 409 39.5 430.5 Q41 452 42 473 Q102 492 141.5 498 Q181 504 212 504 Q239 504 255 499 Q271 494 280 485 Q289 476 292 464 Q295 452 295 438 Q295 426 293.5 410 Q292 394 290 374 L295 374 Q320 414 346.5 439.5 Q373 465 398 479.5 Q423 494 445 499.5 Q467 505 485 505 Q539 505 565.5 474.5 Q592 444 592 389 Q592 386 591.5 383.5 Q591 381 591 378 L597 378 Z " />
<glyph glyph-name="n" unicode="n" horiz-adv-x="697" d="M500 505 Q556 505 585 471.5 Q614 438 614 378 Q614 367 611 340 Q608 313 604 278 Q600 243 594.5 202 Q589 161 585 122 Q603 123 618 127.5 Q633 132 650 139 Q651 138 656 125 Q661 112 667 97 Q673 82 678 69 Q683 56 684 55 Q661 36 635.5 22.5 Q610 9 584.5 0 Q559 -9 535.5 -13 Q512 -17 495 -17 Q465 -17 447 -11.5 Q429 -6 418.5 5.5 Q408 17 404.5 33.5 Q401 50 401 71 Q401 75 401.5 85.5 Q402 96 403 104 Q407 138 411.5 173 Q416 208 420 238.5 Q424 269 426.5 291.5 Q429 314 429 324 Q429 341 421 354.5 Q413 368 392 368 Q362 368 332 331 Q302 294 281 222 L252 0 L74 0 Q80 49 84.5 84 Q89 119 92 146 Q95 173 98 195.5 Q101 218 103.5 243 Q106 268 109.5 298.5 Q113 329 118 373 L37 387 L43 473 Q103 492 142 498 Q181 504 213 504 Q240 504 256.5 499 Q273 494 281.5 485 Q290 476 293 463 Q296 450 296 434 Q296 410 290 374 L295 374 Q320 414 348.5 439.5 Q377 465 405 479.5 Q433 494 457.5 499.5 Q482 505 500 505 Z " />
<glyph glyph-name="o" unicode="o" horiz-adv-x="605" d="M335 504 Q397 504 442.5 487.5 Q488 471 517.5 442 Q547 413 561 372 Q575 331 575 283 Q575 223 556.5 170 Q538 117 501.5 77 Q465 37 409 13.5 Q353 -10 278 -10 Q216 -10 171 6 Q126 22 97 51 Q68 80 54 119.5 Q40 159 40 207 Q40 268 58.5 322 Q77 376 113.5 416.5 Q150 457 205.5 480.5 Q261 504 335 504 Z M324 375 Q295 375 276 358 Q257 341 245.5 315 Q234 289 229.5 258 Q225 227 225 199 Q225 163 239 139 Q253 115 291 115 Q318 115 336.5 130 Q355 145 366.5 169.5 Q378 194 383 225 Q388 256 388 288 Q388 326 374.5 350.5 Q361 375 324 375 Z " />
<glyph glyph-name="p" unicode="p" horiz-adv-x="648" d="M0 -93 L57 -93 Q63 -39 71 23 Q79 85 86.5 147 Q94 209 101 267 Q108 325 113 372 L32 386 L38 472 Q80 488 127 496.5 Q174 505 212 505 Q259 505 275 485.5 Q291 466 290 432 Q290 419 284 374 L289 374 Q335 444 382.5 473 Q430 502 478 502 Q540 502 577.5 458.5 Q615 415 615 323 Q615 253 598 191.5 Q581 130 547 84.5 Q513 39 462.5 12.5 Q412 -14 345 -14 Q322 -14 298 -9 Q274 -4 250 4 L237 -93 L310 -93 L296 -211 L-14 -211 L0 -93 Z M390 365 Q376 365 361.5 358.5 Q347 352 332 335 Q317 318 302 288.5 Q287 259 274 214 L262 128 Q282 121 300 118.5 Q318 116 330 116 Q361 116 381.5 132 Q402 148 414.5 173 Q427 198 432.5 227.5 Q438 257 438 284 Q438 326 424.5 345.5 Q411 365 390 365 Z " />
<glyph glyph-name="q" unicode="q" horiz-adv-x="623" d="M283 -94 L344 -94 Q350 -37 355.5 8.5 Q361 54 366 85 L361 86 Q317 31 272 8 Q227 -15 185 -15 Q119 -15 79.5 28 Q40 71 40 157 Q40 228 58.5 291 Q77 354 114 401 Q151 448 206.5 475.5 Q262 503 336 503 Q355 503 384 501 Q413 499 446 493 Q479 487 513.5 476.5 Q548 466 579 450 L588 431 Q583 398 577.5 354.5 Q572 311 566 262.5 Q560 214 554 163.5 Q548 113 543 65.5 Q538 18 533.5 -23.5 Q529 -65 526 -94 L586 -94 L574 -212 L270 -212 L283 -94 Z M269 112 Q282 112 297.5 119.5 Q313 127 328 145 Q343 163 358 192 Q373 221 385 265 L398 361 Q377 369 361.5 370.5 Q346 372 334 372 Q302 372 280 354.5 Q258 337 244 310.5 Q230 284 224 251.5 Q218 219 218 189 Q218 148 232.5 130 Q247 112 269 112 Z " />
<glyph glyph-name="r" unicode="r" horiz-adv-x="520" d="M217 504 Q244 504 260.5 499 Q277 494 286 484.5 Q295 475 298 462 Q301 449 301 433 Q301 422 298.5 401.5 Q296 381 294 364 L298 364 Q314 410 332.5 438 Q351 466 369.5 481 Q388 496 406.5 500.5 Q425 505 443 505 Q485 505 508.5 476.5 Q532 448 538 410 L456 309 Q438 320 421 323.5 Q404 327 390 327 Q345 327 317.5 282.5 Q290 238 273 158 L253 0 L75 0 Q91 124 104.5 220 Q118 316 123 373 Q120 373 108.5 375.5 Q97 378 84 380 Q71 382 59.5 384.5 Q48 387 45 387 Q45 388 46 401.5 Q47 415 48 430.5 Q49 446 50 459 Q51 472 51 473 Q111 492 148.5 498 Q186 504 217 504 Z " />
<glyph glyph-name="s" unicode="s" horiz-adv-x="548" d="M244 -11 Q203 -11 164 -5.5 Q125 0 95 12 Q65 24 46.5 42.5 Q28 61 28 87 Q28 104 39.5 135 Q51 166 74 192 L162 188 L161 116 Q181 109 203 107 Q225 105 242 105 Q256 105 270 107 Q284 109 294.5 113.5 Q305 118 311.5 124.5 Q318 131 318 141 Q318 150 308.5 159 Q299 168 283.5 176.5 Q268 185 248.5 193 Q229 201 210 210 Q184 222 158 233.5 Q132 245 111.5 260 Q91 275 78 294.5 Q65 314 65 341 Q65 380 82.5 411 Q100 442 133 463.5 Q166 485 212.5 497 Q259 509 317 509 Q346 509 380 504.5 Q414 500 443.5 490 Q473 480 493 462.5 Q513 445 513 420 Q513 411 508 397 Q503 383 495.5 367.5 Q488 352 479 337.5 Q470 323 462 313 L375 317 L376 385 Q366 389 350.5 391 Q335 393 321 393 Q298 393 279 386 Q260 379 260 359 Q260 345 278.5 333.5 Q297 322 324.5 310 Q352 298 384.5 284.5 Q417 271 444.5 252.5 Q472 234 490.5 209.5 Q509 185 509 152 Q509 77 440.5 33 Q372 -11 244 -11 Z " />
<glyph glyph-name="t" unicode="t" horiz-adv-x="455" d="M317 639 L300 493 L440 493 Q440 490 438 472.5 Q436 455 433.5 435 Q431 415 429 398 Q427 381 426 378 L287 378 L265 203 Q264 197 263.5 190.5 Q263 184 263 179 Q263 152 275.5 140.5 Q288 129 318 129 Q323 129 333 129.5 Q343 130 356 131.5 Q369 133 382.5 134.5 Q396 136 408 139 L427 17 Q409 10 384.5 4.5 Q360 -1 335 -4.5 Q310 -8 288 -9.5 Q266 -11 253 -11 Q201 -11 167.5 0.5 Q134 12 114 32 Q94 52 86 78.5 Q78 105 78 135 Q78 159 81 180 L105 378 L35 378 L46 478 L132 501 L191 628 L317 639 Z " />
<glyph glyph-name="u" unicode="u" horiz-adv-x="690" d="M225 504 Q271 504 289 484 Q307 464 307 427 Q307 415 302.5 380 Q298 345 292.5 304 Q287 263 282.5 225.5 Q278 188 278 172 Q278 154 285.5 141 Q293 128 314 128 Q327 128 341 136 Q355 144 369 161.5 Q383 179 396 207 Q409 235 420 275 L449 492 L622 492 L573 121 Q592 122 608.5 127 Q625 132 642 138 L676 55 Q655 37 631 23.5 Q607 10 583 1 Q559 -8 536 -12 Q513 -16 495 -16 Q442 -16 422.5 6.5 Q403 29 403 67 Q403 76 403.5 85 Q404 94 404 102 L399 102 Q375 67 350.5 45 Q326 23 301 10.5 Q276 -2 252.5 -7 Q229 -12 207 -12 Q152 -12 120.5 13.5 Q89 39 89 94 Q90 103 89.5 113.5 Q89 124 91 136 Q91 142 93.5 159.5 Q96 177 99 201 Q102 225 105.5 252.5 Q109 280 112.5 304.5 Q116 329 118.5 348 Q121 367 122 375 L39 388 L47 473 Q106 490 149.5 497 Q193 504 225 504 Z " />
<glyph glyph-name="v" unicode="v" horiz-adv-x="643" d="M186 505 Q233 505 252 477.5 Q271 450 277 395 L306 148 L314 148 Q332 169 352 197 Q372 225 389.5 255.5 Q407 286 420.5 318 Q434 350 440 380 L375 370 L358 450 Q403 479 447 495.5 Q491 512 533 512 Q550 512 566.5 508 Q583 504 595.5 494.5 Q608 485 615.5 469 Q623 453 623 429 Q623 395 610 355 Q597 315 575 273.5 Q553 232 523.5 190.5 Q494 149 462 112 Q430 75 396 44 Q362 13 331 -7 L154 -7 L103 363 L39 350 L14 428 Q65 468 109 486.5 Q153 505 186 505 Z " />
<glyph glyph-name="w" unicode="w" horiz-adv-x="901" d="M425 139 Q424 139 423.5 139.5 Q423 140 422 140 Q410 117 394.5 94 Q379 71 364 51.5 Q349 32 335 16.5 Q321 1 312 -6 L139 -6 Q130 85 121.5 178 Q113 271 103 363 Q87 360 71 356 Q55 352 39 349 L14 427 Q66 466 111.5 485 Q157 504 192 504 Q212 504 227 499 Q242 494 252.5 481 Q263 468 269.5 445.5 Q276 423 278 387 Q278 379 279.5 360 Q281 341 282.5 316 Q284 291 286 262.5 Q288 234 289.5 209 Q291 184 292 164.5 Q293 145 293 137 L301 137 Q317 154 333 176 Q349 198 363 221 Q377 244 389 266.5 Q401 289 409 307 Q407 323 406 336 Q405 349 403 365 Q389 362 376 358.5 Q363 355 349 352 L324 430 Q369 465 411.5 484.5 Q454 504 489 504 Q533 504 548.5 480 Q564 456 567 401 L580 138 L587 138 Q604 160 622 189 Q640 218 656 249.5 Q672 281 684.5 314.5 Q697 348 703 380 L647 372 L631 450 Q676 479 714.5 495 Q753 511 798 511 Q813 511 827.5 507 Q842 503 853.5 493.5 Q865 484 872.5 468 Q880 452 880 427 Q880 393 868.5 353.5 Q857 314 837 272.5 Q817 231 790 190 Q763 149 733 112 Q703 75 670.5 44.5 Q638 14 607 -6 L434 -6 L425 139 L425 139 Z " />
<glyph glyph-name="x" unicode="x" horiz-adv-x="622" d="M123 -22 Q119 -22 115.5 -22.5 Q112 -23 107 -23 Q84 2 62 28 Q40 54 17 80 Q17 85 17.5 90.5 Q18 96 18 101 L210 250 Q196 276 183.5 302 Q171 328 157 354 L80 334 Q70 354 61 374 Q52 394 41 414 Q97 464 144.5 483 Q192 502 229 502 Q254 502 270.5 491.5 Q287 481 300.5 462.5 Q314 444 326.5 419 Q339 394 356 364 Q387 399 417 433.5 Q447 468 479 503 L498 503 Q544 455 589 403 L587 385 Q544 351 501 316.5 Q458 282 415 247 L473 133 Q494 138 510.5 145 Q527 152 545 163 L607 89 Q583 56 556.5 35 Q530 14 504.5 2 Q479 -10 456 -14 Q433 -18 417 -18 Q387 -18 367.5 -8.5 Q348 1 332.5 20 Q317 39 303 67.5 Q289 96 270 134 Q234 94 197.5 55 Q161 16 123 -22 Z " />
<glyph glyph-name="y" unicode="y" horiz-adv-x="626" d="M513 507 Q552 507 574.5 481.5 Q597 456 597 395 Q597 329 574 257.5 Q551 186 510.5 116.5 Q470 47 415 -16 Q360 -79 296 -126.5 Q232 -174 161.5 -202 Q91 -230 21 -230 Q4 -230 -18.5 -226 Q-41 -222 -61 -211 Q-81 -200 -95 -180.5 Q-109 -161 -109 -129 Q-109 -124 -109 -119 Q-109 -114 -108 -109 L-42 -70 Q-16 -95 7.5 -102.5 Q31 -110 57 -110 Q97 -110 142.5 -94 Q188 -78 226 -43 Q214 5 200.5 60 Q187 115 172.5 169.5 Q158 224 144.5 273.5 Q131 323 119 360 L47 346 L22 425 Q70 465 116 483 Q162 501 194 501 Q223 501 240.5 491 Q258 481 266 453 Q273 424 283.5 378.5 Q294 333 305.5 283 Q317 233 327 183.5 Q337 134 345 97 Q364 124 379 159.5 Q394 195 404 232.5 Q414 270 419.5 306.5 Q425 343 425 373 Q410 371 395 369 Q380 367 365 365 L348 445 Q391 475 431 491 Q471 507 513 507 Z " />
<glyph glyph-name="z" unicode="z" horiz-adv-x="559" d="M17 90 L298 382 L180 382 L144 297 L54 305 L65 429 Q66 449 74 461.5 Q82 474 93 480.5 Q104 487 116 489.5 Q128 492 137 492 L526 492 L535 408 L249 109 L403 109 L452 210 L532 205 L514 59 Q511 40 502 28.5 Q493 17 481.5 10.5 Q470 4 457.5 2 Q445 0 436 0 L28 0 L17 90 Z " />
<glyph glyph-name="braceleft" unicode="&#x7b;" horiz-adv-x="361" d="M193 -164 Q156 -164 132 -150 Q108 -136 95 -112.5 Q82 -89 78.5 -59.5 Q75 -30 79 1 L97 148 Q103 183 86.5 205.5 Q70 228 35 231 L46 327 Q80 333 102.5 350.5 Q125 368 129 411 L147 547 Q151 578 160.5 606.5 Q170 635 187.5 657 Q205 679 232 691.5 Q259 704 298 704 L409 704 L396 605 L361 605 Q341 605 329.5 598 Q318 591 311 579.5 Q304 568 301.5 553.5 Q299 539 297 524 L280 388 Q275 346 253.5 318.5 Q232 291 192 283 L192 280 Q214 275 227.5 262.5 Q241 250 247.5 234 Q254 218 254.5 199 Q255 180 253 161 L232 -3 Q231 -15 230 -26.5 Q229 -38 232 -47.5 Q235 -57 244 -63 Q253 -69 272 -69 L314 -69 L302 -164 L193 -164 Z " />
<glyph glyph-name="bar" unicode="&#x7c;" horiz-adv-x="357" d="M129 -152 L129 713 L251 713 L251 -152 L129 -152 Z " />
<glyph glyph-name="braceright" unicode="&#x7d;" horiz-adv-x="364" d="M191 704 Q228 704 252 690 Q276 676 289 652.5 Q302 629 305.5 599.5 Q309 570 305 539 L288 415 Q282 380 298.5 357.5 Q315 335 350 332 L339 236 Q305 230 282.5 212.5 Q260 195 256 152 L237 -7 Q233 -39 223.5 -67 Q214 -95 196.5 -117 Q179 -139 152 -151.5 Q125 -164 86 -164 L-25 -164 L-12 -65 L23 -65 Q43 -65 54.5 -58 Q66 -51 73 -39.5 Q80 -28 82.5 -13.5 Q85 1 87 16 L105 175 Q110 217 131.5 244.5 Q153 272 193 280 L193 283 Q170 288 157 300.5 Q144 313 137.5 329 Q131 345 130.5 364 Q130 383 132 402 Q135 422 137.5 439 Q140 456 142 472.5 Q144 489 146.5 506 Q149 523 152 543 Q153 555 154 566.5 Q155 578 152 587.5 Q149 597 140 603 Q131 609 112 609 L70 609 L82 704 L191 704 Z " />
<glyph glyph-name="asciitilde" unicode="&#x7e;" horiz-adv-x="611" d="M425 217 Q392 217 360 224 Q328 231 298 239.5 Q268 248 241.5 255 Q215 262 194 262 L123 216 L69 262 Q103 332 141 359.5 Q179 387 222 387 Q250 387 279.5 380 Q309 373 339 365 Q369 357 397.5 350 Q426 343 453 343 L523 391 L576 345 Q516 217 425 217 Z " />
<glyph glyph-name="endash" unicode="&#x2013;" horiz-adv-x="485" d="M44 204 L57 312 L453 312 L440 204 L44 204 Z " />
<glyph glyph-name="emdash" unicode="&#x2014;" horiz-adv-x="970" d="M60 204 L73 312 L920 312 L907 204 L60 204 Z " />
<glyph glyph-name="quoteleft" unicode="&#x2018;" horiz-adv-x="281" d="M172 415 Q149 415 133 423 Q117 431 106.5 443.5 Q96 456 91.5 473 Q87 490 87 508 Q87 542 101 577 Q115 612 139 643 Q163 674 194 699 Q225 724 259 740 L296 679 Q266 657 247.5 634.5 Q229 612 221 580 Q248 572 260 554.5 Q272 537 272 511 Q272 492 264.5 474.5 Q257 457 244 444 Q231 431 212.5 423 Q194 415 172 415 Z " />
<glyph glyph-name="quoteright" unicode="&#x2019;" horiz-adv-x="281" d="M207 740 Q251 740 270.5 712 Q290 684 290 647 Q290 612 276 577.5 Q262 543 238.5 512 Q215 481 184 456 Q153 431 119 415 L82 475 Q112 498 130.5 520 Q149 542 157 574 Q130 582 118 599 Q106 616 106 642 Q106 681 133 710.5 Q160 740 207 740 Z " />
<glyph glyph-name="quotedblleft" unicode="&#x201c;" horiz-adv-x="472" d="M170 415 Q125 415 105.5 443.5 Q86 472 86 508 Q86 542 100 577 Q114 612 138 643 Q162 674 193 699 Q224 724 258 740 L295 679 Q265 657 246.5 634.5 Q228 612 220 580 Q247 572 259 554.5 Q271 537 271 511 Q271 492 263.5 474.5 Q256 457 243 444 Q230 431 211 423 Q192 415 170 415 Z M371 415 Q326 415 306.5 443.5 Q287 472 287 508 Q287 542 301 577 Q315 612 338.5 642.5 Q362 673 393 698.5 Q424 724 458 740 L495 679 Q465 657 446.5 634.5 Q428 612 420 580 Q447 573 458.5 555 Q470 537 470 511 Q470 492 463 474.5 Q456 457 443 444 Q430 431 411.5 423 Q393 415 371 415 Z " />
<glyph glyph-name="quotedblright" unicode="&#x201d;" horiz-adv-x="472" d="M402 740 Q447 740 466.5 711.5 Q486 683 486 647 Q486 612 472 577.5 Q458 543 434.5 512 Q411 481 380 456 Q349 431 315 415 L278 475 Q307 498 325.5 520 Q344 542 352 574 Q326 582 314 599 Q302 616 302 642 Q302 681 329 710.5 Q356 740 402 740 Z M203 740 Q248 740 267.5 712 Q287 684 287 647 Q287 612 273 577.5 Q259 543 235.5 512 Q212 481 181 456 Q150 431 116 415 L79 475 Q108 498 126.5 520 Q145 542 153 574 Q126 582 114.5 599 Q103 616 103 642 Q103 681 130 710.5 Q157 740 203 740 Z " />
<glyph glyph-name="bullet" unicode="&#x2022;" horiz-adv-x="446" d="M371 271 Q371 240 359 213 Q347 186 327 165.5 Q307 145 279.5 133 Q252 121 222 121 Q192 121 166.5 132 Q141 143 121.5 162.5 Q102 182 91 208.5 Q80 235 80 265 Q80 296 92 323 Q104 350 124 370 Q144 390 171.5 402 Q199 414 229 414 Q259 414 284.5 403 Q310 392 329.5 372.5 Q349 353 360 327 Q371 301 371 271 Z " />
<glyph glyph-name="quotesinglbase" unicode="&#x201a;" horiz-adv-x="297" d="M136 178 Q180 178 200.5 148 Q221 118 220 79 Q219 45 203.5 11.5 Q188 -22 163.5 -51.5 Q139 -81 109 -105 Q79 -129 50 -143 L13 -83 Q42 -61 60.5 -40 Q79 -19 87 13 Q63 18 49.5 36 Q36 54 37 80 Q37 99 44.5 117 Q52 135 64.5 148.5 Q77 162 95 170 Q113 178 136 178 Z " />
<glyph glyph-name="quotedblbase" unicode="&#x201e;" horiz-adv-x="511" d="M148 178 Q192 178 212.5 148 Q233 118 232 79 Q231 45 215.5 11.5 Q200 -22 175.5 -51.5 Q151 -81 121 -105 Q91 -129 62 -143 L24 -83 Q53 -61 72 -40 Q91 -19 99 13 Q75 18 61 36 Q47 54 49 80 Q49 99 56 117 Q63 135 75.5 148.5 Q88 162 106.5 170 Q125 178 148 178 Z M363 178 Q406 178 426.5 148 Q447 118 447 79 Q446 45 430.5 11.5 Q415 -22 390.5 -51.5 Q366 -81 336 -105 Q306 -129 277 -143 L239 -83 Q269 -61 287 -40 Q305 -19 313 13 Q290 18 276.5 36 Q263 54 263 80 Q263 99 270.5 117 Q278 135 291 148.5 Q304 162 322 170 Q340 178 363 178 Z " />
<glyph glyph-name="alpha" unicode="&#x3b1;" horiz-adv-x="657" d="M315 504 Q345 504 376 496.5 Q407 489 436 473 L457 502 L595 495 Q577 382 564 292.5 Q551 203 542 122 Q561 124 576 128.5 Q591 133 609 141 L644 56 Q626 40 604 26.5 Q582 13 558.5 3.5 Q535 -6 511.5 -11.5 Q488 -17 468 -17 Q414 -17 390 3 Q366 23 366 63 Q366 79 371 102 L366 102 Q321 36 276.5 11.5 Q232 -13 183 -13 Q117 -13 78.5 29.5 Q40 72 40 158 Q40 230 57.5 293 Q75 356 109.5 403 Q144 450 195.5 477 Q247 504 315 504 Z M267 111 Q280 111 294.5 117.5 Q309 124 323.5 141.5 Q338 159 353 188.5 Q368 218 382 263 L398 361 Q377 368 359 370 Q341 372 329 372 Q299 372 278 354.5 Q257 337 244 310 Q231 283 225 250.5 Q219 218 219 188 Q219 149 232.5 130 Q246 111 267 111 Z " />
<glyph glyph-name="beta" unicode="&#x3b2;" horiz-adv-x="608" d="M482 403 Q509 394 527 378 Q545 362 555.5 342.5 Q566 323 570.5 300.5 Q575 278 575 256 Q575 197 555.5 147.5 Q536 98 502 62.5 Q468 27 423 7 Q378 -13 326 -13 Q294 -13 263.5 -7 Q233 -1 211 10 Q206 -22 202 -54 Q198 -86 194.5 -114.5 Q191 -143 188.5 -166.5 Q186 -190 184 -206 L1 -206 Q8 -151 15.5 -91 Q23 -31 32.5 44.5 Q42 120 53.5 217 Q65 314 82 443 Q88 498 106 549 Q124 600 157 639 Q190 678 240 701.5 Q290 725 361 725 Q421 725 461 710.5 Q501 696 526 673 Q551 650 561.5 619.5 Q572 589 572 558 Q572 502 546 462.5 Q520 423 482 406 L482 403 Z M349 594 Q322 594 300.5 575 Q279 556 273 508 L227 133 Q245 124 263 120 Q281 116 297 116 Q319 116 338 127 Q357 138 370 157 Q383 176 390.5 202 Q398 228 398 259 Q398 297 378.5 319 Q359 341 314 341 L289 341 L301 445 L327 445 Q356 445 378.5 468.5 Q401 492 401 540 Q401 594 349 594 Z " />
<glyph glyph-name="gamma" unicode="&#x3b3;" horiz-adv-x="640" d="M314 214 Q330 275 352 328.5 Q374 382 402 421.5 Q430 461 464 484 Q498 507 538 507 Q573 507 604 493.5 Q635 480 649 454 L616 377 Q603 381 591 381 Q563 381 537.5 361 Q512 341 488.5 307.5 Q465 274 444 231 Q423 188 405.5 142 Q388 96 373.5 50 Q359 4 349 -34 Q348 -91 348 -135.5 Q348 -180 341 -227 L326 -243 Q257 -247 213.5 -232.5 Q170 -218 145 -201 Q151 -167 164.5 -115.5 Q178 -64 196 -13 L113 363 L49 350 L24 428 Q75 468 124.5 486.5 Q174 505 208 505 Q251 505 271 484 Q291 463 294 405 L309 214 L314 214 Z " />
<glyph glyph-name="delta" unicode="&#x3b4;" horiz-adv-x="600" d="M318 371 Q293 366 275 348.5 Q257 331 245.5 306.5 Q234 282 228.5 252.5 Q223 223 223 196 Q223 161 237.5 138.5 Q252 116 290 116 Q316 116 334 128 Q352 140 363 160.5 Q374 181 379 208 Q384 235 384 264 Q384 303 367.5 331 Q351 359 318 371 Z M376 724 Q405 724 437 720 Q469 716 495.5 706 Q522 696 539.5 679.5 Q557 663 557 638 Q557 623 549.5 593 Q542 563 528 528 L427 533 L427 602 Q418 606 407 607.5 Q396 609 385 609 Q360 609 337.5 599 Q315 589 315 561 Q315 544 330 533.5 Q345 523 361 516 Q409 494 447.5 472 Q486 450 513 421.5 Q540 393 554.5 355 Q569 317 569 265 Q569 211 551.5 161.5 Q534 112 498 74 Q462 36 407.5 13 Q353 -10 280 -10 Q218 -10 173 5.5 Q128 21 98.5 48.5 Q69 76 54.5 114.5 Q40 153 40 200 Q40 285 79 352 Q118 419 194 451 Q165 472 149 496.5 Q133 521 133 553 Q133 635 198.5 679.5 Q264 724 376 724 Z " />
<glyph glyph-name="epsilon" unicode="&#x3b5;" horiz-adv-x="511" d="M303 507 Q394 507 443 488 Q478 474 485 456 Q492 438 491 423 Q491 414 484.5 384 Q478 354 464 323 L363 330 L362 386 Q341 392 321 392 Q291 392 271 378.5 Q251 365 251 336 Q251 316 268.5 307 Q286 298 310 298 L345 298 L339 211 L296 211 Q284 211 271.5 208.5 Q259 206 249 200 Q239 194 232.5 184 Q226 174 226 160 Q226 134 248 123.5 Q270 113 312 113 Q325 113 342 114.5 Q359 116 377.5 118.5 Q396 121 415 124.5 Q434 128 451 133 L481 32 Q458 20 429.5 11.5 Q401 3 370.5 -2.5 Q340 -8 309.5 -10.5 Q279 -13 254 -13 Q198 -13 158 -2.5 Q118 8 91.5 26.5 Q65 45 52.5 70.5 Q40 96 39 127 Q39 171 65 204 Q91 237 136 251 L137 256 Q103 269 85 294 Q67 319 67 350 Q67 380 81 408 Q95 436 123.5 458 Q152 480 196.5 493.5 Q241 507 303 507 Z " />
<glyph glyph-name="zeta" unicode="&#x3b6;" horiz-adv-x="480" d="M196 525 L98 535 L108 655 Q109 675 117 687.5 Q125 700 136 707 Q147 714 159 716.5 Q171 719 180 719 L544 719 L561 617 Q479 556 418 497.5 Q357 439 316.5 387.5 Q276 336 255.5 292.5 Q235 249 232 217 Q230 185 254 163.5 Q278 142 337 120 Q366 109 393 99 Q420 89 440.5 76 Q461 63 473 45 Q485 27 484 2 Q482 -27 465 -55 Q448 -83 423 -109.5 Q398 -136 369.5 -159 Q341 -182 316 -200 L248 -126 Q265 -107 276.5 -93.5 Q288 -80 294.5 -71 Q301 -62 304 -56.5 Q307 -51 307 -47 Q308 -36 298 -29 Q288 -22 265 -16 Q205 3 162 21 Q119 39 92.5 61 Q66 83 54 111.5 Q42 140 44 182 Q45 223 69.5 274 Q94 325 136.5 380.5 Q179 436 236.5 493.5 Q294 551 362 604 L361 608 L232 608 L196 525 Z " />
<glyph glyph-name="eta" unicode="&#x3b7;" horiz-adv-x="666" d="M500 505 Q556 505 585 473 Q614 441 614 378 Q614 371 611 344 Q608 317 604 279.5 Q600 242 594.5 197.5 Q589 153 583.5 109 Q578 65 573.5 25.5 Q569 -14 566 -40 Q584 -39 599 -34 Q614 -29 631 -23 Q632 -24 637 -37 Q642 -50 648 -65 Q654 -80 659 -93 Q664 -106 665 -107 Q642 -126 616.5 -139.5 Q591 -153 565.5 -162 Q540 -171 516.5 -175 Q493 -179 476 -179 Q447 -179 429 -173.5 Q411 -168 400.5 -156.5 Q390 -145 386 -129 Q382 -113 382 -92 Q382 -87 382 -79 Q382 -71 383 -62 Q386 -34 390.5 3.5 Q395 41 400 82 Q405 123 410 163.5 Q415 204 419.5 237.5 Q424 271 426.5 294 Q429 317 429 324 Q429 341 421 354.5 Q413 368 392 368 Q362 368 332 331 Q302 294 281 222 L252 0 L74 0 Q80 49 84.5 84 Q89 119 92 146 Q95 173 98 195.5 Q101 218 103.5 243 Q106 268 109.5 298.5 Q113 329 118 373 L37 387 L43 473 Q103 492 142 498 Q181 504 213 504 Q240 504 256.5 499 Q273 494 281.5 485 Q290 476 293 463 Q296 450 296 434 Q296 410 290 374 L295 374 Q320 414 348.5 439.5 Q377 465 405 479.5 Q433 494 457.5 499.5 Q482 505 500 505 Z " />
<glyph glyph-name="theta" unicode="&#x3b8;" horiz-adv-x="599" d="M357 728 Q419 728 461.5 707.5 Q504 687 530.5 650 Q557 613 568.5 562.5 Q580 512 580 452 Q580 362 563 278 Q546 194 508.5 130 Q471 66 411.5 27.5 Q352 -11 268 -11 Q205 -11 161.5 10.5 Q118 32 91.5 69.5 Q65 107 53.5 157.5 Q42 208 42 266 Q42 359 60.5 443 Q79 527 118 590 Q157 653 216.5 690.5 Q276 728 357 728 Z M224 312 Q219 277 216.5 249.5 Q214 222 214 202 Q214 156 229 134.5 Q244 113 281 113 Q305 113 322.5 128.5 Q340 144 352 171 Q364 198 372 234 Q380 270 385 312 L224 312 Z M397 420 Q403 468 403 500 Q403 546 389.5 572.5 Q376 599 341 599 Q293 599 270.5 552 Q248 505 237 420 L397 420 Z " />
<glyph glyph-name="upsilon" unicode="&#x3c5;" horiz-adv-x="669" d="M223 505 Q268 505 287 487.5 Q306 470 306 435 Q306 429 303.5 408 Q301 387 297.5 358 Q294 329 290 296 Q286 263 282.5 234.5 Q279 206 276.5 185 Q274 164 274 160 Q274 142 282.5 129 Q291 116 312 116 Q339 116 363 143 Q387 170 405.5 210 Q424 250 437 296.5 Q450 343 454 382 L396 375 L381 454 Q426 485 469 499.5 Q512 514 544 514 Q563 514 579.5 510 Q596 506 608.5 496.5 Q621 487 628.5 471 Q636 455 636 432 Q636 398 628.5 351.5 Q621 305 603 255.5 Q585 206 556.5 157.5 Q528 109 486 71 Q444 33 388 10 Q332 -13 259 -13 Q212 -13 181 -2.5 Q150 8 131.5 26.5 Q113 45 105 70.5 Q97 96 97 127 Q97 140 99.5 168 Q102 196 105 231 Q108 266 112 304 Q116 342 119 375 Q115 375 103 377 Q91 379 78 381 Q65 383 53 385 Q41 387 37 388 L44 474 Q104 491 147.5 498 Q191 505 223 505 Z " />
<glyph glyph-name="omega" unicode="&#x3c9;" horiz-adv-x="816" d="M498 333 L481 185 Q480 180 480 171 Q480 146 492 131.5 Q504 117 527 117 Q561 117 584.5 157 Q608 197 608 289 Q608 321 596 346.5 Q584 372 552 388 L597 503 Q650 497 686 478.5 Q722 460 744 432 Q766 404 775.5 367 Q785 330 785 287 Q785 229 770.5 175.5 Q756 122 725 81 Q694 40 645 15.5 Q596 -9 527 -9 Q485 -9 447 7 Q409 23 389 60 L383 60 Q353 23 310.5 7 Q268 -9 226 -9 Q170 -9 133 6.5 Q96 22 74.5 49 Q53 76 44 112.5 Q35 149 35 191 Q35 253 49.5 306.5 Q64 360 94.5 401.5 Q125 443 173.5 469.5 Q222 496 291 503 L314 388 Q284 376 264.5 356 Q245 336 233.5 310 Q222 284 217.5 252.5 Q213 221 213 187 Q213 117 266 117 Q293 117 310 135.5 Q327 154 331 185 L348 333 L498 333 Z " />
<glyph glyph-name="rho" unicode="&#x3c1;" horiz-adv-x="610" d="M295 122 Q311 122 328.5 129 Q346 136 361 153.5 Q376 171 386 201.5 Q396 232 396 279 Q396 309 389.5 328 Q383 347 373 357 Q363 367 350.5 370.5 Q338 374 326 374 Q291 374 266 345 Q241 316 234 261 L218 140 Q235 130 255 126 Q275 122 295 122 Z M42 188 Q53 279 80.5 339.5 Q108 400 147.5 436.5 Q187 473 236 488 Q285 503 340 503 Q401 503 445.5 486.5 Q490 470 519.5 440.5 Q549 411 563 370.5 Q577 330 577 282 Q577 219 560.5 165.5 Q544 112 512.5 73.5 Q481 35 434 13 Q387 -9 326 -9 Q315 -9 299.5 -8 Q284 -7 266.5 -4 Q249 -1 232 3.5 Q215 8 202 14 L175 -207 L-6 -207 L42 188 Z " />
<glyph glyph-name="xi" unicode="&#x3be;" horiz-adv-x="504" d="M369 728 Q384 728 404.5 726.5 Q425 725 447.5 721.5 Q470 718 492 713 Q514 708 534 701 Q527 670 520 640 Q513 610 506 578 Q461 589 424 592.5 Q387 596 366 596 Q318 596 294 572.5 Q270 549 270 513 Q270 481 292 465 Q314 449 355 449 L458 449 Q455 419 451.5 388.5 Q448 358 444 328 L349 328 Q285 328 252.5 296.5 Q220 265 220 221 Q220 187 252 162 Q284 137 359 105 Q429 76 459 49.5 Q489 23 489 -14 Q489 -62 454 -115 Q419 -168 342 -222 Q322 -205 302 -187.5 Q282 -170 262 -153 Q293 -115 305.5 -95 Q318 -75 318 -67 Q318 -53 303.5 -42 Q289 -31 251 -16 Q207 2 168.5 21 Q130 40 101.5 64.5 Q73 89 56 121 Q39 153 39 197 Q39 266 75 317.5 Q111 369 170 391 Q125 411 105.5 446.5 Q86 482 86 522 Q86 562 102.5 599 Q119 636 153.5 664.5 Q188 693 241.5 710.5 Q295 728 369 728 Z " />
<glyph glyph-name="nu" unicode="&#x3bd;" horiz-adv-x="643" d="M186 505 Q233 505 252 477.5 Q271 450 277 395 L306 148 L314 148 Q332 169 352 197 Q372 225 389.5 255.5 Q407 286 420.5 318 Q434 350 440 380 L375 370 L358 450 Q403 479 447 495.5 Q491 512 533 512 Q550 512 566.5 508 Q583 504 595.5 494.5 Q608 485 615.5 469 Q623 453 623 429 Q623 395 610 355 Q597 315 575 273.5 Q553 232 523.5 190.5 Q494 149 462 112 Q430 75 396 44 Q362 13 331 -7 L154 -7 L103 363 L39 350 L14 428 Q65 468 109 486.5 Q153 505 186 505 Z " />
<glyph glyph-name="omicron" unicode="&#x3bf;" horiz-adv-x="605" d="M335 504 Q397 504 442.5 487.5 Q488 471 517.5 442 Q547 413 561 372 Q575 331 575 283 Q575 223 556.5 170 Q538 117 501.5 77 Q465 37 409 13.5 Q353 -10 278 -10 Q216 -10 171 6 Q126 22 97 51 Q68 80 54 119.5 Q40 159 40 207 Q40 268 58.5 322 Q77 376 113.5 416.5 Q150 457 205.5 480.5 Q261 504 335 504 Z M324 375 Q295 375 276 358 Q257 341 245.5 315 Q234 289 229.5 258 Q225 227 225 199 Q225 163 239 139 Q253 115 291 115 Q318 115 336.5 130 Q355 145 366.5 169.5 Q378 194 383 225 Q388 256 388 288 Q388 326 374.5 350.5 Q361 375 324 375 Z " />
<glyph glyph-name="Euro" unicode="&#x20ac;" horiz-adv-x="611" d="M43 354 Q45 369 46.5 383.5 Q48 398 50 413 L100 413 Q109 469 132.5 518 Q156 567 196.5 603 Q237 639 296.5 660 Q356 681 438 681 Q486 681 531.5 673.5 Q577 666 613 654 Q607 609 601.5 566 Q596 523 591 478 L473 478 L480 538 Q470 541 458 542 Q446 543 432 543 Q369 543 331.5 508 Q294 473 280 413 L472 413 L464 354 L43 354 Z M459 313 L452 257 L263 257 L263 245 Q263 187 294 160 Q325 133 399 133 Q408 133 420.5 134 Q433 135 445 137 Q447 151 448.5 163.5 Q450 176 452 189 L570 189 L548 16 Q506 4 457 -3 Q408 -10 363 -10 Q285 -10 231 10.5 Q177 31 144 67 Q111 103 96 151.5 Q81 200 81 257 L31 257 Q33 271 34.5 285 Q36 299 38 313 L459 313 Z " />
<glyph glyph-name="Phi" unicode="&#x3a6;" horiz-adv-x="887" d="M402 520 Q366 516 335.5 499.5 Q305 483 283.5 457.5 Q262 432 250 398 Q238 364 238 325 Q238 268 268.5 232 Q299 196 361 187 L402 520 Z M542 187 Q575 191 604 206.5 Q633 222 655 246.5 Q677 271 689.5 305 Q702 339 702 380 Q702 436 673.5 475 Q645 514 584 520 L542 187 Z M599 649 Q671 644 725 622.5 Q779 601 815 566 Q851 531 868.5 483.5 Q886 436 886 381 Q886 312 860 255 Q834 198 786.5 156 Q739 114 673 89 Q607 64 527 58 L520 0 L338 0 L345 58 Q202 65 128 135.5 Q54 206 54 322 Q54 388 81 445.5 Q108 503 156.5 547.5 Q205 592 271.5 619 Q338 646 417 650 L423 691 L604 691 L599 649 Z " />
<glyph glyph-name="Omega" unicode="&#x3a9;" horiz-adv-x="781" d="M445 705 Q523 705 581 683 Q639 661 676.5 622 Q714 583 732.5 528.5 Q751 474 751 408 Q751 369 744 328.5 Q737 288 722.5 250.5 Q708 213 687.5 179.5 Q667 146 640 121 L738 121 L723 0 L410 0 L425 124 Q481 141 518.5 210 Q556 279 556 408 Q556 489 524.5 530 Q493 571 433 571 Q389 571 357.5 548 Q326 525 305.5 484.5 Q285 444 275 388 Q265 332 265 266 Q265 203 285.5 168.5 Q306 134 333 125 Q324 63 318 0 L2 0 L17 121 L126 121 L129 124 Q99 152 84.5 198.5 Q70 245 70 302 Q70 389 95.5 463 Q121 537 169 591 Q217 645 286.5 675 Q356 705 445 705 Z " />
<glyph glyph-name="Psi" unicode="&#x3a8;" horiz-adv-x="942" d="M576 316 Q602 317 625 324.5 Q648 332 666 348 Q684 364 696.5 388 Q709 412 713 445 L743 691 L982 691 L967 569 L909 569 L898 478 Q891 416 867.5 364 Q844 312 802.5 274 Q761 236 701 214 Q641 192 561 190 L553 122 L623 122 L609 0 L285 0 L300 122 L373 122 L381 189 Q299 192 243.5 213.5 Q188 235 155.5 272.5 Q123 310 112 362 Q101 414 108 477 L120 569 L62 569 L78 691 L319 691 L289 444 Q282 387 309 352.5 Q336 318 396 316 L427 569 L377 569 L392 691 L671 691 L656 569 L608 569 L576 316 Z " />
<glyph glyph-name="sterling" unicode="&#xa3;" horiz-adv-x="611" d="M141 380 L154 461 Q170 575 227.5 631.5 Q285 688 396 688 Q459 688 508 676.5 Q557 665 591 647 L577 478 L457 478 L463 546 Q449 550 436 552.5 Q423 555 406 555 Q367 555 347 530 Q327 505 318 451 L306 380 L436 380 L429 295 L292 295 L286 253 Q279 211 266 175 Q253 139 226 116 L543 116 L534 0 L34 0 L43 115 Q82 145 98 182.5 Q114 220 122 262 L128 295 L70 295 L78 380 L141 380 Z " />
<glyph glyph-name="pi" unicode="&#x3c0;" horiz-adv-x="694" d="M234 0 L54 0 Q66 94 77.5 187.5 Q89 281 100 376 L38 376 L52 490 L671 490 Q668 461 665 433 Q662 405 658 376 L594 376 L563 121 Q581 122 599 126.5 Q617 131 634 138 L668 55 Q647 37 621.5 23.5 Q596 10 570 1.5 Q544 -7 520 -11.5 Q496 -16 478 -16 Q422 -16 399 9 Q376 34 376 75 Q376 81 376 87 Q376 93 377 100 L412 376 L280 376 L234 0 Z " />
<glyph glyph-name="lambda" unicode="&#x3bb;" horiz-adv-x="640" d="M544 122 Q561 124 575 128.5 Q589 133 603 139 L636 55 Q595 19 548.5 2 Q502 -15 468 -15 Q422 -15 400.5 4 Q379 23 372 62 L321 344 L318 344 L168 0 L-12 0 L207 456 L303 456 L277 603 L161 624 L158 717 Q180 724 206 730 Q232 736 256.5 740.5 Q281 745 302 747 Q323 749 334 749 Q364 749 382.5 742.5 Q401 736 412 725 Q423 714 428.5 698 Q434 682 438 663 L544 122 Z " />
<glyph glyph-name="kappa" unicode="&#x3ba;" horiz-adv-x="638" d="M529 505 Q553 505 569.5 496.5 Q586 488 598 475.5 Q610 463 617.5 448 Q625 433 630 420 L570 354 Q557 363 544 368.5 Q531 374 515 374 Q490 374 463.5 356 Q437 338 410 309 Q424 281 440 251.5 Q456 222 471.5 195 Q487 168 501 146.5 Q515 125 525 113 Q544 118 557 125.5 Q570 133 584 141 L631 75 Q607 48 583.5 29.5 Q560 11 538.5 0.5 Q517 -10 498.5 -14.5 Q480 -19 468 -19 Q445 -19 426 -10.5 Q407 -2 388.5 20 Q370 42 349.5 80.5 Q329 119 304 179 Q292 161 284 147 Q276 133 267 113 L250 0 L73 0 L120 377 L33 390 L39 476 Q97 493 143.5 501 Q190 509 222 509 Q273 509 291.5 487.5 Q310 466 310 430 Q310 423 308.5 411 Q307 399 305.5 385.5 Q304 372 301.5 358.5 Q299 345 298 336 L302 335 Q326 368 353.5 399 Q381 430 410 453.5 Q439 477 469 491 Q499 505 529 505 Z " />
<glyph glyph-name="&amp;#xb5;" unicode="&#xb5;" horiz-adv-x="686" d="M222 504 Q247 504 262.5 497 Q278 490 287 479 Q296 468 299.5 452.5 Q303 437 303 421 Q303 409 298.5 374.5 Q294 340 289 300 Q284 260 279.5 223.5 Q275 187 275 172 Q275 154 282 141 Q289 128 311 128 Q324 128 338 136 Q352 144 366 161.5 Q380 179 393 207 Q406 235 416 275 L445 492 L619 492 L570 121 Q589 122 605.5 127 Q622 132 639 138 L672 55 Q651 36 627 22.5 Q603 9 579 0.5 Q555 -8 532.5 -12 Q510 -16 492 -16 Q463 -16 445 -10 Q427 -4 417 8 Q407 20 403.5 37 Q400 54 400 75 Q400 80 400.5 85 Q401 90 401 95 L396 95 Q379 68 362.5 52 Q346 36 329 27.5 Q312 19 293.5 16.5 Q275 14 254 14 L241 -95 L303 -95 L288 -211 L-5 -211 L7 -95 L63 -95 Q70 -30 76 25 Q82 80 88.5 134.5 Q95 189 102.5 246.5 Q110 304 119 374 Q98 377 77.5 380.5 Q57 384 36 388 Q38 409 39.5 430.5 Q41 452 43 473 Q103 490 146.5 497 Q190 504 222 504 Z " />
<glyph glyph-name="&amp;#x3bc;" unicode="&#x3bc;" horiz-adv-x="686" d="M222 504 Q247 504 262.5 497 Q278 490 287 479 Q296 468 299.5 452.5 Q303 437 303 421 Q303 409 298.5 374.5 Q294 340 289 300 Q284 260 279.5 223.5 Q275 187 275 172 Q275 154 282 141 Q289 128 311 128 Q324 128 338 136 Q352 144 366 161.5 Q380 179 393 207 Q406 235 416 275 L445 492 L619 492 L570 121 Q589 122 605.5 127 Q622 132 639 138 L672 55 Q651 36 627 22.5 Q603 9 579 0.5 Q555 -8 532.5 -12 Q510 -16 492 -16 Q463 -16 445 -10 Q427 -4 417 8 Q407 20 403.5 37 Q400 54 400 75 Q400 80 400.5 85 Q401 90 401 95 L396 95 Q379 68 362.5 52 Q346 36 329 27.5 Q312 19 293.5 16.5 Q275 14 254 14 L241 -95 L303 -95 L288 -211 L-5 -211 L7 -95 L63 -95 Q70 -30 76 25 Q82 80 88.5 134.5 Q95 189 102.5 246.5 Q110 304 119 374 Q98 377 77.5 380.5 Q57 384 36 388 Q38 409 39.5 430.5 Q41 452 43 473 Q103 490 146.5 497 Q190 504 222 504 Z " />
<glyph glyph-name="phi" unicode="&#x3c6;" horiz-adv-x="804" d="M567 504 Q664 504 717.5 445.5 Q771 387 771 286 Q771 226 750.5 173 Q730 120 689.5 80 Q649 40 590 16 Q531 -8 454 -10 L432 -207 L259 -207 L283 -9 Q210 -4 163 17 Q116 38 88.5 68.5 Q61 99 50.5 136.5 Q40 174 40 212 Q40 254 51.5 299.5 Q63 345 88.5 386 Q114 427 155 460 Q196 493 255 509 Q256 506 264.5 490.5 Q273 475 282 457 Q291 439 299 424 Q307 409 308 406 Q264 381 239.5 331.5 Q215 282 215 218 Q215 171 235.5 144 Q256 117 296 112 Q298 125 300.5 144 Q303 163 305.5 182.5 Q308 202 310.5 220 Q313 238 315 249 Q322 305 340 352 Q358 399 388.5 432.5 Q419 466 463 485 Q507 504 567 504 Z M550 376 Q544 376 536 373 Q528 370 520 362 Q512 354 505 338.5 Q498 323 494 299 Q493 295 489.5 268 Q486 241 482 209 Q478 177 474 148.5 Q470 120 469 114 Q527 117 560 164.5 Q593 212 593 302 Q593 334 582 355 Q571 376 550 376 Z " />
<glyph glyph-name="chi" unicode="&#x3c7;" horiz-adv-x="622" d="M123 -22 Q119 -22 115.5 -22.5 Q112 -23 107 -23 Q84 2 62 28 Q40 54 17 80 Q17 85 17.5 90.5 Q18 96 18 101 L210 250 Q196 276 183.5 302 Q171 328 157 354 L80 334 Q70 354 61 374 Q52 394 41 414 Q97 464 144.5 483 Q192 502 229 502 Q254 502 270.5 491.5 Q287 481 300.5 462.5 Q314 444 326.5 419 Q339 394 356 364 Q387 399 417 433.5 Q447 468 479 503 L498 503 Q544 455 589 403 L587 385 Q544 351 501 316.5 Q458 282 415 247 L473 133 Q494 138 510.5 145 Q527 152 545 163 L607 89 Q583 56 556.5 35 Q530 14 504.5 2 Q479 -10 456 -14 Q433 -18 417 -18 Q387 -18 367.5 -8.5 Q348 1 332.5 20 Q317 39 303 67.5 Q289 96 270 134 Q234 94 197.5 55 Q161 16 123 -22 Z " />
<glyph glyph-name="psi" unicode="&#x3c8;" horiz-adv-x="867" d="M472 -94 L543 -94 L529 -210 L230 -210 L246 -94 L306 -94 Q308 -71 311 -49 Q314 -27 317 -5 Q202 10 139 68.5 Q76 127 76 216 Q76 242 81.5 282.5 Q87 323 92 370 L27 383 Q29 405 30.5 426 Q32 447 34 469 Q91 486 128 493 Q165 500 196 500 Q245 500 260 479.5 Q275 459 275 420 Q275 413 273.5 397 Q272 381 269.5 361 Q267 341 264 319.5 Q261 298 258.5 279 Q256 260 254.5 246 Q253 232 253 228 Q253 211 256.5 194 Q260 177 269 163 Q278 149 293.5 138 Q309 127 332 121 Q348 237 362.5 352.5 Q377 468 392 584 Q371 587 350.5 590.5 Q330 594 309 598 L315 684 Q374 701 412 707.5 Q450 714 480 714 Q526 714 545 695 Q564 676 564 638 Q564 622 557.5 568.5 Q551 515 542 441 Q533 367 521.5 282 Q510 197 500 119 Q542 125 572 150 Q602 175 621 211 Q640 247 650 289.5 Q660 332 662 371 L614 365 Q611 385 606.5 406 Q602 427 598 448 Q634 474 676.5 490 Q719 506 751 506 Q796 506 814 479.5 Q832 453 832 409 Q832 356 816 289.5 Q800 223 760.5 161.5 Q721 100 653.5 53.5 Q586 7 484 -6 L484 -7 L472 -94 Z " />
<glyph glyph-name="sigma" unicode="&#x3c3;" horiz-adv-x="621" d="M528 369 Q545 351 553.5 322 Q562 293 562 263 Q562 206 542 156.5 Q522 107 484.5 70.5 Q447 34 393 13 Q339 -8 270 -8 Q208 -8 163 7.5 Q118 23 89 51.5 Q60 80 46 119 Q32 158 32 206 Q32 266 52 318 Q72 370 110.5 408.5 Q149 447 205.5 469.5 Q262 492 336 492 L628 492 L614 376 L533 376 L528 369 Z M314 367 Q287 367 268 352.5 Q249 338 238 314.5 Q227 291 222 262 Q217 233 217 203 Q217 160 232 137 Q247 114 284 114 Q332 114 355.5 161 Q379 208 379 280 Q379 318 365.5 342.5 Q352 367 314 367 Z " />
<glyph glyph-name="tau" unicode="&#x3c4;" horiz-adv-x="479" d="M311 376 L290 203 Q289 197 289 191 Q289 185 289 179 Q289 155 300.5 142 Q312 129 344 129 Q352 129 380.5 131 Q409 133 435 138 Q436 132 438.5 114.5 Q441 97 444 77.5 Q447 58 449.5 40.5 Q452 23 453 17 Q435 10 410.5 5 Q386 0 361 -3.5 Q336 -7 314 -8.5 Q292 -10 278 -10 Q227 -10 193 1.5 Q159 13 139 33 Q119 53 111 79.5 Q103 106 103 136 Q103 156 106 174 L129 376 L29 376 L44 493 L461 493 L447 376 L311 376 Z " />
<glyph glyph-name="iota" unicode="&#x3b9;" horiz-adv-x="405" d="M230 505 Q282 505 299.5 487 Q317 469 317 437 Q317 428 314.5 407 Q312 386 308.5 358 Q305 330 300.5 297 Q296 264 291.5 232 Q287 200 283 171 Q279 142 277 122 Q295 123 314 127.5 Q333 132 349 139 L383 55 Q363 37 338 23.5 Q313 10 287.5 0.5 Q262 -9 238 -13.5 Q214 -18 196 -18 Q135 -18 113 7.5 Q91 33 91 75 Q91 82 91.5 88.5 Q92 95 93 103 L129 375 L49 388 L54 474 Q114 491 157.5 498 Q201 505 230 505 Z " />
<glyph glyph-name="Alpha" unicode="&#x391;" horiz-adv-x="770" d="M492 192 L273 192 L242 122 L300 122 L286 0 L-6 0 L8 122 L62 122 L336 691 L566 691 L688 122 L741 122 L726 0 L435 0 L449 122 L506 122 L492 192 Z M378 427 L325 308 L472 308 L451 423 L432 543 L428 543 L378 427 Z " />
<glyph glyph-name="Beta" unicode="&#x392;" horiz-adv-x="720" d="M591 362 Q620 351 637.5 334 Q655 317 665 297.5 Q675 278 678 258 Q681 238 681 220 Q681 168 662.5 127.5 Q644 87 611 58.5 Q578 30 532.5 15 Q487 0 433 0 L17 0 Q18 3 20 21.5 Q22 40 24.5 61 Q27 82 29.5 100 Q32 118 32 122 L103 122 Q105 138 109 173 Q113 208 118.5 252.5 Q124 297 130 345.5 Q136 394 141 438.5 Q146 483 150.5 517.5 Q155 552 157 569 L87 569 L103 690 L507 690 Q606 690 651.5 645 Q697 600 697 527 Q697 504 692.5 481 Q688 458 676 436.5 Q664 415 643.5 396.5 Q623 378 592 364 L591 362 Z M311 297 Q309 286 306.5 261 Q304 236 300.5 209 Q297 182 294 157.5 Q291 133 290 122 L383 122 Q431 122 457.5 149 Q484 176 484 221 Q484 252 465 274.5 Q446 297 405 297 L311 297 Z M345 569 Q343 559 340.5 536.5 Q338 514 335 489 Q332 464 329 441.5 Q326 419 325 409 L409 409 Q451 409 476 434.5 Q501 460 501 501 Q501 532 484 550.5 Q467 569 429 569 L345 569 Z " />
<glyph glyph-name="Gamma" unicode="&#x393;" horiz-adv-x="661" d="M18 0 L32 122 L103 122 L158 569 L88 569 L103 690 L706 690 L677 455 L549 455 L563 569 L345 569 L290 122 L379 122 L364 0 L18 0 Z " />
<glyph glyph-name="Epsilon" unicode="&#x395;" horiz-adv-x="692" d="M18 0 L32 122 L102 122 L156 569 L88 569 L103 690 L701 690 L672 455 L544 455 L558 569 L344 569 L324 411 L506 415 L493 295 L310 298 L289 122 L520 122 L535 244 L664 244 L635 0 L18 0 Z " />
<glyph glyph-name="Zeta" unicode="&#x396;" horiz-adv-x="652" d="M257 122 L487 122 L503 257 L631 257 L600 0 L2 0 L17 120 L410 570 L223 570 L208 452 L80 452 L110 691 L667 691 L653 575 L257 122 Z " />
<glyph glyph-name="Eta" unicode="&#x397;" horiz-adv-x="830" d="M445 0 L460 122 L520 122 L541 298 L312 298 L291 122 L352 122 L337 0 L18 0 L32 122 L103 122 L158 569 L87 569 L102 691 L421 691 L406 569 L345 569 L326 413 L555 413 L575 569 L514 569 L529 691 L848 691 L833 569 L762 569 L708 122 L778 122 L764 0 L445 0 Z " />
<glyph glyph-name="Theta" unicode="&#x398;" horiz-adv-x="769" d="M310 410 L508 412 L493 296 L296 297 L310 410 Z M438 705 Q517 705 574 682 Q631 659 668 618.5 Q705 578 722.5 521.5 Q740 465 740 399 Q740 310 715 235 Q690 160 642.5 105 Q595 50 525.5 19.5 Q456 -11 366 -11 Q288 -11 231 11 Q174 33 136.5 72.5 Q99 112 81 167 Q63 222 63 289 Q63 375 86.5 451 Q110 527 157.5 583.5 Q205 640 275 672.5 Q345 705 438 705 Z M428 572 Q381 572 349 547.5 Q317 523 297 482.5 Q277 442 268.5 390.5 Q260 339 260 285 Q260 207 287 164 Q314 121 378 121 Q422 121 453 143 Q484 165 503.5 203.5 Q523 242 532 294.5 Q541 347 541 408 Q541 443 535.5 473 Q530 503 517.5 525 Q505 547 483 559.5 Q461 572 428 572 Z " />
<glyph glyph-name="Iota" unicode="&#x399;" horiz-adv-x="461" d="M43 0 L58 122 L128 122 L182 569 L112 569 L128 691 L452 691 L437 569 L369 569 L314 122 L382 122 L368 0 L43 0 Z " />
<glyph glyph-name="Kappa" unicode="&#x39a;" horiz-adv-x="763" d="M518 420 L683 123 L737 123 L723 0 L412 0 L427 123 L478 123 L375 310 L300 251 L284 122 L344 122 L329 0 L18 0 L32 122 L103 122 L157 569 L87 569 L102 689 L418 689 L403 569 L338 569 L319 407 L521 569 L471 569 L485 689 L785 689 L770 569 L707 569 L518 420 Z " />
<glyph glyph-name="Lambda" unicode="&#x39b;" horiz-adv-x="758" d="M441 419 L422 542 L419 542 L367 424 L231 122 L291 122 L277 0 L-14 0 L1 122 L54 122 Q60 135 81 179 Q102 223 130.5 281.5 Q159 340 191 406 Q223 472 251.5 531 Q280 590 301 633.5 Q322 677 328 691 L561 691 L683 122 L736 122 L721 0 L425 0 L440 122 L495 122 L441 419 Z " />
<glyph glyph-name="Mu" unicode="&#x39c;" horiz-adv-x="1012" d="M524 317 Q532 334 541 350.5 Q550 367 559 384 Q580 425 600.5 464.5 Q621 504 643 544 Q649 556 660 575.5 Q671 595 682 617 Q693 639 703.5 658.5 Q714 678 720 690 L1029 690 L1013 569 L951 569 Q937 457 923.5 345 Q910 233 896 121 L958 121 L944 0 L645 0 L659 121 L715 121 L755 451 L752 451 Q744 435 736 419.5 Q728 404 719 388 Q705 359 690 331.5 Q675 304 660 276 L576 120 L425 120 Q412 156 400 193 Q388 230 376 266 L319 451 L316 451 L276 121 L337 121 L322 0 L17 0 L31 121 L103 121 L157 569 L86 569 L101 690 L405 690 L453 537 Q464 502 474 467.5 Q484 433 495 398 L519 317 L524 317 Z " />
<glyph glyph-name="Nu" unicode="&#x39d;" horiz-adv-x="854" d="M578 263 L616 569 L550 569 L566 690 L870 690 Q866 660 862 629.5 Q858 599 855 569 L789 569 L720 0 L537 0 Q508 57 480 113 Q452 169 423 226 Q417 238 406.5 260 Q396 282 384.5 306 Q373 330 362 352 Q351 374 345 386 Q337 403 329 419 Q321 435 313 452 L311 452 Q300 369 290 286.5 Q280 204 270 121 L336 121 Q332 90 328.5 60 Q325 30 322 0 L17 0 L31 121 L99 121 Q112 233 125.5 344.5 Q139 456 153 569 L86 569 L101 690 L368 690 L460 503 Q480 462 499.5 420 Q519 378 540 333 L574 263 L578 263 Z " />
<glyph glyph-name="Xi" unicode="&#x39e;" horiz-adv-x="668" d="M213 546 L202 461 L74 461 L103 690 L684 690 L656 461 L527 461 L537 546 L213 546 Z M500 145 L513 246 L641 246 L612 0 L10 0 L40 246 L169 246 L156 145 L500 145 Z M204 299 L218 413 L503 415 L488 297 L204 299 Z " />
<glyph glyph-name="Omicron" unicode="&#x39f;" horiz-adv-x="769" d="M438 705 Q517 705 574 682 Q631 659 668 618.5 Q705 578 722.5 521.5 Q740 465 740 399 Q740 310 715 235 Q690 160 642.5 105 Q595 50 525.5 19.5 Q456 -11 366 -11 Q288 -11 231 11 Q174 33 136.5 72.5 Q99 112 81 167 Q63 222 63 289 Q63 375 86.5 451 Q110 527 157.5 583.5 Q205 640 275 672.5 Q345 705 438 705 Z M428 572 Q381 572 349 547.5 Q317 523 297 482.5 Q277 442 268.5 390.5 Q260 339 260 285 Q260 207 287 164 Q314 121 378 121 Q422 121 453 143 Q484 165 503.5 203.5 Q523 242 532 294.5 Q541 347 541 408 Q541 443 535.5 473 Q530 503 517.5 525 Q505 547 483 559.5 Q461 572 428 572 Z " />
<glyph glyph-name="Pi" unicode="&#x3a0;" horiz-adv-x="830" d="M445 0 L460 122 L520 122 L575 569 L345 569 L291 122 L352 122 L337 0 L18 0 L32 122 L103 122 L158 569 L86 569 L102 691 L848 691 L832 569 L762 569 L708 122 L778 122 L764 0 L445 0 Z " />
<glyph glyph-name="Rho" unicode="&#x3a1;" horiz-adv-x="665" d="M452 691 Q513 691 555 677 Q597 663 623.5 637.5 Q650 612 661.5 576 Q673 540 673 497 Q673 449 656.5 404.5 Q640 360 607.5 326.5 Q575 293 526 273 Q477 253 412 253 L304 253 L287 122 L375 122 L361 0 L18 0 L32 122 L100 122 L155 569 L87 569 L102 691 L452 691 Z M342 569 L318 370 L373 370 Q418 370 446 401.5 Q474 433 474 486 Q474 569 395 569 L342 569 Z " />
<glyph glyph-name="Delta" unicode="&#x394;" horiz-adv-x="745" d="M689 0 L5 0 L19 113 L326 691 L546 691 L701 107 L689 0 Z M454 399 L419 551 L416 551 L342 398 L202 122 L517 122 L454 399 Z " />
<glyph glyph-name="Sigma" unicode="&#x3a3;" horiz-adv-x="666" d="M435 374 L432 343 L251 122 L496 122 L510 237 L638 237 L610 0 L0 0 L13 104 L223 359 L80 592 L93 691 L677 691 L648 453 L521 453 L536 569 L315 569 L435 374 Z " />
<glyph glyph-name="dagger" unicode="&#x2020;" horiz-adv-x="500" d="M343 384 L285 -77 L141 -77 L197 384 L62 384 L77 503 L211 503 L236 697 L381 697 L357 503 L497 503 L483 384 L343 384 Z " />
<glyph glyph-name="ellipsis" unicode="&#x2026;" horiz-adv-x="830" d="M144 177 Q179 177 201 152.5 Q223 128 223 93 Q223 71 214.5 52 Q206 33 191.5 18.5 Q177 4 158.5 -4 Q140 -12 121 -12 Q86 -12 63 13 Q40 38 40 73 Q40 95 49 114.5 Q58 134 72.5 147.5 Q87 161 105.5 169 Q124 177 144 177 Z M386 177 Q421 177 443.5 152.5 Q466 128 466 92 Q466 70 457 51 Q448 32 434 18 Q420 4 401 -4 Q382 -12 363 -12 Q328 -12 305 13 Q282 38 282 73 Q282 95 291 114.5 Q300 134 314.5 147.5 Q329 161 347.5 169 Q366 177 386 177 Z M635 177 Q670 177 692 152.5 Q714 128 714 93 Q714 71 705.5 52 Q697 33 682.5 18.5 Q668 4 649.5 -4 Q631 -12 612 -12 Q577 -12 554 13 Q531 38 531 73 Q531 95 540 114.5 Q549 134 563.5 147.5 Q578 161 596.5 169 Q615 177 635 177 Z " />
<glyph glyph-name="registered" unicode="&#xae;" horiz-adv-x="627" d="M605 461 Q605 405 585.5 356.5 Q566 308 530.5 271.5 Q495 235 446 214 Q397 193 338 193 Q280 193 230.5 214 Q181 235 145 271.5 Q109 308 89 356.5 Q69 405 69 461 Q69 517 89 566 Q109 615 144.5 651.5 Q180 688 229.5 709 Q279 730 338 730 Q397 730 446 709 Q495 688 530.5 651.5 Q566 615 585.5 566 Q605 517 605 461 Z M551 461 Q551 505 535.5 544 Q520 583 492 612 Q464 641 424.5 658 Q385 675 338 675 Q291 675 252 658 Q213 641 184.5 612 Q156 583 140.5 544 Q125 505 125 461 Q125 417 140 378.5 Q155 340 183 311 Q211 282 250.5 265 Q290 248 338 248 Q389 248 428.5 265 Q468 282 495.5 311 Q523 340 537 378.5 Q551 417 551 461 Z M383 527 Q383 546 372.5 554 Q362 562 347 562 L317 562 L317 490 L344 490 Q361 490 372 497.5 Q383 505 383 527 Z M317 438 L317 378 L344 378 L344 326 L207 326 L207 378 L236 378 L236 561 L207 561 L207 614 L367 614 Q395 614 414.5 607 Q434 600 446 588 Q458 576 463 560 Q468 544 468 526 Q468 507 457 485 Q446 463 423 452 L459 377 Q460 377 465 376.5 Q470 376 476 375.5 Q482 375 487 374 Q492 373 493 373 L495 327 Q482 323 464 321 Q446 319 436 319 Q414 319 404 328.5 Q394 338 384 358 L347 438 L317 438 Z " />
<glyph glyph-name="trademark" unicode="&#x2122;" horiz-adv-x="931" d="M680 510 L714 594 Q717 599 723 613 Q729 627 735.5 642.5 Q742 658 748 671.5 Q754 685 757 691 L931 691 L931 622 L896 622 L896 397 L931 397 L931 329 L761 329 L761 397 L792 397 L792 555 L790 555 L759 483 L723 398 L636 398 L595 484 L564 554 L563 554 L563 397 L597 397 L597 329 L423 329 L423 397 L463 397 L463 622 L423 622 L423 691 L596 691 L640 593 L677 510 L680 510 Z M132 329 L132 397 L175 397 L175 622 L126 622 L126 560 L54 560 L54 691 L406 691 L406 560 L333 560 L333 622 L283 622 L283 397 L326 397 L326 329 L132 329 Z " />
<glyph glyph-name="copyright" unicode="&#xa9;" horiz-adv-x="872" d="M836 328 Q836 247 805.5 176 Q775 105 722 52 Q669 -1 598.5 -31.5 Q528 -62 449 -62 Q365 -62 294 -31.5 Q223 -1 170.5 52 Q118 105 88.5 176 Q59 247 59 328 Q59 409 89.5 480 Q120 551 173 604 Q226 657 297 687.5 Q368 718 449 718 Q530 718 601 687.5 Q672 657 724 604 Q776 551 806 480 Q836 409 836 328 Z M764 328 Q764 393 739.5 451 Q715 509 672.5 552 Q630 595 572.5 620 Q515 645 449 645 Q383 645 325.5 620 Q268 595 225 552 Q182 509 157 451 Q132 393 132 328 Q132 263 156 205 Q180 147 222.5 104 Q265 61 323 36 Q381 11 449 11 Q514 11 571.5 36 Q629 61 671.5 104 Q714 147 739 205 Q764 263 764 328 Z M361 324 Q361 283 369.5 256 Q378 229 394.5 212.5 Q411 196 435.5 189.5 Q460 183 491 183 Q499 183 512 184 Q525 185 539.5 186.5 Q554 188 569 190 Q584 192 595 195 L613 109 Q581 96 538 90 Q495 84 457 84 Q388 84 343.5 103.5 Q299 123 273 155.5 Q247 188 237 230.5 Q227 273 227 320 Q227 363 238 406.5 Q249 450 277 485 Q305 520 352.5 541.5 Q400 563 473 563 Q510 563 540.5 557.5 Q571 552 599 544 L599 401 L517 401 L517 464 Q509 466 497 467 Q485 468 477 468 Q416 468 388.5 430 Q361 392 361 324 Z " />
<glyph glyph-name="sigma1" unicode="&#x3c2;" horiz-adv-x="496" d="M36 213 Q36 261 49.5 312.5 Q63 364 96.5 407 Q130 450 185.5 477.5 Q241 505 325 505 Q343 505 362 503.5 Q381 502 398.5 500 Q416 498 430.5 494.5 Q445 491 453 488 Q480 477 491.5 462.5 Q503 448 502 427 Q502 416 499 399.5 Q496 383 491 364 Q486 345 480 326.5 Q474 308 467 292 L366 296 L367 374 Q361 376 351 376.5 Q341 377 333 377 Q282 377 252 337.5 Q222 298 222 231 Q222 214 227 198.5 Q232 183 244 168.5 Q256 154 277 139.5 Q298 125 330 109 Q390 79 416 53 Q442 27 442 -5 Q442 -26 431 -52 Q420 -78 400 -105.5 Q380 -133 353 -160.5 Q326 -188 293 -213 L208 -139 Q224 -120 233.5 -106.5 Q243 -93 248.5 -83.5 Q254 -74 256 -68 Q258 -62 258 -58 Q258 -47 247.5 -38 Q237 -29 213 -18 Q169 3 135.5 25 Q102 47 80 74.5 Q58 102 47 135.5 Q36 169 36 213 Z " />
<glyph glyph-name="yen" unicode="&#xa5;" horiz-adv-x="611" d="M73 314 L80 373 L159 373 L100 551 L57 551 L72 670 L332 670 L317 551 L269 551 L324 360 L327 360 L427 551 L378 551 L392 670 L651 670 L637 551 L593 551 L490 373 L573 373 L565 314 L73 314 Z M559 272 L553 212 L393 212 L380 117 L448 117 L434 0 L121 0 L135 117 L203 117 L214 212 L60 212 L68 272 L559 272 Z " />
<glyph glyph-name="section" unicode="&#xa7;" horiz-adv-x="553" d="M344 605 Q311 605 292 589 Q273 573 273 554 Q273 538 283.5 525 Q294 512 309 501 Q324 490 342 481 Q360 472 375 466 Q398 456 421.5 444 Q445 432 464.5 415.5 Q484 399 496 376 Q508 353 508 322 Q508 280 486.5 247.5 Q465 215 428 187 Q459 164 473.5 132.5 Q488 101 488 68 Q488 30 471 -2 Q454 -34 421 -57 Q388 -80 341 -93 Q294 -106 234 -106 Q183 -106 132.5 -97 Q82 -88 47 -74 L66 77 L178 77 L169 9 Q188 3 205 1 Q222 -1 235 -1 Q283 -1 306 17 Q329 35 329 61 Q329 79 309.5 94.5 Q290 110 239 130 Q207 143 178 156.5 Q149 170 126.5 188 Q104 206 90.5 230 Q77 254 77 287 Q77 338 99.5 370 Q122 402 157 427 Q137 445 124.5 468.5 Q112 492 112 527 Q112 573 131 607 Q150 641 183 663 Q216 685 260 695.5 Q304 706 353 706 Q405 706 453.5 696 Q502 686 527 672 L509 524 L396 524 L404 597 Q384 603 369.5 604 Q355 605 344 605 Z M253 377 Q234 364 225 347 Q216 330 216 313 Q216 299 225 289.5 Q234 280 250 271.5 Q266 263 288 254 Q310 245 336 234 Q353 247 362.5 261.5 Q372 276 370 298 Q368 322 334.5 339.5 Q301 357 253 377 Z " />
<glyph glyph-name="guillemotright" unicode="&#xbb;" horiz-adv-x="527" d="M493 185 L295 -11 L228 45 L348 204 L265 367 L346 418 L498 223 L493 185 Z M283 185 L86 -11 L17 45 L138 204 L55 367 L135 418 L288 223 L283 185 Z " />
<glyph glyph-name="Aring" unicode="&#xc5;" horiz-adv-x="770" d="M492 192 L273 192 L242 122 L300 122 L286 0 L-6 0 L8 122 L62 122 L336 691 L566 691 L688 122 L741 122 L726 0 L435 0 L449 122 L506 122 L492 192 Z M378 427 L325 308 L472 308 L451 423 L432 543 L428 543 L378 427 Z M448 731 Q420 731 397 741.5 Q374 752 358.5 770 Q343 788 335.5 812 Q328 836 331 863 Q334 890 347.5 914 Q361 938 381 956.5 Q401 975 426.5 985.5 Q452 996 481 996 Q509 996 531.5 985.5 Q554 975 568.5 957 Q583 939 589.5 914.5 Q596 890 593 863 Q590 835 576.5 811 Q563 787 543.5 769 Q524 751 499.5 741 Q475 731 448 731 Z M471 915 Q448 915 430.5 899 Q413 883 411 860 Q408 840 420 823.5 Q432 807 458 807 Q481 807 496 823.5 Q511 840 513 860 Q516 883 505 899 Q494 915 471 915 Z " />
<glyph glyph-name="degree" unicode="&#xb0;" horiz-adv-x="387" d="M375 539 Q373 505 359.5 476.5 Q346 448 323 427 Q300 406 270 394.5 Q240 383 207 383 Q174 383 146.5 394 Q119 405 99.5 425.5 Q80 446 70.5 474.5 Q61 503 64 539 Q72 614 119.5 654 Q167 694 234 694 Q267 694 293.5 682.5 Q320 671 339 650.5 Q358 630 367 601.5 Q376 573 375 539 Z M290 538 Q292 571 273.5 591.5 Q255 612 223 612 Q192 612 171.5 591 Q151 570 149 538 Q146 506 164 486 Q182 466 213 466 Q244 466 266 484.5 Q288 503 290 538 Z " />
<glyph glyph-name="germandbls" unicode="&#xdf;" horiz-adv-x="708" d="M260 96 Q252 24 239.5 -35 Q227 -94 200.5 -135.5 Q174 -177 129.5 -199.5 Q85 -222 13 -222 Q-13 -222 -47 -217 Q-81 -212 -119 -200 L-91 -85 Q-65 -90 -50 -91.5 Q-35 -93 -18 -93 Q5 -93 21 -86 Q37 -79 48 -60 Q59 -41 67 -8.5 Q75 24 82 75 Q89 126 97 198 Q105 270 116 367 L52 366 Q54 389 57.5 413 Q61 437 63 460 L124 460 Q126 472 127.5 496.5 Q129 521 136.5 551.5 Q144 582 159.5 613.5 Q175 645 205.5 671.5 Q236 698 284 714.5 Q332 731 404 731 Q465 731 505 716.5 Q545 702 568 681 Q591 660 600 635.5 Q609 611 609 590 Q609 553 590 524.5 Q571 496 548.5 474 Q526 452 507.5 435 Q489 418 489 404 Q489 390 502 376 Q515 362 534 345.5 Q553 329 576 309.5 Q599 290 618 267 Q637 244 650 217 Q663 190 663 157 Q663 117 646 85.5 Q629 54 600 32 Q571 10 531 -1.5 Q491 -13 445 -13 Q407 -13 369 -7 Q331 -1 296 9 L329 123 Q354 115 376.5 111 Q399 107 419 107 Q443 107 460.5 117 Q478 127 478 149 Q478 177 456.5 202.5 Q435 228 408.5 256 Q382 284 360.5 316 Q339 348 339 389 Q339 427 356 451.5 Q373 476 394 494.5 Q415 513 432 528.5 Q449 544 449 565 Q449 582 436 594.5 Q423 607 392 607 Q350 607 330.5 581 Q311 555 307 520 L260 96 Z " />
<glyph glyph-name="guillemotleft" unicode="&#xab;" horiz-adv-x="527" d="M40 223 L241 418 L308 367 L184 204 L266 45 L185 -11 L35 185 L40 223 Z M251 223 L451 418 L518 367 L395 204 L476 45 L396 -11 L246 185 L251 223 Z " />
<glyph glyph-name="divide" unicode="&#xf7;" horiz-adv-x="611" d="M415 491 Q413 474 405.5 459.5 Q398 445 386.5 434 Q375 423 360.5 416.5 Q346 410 330 410 Q298 410 279 433 Q260 456 263 488 Q264 504 272 518.5 Q280 533 292 543.5 Q304 554 318.5 560.5 Q333 567 349 567 Q380 567 399.5 545 Q419 523 415 491 Z M97 254 L109 358 L537 358 L525 254 L97 254 Z M371 126 Q367 93 342.5 69 Q318 45 286 45 Q254 45 234.5 68 Q215 91 218 123 Q222 156 247 179 Q272 202 304 202 Q336 202 355 180 Q374 158 371 126 Z " />
<glyph glyph-name="circumflex" unicode="&#x2c6;" horiz-adv-x="587" d="M498 535 L343 637 L166 537 L130 587 L300 742 L412 742 L547 587 L498 535 Z " />
<glyph glyph-name="perthousand" unicode="&#x2030;" horiz-adv-x="1328" d="M250 674 Q296 674 327.5 661 Q359 648 378 625.5 Q397 603 405.5 572 Q414 541 414 505 Q414 457 402.5 412.5 Q391 368 366 334.5 Q341 301 301 281 Q261 261 204 261 Q158 261 127 273.5 Q96 286 76.5 308.5 Q57 331 48.5 361.5 Q40 392 40 428 Q40 474 50.5 518 Q61 562 86 596.5 Q111 631 151 652.5 Q191 674 250 674 Z M243 582 Q219 582 204 565.5 Q189 549 180.5 524.5 Q172 500 169 471.5 Q166 443 166 420 Q166 390 176.5 372 Q187 354 215 354 Q234 354 248 366.5 Q262 379 271 400.5 Q280 422 284.5 450.5 Q289 479 289 510 Q289 540 279.5 561 Q270 582 243 582 Z M332 -19 L229 -19 L643 714 L747 714 L332 -19 Z M755 409 Q801 409 832.5 396 Q864 383 883 360.5 Q902 338 910.5 307 Q919 276 919 240 Q919 191 907.5 147 Q896 103 871 69.5 Q846 36 806.5 16 Q767 -4 710 -4 Q664 -4 632.5 8.5 Q601 21 581.5 43.5 Q562 66 553.5 96.5 Q545 127 545 162 Q545 208 556 252 Q567 296 591.5 331 Q616 366 656 387.5 Q696 409 755 409 Z M749 316 Q725 316 710 299.5 Q695 283 686.5 258.5 Q678 234 675 206 Q672 178 672 155 Q672 125 682.5 107 Q693 89 720 89 Q739 89 753 101.5 Q767 114 776 135.5 Q785 157 789.5 185 Q794 213 794 244 Q794 274 784.5 295 Q775 316 749 316 Z M1163 409 Q1209 409 1240.5 396 Q1272 383 1291 360.5 Q1310 338 1318.5 307 Q1327 276 1327 240 Q1327 191 1315.5 147 Q1304 103 1279 69.5 Q1254 36 1214.5 16 Q1175 -4 1118 -4 Q1072 -4 1040.5 8.5 Q1009 21 989.5 43.5 Q970 66 961.5 96.5 Q953 127 953 162 Q953 208 964 252 Q975 296 999.5 331 Q1024 366 1064 387.5 Q1104 409 1163 409 Z M1157 316 Q1133 316 1118 299.5 Q1103 283 1094.5 258.5 Q1086 234 1083 206 Q1080 178 1080 155 Q1080 125 1090.5 107 Q1101 89 1128 89 Q1147 89 1161 101.5 Q1175 114 1184 135.5 Q1193 157 1197.5 185 Q1202 213 1202 244 Q1202 274 1192.5 295 Q1183 316 1157 316 Z " />
<glyph glyph-name="dieresis" unicode="&#xa8;" horiz-adv-x="587" d="M525 640 Q524 622 516.5 606.5 Q509 591 497 579.5 Q485 568 469 561.5 Q453 555 436 555 Q404 555 384.5 578 Q365 601 367 634 Q371 670 397 694 Q423 718 456 718 Q489 718 509 696 Q529 674 525 640 Z M317 640 Q315 622 307.5 606.5 Q300 591 287.5 579.5 Q275 568 259.5 561.5 Q244 555 228 555 Q196 555 175.5 578 Q155 601 158 634 Q160 652 168 667.5 Q176 683 188 694 Q200 705 215.5 711.5 Q231 718 247 718 Q279 718 299.5 696 Q320 674 317 640 Z " />
<glyph glyph-name="florin" unicode="&#x192;" horiz-adv-x="611" d="M159 401 L247 401 Q251 428 255.5 459.5 Q260 491 268.5 522.5 Q277 554 291.5 583 Q306 612 330 634.5 Q354 657 390 670.5 Q426 684 477 684 Q504 684 539 680.5 Q574 677 612 665 L587 543 Q566 547 552 548.5 Q538 550 522 550 Q499 550 482.5 545 Q466 540 454.5 524 Q443 508 435 478.5 Q427 449 421 401 L516 401 L516 290 L409 290 Q408 279 405.5 262 Q403 245 400 225.5 Q397 206 394 187 Q391 168 388 153 Q384 127 378.5 97 Q373 67 363.5 37 Q354 7 339.5 -20 Q325 -47 301 -68 Q277 -89 243 -101.5 Q209 -114 162 -114 Q136 -114 97 -110.5 Q58 -107 19 -95 L48 25 Q70 21 85 19.5 Q100 18 115 18 Q135 18 150 23 Q165 28 176.5 40 Q188 52 195.5 73.5 Q203 95 209 128 Q215 165 219 191 Q223 217 226 235.5 Q229 254 230.5 267 Q232 280 233 290 L159 290 L159 401 Z " />
<glyph glyph-name="daggerdbl" unicode="&#x2021;" horiz-adv-x="500" d="M176 215 L197 384 L62 384 L77 503 L211 503 L236 697 L381 697 L357 503 L497 503 L483 384 L343 384 L322 215 L462 215 L447 95 L307 95 L285 -77 L141 -77 L161 95 L26 95 L42 215 L176 215 Z " />
<glyph glyph-name="logicalnot" unicode="&#xac;" horiz-adv-x="611" d="M513 81 L410 81 L432 254 L113 254 L125 357 L547 357 L513 81 Z " />
<glyph glyph-name="multiply" unicode="&#xd7;" horiz-adv-x="611" d="M315 228 L178 102 L114 177 L252 303 L146 429 L226 502 L331 376 L466 500 L530 424 L395 301 L500 177 L421 103 L315 228 Z " />
<glyph glyph-name="plusminus" unicode="&#xb1;" horiz-adv-x="611" d="M379 285 L362 142 L258 142 L275 285 L116 285 L129 388 L288 388 L307 533 L410 533 L392 388 L550 388 L537 285 L379 285 Z M516 101 L503 0 L82 0 L94 101 L516 101 Z " />
<glyph glyph-name="brokenbar" unicode="&#xa6;" horiz-adv-x="357" d="M148 359 L148 713 L270 713 L270 359 L148 359 Z M270 237 L270 -152 L148 -152 L148 237 L270 237 Z " />
<glyph glyph-name="guilsinglright" unicode="&#x203a;" horiz-adv-x="361" d="M296 185 L99 -11 L31 45 L151 205 L69 367 L148 418 L301 223 L296 185 Z " />
<glyph glyph-name="guilsinglleft" unicode="&#x2039;" horiz-adv-x="361" d="M50 223 L251 418 L318 367 L194 204 L276 44 L195 -11 L45 185 L50 223 Z " />
<glyph glyph-name="currency" unicode="&#xa4;" horiz-adv-x="584" d="M208 305 Q208 284 216 265.5 Q224 247 237.5 233.5 Q251 220 269.5 212 Q288 204 309 204 Q330 204 348 212 Q366 220 380 233.5 Q394 247 402 265.5 Q410 284 410 305 Q410 326 402 344.5 Q394 363 380.5 377.5 Q367 392 348.5 400 Q330 408 309 408 Q288 408 269.5 400 Q251 392 237.5 378 Q224 364 216 345 Q208 326 208 305 Z M65 476 L139 552 L204 487 Q227 501 254.5 508.5 Q282 516 310 516 Q337 516 364.5 508.5 Q392 501 416 486 L480 552 L555 476 L490 411 Q518 361 518 305 Q518 279 510 251 Q502 223 489 200 L555 137 L480 60 L415 125 Q391 109 365 102.5 Q339 96 310 96 Q281 96 255 102.5 Q229 109 204 125 L139 60 L64 137 L129 201 Q114 226 107.5 252.5 Q101 279 101 305 Q101 332 108 359.5 Q115 387 129 410 L65 476 Z " />
<glyph glyph-name="exclamdown" unicode="&#xa1;" horiz-adv-x="320" d="M23 -225 L53 18 L101 277 L234 277 L218 18 L191 -225 L23 -225 Z M174 328 Q135 328 114 353.5 Q93 379 96 414 Q101 449 127.5 476 Q154 503 196 503 Q236 503 257.5 477.5 Q279 452 275 418 Q272 380 244 354 Q216 328 174 328 Z " />
<glyph glyph-name="questiondown" unicode="&#xbf;" horiz-adv-x="525" d="M227 -227 Q124 -227 73.5 -184 Q23 -141 23 -69 Q24 -18 48 21.5 Q72 61 106 89 Q142 119 169.5 137.5 Q197 156 215 172 Q233 188 242 205.5 Q251 223 251 250 L251 271 L392 287 Q394 272 395 258.5 Q396 245 396 233 Q396 195 384.5 167.5 Q373 140 354 118.5 Q335 97 311.5 78 Q288 59 264 40 Q243 23 229.5 6 Q216 -11 216 -34 Q216 -92 287 -92 Q301 -92 316.5 -90 Q332 -88 348 -85 L357 -10 L478 -10 L457 -186 Q388 -211 329.5 -219 Q271 -227 227 -227 Z M312 329 Q277 329 255 350.5 Q233 372 233 404 Q233 425 241.5 442.5 Q250 460 263.5 472.5 Q277 485 295 492 Q313 499 332 499 Q366 499 388 477.5 Q410 456 410 425 Q410 406 403 389 Q396 372 383 358.5 Q370 345 352 337 Q334 329 312 329 Z " />
<glyph glyph-name="sfthyphen" unicode="&#xad;" horiz-adv-x="403" d="M62 210 L78 335 L357 335 L341 210 L62 210 Z " />
<glyph glyph-name="periodcentered" unicode="&#xb7;" horiz-adv-x="295" d="M162 370 Q197 370 219.5 346 Q242 322 242 286 Q242 263 233.5 244 Q225 225 210.5 211 Q196 197 177.5 189 Q159 181 139 181 Q104 181 81 205.5 Q58 230 58 266 Q58 288 67 307.5 Q76 327 90.5 340.5 Q105 354 123.5 362 Q142 370 162 370 Z " />
<glyph glyph-name="cedilla" unicode="&#xb8;" horiz-adv-x="513" d="M244 -50 Q335 -65 335 -134 Q335 -152 325.5 -174 Q316 -196 292 -215.5 Q268 -235 226.5 -248 Q185 -261 121 -262 L117 -199 Q173 -194 206.5 -179 Q240 -164 240 -143 Q240 -135 234.5 -130 Q229 -125 220 -122 Q211 -119 199.5 -118 Q188 -117 177 -117 Q172 -117 168 -117.5 Q164 -118 159 -118 L144 -88 Q174 -52 204 -18 Q234 16 263 51 L306 23 L244 -50 Z " />
<glyph glyph-name="acute" unicode="&#xb4;" horiz-adv-x="587" d="M337 544 L283 601 L454 794 L535 703 L337 544 Z " />
<glyph glyph-name="primemod" unicode="&#x2b9;" horiz-adv-x="227" d="M110 361 L52 400 L248 712 L342 654 L110 361 Z " />
<glyph glyph-name="caron" unicode="&#x2c7;" horiz-adv-x="587" d="M563 705 L389 550 L278 550 L146 706 L192 756 L345 656 L526 757 L563 705 Z " />
<glyph glyph-name="breve" unicode="&#x2d8;" horiz-adv-x="593" d="M336 549 Q305 549 279 560 Q253 571 231 590.5 Q209 610 191 636 Q173 662 159 692 L231 747 Q259 699 293 677.5 Q327 656 353 656 Q362 656 374.5 657 Q387 658 406.5 665.5 Q426 673 453 690.5 Q480 708 517 740 L558 692 Q529 651 499.5 623.5 Q470 596 441.5 579.5 Q413 563 386 556 Q359 549 336 549 Z " />
<glyph glyph-name="dotaccent" unicode="&#x2d9;" horiz-adv-x="587" d="M433 656 Q431 636 421.5 618.5 Q412 601 398 588 Q384 575 366.5 567.5 Q349 560 330 560 Q292 560 269 587 Q246 614 251 653 Q253 673 262 690.5 Q271 708 285 721 Q299 734 316.5 741.5 Q334 749 353 749 Q372 749 387.5 741.5 Q403 734 413.5 721.5 Q424 709 429.5 692 Q435 675 433 656 Z " />
<glyph glyph-name="ring" unicode="&#x2da;" horiz-adv-x="587" d="M345 552 Q317 552 294 562.5 Q271 573 255.5 591 Q240 609 232.5 633 Q225 657 228 684 Q231 711 244.5 735 Q258 759 278 777.5 Q298 796 323.5 806.5 Q349 817 378 817 Q406 817 428.5 806.5 Q451 796 465.5 778 Q480 760 486.5 735.5 Q493 711 490 684 Q487 656 473.5 632 Q460 608 440.5 590 Q421 572 396.5 562 Q372 552 345 552 Z M368 736 Q345 736 327.5 720 Q310 704 308 681 Q305 661 317 644.5 Q329 628 355 628 Q378 628 393 644.5 Q408 661 410 681 Q413 704 402 720 Q391 736 368 736 Z " />
<glyph glyph-name="ogonek" unicode="&#x2db;" horiz-adv-x="593" d="M419 22 Q425 16 431.5 10.5 Q438 5 445 0 Q431 -16 418 -33.5 Q405 -51 394.5 -69 Q384 -87 377.5 -104 Q371 -121 371 -134 Q371 -160 382.5 -171 Q394 -182 418 -182 Q435 -182 453.5 -179.5 Q472 -177 490 -172 Q493 -186 495 -199 Q497 -212 499 -225 Q467 -242 433.5 -250.5 Q400 -259 369 -259 Q319 -259 294 -239 Q269 -219 269 -184 Q269 -168 275 -145 Q281 -122 297.5 -94.5 Q314 -67 343 -37 Q372 -7 419 22 Z " />
<glyph glyph-name="hungarumlaut" unicode="&#x2dd;" horiz-adv-x="587" d="M235 543 L179 595 L339 796 L428 713 L235 543 Z M414 543 L358 595 L518 796 L607 713 L414 543 Z " />
<glyph glyph-name="tonos" unicode="&#x384;" horiz-adv-x="587" d="M337 544 L283 601 L454 794 L535 703 L337 544 Z " />
<glyph glyph-name="dieresistonos" unicode="&#x385;" horiz-adv-x="587" d="M583 646 Q580 614 556 592 Q532 570 501 570 Q470 570 452 591 Q434 612 437 643 Q441 676 464.5 698 Q488 720 519 720 Q549 720 568 699 Q587 678 583 646 Z M265 649 Q262 617 237.5 595 Q213 573 183 573 Q153 573 134 594.5 Q115 616 118 646 Q120 662 127.5 676.5 Q135 691 146.5 701 Q158 711 172 717 Q186 723 201 723 Q230 723 249.5 702 Q269 681 265 649 Z M328 547 L261 579 L367 804 L481 752 L328 547 Z " />
<glyph glyph-name="anoteleia" unicode="&#x387;" horiz-adv-x="295" d="M259 369 Q254 329 224.5 301 Q195 273 157 273 Q138 273 122.5 280 Q107 287 95.5 300 Q84 313 79 329.5 Q74 346 76 366 Q78 385 87.5 402.5 Q97 420 111.5 433.5 Q126 447 143.5 454.5 Q161 462 180 462 Q198 462 213.5 454.5 Q229 447 239.5 434.5 Q250 422 255.5 405 Q261 388 259 369 Z " />
<glyph glyph-name="Alphatonos" unicode="&#x386;" horiz-adv-x="770" d="M492 192 L273 192 L242 122 L300 122 L286 0 L-6 0 L8 122 L62 122 L336 691 L566 691 L688 122 L741 122 L726 0 L435 0 L449 122 L506 122 L492 192 Z M378 427 L325 308 L472 308 L451 423 L432 543 L428 543 L378 427 Z M45 510 L-9 567 L162 760 L243 669 L45 510 Z " />
<glyph glyph-name="Epsilontonos" unicode="&#x388;" horiz-adv-x="692" d="M18 0 L32 122 L102 122 L156 569 L88 569 L103 690 L701 690 L672 455 L544 455 L558 569 L344 569 L324 411 L506 415 L493 295 L310 298 L289 122 L520 122 L535 244 L664 244 L635 0 L18 0 Z M-129 511 L-183 568 L-12 761 L69 670 L-129 511 Z " />
<glyph glyph-name="Etatonos" unicode="&#x389;" horiz-adv-x="830" d="M445 0 L460 122 L520 122 L541 298 L312 298 L291 122 L352 122 L337 0 L18 0 L32 122 L103 122 L158 569 L87 569 L102 691 L421 691 L406 569 L345 569 L326 413 L555 413 L575 569 L514 569 L529 691 L848 691 L833 569 L762 569 L708 122 L778 122 L764 0 L445 0 Z M-127 507 L-181 564 L-10 757 L71 666 L-127 507 Z " />
<glyph glyph-name="Iotatonos" unicode="&#x38a;" horiz-adv-x="461" d="M43 0 L58 122 L128 122 L182 569 L112 569 L128 691 L452 691 L437 569 L369 569 L314 122 L382 122 L368 0 L43 0 Z M-100 507 L-154 564 L17 757 L98 666 L-100 507 Z " />
<glyph glyph-name="Omicrontonos" unicode="&#x38c;" horiz-adv-x="769" d="M438 705 Q517 705 574 682 Q631 659 668 618.5 Q705 578 722.5 521.5 Q740 465 740 399 Q740 310 715 235 Q690 160 642.5 105 Q595 50 525.5 19.5 Q456 -11 366 -11 Q288 -11 231 11 Q174 33 136.5 72.5 Q99 112 81 167 Q63 222 63 289 Q63 375 86.5 451 Q110 527 157.5 583.5 Q205 640 275 672.5 Q345 705 438 705 Z M428 572 Q381 572 349 547.5 Q317 523 297 482.5 Q277 442 268.5 390.5 Q260 339 260 285 Q260 207 287 164 Q314 121 378 121 Q422 121 453 143 Q484 165 503.5 203.5 Q523 242 532 294.5 Q541 347 541 408 Q541 443 535.5 473 Q530 503 517.5 525 Q505 547 483 559.5 Q461 572 428 572 Z M-49 515 L-103 572 L68 765 L149 674 L-49 515 Z " />
<glyph glyph-name="Upsilontonos" unicode="&#x38e;" horiz-adv-x="711" d="M504 568 L448 568 L463 691 L757 691 L741 568 L693 568 L459 250 L444 122 L517 122 L503 0 L153 0 L167 122 L242 122 L257 249 L105 568 L58 568 L73 691 L364 691 L349 568 L294 568 L374 376 L378 376 L504 568 Z M-152 514 L-206 571 L-35 764 L46 673 L-152 514 Z " />
<glyph glyph-name="Omegatonos" unicode="&#x38f;" horiz-adv-x="781" d="M445 705 Q523 705 581 683 Q639 661 676.5 622 Q714 583 732.5 528.5 Q751 474 751 408 Q751 369 744 328.5 Q737 288 722.5 250.5 Q708 213 687.5 179.5 Q667 146 640 121 L738 121 L723 0 L410 0 L425 124 Q481 141 518.5 210 Q556 279 556 408 Q556 489 524.5 530 Q493 571 433 571 Q389 571 357.5 548 Q326 525 305.5 484.5 Q285 444 275 388 Q265 332 265 266 Q265 203 285.5 168.5 Q306 134 333 125 Q324 63 318 0 L2 0 L17 121 L126 121 L129 124 Q99 152 84.5 198.5 Q70 245 70 302 Q70 389 95.5 463 Q121 537 169 591 Q217 645 286.5 675 Q356 705 445 705 Z M-48 515 L-102 572 L69 765 L150 674 L-48 515 Z " />
<glyph glyph-name="Tau" unicode="&#x3a4;" horiz-adv-x="674" d="M140 0 L154 122 L234 122 L289 569 L190 569 L176 453 L48 453 L78 691 L715 691 L686 453 L559 453 L573 569 L474 569 L419 122 L499 122 L484 0 L140 0 Z " />
<glyph glyph-name="Upsilon" unicode="&#x3a5;" horiz-adv-x="711" d="M504 568 L448 568 L463 691 L757 691 L741 568 L693 568 L459 250 L444 122 L517 122 L503 0 L153 0 L167 122 L242 122 L257 249 L105 568 L58 568 L73 691 L364 691 L349 568 L294 568 L374 376 L378 376 L504 568 Z " />
<glyph glyph-name="Chi" unicode="&#x3a7;" horiz-adv-x="742" d="M503 691 L783 691 L768 568 L718 568 L518 342 L652 123 L715 123 L701 0 L363 0 L378 123 L424 123 L346 264 L232 123 L283 123 L269 0 L-9 0 L6 123 L53 123 L257 371 L143 567 L67 567 L82 691 L422 691 L407 567 L360 567 L431 442 L539 568 L488 568 L503 691 Z " />
<glyph glyph-name="iotadieresistonos" unicode="&#x390;" horiz-adv-x="405" d="M230 505 Q282 505 299.5 487 Q317 469 317 437 Q317 428 314.5 407 Q312 386 308.5 358 Q305 330 300.5 297 Q296 264 291.5 232 Q287 200 283 171 Q279 142 277 122 Q295 123 314 127.5 Q333 132 349 139 L383 55 Q363 37 338 23.5 Q313 10 287.5 0.5 Q262 -9 238 -13.5 Q214 -18 196 -18 Q135 -18 113 7.5 Q91 33 91 75 Q91 82 91.5 88.5 Q92 95 93 103 L129 375 L49 388 L54 474 Q114 491 157.5 498 Q201 505 230 505 Z M464 646 Q461 614 437 592 Q413 570 382 570 Q351 570 333 591 Q315 612 318 643 Q322 676 345.5 698 Q369 720 400 720 Q430 720 449 699 Q468 678 464 646 Z M146 649 Q143 617 118.5 595 Q94 573 64 573 Q34 573 15 594.5 Q-4 616 -1 646 Q1 662 8.5 676.5 Q16 691 27.5 701 Q39 711 53 717 Q67 723 82 723 Q111 723 130.5 702 Q150 681 146 649 Z M209 547 L142 579 L248 804 L362 752 L209 547 Z " />
<glyph glyph-name="Iotadieresis" unicode="&#x3aa;" horiz-adv-x="461" d="M43 0 L58 122 L128 122 L182 569 L112 569 L128 691 L452 691 L437 569 L369 569 L314 122 L382 122 L368 0 L43 0 Z M481 817 Q478 784 453.5 761.5 Q429 739 397 739 Q365 739 346.5 760.5 Q328 782 332 814 Q335 848 359.5 870 Q384 892 416 892 Q447 892 466 870.5 Q485 849 481 817 Z M283 817 Q279 784 255 761.5 Q231 739 199 739 Q168 739 149 760.5 Q130 782 133 814 Q136 848 161 870 Q186 892 217 892 Q248 892 267 870.5 Q286 849 283 817 Z " />
<glyph glyph-name="Upsilondieresis" unicode="&#x3ab;" horiz-adv-x="711" d="M504 568 L448 568 L463 691 L757 691 L741 568 L693 568 L459 250 L444 122 L517 122 L503 0 L153 0 L167 122 L242 122 L257 249 L105 568 L58 568 L73 691 L364 691 L349 568 L294 568 L374 376 L378 376 L504 568 Z M608 817 Q605 784 580.5 761.5 Q556 739 524 739 Q492 739 473.5 760.5 Q455 782 459 814 Q462 848 486.5 870 Q511 892 543 892 Q574 892 593 870.5 Q612 849 608 817 Z M410 817 Q406 784 382 761.5 Q358 739 326 739 Q295 739 276 760.5 Q257 782 260 814 Q263 848 288 870 Q313 892 344 892 Q375 892 394 870.5 Q413 849 410 817 Z " />
<glyph glyph-name="tilde" unicode="&#x2dc;" horiz-adv-x="587" d="M434 563 Q407 563 381 569 Q355 575 331 582.5 Q307 590 285.5 596 Q264 602 247 602 L190 563 L145 601 Q172 660 203.5 683 Q235 706 269 706 Q293 706 317 700.5 Q341 695 364.5 688 Q388 681 411 675.5 Q434 670 455 670 L514 710 L556 672 Q509 563 434 563 Z " />
<glyph glyph-name="macron" unicode="&#xaf;" horiz-adv-x="587" d="M174 675 L540 675 L525 561 L160 561 L174 675 Z " />
<glyph glyph-name="iotadieresis" unicode="&#x3ca;" horiz-adv-x="405" d="M230 505 Q282 505 299.5 487 Q317 469 317 437 Q317 428 314.5 407 Q312 386 308.5 358 Q305 330 300.5 297 Q296 264 291.5 232 Q287 200 283 171 Q279 142 277 122 Q295 123 314 127.5 Q333 132 349 139 L383 55 Q363 37 338 23.5 Q313 10 287.5 0.5 Q262 -9 238 -13.5 Q214 -18 196 -18 Q135 -18 113 7.5 Q91 33 91 75 Q91 82 91.5 88.5 Q92 95 93 103 L129 375 L49 388 L54 474 Q114 491 157.5 498 Q201 505 230 505 Z M401 640 Q400 622 392.5 606.5 Q385 591 373 579.5 Q361 568 345 561.5 Q329 555 312 555 Q280 555 260.5 578 Q241 601 243 634 Q247 670 273 694 Q299 718 332 718 Q365 718 385 696 Q405 674 401 640 Z M193 640 Q191 622 183.5 606.5 Q176 591 163.5 579.5 Q151 568 135.5 561.5 Q120 555 104 555 Q72 555 51.5 578 Q31 601 34 634 Q36 652 44 667.5 Q52 683 64 694 Q76 705 91.5 711.5 Q107 718 123 718 Q155 718 175.5 696 Q196 674 193 640 Z " />
<glyph glyph-name="upsilondieresis" unicode="&#x3cb;" horiz-adv-x="669" d="M223 505 Q268 505 287 487.5 Q306 470 306 435 Q306 429 303.5 408 Q301 387 297.5 358 Q294 329 290 296 Q286 263 282.5 234.5 Q279 206 276.5 185 Q274 164 274 160 Q274 142 282.5 129 Q291 116 312 116 Q339 116 363 143 Q387 170 405.5 210 Q424 250 437 296.5 Q450 343 454 382 L396 375 L381 454 Q426 485 469 499.5 Q512 514 544 514 Q563 514 579.5 510 Q596 506 608.5 496.5 Q621 487 628.5 471 Q636 455 636 432 Q636 398 628.5 351.5 Q621 305 603 255.5 Q585 206 556.5 157.5 Q528 109 486 71 Q444 33 388 10 Q332 -13 259 -13 Q212 -13 181 -2.5 Q150 8 131.5 26.5 Q113 45 105 70.5 Q97 96 97 127 Q97 140 99.5 168 Q102 196 105 231 Q108 266 112 304 Q116 342 119 375 Q115 375 103 377 Q91 379 78 381 Q65 383 53 385 Q41 387 37 388 L44 474 Q104 491 147.5 498 Q191 505 223 505 Z M551 640 Q550 622 542.5 606.5 Q535 591 523 579.5 Q511 568 495 561.5 Q479 555 462 555 Q430 555 410.5 578 Q391 601 393 634 Q397 670 423 694 Q449 718 482 718 Q515 718 535 696 Q555 674 551 640 Z M343 640 Q341 622 333.5 606.5 Q326 591 313.5 579.5 Q301 568 285.5 561.5 Q270 555 254 555 Q222 555 201.5 578 Q181 601 184 634 Q186 652 194 667.5 Q202 683 214 694 Q226 705 241.5 711.5 Q257 718 273 718 Q305 718 325.5 696 Q346 674 343 640 Z " />
<glyph glyph-name="etatonos" unicode="&#x3ae;" horiz-adv-x="666" d="M500 505 Q556 505 585 473 Q614 441 614 378 Q614 371 611 344 Q608 317 604 279.5 Q600 242 594.5 197.5 Q589 153 583.5 109 Q578 65 573.5 25.5 Q569 -14 566 -40 Q584 -39 599 -34 Q614 -29 631 -23 Q632 -24 637 -37 Q642 -50 648 -65 Q654 -80 659 -93 Q664 -106 665 -107 Q642 -126 616.5 -139.5 Q591 -153 565.5 -162 Q540 -171 516.5 -175 Q493 -179 476 -179 Q447 -179 429 -173.5 Q411 -168 400.5 -156.5 Q390 -145 386 -129 Q382 -113 382 -92 Q382 -87 382 -79 Q382 -71 383 -62 Q386 -34 390.5 3.5 Q395 41 400 82 Q405 123 410 163.5 Q415 204 419.5 237.5 Q424 271 426.5 294 Q429 317 429 324 Q429 341 421 354.5 Q413 368 392 368 Q362 368 332 331 Q302 294 281 222 L252 0 L74 0 Q80 49 84.5 84 Q89 119 92 146 Q95 173 98 195.5 Q101 218 103.5 243 Q106 268 109.5 298.5 Q113 329 118 373 L37 387 L43 473 Q103 492 142 498 Q181 504 213 504 Q240 504 256.5 499 Q273 494 281.5 485 Q290 476 293 463 Q296 450 296 434 Q296 410 290 374 L295 374 Q320 414 348.5 439.5 Q377 465 405 479.5 Q433 494 457.5 499.5 Q482 505 500 505 Z M322 544 L268 601 L439 794 L520 703 L322 544 Z " />
<glyph glyph-name="iotatonos" unicode="&#x3af;" horiz-adv-x="405" d="M230 505 Q282 505 299.5 487 Q317 469 317 437 Q317 428 314.5 407 Q312 386 308.5 358 Q305 330 300.5 297 Q296 264 291.5 232 Q287 200 283 171 Q279 142 277 122 Q295 123 314 127.5 Q333 132 349 139 L383 55 Q363 37 338 23.5 Q313 10 287.5 0.5 Q262 -9 238 -13.5 Q214 -18 196 -18 Q135 -18 113 7.5 Q91 33 91 75 Q91 82 91.5 88.5 Q92 95 93 103 L129 375 L49 388 L54 474 Q114 491 157.5 498 Q201 505 230 505 Z M191 544 L137 601 L308 794 L389 703 L191 544 Z " />
<glyph glyph-name="upsilondieresistonos" unicode="&#x3b0;" horiz-adv-x="669" d="M223 505 Q268 505 287 487.5 Q306 470 306 435 Q306 429 303.5 408 Q301 387 297.5 358 Q294 329 290 296 Q286 263 282.5 234.5 Q279 206 276.5 185 Q274 164 274 160 Q274 142 282.5 129 Q291 116 312 116 Q339 116 363 143 Q387 170 405.5 210 Q424 250 437 296.5 Q450 343 454 382 L396 375 L381 454 Q426 485 469 499.5 Q512 514 544 514 Q563 514 579.5 510 Q596 506 608.5 496.5 Q621 487 628.5 471 Q636 455 636 432 Q636 398 628.5 351.5 Q621 305 603 255.5 Q585 206 556.5 157.5 Q528 109 486 71 Q444 33 388 10 Q332 -13 259 -13 Q212 -13 181 -2.5 Q150 8 131.5 26.5 Q113 45 105 70.5 Q97 96 97 127 Q97 140 99.5 168 Q102 196 105 231 Q108 266 112 304 Q116 342 119 375 Q115 375 103 377 Q91 379 78 381 Q65 383 53 385 Q41 387 37 388 L44 474 Q104 491 147.5 498 Q191 505 223 505 Z M602 646 Q599 614 575 592 Q551 570 520 570 Q489 570 471 591 Q453 612 456 643 Q460 676 483.5 698 Q507 720 538 720 Q568 720 587 699 Q606 678 602 646 Z M284 649 Q281 617 256.5 595 Q232 573 202 573 Q172 573 153 594.5 Q134 616 137 646 Q139 662 146.5 676.5 Q154 691 165.5 701 Q177 711 191 717 Q205 723 220 723 Q249 723 268.5 702 Q288 681 284 649 Z M347 547 L280 579 L386 804 L500 752 L347 547 Z " />
<glyph glyph-name="omegatonos" unicode="&#x3ce;" horiz-adv-x="816" d="M498 333 L481 185 Q480 180 480 171 Q480 146 492 131.5 Q504 117 527 117 Q561 117 584.5 157 Q608 197 608 289 Q608 321 596 346.5 Q584 372 552 388 L597 503 Q650 497 686 478.5 Q722 460 744 432 Q766 404 775.5 367 Q785 330 785 287 Q785 229 770.5 175.5 Q756 122 725 81 Q694 40 645 15.5 Q596 -9 527 -9 Q485 -9 447 7 Q409 23 389 60 L383 60 Q353 23 310.5 7 Q268 -9 226 -9 Q170 -9 133 6.5 Q96 22 74.5 49 Q53 76 44 112.5 Q35 149 35 191 Q35 253 49.5 306.5 Q64 360 94.5 401.5 Q125 443 173.5 469.5 Q222 496 291 503 L314 388 Q284 376 264.5 356 Q245 336 233.5 310 Q222 284 217.5 252.5 Q213 221 213 187 Q213 117 266 117 Q293 117 310 135.5 Q327 154 331 185 L348 333 L498 333 Z M423 544 L369 601 L540 794 L621 703 L423 544 Z " />
<glyph glyph-name="epsilontonos" unicode="&#x3ad;" horiz-adv-x="511" d="M303 507 Q394 507 443 488 Q478 474 485 456 Q492 438 491 423 Q491 414 484.5 384 Q478 354 464 323 L363 330 L362 386 Q341 392 321 392 Q291 392 271 378.5 Q251 365 251 336 Q251 316 268.5 307 Q286 298 310 298 L345 298 L339 211 L296 211 Q284 211 271.5 208.5 Q259 206 249 200 Q239 194 232.5 184 Q226 174 226 160 Q226 134 248 123.5 Q270 113 312 113 Q325 113 342 114.5 Q359 116 377.5 118.5 Q396 121 415 124.5 Q434 128 451 133 L481 32 Q458 20 429.5 11.5 Q401 3 370.5 -2.5 Q340 -8 309.5 -10.5 Q279 -13 254 -13 Q198 -13 158 -2.5 Q118 8 91.5 26.5 Q65 45 52.5 70.5 Q40 96 39 127 Q39 171 65 204 Q91 237 136 251 L137 256 Q103 269 85 294 Q67 319 67 350 Q67 380 81 408 Q95 436 123.5 458 Q152 480 196.5 493.5 Q241 507 303 507 Z M269 544 L215 601 L386 794 L467 703 L269 544 Z " />
<glyph glyph-name="OE" unicode="&#x152;" horiz-adv-x="939" d="M434 704 Q465 704 494.5 700 Q524 696 550 689 L958 689 Q951 630 943.5 572 Q936 514 929 455 L801 455 L815 569 L629 569 L610 411 Q647 412 684 414 Q721 416 759 417 Q755 388 752 355 Q749 322 745 293 Q707 294 670.5 295.5 Q634 297 596 297 L575 121 L772 121 Q775 152 779 182.5 Q783 213 787 243 L915 243 Q908 182 900.5 121.5 Q893 61 886 0 L449 0 Q426 -5 402 -7.5 Q378 -10 353 -10 Q275 -10 219 12 Q163 34 127 73.5 Q91 113 73.5 168 Q56 223 56 289 Q56 375 79.5 450.5 Q103 526 150.5 582.5 Q198 639 268.5 671.5 Q339 704 434 704 Z M367 120 Q372 120 377 120 Q382 120 387 121 Q401 234 414.5 345 Q428 456 442 569 Q438 570 433.5 570.5 Q429 571 419 571 Q373 570 340.5 543.5 Q308 517 288 475 Q268 433 258.5 380.5 Q249 328 249 275 Q249 243 255.5 215 Q262 187 276 166 Q290 145 312.5 132.5 Q335 120 367 120 Z " />
<glyph glyph-name="paragraph" unicode="&#xb6;" horiz-adv-x="661" d="M262 270 Q175 270 124.5 321.5 Q74 373 74 464 Q74 516 92 561 Q110 606 141.5 639.5 Q173 673 217 692.5 Q261 712 314 712 L692 712 L677 591 L612 591 L513 -217 L393 -217 L493 591 L439 591 L340 -217 L130 -217 L143 -107 L232 -107 L279 270 L262 270 Z " />
<glyph glyph-name="oe" unicode="&#x153;" horiz-adv-x="891" d="M695 505 Q731 505 762.5 496.5 Q794 488 817.5 470.5 Q841 453 854.5 426 Q868 399 868 362 Q868 332 855 302.5 Q842 273 809 249 Q776 225 718.5 208.5 Q661 192 572 188 Q572 184 571.5 180 Q571 176 571 171 Q571 145 586.5 128 Q602 111 651 111 Q686 111 725 120 Q764 129 799 140 L830 40 Q780 13 718.5 1.5 Q657 -10 606 -10 Q548 -10 511 5.5 Q474 21 451 50 Q420 24 376 7 Q332 -10 278 -10 Q215 -10 170 6 Q125 22 96 50.5 Q67 79 53.5 119 Q40 159 40 207 Q40 268 58 322 Q76 376 113 416 Q150 456 205 479.5 Q260 503 334 503 Q393 503 437 485 Q481 467 505 436 Q541 468 586 486.5 Q631 505 695 505 Z M324 375 Q295 375 276 358 Q257 341 245.5 315 Q234 289 229.5 258 Q225 227 225 199 Q225 163 239 139 Q253 115 291 115 Q318 115 336.5 130 Q355 145 366.5 169.5 Q378 194 383 225 Q388 256 388 288 Q388 326 374.5 350.5 Q361 375 324 375 Z M670 381 Q626 381 603 349.5 Q580 318 576 263 Q710 269 710 341 Q710 359 700 370 Q690 381 670 381 Z " />
<glyph glyph-name="ae" unicode="&#xe6;" horiz-adv-x="863" d="M661 506 Q696 506 727 497.5 Q758 489 781.5 471 Q805 453 819 426 Q833 399 833 362 Q833 332 820 304 Q807 276 774 253.5 Q741 231 683.5 215.5 Q626 200 537 196 Q537 191 536.5 185 Q536 179 536 173 Q536 144 551.5 127.5 Q567 111 616 111 Q651 111 690 120 Q729 129 764 140 L795 40 Q771 26 742 16.5 Q713 7 683.5 1 Q654 -5 625 -8 Q596 -11 571 -11 Q501 -11 459 8 Q417 27 395 59 Q343 20 282.5 1.5 Q222 -17 176 -17 Q131 -17 103.5 -6 Q76 5 61 22 Q46 39 41 60.5 Q36 82 36 103 Q36 122 39.5 143.5 Q43 165 55 185.5 Q67 206 89 224.5 Q111 243 148 256 Q185 269 239 275.5 Q293 282 368 278 Q368 283 369 296 Q370 309 370 312 Q370 347 350.5 361 Q331 375 282 375 Q238 375 200 369 Q162 363 130 355 L108 464 Q154 483 213 493.5 Q272 504 328 504 Q352 504 374 502 Q396 500 414.5 493 Q433 486 448 472 Q463 458 472 435 Q506 473 552.5 489.5 Q599 506 661 506 Z M272 94 Q286 94 313 101 Q340 108 363 132 Q360 154 360 180 L360 204 Q319 204 293.5 198.5 Q268 193 254 184 Q240 175 235 162.5 Q230 150 230 135 Q230 94 272 94 Z M634 381 Q590 381 566.5 350.5 Q543 320 540 270 Q675 273 675 341 Q675 359 664.5 370 Q654 381 634 381 Z " />
<glyph glyph-name="AE" unicode="&#xc6;" horiz-adv-x="1056" d="M518 121 L522 197 L306 197 L256 121 L307 121 L299 0 L7 0 L15 121 L62 121 L430 689 L1037 689 L1023 455 L895 455 L901 569 L730 569 L721 411 L871 414 L863 292 L713 296 L703 121 L893 121 L901 243 L1030 243 L1016 0 L439 0 L447 121 L518 121 Z M373 313 L528 313 L545 564 L539 564 L373 313 Z " />
<glyph glyph-name="numbersign" unicode="&#x23;" horiz-adv-x="612" d="M477 382 L440 283 L523 283 L512 199 L412 199 L342 -1 L248 -1 L316 199 L233 199 L162 -1 L67 -1 L137 199 L65 199 L77 283 L166 283 L204 382 L121 382 L133 465 L232 465 L297 644 L390 644 L328 465 L412 465 L477 644 L570 644 L506 465 L581 465 L569 382 L477 382 Z M262 283 L346 283 L382 382 L299 382 L262 283 Z " />
<glyph glyph-name="fj" unicode="&#xe1f8;" horiz-adv-x="674" d="M611 111 Q602 39 585 -17.5 Q568 -74 536.5 -115.5 Q505 -157 455 -184 Q405 -211 329 -223 L297 -105 Q340 -87 364.5 -67 Q389 -47 402 -21.5 Q415 4 420 37 Q425 70 430 114 L452 354 L298 354 Q295 333 291.5 296.5 Q288 260 284 220.5 Q280 181 276 144.5 Q272 108 270 87 Q262 14 249 -45 Q236 -104 209.5 -146 Q183 -188 138.5 -210.5 Q94 -233 22 -233 Q-6 -233 -39.5 -228.5 Q-73 -224 -111 -211 L-83 -97 Q-57 -102 -41.5 -103 Q-26 -104 -10 -104 Q7 -104 22 -99.5 Q37 -95 49 -82 Q61 -69 70.5 -45 Q80 -21 85 17 Q93 85 99 136 Q105 187 109.5 226.5 Q114 266 117 296.5 Q120 327 123 354 L34 354 L46 453 L134 473 L144 543 Q149 579 162 615.5 Q175 652 203.5 682 Q232 712 279 730.5 Q326 749 399 749 Q431 749 477 744 Q523 739 585 719 L550 596 Q528 600 511.5 603 Q495 606 481.5 607.5 Q468 609 455 609.5 Q442 610 427 610 Q379 610 352 593.5 Q325 577 320 532 L311 467 L462 467 Q488 467 535.5 472.5 Q583 478 632 487 L648 478 L611 111 Z " />
<glyph glyph-name="ffj" unicode="&#xe1f9;" horiz-adv-x="1001" d="M974 478 Q964 388 955.5 299.5 Q947 211 938 121 Q929 50 912 -6 Q895 -62 863.5 -103.5 Q832 -145 781.5 -171.5 Q731 -198 655 -211 L623 -93 Q668 -74 692.5 -53 Q717 -32 730 -5.5 Q743 21 747.5 55.5 Q752 90 757 135 Q758 145 761 176.5 Q764 208 767.5 244 Q771 280 774 311.5 Q777 343 778 353 L625 353 Q617 279 610.5 212.5 Q604 146 597 86 Q589 15 577 -42.5 Q565 -100 540 -141 Q515 -182 472.5 -204.5 Q430 -227 360 -227 Q334 -227 304 -223.5 Q274 -220 245 -210 L274 -94 Q302 -99 320 -99 Q365 -99 384.5 -69 Q404 -39 413 23 Q417 52 422.5 98.5 Q428 145 433.5 194 Q439 243 443 286.5 Q447 330 450 353 L300 353 Q294 289 286 216 Q278 143 270 79 Q262 6 249.5 -53 Q237 -112 210.5 -153.5 Q184 -195 139.5 -217.5 Q95 -240 24 -240 Q-8 -240 -41 -234.5 Q-74 -229 -109 -217 L-81 -103 Q-54 -108 -39 -109 Q-24 -110 -7 -110 Q31 -110 54 -82 Q77 -54 86 17 L125 353 L37 353 Q40 379 42.5 403 Q45 427 49 452 L139 474 Q144 523 156.5 568.5 Q169 614 198 649.5 Q227 685 277.5 706 Q328 727 409 727 Q441 727 477.5 721.5 Q514 716 552 705 Q583 728 626 739.5 Q669 751 737 751 Q774 751 818 745 Q862 739 913 724 L879 597 Q843 606 815 609 Q787 612 758 612 Q718 612 696 601 Q674 590 662.5 571 Q651 552 646.5 525 Q642 498 638 467 L787 467 Q800 467 819 468.5 Q838 470 860.5 472.5 Q883 475 908 478.5 Q933 482 957 486 Q966 481 974 478 Z M413 596 Q392 596 375.5 591.5 Q359 587 347 573 Q335 559 326.5 533.5 Q318 508 313 467 L462 467 L471 539 Q473 552 475 565 Q477 578 481 589 Q463 593 444 594.5 Q425 596 413 596 Z " />
<glyph glyph-name="ff" unicode="&#xfb00;" horiz-adv-x="789" d="M628 353 Q620 270 612.5 189.5 Q605 109 596 44 Q587 -19 573 -69 Q559 -119 532 -154.5 Q505 -190 461.5 -209 Q418 -228 351 -228 Q330 -228 303.5 -224.5 Q277 -221 249 -212 L277 -95 Q291 -98 300.5 -99 Q310 -100 320 -100 Q340 -100 355 -96 Q370 -92 381 -80 Q392 -68 399.5 -46.5 Q407 -25 412 9 Q413 15 416 41 Q419 67 423.5 103.5 Q428 140 432.5 181 Q437 222 441 258.5 Q445 295 448 321 Q451 347 452 353 L300 353 Q289 271 283 195 Q277 119 268.5 53.5 Q260 -12 245.5 -66.5 Q231 -121 204 -159.5 Q177 -198 133.5 -219 Q90 -240 23 -240 Q-38 -240 -110 -218 Q-103 -189 -95.5 -160.5 Q-88 -132 -81 -104 Q-55 -109 -40 -110 Q-25 -111 -8 -111 Q10 -111 25.5 -105.5 Q41 -100 52.5 -86 Q64 -72 72.5 -48 Q81 -24 86 14 Q90 48 96 96 Q102 144 107.5 192.5 Q113 241 117.5 284 Q122 327 125 353 L37 353 Q39 379 42 403 Q45 427 48 452 Q71 457 93.5 462.5 Q116 468 139 474 L145 526 Q152 575 171 612.5 Q190 650 223 675.5 Q256 701 305 714 Q354 727 420 727 Q451 725 483 720.5 Q515 716 553 704 Q579 726 618.5 738.5 Q658 751 712 751 Q739 751 772.5 746 Q806 741 843 729 L815 611 Q789 616 769.5 618 Q750 620 734 620 Q712 620 696.5 613 Q681 606 670 589 Q659 572 652 542 Q645 512 640 467 L777 467 Q774 438 771 410 Q768 382 764 353 L628 353 Z M463 467 Q468 498 471 529.5 Q474 561 482 587 Q464 592 445.5 594 Q427 596 413 596 Q359 594 339 563.5 Q319 533 313 467 L463 467 Z " />
<glyph glyph-name="fi" unicode="&#xfb01;" horiz-adv-x="719" d="M461 467 Q474 467 493 468.5 Q512 470 534.5 472.5 Q557 475 581.5 478.5 Q606 482 630 486 Q635 484 638.5 482 Q642 480 647 478 Q639 411 632.5 359.5 Q626 308 621 266 Q616 224 611.5 189 Q607 154 603 121 Q621 122 640 126.5 Q659 131 675 138 L710 55 Q689 37 663.5 23.5 Q638 10 612 1 Q586 -8 562.5 -12 Q539 -16 521 -16 Q461 -16 439 8.5 Q417 33 417 75 Q417 82 418.5 94.5 Q420 107 422 124 Q422 129 424.5 146.5 Q427 164 430 188 Q433 212 436.5 238.5 Q440 265 443 289 Q446 313 448 330.5 Q450 348 451 353 L297 353 Q291 289 283.5 220 Q276 151 268 86 Q260 13 247.5 -46 Q235 -105 208.5 -146.5 Q182 -188 137.5 -210.5 Q93 -233 22 -233 Q-10 -233 -42.5 -227.5 Q-75 -222 -111 -210 L-82 -93 Q-55 -98 -40 -99 Q-25 -100 -8 -100 Q13 -100 28 -94 Q43 -88 54 -71.5 Q65 -55 73.5 -25.5 Q82 4 88 51 Q96 116 101 163.5 Q106 211 110 245.5 Q114 280 116.5 305.5 Q119 331 121 353 L33 353 L45 452 L133 473 L142 536 Q149 581 163.5 619.5 Q178 658 207 686.5 Q236 715 282.5 731 Q329 747 401 747 Q434 747 482 741.5 Q530 736 584 719 L549 595 Q527 599 510.5 602 Q494 605 480.5 607 Q467 609 454.5 609.5 Q442 610 427 610 Q387 610 365.5 599.5 Q344 589 333 570.5 Q322 552 318 525.5 Q314 499 310 467 L461 467 L461 467 Z " />
<glyph glyph-name="fl" unicode="&#xfb02;" horiz-adv-x="720" d="M634 744 L669 723 Q665 691 660 644 Q655 597 649 541.5 Q643 486 637 427 Q631 368 625 311.5 Q619 255 613.5 205.5 Q608 156 604 121 Q622 122 641 126.5 Q660 131 676 138 L711 53 Q664 14 613.5 -1.5 Q563 -17 527 -17 Q470 -17 444.5 7 Q419 31 419 73 Q419 79 419.5 85 Q420 91 422 111 L479 590 Q465 592 451 593.5 Q437 595 423 595 Q377 595 348.5 577.5 Q320 560 315 513 Q314 502 313 491 Q312 480 310 467 L417 467 L405 353 L297 353 Q291 289 283.5 220 Q276 151 268 86 Q260 13 247.5 -46 Q235 -105 208.5 -146.5 Q182 -188 137.5 -210.5 Q93 -233 22 -233 Q-7 -233 -40.5 -227.5 Q-74 -222 -111 -210 L-82 -94 Q-55 -99 -40.5 -100 Q-26 -101 -9 -101 Q9 -101 24 -95.5 Q39 -90 51 -76.5 Q63 -63 71 -39.5 Q79 -16 84 21 Q88 54 93.5 100.5 Q99 147 104.5 194.5 Q110 242 114 284.5 Q118 327 121 353 L37 353 L49 452 L133 473 Q138 516 147.5 562 Q157 608 184 646.5 Q211 685 261 709.5 Q311 734 397 734 Q420 734 448 731.5 Q476 729 508 721 L634 744 Z " />
<glyph glyph-name="ffi" unicode="&#xfb03;" horiz-adv-x="1041" d="M952 485 Q957 483 961 481 Q965 479 969 477 L925 121 Q943 122 962 126.5 Q981 131 997 138 L1032 55 Q1011 37 985.5 23.5 Q960 10 934.5 1 Q909 -8 885 -12 Q861 -16 843 -16 Q811 -16 791 -8.5 Q771 -1 759.5 11.5 Q748 24 743.5 41 Q739 58 739 77 Q739 99 742.5 133 Q746 167 750.5 204.5 Q755 242 760.5 281 Q766 320 770 353 L627 353 Q619 269 613 193 Q607 117 598 52.5 Q589 -12 573.5 -64 Q558 -116 530 -153 Q502 -190 458.5 -209.5 Q415 -229 350 -229 Q329 -229 302.5 -225.5 Q276 -222 248 -212 L276 -95 Q290 -97 300 -98 Q310 -99 320 -99 Q364 -99 383 -74 Q402 -49 411 9 Q417 44 422.5 92 Q428 140 433.5 189.5 Q439 239 443 283 Q447 327 450 353 L300 353 Q295 289 286.5 216 Q278 143 270 79 Q262 6 249.5 -53 Q237 -112 210.5 -153.5 Q184 -195 140 -217.5 Q96 -240 24 -240 Q-7 -240 -40.5 -234.5 Q-74 -229 -109 -217 L-81 -102 Q-54 -107 -39 -108.5 Q-24 -110 -7 -110 Q11 -110 25.5 -105.5 Q40 -101 52 -88 Q64 -75 72.5 -51 Q81 -27 86 11 Q87 18 90 44.5 Q93 71 97 107 Q101 143 105.5 183.5 Q110 224 114 259.5 Q118 295 121 321 Q124 347 125 353 L37 353 L49 452 Q72 458 94 463 Q116 468 139 474 L145 522 Q151 569 169 606.5 Q187 644 219.5 670.5 Q252 697 299.5 711.5 Q347 726 412 726 Q447 726 481 721 Q515 716 552 705 Q584 728 629 740 Q674 752 745 752 Q780 750 822 744 Q864 738 913 724 Q904 692 895.5 661 Q887 630 879 598 Q825 613 783 613 Q735 613 708 604 Q681 595 667.5 577 Q654 559 649 531.5 Q644 504 639 467 L780 467 Q793 467 813 468 Q833 469 856 471.5 Q879 474 904 477 Q929 480 952 485 Z M413 596 Q369 596 343.5 566 Q318 536 313 467 L462 467 Q466 498 469 528.5 Q472 559 480 588 Q462 592 443.5 594 Q425 596 413 596 Z " />
<glyph glyph-name="ffl" unicode="&#xfb04;" horiz-adv-x="1048" d="M725 753 Q744 753 772.5 751 Q801 749 837 742 L964 765 L999 744 Q995 711 990 662.5 Q985 614 979 556.5 Q973 499 966.5 437.5 Q960 376 953.5 317.5 Q947 259 941 208 Q935 157 931 121 Q950 122 968.5 126.5 Q987 131 1004 138 L1038 55 Q1014 35 989 21.5 Q964 8 940 -0.5 Q916 -9 894 -12.5 Q872 -16 854 -16 Q823 -16 802.5 -9.5 Q782 -3 769.5 9.5 Q757 22 751.5 39.5 Q746 57 746 78 Q746 84 749.5 117.5 Q753 151 759 200 Q765 249 772 308 Q779 367 786 424.5 Q793 482 799 531.5 Q805 581 809 612 Q795 614 782 615 Q769 616 755 616 Q714 616 692 604 Q670 592 659.5 571.5 Q649 551 645.5 524 Q642 497 639 467 L747 467 Q745 438 741.5 410 Q738 382 736 353 L626 353 Q617 269 612 193 Q607 117 598.5 52.5 Q590 -12 575.5 -64 Q561 -116 533 -153 Q505 -190 461 -209.5 Q417 -229 350 -229 Q329 -229 304.5 -225.5 Q280 -222 252 -213 L280 -97 Q294 -99 303.5 -99.5 Q313 -100 323 -100 Q342 -100 356 -97 Q370 -94 380 -84 Q390 -74 397 -55.5 Q404 -37 409 -6 Q414 25 419.5 74 Q425 123 431 175.5 Q437 228 442 276 Q447 324 450 353 L300 353 Q289 263 282.5 184 Q276 105 267 39 Q258 -27 243.5 -79 Q229 -131 201.5 -166.5 Q174 -202 131.5 -221 Q89 -240 24 -240 Q-8 -240 -41.5 -234.5 Q-75 -229 -109 -217 L-81 -104 Q-54 -109 -39 -110 Q-24 -111 -8 -111 Q9 -111 24 -106.5 Q39 -102 51 -89 Q63 -76 71.5 -52 Q80 -28 86 11 Q87 17 90 43 Q93 69 97.5 105 Q102 141 106.5 182 Q111 223 115 259 Q119 295 121.5 321 Q124 347 125 353 L37 353 Q40 379 42.5 403 Q45 427 49 452 L139 474 Q145 522 159 567.5 Q173 613 201.5 648.5 Q230 684 278 705.5 Q326 727 401 727 Q439 727 475 721.5 Q511 716 552 705 Q582 728 624.5 740.5 Q667 753 725 753 Z M462 467 Q465 497 468.5 528 Q472 559 480 588 Q462 592 444.5 594.5 Q427 597 411 597 Q392 597 376 591.5 Q360 586 347 571 Q334 556 325.5 531 Q317 506 313 467 L462 467 Z " />
<glyph glyph-name="ft" unicode="&#xfb05;" horiz-adv-x="793" d="M471 606 Q451 610 436 611.5 Q421 613 407 613 Q386 613 371 606.5 Q356 600 345.5 583.5 Q335 567 327.5 539 Q320 511 314 467 L460 467 L525 592 L660 601 Q653 561 647.5 531 Q642 501 638 467 L774 467 Q770 438 767 410 Q764 382 761 353 L626 353 Q621 310 613 265 Q605 220 605 178 Q605 152 618 140 Q631 128 661 128 Q666 128 676 128.5 Q686 129 698.5 130.5 Q711 132 724.5 134 Q738 136 750 138 Q755 108 759.5 78 Q764 48 769 17 Q751 10 727 5 Q703 0 678 -3.5 Q653 -7 631 -8.5 Q609 -10 596 -10 Q546 -10 512.5 0.5 Q479 11 459 30.5 Q439 50 430.5 77 Q422 104 422 138 Q422 194 430.5 247 Q439 300 445 354 L301 354 Q290 266 283.5 188.5 Q277 111 268 47 Q259 -17 245 -67 Q231 -117 204 -152 Q177 -187 134 -205 Q91 -223 26 -223 Q3 -223 -32 -218.5 Q-67 -214 -107 -201 L-79 -86 Q-52 -91 -37 -92 Q-22 -93 -5 -93 Q11 -93 26 -88.5 Q41 -84 53 -71 Q65 -58 74.5 -34 Q84 -10 89 29 Q90 36 93 61 Q96 86 100 120 Q104 154 108.5 192.5 Q113 231 116.5 264.5 Q120 298 122.5 323 Q125 348 126 354 L38 354 L50 452 L139 474 Q146 515 155.5 562 Q165 609 188.5 649.5 Q212 690 255.5 717 Q299 744 376 744 Q399 744 430 741 Q461 738 496 727 L471 606 Z " />
<glyph glyph-name="afii10051" unicode="&#x402;" horiz-adv-x="889" d="M629 430 Q677 430 717.5 419 Q758 408 788 384 Q818 360 834.5 322 Q851 284 851 229 Q851 163 828.5 106 Q806 49 769.5 2.5 Q733 -44 687 -79 Q641 -114 594 -137 L529 -38 Q589 7 619.5 65.5 Q650 124 650 193 Q650 250 624 274 Q598 298 555 298 Q529 298 499.5 292.5 Q470 287 441 277 L422 122 L492 122 L478 0 L155 0 L170 122 L237 122 L291 569 L193 569 L184 497 L56 497 L80 690 L780 690 L756 497 L630 497 L638 569 L477 569 L456 402 Q499 416 543 423 Q587 430 629 430 Z " />
<glyph glyph-name="afii10053" unicode="&#x404;" horiz-adv-x="648" d="M598 27 Q573 18 543.5 11 Q514 4 482.5 -0.5 Q451 -5 420 -7.5 Q389 -10 362 -10 Q273 -10 215.5 12.5 Q158 35 123.5 74 Q89 113 75.5 165.5 Q62 218 62 278 Q62 329 68.5 380 Q75 431 92 478.5 Q109 526 137.5 567.5 Q166 609 209.5 639.5 Q253 670 313 687.5 Q373 705 453 705 Q506 705 551.5 697.5 Q597 690 638 677 L614 474 L484 474 L494 553 Q482 556 468 557.5 Q454 559 440 559 Q410 559 382 550.5 Q354 542 332 524 Q310 506 294.5 478 Q279 450 273 411 L471 414 L459 294 L262 298 Q261 290 260.5 282.5 Q260 275 260 267 Q260 201 302 171.5 Q344 142 427 142 Q438 142 456 143.5 Q474 145 494 148 Q514 151 535.5 154.5 Q557 158 575 162 L598 27 Z " />
<glyph glyph-name="afii10054" unicode="&#x405;" horiz-adv-x="652" d="M379 568 Q332 568 305.5 548 Q279 528 279 493 Q279 478 289.5 467 Q300 456 317 446.5 Q334 437 357 429.5 Q380 422 404 415 Q449 402 487.5 387.5 Q526 373 553.5 351.5 Q581 330 597 299.5 Q613 269 613 224 Q613 107 527.5 47 Q442 -13 281 -13 Q255 -13 222.5 -10.5 Q190 -8 156.5 -2 Q123 4 90 13.5 Q57 23 30 38 L50 219 L177 219 L168 143 Q181 138 196.5 134 Q212 130 227.5 128 Q243 126 257 125 Q271 124 281 124 Q314 124 337 130.5 Q360 137 374 147.5 Q388 158 394 171 Q400 184 400 197 Q400 216 391 228.5 Q382 241 362.5 250.5 Q343 260 312.5 268.5 Q282 277 240 289 Q159 312 118 353 Q77 394 77 466 Q77 579 158 640 Q239 701 382 701 Q405 701 435 698.5 Q465 696 496.5 690.5 Q528 685 558 676.5 Q588 668 611 656 L589 480 L462 480 L470 553 Q448 561 422.5 564.5 Q397 568 379 568 Z " />
<glyph glyph-name="afii10055" unicode="&#x406;" horiz-adv-x="461" d="M43 0 L58 122 L128 122 L182 569 L112 569 L128 691 L452 691 L437 569 L369 569 L314 122 L382 122 L368 0 L43 0 Z " />
<glyph glyph-name="afii10057" unicode="&#x408;" horiz-adv-x="489" d="M130 691 L498 691 L483 569 L399 569 L352 183 Q343 106 318.5 42.5 Q294 -21 250 -68 Q206 -115 139.5 -145.5 Q73 -176 -20 -186 L-48 -54 Q21 -35 60.5 -11 Q100 13 121.5 42.5 Q143 72 151.5 107 Q160 142 165 183 L213 569 L116 569 L130 691 Z " />
<glyph glyph-name="afii10058" unicode="&#x409;" horiz-adv-x="1073" d="M770 569 L699 569 L682 431 L799 431 Q846 431 889 421.5 Q932 412 964.5 390 Q997 368 1016.5 331 Q1036 294 1036 239 Q1036 177 1016 132 Q996 87 961 58 Q926 29 878.5 14.5 Q831 0 775 0 L381 0 L396 122 L456 122 L512 569 L395 569 L387 502 Q374 394 355 304 Q336 214 298.5 145.5 Q261 77 198 32.5 Q135 -12 35 -29 L-5 103 Q53 123 90.5 149.5 Q128 176 152 217.5 Q176 259 189.5 319.5 Q203 380 214 469 L226 569 L138 569 L154 691 L785 691 L770 569 Z M667 311 L644 122 L739 122 Q781 122 810 150.5 Q839 179 839 230 Q839 269 816 290 Q793 311 754 311 L667 311 Z " />
<glyph glyph-name="afii10059" unicode="&#x40a;" horiz-adv-x="1122" d="M819 569 L747 569 L730 424 L847 424 Q893 424 936 415.5 Q979 407 1012 386 Q1045 365 1065 329 Q1085 293 1085 239 Q1085 182 1065.5 137.5 Q1046 93 1011 62.5 Q976 32 928 16 Q880 0 824 0 L432 0 L447 122 L505 122 L528 307 L317 307 L294 122 L352 122 L337 0 L22 0 L36 122 L107 122 L162 569 L90 569 L106 690 L421 690 L406 569 L349 569 L330 421 L542 421 L560 569 L499 569 L514 691 L834 691 L819 569 Z M715 305 L693 122 L788 122 Q831 122 859.5 150 Q888 178 888 230 Q888 268 865.5 286.5 Q843 305 805 305 L715 305 Z " />
<glyph glyph-name="afii10060" unicode="&#x40b;" horiz-adv-x="935" d="M891 122 L877 0 L562 0 L577 122 L638 122 L650 226 Q656 270 632 287 Q608 304 566 304 Q533 304 499 295.5 Q465 287 442 277 L423 122 L485 122 L470 0 L154 0 L169 122 L238 122 L292 569 L194 569 L186 497 L57 497 L81 690 L773 690 L749 497 L623 497 L631 569 L478 569 L458 405 Q500 417 548 424 Q596 431 639 431 Q686 431 725.5 422 Q765 413 793 391.5 Q821 370 834 334.5 Q847 299 840 247 L825 122 L891 122 Z " />
<glyph glyph-name="afii10145" unicode="&#x40f;" horiz-adv-x="830" d="M847 690 L832 568 L762 568 Q760 551 755.5 516.5 Q751 482 745.5 437.5 Q740 393 734 344.5 Q728 296 722.5 251.5 Q717 207 713 172 Q709 137 707 121 L777 121 L763 0 L463 0 L437 -204 L296 -204 Q297 -196 301 -166 Q305 -136 309 -102 Q313 -68 316.5 -38 Q320 -8 321 0 L17 0 Q18 3 20 21 Q22 39 24.5 60 Q27 81 29.5 99.5 Q32 118 32 121 L103 121 L158 568 L86 568 L102 690 L421 690 L406 568 L345 568 L290 121 L519 121 Q521 138 525.5 172.5 Q530 207 535.5 251.5 Q541 296 547 344.5 Q553 393 558.5 437.5 Q564 482 568.5 516.5 Q573 551 575 568 L514 568 L529 690 L847 690 Z " />
<glyph glyph-name="afii10017" unicode="&#x410;" horiz-adv-x="770" d="M492 192 L273 192 L242 122 L300 122 L286 0 L-6 0 L8 122 L62 122 L336 691 L566 691 L688 122 L741 122 L726 0 L435 0 L449 122 L506 122 L492 192 Z M378 427 L325 308 L472 308 L451 423 L432 543 L428 543 L378 427 Z " />
<glyph glyph-name="afii10018" unicode="&#x411;" horiz-adv-x="718" d="M650 499 L521 499 L530 569 L344 569 L327 431 L444 431 Q491 431 534 421.5 Q577 412 609.5 390 Q642 368 661.5 331 Q681 294 681 239 Q681 178 661 133 Q641 88 606 58.5 Q571 29 523 14.5 Q475 0 420 0 L17 0 L31 122 L101 122 L156 569 L87 569 L103 690 L673 690 L650 499 Z M312 311 L289 122 L384 122 Q426 122 455 151.5 Q484 181 484 233 Q484 270 461.5 290.5 Q439 311 401 311 L312 311 Z " />
<glyph glyph-name="afii10019" unicode="&#x412;" horiz-adv-x="720" d="M591 362 Q620 351 637.5 334 Q655 317 665 297.5 Q675 278 678 258 Q681 238 681 220 Q681 168 662.5 127.5 Q644 87 611 58.5 Q578 30 532.5 15 Q487 0 433 0 L17 0 Q18 3 20 21.5 Q22 40 24.5 61 Q27 82 29.5 100 Q32 118 32 122 L103 122 Q105 138 109 173 Q113 208 118.5 252.5 Q124 297 130 345.5 Q136 394 141 438.5 Q146 483 150.5 517.5 Q155 552 157 569 L87 569 L103 690 L507 690 Q606 690 651.5 645 Q697 600 697 527 Q697 504 692.5 481 Q688 458 676 436.5 Q664 415 643.5 396.5 Q623 378 592 364 L591 362 Z M311 297 Q309 286 306.5 261 Q304 236 300.5 209 Q297 182 294 157.5 Q291 133 290 122 L383 122 Q431 122 457.5 149 Q484 176 484 221 Q484 252 465 274.5 Q446 297 405 297 L311 297 Z M345 569 Q343 559 340.5 536.5 Q338 514 335 489 Q332 464 329 441.5 Q326 419 325 409 L409 409 Q451 409 476 434.5 Q501 460 501 501 Q501 532 484 550.5 Q467 569 429 569 L345 569 Z " />
<glyph glyph-name="afii10020" unicode="&#x413;" horiz-adv-x="661" d="M18 0 L32 122 L103 122 L158 569 L88 569 L103 690 L706 690 L677 455 L549 455 L563 569 L345 569 L290 122 L379 122 L364 0 L18 0 Z " />
<glyph glyph-name="afii10021" unicode="&#x414;" horiz-adv-x="800" d="M126 0 L103 -185 L-32 -185 L4 119 L70 122 Q106 158 131.5 201 Q157 244 175 294.5 Q193 345 205 403.5 Q217 462 225 529 L230 569 L151 569 L166 690 L809 690 L794 569 L724 569 L669 122 L740 119 L703 -185 L568 -185 L591 0 L126 0 Z M389 515 Q381 448 373 392.5 Q365 337 351.5 289.5 Q338 242 316.5 200.5 Q295 159 260 122 L482 122 L537 569 L395 569 L389 515 Z " />
<glyph glyph-name="afii10022" unicode="&#x415;" horiz-adv-x="692" d="M18 0 L32 122 L102 122 L156 569 L88 569 L103 690 L701 690 L672 455 L544 455 L558 569 L344 569 L324 411 L506 415 L493 295 L310 298 L289 122 L520 122 L535 244 L664 244 L635 0 L18 0 Z " />
<glyph glyph-name="afii10024" unicode="&#x416;" horiz-adv-x="1105" d="M633 121 L699 121 L685 0 L371 0 L385 121 L452 121 L507 569 L440 569 L455 689 L769 689 L754 569 L688 569 L633 121 Z M965 127 L1060 117 L1064 13 Q1049 7 1030 2.5 Q1011 -2 993 -4.5 Q975 -7 959.5 -8.5 Q944 -10 935 -10 Q893 -12 864.5 -0.5 Q836 11 818 48 L684 317 L692 378 L891 639 Q920 677 948 689 Q976 701 1008 701 Q1075 701 1130 669 L1108 565 L1017 558 L853 348 L965 127 Z M290 358 L173 558 L79 564 L77 668 Q106 684 145 692.5 Q184 701 218 701 Q250 701 271.5 688 Q293 675 313 638 L455 378 L447 317 L254 63 Q221 19 190 3.5 Q159 -12 118 -10 Q98 -10 64 -4 Q30 2 2 14 L15 119 L113 128 L290 358 Z " />
<glyph glyph-name="afii10025" unicode="&#x417;" horiz-adv-x="634" d="M220 470 L88 470 L110 659 Q142 672 176.5 681 Q211 690 243 695 Q275 700 303 702.5 Q331 705 350 705 Q397 705 442.5 697 Q488 689 524 670 Q560 651 582 618.5 Q604 586 604 538 Q604 515 597.5 491 Q591 467 577.5 445.5 Q564 424 543.5 405 Q523 386 494 373 L494 372 Q520 362 538.5 346 Q557 330 569 311 Q581 292 586.5 271 Q592 250 592 230 Q592 170 565.5 125.5 Q539 81 494 51.5 Q449 22 388.5 7 Q328 -8 261 -8 Q230 -8 196 -5 Q162 -2 129 4 Q96 10 66 18.5 Q36 27 13 38 L65 163 Q116 146 161 138.5 Q206 131 242 131 Q312 131 351 159 Q390 187 390 241 Q390 301 309 301 L212 301 L225 412 L300 412 Q328 412 349.5 420 Q371 428 384.5 441.5 Q398 455 405 472 Q412 489 412 506 Q412 545 385.5 560 Q359 575 314 575 Q296 575 274.5 571.5 Q253 568 231 563 L220 470 Z " />
<glyph glyph-name="afii10026" unicode="&#x418;" horiz-adv-x="851" d="M546 689 L868 689 L852 569 L780 569 Q766 456 752.5 344.5 Q739 233 725 121 L798 121 L783 0 L464 0 L479 121 L543 121 L576 392 L575 392 L293 152 L289 121 L353 121 L338 0 L16 0 L31 121 L104 121 L158 569 L86 569 L101 689 L423 689 L408 569 L344 569 Q336 502 328 436 Q320 370 312 303 L595 542 L598 569 L530 569 L546 689 Z " />
<glyph glyph-name="afii10028" unicode="&#x41a;" horiz-adv-x="776" d="M289 122 L355 122 L341 0 L18 0 L32 122 L102 122 L157 569 L87 569 L102 690 L424 690 L410 569 L343 569 L289 122 Z M638 125 L728 119 L732 14 Q717 8 698 3.5 Q679 -1 661 -4 Q643 -7 627.5 -8.5 Q612 -10 603 -10 Q556 -12 528.5 0 Q501 12 482 48 L342 321 L349 382 L541 636 Q568 674 596 687.5 Q624 701 659 701 Q693 701 725 693 Q757 685 783 669 L761 565 L685 559 L511 356 L638 125 Z " />
<glyph glyph-name="afii10029" unicode="&#x41b;" horiz-adv-x="793" d="M402 0 L416 122 L477 122 L531 569 L395 569 L387 502 Q374 394 355 304 Q336 214 298 145.5 Q260 77 197 32 Q134 -13 35 -29 L-3 104 Q54 123 91 149.5 Q128 176 152 217 Q176 258 189.5 319 Q203 380 214 469 L226 569 L138 569 L154 691 L804 691 L788 569 L718 569 L663 122 L734 122 L719 0 L402 0 Z " />
<glyph glyph-name="afii10030" unicode="&#x41c;" horiz-adv-x="1012" d="M524 317 Q532 334 541 350.5 Q550 367 559 384 Q580 425 600.5 464.5 Q621 504 643 544 Q649 556 660 575.5 Q671 595 682 617 Q693 639 703.5 658.5 Q714 678 720 690 L1029 690 L1013 569 L951 569 Q937 457 923.5 345 Q910 233 896 121 L958 121 L944 0 L645 0 L659 121 L715 121 L755 451 L752 451 Q744 435 736 419.5 Q728 404 719 388 Q705 359 690 331.5 Q675 304 660 276 L576 120 L425 120 Q412 156 400 193 Q388 230 376 266 L319 451 L316 451 L276 121 L337 121 L322 0 L17 0 L31 121 L103 121 L157 569 L86 569 L101 690 L405 690 L453 537 Q464 502 474 467.5 Q484 433 495 398 L519 317 L524 317 Z " />
<glyph glyph-name="afii10031" unicode="&#x41d;" horiz-adv-x="830" d="M445 0 L460 122 L520 122 L541 298 L312 298 L291 122 L352 122 L337 0 L18 0 L32 122 L103 122 L158 569 L87 569 L102 691 L421 691 L406 569 L345 569 L326 413 L555 413 L575 569 L514 569 L529 691 L848 691 L833 569 L762 569 L708 122 L778 122 L764 0 L445 0 Z " />
<glyph glyph-name="afii10032" unicode="&#x41e;" horiz-adv-x="769" d="M438 705 Q517 705 574 682 Q631 659 668 618.5 Q705 578 722.5 521.5 Q740 465 740 399 Q740 310 715 235 Q690 160 642.5 105 Q595 50 525.5 19.5 Q456 -11 366 -11 Q288 -11 231 11 Q174 33 136.5 72.5 Q99 112 81 167 Q63 222 63 289 Q63 375 86.5 451 Q110 527 157.5 583.5 Q205 640 275 672.5 Q345 705 438 705 Z M428 572 Q381 572 349 547.5 Q317 523 297 482.5 Q277 442 268.5 390.5 Q260 339 260 285 Q260 207 287 164 Q314 121 378 121 Q422 121 453 143 Q484 165 503.5 203.5 Q523 242 532 294.5 Q541 347 541 408 Q541 443 535.5 473 Q530 503 517.5 525 Q505 547 483 559.5 Q461 572 428 572 Z " />
<glyph glyph-name="afii10033" unicode="&#x41f;" horiz-adv-x="830" d="M445 0 L460 122 L520 122 L575 569 L345 569 L291 122 L352 122 L337 0 L18 0 L32 122 L103 122 L158 569 L86 569 L102 691 L848 691 L832 569 L762 569 L708 122 L778 122 L764 0 L445 0 Z " />
<glyph glyph-name="afii10034" unicode="&#x420;" horiz-adv-x="665" d="M452 691 Q513 691 555 677 Q597 663 623.5 637.5 Q650 612 661.5 576 Q673 540 673 497 Q673 449 656.5 404.5 Q640 360 607.5 326.5 Q575 293 526 273 Q477 253 412 253 L304 253 L287 122 L375 122 L361 0 L18 0 L32 122 L100 122 L155 569 L87 569 L102 691 L452 691 Z M342 569 L318 370 L373 370 Q418 370 446 401.5 Q474 433 474 486 Q474 569 395 569 L342 569 Z " />
<glyph glyph-name="afii10035" unicode="&#x421;" horiz-adv-x="648" d="M454 706 Q506 706 553.5 698.5 Q601 691 642 678 L615 456 L486 456 L497 553 Q485 556 472 558 Q459 560 445 560 Q396 560 361.5 541 Q327 522 305 487.5 Q283 453 272.5 405 Q262 357 262 300 Q262 254 272.5 224 Q283 194 303.5 177 Q324 160 355 153 Q386 146 427 146 Q438 146 456 147.5 Q474 149 495 151.5 Q516 154 537.5 157.5 Q559 161 577 165 L599 28 Q574 19 544.5 11.5 Q515 4 483.5 -1 Q452 -6 421 -8.5 Q390 -11 363 -11 Q274 -11 216 11.5 Q158 34 124 73.5 Q90 113 76.5 166 Q63 219 63 279 Q63 355 79 431 Q95 507 138.5 568 Q182 629 258 667.5 Q334 706 454 706 Z " />
<glyph glyph-name="afii10036" unicode="&#x422;" horiz-adv-x="674" d="M140 0 L154 122 L234 122 L289 569 L190 569 L176 453 L48 453 L78 691 L715 691 L686 453 L559 453 L573 569 L474 569 L419 122 L499 122 L484 0 L140 0 Z " />
<glyph glyph-name="afii10037" unicode="&#x423;" horiz-adv-x="713" d="M363 690 L348 568 L293 568 Q295 560 302 539 Q309 518 317.5 495 Q326 472 333 451 Q340 430 342 422 L379 311 L385 311 Q387 317 395 333 Q403 349 412 367 Q421 385 429 401 Q437 417 440 423 L514 568 L456 568 L472 690 L757 690 L742 568 L691 568 L437 97 Q417 61 397.5 38 Q378 15 357 2 Q336 -11 311.5 -16 Q287 -21 257 -21 Q225 -21 188 -16 Q151 -11 107 2 L140 124 Q169 118 191 116.5 Q213 115 226 115 Q243 115 256 123.5 Q269 132 281 152 L304 197 L258 197 Q255 208 243.5 236.5 Q232 265 217 303 Q202 341 184.5 382.5 Q167 424 152 462 Q137 500 125.5 528.5 Q114 557 111 568 L62 568 L77 690 L363 690 Z " />
<glyph glyph-name="afii10038" unicode="&#x424;" horiz-adv-x="887" d="M402 520 Q366 516 335.5 499.5 Q305 483 283.5 457.5 Q262 432 250 398 Q238 364 238 325 Q238 268 268.5 232 Q299 196 361 187 L402 520 Z M542 187 Q575 191 604 206.5 Q633 222 655 246.5 Q677 271 689.5 305 Q702 339 702 380 Q702 436 673.5 475 Q645 514 584 520 L542 187 Z M599 649 Q671 644 725 622.5 Q779 601 815 566 Q851 531 868.5 483.5 Q886 436 886 381 Q886 312 860 255 Q834 198 786.5 156 Q739 114 673 89 Q607 64 527 58 L520 0 L338 0 L345 58 Q202 65 128 135.5 Q54 206 54 322 Q54 388 81 445.5 Q108 503 156.5 547.5 Q205 592 271.5 619 Q338 646 417 650 L423 691 L604 691 L599 649 Z " />
<glyph glyph-name="afii10039" unicode="&#x425;" horiz-adv-x="742" d="M503 691 L783 691 L768 568 L718 568 L518 342 L652 123 L715 123 L701 0 L363 0 L378 123 L424 123 L346 264 L232 123 L283 123 L269 0 L-9 0 L6 123 L53 123 L257 371 L143 567 L67 567 L82 691 L422 691 L407 567 L360 567 L431 442 L539 568 L488 568 L503 691 Z " />
<glyph glyph-name="afii10040" unicode="&#x426;" horiz-adv-x="830" d="M760 568 Q747 456 733.5 344 Q720 232 706 120 L805 120 Q795 44 786 -31.5 Q777 -107 768 -184 L633 -184 L656 0 L16 0 Q21 29 24 59.5 Q27 90 31 120 L102 120 L157 568 L86 568 L101 689 L420 689 L405 568 L344 568 L289 120 L519 120 L573 568 L513 568 L528 689 L846 689 L831 568 L760 568 L760 568 Z " />
<glyph glyph-name="afii10041" unicode="&#x427;" horiz-adv-x="791" d="M719 0 L394 0 L408 121 L478 121 L497 269 Q458 261 417.5 257 Q377 253 338 253 Q291 253 250 262 Q209 271 178.5 291 Q148 311 130 342 Q112 373 112 417 Q112 455 118 493 Q124 531 129 569 L62 569 Q66 599 70 629 Q74 659 77 690 L391 690 L376 569 L316 569 L304 474 Q298 426 323.5 405.5 Q349 385 395 385 Q424 385 454 389 Q484 393 513 401 Q518 443 523 485 Q528 527 533 569 L473 569 Q477 599 481 629 Q485 659 488 690 L803 690 Q800 659 796 629 Q792 599 789 569 L719 569 Q706 456 692.5 344.5 Q679 233 665 121 L734 121 L719 0 Z " />
<glyph glyph-name="afii10042" unicode="&#x428;" horiz-adv-x="1134" d="M519 568 L465 568 L480 690 L769 690 L754 568 L699 568 L645 121 L831 121 L886 568 L828 568 L843 690 L1151 690 L1135 568 L1066 568 L1011 121 L1081 121 L1066 0 L18 0 L32 121 L103 121 L158 568 L87 568 L102 690 L411 690 L396 568 L338 568 L283 121 L465 121 L519 568 Z " />
<glyph glyph-name="afii10043" unicode="&#x429;" horiz-adv-x="1134" d="M519 568 L465 568 L480 690 L769 690 L754 568 L699 568 L645 121 L831 121 L886 568 L828 568 L843 690 L1151 690 L1135 568 L1066 568 L1011 121 L1109 121 L1072 -185 L937 -185 L960 0 L18 0 L32 121 L103 121 L158 568 L87 568 L102 690 L411 690 L396 568 L338 568 L283 121 L465 121 L519 568 Z " />
<glyph glyph-name="afii10044" unicode="&#x42a;" horiz-adv-x="877" d="M485 431 L603 431 Q649 431 692 422 Q735 413 768 391 Q801 369 820.5 333 Q840 297 840 243 Q840 181 820 135 Q800 89 765 59 Q730 29 682.5 14.5 Q635 0 579 0 L175 0 L190 122 L260 122 L315 569 L191 569 L177 454 L48 454 L78 690 L587 690 L571 569 L503 569 L485 431 Z M471 311 L448 122 L543 122 Q585 122 614 151.5 Q643 181 643 234 Q643 271 620.5 291 Q598 311 560 311 L471 311 Z " />
<glyph glyph-name="afii10045" unicode="&#x42b;" horiz-adv-x="1089" d="M313 311 L291 122 L385 122 Q428 122 457 151.5 Q486 181 486 234 Q486 271 463.5 291 Q441 311 403 311 L313 311 Z M416 569 L345 569 L328 431 L445 431 Q492 431 535 422 Q578 413 610.5 391 Q643 369 662.5 333 Q682 297 682 243 Q682 182 662 136.5 Q642 91 607 60.5 Q572 30 524.5 15 Q477 0 421 0 L18 0 L32 122 L103 122 L157 569 L87 569 L102 691 L432 691 L416 569 Z M695 0 L710 122 L780 122 L835 569 L765 569 L780 690 L1104 690 L1089 569 L1021 569 L967 122 L1035 122 L1020 0 L695 0 Z " />
<glyph glyph-name="afii10046" unicode="&#x42c;" horiz-adv-x="725" d="M318 311 L296 122 L390 122 Q433 122 462 151.5 Q491 181 491 234 Q491 271 468.5 291 Q446 311 408 311 L318 311 Z M421 569 L350 569 L333 431 L450 431 Q496 431 539 422 Q582 413 615 391.5 Q648 370 668 334.5 Q688 299 688 246 Q688 183 668 136.5 Q648 90 613 60 Q578 30 530 15 Q482 0 426 0 L23 0 L37 122 L108 122 L162 569 L92 569 L107 691 L437 691 L421 569 Z " />
<glyph glyph-name="afii10047" unicode="&#x42d;" horiz-adv-x="647" d="M217 296 L233 415 L423 412 Q425 420 425 426.5 Q425 433 425 440 Q425 495 394.5 528.5 Q364 562 295 562 Q281 562 262.5 560 Q244 558 231 555 L221 473 L91 473 Q98 524 104 574.5 Q110 625 116 676 Q160 690 211.5 697.5 Q263 705 315 705 Q405 705 463.5 681 Q522 657 556.5 616.5 Q591 576 605 521.5 Q619 467 619 407 Q619 328 599 253 Q579 178 534 119.5 Q489 61 415.5 25.5 Q342 -10 235 -10 Q180 -10 125.5 -1 Q71 8 26 27 L69 161 Q86 157 106 153.5 Q126 150 145 147 Q164 144 181.5 142.5 Q199 141 211 141 Q296 141 345.5 179.5 Q395 218 409 299 L217 296 Z " />
<glyph glyph-name="afii10048" unicode="&#x42e;" horiz-adv-x="1115" d="M796 704 Q874 704 929 681.5 Q984 659 1019 619 Q1054 579 1070 523.5 Q1086 468 1086 402 Q1086 313 1062.5 237.5 Q1039 162 993.5 107 Q948 52 879.5 21 Q811 -10 721 -10 Q647 -10 591.5 10 Q536 30 499.5 67 Q463 104 444.5 155 Q426 206 426 268 Q426 275 426 282 Q426 289 427 297 L311 297 L289 121 L350 121 L336 0 L17 0 L31 121 L102 121 L157 569 L86 569 L101 689 L422 689 L406 569 L344 569 L325 411 L442 411 Q457 474 485.5 527.5 Q514 581 557.5 620 Q601 659 660 681.5 Q719 704 796 704 Z M781 571 Q735 571 703.5 545.5 Q672 520 652.5 478.5 Q633 437 624.5 384.5 Q616 332 616 277 Q616 202 642.5 161 Q669 120 733 120 Q776 120 806.5 142.5 Q837 165 856.5 204 Q876 243 885.5 296 Q895 349 895 410 Q895 445 889.5 474.5 Q884 504 870.5 525.5 Q857 547 835 559 Q813 571 781 571 Z " />
<glyph glyph-name="afii10049" unicode="&#x42f;" horiz-adv-x="737" d="M407 569 Q387 569 368.5 563 Q350 557 336 543.5 Q322 530 313.5 509.5 Q305 489 305 460 Q305 437 313.5 423 Q322 409 334.5 401 Q347 393 363 390 Q379 387 394 387 L460 387 L482 569 L407 569 Z M363 271 L259 78 Q235 32 206 9 Q177 -14 125 -14 Q115 -14 99.5 -13 Q84 -12 66.5 -9.5 Q49 -7 31.5 -3 Q14 1 0 6 L8 109 L95 121 L199 304 Q174 314 157 331.5 Q140 349 129.5 370.5 Q119 392 114.5 415 Q110 438 110 461 Q110 508 125.5 549.5 Q141 591 173 622.5 Q205 654 254.5 672.5 Q304 691 372 691 L748 691 L733 569 L668 569 L613 122 L679 122 L665 0 L352 0 L366 122 L428 122 L446 271 L363 271 Z " />
<glyph glyph-name="afii10065" unicode="&#x430;" horiz-adv-x="657" d="M315 504 Q345 504 376 496.5 Q407 489 436 473 L457 502 L595 495 Q577 382 564 292.5 Q551 203 542 122 Q561 124 576 128.5 Q591 133 609 141 L644 56 Q626 40 604 26.5 Q582 13 558.5 3.5 Q535 -6 511.5 -11.5 Q488 -17 468 -17 Q414 -17 390 3 Q366 23 366 63 Q366 79 371 102 L366 102 Q321 36 276.5 11.5 Q232 -13 183 -13 Q117 -13 78.5 29.5 Q40 72 40 158 Q40 230 57.5 293 Q75 356 109.5 403 Q144 450 195.5 477 Q247 504 315 504 Z M267 111 Q280 111 294.5 117.5 Q309 124 323.5 141.5 Q338 159 353 188.5 Q368 218 382 263 L398 361 Q377 368 359 370 Q341 372 329 372 Q299 372 278 354.5 Q257 337 244 310 Q231 283 225 250.5 Q219 218 219 188 Q219 149 232.5 130 Q246 111 267 111 Z " />
<glyph glyph-name="afii10066" unicode="&#x431;" horiz-adv-x="599" d="M385 485 Q434 485 469.5 470.5 Q505 456 527.5 430 Q550 404 560.5 367 Q571 330 571 284 Q571 229 554 176.5 Q537 124 500.5 82.5 Q464 41 407 15.5 Q350 -10 271 -10 Q200 -10 154.5 7.5 Q109 25 83 55 Q57 85 47 126 Q37 167 37 215 Q37 241 39.5 273 Q42 305 47 338 Q52 371 58 403.5 Q64 436 72 463 Q103 570 155 627 Q207 684 281 705 Q309 713 339.5 717.5 Q370 722 402.5 725.5 Q435 729 469 732.5 Q503 736 536 743 L555 619 Q499 606 447.5 602 Q396 598 359 590 Q327 584 303.5 571.5 Q280 559 263 536.5 Q246 514 234.5 481 Q223 448 216 401 Q218 400 219 399 Q220 398 222 398 Q244 426 267.5 443 Q291 460 313 469.5 Q335 479 354 482 Q373 485 385 485 Z M281 120 Q304 120 322 132 Q340 144 352.5 166 Q365 188 371.5 218 Q378 248 378 283 Q378 324 362.5 342 Q347 360 321 360 Q299 360 270.5 341 Q242 322 222 283 Q217 257 215.5 237.5 Q214 218 214 206 Q214 189 217 173.5 Q220 158 227.5 146 Q235 134 248 127 Q261 120 281 120 Z " />
<glyph glyph-name="afii10067" unicode="&#x432;" horiz-adv-x="570" d="M259 -12 Q206 -12 148.5 -3 Q91 6 28 36 L17 55 L43 280 Q47 328 65.5 369.5 Q84 411 116.5 441.5 Q149 472 196 489.5 Q243 507 305 507 Q342 507 378.5 499 Q415 491 443.5 474.5 Q472 458 489.5 433 Q507 408 508 374 Q508 349 497.5 321 Q487 293 450 271 L450 269 Q475 264 491 254 Q507 244 517 230.5 Q527 217 531 202.5 Q535 188 535 175 Q535 130 515.5 95.5 Q496 61 460 37 Q424 13 373 0.5 Q322 -12 259 -12 Z M267 109 Q283 109 299 112 Q315 115 328 122 Q341 129 349 141.5 Q357 154 357 173 Q357 193 340 206 Q323 219 291 219 L259 219 L269 301 L299 301 Q326 301 339.5 315 Q353 329 353 350 Q353 367 341 380.5 Q329 394 303 394 Q262 394 242.5 362.5 Q223 331 218 283 L199 120 Q214 115 233 112 Q252 109 267 109 Z " />
<glyph glyph-name="afii10068" unicode="&#x433;" horiz-adv-x="512" d="M309 504 Q391 504 436 472.5 Q481 441 481 379 Q481 348 465 321.5 Q449 295 421.5 272 Q394 249 357 229 Q320 209 278 191 Q249 179 230.5 166.5 Q212 154 212 134 Q212 120 223 115 Q234 110 260 110 Q289 110 334.5 122.5 Q380 135 430 156 L470 60 Q440 40 407 26 Q374 12 341.5 3 Q309 -6 278 -10 Q247 -14 222 -14 Q129 -14 81 15.5 Q33 45 33 115 Q33 149 51 177 Q69 205 97 227.5 Q125 250 160 268.5 Q195 287 229 303 Q261 319 278.5 332.5 Q296 346 296 360 Q296 375 286 380.5 Q276 386 260 386 Q234 386 195 374.5 Q156 363 113 345 L76 438 Q127 470 189 487 Q251 504 309 504 Z " />
<glyph glyph-name="afii10069" unicode="&#x434;" horiz-adv-x="628" d="M316 739 Q392 739 445 719 Q498 699 530 662.5 Q562 626 576.5 573.5 Q591 521 591 456 Q591 426 588 380 Q585 334 575.5 282 Q566 230 546 178 Q526 126 491.5 84 Q457 42 405.5 16 Q354 -10 280 -10 Q208 -10 160.5 6 Q113 22 85 49.5 Q57 77 45.5 115 Q34 153 34 198 Q34 256 50.5 310 Q67 364 99.5 405 Q132 446 181 471 Q230 496 295 496 Q324 496 354.5 491 Q385 486 413 471 L415 473 Q421 535 397.5 570.5 Q374 606 309 606 Q297 606 284.5 605.5 Q272 605 257 603.5 Q242 602 221.5 598.5 Q201 595 172 588 Q167 618 159.5 648 Q152 678 147 708 Q195 724 237.5 731.5 Q280 739 316 739 Z M394 351 Q377 359 359 361 Q341 363 326 363 Q299 363 279 349.5 Q259 336 246.5 313.5 Q234 291 227.5 261 Q221 231 221 198 Q221 160 234.5 140 Q248 120 280 120 Q304 120 323.5 131.5 Q343 143 357.5 170 Q372 197 381 241 Q390 285 394 351 Z " />
<glyph glyph-name="afii10070" unicode="&#x435;" horiz-adv-x="543" d="M340 506 Q375 506 406.5 497.5 Q438 489 461.5 471 Q485 453 499 426 Q513 399 513 362 Q513 332 500 302.5 Q487 273 454 249.5 Q421 226 363.5 209.5 Q306 193 217 189 Q217 184 216.5 180 Q216 176 216 171 Q216 145 231.5 128 Q247 111 296 111 Q330 111 369.5 120 Q409 129 443 140 L474 40 Q450 26 421.5 16.5 Q393 7 363.5 1 Q334 -5 305 -8 Q276 -11 251 -11 Q185 -11 144 5 Q103 21 79.5 49 Q56 77 48 113 Q40 149 40 190 Q40 248 55 304.5 Q70 361 105.5 406 Q141 451 198.5 478.5 Q256 506 340 506 Z M314 381 Q272 381 248.5 350 Q225 319 220 264 Q352 270 352 341 Q352 359 343 370 Q334 381 314 381 Z " />
<glyph glyph-name="afii10072" unicode="&#x436;" horiz-adv-x="954" d="M171 503 Q200 503 234 482 Q268 461 299 428 Q330 395 354 353 Q378 311 389 269 L383 224 Q359 185 333.5 146.5 Q308 108 279 72 Q242 24 208.5 3.5 Q175 -17 133 -17 Q95 -17 62 6.5 Q29 30 2 72 L64 139 Q78 130 88.5 123 Q99 116 115 111 Q134 130 151 149 Q168 168 185 188 Q202 208 219.5 230.5 Q237 253 257 279 Q248 299 234.5 316.5 Q221 334 206 347.5 Q191 361 176 368.5 Q161 376 148 376 Q127 376 102 363 L57 426 Q64 440 73.5 454 Q83 468 97 479 Q111 490 129 496.5 Q147 503 171 503 Z M542 509 Q572 508 589.5 494 Q607 480 607 452 Q607 444 603.5 415.5 Q600 387 595 345.5 Q590 304 583.5 255 Q577 206 570 158 Q563 110 557.5 68.5 Q552 27 548 0 L371 0 Q378 55 384.5 103.5 Q391 152 397 198 Q403 244 408.5 288.5 Q414 333 420 380 L371 387 L378 480 Q407 489 429.5 494.5 Q452 500 471 503 Q490 506 507 507.5 Q524 509 542 509 Z M840 504 Q863 504 879 497 Q895 490 905.5 479 Q916 468 921.5 454.5 Q927 441 929 427 L871 365 Q848 378 829 378 Q816 378 803 371 Q790 364 776.5 352 Q763 340 750.5 324 Q738 308 726 290 Q757 230 786 182.5 Q815 135 836 111 Q853 116 866 123.5 Q879 131 893 140 L940 75 Q901 27 858.5 4.5 Q816 -18 776 -18 Q748 -18 723.5 2.5 Q699 23 677 57 Q655 91 635 135 Q615 179 597 227 L604 279 Q628 330 658 371.5 Q688 413 720 442.5 Q752 472 783 488 Q814 504 840 504 Z " />
<glyph glyph-name="afii10073" unicode="&#x437;" horiz-adv-x="520" d="M271 505 Q326 505 366 495.5 Q406 486 431.5 469.5 Q457 453 469 430 Q481 407 481 381 Q481 368 477 352.5 Q473 337 463 321.5 Q453 306 437 291.5 Q421 277 396 267 L396 262 Q421 256 437.5 244 Q454 232 464.5 217.5 Q475 203 479.5 186.5 Q484 170 484 154 Q484 119 467.5 89 Q451 59 418 36.5 Q385 14 335.5 1 Q286 -12 220 -12 Q153 -12 98 -3 Q43 6 12 20 L45 131 Q84 120 121.5 114.5 Q159 109 188 109 Q237 109 268.5 124 Q300 139 300 173 Q300 216 244 216 L195 216 L203 297 L238 297 Q267 297 284 311.5 Q301 326 301 349 Q301 372 284 381.5 Q267 391 239 391 Q225 391 211 388.5 Q197 386 187 382 Q179 364 171 345.5 Q163 327 155 308 L63 316 Q62 341 60.5 370 Q59 399 61 428 Q63 452 84 465 Q105 478 129 486 Q163 497 203 501 Q243 505 271 505 Z " />
<glyph glyph-name="afii10074" unicode="&#x438;" horiz-adv-x="690" d="M225 504 Q271 504 289 484 Q307 464 307 427 Q307 415 302.5 380 Q298 345 292.5 304 Q287 263 282.5 225.5 Q278 188 278 172 Q278 154 285.5 141 Q293 128 314 128 Q327 128 341 136 Q355 144 369 161.5 Q383 179 396 207 Q409 235 420 275 L449 492 L622 492 L573 121 Q592 122 608.5 127 Q625 132 642 138 L676 55 Q655 37 631 23.5 Q607 10 583 1 Q559 -8 536 -12 Q513 -16 495 -16 Q442 -16 422.5 6.5 Q403 29 403 67 Q403 76 403.5 85 Q404 94 404 102 L399 102 Q375 67 350.5 45 Q326 23 301 10.5 Q276 -2 252.5 -7 Q229 -12 207 -12 Q152 -12 120.5 13.5 Q89 39 89 94 Q90 103 89.5 113.5 Q89 124 91 136 Q91 142 93.5 159.5 Q96 177 99 201 Q102 225 105.5 252.5 Q109 280 112.5 304.5 Q116 329 118.5 348 Q121 367 122 375 L39 388 L47 473 Q106 490 149.5 497 Q193 504 225 504 Z " />
<glyph glyph-name="afii10076" unicode="&#x43a;" horiz-adv-x="651" d="M211 509 Q262 509 279 486.5 Q296 464 296 426 Q296 418 293 391.5 Q290 365 285 327 Q280 289 273.5 243.5 Q267 198 261 153 Q255 108 248.5 68 Q242 28 238 0 L62 0 Q69 55 75.5 103.5 Q82 152 87.5 197 Q93 242 98.5 286 Q104 330 110 377 Q90 381 71.5 384 Q53 387 33 390 L39 477 Q97 494 138 501.5 Q179 509 211 509 Z M540 504 Q561 504 576.5 497 Q592 490 602.5 479 Q613 468 619.5 454 Q626 440 629 427 L563 364 Q541 377 520 377 Q489 377 466 355.5 Q443 334 417 301 Q432 273 448 244 Q464 215 479.5 189.5 Q495 164 509 143.5 Q523 123 533 111 Q550 116 563.5 124 Q577 132 591 140 L637 73 Q597 25 555 4 Q513 -17 478 -17 Q439 -17 415 7 Q391 31 362 79 Q340 116 321.5 157 Q303 198 286 235 L293 286 Q316 333 347.5 373 Q379 413 412.5 442 Q446 471 479.5 487.5 Q513 504 540 504 Z " />
<glyph glyph-name="afii10077" unicode="&#x43b;" horiz-adv-x="659" d="M10 12 Q40 71 70.5 128 Q101 185 132 243 Q163 301 194 361 Q225 421 257 486 L478 504 L494 491 Q506 384 520 294.5 Q534 205 555 124 Q571 126 586 131 Q601 136 615 144 L648 60 Q607 25 562 5 Q517 -15 479 -15 Q434 -15 410.5 0.5 Q387 16 376 62 Q363 125 356.5 193 Q350 261 344 339 L338 339 Q300 250 266 168.5 Q232 87 192 0 L20 0 L10 12 Z " />
<glyph glyph-name="afii10078" unicode="&#x43c;" horiz-adv-x="895" d="M442 190 Q475 273 505.5 345.5 Q536 418 571 490 L763 508 Q766 504 770 500.5 Q774 497 777 494 Q776 473 776 452 Q776 431 776 410 Q776 329 778.5 256.5 Q781 184 789 121 Q807 123 821.5 128 Q836 133 851 141 Q859 119 867.5 98.5 Q876 78 884 57 Q835 17 786 1.5 Q737 -14 700 -14 Q661 -14 641.5 1 Q622 16 614.5 40 Q607 64 607 94.5 Q607 125 607 155 Q607 206 610 278 Q608 278 607.5 278.5 Q607 279 605 279 Q589 243 577 215 Q565 187 554 159.5 Q543 132 531 102 Q519 72 503 33 L342 20 L318 36 Q307 96 299.5 162 Q292 228 286 303 Q284 303 283.5 303.5 Q283 304 281 304 Q260 244 236 166 Q212 88 184 0 L23 0 L11 17 Q35 83 59 148 Q83 213 106 274 Q129 335 151.5 390 Q174 445 195 490 Q243 495 287.5 499.5 Q332 504 379 509 Q386 503 392 497 Q398 491 405 486 Q409 436 412.5 397 Q416 358 419 323.5 Q422 289 426 257 Q430 225 436 190 L442 190 Z " />
<glyph glyph-name="afii10079" unicode="&#x43d;" horiz-adv-x="712" d="M643 491 Q639 462 632 413 Q625 364 617.5 310 Q610 256 602.5 205 Q595 154 591 121 Q611 122 629.5 127 Q648 132 663 138 L697 55 Q674 34 648 20.5 Q622 7 597 -1 Q572 -9 549 -12.5 Q526 -16 509 -16 Q478 -16 458.5 -8.5 Q439 -1 427.5 12 Q416 25 411.5 43 Q407 61 407 82 Q407 110 411.5 141.5 Q416 173 421 203 L278 203 L248 0 L68 0 Q78 71 91.5 164 Q105 257 120 374 Q99 377 78 380.5 Q57 384 37 388 Q38 409 39.5 430.5 Q41 452 42 473 Q102 490 145.5 497 Q189 504 221 504 Q269 504 288 487 Q307 470 307 434 Q307 423 303 386.5 Q299 350 291 302 L436 302 L462 491 L643 491 L643 491 Z " />
<glyph glyph-name="afii10080" unicode="&#x43e;" horiz-adv-x="605" d="M335 504 Q397 504 442.5 487.5 Q488 471 517.5 442 Q547 413 561 372 Q575 331 575 283 Q575 223 556.5 170 Q538 117 501.5 77 Q465 37 409 13.5 Q353 -10 278 -10 Q216 -10 171 6 Q126 22 97 51 Q68 80 54 119.5 Q40 159 40 207 Q40 268 58.5 322 Q77 376 113.5 416.5 Q150 457 205.5 480.5 Q261 504 335 504 Z M324 375 Q295 375 276 358 Q257 341 245.5 315 Q234 289 229.5 258 Q225 227 225 199 Q225 163 239 139 Q253 115 291 115 Q318 115 336.5 130 Q355 145 366.5 169.5 Q378 194 383 225 Q388 256 388 288 Q388 326 374.5 350.5 Q361 375 324 375 Z " />
<glyph glyph-name="afii10081" unicode="&#x43f;" horiz-adv-x="697" d="M500 505 Q556 505 585 471.5 Q614 438 614 378 Q614 367 611 340 Q608 313 604 278 Q600 243 594.5 202 Q589 161 585 122 Q603 123 618 127.5 Q633 132 650 139 Q651 138 656 125 Q661 112 667 97 Q673 82 678 69 Q683 56 684 55 Q661 36 635.5 22.5 Q610 9 584.5 0 Q559 -9 535.5 -13 Q512 -17 495 -17 Q465 -17 447 -11.5 Q429 -6 418.5 5.5 Q408 17 404.5 33.5 Q401 50 401 71 Q401 75 401.5 85.5 Q402 96 403 104 Q407 138 411.5 173 Q416 208 420 238.5 Q424 269 426.5 291.5 Q429 314 429 324 Q429 341 421 354.5 Q413 368 392 368 Q362 368 332 331 Q302 294 281 222 L252 0 L74 0 Q80 49 84.5 84 Q89 119 92 146 Q95 173 98 195.5 Q101 218 103.5 243 Q106 268 109.5 298.5 Q113 329 118 373 L37 387 L43 473 Q103 492 142 498 Q181 504 213 504 Q240 504 256.5 499 Q273 494 281.5 485 Q290 476 293 463 Q296 450 296 434 Q296 410 290 374 L295 374 Q320 414 348.5 439.5 Q377 465 405 479.5 Q433 494 457.5 499.5 Q482 505 500 505 Z " />
<glyph glyph-name="afii10082" unicode="&#x440;" horiz-adv-x="648" d="M0 -93 L57 -93 Q63 -39 71 23 Q79 85 86.5 147 Q94 209 101 267 Q108 325 113 372 L32 386 L38 472 Q80 488 127 496.5 Q174 505 212 505 Q259 505 275 485.5 Q291 466 290 432 Q290 419 284 374 L289 374 Q335 444 382.5 473 Q430 502 478 502 Q540 502 577.5 458.5 Q615 415 615 323 Q615 253 598 191.5 Q581 130 547 84.5 Q513 39 462.5 12.5 Q412 -14 345 -14 Q322 -14 298 -9 Q274 -4 250 4 L237 -93 L310 -93 L296 -211 L-14 -211 L0 -93 Z M390 365 Q376 365 361.5 358.5 Q347 352 332 335 Q317 318 302 288.5 Q287 259 274 214 L262 128 Q282 121 300 118.5 Q318 116 330 116 Q361 116 381.5 132 Q402 148 414.5 173 Q427 198 432.5 227.5 Q438 257 438 284 Q438 326 424.5 345.5 Q411 365 390 365 Z " />
<glyph glyph-name="afii10083" unicode="&#x441;" horiz-adv-x="517" d="M324 505 Q340 505 357.5 503.5 Q375 502 391 499.5 Q407 497 420.5 493.5 Q434 490 442 487 Q468 476 479.5 461.5 Q491 447 491 426 Q491 415 488 398.5 Q485 382 480 363 Q475 344 469 325.5 Q463 307 456 291 Q453 291 438.5 292 Q424 293 407.5 294 Q391 295 376.5 295.5 Q362 296 360 296 Q360 300 360 311 Q360 322 360.5 334.5 Q361 347 361 358 Q361 369 361 373 Q355 375 346.5 376 Q338 377 330 377 Q304 377 284.5 364.5 Q265 352 252 330.5 Q239 309 232.5 279 Q226 249 226 214 Q226 165 247 143 Q268 121 312 121 Q362 121 432 138 L461 28 Q441 19 415.5 12 Q390 5 362.5 -0.5 Q335 -6 307 -8.5 Q279 -11 254 -11 Q191 -11 149.5 4 Q108 19 83.5 46 Q59 73 49.5 109 Q40 145 40 187 Q40 240 52.5 296.5 Q65 353 97.5 399.5 Q130 446 185 475.5 Q240 505 324 505 Z " />
<glyph glyph-name="afii10084" unicode="&#x442;" horiz-adv-x="980" d="M597 378 Q621 415 646.5 439.5 Q672 464 696.5 478.5 Q721 493 743 499 Q765 505 783 505 Q837 505 867 473.5 Q897 442 897 383 Q897 375 894 349.5 Q891 324 887 288 Q883 252 877.5 208.5 Q872 165 868 122 Q887 123 901.5 127.5 Q916 132 933 139 L967 56 Q945 37 920 23.5 Q895 10 870.5 1 Q846 -8 823.5 -12.5 Q801 -17 783 -17 Q723 -17 703.5 6.5 Q684 30 684 69 Q684 77 684.5 85 Q685 93 686 101 Q696 188 704 246.5 Q712 305 712 325 Q712 342 706 355.5 Q700 369 679 369 Q651 369 625 330 Q599 291 581 222 Q575 178 570 138 Q565 98 561.5 67.5 Q558 37 555.5 19 Q553 1 553 0 L375 0 Q386 87 393.5 145.5 Q401 204 405 240.5 Q409 277 410.5 296 Q412 315 412 324 Q412 341 405.5 354.5 Q399 368 378 368 Q351 368 325 330 Q299 292 281 222 L252 0 L73 0 Q79 49 83.5 84 Q88 119 91.5 146 Q95 173 98 195.5 Q101 218 103.5 243 Q106 268 109.5 298.5 Q113 329 118 373 L37 388 Q38 409 39.5 430.5 Q41 452 42 473 Q102 492 141.5 498 Q181 504 212 504 Q239 504 255 499 Q271 494 280 485 Q289 476 292 464 Q295 452 295 438 Q295 426 293.5 410 Q292 394 290 374 L295 374 Q320 414 346.5 439.5 Q373 465 398 479.5 Q423 494 445 499.5 Q467 505 485 505 Q539 505 565.5 474.5 Q592 444 592 389 Q592 386 591.5 383.5 Q591 381 591 378 L597 378 Z " />
<glyph glyph-name="afii10085" unicode="&#x443;" horiz-adv-x="626" d="M513 507 Q552 507 574.5 481.5 Q597 456 597 395 Q597 329 574 257.5 Q551 186 510.5 116.5 Q470 47 415 -16 Q360 -79 296 -126.5 Q232 -174 161.5 -202 Q91 -230 21 -230 Q4 -230 -18.5 -226 Q-41 -222 -61 -211 Q-81 -200 -95 -180.5 Q-109 -161 -109 -129 Q-109 -124 -109 -119 Q-109 -114 -108 -109 L-42 -70 Q-16 -95 7.5 -102.5 Q31 -110 57 -110 Q97 -110 142.5 -94 Q188 -78 226 -43 Q214 5 200.5 60 Q187 115 172.5 169.5 Q158 224 144.5 273.5 Q131 323 119 360 L47 346 L22 425 Q70 465 116 483 Q162 501 194 501 Q223 501 240.5 491 Q258 481 266 453 Q273 424 283.5 378.5 Q294 333 305.5 283 Q317 233 327 183.5 Q337 134 345 97 Q364 124 379 159.5 Q394 195 404 232.5 Q414 270 419.5 306.5 Q425 343 425 373 Q410 371 395 369 Q380 367 365 365 L348 445 Q391 475 431 491 Q471 507 513 507 Z " />
<glyph glyph-name="afii10086" unicode="&#x444;" horiz-adv-x="809" d="M457 732 Q509 732 528.5 714.5 Q548 697 548 663 Q548 650 543 607 Q538 564 530 504 Q594 503 641 487 Q688 471 719 442 Q750 413 764.5 372.5 Q779 332 779 282 Q779 220 759 167.5 Q739 115 700 77 Q661 39 602.5 16.5 Q544 -6 466 -9 L455 -98 L519 -98 L505 -211 L202 -211 L215 -98 L277 -98 L288 -9 Q212 -7 163.5 13.5 Q115 34 87.5 65.5 Q60 97 50 136 Q40 175 40 214 Q40 277 60.5 330 Q81 383 121 421 Q161 459 218.5 480.5 Q276 502 351 504 Q352 510 353.5 523.5 Q355 537 357 552 Q359 567 360.5 581 Q362 595 362 601 L271 615 Q271 617 272 630 Q273 643 274 658 Q275 673 276 686 Q277 699 277 701 Q336 718 381.5 725 Q427 732 457 732 Z M607 276 Q607 320 587 350.5 Q567 381 515 385 Q513 374 510.5 352.5 Q508 331 504.5 304 Q501 277 497.5 247 Q494 217 490.5 190 Q487 163 484.5 141.5 Q482 120 481 109 Q541 114 574 157 Q607 200 607 276 Z M210 218 Q210 117 303 109 L336 385 Q303 382 279 367 Q255 352 240 329.5 Q225 307 217.5 278 Q210 249 210 218 Z " />
<glyph glyph-name="afii10087" unicode="&#x445;" horiz-adv-x="622" d="M123 -22 Q119 -22 115.5 -22.5 Q112 -23 107 -23 Q84 2 62 28 Q40 54 17 80 Q17 85 17.5 90.5 Q18 96 18 101 L210 250 Q196 276 183.5 302 Q171 328 157 354 L80 334 Q70 354 61 374 Q52 394 41 414 Q97 464 144.5 483 Q192 502 229 502 Q254 502 270.5 491.5 Q287 481 300.5 462.5 Q314 444 326.5 419 Q339 394 356 364 Q387 399 417 433.5 Q447 468 479 503 L498 503 Q544 455 589 403 L587 385 Q544 351 501 316.5 Q458 282 415 247 L473 133 Q494 138 510.5 145 Q527 152 545 163 L607 89 Q583 56 556.5 35 Q530 14 504.5 2 Q479 -10 456 -14 Q433 -18 417 -18 Q387 -18 367.5 -8.5 Q348 1 332.5 20 Q317 39 303 67.5 Q289 96 270 134 Q234 94 197.5 55 Q161 16 123 -22 Z " />
<glyph glyph-name="afii10088" unicode="&#x446;" horiz-adv-x="728" d="M589 1 Q588 3 587 3 Q586 3 584 5 Q561 -6 536.5 -11 Q512 -16 497 -16 Q445 -16 424 7 Q403 30 403 79 Q403 85 403.5 90.5 Q404 96 404 102 L399 102 Q375 67 350 44.5 Q325 22 300 9.5 Q275 -3 251 -7.5 Q227 -12 206 -12 Q152 -12 120.5 14 Q89 40 89 94 Q89 106 92.5 139.5 Q96 173 101.5 214.5 Q107 256 112.5 299 Q118 342 122 374 Q102 377 81 380.5 Q60 384 39 388 L47 473 Q106 490 149.5 497 Q193 504 225 504 Q272 504 289.5 484.5 Q307 465 307 424 Q307 413 302.5 378 Q298 343 292.5 302.5 Q287 262 282.5 225 Q278 188 278 172 Q278 154 285.5 141 Q293 128 314 128 Q341 128 369.5 162.5 Q398 197 420 280 Q428 333 434.5 386 Q441 439 448 492 L623 492 Q617 447 610 398.5 Q603 350 596.5 302 Q590 254 584 207.5 Q578 161 573 121 Q593 122 617 129 Q641 136 657 144 L721 75 Q702 10 684.5 -55 Q667 -120 648 -186 L526 -186 L519 -175 Q526 -154 534.5 -131 Q543 -108 552.5 -84.5 Q562 -61 571.5 -39 Q581 -17 589 1 Z " />
<glyph glyph-name="afii10089" unicode="&#x447;" horiz-adv-x="697" d="M621 493 Q617 461 611.5 417.5 Q606 374 600.5 325 Q595 276 589 223.5 Q583 171 577 122 Q595 123 614 127.5 Q633 132 649 139 Q650 138 655 125 Q660 112 666 97 Q672 82 677.5 69 Q683 56 684 55 Q663 37 638 23.5 Q613 10 587.5 1 Q562 -8 538 -12.5 Q514 -17 496 -17 Q437 -17 414.5 7.5 Q392 32 392 73 Q392 83 394 102.5 Q396 122 399 143.5 Q402 165 405 185.5 Q408 206 410 219 L406 221 Q384 192 359 171.5 Q334 151 309 138 Q284 125 261 119.5 Q238 114 220 114 Q164 114 133.5 139.5 Q103 165 103 216 Q103 225 105 244 Q107 263 110 286 Q113 309 116 332.5 Q119 356 122 373 Q118 373 106 375.5 Q94 378 80.5 380.5 Q67 383 55 385.5 Q43 388 39 389 Q39 390 40 403.5 Q41 417 42.5 432 Q44 447 45 460 Q46 473 46 475 Q106 492 149.5 499 Q193 506 225 506 Q271 506 289.5 489.5 Q308 473 308 433 Q308 425 305.5 407 Q303 389 300 369 Q297 349 294.5 331 Q292 313 292 306 Q292 285 301 273 Q310 261 330 261 Q353 261 381.5 287.5 Q410 314 427 374 L441 493 L621 493 Z " />
<glyph glyph-name="afii10090" unicode="&#x448;" horiz-adv-x="984" d="M918 492 Q904 400 891 302 Q878 204 868 124 Q887 126 903.5 130.5 Q920 135 936 142 Q945 121 953 100 Q961 79 971 58 Q950 40 925.5 27 Q901 14 877 5 Q853 -4 830.5 -8 Q808 -12 790 -12 Q736 -12 714 8 Q692 28 692 62 Q692 90 697 118 L693 118 Q667 78 640.5 53 Q614 28 588.5 13.5 Q563 -1 540.5 -6 Q518 -11 500 -11 Q441 -11 418.5 20 Q396 51 396 114 Q394 114 392.5 113.5 Q391 113 390 113 Q366 76 340.5 52 Q315 28 290.5 14 Q266 0 244 -5.5 Q222 -11 204 -11 Q149 -11 119.5 21 Q90 53 90 113 Q90 131 93.5 163.5 Q97 196 101.5 233.5 Q106 271 111.5 308.5 Q117 346 120 374 Q99 378 78 381.5 Q57 385 37 388 Q39 410 40.5 431 Q42 452 44 474 Q104 491 147.5 498 Q191 505 222 505 Q269 505 287 487 Q305 469 305 431 Q305 416 300.5 379 Q296 342 290 301 Q284 260 279.5 222.5 Q275 185 275 167 Q275 150 281 136.5 Q287 123 308 123 Q336 123 362 162 Q388 201 406 270 L434 492 L612 492 Q601 407 594 349 Q587 291 582.5 254 Q578 217 576.5 197 Q575 177 575 168 Q575 153 581 140.5 Q587 128 607 128 Q631 128 656.5 157.5 Q682 187 702 249 Q711 304 719.5 367.5 Q728 431 737 492 L918 492 Z " />
<glyph glyph-name="afii10091" unicode="&#x449;" horiz-adv-x="1015" d="M612 492 Q602 406 595 348 Q588 290 583.5 253 Q579 216 577 196.5 Q575 177 575 168 Q575 151 581.5 137.5 Q588 124 609 124 Q632 124 659 159 Q686 194 707 275 L735 492 L910 492 Q904 447 897 398.5 Q890 350 883.5 302 Q877 254 871 207.5 Q865 161 860 121 Q880 122 903.5 129 Q927 136 944 144 L1008 75 Q989 10 971 -55 Q953 -120 934 -186 L812 -186 L805 -175 Q812 -154 820.5 -131 Q829 -108 839 -84.5 Q849 -61 858.5 -39 Q868 -17 876 1 L871 5 Q848 -6 823.5 -11 Q799 -16 785 -16 Q732 -16 711.5 6.5 Q691 29 691 74 Q691 81 691 87.5 Q691 94 692 102 L687 102 Q664 67 640 45 Q616 23 593 10.5 Q570 -2 548.5 -6.5 Q527 -11 508 -11 Q458 -11 426.5 13.5 Q395 38 395 96 Q395 101 395.5 105 Q396 109 396 114 Q394 114 392.5 113.5 Q391 113 390 113 Q366 76 340.5 52 Q315 28 290.5 14 Q266 0 244 -5.5 Q222 -11 204 -11 Q146 -11 118.5 22 Q91 55 91 110 Q91 132 94.5 166.5 Q98 201 102.5 238 Q107 275 112 311 Q117 347 120 374 Q99 378 78 381.5 Q57 385 37 388 Q39 410 40.5 431 Q42 452 44 474 Q104 491 147.5 498 Q191 505 222 505 Q272 505 288 483 Q304 461 304 416 Q302 394 297.5 358.5 Q293 323 288 286 Q283 249 279 216 Q275 183 275 167 Q275 150 281 136.5 Q287 123 308 123 Q336 123 362 162 Q388 201 407 270 Q414 326 418.5 361.5 Q423 397 426 420.5 Q429 444 430.5 460 Q432 476 434 492 L612 492 Z " />
<glyph glyph-name="afii10092" unicode="&#x44a;" horiz-adv-x="705" d="M357 -14 Q297 -14 255 -1.5 Q213 11 187.5 33 Q162 55 150.5 83 Q139 111 139 143 Q139 174 145.5 207 Q152 240 163.5 272 Q175 304 189.5 333.5 Q204 363 220 387 L133 380 L99 318 L14 330 Q16 378 19.5 412.5 Q23 447 34 469 Q45 491 66 501.5 Q87 512 124 512 Q147 512 190 510.5 Q233 509 279 507.5 Q325 506 365.5 504.5 Q406 503 425 503 L441 458 Q433 450 419 432.5 Q405 415 390.5 393 Q376 371 363 348 Q350 325 344 306 L349 303 Q397 353 445 372.5 Q493 392 531 392 Q594 392 632.5 352.5 Q671 313 671 243 Q671 199 652 153.5 Q633 108 594.5 70.5 Q556 33 497 9.5 Q438 -14 357 -14 Z M435 274 Q427 274 415 270.5 Q403 267 388.5 256.5 Q374 246 358.5 228 Q343 210 329 182 Q327 174 326 166.5 Q325 159 325 152 Q325 135 332 125 Q339 115 349 110 Q359 105 369 104 Q379 103 384 103 Q408 103 426 114.5 Q444 126 456 143.5 Q468 161 474 182.5 Q480 204 480 224 Q480 274 435 274 Z " />
<glyph glyph-name="afii10093" unicode="&#x44b;" horiz-adv-x="973" d="M304 307 Q326 329 350 345 Q374 361 398 371.5 Q422 382 444.5 387.5 Q467 393 486 393 Q549 393 587 355 Q625 317 625 248 Q625 200 607.5 153.5 Q590 107 554.5 70 Q519 33 465.5 10 Q412 -13 339 -13 Q321 -13 292.5 -12 Q264 -11 230.5 -6.5 Q197 -2 162 6.5 Q127 15 97 30 L88 47 Q96 113 106 198 Q116 283 127 379 L38 394 L40 480 Q99 497 145.5 504 Q192 511 224 511 Q275 511 295.5 496.5 Q316 482 316 450 Q316 439 314.5 422.5 Q313 406 310.5 386.5 Q308 367 305 346.5 Q302 326 299 308 L304 307 Z M724 492 L905 492 L853 122 Q871 123 890 127.5 Q909 132 926 139 L960 55 Q939 37 914 23.5 Q889 10 863.5 0.5 Q838 -9 814.5 -13.5 Q791 -18 773 -18 Q712 -18 690 7.5 Q668 33 668 75 Q668 82 668.5 88.5 Q669 95 670 103 L724 492 Z M390 267 Q366 267 335 244 Q304 221 281 168 L273 118 Q305 110 329 110 Q380 110 409.5 141 Q439 172 439 215 Q439 243 424.5 255 Q410 267 390 267 Z " />
<glyph glyph-name="afii10094" unicode="&#x44c;" horiz-adv-x="655" d="M302 307 Q347 351 396.5 372 Q446 393 484 393 Q548 393 586 355 Q624 317 624 248 Q624 200 606.5 153.5 Q589 107 553.5 70 Q518 33 464 10 Q410 -13 337 -13 Q320 -13 291.5 -12 Q263 -11 229.5 -6.5 Q196 -2 160.5 6.5 Q125 15 95 30 L87 47 L126 379 L36 394 L38 480 Q98 497 144.5 504 Q191 511 223 511 Q274 511 294.5 496.5 Q315 482 315 450 Q315 439 313.5 422.5 Q312 406 309.5 386.5 Q307 367 303.5 346.5 Q300 326 297 308 L302 307 Z M389 267 Q364 267 333.5 244 Q303 221 279 168 L272 118 Q304 110 327 110 Q379 110 408.5 141 Q438 172 438 215 Q438 243 423.5 255 Q409 267 389 267 Z " />
<glyph glyph-name="afii10095" unicode="&#x44d;" horiz-adv-x="511" d="M202 -13 Q141 -13 94.5 -3.5 Q48 6 22 17 L54 125 Q85 118 113.5 113 Q142 108 169 108 Q217 108 252.5 131.5 Q288 155 293 211 Q265 211 237 210.5 Q209 210 181 210 L188 297 Q216 296 243 295.5 Q270 295 297 293 Q298 316 291 333 Q284 350 272 361 Q260 372 243.5 377.5 Q227 383 208 383 Q204 383 200 383 Q196 383 191 382 L163 310 L68 319 Q66 349 64.5 370 Q63 391 65 417 Q67 437 76 453 Q85 469 104 478 Q119 486 138.5 491 Q158 496 177.5 499 Q197 502 216 503 Q235 504 249 504 Q310 504 353.5 486 Q397 468 425.5 437.5 Q454 407 467.5 367 Q481 327 481 282 Q481 232 468.5 180 Q456 128 424.5 85 Q393 42 339 14.5 Q285 -13 202 -13 Z " />
<glyph glyph-name="afii10096" unicode="&#x44e;" horiz-adv-x="889" d="M628 504 Q689 504 732.5 487.5 Q776 471 804 441.5 Q832 412 845 372 Q858 332 858 284 Q858 223 840.5 169.5 Q823 116 787.5 76.5 Q752 37 698.5 14 Q645 -9 573 -9 Q511 -9 468.5 6.5 Q426 22 399 50.5 Q372 79 358.5 118.5 Q345 158 342 207 L274 207 L245 0 L65 0 Q79 94 92 187 Q105 280 118 374 L37 388 L42 473 Q102 490 145 497 Q188 504 218 504 Q264 504 283.5 487 Q303 470 303 436 Q303 428 299.5 392.5 Q296 357 288 303 L354 303 Q366 346 389.5 383 Q413 420 447 447 Q481 474 526 489 Q571 504 628 504 Z M615 376 Q588 376 570 358.5 Q552 341 541 314.5 Q530 288 525.5 256.5 Q521 225 521 197 Q521 162 534 138 Q547 114 582 114 Q608 114 626 129.5 Q644 145 655 170 Q666 195 670.5 226.5 Q675 258 675 289 Q675 326 662.5 351 Q650 376 615 376 Z " />
<glyph glyph-name="afii10097" unicode="&#x44f;" horiz-adv-x="648" d="M330 506 Q356 506 387 502.5 Q418 499 449.5 493 Q481 487 512 478 Q543 469 570 458 L529 122 Q547 123 565.5 127.5 Q584 132 601 139 L635 55 Q615 37 591 23.5 Q567 10 543 0.5 Q519 -9 496.5 -13.5 Q474 -18 456 -18 Q395 -18 371 7.5 Q347 33 347 75 Q347 82 347.5 88.5 Q348 95 349 103 L384 374 Q373 379 358 382 Q343 385 331 385 Q300 385 277.5 369 Q255 353 255 315 Q255 292 275.5 280.5 Q296 269 324 264 L333 194 L197 -3 L27 -4 L11 18 L166 203 Q123 211 96.5 240.5 Q70 270 70 315 Q70 411 139.5 458.5 Q209 506 330 506 Z " />
<glyph glyph-name="afii10071" unicode="&#x451;" horiz-adv-x="543" d="M340 506 Q375 506 406.5 497.5 Q438 489 461.5 471 Q485 453 499 426 Q513 399 513 362 Q513 332 500 302.5 Q487 273 454 249.5 Q421 226 363.5 209.5 Q306 193 217 189 Q217 184 216.5 180 Q216 176 216 171 Q216 145 231.5 128 Q247 111 296 111 Q330 111 369.5 120 Q409 129 443 140 L474 40 Q450 26 421.5 16.5 Q393 7 363.5 1 Q334 -5 305 -8 Q276 -11 251 -11 Q185 -11 144 5 Q103 21 79.5 49 Q56 77 48 113 Q40 149 40 190 Q40 248 55 304.5 Q70 361 105.5 406 Q141 451 198.5 478.5 Q256 506 340 506 Z M314 381 Q272 381 248.5 350 Q225 319 220 264 Q352 270 352 341 Q352 359 343 370 Q334 381 314 381 Z M519 647 Q518 629 510.5 613.5 Q503 598 491 586.5 Q479 575 463 568.5 Q447 562 430 562 Q398 562 378.5 585 Q359 608 361 641 Q365 677 391 701 Q417 725 450 725 Q483 725 503 703 Q523 681 519 647 Z M311 647 Q309 629 301.5 613.5 Q294 598 281.5 586.5 Q269 575 253.5 568.5 Q238 562 222 562 Q190 562 169.5 585 Q149 608 152 641 Q154 659 162 674.5 Q170 690 182 701 Q194 712 209.5 718.5 Q225 725 241 725 Q273 725 293.5 703 Q314 681 311 647 Z " />
<glyph glyph-name="afii10099" unicode="&#x452;" horiz-adv-x="637" d="M283 370 Q303 399 327 419 Q351 439 374.5 451.5 Q398 464 420 469.5 Q442 475 459 475 Q502 475 529.5 457 Q557 439 573.5 409.5 Q590 380 596.5 342 Q603 304 603 264 Q603 199 589 139 Q575 79 549 32.5 Q523 -14 485.5 -42 Q448 -70 400 -70 Q373 -70 343 -62.5 Q313 -55 280 -30 L312 60 Q329 52 344 52 Q374 52 399 105.5 Q424 159 424 261 Q424 296 412.5 320.5 Q401 345 372 345 Q344 345 312.5 311 Q281 277 256 194 L231 0 L51 0 Q60 64 67 122.5 Q74 181 81 240.5 Q88 300 95.5 364.5 Q103 429 112 504 L56 504 L63 564 L117 564 L122 601 L30 615 L39 701 Q98 718 143 725 Q188 732 220 732 Q272 732 292 715.5 Q312 699 312 668 Q312 661 311.5 654 Q311 647 310 636 Q309 625 307 608 Q305 591 302 564 L442 564 L434 504 L294 504 Q293 496 290.5 475.5 Q288 455 285.5 433 Q283 411 280.5 393 Q278 375 278 372 L283 370 Z " />
<glyph glyph-name="afii10101" unicode="&#x454;" horiz-adv-x="514" d="M331 385 Q293 385 267 360.5 Q241 336 233 288 L343 291 L335 202 L229 205 Q228 200 228 196 Q228 192 228 187 Q228 155 248 135.5 Q268 116 303 116 Q331 116 365 120.5 Q399 125 434 135 L461 29 Q441 20 417 12.5 Q393 5 366.5 -0.5 Q340 -6 312.5 -8.5 Q285 -11 260 -11 Q195 -11 153 4.5 Q111 20 85.5 47.5 Q60 75 50 111.5 Q40 148 40 190 Q40 237 51.5 292 Q63 347 94.5 394.5 Q126 442 181.5 474 Q237 506 324 506 Q358 506 388.5 501.5 Q419 497 437 490 Q466 479 478.5 463.5 Q491 448 491 428 Q491 419 488 404 Q485 389 480 372 Q475 355 469.5 338.5 Q464 322 458 309 L360 315 L362 381 Q355 383 347 384 Q339 385 331 385 Z " />
<glyph glyph-name="afii10102" unicode="&#x455;" horiz-adv-x="548" d="M244 -11 Q203 -11 164 -5.5 Q125 0 95 12 Q65 24 46.5 42.5 Q28 61 28 87 Q28 104 39.5 135 Q51 166 74 192 L162 188 L161 116 Q181 109 203 107 Q225 105 242 105 Q256 105 270 107 Q284 109 294.5 113.5 Q305 118 311.5 124.5 Q318 131 318 141 Q318 150 308.5 159 Q299 168 283.5 176.5 Q268 185 248.5 193 Q229 201 210 210 Q184 222 158 233.5 Q132 245 111.5 260 Q91 275 78 294.5 Q65 314 65 341 Q65 380 82.5 411 Q100 442 133 463.5 Q166 485 212.5 497 Q259 509 317 509 Q346 509 380 504.5 Q414 500 443.5 490 Q473 480 493 462.5 Q513 445 513 420 Q513 411 508 397 Q503 383 495.5 367.5 Q488 352 479 337.5 Q470 323 462 313 L375 317 L376 385 Q366 389 350.5 391 Q335 393 321 393 Q298 393 279 386 Q260 379 260 359 Q260 345 278.5 333.5 Q297 322 324.5 310 Q352 298 384.5 284.5 Q417 271 444.5 252.5 Q472 234 490.5 209.5 Q509 185 509 152 Q509 77 440.5 33 Q372 -11 244 -11 Z " />
<glyph glyph-name="afii10103" unicode="&#x456;" horiz-adv-x="405" d="M230 505 Q282 505 299 487 Q316 469 316 437 Q316 428 314 407 Q312 386 308.5 358 Q305 330 300.5 297 Q296 264 291.5 232 Q287 200 283 171 Q279 142 277 122 Q295 123 314 127.5 Q333 132 349 139 L383 55 Q363 37 338 23.5 Q313 10 287.5 0.5 Q262 -9 238 -13.5 Q214 -18 196 -18 Q135 -18 113 7.5 Q91 33 91 75 Q91 82 91.5 88.5 Q92 95 93 103 L129 375 L49 388 L54 474 Q114 491 157 498 Q200 505 230 505 Z M239 759 Q258 759 275 751.5 Q292 744 305 731 Q318 718 325 700.5 Q332 683 332 662 Q332 614 302.5 581 Q273 548 222 548 Q183 548 155.5 574.5 Q128 601 128 640 Q128 694 159.5 726.5 Q191 759 239 759 Z " />
<glyph glyph-name="afii10105" unicode="&#x458;" horiz-adv-x="359" d="M222 505 Q275 505 293 488 Q311 471 311 437 Q311 429 308.5 399.5 Q306 370 301.5 325 Q297 280 290.5 223.5 Q284 167 276 104 Q267 32 247 -25 Q227 -82 192 -124.5 Q157 -167 103.5 -194.5 Q50 -222 -26 -234 L-58 -116 Q-10 -95 17.5 -74.5 Q45 -54 60 -28.5 Q75 -3 81.5 30 Q88 63 94 107 L123 375 L43 388 L49 474 Q108 491 150.5 498 Q193 505 222 505 Z M234 759 Q274 759 301 731.5 Q328 704 328 662 Q328 614 298 581 Q268 548 217 548 Q178 548 150.5 574.5 Q123 601 123 640 Q123 694 154.5 726.5 Q186 759 234 759 Z " />
<glyph glyph-name="afii10106" unicode="&#x459;" horiz-adv-x="871" d="M192 0 Q148 0 105.5 -0.5 Q63 -1 19 -1 Q17 1 14.5 3.5 Q12 6 10 8 Q68 123 130 240 Q192 357 255 488 L470 506 L487 494 Q494 434 498.5 388 Q503 342 509 297 L511 297 Q560 347 609.5 368.5 Q659 390 701 390 Q731 390 756 381.5 Q781 373 799 355 Q817 337 827.5 308.5 Q838 280 838 240 Q838 198 817 152.5 Q796 107 753.5 69.5 Q711 32 646.5 8 Q582 -16 495 -16 Q457 -16 433 -11 Q409 -6 394.5 4.5 Q380 15 373.5 32 Q367 49 364 72 Q363 76 361.5 96 Q360 116 357.5 144.5 Q355 173 352.5 205.5 Q350 238 347.5 266.5 Q345 295 343.5 316 Q342 337 342 342 L336 342 Q317 297 300 255 Q283 213 266 171.5 Q249 130 231 87.5 Q213 45 192 0 Z M611 265 Q588 265 563.5 248.5 Q539 232 525 213 Q527 187 530 160.5 Q533 134 536 108 Q586 108 619 135 Q652 162 652 213 Q652 239 640 252 Q628 265 611 265 Z " />
<glyph glyph-name="afii10107" unicode="&#x45a;" horiz-adv-x="973" d="M621 307 Q666 351 715 372 Q764 393 802 393 Q866 393 903.5 355 Q941 317 941 248 Q941 200 923.5 153.5 Q906 107 870.5 70 Q835 33 781.5 10 Q728 -13 655 -13 Q637 -13 608.5 -12 Q580 -11 546.5 -6.5 Q513 -2 478 6.5 Q443 15 413 30 L404 47 Q406 70 412 111.5 Q418 153 424 203 L278 203 L249 -1 L68 -1 Q68 1 71.5 25 Q75 49 80.5 85 Q86 121 92 164.5 Q98 208 104 249 Q110 290 114.5 324 Q119 358 121 375 L38 388 L43 474 Q103 491 146.5 498 Q190 505 222 505 Q274 505 291 487 Q308 469 308 437 Q308 426 304 389 Q300 352 292 304 L437 304 Q445 358 451 406.5 Q457 455 461 492 L642 492 Q639 472 636 447 Q633 422 629.5 396.5 Q626 371 623 347.5 Q620 324 617 308 L621 307 Z M706 267 Q682 267 651 244 Q620 221 597 168 L589 118 Q621 110 645 110 Q697 110 726 141 Q755 172 755 215 Q755 243 740.5 255 Q726 267 706 267 Z " />
<glyph glyph-name="afii10108" unicode="&#x45b;" horiz-adv-x="684" d="M65 562 L121 562 L125 601 L34 615 L42 701 Q102 718 148 725 Q194 732 226 732 Q254 732 272 726.5 Q290 721 300 711.5 Q310 702 313.5 687.5 Q317 673 317 655 Q317 649 314.5 623 Q312 597 307 562 L458 562 L450 504 L301 504 L281 358 L285 357 Q307 387 332.5 408 Q358 429 383 442 Q408 455 431 461 Q454 467 472 467 Q537 467 563.5 436.5 Q590 406 590 346 Q590 323 583 266 Q576 209 567 122 Q586 123 602.5 127.5 Q619 132 636 139 L670 55 Q648 36 622.5 22.5 Q597 9 572 0 Q547 -9 523.5 -13.5 Q500 -18 482 -18 Q422 -18 401.5 7 Q381 32 381 75 Q381 82 381.5 88.5 Q382 95 383 103 Q393 184 398.5 230 Q404 276 404 286 Q404 307 395.5 319 Q387 331 367 331 Q342 331 311.5 300 Q281 269 259 194 L236 0 L55 0 Q70 124 85.5 253 Q101 382 115 504 L57 504 L65 562 Z " />
<glyph glyph-name="afii10193" unicode="&#x45f;" horiz-adv-x="690" d="M225 504 Q271 504 289 484 Q307 464 307 427 Q307 415 302.5 380 Q298 345 292.5 304 Q287 263 282.5 225.5 Q278 188 278 172 Q278 154 285.5 141 Q293 128 314 128 Q327 128 341 136 Q355 144 369 161.5 Q383 179 396 207 Q409 235 420 275 L449 492 L622 492 L573 121 Q592 122 608.5 127 Q625 132 642 138 L676 55 Q655 37 631 23.5 Q607 10 583 1 Q559 -8 536 -12 Q513 -16 495 -16 Q442 -16 422.5 6.5 Q403 29 403 67 Q403 76 403.5 85 Q404 94 404 102 L399 102 Q375 67 350.5 45 Q326 23 301 10.5 Q276 -2 252.5 -7 Q229 -12 207 -12 Q152 -12 120.5 13.5 Q89 39 89 94 Q90 103 89.5 113.5 Q89 124 91 136 Q91 142 93.5 159.5 Q96 177 99 201 Q102 225 105.5 252.5 Q109 280 112.5 304.5 Q116 329 118.5 348 Q121 367 122 375 L39 388 L47 473 Q106 490 149.5 497 Q193 504 225 504 Z M324 -9 Q349 -13 373.5 -17 Q398 -21 422 -26 L392 -234 L271 -236 L265 -226 Q279 -164 293 -109 Q307 -54 324 -9 Z " />
<glyph glyph-name="afii10050" unicode="&#x490;" horiz-adv-x="661" d="M18 0 L32 122 L103 122 L158 569 L88 569 L103 690 L579 690 L597 818 L722 818 L691 569 L345 569 L290 122 L379 122 L364 0 L18 0 Z " />
<glyph glyph-name="afii10098" unicode="&#x491;" horiz-adv-x="535" d="M409 491 L443 618 L534 618 Q535 575 536 541 Q537 507 538 470 L538 464 Q538 430 528 412.5 Q518 395 503 387 Q488 379 471 378 Q454 377 439 377 Q399 377 359.5 377.5 Q320 378 285 378 L239 0 L54 0 L102 378 L49 378 L63 491 L409 491 Z " />
<glyph glyph-name="schwacyrillic" unicode="&#x4d9;" horiz-adv-x="543" d="M212 -11 Q177 -11 146 -2.5 Q115 6 91.5 24 Q68 42 54 69 Q40 96 40 132 Q40 163 52.5 192 Q65 221 98 245 Q131 269 188 285 Q245 301 335 306 Q335 311 335.5 315 Q336 319 336 324 Q336 350 320 367 Q304 384 256 384 Q222 384 182.5 375.5 Q143 367 109 355 L77 455 Q127 482 188.5 494 Q250 506 301 506 Q367 506 408 488.5 Q449 471 472.5 442 Q496 413 504 375 Q512 337 512 297 Q512 239 497 184 Q482 129 446.5 85.5 Q411 42 353.5 15.5 Q296 -11 212 -11 Z M238 114 Q280 114 303.5 145 Q327 176 331 231 Q199 225 199 154 Q199 136 208.5 125 Q218 114 238 114 Z " />
<glyph glyph-name="afii10062" unicode="&#x40e;" horiz-adv-x="713" d="M363 690 L348 568 L293 568 Q295 560 302 539 Q309 518 317.5 495 Q326 472 333 451 Q340 430 342 422 L379 311 L385 311 Q387 317 395 333 Q403 349 412 367 Q421 385 429 401 Q437 417 440 423 L514 568 L456 568 L472 690 L757 690 L742 568 L691 568 L437 97 Q417 61 397.5 38 Q378 15 357 2 Q336 -11 311.5 -16 Q287 -21 257 -21 Q225 -21 188 -16 Q151 -11 107 2 L140 124 Q169 118 191 116.5 Q213 115 226 115 Q243 115 256 123.5 Q269 132 281 152 L304 197 L258 197 Q255 208 243.5 236.5 Q232 265 217 303 Q202 341 184.5 382.5 Q167 424 152 462 Q137 500 125.5 528.5 Q114 557 111 568 L62 568 L77 690 L363 690 Z M428 741 Q397 741 371 752 Q345 763 322.5 782.5 Q300 802 282 828 Q264 854 250 884 L322 939 Q351 891 385 869 Q419 847 445 847 Q454 847 466.5 848 Q479 849 498.5 857 Q518 865 545 882.5 Q572 900 609 932 L650 884 Q621 843 591 815.5 Q561 788 532.5 771.5 Q504 755 477.5 748 Q451 741 428 741 Z " />
<glyph glyph-name="afii10061" unicode="&#x40c;" horiz-adv-x="776" d="M289 122 L355 122 L341 0 L18 0 L32 122 L102 122 L157 569 L87 569 L102 690 L424 690 L410 569 L343 569 L289 122 Z M638 125 L728 119 L732 14 Q717 8 698 3.5 Q679 -1 661 -4 Q643 -7 627.5 -8.5 Q612 -10 603 -10 Q556 -12 528.5 0 Q501 12 482 48 L342 321 L349 382 L541 636 Q568 674 596 687.5 Q624 701 659 701 Q693 701 725 693 Q757 685 783 669 L761 565 L685 559 L511 356 L638 125 Z M458 742 L415 807 L611 969 L680 868 L458 742 Z " />
<glyph glyph-name="afii10027" unicode="&#x419;" horiz-adv-x="851" d="M546 689 L868 689 L852 569 L780 569 Q766 456 752.5 344.5 Q739 233 725 121 L798 121 L783 0 L464 0 L479 121 L543 121 L576 392 L575 392 L293 152 L289 121 L353 121 L338 0 L16 0 L31 121 L104 121 L158 569 L86 569 L101 689 L423 689 L408 569 L344 569 Q336 502 328 436 Q320 370 312 303 L595 542 L598 569 L530 569 L546 689 Z M491 760 Q460 760 434 771 Q408 782 386 801.5 Q364 821 346 847 Q328 873 314 903 L386 958 Q414 910 448 888.5 Q482 867 508 867 Q517 867 529.5 868 Q542 869 561.5 876.5 Q581 884 608 901.5 Q635 919 672 951 L713 903 Q684 862 654.5 834.5 Q625 807 596.5 790.5 Q568 774 541 767 Q514 760 491 760 Z " />
<glyph glyph-name="Agrave" unicode="&#xc0;" horiz-adv-x="770" d="M492 192 L273 192 L242 122 L300 122 L286 0 L-6 0 L8 122 L62 122 L336 691 L566 691 L688 122 L741 122 L726 0 L435 0 L449 122 L506 122 L492 192 Z M378 427 L325 308 L472 308 L451 423 L432 543 L428 543 L378 427 Z M280 878 L367 979 L529 804 L478 742 L280 878 Z " />
<glyph glyph-name="Aacute" unicode="&#xc1;" horiz-adv-x="770" d="M492 192 L273 192 L242 122 L300 122 L286 0 L-6 0 L8 122 L62 122 L336 691 L566 691 L688 122 L741 122 L726 0 L435 0 L449 122 L506 122 L492 192 Z M378 427 L325 308 L472 308 L451 423 L432 543 L428 543 L378 427 Z M444 739 L401 804 L597 966 L666 865 L444 739 Z " />
<glyph glyph-name="Acircumflex" unicode="&#xc2;" horiz-adv-x="770" d="M492 192 L273 192 L242 122 L300 122 L286 0 L-6 0 L8 122 L62 122 L336 691 L566 691 L688 122 L741 122 L726 0 L435 0 L449 122 L506 122 L492 192 Z M378 427 L325 308 L472 308 L451 423 L432 543 L428 543 L378 427 Z M613 735 L458 836 L280 736 L244 786 L415 942 L526 942 L662 787 L613 735 Z " />
<glyph glyph-name="Atilde" unicode="&#xc3;" horiz-adv-x="770" d="M492 192 L273 192 L242 122 L300 122 L286 0 L-6 0 L8 122 L62 122 L336 691 L566 691 L688 122 L741 122 L726 0 L435 0 L449 122 L506 122 L492 192 Z M378 427 L325 308 L472 308 L451 423 L432 543 L428 543 L378 427 Z M542 754 Q515 754 489 760 Q463 766 439 773.5 Q415 781 393.5 787 Q372 793 355 793 L298 754 L253 792 Q280 851 311.5 874 Q343 897 377 897 Q401 897 425 891.5 Q449 886 472.5 879 Q496 872 519 866.5 Q542 861 563 861 L622 901 L664 863 Q617 754 542 754 Z " />
<glyph glyph-name="Adieresis" unicode="&#xc4;" horiz-adv-x="770" d="M492 192 L273 192 L242 122 L300 122 L286 0 L-6 0 L8 122 L62 122 L336 691 L566 691 L688 122 L741 122 L726 0 L435 0 L449 122 L506 122 L492 192 Z M378 427 L325 308 L472 308 L451 423 L432 543 L428 543 L378 427 Z M640 817 Q637 784 612.5 761.5 Q588 739 556 739 Q524 739 505.5 760.5 Q487 782 491 814 Q494 848 518.5 870 Q543 892 575 892 Q606 892 625 870.5 Q644 849 640 817 Z M442 817 Q438 784 414 761.5 Q390 739 358 739 Q327 739 308 760.5 Q289 782 292 814 Q295 848 320 870 Q345 892 376 892 Q407 892 426 870.5 Q445 849 442 817 Z " />
<glyph glyph-name="Ccedilla" unicode="&#xc7;" horiz-adv-x="648" d="M454 706 Q506 706 553.5 698.5 Q601 691 642 678 L615 456 L486 456 L497 553 Q485 556 472 558 Q459 560 445 560 Q396 560 361.5 541 Q327 522 305 487.5 Q283 453 272.5 405 Q262 357 262 300 Q262 254 272.5 224 Q283 194 303.5 177 Q324 160 355 153 Q386 146 427 146 Q438 146 456 147.5 Q474 149 495 151.5 Q516 154 537.5 157.5 Q559 161 577 165 L599 28 Q552 11 492 1 Q432 -9 379 -11 L332 -66 Q423 -81 423 -150 Q423 -168 413.5 -190 Q404 -212 380 -231.5 Q356 -251 314.5 -264 Q273 -277 209 -278 L205 -215 Q261 -210 294.5 -195 Q328 -180 328 -159 Q328 -151 322.5 -146 Q317 -141 308 -138 Q299 -135 287.5 -134 Q276 -133 265 -133 Q260 -133 256 -133.5 Q252 -134 247 -134 L232 -104 Q252 -79 272.5 -55.5 Q293 -32 313 -9 Q239 -3 191 22 Q143 47 114.5 85.5 Q86 124 74.5 173.5 Q63 223 63 279 Q63 355 79 431 Q95 507 138.5 568 Q182 629 258 667.5 Q334 706 454 706 Z " />
<glyph glyph-name="Egrave" unicode="&#xc8;" horiz-adv-x="692" d="M18 0 L32 122 L102 122 L156 569 L88 569 L103 690 L701 690 L672 455 L544 455 L558 569 L344 569 L324 411 L506 415 L493 295 L310 298 L289 122 L520 122 L535 244 L664 244 L635 0 L18 0 Z M278 878 L365 979 L527 804 L476 742 L278 878 Z " />
<glyph glyph-name="Eacute" unicode="&#xc9;" horiz-adv-x="692" d="M18 0 L32 122 L102 122 L156 569 L88 569 L103 690 L701 690 L672 455 L544 455 L558 569 L344 569 L324 411 L506 415 L493 295 L310 298 L289 122 L520 122 L535 244 L664 244 L635 0 L18 0 Z M391 739 L348 804 L544 966 L613 865 L391 739 Z " />
<glyph glyph-name="Ecircumflex" unicode="&#xca;" horiz-adv-x="692" d="M18 0 L32 122 L102 122 L156 569 L88 569 L103 690 L701 690 L672 455 L544 455 L558 569 L344 569 L324 411 L506 415 L493 295 L310 298 L289 122 L520 122 L535 244 L664 244 L635 0 L18 0 Z M591 735 L436 836 L258 736 L222 786 L393 942 L504 942 L640 787 L591 735 Z " />
<glyph glyph-name="Edieresis" unicode="&#xcb;" horiz-adv-x="692" d="M18 0 L32 122 L102 122 L156 569 L88 569 L103 690 L701 690 L672 455 L544 455 L558 569 L344 569 L324 411 L506 415 L493 295 L310 298 L289 122 L520 122 L535 244 L664 244 L635 0 L18 0 Z M614 817 Q611 784 586.5 761.5 Q562 739 530 739 Q498 739 479.5 760.5 Q461 782 465 814 Q468 848 492.5 870 Q517 892 549 892 Q580 892 599 870.5 Q618 849 614 817 Z M416 817 Q412 784 388 761.5 Q364 739 332 739 Q301 739 282 760.5 Q263 782 266 814 Q269 848 294 870 Q319 892 350 892 Q381 892 400 870.5 Q419 849 416 817 Z " />
<glyph glyph-name="Igrave" unicode="&#xcc;" horiz-adv-x="461" d="M43 0 L58 122 L128 122 L182 569 L112 569 L128 691 L452 691 L437 569 L369 569 L314 122 L382 122 L368 0 L43 0 Z M117 878 L204 979 L366 804 L315 742 L117 878 Z " />
<glyph glyph-name="Iacute" unicode="&#xcd;" horiz-adv-x="461" d="M43 0 L58 122 L128 122 L182 569 L112 569 L128 691 L452 691 L437 569 L369 569 L314 122 L382 122 L368 0 L43 0 Z M288 739 L245 804 L441 966 L510 865 L288 739 Z " />
<glyph glyph-name="Icircumflex" unicode="&#xce;" horiz-adv-x="461" d="M43 0 L58 122 L128 122 L182 569 L112 569 L128 691 L452 691 L437 569 L369 569 L314 122 L382 122 L368 0 L43 0 Z M463 735 L308 836 L130 736 L94 786 L265 942 L376 942 L512 787 L463 735 Z " />
<glyph glyph-name="Idieresis" unicode="&#xcf;" horiz-adv-x="461" d="M43 0 L58 122 L128 122 L182 569 L112 569 L128 691 L452 691 L437 569 L369 569 L314 122 L382 122 L368 0 L43 0 Z M478 817 Q475 784 450.5 761.5 Q426 739 394 739 Q362 739 343.5 760.5 Q325 782 329 814 Q332 848 356.5 870 Q381 892 413 892 Q444 892 463 870.5 Q482 849 478 817 Z M280 817 Q276 784 252 761.5 Q228 739 196 739 Q165 739 146 760.5 Q127 782 130 814 Q133 848 158 870 Q183 892 214 892 Q245 892 264 870.5 Q283 849 280 817 Z " />
<glyph glyph-name="Eth" unicode="&#xd0;" horiz-adv-x="760" d="M18 0 L32 122 L105 122 L128 313 L60 313 L71 391 L137 391 L160 569 L91 569 L107 691 L443 691 Q527 691 582.5 668.5 Q638 646 671 606.5 Q704 567 717.5 514 Q731 461 731 400 Q731 320 711 248 Q691 176 647.5 120.5 Q604 65 535 32.5 Q466 0 367 0 L18 0 Z M348 569 L326 391 L418 391 L408 313 L316 313 L293 122 L355 122 Q389 122 421 138 Q453 154 477.5 187.5 Q502 221 517 273 Q532 325 532 398 Q532 489 497 529 Q462 569 406 569 L348 569 Z " />
<glyph glyph-name="Ntilde" unicode="&#xd1;" horiz-adv-x="854" d="M578 263 L616 569 L550 569 L566 690 L870 690 Q866 660 862 629.5 Q858 599 855 569 L789 569 L720 0 L537 0 Q508 57 480 113 Q452 169 423 226 Q417 238 406.5 260 Q396 282 384.5 306 Q373 330 362 352 Q351 374 345 386 Q337 403 329 419 Q321 435 313 452 L311 452 Q300 369 290 286.5 Q280 204 270 121 L336 121 Q332 90 328.5 60 Q325 30 322 0 L17 0 L31 121 L99 121 Q112 233 125.5 344.5 Q139 456 153 569 L86 569 L101 690 L368 690 L460 503 Q480 462 499.5 420 Q519 378 540 333 L574 263 L578 263 Z M573 765 Q546 765 520 771 Q494 777 470 784.5 Q446 792 424.5 798 Q403 804 386 804 L329 765 L284 803 Q311 862 342.5 885 Q374 908 408 908 Q432 908 456 902.5 Q480 897 503.5 890 Q527 883 550 877.5 Q573 872 594 872 L653 912 L695 874 Q648 765 573 765 Z " />
<glyph glyph-name="Ograve" unicode="&#xd2;" horiz-adv-x="769" d="M438 705 Q517 705 574 682 Q631 659 668 618.5 Q705 578 722.5 521.5 Q740 465 740 399 Q740 310 715 235 Q690 160 642.5 105 Q595 50 525.5 19.5 Q456 -11 366 -11 Q288 -11 231 11 Q174 33 136.5 72.5 Q99 112 81 167 Q63 222 63 289 Q63 375 86.5 451 Q110 527 157.5 583.5 Q205 640 275 672.5 Q345 705 438 705 Z M428 572 Q381 572 349 547.5 Q317 523 297 482.5 Q277 442 268.5 390.5 Q260 339 260 285 Q260 207 287 164 Q314 121 378 121 Q422 121 453 143 Q484 165 503.5 203.5 Q523 242 532 294.5 Q541 347 541 408 Q541 443 535.5 473 Q530 503 517.5 525 Q505 547 483 559.5 Q461 572 428 572 Z M270 878 L357 979 L519 804 L468 742 L270 878 Z " />
<glyph glyph-name="Oacute" unicode="&#xd3;" horiz-adv-x="769" d="M438 705 Q517 705 574 682 Q631 659 668 618.5 Q705 578 722.5 521.5 Q740 465 740 399 Q740 310 715 235 Q690 160 642.5 105 Q595 50 525.5 19.5 Q456 -11 366 -11 Q288 -11 231 11 Q174 33 136.5 72.5 Q99 112 81 167 Q63 222 63 289 Q63 375 86.5 451 Q110 527 157.5 583.5 Q205 640 275 672.5 Q345 705 438 705 Z M428 572 Q381 572 349 547.5 Q317 523 297 482.5 Q277 442 268.5 390.5 Q260 339 260 285 Q260 207 287 164 Q314 121 378 121 Q422 121 453 143 Q484 165 503.5 203.5 Q523 242 532 294.5 Q541 347 541 408 Q541 443 535.5 473 Q530 503 517.5 525 Q505 547 483 559.5 Q461 572 428 572 Z M443 739 L400 804 L596 966 L665 865 L443 739 Z " />
<glyph glyph-name="Ocircumflex" unicode="&#xd4;" horiz-adv-x="769" d="M438 705 Q517 705 574 682 Q631 659 668 618.5 Q705 578 722.5 521.5 Q740 465 740 399 Q740 310 715 235 Q690 160 642.5 105 Q595 50 525.5 19.5 Q456 -11 366 -11 Q288 -11 231 11 Q174 33 136.5 72.5 Q99 112 81 167 Q63 222 63 289 Q63 375 86.5 451 Q110 527 157.5 583.5 Q205 640 275 672.5 Q345 705 438 705 Z M428 572 Q381 572 349 547.5 Q317 523 297 482.5 Q277 442 268.5 390.5 Q260 339 260 285 Q260 207 287 164 Q314 121 378 121 Q422 121 453 143 Q484 165 503.5 203.5 Q523 242 532 294.5 Q541 347 541 408 Q541 443 535.5 473 Q530 503 517.5 525 Q505 547 483 559.5 Q461 572 428 572 Z M620 735 L465 836 L287 736 L251 786 L422 942 L533 942 L669 787 L620 735 Z " />
<glyph glyph-name="Otilde" unicode="&#xd5;" horiz-adv-x="769" d="M438 705 Q517 705 574 682 Q631 659 668 618.5 Q705 578 722.5 521.5 Q740 465 740 399 Q740 310 715 235 Q690 160 642.5 105 Q595 50 525.5 19.5 Q456 -11 366 -11 Q288 -11 231 11 Q174 33 136.5 72.5 Q99 112 81 167 Q63 222 63 289 Q63 375 86.5 451 Q110 527 157.5 583.5 Q205 640 275 672.5 Q345 705 438 705 Z M428 572 Q381 572 349 547.5 Q317 523 297 482.5 Q277 442 268.5 390.5 Q260 339 260 285 Q260 207 287 164 Q314 121 378 121 Q422 121 453 143 Q484 165 503.5 203.5 Q523 242 532 294.5 Q541 347 541 408 Q541 443 535.5 473 Q530 503 517.5 525 Q505 547 483 559.5 Q461 572 428 572 Z M547 767 Q520 767 494 773 Q468 779 444 786.5 Q420 794 398.5 800 Q377 806 360 806 L303 767 L258 805 Q285 864 316.5 887 Q348 910 382 910 Q406 910 430 904.5 Q454 899 477.5 892 Q501 885 524 879.5 Q547 874 568 874 L627 914 L669 876 Q622 767 547 767 Z " />
<glyph glyph-name="Odieresis" unicode="&#xd6;" horiz-adv-x="769" d="M438 705 Q517 705 574 682 Q631 659 668 618.5 Q705 578 722.5 521.5 Q740 465 740 399 Q740 310 715 235 Q690 160 642.5 105 Q595 50 525.5 19.5 Q456 -11 366 -11 Q288 -11 231 11 Q174 33 136.5 72.5 Q99 112 81 167 Q63 222 63 289 Q63 375 86.5 451 Q110 527 157.5 583.5 Q205 640 275 672.5 Q345 705 438 705 Z M428 572 Q381 572 349 547.5 Q317 523 297 482.5 Q277 442 268.5 390.5 Q260 339 260 285 Q260 207 287 164 Q314 121 378 121 Q422 121 453 143 Q484 165 503.5 203.5 Q523 242 532 294.5 Q541 347 541 408 Q541 443 535.5 473 Q530 503 517.5 525 Q505 547 483 559.5 Q461 572 428 572 Z M638 817 Q635 784 610.5 761.5 Q586 739 554 739 Q522 739 503.5 760.5 Q485 782 489 814 Q492 848 516.5 870 Q541 892 573 892 Q604 892 623 870.5 Q642 849 638 817 Z M440 817 Q436 784 412 761.5 Q388 739 356 739 Q325 739 306 760.5 Q287 782 290 814 Q293 848 318 870 Q343 892 374 892 Q405 892 424 870.5 Q443 849 440 817 Z " />
<glyph glyph-name="Oslash" unicode="&#xd8;" horiz-adv-x="769" d="M438 704 Q505 704 556 687.5 Q607 671 643 640 L704 704 L782 704 L681 600 Q711 561 725 510 Q739 459 739 399 Q739 310 714 235 Q689 160 641.5 105.5 Q594 51 524.5 20.5 Q455 -10 365 -10 Q294 -10 241.5 7 Q189 24 152 56 L90 -8 L20 -8 Q62 32 118 93 Q91 131 77 180.5 Q63 230 63 288 Q63 375 86.5 451 Q110 527 157.5 583.5 Q205 640 275 672 Q345 704 438 704 Z M541 408 Q541 421 540 432 Q539 443 536 454 L276 181 Q290 152 314.5 136 Q339 120 377 120 Q421 120 452 142 Q483 164 503 203 Q523 242 532 294.5 Q541 347 541 408 Z M428 572 Q378 572 345.5 545 Q313 518 294 474.5 Q275 431 267.5 377 Q260 323 260 269 Q261 262 261 255 Q261 248 263 241 Q326 307 393.5 378.5 Q461 450 522 515 Q509 541 486 556.5 Q463 572 428 572 Z " />
<glyph glyph-name="Ugrave" unicode="&#xd9;" horiz-adv-x="776" d="M693 259 Q685 195 663 145 Q641 95 602 60.5 Q563 26 506.5 8 Q450 -10 372 -10 Q289 -10 232.5 9.5 Q176 29 143 65 Q110 101 98.5 152.5 Q87 204 95 269 L131 569 L77 569 L92 691 L388 691 L373 569 L316 569 L276 249 Q261 121 383 121 Q431 121 466.5 151 Q502 181 510 249 L549 569 L492 569 L508 691 L803 691 L788 569 L731 569 L693 259 Z M275 878 L362 979 L524 804 L473 742 L275 878 Z " />
<glyph glyph-name="Uacute" unicode="&#xda;" horiz-adv-x="776" d="M693 259 Q685 195 663 145 Q641 95 602 60.5 Q563 26 506.5 8 Q450 -10 372 -10 Q289 -10 232.5 9.5 Q176 29 143 65 Q110 101 98.5 152.5 Q87 204 95 269 L131 569 L77 569 L92 691 L388 691 L373 569 L316 569 L276 249 Q261 121 383 121 Q431 121 466.5 151 Q502 181 510 249 L549 569 L492 569 L508 691 L803 691 L788 569 L731 569 L693 259 Z M438 739 L395 804 L591 966 L660 865 L438 739 Z " />
<glyph glyph-name="Ucircumflex" unicode="&#xdb;" horiz-adv-x="776" d="M693 259 Q685 195 663 145 Q641 95 602 60.5 Q563 26 506.5 8 Q450 -10 372 -10 Q289 -10 232.5 9.5 Q176 29 143 65 Q110 101 98.5 152.5 Q87 204 95 269 L131 569 L77 569 L92 691 L388 691 L373 569 L316 569 L276 249 Q261 121 383 121 Q431 121 466.5 151 Q502 181 510 249 L549 569 L492 569 L508 691 L803 691 L788 569 L731 569 L693 259 Z M629 735 L468 834 L283 736 L245 785 L423 938 L538 938 L679 786 L629 735 Z " />
<glyph glyph-name="Udieresis" unicode="&#xdc;" horiz-adv-x="776" d="M693 259 Q685 195 663 145 Q641 95 602 60.5 Q563 26 506.5 8 Q450 -10 372 -10 Q289 -10 232.5 9.5 Q176 29 143 65 Q110 101 98.5 152.5 Q87 204 95 269 L131 569 L77 569 L92 691 L388 691 L373 569 L316 569 L276 249 Q261 121 383 121 Q431 121 466.5 151 Q502 181 510 249 L549 569 L492 569 L508 691 L803 691 L788 569 L731 569 L693 259 Z M639 817 Q636 784 611.5 761.5 Q587 739 555 739 Q523 739 504.5 760.5 Q486 782 490 814 Q493 848 517.5 870 Q542 892 574 892 Q605 892 624 870.5 Q643 849 639 817 Z M441 817 Q437 784 413 761.5 Q389 739 357 739 Q326 739 307 760.5 Q288 782 291 814 Q294 848 319 870 Q344 892 375 892 Q406 892 425 870.5 Q444 849 441 817 Z " />
<glyph glyph-name="Yacute" unicode="&#xdd;" horiz-adv-x="711" d="M504 568 L448 568 L463 691 L757 691 L741 568 L693 568 L459 250 L444 122 L517 122 L503 0 L153 0 L167 122 L242 122 L257 249 L105 568 L58 568 L73 691 L364 691 L349 568 L294 568 L374 376 L378 376 L504 568 Z M400 738 L357 803 L553 965 L622 864 L400 738 Z " />
<glyph glyph-name="Thorn" unicode="&#xde;" horiz-adv-x="665" d="M339 532 L434 532 Q497 532 540.5 520.5 Q584 509 611 488 Q638 467 650 436.5 Q662 406 662 367 Q662 323 645.5 285.5 Q629 248 596 220 Q563 192 514.5 176.5 Q466 161 403 162 L294 163 L287 111 L354 111 L341 0 L16 0 L30 111 L101 111 L157 573 L85 573 L100 691 L425 691 L410 573 L344 573 L339 532 Z M326 433 L306 264 L364 264 Q409 264 437.5 288 Q466 312 466 360 Q466 399 443 416 Q420 433 381 433 L326 433 Z " />
</font>
</svg>
