<?xml version="1.0" encoding="UTF-8"?>
<svg xmlns="http://www.w3.org/2000/svg" xmlns:xlink="http://www.w3.org/1999/xlink" version="1.2" >
<font id="SapientCentroSlab-Black">
<font-face  font-family="Sapient Centro Slab" units-per-em="1000" ascent="750" descent="-250" font-style="normal" font-weight="900" font-stretch="normal" cap-height="691" x-height="493" underline-position="-80" underline-thickness="80" />
<missing-glyph  horiz-adv-x="453" d="M0 689 L452 689 L452 0 L0 0 L0 689 Z M336 77 L226 273 L116 77 L336 77 Z M336 611 L114 611 L226 417 L336 611 Z M78 157 L182 345 L78 533 L78 157 Z M373 157 L373 534 L269 344 L373 157 Z " />
<glyph glyph-name="NULL" d="" />
<glyph glyph-name="nonmarkingreturn" unicode="&#xd;" horiz-adv-x="318" d="" />
<glyph glyph-name="space" unicode="&#x20;" horiz-adv-x="318" d="" />
<glyph glyph-name="dollar" unicode="&#x24;" horiz-adv-x="630" d="M328 747 L374 747 L374 676 Q411 673 448 664 Q485 655 515 639 L515 476 L416 476 L416 544 Q398 551 374 556 L374 401 Q408 391 442 377 Q476 363 503.5 341 Q531 319 548.5 288 Q566 257 566 212 Q566 127 514.5 76 Q463 25 374 11 L374 -77 L328 -77 L328 747 Z M295 -77 L250 -77 L250 9 Q206 13 162.5 23 Q119 33 78 52 L78 221 L179 221 L179 150 Q195 142 212.5 138.5 Q230 135 250 133 L250 293 Q214 304 181 318.5 Q148 333 123 354.5 Q98 376 83 405.5 Q68 435 68 475 Q68 558 116.5 611 Q165 664 250 676 L250 747 L295 747 L295 -77 Z M420 201 Q420 223 408 236 Q396 249 374 258 L374 140 Q420 153 420 201 Z M209 492 Q209 471 219.5 459 Q230 447 250 439 L250 550 Q231 543 220 529 Q209 515 209 492 Z " />
<glyph glyph-name="percent" unicode="&#x25;" horiz-adv-x="980" d="M410 467 Q410 425 400 387.5 Q390 350 367.5 322 Q345 294 308.5 277.5 Q272 261 220 261 Q166 261 129.5 277 Q93 293 70.5 321 Q48 349 38 386.5 Q28 424 28 467 Q28 509 38 546.5 Q48 584 70.5 612.5 Q93 641 130 657.5 Q167 674 221 674 Q275 674 311.5 657 Q348 640 370 611.5 Q392 583 401 545.5 Q410 508 410 467 Z M279 467 Q279 489 277 509.5 Q275 530 268.5 546 Q262 562 250.5 571.5 Q239 581 221 581 Q201 581 189 571 Q177 561 170.5 545 Q164 529 162 508.5 Q160 488 160 467 Q160 416 171.5 385 Q183 354 221 354 Q255 354 267 386.5 Q279 419 279 467 Z M379 -19 L273 -19 L606 714 L713 714 L379 -19 Z M947 201 Q947 159 937 121 Q927 83 904.5 55 Q882 27 845.5 10.5 Q809 -6 757 -6 Q703 -6 666.5 10.5 Q630 27 607.5 55 Q585 83 575 120.5 Q565 158 565 200 Q565 242 575 279.5 Q585 317 607.5 345.5 Q630 374 667 390.5 Q704 407 758 407 Q812 407 848.5 390 Q885 373 907 344.5 Q929 316 938 279 Q947 242 947 201 Z M816 200 Q816 222 814 242.5 Q812 263 805.5 279 Q799 295 787.5 305 Q776 315 758 315 Q738 315 726 305 Q714 295 707.5 278.5 Q701 262 699 241.5 Q697 221 697 200 Q697 149 708.5 118 Q720 87 758 87 Q775 87 786.5 96 Q798 105 804.5 120 Q811 135 813.5 155.5 Q816 176 816 200 Z " />
<glyph glyph-name="ampersand" unicode="&#x26;" horiz-adv-x="842" d="M318 -18 Q264 -18 217 -5 Q170 8 135.5 34.5 Q101 61 81 99.5 Q61 138 61 189 Q61 247 95.5 303 Q130 359 212 401 Q188 433 177 467 Q166 501 166 533 Q166 555 174 582.5 Q182 610 202 634.5 Q222 659 257.5 676 Q293 693 347 693 Q406 693 443 675.5 Q480 658 501 633.5 Q522 609 529.5 583.5 Q537 558 537 542 Q537 512 524.5 486 Q512 460 492.5 438 Q473 416 449 398.5 Q425 381 403 368 Q421 346 440 323 Q459 300 480 276 Q497 258 512.5 240.5 Q528 223 545 206 Q565 226 580.5 252 Q596 278 603 305 L548 305 L548 416 L808 416 L808 305 L749 305 Q738 257 711 209.5 Q684 162 642 119 Q674 93 711.5 68 Q749 43 781 28 L720 -74 Q699 -65 675 -52.5 Q651 -40 627 -25 Q603 -10 579.5 6.5 Q556 23 536 40 Q490 11 434.5 -3.5 Q379 -18 318 -18 Z M373 198 Q350 224 328.5 249 Q307 274 287 299 Q260 282 241.5 257.5 Q223 233 223 201 Q223 154 256.5 129 Q290 104 341 104 Q389 104 436 129 Q419 146 404 163.5 Q389 181 373 198 Z M307 540 Q307 524 315.5 502.5 Q324 481 339 460 Q351 467 363.5 475 Q376 483 386.5 493.5 Q397 504 403.5 516 Q410 528 410 542 Q410 565 395 578 Q380 591 356 591 Q332 591 319.5 574.5 Q307 558 307 540 Z " />
<glyph glyph-name="quotesingle" unicode="&#x27;" horiz-adv-x="277" d="M83 419 L62 692 L211 692 L189 419 L83 419 Z " />
<glyph glyph-name="parenleft" unicode="&#x28;" horiz-adv-x="371" d="M64 275 Q64 339 78 400.5 Q92 462 117 518 Q142 574 175 623 Q208 672 247 712 L329 661 Q315 641 296 607.5 Q277 574 260 526.5 Q243 479 231 417.5 Q219 356 219 281 Q219 198 231 133 Q243 68 260 19.5 Q277 -29 296 -62 Q315 -95 329 -113 L249 -167 Q210 -127 176 -78 Q142 -29 117 27.5 Q92 84 78 146 Q64 208 64 275 Z " />
<glyph glyph-name="parenright" unicode="&#x29;" horiz-adv-x="372" d="M308 276 Q308 209 294 146.5 Q280 84 255 28 Q230 -28 196 -77 Q162 -126 123 -166 L44 -113 Q57 -95 76 -61.5 Q95 -28 112 20.5 Q129 69 141 134 Q153 199 153 282 Q153 357 141 418.5 Q129 480 112 527.5 Q95 575 76 608.5 Q57 642 43 661 L126 713 Q164 673 197.5 624 Q231 575 255.5 519 Q280 463 294 401.5 Q308 340 308 276 Z " />
<glyph glyph-name="asterisk" unicode="&#x2a;" horiz-adv-x="448" d="M266 582 Q293 596 320.5 612 Q348 628 376 643 Q389 613 397.5 583 Q406 553 414 522 Q382 517 351.5 513 Q321 509 289 505 L379 422 Q332 384 279 349 Q265 377 252.5 405 Q240 433 227 461 Q214 433 201 405.5 Q188 378 175 349 Q148 366 123 384 Q98 402 73 422 Q96 443 119 464.5 Q142 486 164 507 L41 522 Q49 554 58.5 584 Q68 614 79 644 Q106 627 133.5 612 Q161 597 188 581 L163 701 Q180 702 195.5 702 Q211 702 228 702 Q245 702 260 702 Q275 702 291 701 Q284 671 278.5 641 Q273 611 266 582 Z " />
<glyph glyph-name="plus" unicode="&#x2b;" horiz-adv-x="630" d="M381 254 L381 81 L275 81 L275 254 L111 254 L111 357 L275 357 L275 526 L381 526 L381 357 L545 357 L545 254 L381 254 Z " />
<glyph glyph-name="comma" unicode="&#x2c;" horiz-adv-x="305" d="M53 87 Q53 105 60 121 Q67 137 80 149 Q93 161 111 168 Q129 175 151 175 Q177 175 195.5 165.5 Q214 156 226 140.5 Q238 125 243.5 105.5 Q249 86 249 65 Q249 32 237.5 -1.5 Q226 -35 206 -65 Q186 -95 158.5 -120.5 Q131 -146 99 -163 L52 -102 Q82 -76 97.5 -50 Q113 -24 118 8 Q83 12 68 33.5 Q53 55 53 87 Z " />
<glyph glyph-name="hyphen" unicode="&#x2d;" horiz-adv-x="415" d="M64 210 L64 335 L351 335 L351 210 L64 210 Z " />
<glyph glyph-name="period" unicode="&#x2e;" horiz-adv-x="305" d="M247 83 Q247 63 239.5 46 Q232 29 219 16 Q206 3 189 -4.5 Q172 -12 153 -12 Q133 -12 116 -4.5 Q99 3 85.5 16 Q72 29 64.5 46 Q57 63 57 83 Q57 103 64.5 120.5 Q72 138 85 150.5 Q98 163 115.5 170.5 Q133 178 152 178 Q171 178 188.5 170.5 Q206 163 219 150.5 Q232 138 239.5 120.5 Q247 103 247 83 Z " />
<glyph glyph-name="slash" unicode="&#x2f;" horiz-adv-x="402" d="M136 -37 L3 -37 L264 711 L397 711 L136 -37 Z " />
<glyph glyph-name="zero" unicode="0" horiz-adv-x="630" d="M605 334 Q605 263 589.5 201 Q574 139 540 92 Q506 45 450.5 18 Q395 -9 316 -9 Q233 -9 177 18 Q121 45 86.5 91.5 Q52 138 37.5 200 Q23 262 23 333 Q23 402 38 464.5 Q53 527 87 574.5 Q121 622 177 650 Q233 678 316 678 Q398 678 453.5 649.5 Q509 621 543 573.5 Q577 526 591 463.5 Q605 401 605 334 Z M415 333 Q415 373 411.5 411 Q408 449 397.5 479 Q387 509 367.5 527.5 Q348 546 316 546 Q283 546 263 527 Q243 508 232 477.5 Q221 447 217 409 Q213 371 213 333 Q213 287 217.5 248.5 Q222 210 233 182 Q244 154 264 138 Q284 122 316 122 Q346 122 365 138.5 Q384 155 395 184 Q406 213 410.5 251 Q415 289 415 333 Z " />
<glyph glyph-name="one" unicode="1" horiz-adv-x="630" d="M86 118 L225 118 L225 521 Q214 520 194.5 517.5 Q175 515 153.5 513 Q132 511 112.5 509 Q93 507 82 506 L64 607 L249 670 L413 670 L413 118 L554 118 L554 0 L86 0 L86 118 Z " />
<glyph glyph-name="two" unicode="2" horiz-adv-x="630" d="M291 118 Q304 118 324.5 118 Q345 118 367 117.5 Q389 117 409.5 117 Q430 117 443 117 L443 182 L576 182 L576 0 L38 0 L38 106 Q92 148 148.5 193.5 Q205 239 251.5 285 Q298 331 327.5 375 Q357 419 357 459 Q357 494 337.5 514.5 Q318 535 265 535 Q238 535 194.5 524 Q151 513 100 484 Q97 489 89 505.5 Q81 522 72 541 Q63 560 55.5 576 Q48 592 45 597 Q109 639 173.5 658 Q238 677 298 677 Q415 677 481 622 Q547 567 547 469 Q547 418 522.5 370 Q498 322 460 277.5 Q422 233 377 193.5 Q332 154 291 121 L291 118 Z " />
<glyph glyph-name="three" unicode="3" horiz-adv-x="630" d="M546 670 L567 572 L398 410 Q483 397 530.5 350 Q578 303 578 221 Q578 163 556 119.5 Q534 76 495.5 47 Q457 18 404.5 3.5 Q352 -11 291 -11 Q271 -11 242 -9 Q213 -7 179.5 -1 Q146 5 112 15 Q78 25 50 41 L91 159 Q148 141 187.5 134.5 Q227 128 261 128 Q321 128 353.5 153 Q386 178 386 221 Q386 239 380 255.5 Q374 272 359 284 Q344 296 318 303 Q292 310 252 310 Q234 310 210 307 L192 393 Q200 401 223.5 423.5 Q247 446 273.5 471.5 Q300 497 324 519.5 Q348 542 356 550 L214 550 L214 486 L82 486 L82 670 L546 670 Z " />
<glyph glyph-name="four" unicode="4" horiz-adv-x="630" d="M507 670 L507 309 L605 309 L605 190 L507 190 L507 118 L569 118 L569 0 L268 0 L268 118 L324 118 L324 190 L28 190 L28 292 Q36 303 57.5 332 Q79 361 107.5 399.5 Q136 438 167.5 481 Q199 524 227 562 Q255 600 276.5 629.5 Q298 659 306 670 L507 670 Z M319 479 L193 309 L325 309 L324 479 L319 479 Z " />
<glyph glyph-name="five" unicode="5" horiz-adv-x="630" d="M270 318 Q228 318 173 296 L86 337 L115 670 L542 670 L542 493 L405 493 L405 550 L261 550 L251 433 Q266 438 283 440.5 Q300 443 321 443 Q378 443 425.5 429 Q473 415 507 387.5 Q541 360 560 319.5 Q579 279 579 226 Q579 168 557 124 Q535 80 496.5 50 Q458 20 406 5 Q354 -10 293 -10 Q274 -10 244.5 -8 Q215 -6 181 0 Q147 6 113 16 Q79 26 51 42 L94 166 Q151 147 190.5 140 Q230 133 264 133 Q319 133 354 156 Q389 179 389 227 Q389 275 355 296.5 Q321 318 270 318 Z " />
<glyph glyph-name="six" unicode="6" horiz-adv-x="630" d="M232 391 Q270 411 306.5 419 Q343 427 375 427 Q416 427 453.5 414 Q491 401 520 375 Q549 349 566.5 310 Q584 271 584 219 Q584 163 564.5 120 Q545 77 510 48.5 Q475 20 427 5.5 Q379 -9 322 -9 Q246 -9 193 14 Q140 37 106.5 78 Q73 119 57.5 175.5 Q42 232 42 298 Q42 375 58.5 444 Q75 513 112.5 564.5 Q150 616 211 646 Q272 676 362 676 Q414 676 452.5 669 Q491 662 517 654 L493 530 Q456 540 426 543 Q396 546 376 546 Q337 546 310 532 Q283 518 265.5 496.5 Q248 475 239 448 Q230 421 227 395 L232 391 Z M325 306 Q292 306 268 294 Q244 282 230 274 L230 257 Q230 233 234 209.5 Q238 186 248 167.5 Q258 149 276 137 Q294 125 322 125 Q360 125 382.5 150 Q405 175 405 218 Q405 236 401.5 252 Q398 268 389 280 Q380 292 364.5 299 Q349 306 325 306 Z " />
<glyph glyph-name="seven" unicode="7" horiz-adv-x="630" d="M82 461 L82 669 L558 669 L558 558 L300 0 L120 0 L371 550 L220 550 L220 461 L82 461 Z " />
<glyph glyph-name="eight" unicode="8" horiz-adv-x="630" d="M242 492 Q242 476 250.5 464.5 Q259 453 273.5 443.5 Q288 434 307.5 425.5 Q327 417 349 407 Q378 431 388.5 451 Q399 471 399 490 Q399 514 380 534.5 Q361 555 317 555 Q298 555 284 548.5 Q270 542 260.5 532.5 Q251 523 246.5 512 Q242 501 242 492 Z M311 126 Q333 126 350 133 Q367 140 378 150.5 Q389 161 394.5 174 Q400 187 400 200 Q401 230 374.5 252.5 Q348 275 279 301 Q245 275 233.5 249.5 Q222 224 222 199 Q222 170 244 148 Q266 126 311 126 Z M565 500 Q565 468 548 428 Q531 388 482 350 Q530 325 558 285.5 Q586 246 586 189 Q586 147 566 110.5 Q546 74 510 48 Q474 22 423 7 Q372 -8 309 -8 Q181 -8 108.5 43 Q36 94 36 184 Q36 205 41.5 228.5 Q47 252 60 276.5 Q73 301 94 324 Q115 347 147 367 Q109 392 90 421 Q71 450 71 495 Q71 535 89.5 569.5 Q108 604 141 628.5 Q174 653 219 667 Q264 681 318 681 Q360 681 403.5 671.5 Q447 662 483 640 Q519 618 542 583.5 Q565 549 565 500 Z " />
<glyph glyph-name="nine" unicode="9" horiz-adv-x="630" d="M391 277 Q353 257 316.5 249 Q280 241 248 241 Q207 241 169.5 254 Q132 267 103 293 Q74 319 56.5 358 Q39 397 39 449 Q39 505 59.5 548 Q80 591 115.5 619.5 Q151 648 199.5 662.5 Q248 677 305 677 Q381 677 433.5 654 Q486 631 519 590 Q552 549 566.5 492.5 Q581 436 581 370 Q581 293 564.5 224 Q548 155 510.5 103.5 Q473 52 412 22 Q351 -8 261 -8 Q209 -8 170.5 -1 Q132 6 106 14 L130 138 Q167 128 197 125 Q227 122 247 122 Q286 122 313 136 Q340 150 357.5 171.5 Q375 193 384 220 Q393 247 396 273 L391 277 Z M298 362 Q331 362 355 374 Q379 386 393 394 L393 411 Q393 435 389 458.5 Q385 482 375 500.5 Q365 519 347 531 Q329 543 301 543 Q263 543 240.5 518 Q218 493 218 450 Q218 432 221.5 416 Q225 400 234 388 Q243 376 258.5 369 Q274 362 298 362 Z " />
<glyph glyph-name="colon" unicode="&#x3a;" horiz-adv-x="304" d="M247 83 Q247 63 239.5 46 Q232 29 219 16 Q206 3 189 -4.5 Q172 -12 153 -12 Q133 -12 116 -4.5 Q99 3 85.5 16 Q72 29 64.5 46 Q57 63 57 83 Q57 103 64.5 120.5 Q72 138 85 150.5 Q98 163 115.5 170.5 Q133 178 152 178 Q171 178 188.5 170.5 Q206 163 219 150.5 Q232 138 239.5 120.5 Q247 103 247 83 Z M247 367 Q247 347 239.5 329.5 Q232 312 219 299 Q206 286 189 279 Q172 272 153 272 Q133 272 116 279 Q99 286 85.5 299 Q72 312 64.5 329.5 Q57 347 57 367 Q57 386 64.5 403.5 Q72 421 85 434 Q98 447 115.5 454.5 Q133 462 152 462 Q171 462 188.5 454.5 Q206 447 219 434 Q232 421 239.5 403.5 Q247 386 247 367 Z " />
<glyph glyph-name="semicolon" unicode="&#x3b;" horiz-adv-x="304" d="M247 367 Q247 347 239.5 329.5 Q232 312 219 299 Q206 286 189 279 Q172 272 153 272 Q133 272 116 279 Q99 286 85.5 299 Q72 312 64.5 329.5 Q57 347 57 367 Q57 386 64.5 403.5 Q72 421 85 434 Q98 447 115.5 454.5 Q133 462 152 462 Q171 462 188.5 454.5 Q206 447 219 434 Q232 421 239.5 403.5 Q247 386 247 367 Z M54 87 Q54 105 61 121 Q68 137 80.5 149 Q93 161 111 168 Q129 175 151 175 Q178 175 196.5 165.5 Q215 156 227 140.5 Q239 125 244.5 105.5 Q250 86 250 65 Q250 32 238.5 -1.5 Q227 -35 206.5 -65 Q186 -95 158.5 -120.5 Q131 -146 99 -163 L53 -102 Q83 -76 98.5 -50 Q114 -24 119 8 Q84 12 69 33.5 Q54 55 54 87 Z " />
<glyph glyph-name="less" unicode="&#x3c;" horiz-adv-x="630" d="M558 28 L76 257 L76 341 L558 572 L558 452 L221 300 L558 147 L558 28 Z " />
<glyph glyph-name="equal" unicode="&#x3d;" horiz-adv-x="630" d="M94 336 L94 437 L536 437 L536 336 L94 336 Z M94 163 L94 262 L536 262 L536 163 L94 163 Z " />
<glyph glyph-name="greater" unicode="&#x3e;" horiz-adv-x="630" d="M77 147 L415 300 L77 452 L77 572 L559 341 L559 257 L77 28 L77 147 Z " />
<glyph glyph-name="question" unicode="&#x3f;" horiz-adv-x="541" d="M277 714 Q392 714 451 663.5 Q510 613 510 532 Q510 497 496 468 Q482 439 460.5 414 Q439 389 414 367 Q389 345 367.5 323 Q346 301 332 278.5 Q318 256 318 230 Q318 225 318.5 215.5 Q319 206 320 198 Q313 198 291 198 Q269 198 244 197.5 Q219 197 197.5 196.5 Q176 196 169 196 Q168 201 167 210 Q166 219 165.5 228.5 Q165 238 165 246 Q165 254 165 257 Q165 307 188 342.5 Q211 378 239 406.5 Q267 435 290 460.5 Q313 486 313 516 Q313 545 292 561.5 Q271 578 233 578 Q219 578 203.5 576 Q188 574 173 571 L172 496 L46 496 L46 672 Q113 697 172.5 705.5 Q232 714 277 714 Z M256 156 Q294 156 320.5 131 Q347 106 347 70 Q347 36 321 11 Q295 -14 257 -14 Q238 -14 221.5 -7 Q205 0 192.5 11.5 Q180 23 173 38 Q166 53 166 70 Q166 88 173 103.5 Q180 119 192 130.5 Q204 142 220.5 149 Q237 156 256 156 Z " />
<glyph glyph-name="at" unicode="&#x40;" horiz-adv-x="959" d="M496 712 Q583 712 652 687.5 Q721 663 768.5 618.5 Q816 574 841.5 511.5 Q867 449 867 372 Q867 321 850 281.5 Q833 242 805.5 214 Q778 186 741.5 171.5 Q705 157 666 157 Q644 157 622 161 Q600 165 581.5 173.5 Q563 182 549 195.5 Q535 209 529 228 Q504 199 469.5 185 Q435 171 407 171 Q372 171 350.5 182 Q329 193 317 208.5 Q305 224 300.5 242.5 Q296 261 296 276 Q296 306 308 325 Q320 344 346.5 356 Q373 368 414 375 Q455 382 513 388 L513 400 Q513 426 503.5 437 Q494 448 459 448 Q434 448 408 444 Q382 440 358 434 L340 511 Q372 524 410.5 531.5 Q449 539 489 539 Q520 539 547 533 Q574 527 594 513 Q614 499 625.5 476 Q637 453 637 419 L637 280 Q637 271 646 259 Q655 247 677 247 Q701 247 719 256.5 Q737 266 748.5 282 Q760 298 765.5 319 Q771 340 771 364 Q771 422 754 469.5 Q737 517 702.5 551 Q668 585 616.5 604 Q565 623 496 623 Q422 623 363.5 601 Q305 579 264.5 541 Q224 503 202.5 451 Q181 399 181 339 Q181 277 199.5 225 Q218 173 255 135 Q292 97 346.5 75.5 Q401 54 472 54 Q499 54 535.5 59 Q572 64 618 78 L644 1 Q625 -9 603 -15.5 Q581 -22 558 -26 Q535 -30 512.5 -32 Q490 -34 471 -34 Q378 -34 306.5 -6 Q235 22 185.5 71.5 Q136 121 110.5 188.5 Q85 256 85 336 Q85 417 116 486 Q147 555 202 605 Q257 655 332.5 683.5 Q408 712 496 712 Z M513 335 Q497 333 482 331 Q467 329 455 325 Q443 321 436 313.5 Q429 306 429 293 Q429 274 437 263.5 Q445 253 465 253 Q490 253 513 273 L513 335 Z " />
<glyph glyph-name="A" unicode="A" horiz-adv-x="794" d="M526 121 L504 192 L277 192 L254 121 L315 121 L315 0 L20 0 L20 121 L74 121 L284 690 L521 690 L719 121 L774 121 L774 0 L468 0 L468 121 L526 121 Z M468 307 Q451 367 433 424 Q415 481 397 541 L393 541 Q388 523 379 494.5 Q370 466 359 433.5 Q348 401 337 367.5 Q326 334 317 307 L468 307 Z " />
<glyph glyph-name="B" unicode="B" horiz-adv-x="742" d="M598 362 Q629 349 649.5 329 Q670 309 681 286.5 Q692 264 696.5 241 Q701 218 701 200 Q701 154 684 117 Q667 80 636 54 Q605 28 561 14 Q517 0 464 0 L43 0 L43 122 L117 122 L117 568 L45 568 L45 690 L453 690 Q568 690 624 639 Q680 588 680 502 Q680 490 676.5 471.5 Q673 453 664 433.5 Q655 414 639 395.5 Q623 377 598 364 L598 362 Z M310 296 L310 122 L409 122 Q454 122 476 147 Q498 172 498 208 Q498 244 476.5 270 Q455 296 409 296 L310 296 Z M310 568 L310 410 L399 410 Q438 410 459.5 432.5 Q481 455 481 490 Q481 525 461 546.5 Q441 568 399 568 L310 568 Z " />
<glyph glyph-name="C" unicode="C" horiz-adv-x="668" d="M254 350 Q254 288 265.5 247.5 Q277 207 300.5 183 Q324 159 360 149.5 Q396 140 445 140 Q457 140 476 141.5 Q495 143 517 145.5 Q539 148 562 151.5 Q585 155 603 160 L631 28 Q607 19 578 11.5 Q549 4 518.5 -1 Q488 -6 457 -8.5 Q426 -11 398 -11 Q293 -11 225.5 18 Q158 47 119 96.5 Q80 146 65 210 Q50 274 50 345 Q50 410 65 474.5 Q80 539 120 590.5 Q160 642 230 674 Q300 706 411 706 Q465 706 512 698.5 Q559 691 602 678 L602 456 L469 456 L469 557 Q455 560 441.5 561 Q428 562 414 562 Q369 562 338.5 547 Q308 532 289.5 504.5 Q271 477 262.5 437.5 Q254 398 254 350 Z " />
<glyph glyph-name="D" unicode="D" horiz-adv-x="784" d="M44 0 L44 122 L119 122 L119 568 L49 568 L49 691 L407 691 Q504 691 567.5 663.5 Q631 636 668 589 Q705 542 719.5 479.5 Q734 417 734 347 Q734 278 717.5 215.5 Q701 153 662 105 Q623 57 560 28.5 Q497 0 404 0 L44 0 Z M313 568 L313 122 L384 122 Q415 122 441.5 135.5 Q468 149 487.5 176.5 Q507 204 518 246 Q529 288 529 344 Q529 460 489 514 Q449 568 381 568 L313 568 Z " />
<glyph glyph-name="E" unicode="E" horiz-adv-x="713" d="M44 0 L44 123 L116 123 L116 568 L45 568 L45 690 L666 690 L666 453 L534 453 L534 568 L309 568 L309 411 L521 419 L521 292 L309 298 L309 123 L544 123 L544 246 L677 246 L677 0 L44 0 Z " />
<glyph glyph-name="F" unicode="F" horiz-adv-x="702" d="M44 0 L44 122 L117 122 L117 568 L45 568 L45 690 L668 690 L668 453 L535 453 L535 568 L310 568 L310 398 L521 405 L521 279 L310 285 L310 122 L402 122 L402 0 L44 0 Z " />
<glyph glyph-name="G" unicode="G" horiz-adv-x="737" d="M420 706 Q474 706 527.5 698.5 Q581 691 624 678 L624 462 L491 462 L491 556 Q477 559 460 561 Q443 563 428 563 Q381 563 348 547.5 Q315 532 294 504.5 Q273 477 263.5 437.5 Q254 398 254 350 Q254 238 290 187.5 Q326 137 406 137 Q423 137 442.5 139 Q462 141 479 145 L479 260 L405 260 L405 371 L700 371 L700 260 L652 260 L652 30 Q589 7 522 -2 Q455 -11 398 -11 Q293 -11 225.5 19 Q158 49 119 98.5 Q80 148 65 212 Q50 276 50 345 Q50 408 65 472.5 Q80 537 121 589 Q162 641 234 673.5 Q306 706 420 706 Z " />
<glyph glyph-name="H" unicode="H" horiz-adv-x="856" d="M484 0 L484 122 L547 122 L547 298 L310 298 L310 122 L373 122 L373 0 L44 0 L44 122 L118 122 L118 568 L44 568 L44 690 L373 690 L373 568 L310 568 L310 412 L547 412 L547 568 L484 568 L484 690 L812 690 L812 568 L740 568 L740 122 L812 122 L812 0 L484 0 Z " />
<glyph glyph-name="I" unicode="I" horiz-adv-x="475" d="M70 0 L70 122 L142 122 L142 568 L70 568 L70 691 L405 691 L405 568 L335 568 L335 122 L405 122 L405 0 L70 0 Z " />
<glyph glyph-name="J" unicode="J" horiz-adv-x="505" d="M79 691 L447 691 L447 568 L366 568 L366 183 Q366 28 280.5 -64.5 Q195 -157 29 -186 L-16 -51 Q41 -28 77.5 -5.5 Q114 17 135.5 43.5 Q157 70 165.5 104 Q174 138 174 184 L174 568 L79 569 L79 691 Z " />
<glyph glyph-name="K" unicode="K" horiz-adv-x="787" d="M510 421 L712 123 L768 123 L768 0 L444 0 L443 123 L496 123 L371 309 L304 251 L304 122 L365 122 L365 0 L44 0 L44 122 L117 122 L117 569 L44 569 L44 689 L370 689 L370 569 L304 569 L304 404 L492 569 L439 569 L439 689 L748 689 L748 569 L684 569 L510 421 Z " />
<glyph glyph-name="L" unicode="L" horiz-adv-x="687" d="M44 0 L44 122 L118 122 L118 568 L45 568 L45 690 L383 690 L383 568 L311 568 L311 122 L538 122 L538 252 L671 252 L671 0 L44 0 Z " />
<glyph glyph-name="M" unicode="M" horiz-adv-x="1043" d="M526 318 Q534 335 540.5 351.5 Q547 368 554 384 Q566 411 583 451 Q600 491 618 534.5 Q636 578 653.5 619.5 Q671 661 683 690 L1001 690 L1001 568 L937 568 L937 121 L1001 121 L1001 0 L692 0 L692 121 L749 121 L749 451 L746 451 Q738 432 730 413 Q722 394 714 374 Q702 346 687.5 312 Q673 278 658.5 243.5 Q644 209 630 177 Q616 145 606 120 L446 120 Q413 189 383 255 Q353 321 321 391 Q315 406 308 421 Q301 436 295 451 L292 451 L292 121 L355 121 L355 0 L39 0 L39 121 L113 121 L113 568 L39 568 L39 690 L357 690 Q389 618 423.5 541.5 Q458 465 490 391 Q509 350 522 318 L526 318 Z " />
<glyph glyph-name="N" unicode="N" horiz-adv-x="880" d="M589 264 L589 568 L522 568 L522 690 L835 690 L835 568 L768 568 L768 0 L579 0 L420 245 L335 379 L291 450 Q290 450 290 449.5 Q290 449 289 449 L289 121 L357 121 L357 0 L42 0 L42 121 L112 121 L112 568 L43 568 L43 690 L318 690 Q349 641 376.5 597.5 Q404 554 431 511.5 Q458 469 485 425.5 Q512 382 541 334 Q552 317 562.5 299.5 Q573 282 584 264 L589 264 Z " />
<glyph glyph-name="O" unicode="O" horiz-adv-x="793" d="M743 347 Q743 270 721 204.5 Q699 139 656 91 Q613 43 548 16 Q483 -11 398 -11 Q309 -11 244 15.5 Q179 42 135.5 89 Q92 136 71 202 Q50 268 50 346 Q50 422 71 487.5 Q92 553 135 601.5 Q178 650 243.5 677.5 Q309 705 398 705 Q487 705 552 677.5 Q617 650 659.5 601.5 Q702 553 722.5 487.5 Q743 422 743 347 Z M537 346 Q537 392 531 432.5 Q525 473 509 504 Q493 535 466.5 553 Q440 571 398 571 Q356 571 328 552.5 Q300 534 283.5 503 Q267 472 260.5 431.5 Q254 391 254 346 Q254 293 261.5 251.5 Q269 210 286 181.5 Q303 153 330.5 137.5 Q358 122 398 122 Q436 122 462.5 138.5 Q489 155 505.5 184.5 Q522 214 529.5 255 Q537 296 537 346 Z " />
<glyph glyph-name="P" unicode="P" horiz-adv-x="685" d="M659 472 Q659 430 644.5 391 Q630 352 600.5 321 Q571 290 526 271.5 Q481 253 420 253 L307 253 L307 122 L398 122 L398 0 L44 0 L44 122 L114 122 L114 568 L44 568 L44 691 L405 691 Q473 691 521.5 674.5 Q570 658 600.5 629 Q631 600 645 560 Q659 520 659 472 Z M307 568 L307 371 L368 371 Q410 371 433 395.5 Q456 420 456 467 Q456 519 432 543.5 Q408 568 363 568 L307 568 Z " />
<glyph glyph-name="Q" unicode="Q" horiz-adv-x="798" d="M741 346 Q741 246 706 167.5 Q671 89 601 44 L753 4 Q740 -31 727 -65 Q714 -99 700 -134 L394 -27 Q371 -21 349.5 -15 Q328 -9 308 -2 Q242 11 193.5 41 Q145 71 113 116 Q81 161 65.5 219 Q50 277 50 345 Q50 421 70.5 486.5 Q91 552 134 600.5 Q177 649 242 676.5 Q307 704 396 704 Q486 704 551 676.5 Q616 649 658 600.5 Q700 552 720.5 486.5 Q741 421 741 346 Z M536 345 Q536 391 530 431.5 Q524 472 508.5 503 Q493 534 465.5 552 Q438 570 396 570 Q354 570 326.5 551.5 Q299 533 282.5 502 Q266 471 259.5 430.5 Q253 390 253 345 Q253 292 260.5 250.5 Q268 209 285 180.5 Q302 152 329 136.5 Q356 121 396 121 Q434 121 461 137.5 Q488 154 504.5 183.5 Q521 213 528.5 254 Q536 295 536 345 Z " />
<glyph glyph-name="R" unicode="R" horiz-adv-x="748" d="M468 483 Q468 528 443 548 Q418 568 380 568 L305 568 L305 388 L373 388 Q392 388 409.5 392.5 Q427 397 440 408 Q453 419 460.5 437.5 Q468 456 468 483 Z M305 272 L305 123 L372 123 L372 0 L48 0 L48 123 L115 123 L115 568 L48 568 L48 691 L429 691 Q498 691 544.5 674 Q591 657 619.5 627.5 Q648 598 660.5 560 Q673 522 673 480 Q673 456 667 430.5 Q661 405 647.5 381 Q634 357 613.5 337 Q593 317 563 305 L652 118 L733 107 L733 3 Q718 -2 700 -6 Q682 -10 665 -12.5 Q648 -15 632.5 -16 Q617 -17 607 -17 Q554 -17 527 5.5 Q500 28 480 73 L393 272 L305 272 Z " />
<glyph glyph-name="S" unicode="S" horiz-adv-x="672" d="M183 218 L184 145 Q199 139 216 135.5 Q233 132 250 129.5 Q267 127 282 126 Q297 125 308 125 Q369 125 393.5 145 Q418 165 418 193 Q418 218 404 231 Q390 244 366 252 Q296 275 237.5 294.5 Q179 314 137 338 Q95 362 72 396 Q49 430 49 483 Q49 585 121.5 642.5 Q194 700 337 700 Q365 700 396.5 697.5 Q428 695 459.5 689.5 Q491 684 521 675 Q551 666 577 654 Q577 610 577.5 567 Q578 524 578 480 L445 480 Q445 498 444.5 516 Q444 534 444 551 Q424 559 395.5 563 Q367 567 348 567 Q295 567 273 548 Q251 529 251 504 Q251 487 263 474 Q275 461 295 451 Q315 441 340.5 432.5 Q366 424 393 416 Q444 401 487.5 384.5 Q531 368 563.5 344 Q596 320 614.5 285.5 Q633 251 633 200 Q633 97 555 42.5 Q477 -12 320 -12 Q255 -12 185.5 -1.5 Q116 9 53 35 Q53 80 52.5 126 Q52 172 52 218 L183 218 Z " />
<glyph glyph-name="T" unicode="T" horiz-adv-x="695" d="M170 0 L170 122 L252 122 L252 568 L148 568 L149 451 L18 451 L18 691 L677 691 L677 451 L546 451 L546 568 L443 568 L443 122 L524 122 L524 0 L170 0 Z " />
<glyph glyph-name="U" unicode="U" horiz-adv-x="800" d="M707 259 Q707 195 689.5 145 Q672 95 634.5 60.5 Q597 26 539 8 Q481 -10 401 -10 Q317 -10 257.5 8.5 Q198 27 161 61.5 Q124 96 107 146 Q90 196 90 259 L90 568 L34 568 L34 691 L339 691 L339 568 L280 568 L280 250 Q280 183 311 153 Q342 123 402 123 Q427 123 448.5 129.5 Q470 136 486 151 Q502 166 511 190.5 Q520 215 520 250 L520 568 L463 568 L463 691 L766 691 L766 568 L707 568 L707 259 Z " />
<glyph glyph-name="V" unicode="V" horiz-adv-x="779" d="M463 690 L766 690 L766 567 L713 567 L512 0 L270 0 L64 567 L12 567 L12 690 L324 690 L324 567 L265 567 Q291 482 317 401.5 Q343 321 369 237 L393 157 L397 157 Q403 177 409.5 197 Q416 217 421 238 Q447 320 472 402.5 Q497 485 524 567 L463 567 L463 690 Z " />
<glyph glyph-name="W" unicode="W" horiz-adv-x="1135" d="M563 307 L533 209 L468 0 L227 0 L67 567 L13 567 L13 691 L331 691 L331 567 L275 567 L331 341 L373 164 L376 164 L425 339 L478 519 L462 567 L405 567 L404 691 L718 691 L719 567 L654 567 L727 342 L779 186 L782 186 L819 353 L870 567 L811 567 L811 691 L1124 691 L1124 567 L1066 567 Q1063 554 1050.5 510.5 Q1038 467 1021 408.5 Q1004 350 985 283.5 Q966 217 949 158.5 Q932 100 919.5 56.5 Q907 13 904 0 L662 0 L596 210 L566 307 L563 307 Z " />
<glyph glyph-name="X" unicode="X" horiz-adv-x="765" d="M460 691 L734 691 L734 567 L679 567 L506 343 L671 123 L738 123 L738 0 L382 0 L382 123 L429 123 L337 258 L243 123 L293 123 L293 0 L21 0 L21 123 L76 123 L249 365 L104 566 L25 566 L25 691 L383 691 L383 566 L336 566 L422 444 L510 567 L460 567 L460 691 Z " />
<glyph glyph-name="Y" unicode="Y" horiz-adv-x="733" d="M476 567 L419 567 L419 691 L719 691 L719 567 L667 567 L468 250 L468 122 L543 122 L543 0 L184 0 L184 122 L260 122 L260 249 L64 567 L14 567 L14 691 L317 691 L317 567 L262 567 L367 377 L371 377 L476 567 Z " />
<glyph glyph-name="Z" unicode="Z" horiz-adv-x="672" d="M274 123 L513 123 L513 258 L646 258 L646 0 L28 0 L28 121 L378 569 L184 569 L184 451 L52 451 L52 691 L627 691 L627 574 L274 123 Z " />
<glyph glyph-name="bracketleft" unicode="&#x5b;" horiz-adv-x="355" d="M70 -159 L70 701 L320 701 L320 600 L227 600 L227 -65 L320 -65 L320 -159 L70 -159 Z " />
<glyph glyph-name="backslash" unicode="&#x5c;" horiz-adv-x="402" d="M3 711 L136 711 L397 -37 L264 -37 L3 711 Z " />
<glyph glyph-name="bracketright" unicode="&#x5d;" horiz-adv-x="355" d="M43 -159 L43 -65 L137 -65 L137 600 L43 600 L43 701 L294 701 L294 -159 L43 -159 Z " />
<glyph glyph-name="asciicircum" unicode="&#x5e;" horiz-adv-x="522" d="M373 336 L255 549 L139 336 L18 336 L214 677 L297 677 Q346 591 395 506.5 Q444 422 494 336 L373 336 Z " />
<glyph glyph-name="underscore" unicode="&#x5f;" horiz-adv-x="500" d="M0 -156 L0 -67 L501 -67 L501 -156 L0 -156 Z " />
<glyph glyph-name="grave" unicode="&#x60;" horiz-adv-x="545" d="M168 670 L252 769 L421 593 L366 530 L168 670 Z " />
<glyph glyph-name="a" unicode="a" horiz-adv-x="608" d="M518 120 L586 120 Q588 94 590 69 Q592 44 594 18 Q562 3 521 -4.5 Q480 -12 442 -12 Q406 -12 380 1 Q354 14 352 55 Q352 55 351 56 Q328 32 303.5 18 Q279 4 257 -2.5 Q235 -9 217 -10.5 Q199 -12 189 -12 Q141 -12 110.5 2.5 Q80 17 62 38.5 Q44 60 37.5 85.5 Q31 111 31 132 Q31 158 39 181.5 Q47 205 67 224 Q87 243 121 257 Q155 271 208 277 L341 289 L341 305 Q341 338 324.5 355.5 Q308 373 263 373 Q228 373 186 367 Q144 361 113 351 L85 463 Q107 472 134.5 479.5 Q162 487 191.5 492.5 Q221 498 251 500.5 Q281 503 310 503 Q358 503 396.5 494 Q435 485 462 464.5 Q489 444 503.5 410 Q518 376 518 327 L518 120 Z M272 204 Q246 200 235 186 Q224 172 224 155 Q224 129 235.5 114.5 Q247 100 275 100 Q291 100 308 107.5 Q325 115 339 128 L339 213 L272 204 Z " />
<glyph glyph-name="b" unicode="b" horiz-adv-x="661" d="M357 -11 Q339 -11 307.5 -9 Q276 -7 238 -0.5 Q200 6 158.5 17.5 Q117 29 79 47 L79 602 L17 602 L17 720 L267 720 L267 468 Q305 490 342 498 Q379 506 402 506 Q465 506 506.5 486.5 Q548 467 572.5 432.5 Q597 398 607.5 350.5 Q618 303 618 247 Q618 196 607 149.5 Q596 103 566.5 67.5 Q537 32 486.5 10.5 Q436 -11 357 -11 Z M351 373 Q331 373 309.5 365.5 Q288 358 268 347 L268 134 Q290 125 310.5 121.5 Q331 118 347 118 Q363 118 378.5 122.5 Q394 127 405.5 140.5 Q417 154 424 179 Q431 204 431 245 Q431 289 424 314.5 Q417 340 405.5 353 Q394 366 379.5 369.5 Q365 373 351 373 Z " />
<glyph glyph-name="c" unicode="c" horiz-adv-x="529" d="M306 506 Q349 506 393 499.5 Q437 493 475 479 L475 312 L353 312 L353 372 Q346 374 337 374 Q328 374 323 374 Q298 374 280.5 364.5 Q263 355 251.5 338.5 Q240 322 235 299 Q230 276 230 250 Q230 212 237.5 187.5 Q245 163 258.5 149 Q272 135 290.5 129 Q309 123 331 123 Q362 123 399 129 Q436 135 467 145 Q475 118 483.5 88 Q492 58 500 30 Q459 10 405.5 0 Q352 -10 299 -10 Q220 -10 169.5 10.5 Q119 31 89.5 66 Q60 101 49 147 Q38 193 38 244 Q38 289 49 336 Q60 383 89.5 420.5 Q119 458 171 482 Q223 506 306 506 Z " />
<glyph glyph-name="d" unicode="d" horiz-adv-x="666" d="M400 41 Q383 27 362.5 17.5 Q342 8 322 2 Q302 -4 283.5 -7 Q265 -10 252 -10 Q191 -10 150 9 Q109 28 84.5 61 Q60 94 50 139 Q40 184 40 235 Q40 293 51.5 343 Q63 393 89 429 Q115 465 157 485.5 Q199 506 261 506 Q272 506 288 504.5 Q304 503 321.5 500 Q339 497 357.5 492 Q376 487 392 480 L392 602 L324 602 L324 720 L580 720 L580 118 L642 118 L642 0 L403 0 L403 40 L400 41 Z M309 374 Q296 374 281.5 370 Q267 366 255 352 Q243 338 235.5 311 Q228 284 228 239 Q228 200 235 176.5 Q242 153 253 140.5 Q264 128 279 124 Q294 120 309 120 Q328 120 351 128 Q374 136 391 148 L391 352 Q373 362 351 368 Q329 374 309 374 Z " />
<glyph glyph-name="e" unicode="e" horiz-adv-x="572" d="M301 380 Q264 380 248 354 Q232 328 231 295 L364 295 Q364 313 361 328.5 Q358 344 351 355.5 Q344 367 332 373.5 Q320 380 301 380 Z M300 505 Q372 505 417 483 Q462 461 488 426.5 Q514 392 523.5 348 Q533 304 533 261 L533 220 L228 220 Q228 166 253.5 143.5 Q279 121 337 121 Q373 121 411.5 128.5 Q450 136 486 149 L522 39 Q470 11 411 0 Q352 -11 301 -11 Q221 -11 170.5 10.5 Q120 32 91 68 Q62 104 51 150 Q40 196 40 245 Q40 292 53 338.5 Q66 385 96 422 Q126 459 176 482 Q226 505 300 505 Z " />
<glyph glyph-name="f" unicode="f" horiz-adv-x="483" d="M44 118 L105 118 L105 375 L33 375 L33 476 L106 498 L106 548 Q106 582 113.5 614.5 Q121 647 143 672.5 Q165 698 205.5 714 Q246 730 313 730 Q342 730 387 725.5 Q432 721 473 708 L448 583 Q425 588 400.5 590 Q376 592 359 592 Q326 592 307 580 Q288 568 288 539 L288 492 L429 492 L429 375 L288 375 L288 118 L362 118 L362 0 L44 0 L44 118 Z " />
<glyph glyph-name="g" unicode="g" horiz-adv-x="631" d="M534 406 Q545 390 551 365 Q557 340 557 323 Q557 279 537.5 246.5 Q518 214 484.5 192.5 Q451 171 407 160 Q363 149 314 148 L255 147 Q206 147 206 118 Q206 98 237 98 L389 98 Q436 98 474.5 90.5 Q513 83 541 66.5 Q569 50 584 23 Q599 -4 599 -43 Q599 -75 584.5 -106.5 Q570 -138 533 -163.5 Q496 -189 434 -204.5 Q372 -220 278 -220 Q206 -220 158.5 -209.5 Q111 -199 83.5 -182 Q56 -165 44.5 -143 Q33 -121 33 -97 Q33 -59 50.5 -29.5 Q68 0 96 17 Q70 25 56.5 45 Q43 65 43 92 Q43 124 65 148.5 Q87 173 125 187 Q94 201 74 233.5 Q54 266 54 316 Q54 366 75 401.5 Q96 437 130.5 460 Q165 483 210.5 493.5 Q256 504 304 504 Q337 504 366.5 500.5 Q396 497 416 492 L603 492 L603 410 L539 410 L534 406 Z M249 -7 Q235 -13 226 -26 Q217 -39 217 -50 Q217 -70 236 -84 Q255 -98 304 -98 Q349 -98 376.5 -84 Q404 -70 404 -49 Q404 -30 389.5 -18.5 Q375 -7 346 -7 L249 -7 Z M368 324 Q368 348 353.5 367 Q339 386 304 386 Q273 386 258 367.5 Q243 349 243 323 Q243 295 258 279.5 Q273 264 302 264 Q330 264 349 278.5 Q368 293 368 324 Z " />
<glyph glyph-name="h" unicode="h" horiz-adv-x="689" d="M81 0 L81 602 L20 602 L20 719 L270 719 L270 448 Q308 476 348.5 490.5 Q389 505 428 505 Q476 505 508.5 491 Q541 477 561 453 Q581 429 589.5 396.5 Q598 364 598 328 L598 124 L662 124 L662 13 Q632 2 597 -4.5 Q562 -11 533 -11 Q494 -11 469.5 -1.5 Q445 8 432 24 Q419 40 414.5 60.5 Q410 81 410 103 L410 290 Q410 329 395 345.5 Q380 362 349 362 Q331 362 309 353.5 Q287 345 270 332 L270 0 L81 0 Z " />
<glyph glyph-name="i" unicode="i" horiz-adv-x="390" d="M45 374 L45 493 L283 493 L283 125 L352 125 L352 14 Q323 1 285 -5.5 Q247 -12 218 -12 Q148 -12 121.5 16 Q95 44 94 99 L94 374 L45 374 Z M293 653 Q293 631 284.5 611.5 Q276 592 261 577 Q246 562 226.5 553.5 Q207 545 185 545 Q162 545 142.5 553.5 Q123 562 108.5 577 Q94 592 85.5 611.5 Q77 631 77 653 Q77 675 85.5 695 Q94 715 108.5 729.5 Q123 744 142.5 752.5 Q162 761 185 761 Q207 761 226.5 752.5 Q246 744 261 729.5 Q276 715 284.5 695 Q293 675 293 653 Z " />
<glyph glyph-name="k" unicode="k" horiz-adv-x="658" d="M466 316 L574 115 L642 103 L642 2 Q628 -3 610.5 -6 Q593 -9 575 -11 Q557 -13 541 -14 Q525 -15 516 -15 Q502 -15 488.5 -14 Q475 -13 461.5 -8.5 Q448 -4 436 6 Q424 16 415 33 L328 211 L280 175 L280 117 L326 117 L326 0 L30 0 L30 117 L90 117 L90 602 L27 602 L27 716 L280 716 L280 337 L369 407 L369 492 L612 492 L612 375 L544 375 L466 316 Z " />
<glyph glyph-name="l" unicode="l" horiz-adv-x="392" d="M292 118 L355 118 L355 0 L41 0 L41 118 L103 118 L103 601 L39 601 L39 719 L292 719 L292 118 Z " />
<glyph glyph-name="m" unicode="m" horiz-adv-x="990" d="M440 504 Q491 504 519.5 486.5 Q548 469 566 433 Q584 450 606 463 Q628 476 650.5 485 Q673 494 695.5 499 Q718 504 737 504 Q783 504 814.5 491 Q846 478 865 455 Q884 432 892 399 Q900 366 900 326 L900 124 L961 124 L961 13 Q931 2 897 -4.5 Q863 -11 834 -11 Q795 -11 771 -3 Q747 5 733.5 20.5 Q720 36 715.5 59.5 Q711 83 711 114 L711 301 Q711 334 699.5 347 Q688 360 662 360 Q645 360 623 352 Q601 344 585 332 Q587 318 587 304 Q587 290 587 277 L587 0 L401 0 L401 305 Q401 328 391 343.5 Q381 359 357 359 Q342 359 319.5 352 Q297 345 277 331 L277 0 L88 0 L88 375 L26 375 L26 493 L271 493 L271 446 L275 444 Q315 475 360 489.5 Q405 504 440 504 Z " />
<glyph glyph-name="n" unicode="n" horiz-adv-x="696" d="M435 505 Q483 505 516 491 Q549 477 568.5 453 Q588 429 596.5 397 Q605 365 605 328 L605 124 L669 124 L669 14 Q639 1 604 -5 Q569 -11 540 -11 Q499 -11 475 0 Q451 11 438 28.5 Q425 46 421 66.5 Q417 87 417 106 L417 290 Q417 329 402.5 345.5 Q388 362 356 362 Q338 362 316 353.5 Q294 345 277 332 L277 0 L87 0 L87 376 L27 376 L27 493 L273 493 L273 450 Q274 450 276 449.5 Q278 449 279 449 Q317 475 357 490 Q397 505 435 505 Z " />
<glyph glyph-name="o" unicode="o" horiz-adv-x="628" d="M588 247 Q588 193 571.5 146 Q555 99 521 64.5 Q487 30 435 10 Q383 -10 312 -10 Q242 -10 190.5 9.5 Q139 29 105.5 63 Q72 97 56 144 Q40 191 40 247 Q40 301 56.5 348 Q73 395 107 429.5 Q141 464 193 484 Q245 504 315 504 Q385 504 436.5 484 Q488 464 522 429.5 Q556 395 572 348 Q588 301 588 247 Z M395 247 Q395 272 391.5 295 Q388 318 379.5 336 Q371 354 355.5 364.5 Q340 375 316 375 Q291 375 275 364 Q259 353 249.5 335 Q240 317 236.5 294 Q233 271 233 247 Q233 220 236.5 196 Q240 172 249 154 Q258 136 273.5 126 Q289 116 314 116 Q338 116 354 126.5 Q370 137 379 154.5 Q388 172 391.5 196 Q395 220 395 247 Z " />
<glyph glyph-name="p" unicode="p" horiz-adv-x="665" d="M25 -94 L87 -94 L87 374 L26 374 L26 492 L264 492 L264 451 L267 450 Q284 464 304 474 Q324 484 344.5 490 Q365 496 383.5 499 Q402 502 415 502 Q476 502 517 483 Q558 464 582.5 430.5 Q607 397 617 352.5 Q627 308 627 257 Q627 198 615.5 149 Q604 100 578 65 Q552 30 509.5 10 Q467 -10 406 -10 Q395 -10 379.5 -8.5 Q364 -7 346 -4 Q328 -1 309.5 4 Q291 9 275 17 L275 -94 L340 -94 L340 -212 L25 -212 L25 -94 Z M358 122 Q371 122 385.5 126.5 Q400 131 412 145.5 Q424 160 431.5 186 Q439 212 439 254 Q439 293 432 316 Q425 339 414 351 Q403 363 388 366.5 Q373 370 358 370 Q339 370 316 362 Q293 354 276 342 L276 145 Q294 134 316 128 Q338 122 358 122 Z " />
<glyph glyph-name="q" unicode="q" horiz-adv-x="654" d="M330 -93 L394 -93 L394 26 Q356 4 319 -4.5 Q282 -13 259 -13 Q201 -13 160 4 Q119 21 92.5 52.5 Q66 84 54.5 128.5 Q43 173 43 227 Q43 281 55.5 331 Q68 381 99.5 419.5 Q131 458 185 481 Q239 504 323 504 Q341 504 370.5 502 Q400 500 435 494.5 Q470 489 508.5 479 Q547 469 582 452 L582 -93 L644 -93 L644 -212 L330 -212 L330 -93 Z M310 121 Q331 121 352 127.5 Q373 134 393 145 L393 360 Q378 365 360 368.5 Q342 372 325 372 Q306 372 288.5 366 Q271 360 258 346 Q245 332 237.5 308 Q230 284 230 247 Q230 204 237 179 Q244 154 255.5 141 Q267 128 281.5 124.5 Q296 121 310 121 Z " />
<glyph glyph-name="r" unicode="r" horiz-adv-x="521" d="M285 416 Q302 430 324 445.5 Q346 461 371 473.5 Q396 486 422.5 494.5 Q449 503 474 503 Q497 503 505.5 490.5 Q514 478 514 450 Q514 435 511 415.5 Q508 396 501.5 376.5 Q495 357 485 338.5 Q475 320 460 306 L283 332 L283 118 L343 118 L343 0 L37 0 L37 118 L95 118 L95 375 L41 375 L41 494 L280 494 L280 418 L285 416 Z " />
<glyph glyph-name="s" unicode="s" horiz-adv-x="552" d="M159 167 Q159 154 159 141.5 Q159 129 160 116 Q172 110 197 106 Q222 102 245 102 Q274 102 295.5 111.5 Q317 121 317 138 Q317 163 300 170 Q283 177 254 185 Q213 197 174 209 Q135 221 104.5 238.5 Q74 256 55 281.5 Q36 307 36 345 Q36 423 97 463.5 Q158 504 274 504 Q323 504 377.5 494.5 Q432 485 474 465 Q474 432 474 399 Q474 366 475 333 L350 333 Q350 345 349.5 357 Q349 369 349 381 Q335 386 320 388 Q305 390 291 390 Q264 390 247.5 380 Q231 370 231 353 Q231 336 251 327.5 Q271 319 294 313 Q324 305 362.5 296.5 Q401 288 434.5 270 Q468 252 491.5 221 Q515 190 515 138 Q515 66 452.5 28 Q390 -10 259 -10 Q238 -10 210.5 -8.5 Q183 -7 153 -2.5 Q123 2 93 9 Q63 16 36 28 Q36 62 36 97 Q36 132 35 167 L159 167 Z " />
<glyph glyph-name="t" unicode="t" horiz-adv-x="465" d="M268 639 L268 493 L407 493 L407 375 L268 375 L268 205 Q268 159 282 144 Q296 129 336 129 Q347 129 368.5 131 Q390 133 414 138 L435 18 Q418 11 398 5.5 Q378 0 358 -3.5 Q338 -7 318.5 -9 Q299 -11 283 -11 Q216 -11 176 4.5 Q136 20 115 44 Q94 68 87.5 97.5 Q81 127 81 156 L81 375 L13 375 L13 477 L95 501 L138 628 L268 639 Z " />
<glyph glyph-name="u" unicode="u" horiz-adv-x="685" d="M357 493 L595 493 L595 124 L657 124 L657 13 Q612 -2 578.5 -6.5 Q545 -11 524 -11 Q469 -11 445.5 7.5 Q422 26 416 61 Q379 26 337 6.5 Q295 -13 250 -13 Q169 -13 128.5 30 Q88 73 88 154 L88 374 L27 374 L27 493 L278 493 L278 198 Q278 164 288.5 148.5 Q299 133 331 133 Q343 133 365 140.5 Q387 148 406 168 L406 375 L357 375 L357 493 Z " />
<glyph glyph-name="v" unicode="v" horiz-adv-x="668" d="M340 136 Q342 143 348 161 Q354 179 360.5 198.5 Q367 218 373 235.5 Q379 253 381 260 L419 374 L385 374 L385 493 L643 493 L643 374 L603 374 Q599 363 587.5 334 Q576 305 560.5 267 Q545 229 527 187 Q509 145 493.5 107 Q478 69 466.5 40 Q455 11 451 0 L214 0 Q210 11 200 38.5 Q190 66 176.5 102.5 Q163 139 148 179 Q133 219 120 255.5 Q107 292 96.5 319.5 Q86 347 83 358 L25 358 L25 493 L221 493 L294 268 L336 136 L340 136 Z " />
<glyph glyph-name="w" unicode="w" horiz-adv-x="952" d="M661 124 L697 241 L736 375 L689 375 L689 493 L943 493 L943 375 L903 374 L781 0 L544 0 L503 113 L472 208 L468 208 L403 0 L171 0 L59 358 L9 358 L9 493 L196 493 L264 256 L300 123 L306 123 L344 246 L378 357 L371 374 L313 374 L313 493 L606 493 L606 374 L564 374 L616 235 L656 124 L661 124 Z " />
<glyph glyph-name="x" unicode="x" horiz-adv-x="645" d="M355 322 L412 383 L374 383 L374 493 L612 493 L612 383 L579 383 L437 242 L563 110 L619 110 L619 0 L312 0 L312 110 L352 110 L283 183 L221 110 L259 110 L259 0 L30 0 L30 110 L73 110 L203 262 L88 383 L37 383 L37 493 L342 493 L342 383 L297 383 L355 322 Z " />
<glyph glyph-name="y" unicode="y" horiz-adv-x="651" d="M399 -119 Q390 -142 378 -160.5 Q366 -179 349 -192.5 Q332 -206 308 -213.5 Q284 -221 251 -221 Q244 -221 227 -220 Q210 -219 187.5 -216 Q165 -213 139.5 -208 Q114 -203 90 -194 L112 -69 Q117 -70 127 -71.5 Q137 -73 148 -74.5 Q159 -76 168.5 -77 Q178 -78 182 -78 Q217 -79 231.5 -69.5 Q246 -60 257 -33 L277 19 L189 19 Q184 34 174.5 61.5 Q165 89 153 122 Q141 155 128.5 191 Q116 227 104 260.5 Q92 294 82 321 Q72 348 67 364 L18 364 L18 493 L207 493 L317 122 L321 122 Q322 127 328.5 146 Q335 165 343 191 Q351 217 360.5 246.5 Q370 276 378.5 302.5 Q387 329 393.5 348.5 Q400 368 402 374 L355 374 L355 493 L630 493 L630 374 L585 374 L399 -119 Z " />
<glyph glyph-name="z" unicode="z" horiz-adv-x="568" d="M264 109 L411 109 L411 185 L532 185 L532 0 L35 0 L35 99 L289 383 L168 383 L168 312 L47 312 L47 493 L519 493 L519 397 L264 109 Z " />
<glyph glyph-name="braceleft" unicode="&#x7b;" horiz-adv-x="376" d="M246 -164 Q211 -164 185 -152 Q159 -140 142 -120 Q125 -100 116 -72.5 Q107 -45 107 -14 L107 148 Q107 189 87.5 207.5 Q68 226 32 231 L32 327 Q68 332 87.5 352 Q107 372 107 411 L107 551 Q107 581 114.5 608.5 Q122 636 138 657.5 Q154 679 180 691.5 Q206 704 244 704 L358 704 L358 605 L327 605 Q289 605 277.5 585.5 Q266 566 266 540 L266 388 Q266 346 246.5 318.5 Q227 291 188 283 L188 280 Q233 269 249.5 238 Q266 207 266 161 L266 -3 Q266 -16 268 -28 Q270 -40 276.5 -49 Q283 -58 294.5 -63.5 Q306 -69 326 -69 L358 -69 L358 -164 L246 -164 Z " />
<glyph glyph-name="bar" unicode="&#x7c;" horiz-adv-x="369" d="M122 -152 L122 713 L247 713 L247 -152 L122 -152 Z " />
<glyph glyph-name="braceright" unicode="&#x7d;" horiz-adv-x="376" d="M22 -164 L22 -69 L53 -69 Q72 -69 84 -63.5 Q96 -58 103 -49 Q110 -40 112 -28 Q114 -16 114 -3 L114 161 Q114 207 130 238 Q146 269 191 280 L191 283 Q152 291 133 318.5 Q114 346 114 388 L114 540 Q114 566 102 585.5 Q90 605 52 605 L22 605 L22 704 L135 704 Q172 704 198.5 691.5 Q225 679 241.5 657.5 Q258 636 265.5 608.5 Q273 581 273 551 L273 411 Q273 368 292.5 350 Q312 332 347 327 L347 231 Q312 226 292.5 208 Q273 190 273 148 L273 -14 Q273 -45 264 -72.5 Q255 -100 237.5 -120 Q220 -140 193.5 -152 Q167 -164 133 -164 L22 -164 Z " />
<glyph glyph-name="asciitilde" unicode="&#x7e;" horiz-adv-x="630" d="M437 217 Q404 217 369.5 224 Q335 231 303 239.5 Q271 248 243 255 Q215 262 193 262 L126 216 L64 262 Q90 332 126 359.5 Q162 387 206 387 Q235 387 267 380 Q299 373 330.5 365 Q362 357 392 350 Q422 343 449 343 L516 391 L576 345 Q553 281 519.5 249 Q486 217 437 217 Z " />
<glyph glyph-name="endash" unicode="&#x2013;" horiz-adv-x="500" d="M47 204 L47 312 L454 312 L454 204 L47 204 Z " />
<glyph glyph-name="emdash" unicode="&#x2014;" horiz-adv-x="1000" d="M63 204 L63 312 L936 312 L936 204 L63 204 Z " />
<glyph glyph-name="quoteleft" unicode="&#x2018;" horiz-adv-x="290" d="M241 502 Q241 485 234 469 Q227 453 214.5 441 Q202 429 184.5 422 Q167 415 146 415 Q120 415 102 424.5 Q84 434 72.5 449 Q61 464 55.5 483.5 Q50 503 50 523 Q50 556 62.5 588.5 Q75 621 96 650 Q117 679 144 702 Q171 725 199 739 L244 679 Q216 656 200.5 634 Q185 612 180 580 Q212 575 226.5 554.5 Q241 534 241 502 Z " />
<glyph glyph-name="quoteright" unicode="&#x2019;" horiz-adv-x="290" d="M53 652 Q53 670 60 686 Q67 702 79.5 714 Q92 726 110 733 Q128 740 149 740 Q175 740 193 730.5 Q211 721 222.5 705.5 Q234 690 239 670.5 Q244 651 244 631 Q244 598 231.5 565.5 Q219 533 198.5 504.5 Q178 476 151 453 Q124 430 96 416 L51 475 Q79 498 94.5 520 Q110 542 115 574 Q83 579 68 600 Q53 621 53 652 Z " />
<glyph glyph-name="quotedblleft" unicode="&#x201c;" horiz-adv-x="487" d="M235 502 Q235 467 208.5 441 Q182 415 139 415 Q113 415 95 424.5 Q77 434 66 449 Q55 464 49.5 483.5 Q44 503 44 523 Q44 556 56.5 588.5 Q69 621 90 649.5 Q111 678 137.5 701.5 Q164 725 193 739 Q204 724 215 709 Q226 694 238 679 Q210 656 194 634 Q178 612 174 580 Q206 575 220.5 554.5 Q235 534 235 502 Z M444 502 Q444 485 437 469 Q430 453 417.5 441 Q405 429 387.5 422 Q370 415 349 415 Q323 415 305 424.5 Q287 434 275.5 449 Q264 464 258.5 483.5 Q253 503 253 523 Q253 556 265.5 588.5 Q278 621 299 650 Q320 679 346.5 702 Q373 725 401 739 Q413 724 424 709 Q435 694 447 679 Q420 656 403.5 634 Q387 612 383 580 Q415 575 429.5 554.5 Q444 534 444 502 Z " />
<glyph glyph-name="quotedblright" unicode="&#x201d;" horiz-adv-x="487" d="M258 652 Q258 670 265 686 Q272 702 284.5 714 Q297 726 315 733 Q333 740 354 740 Q379 740 397.5 730.5 Q416 721 427 705.5 Q438 690 443.5 670.5 Q449 651 449 631 Q449 598 436.5 565.5 Q424 533 403.5 504.5 Q383 476 356 453 Q329 430 301 416 L255 475 Q283 498 299 520 Q315 542 319 574 Q287 579 272.5 600 Q258 621 258 652 Z M48 652 Q48 670 55 686 Q62 702 74.5 714 Q87 726 105 733 Q123 740 145 740 Q170 740 188.5 730.5 Q207 721 218 705.5 Q229 690 234.5 670.5 Q240 651 240 631 Q240 598 227.5 565.5 Q215 533 194 504.5 Q173 476 146 453 Q119 430 91 416 L45 475 Q74 498 89.5 520 Q105 542 109 574 Q77 579 62.5 600 Q48 621 48 652 Z " />
<glyph glyph-name="bullet" unicode="&#x2022;" horiz-adv-x="449" d="M370 268 Q370 238 358.5 211 Q347 184 327.5 164 Q308 144 281.5 132.5 Q255 121 225 121 Q195 121 168 132.5 Q141 144 121.5 164 Q102 184 90.5 211 Q79 238 79 268 Q79 298 90.5 325 Q102 352 121.5 371.5 Q141 391 168 402.5 Q195 414 225 414 Q255 414 281.5 402.5 Q308 391 327.5 371.5 Q347 352 358.5 325 Q370 298 370 268 Z " />
<glyph glyph-name="quotesinglbase" unicode="&#x201a;" horiz-adv-x="305" d="M53 87 Q53 105 60 121 Q67 137 80 149 Q93 161 111 168 Q129 175 151 175 Q177 175 195.5 165.5 Q214 156 226 140.5 Q238 125 243.5 105.5 Q249 86 249 65 Q249 32 237.5 -1.5 Q226 -35 206 -65 Q186 -95 158.5 -120.5 Q131 -146 99 -163 L52 -102 Q82 -76 97.5 -50 Q113 -24 118 8 Q83 12 68 33.5 Q53 55 53 87 Z " />
<glyph glyph-name="quotedblbase" unicode="&#x201e;" horiz-adv-x="530" d="M53 87 Q53 105 60 121 Q67 137 80 149 Q93 161 111 168 Q129 175 151 175 Q177 175 195.5 165.5 Q214 156 226 140.5 Q238 125 243.5 105.5 Q249 86 249 65 Q249 32 237.5 -1.5 Q226 -35 206 -65 Q186 -95 158.5 -120.5 Q131 -146 99 -163 L52 -102 Q82 -76 97.5 -50 Q113 -24 118 8 Q83 12 68 33.5 Q53 55 53 87 Z M281 87 Q281 105 288 121 Q295 137 307.5 149 Q320 161 338 168 Q356 175 378 175 Q405 175 423.5 165.5 Q442 156 454 140.5 Q466 125 471.5 105.5 Q477 86 477 65 Q477 32 465.5 -1.5 Q454 -35 433.5 -65 Q413 -95 385.5 -120.5 Q358 -146 326 -163 L279 -102 Q309 -76 325 -50 Q341 -24 345 8 Q311 12 296 33.5 Q281 55 281 87 Z " />
<glyph glyph-name="alpha" unicode="&#x3b1;" horiz-adv-x="661" d="M574 120 L635 120 L636 10 Q623 5 606 1.5 Q589 -2 571 -5 Q553 -8 535.5 -9.5 Q518 -11 503 -11 Q487 -11 472 -9 Q457 -7 444.5 -1 Q432 5 422 17 Q412 29 406 49 Q384 28 359.5 16 Q335 4 312.5 -2.5 Q290 -9 271.5 -10.5 Q253 -12 243 -12 Q177 -12 136 12 Q95 36 72.5 73 Q50 110 42 155.5 Q34 201 34 245 Q34 293 46.5 339.5 Q59 386 86 422.5 Q113 459 156 481 Q199 503 260 503 Q293 503 331 491.5 Q369 480 404 455 L423 493 L574 493 L574 120 Z M300 132 Q337 132 386 163 L386 344 Q369 355 347 364.5 Q325 374 308 374 Q270 374 246 346 Q222 318 222 253 Q222 215 229 191 Q236 167 247.5 154 Q259 141 272.5 136.5 Q286 132 300 132 Z " />
<glyph glyph-name="beta" unicode="&#x3b2;" horiz-adv-x="614" d="M40 -181 Q41 -151 41 -105.5 Q41 -60 41 -11.5 Q41 37 41 82 Q41 127 41 155 L41 464 Q41 511 53.5 557.5 Q66 604 95.5 641.5 Q125 679 173.5 702.5 Q222 726 295 726 Q361 726 407 709.5 Q453 693 481.5 667 Q510 641 523 608.5 Q536 576 536 543 Q536 495 516 458.5 Q496 422 461 405 Q497 394 519.5 374 Q542 354 554.5 329 Q567 304 571.5 276.5 Q576 249 576 222 Q576 109 518 50.5 Q460 -8 361 -8 Q327 -8 291 0.5 Q255 9 229 23 L229 -181 L40 -181 Z M298 599 Q264 599 248 577.5 Q232 556 232 516 L232 142 Q251 131 271.5 126.5 Q292 122 307 122 Q352 122 372.5 152 Q393 182 393 239 Q393 284 371.5 312.5 Q350 341 291 341 L268 341 L268 445 L291 445 Q322 445 341.5 465.5 Q361 486 361 524 Q361 561 343 580 Q325 599 298 599 Z " />
<glyph glyph-name="gamma" unicode="&#x3b3;" horiz-adv-x="663" d="M233 -13 Q229 -2 215.5 26.5 Q202 55 184.5 93 Q167 131 146.5 174 Q126 217 108 255 Q90 293 76.5 321.5 Q63 350 59 361 L6 361 L6 493 L200 493 Q202 488 208 473 Q214 458 221.5 437.5 Q229 417 238.5 394.5 Q248 372 255.5 352 Q263 332 269 317 Q275 302 277 297 Q278 294 285 276 Q292 258 300 236.5 Q308 215 315.5 197 Q323 179 324 176 L327 176 L365 279 Q367 286 372.5 299 Q378 312 383.5 326.5 Q389 341 394.5 354.5 Q400 368 402 374 L371 374 L371 493 L638 493 L638 374 L591 374 Q587 364 574.5 335 Q562 306 544.5 267.5 Q527 229 507 186 Q487 143 470 105 Q453 67 440 37.5 Q427 8 424 -2 L424 -212 L232 -212 L233 -13 Z " />
<glyph glyph-name="delta" unicode="&#x3b4;" horiz-adv-x="617" d="M318 725 Q364 725 418 717 Q472 709 512 691 L512 557 L390 557 L390 600 Q378 605 364 607.5 Q350 610 336 610 Q310 610 292 599 Q274 588 274 565 Q274 542 292 532 Q310 522 328 515 Q385 493 431 469.5 Q477 446 509.5 414.5 Q542 383 559.5 340.5 Q577 298 577 238 Q577 187 561 141.5 Q545 96 511 62.5 Q477 29 425.5 9.5 Q374 -10 304 -10 Q235 -10 184 9 Q133 28 100 61 Q67 94 51 139 Q35 184 35 237 Q35 306 65.5 362.5 Q96 419 159 449 Q126 471 106.5 498.5 Q87 526 87 565 Q87 641 145 683 Q203 725 318 725 Z M300 370 Q280 366 266 353 Q252 340 243 322 Q234 304 229.5 282 Q225 260 225 237 Q225 211 228.5 189.5 Q232 168 241.5 151.5 Q251 135 267 126 Q283 117 308 117 Q332 117 347 126.5 Q362 136 371 152.5 Q380 169 383.5 191 Q387 213 387 237 Q387 258 384 278.5 Q381 299 372 317 Q363 335 346 348.5 Q329 362 300 370 Z " />
<glyph glyph-name="epsilon" unicode="&#x3b5;" horiz-adv-x="486" d="M262 507 Q328 507 379 496.5 Q430 486 453 475 L453 341 L336 341 L336 391 Q326 394 312.5 395 Q299 396 289 396 Q257 396 241 382.5 Q225 369 225 349 Q225 327 239.5 316.5 Q254 306 277 306 L334 306 L334 207 L277 207 Q256 207 238.5 197 Q221 187 221 162 Q221 133 244.5 121 Q268 109 311 109 Q340 109 376.5 115 Q413 121 448 134 L479 29 Q446 13 389.5 0 Q333 -13 260 -13 Q142 -13 87 30 Q32 73 32 139 Q32 172 51.5 205 Q71 238 109 252 L109 254 Q74 267 55.5 293.5 Q37 320 37 354 Q37 384 50.5 411.5 Q64 439 91.5 460 Q119 481 161.5 494 Q204 507 262 507 Z " />
<glyph glyph-name="zeta" unicode="&#x3b6;" horiz-adv-x="483" d="M305 610 L173 610 L173 556 L62 556 L62 717 L503 717 L503 610 Q434 556 383.5 502 Q333 448 299 398.5 Q265 349 248.5 306.5 Q232 264 232 231 Q232 211 240.5 196.5 Q249 182 268 170 Q287 158 318 146 Q349 134 394 118 Q449 98 472 70.5 Q495 43 495 11 Q495 -15 482.5 -42.5 Q470 -70 449.5 -97.5 Q429 -125 402 -151 Q375 -177 346 -200 L261 -122 Q268 -112 277.5 -99.5 Q287 -87 296 -74.5 Q305 -62 311.5 -50.5 Q318 -39 318 -31 Q318 -9 274 4 Q221 20 179 38.5 Q137 57 108 81 Q79 105 64 135.5 Q49 166 49 206 Q49 248 69 299.5 Q89 351 123.5 405 Q158 459 205 511 Q252 563 306 605 L305 610 Z " />
<glyph glyph-name="eta" unicode="&#x3b7;" horiz-adv-x="693" d="M433 505 Q481 505 514 491 Q547 477 566.5 453 Q586 429 594.5 397 Q603 365 603 328 L603 124 L667 124 L667 14 Q637 1 602 -5 Q567 -11 538 -11 Q497 -11 473 0 Q449 11 436 28.5 Q423 46 419 66.5 Q415 87 415 106 L415 290 Q415 329 400.5 345.5 Q386 362 354 362 Q336 362 314 353.5 Q292 345 275 332 L275 0 L85 0 L85 376 L25 376 L25 493 L271 493 L271 450 Q272 450 274 449.5 Q276 449 277 449 Q315 475 355 490 Q395 505 433 505 Z " />
<glyph glyph-name="theta" unicode="&#x3b8;" horiz-adv-x="614" d="M577 363 Q577 286 563 218 Q549 150 517 99 Q485 48 432.5 18.5 Q380 -11 303 -11 Q226 -11 174.5 18.5 Q123 48 91.5 98 Q60 148 46.5 214 Q33 280 33 353 Q33 433 48 501.5 Q63 570 95.5 620 Q128 670 180.5 698.5 Q233 727 308 727 Q384 727 435.5 698 Q487 669 518.5 619.5 Q550 570 563.5 504 Q577 438 577 363 Z M222 304 Q222 256 224 220 Q226 184 235 160 Q244 136 260.5 124.5 Q277 113 305 113 Q330 113 345.5 126.5 Q361 140 370 165 Q379 190 382.5 225 Q386 260 387 304 L222 304 Z M386 417 Q386 460 382.5 493.5 Q379 527 370 550 Q361 573 345.5 585.5 Q330 598 306 598 Q281 598 265 585.5 Q249 573 240 549.5 Q231 526 227 492.5 Q223 459 222 417 L386 417 Z " />
<glyph glyph-name="upsilon" unicode="&#x3c5;" horiz-adv-x="656" d="M592 493 L592 220 Q592 160 572 116 Q552 72 517.5 43.5 Q483 15 435.5 1.5 Q388 -12 333 -12 Q207 -12 142 45 Q77 102 77 197 L77 374 L25 374 L25 493 L266 493 L266 192 Q266 160 282 140 Q298 120 334 120 Q345 120 357.5 124 Q370 128 380 137 Q390 146 396.5 160.5 Q403 175 403 196 L403 493 L592 493 Z " />
<glyph glyph-name="omega" unicode="&#x3c9;" horiz-adv-x="839" d="M497 333 L498 185 Q499 154 513.5 135.5 Q528 117 554 117 Q588 117 602.5 145.5 Q617 174 617 240 Q617 292 601.5 332 Q586 372 547 387 L576 503 Q639 497 682.5 475 Q726 453 753 418.5 Q780 384 792 338.5 Q804 293 804 241 Q804 190 791.5 144.5 Q779 99 751 65 Q723 31 678.5 11 Q634 -9 570 -9 Q527 -9 486 7 Q445 23 420 60 L414 60 Q388 23 345.5 7 Q303 -9 260 -9 Q194 -9 151 11 Q108 31 82 65 Q56 99 45.5 144.5 Q35 190 35 241 Q35 293 47 338.5 Q59 384 86 418.5 Q113 453 156.5 475 Q200 497 263 503 L291 387 Q252 372 237 332 Q222 292 222 240 Q222 180 234.5 148.5 Q247 117 285 117 Q313 117 328 135.5 Q343 154 343 185 L343 333 L497 333 Z " />
<glyph glyph-name="rho" unicode="&#x3c1;" horiz-adv-x="622" d="M310 122 Q325 122 340.5 127.5 Q356 133 368.5 147 Q381 161 389 186.5 Q397 212 397 253 Q397 292 389.5 315.5 Q382 339 370 352 Q358 365 342.5 369.5 Q327 374 312 374 Q278 374 253.5 345 Q229 316 229 261 L229 144 Q246 133 268 127.5 Q290 122 310 122 Z M40 196 Q40 286 64 345.5 Q88 405 127.5 440 Q167 475 218 489 Q269 503 324 503 Q393 503 442 483 Q491 463 522.5 428.5 Q554 394 568.5 347.5 Q583 301 583 248 Q583 191 570.5 144 Q558 97 531 63 Q504 29 461.5 10 Q419 -9 359 -9 Q336 -9 298 -3.5 Q260 2 228 17 L228 -207 L37 -207 Q37 -180 37.5 -142 Q38 -104 38.5 -67 Q39 -30 39 1 Q39 32 39 46 L40 196 Z " />
<glyph glyph-name="xi" unicode="&#x3be;" horiz-adv-x="494" d="M306 728 Q321 728 342.5 726.5 Q364 725 388 721.5 Q412 718 436 713 Q460 708 481 701 L454 578 Q409 589 376.5 592.5 Q344 596 324 596 Q295 596 277.5 588.5 Q260 581 250.5 570 Q241 559 238 545.5 Q235 532 235 520 Q235 482 262 465.5 Q289 449 331 449 L425 449 L425 328 L337 328 Q308 328 286.5 320 Q265 312 251.5 298.5 Q238 285 231.5 266.5 Q225 248 225 228 Q225 208 232.5 195 Q240 182 257.5 170 Q275 158 303.5 145.5 Q332 133 374 115 Q443 85 477 59.5 Q511 34 511 -4 Q511 -28 499 -55 Q487 -82 467.5 -109.5 Q448 -137 423.5 -163.5 Q399 -190 374 -213 L281 -141 Q301 -116 315 -94 Q329 -72 329 -58 Q329 -46 317.5 -37.5 Q306 -29 282 -18 Q235 4 190.5 23.5 Q146 43 112 68.5 Q78 94 57.5 129.5 Q37 165 37 221 Q37 276 66.5 323 Q96 370 150 391 Q115 403 95.5 423.5 Q76 444 65.5 466 Q55 488 52.5 508 Q50 528 50 540 Q50 577 65 611.5 Q80 646 111 671.5 Q142 697 190.5 712.5 Q239 728 306 728 Z " />
<glyph glyph-name="nu" unicode="&#x3bd;" horiz-adv-x="668" d="M340 136 Q342 143 348 161 Q354 179 360.5 198.5 Q367 218 373 235.5 Q379 253 381 260 L419 374 L385 374 L385 493 L643 493 L643 374 L603 374 Q599 363 587.5 334 Q576 305 560.5 267 Q545 229 527 187 Q509 145 493.5 107 Q478 69 466.5 40 Q455 11 451 0 L214 0 Q210 11 200 38.5 Q190 66 176.5 102.5 Q163 139 148 179 Q133 219 120 255.5 Q107 292 96.5 319.5 Q86 347 83 358 L25 358 L25 493 L221 493 L294 268 L336 136 L340 136 Z " />
<glyph glyph-name="omicron" unicode="&#x3bf;" horiz-adv-x="628" d="M588 247 Q588 193 571.5 146 Q555 99 521 64.5 Q487 30 435 10 Q383 -10 312 -10 Q242 -10 190.5 9.5 Q139 29 105.5 63 Q72 97 56 144 Q40 191 40 247 Q40 301 56.5 348 Q73 395 107 429.5 Q141 464 193 484 Q245 504 315 504 Q385 504 436.5 484 Q488 464 522 429.5 Q556 395 572 348 Q588 301 588 247 Z M395 247 Q395 272 391.5 295 Q388 318 379.5 336 Q371 354 355.5 364.5 Q340 375 316 375 Q291 375 275 364 Q259 353 249.5 335 Q240 317 236.5 294 Q233 271 233 247 Q233 220 236.5 196 Q240 172 249 154 Q258 136 273.5 126 Q289 116 314 116 Q338 116 354 126.5 Q370 137 379 154.5 Q388 172 391.5 196 Q395 220 395 247 Z " />
<glyph glyph-name="Euro" unicode="&#x20ac;" horiz-adv-x="630" d="M401 682 Q450 682 493 674.5 Q536 667 576 655 L576 479 L453 479 L453 538 Q430 544 404 544 Q339 544 306 510 Q273 476 263 415 L461 415 L461 354 L26 354 L26 415 L77 415 Q84 467 103.5 515.5 Q123 564 161 601 Q199 638 257.5 660 Q316 682 401 682 Z M26 314 L461 314 L461 257 L266 257 Q290 134 417 134 Q427 134 439 135 Q451 136 465 138 L465 195 L587 195 L587 16 Q546 4 491 -3.5 Q436 -11 389 -11 Q309 -11 252.5 10 Q196 31 159 67.5 Q122 104 102.5 153 Q83 202 77 257 L26 257 L26 314 Z " />
<glyph glyph-name="Phi" unicode="&#x3a6;" horiz-adv-x="936" d="M376 520 Q309 512 271 465.5 Q233 419 233 352 Q233 284 269 240.5 Q305 197 376 187 L376 520 Z M564 187 Q592 191 617.5 204 Q643 217 661.5 238.5 Q680 260 691 289 Q702 318 702 353 Q702 386 694 414.5 Q686 443 669 465.5 Q652 488 626 502.5 Q600 517 564 520 L564 187 Z M564 649 Q643 645 705 621 Q767 597 809.5 558 Q852 519 874 467.5 Q896 416 896 356 Q896 293 873.5 240.5 Q851 188 808 149 Q765 110 703.5 86.5 Q642 63 564 58 L564 0 L376 0 L376 58 Q297 62 235 84.5 Q173 107 129.5 145.5 Q86 184 63 237 Q40 290 40 355 Q40 415 64.5 467 Q89 519 133.5 558.5 Q178 598 239.5 622 Q301 646 376 650 L376 691 L564 691 L564 649 Z " />
<glyph glyph-name="Omega" unicode="&#x3a9;" horiz-adv-x="806" d="M673 122 L773 122 L773 0 L449 0 L449 125 Q503 141 525 193.5 Q547 246 547 353 Q547 461 514.5 516 Q482 571 407 571 Q332 571 297 514 Q262 457 262 353 Q262 249 283 195 Q304 141 355 126 L355 0 L29 0 L29 122 L132 122 L135 126 Q91 161 74.5 222 Q58 283 58 359 Q58 433 79.5 496.5 Q101 560 144.5 606.5 Q188 653 252.5 679.5 Q317 706 403 706 Q490 706 555.5 680.5 Q621 655 665 609 Q709 563 731 500.5 Q753 438 753 364 Q753 295 734.5 231 Q716 167 672 127 L673 122 Z " />
<glyph glyph-name="Psi" unicode="&#x3a8;" horiz-adv-x="970" d="M580 316 Q607 317 629.5 324 Q652 331 669 346.5 Q686 362 695.5 386 Q705 410 705 445 L705 691 L952 691 L952 569 L892 569 L892 461 Q891 336 815 265 Q739 194 580 190 L580 122 L653 122 L653 0 L320 0 L320 122 L395 122 L395 189 Q311 192 250.5 211.5 Q190 231 152 266.5 Q114 302 96 352 Q78 402 78 465 L78 569 L19 569 L19 691 L267 691 L268 444 Q268 378 300 348 Q332 318 395 316 L395 569 L343 569 L343 691 L630 691 L630 569 L580 569 L580 316 Z " />
<glyph glyph-name="sterling" unicode="&#xa3;" horiz-adv-x="630" d="M128 380 L134 461 Q142 570 200.5 629 Q259 688 374 688 Q439 688 487 675 Q535 662 570 648 L570 478 L444 478 L444 546 Q430 550 415.5 552.5 Q401 555 385 555 Q344 555 325.5 530 Q307 505 303 451 L298 380 L431 380 L431 295 L291 295 L288 253 Q285 211 275 175.5 Q265 140 240 116 L564 116 L564 0 L50 0 L51 116 Q90 146 102.5 183 Q115 220 119 262 L121 295 L63 295 L63 380 L128 380 Z " />
<glyph glyph-name="pi" unicode="&#x3c0;" horiz-adv-x="693" d="M272 375 L272 0 L86 0 L86 375 L28 375 L28 491 L663 491 L663 375 L601 375 L601 124 L670 124 L670 14 Q655 8 638 3 Q621 -2 603 -5.5 Q585 -9 567.5 -10.5 Q550 -12 536 -12 Q499 -12 475.5 -4 Q452 4 438 18.5 Q424 33 418.5 54 Q413 75 413 101 L413 375 L272 375 Z " />
<glyph glyph-name="lambda" unicode="&#x3bb;" horiz-adv-x="644" d="M322 338 L203 0 L15 0 L190 456 L290 456 L245 601 L124 622 L124 716 Q144 725 166.5 730.5 Q189 736 210.5 740 Q232 744 250.5 745.5 Q269 747 280 747 Q311 747 332 740.5 Q353 734 367.5 723 Q382 712 391.5 696 Q401 680 409 661 L588 118 L635 118 L637 11 Q622 5 604.5 1 Q587 -3 570 -5 Q553 -7 538 -8 Q523 -9 513 -9 Q466 -9 444 10.5 Q422 30 409 72 L326 338 L322 338 Z " />
<glyph glyph-name="kappa" unicode="&#x3ba;" horiz-adv-x="666" d="M466 316 L574 115 L642 103 L642 2 Q628 -3 610.5 -6 Q593 -9 575 -11 Q557 -13 541 -14 Q525 -15 516 -15 Q502 -15 488.5 -14 Q475 -13 461.5 -8.5 Q448 -4 436 6 Q424 16 415 33 L328 211 L280 175 L280 117 L326 117 L326 0 L30 0 L30 117 L90 117 L90 378 L27 378 L27 492 L280 492 L280 337 L369 407 L369 492 L612 492 L612 375 L544 375 L466 316 Z " />
<glyph glyph-name="&amp;#xb5;" unicode="&#xb5;" horiz-adv-x="662" d="M347 493 L585 493 L585 124 L647 124 L647 13 Q602 -2 568.5 -6.5 Q535 -11 514 -11 Q459 -11 435.5 7.5 Q412 26 406 61 Q374 31 340 12.5 Q306 -6 268 -11 L268 -94 L331 -94 L331 -211 L19 -211 L19 -94 L78 -94 L78 374 L17 374 L17 493 L268 493 L268 198 Q268 164 278.5 148.5 Q289 133 321 133 Q333 133 355 140.5 Q377 148 396 168 L396 375 L347 375 L347 493 Z " />
<glyph glyph-name="&amp;#x3bc;" unicode="&#x3bc;" horiz-adv-x="662" d="M347 493 L585 493 L585 124 L647 124 L647 13 Q602 -2 568.5 -6.5 Q535 -11 514 -11 Q459 -11 435.5 7.5 Q412 26 406 61 Q374 31 340 12.5 Q306 -6 268 -11 L268 -94 L331 -94 L331 -211 L19 -211 L19 -94 L78 -94 L78 374 L17 374 L17 493 L268 493 L268 198 Q268 164 278.5 148.5 Q289 133 321 133 Q333 133 355 140.5 Q377 148 396 168 L396 375 L347 375 L347 493 Z " />
<glyph glyph-name="phi" unicode="&#x3c6;" horiz-adv-x="821" d="M35 247 Q35 286 46 325 Q57 364 81 397.5 Q105 431 143.5 456.5 Q182 482 238 495 L289 406 Q253 382 236.5 341.5 Q220 301 220 247 Q220 186 241 151 Q262 116 320 112 L320 505 L528 505 Q588 505 636 486.5 Q684 468 717.5 434.5 Q751 401 768.5 354.5 Q786 308 786 252 Q786 195 768 148 Q750 101 713.5 66.5 Q677 32 622.5 12.5 Q568 -7 496 -9 L496 -207 L316 -207 L316 -9 Q229 -3 174 21.5 Q119 46 88 81.5 Q57 117 46 160.5 Q35 204 35 247 Z M598 252 Q598 277 593.5 300 Q589 323 577.5 340.5 Q566 358 546 368.5 Q526 379 496 380 L496 114 Q547 116 572.5 149.5 Q598 183 598 252 Z " />
<glyph glyph-name="chi" unicode="&#x3c7;" horiz-adv-x="645" d="M355 322 L412 383 L374 383 L374 493 L612 493 L612 383 L579 383 L437 242 L563 110 L619 110 L619 0 L312 0 L312 110 L352 110 L283 183 L221 110 L259 110 L259 0 L30 0 L30 110 L73 110 L203 262 L88 383 L37 383 L37 493 L342 493 L342 383 L297 383 L355 322 Z " />
<glyph glyph-name="psi" unicode="&#x3c8;" horiz-adv-x="865" d="M279 -95 L343 -95 L343 -5 Q275 -2 222.5 16 Q170 34 134 63.5 Q98 93 79 132.5 Q60 172 60 219 L60 374 L15 374 L15 493 L245 493 L245 208 Q245 193 250 179 Q255 165 266.5 154 Q278 143 296.5 135 Q315 127 343 126 L343 497 L300 497 L300 617 L527 617 L527 126 Q580 128 602 153.5 Q624 179 624 214 L624 493 L853 493 L853 374 L807 374 L807 219 Q807 172 788.5 132.5 Q770 93 734 63.5 Q698 34 646 16 Q594 -2 527 -5 L527 -95 L592 -95 L592 -213 L279 -213 L279 -95 Z " />
<glyph glyph-name="sigma" unicode="&#x3c3;" horiz-adv-x="630" d="M532 368 Q552 344 562.5 308 Q573 272 573 237 Q573 183 556 138 Q539 93 505.5 60.5 Q472 28 421 10 Q370 -8 303 -8 Q233 -8 182 10.5 Q131 29 97.5 62 Q64 95 47.5 140.5 Q31 186 31 241 Q31 293 48.5 339 Q66 385 101 419 Q136 453 188 472.5 Q240 492 310 492 L611 492 L611 375 L535 375 L532 368 Z M303 367 Q279 367 263.5 356.5 Q248 346 238.5 328.5 Q229 311 225 288.5 Q221 266 221 241 Q221 181 239 147.5 Q257 114 303 114 Q346 114 365.5 149 Q385 184 385 241 Q385 266 381.5 289 Q378 312 368.5 329.5 Q359 347 343 357 Q327 367 303 367 Z " />
<glyph glyph-name="tau" unicode="&#x3c4;" horiz-adv-x="494" d="M440 493 L440 375 L298 375 L298 202 Q298 155 317.5 140 Q337 125 381 125 Q392 125 413.5 127.5 Q435 130 458 135 L479 18 Q461 11 440 5.5 Q419 0 398 -3.5 Q377 -7 357 -9 Q337 -11 321 -11 Q255 -11 214 4.5 Q173 20 150.5 44 Q128 68 120.5 97.5 Q113 127 113 156 L113 375 L9 375 L9 493 L440 493 Z " />
<glyph glyph-name="iota" unicode="&#x3b9;" horiz-adv-x="378" d="M35 374 L35 493 L275 493 L275 125 L344 125 L344 14 Q329 8 312 3 Q295 -2 277 -5.5 Q259 -9 241.5 -10.5 Q224 -12 210 -12 Q140 -12 113.5 16 Q87 44 86 99 L86 374 L35 374 Z " />
<glyph glyph-name="Alpha" unicode="&#x391;" horiz-adv-x="794" d="M526 121 L504 192 L277 192 L254 121 L315 121 L315 0 L20 0 L20 121 L74 121 L284 690 L521 690 L719 121 L774 121 L774 0 L468 0 L468 121 L526 121 Z M468 307 Q451 367 433 424 Q415 481 397 541 L393 541 Q388 523 379 494.5 Q370 466 359 433.5 Q348 401 337 367.5 Q326 334 317 307 L468 307 Z " />
<glyph glyph-name="Beta" unicode="&#x392;" horiz-adv-x="742" d="M598 362 Q629 349 649.5 329 Q670 309 681 286.5 Q692 264 696.5 241 Q701 218 701 200 Q701 154 684 117 Q667 80 636 54 Q605 28 561 14 Q517 0 464 0 L43 0 L43 122 L117 122 L117 568 L45 568 L45 690 L453 690 Q568 690 624 639 Q680 588 680 502 Q680 490 676.5 471.5 Q673 453 664 433.5 Q655 414 639 395.5 Q623 377 598 364 L598 362 Z M310 296 L310 122 L409 122 Q454 122 476 147 Q498 172 498 208 Q498 244 476.5 270 Q455 296 409 296 L310 296 Z M310 568 L310 410 L399 410 Q438 410 459.5 432.5 Q481 455 481 490 Q481 525 461 546.5 Q441 568 399 568 L310 568 Z " />
<glyph glyph-name="Gamma" unicode="&#x393;" horiz-adv-x="681" d="M44 0 L44 122 L117 122 L117 569 L45 569 L45 690 L667 690 L667 455 L535 455 L535 569 L310 569 L310 122 L402 122 L402 0 L44 0 Z " />
<glyph glyph-name="Epsilon" unicode="&#x395;" horiz-adv-x="713" d="M44 0 L44 123 L116 123 L116 568 L45 568 L45 690 L666 690 L666 453 L534 453 L534 568 L309 568 L309 411 L521 419 L521 292 L309 298 L309 123 L544 123 L544 246 L677 246 L677 0 L44 0 Z " />
<glyph glyph-name="Zeta" unicode="&#x396;" horiz-adv-x="672" d="M274 123 L513 123 L513 258 L646 258 L646 0 L28 0 L28 121 L378 569 L184 569 L184 451 L52 451 L52 691 L627 691 L627 574 L274 123 Z " />
<glyph glyph-name="Eta" unicode="&#x397;" horiz-adv-x="856" d="M484 0 L484 122 L547 122 L547 298 L310 298 L310 122 L373 122 L373 0 L44 0 L44 122 L118 122 L118 568 L44 568 L44 690 L373 690 L373 568 L310 568 L310 412 L547 412 L547 568 L484 568 L484 690 L812 690 L812 568 L740 568 L740 122 L812 122 L812 0 L484 0 Z " />
<glyph glyph-name="Theta" unicode="&#x398;" horiz-adv-x="793" d="M294 410 L497 412 L497 296 L294 297 L294 410 Z M743 347 Q743 270 721 204.5 Q699 139 656 91 Q613 43 548 16 Q483 -11 398 -11 Q309 -11 244 15.5 Q179 42 135.5 89 Q92 136 71 202 Q50 268 50 346 Q50 422 71 487.5 Q92 553 135 601.5 Q178 650 243.5 677.5 Q309 705 398 705 Q487 705 552 677.5 Q617 650 659.5 601.5 Q702 553 722.5 487.5 Q743 422 743 347 Z M537 346 Q537 392 531 433 Q525 474 509 505 Q493 536 466.5 554 Q440 572 398 572 Q356 572 328 553.5 Q300 535 283.5 503.5 Q267 472 260.5 431.5 Q254 391 254 346 Q254 293 261.5 251.5 Q269 210 286 181 Q303 152 330.5 136.5 Q358 121 398 121 Q436 121 462.5 137.5 Q489 154 505.5 183.5 Q522 213 529.5 254.5 Q537 296 537 346 Z " />
<glyph glyph-name="Iota" unicode="&#x399;" horiz-adv-x="475" d="M70 0 L70 122 L142 122 L142 568 L70 568 L70 691 L405 691 L405 568 L335 568 L335 122 L405 122 L405 0 L70 0 Z " />
<glyph glyph-name="Kappa" unicode="&#x39a;" horiz-adv-x="787" d="M510 421 L712 123 L768 123 L768 0 L444 0 L443 123 L496 123 L371 309 L304 251 L304 122 L365 122 L365 0 L44 0 L44 122 L117 122 L117 569 L44 569 L44 689 L370 689 L370 569 L304 569 L304 404 L492 569 L439 569 L439 689 L748 689 L748 569 L684 569 L510 421 Z " />
<glyph glyph-name="Lambda" unicode="&#x39b;" horiz-adv-x="781" d="M249 121 L309 121 L309 0 L11 0 L11 121 L65 121 L276 690 L516 690 L714 121 L769 121 L769 0 L463 0 L463 121 L521 121 Q495 203 470 283.5 Q445 364 417 454 L392 541 L388 541 L349 424 L249 121 Z " />
<glyph glyph-name="Mu" unicode="&#x39c;" horiz-adv-x="1043" d="M526 318 Q534 335 540.5 351.5 Q547 368 554 384 Q566 411 583 451 Q600 491 618 534.5 Q636 578 653.5 619.5 Q671 661 683 690 L1001 690 L1001 568 L937 568 L937 121 L1001 121 L1001 0 L692 0 L692 121 L749 121 L749 451 L746 451 Q738 432 730 413 Q722 394 714 374 Q702 346 687.5 312 Q673 278 658.5 243.5 Q644 209 630 177 Q616 145 606 120 L446 120 Q413 189 383 255 Q353 321 321 391 Q315 406 308 421 Q301 436 295 451 L292 451 L292 121 L355 121 L355 0 L39 0 L39 121 L113 121 L113 568 L39 568 L39 690 L357 690 Q389 618 423.5 541.5 Q458 465 490 391 Q509 350 522 318 L526 318 Z " />
<glyph glyph-name="Nu" unicode="&#x39d;" horiz-adv-x="880" d="M589 264 L589 568 L522 568 L522 690 L835 690 L835 568 L768 568 L768 0 L579 0 L420 245 L335 379 L291 450 Q290 450 290 449.5 Q290 449 289 449 L289 121 L357 121 L357 0 L42 0 L42 121 L112 121 L112 568 L43 568 L43 690 L318 690 Q349 641 376.5 597.5 Q404 554 431 511.5 Q458 469 485 425.5 Q512 382 541 334 Q552 317 562.5 299.5 Q573 282 584 264 L589 264 Z " />
<glyph glyph-name="Xi" unicode="&#x39e;" horiz-adv-x="690" d="M176 546 L176 461 L44 461 L44 690 L643 690 L643 461 L511 461 L511 546 L176 546 Z M522 145 L522 246 L654 246 L654 0 L36 0 L36 246 L169 246 L169 145 L522 145 Z M199 299 L199 413 L492 415 L492 297 L199 299 Z " />
<glyph glyph-name="Omicron" unicode="&#x39f;" horiz-adv-x="793" d="M743 347 Q743 270 721 204.5 Q699 139 656 91 Q613 43 548 16 Q483 -11 398 -11 Q309 -11 244 15.5 Q179 42 135.5 89 Q92 136 71 202 Q50 268 50 346 Q50 422 71 487.5 Q92 553 135 601.5 Q178 650 243.5 677.5 Q309 705 398 705 Q487 705 552 677.5 Q617 650 659.5 601.5 Q702 553 722.5 487.5 Q743 422 743 347 Z M537 346 Q537 392 531 432.5 Q525 473 509 504 Q493 535 466.5 553 Q440 571 398 571 Q356 571 328 552.5 Q300 534 283.5 503 Q267 472 260.5 431.5 Q254 391 254 346 Q254 293 261.5 251.5 Q269 210 286 181.5 Q303 153 330.5 137.5 Q358 122 398 122 Q436 122 462.5 138.5 Q489 155 505.5 184.5 Q522 214 529.5 255 Q537 296 537 346 Z " />
<glyph glyph-name="Pi" unicode="&#x3a0;" horiz-adv-x="856" d="M484 0 L484 122 L547 122 L547 569 L311 569 L311 122 L374 122 L374 0 L44 0 L44 122 L118 122 L118 569 L44 569 L44 691 L813 691 L813 569 L740 569 L740 122 L813 122 L813 0 L484 0 Z " />
<glyph glyph-name="Rho" unicode="&#x3a1;" horiz-adv-x="685" d="M659 472 Q659 430 644.5 391 Q630 352 600.5 321 Q571 290 526 271.5 Q481 253 420 253 L307 253 L307 122 L398 122 L398 0 L44 0 L44 122 L114 122 L114 568 L44 568 L44 691 L405 691 Q473 691 521.5 674.5 Q570 658 600.5 629 Q631 600 645 560 Q659 520 659 472 Z M307 568 L307 371 L368 371 Q410 371 433 395.5 Q456 420 456 467 Q456 519 432 543.5 Q408 568 363 568 L307 568 Z " />
<glyph glyph-name="Delta" unicode="&#x394;" horiz-adv-x="767" d="M736 0 L29 0 L29 112 L275 690 L502 690 L736 107 L736 0 Z M539 121 Q508 204 479 286.5 Q450 369 419 453 Q410 478 401 502 Q392 526 384 551 L381 551 L334 426 Q301 341 272.5 267 Q244 193 215 121 L539 121 Z " />
<glyph glyph-name="Sigma" unicode="&#x3a3;" horiz-adv-x="686" d="M427 343 Q387 286 347.5 231.5 Q308 177 268 121 L517 121 L517 236 L649 236 L649 0 L26 0 L26 102 L211 357 Q166 416 122 474 Q78 532 33 591 L33 690 L637 690 L637 452 L507 452 L507 569 L278 569 L427 372 L427 343 Z " />
<glyph glyph-name="dagger" unicode="&#x2020;" horiz-adv-x="515" d="M330 383 L330 -76 L180 -76 L180 383 L41 383 L41 502 L180 502 L180 696 L330 696 L330 502 L475 502 L475 383 L330 383 Z " />
<glyph glyph-name="ellipsis" unicode="&#x2026;" horiz-adv-x="856" d="M800 86 Q800 66 792.5 49 Q785 32 772 19 Q759 6 742.5 -1 Q726 -8 707 -8 Q688 -8 670.5 -1 Q653 6 640 19 Q627 32 619.5 49 Q612 66 612 86 Q612 105 619.5 121.5 Q627 138 640 151 Q653 164 670 171.5 Q687 179 706 179 Q725 179 742.5 171.5 Q760 164 772.5 151 Q785 138 792.5 121.5 Q800 105 800 86 Z M520 86 Q520 66 512.5 49 Q505 32 492 19 Q479 6 462 -1 Q445 -8 426 -8 Q407 -8 390 -1 Q373 6 360 19 Q347 32 339.5 49 Q332 66 332 86 Q332 105 339.5 121.5 Q347 138 359.5 151 Q372 164 389 171.5 Q406 179 426 179 Q445 179 462 171.5 Q479 164 492 151 Q505 138 512.5 121.5 Q520 105 520 86 Z M243 86 Q243 66 235.5 49 Q228 32 215 19 Q202 6 185.5 -1 Q169 -8 150 -8 Q130 -8 113 -1 Q96 6 83 19 Q70 32 62.5 49 Q55 66 55 86 Q55 105 62.5 121.5 Q70 138 83 151 Q96 164 113 171.5 Q130 179 150 179 Q169 179 186 171.5 Q203 164 215.5 151 Q228 138 235.5 121.5 Q243 105 243 86 Z " />
<glyph glyph-name="registered" unicode="&#xae;" horiz-adv-x="631" d="M584 461 Q584 405 564 356.5 Q544 308 508 271.5 Q472 235 422.5 214 Q373 193 315 193 Q257 193 207.5 214 Q158 235 122 271.5 Q86 308 65.5 356.5 Q45 405 45 461 Q45 517 65 566 Q85 615 121 651.5 Q157 688 206.5 709 Q256 730 315 730 Q374 730 423.5 709 Q473 688 508.5 651.5 Q544 615 564 566 Q584 517 584 461 Z M529 461 Q529 505 513 544 Q497 583 468.5 612 Q440 641 401 658 Q362 675 315 675 Q268 675 229 658 Q190 641 161.5 612 Q133 583 117 544 Q101 505 101 461 Q101 417 116.5 378.5 Q132 340 160 311 Q188 282 227.5 265 Q267 248 315 248 Q365 248 405 265 Q445 282 472.5 311 Q500 340 514.5 378.5 Q529 417 529 461 Z M360 527 Q360 546 350 554 Q340 562 324 562 L294 562 L294 490 L321 490 Q338 490 349 497.5 Q360 505 360 527 Z M294 438 L294 378 L320 378 L320 326 L183 326 L183 378 L212 378 L212 561 L183 561 L183 614 L343 614 Q372 614 391.5 607 Q411 600 423 588 Q435 576 440.5 560 Q446 544 446 526 Q446 507 435 485 Q424 463 400 452 L436 377 Q437 377 442 376.5 Q447 376 453 375.5 Q459 375 464.5 374 Q470 373 471 373 L471 327 Q458 323 440.5 321 Q423 319 414 319 Q391 319 380 328.5 Q369 338 361 358 L324 438 L294 438 Z " />
<glyph glyph-name="trademark" unicode="&#x2122;" horiz-adv-x="937" d="M657 510 Q660 515 666 529.5 Q672 544 679 560 Q686 576 692 590.5 Q698 605 701 610 L736 690 L910 690 L910 622 L875 622 L875 397 L910 397 L910 329 L740 329 L740 397 L771 397 L771 553 L769 553 L730 466 Q728 463 724 453.5 Q720 444 715 432.5 Q710 421 706 411 Q702 401 701 398 L614 398 Q612 401 607.5 411.5 Q603 422 597.5 433.5 Q592 445 587 455 Q582 465 581 468 Q578 473 572.5 485 Q567 497 561 510 Q555 523 549.5 535 Q544 547 542 552 L541 552 L541 397 L575 397 L575 329 L400 329 L400 397 L440 397 L440 622 L400 622 L400 690 L573 690 L611 609 Q614 603 620 589 Q626 575 633.5 559 Q641 543 647 529 Q653 515 656 510 L657 510 Z M107 329 L107 397 L151 397 L151 621 L101 621 L101 559 L28 559 L28 690 L382 690 L382 559 L309 559 L309 621 L258 621 L258 397 L302 397 L302 329 L107 329 Z " />
<glyph glyph-name="copyright" unicode="&#xa9;" horiz-adv-x="878" d="M828 328 Q828 247 797 176 Q766 105 712.5 52 Q659 -1 588 -31.5 Q517 -62 437 -62 Q356 -62 284.5 -31.5 Q213 -1 159.5 52 Q106 105 75 176 Q44 247 44 328 Q44 409 75 480 Q106 551 159.5 604 Q213 657 284.5 687.5 Q356 718 437 718 Q517 718 588 687.5 Q659 657 712.5 604 Q766 551 797 480 Q828 409 828 328 Z M755 328 Q755 393 730 451 Q705 509 662 552 Q619 595 561 620 Q503 645 437 645 Q371 645 313 620 Q255 595 211.5 552 Q168 509 143 451 Q118 393 118 328 Q118 263 143 205 Q168 147 211.5 104 Q255 61 313 36 Q371 11 437 11 Q503 11 561 36 Q619 61 662 104 Q705 147 730 205 Q755 263 755 328 Z M348 324 Q348 283 357 256 Q366 229 382.5 212.5 Q399 196 423.5 189.5 Q448 183 480 183 Q488 183 501 184 Q514 185 529 186.5 Q544 188 559 190 Q574 192 585 195 L602 109 Q570 96 527 90 Q484 84 446 84 Q376 84 331 103.5 Q286 123 260 155.5 Q234 188 224 230.5 Q214 273 214 320 Q214 363 225 406.5 Q236 450 264 485 Q292 520 340 541.5 Q388 563 462 563 Q499 563 529.5 557.5 Q560 552 589 544 L589 401 L505 401 L505 463 Q497 465 485.5 466 Q474 467 466 467 Q404 467 376 429.5 Q348 392 348 324 Z " />
<glyph glyph-name="sigma1" unicode="&#x3c2;" horiz-adv-x="504" d="M311 504 Q355 504 395.5 498 Q436 492 473 479 Q473 470 473 446.5 Q473 423 472.5 396.5 Q472 370 472 346.5 Q472 323 472 314 L352 314 L352 373 Q347 375 338.5 376 Q330 377 321 377 Q270 377 247 344 Q224 311 224 257 Q224 234 229 215 Q234 196 248 178.5 Q262 161 288 143 Q314 125 356 104 Q420 72 446.5 44.5 Q473 17 473 -15 Q473 -37 461 -61.5 Q449 -86 428 -111.5 Q407 -137 380 -162.5 Q353 -188 323 -212 L235 -132 Q256 -106 269 -84 Q282 -62 282 -51 Q281 -29 237 -9 Q183 16 144.5 39.5 Q106 63 81 92 Q56 121 44.5 158 Q33 195 33 247 Q33 298 47 345 Q61 392 93.5 427 Q126 462 179.5 483 Q233 504 311 504 Z " />
<glyph glyph-name="yen" unicode="&#xa5;" horiz-adv-x="630" d="M61 314 L61 374 L143 374 Q136 388 125 412 Q114 436 101.5 462.5 Q89 489 78 512.5 Q67 536 60 550 L15 550 L15 670 L285 670 L285 550 L235 550 Q241 536 252 510 Q263 484 275 455 Q287 426 298.5 400 Q310 374 316 360 L319 360 Q325 374 336 400.5 Q347 427 358.5 455.5 Q370 484 381 510 Q392 536 398 550 L347 550 L347 670 L613 670 L613 550 L569 550 Q562 536 550.5 512.5 Q539 489 526.5 462.5 Q514 436 502.5 412 Q491 388 484 374 L570 374 L570 314 L61 314 Z M570 273 L570 213 L404 213 L404 118 L473 118 L473 0 L151 0 L151 118 L221 118 L221 211 L220 213 L61 213 L61 273 L570 273 Z " />
<glyph glyph-name="section" unicode="&#xa7;" horiz-adv-x="570" d="M507 316 Q507 275 491 244 Q475 213 443 188 Q519 135 519 65 Q519 -13 455.5 -59.5 Q392 -106 267 -106 Q212 -106 165.5 -96.5 Q119 -87 83 -74 L83 77 L199 77 Q199 60 198.5 44 Q198 28 198 11 Q212 7 229 3.5 Q246 0 266 0 Q291 0 308.5 5 Q326 10 336.5 18 Q347 26 351.5 35 Q356 44 356 53 Q356 73 337 89.5 Q318 106 262 126 Q225 139 190 153.5 Q155 168 128 187.5 Q101 207 84.5 233 Q68 259 68 296 Q68 377 136 426 Q109 445 91.5 471 Q74 497 74 538 Q74 582 92.5 614 Q111 646 143.5 666.5 Q176 687 219 696.5 Q262 706 311 706 Q365 706 412 696 Q459 686 487 672 L487 524 L369 524 L369 596 Q348 601 334.5 603 Q321 605 307 605 Q267 605 248.5 587.5 Q230 570 230 548 Q230 534 244.5 521.5 Q259 509 279 498.5 Q299 488 320 479.5 Q341 471 355 465 Q384 454 411.5 441.5 Q439 429 460 412 Q481 395 494 372 Q507 349 507 316 Z M371 289 Q371 302 361 313.5 Q351 325 333.5 335.5 Q316 346 292 356 Q268 366 240 377 Q222 364 215 350 Q208 336 208 321 Q208 303 217.5 293 Q227 283 244 275 Q261 267 286 258 Q311 249 343 234 Q357 245 364 260.5 Q371 276 371 289 Z " />
<glyph glyph-name="guillemotright" unicode="&#xbb;" horiz-adv-x="543" d="M512 185 L332 -11 L256 45 L360 204 L254 367 L330 418 L512 223 L512 185 Z M294 185 L116 -11 L38 45 L143 204 L36 367 L113 418 L294 223 L294 185 Z " />
<glyph glyph-name="degree" unicode="&#xb0;" horiz-adv-x="396" d="M357 537 Q357 504 344 474.5 Q331 445 309.5 423.5 Q288 402 258.5 389 Q229 376 196 376 Q162 376 132.5 387.5 Q103 399 81 420.5 Q59 442 46.5 471.5 Q34 501 34 537 Q34 571 47 600.5 Q60 630 82 652 Q104 674 133.5 686.5 Q163 699 196 699 Q229 699 258.5 687 Q288 675 309.5 653.5 Q331 632 344 602.5 Q357 573 357 537 Z M269 537 Q269 569 249.5 590.5 Q230 612 195 612 Q163 612 142.5 590.5 Q122 569 122 537 Q122 505 142.5 484 Q163 463 195 463 Q227 463 248 483.5 Q269 504 269 537 Z " />
<glyph glyph-name="germandbls" unicode="&#xdf;" horiz-adv-x="729" d="M519 140 Q519 162 505 182 Q491 202 470 222 Q449 242 424.5 262 Q400 282 379 304.5 Q358 327 344 352.5 Q330 378 330 409 Q330 442 344.5 464 Q359 486 376.5 503 Q394 520 408.5 535 Q423 550 423 568 Q423 576 420 585 Q417 594 409.5 601.5 Q402 609 389.5 613.5 Q377 618 359 618 Q336 618 321 611 Q306 604 297 592 Q288 580 284.5 563.5 Q281 547 281 529 L281 0 L27 0 L27 118 L95 118 L95 372 L31 372 L31 468 L95 468 L95 540 Q95 564 103.5 599 Q112 634 139 666.5 Q166 699 216.5 721.5 Q267 744 350 744 Q422 744 468 727.5 Q514 711 541 687 Q568 663 578.5 636.5 Q589 610 589 589 Q589 552 572.5 525 Q556 498 536.5 478 Q517 458 501 442.5 Q485 427 485 414 Q485 400 501 385 Q517 370 541 353.5 Q565 337 592.5 317.5 Q620 298 644 274 Q668 250 684 220.5 Q700 191 700 155 Q700 77 642.5 32 Q585 -13 479 -13 Q439 -13 401 -7 Q363 -1 325 9 L325 163 L430 163 L430 104 Q454 98 471 98 Q490 98 504.5 108 Q519 118 519 140 Z " />
<glyph glyph-name="guillemotleft" unicode="&#xab;" horiz-adv-x="543" d="M39 223 L222 418 L297 367 L191 204 L295 45 L218 -11 L39 185 L39 223 Z M256 223 L438 418 L514 367 L408 204 L512 45 L436 -11 L256 185 L256 223 Z " />
<glyph glyph-name="divide" unicode="&#xf7;" horiz-adv-x="630" d="M393 489 Q393 473 386.5 458.5 Q380 444 369.5 433.5 Q359 423 345 416.5 Q331 410 315 410 Q282 410 259 433.5 Q236 457 236 489 Q236 521 259 544 Q282 567 315 567 Q347 567 370 544 Q393 521 393 489 Z M94 254 L94 358 L535 358 L535 254 L94 254 Z M393 124 Q393 108 386.5 93.5 Q380 79 369.5 68.5 Q359 58 345 51.5 Q331 45 315 45 Q282 45 259 68.5 Q236 92 236 124 Q236 156 259 179 Q282 202 315 202 Q347 202 370 179 Q393 156 393 124 Z " />
<glyph glyph-name="circumflex" unicode="&#x2c6;" horiz-adv-x="600" d="M473 528 L300 629 L129 529 L87 579 L243 735 L358 735 L517 580 L473 528 Z " />
<glyph glyph-name="perthousand" unicode="&#x2030;" horiz-adv-x="1398" d="M410 467 Q410 425 400 387.5 Q390 350 367.5 322 Q345 294 308.5 277.5 Q272 261 220 261 Q166 261 129.5 277 Q93 293 70.5 321 Q48 349 38 386.5 Q28 424 28 467 Q28 509 38 546.5 Q48 584 70.5 612.5 Q93 641 130 657.5 Q167 674 221 674 Q275 674 311.5 657 Q348 640 370 611.5 Q392 583 401 545.5 Q410 508 410 467 Z M279 467 Q279 489 277 509.5 Q275 530 268.5 546 Q262 562 250.5 571.5 Q239 581 221 581 Q201 581 189 571 Q177 561 170.5 545 Q164 529 162 508.5 Q160 488 160 467 Q160 416 171.5 385 Q183 354 221 354 Q255 354 267 386.5 Q279 419 279 467 Z M380 -19 L274 -19 L607 714 L714 714 L380 -19 Z M947 201 Q947 159 937 121 Q927 83 904.5 55 Q882 27 845.5 10.5 Q809 -6 757 -6 Q703 -6 666.5 10.5 Q630 27 607.5 55 Q585 83 575 120.5 Q565 158 565 200 Q565 242 575 279.5 Q585 317 607.5 345.5 Q630 374 667 390.5 Q704 407 758 407 Q812 407 848.5 390 Q885 373 907 344.5 Q929 316 938 279 Q947 242 947 201 Z M816 200 Q816 222 814 242.5 Q812 263 805.5 279 Q799 295 787.5 305 Q776 315 758 315 Q738 315 726 305 Q714 295 707.5 278.5 Q701 262 699 241.5 Q697 221 697 200 Q697 149 708.5 118 Q720 87 758 87 Q775 87 786.5 96 Q798 105 804.5 120 Q811 135 813.5 155.5 Q816 176 816 200 Z M1365 201 Q1365 159 1355 121 Q1345 83 1322.5 55 Q1300 27 1263.5 10.5 Q1227 -6 1175 -6 Q1121 -6 1084.5 10.5 Q1048 27 1025.5 55 Q1003 83 993 120.5 Q983 158 983 200 Q983 242 993 279.5 Q1003 317 1025.5 345.5 Q1048 374 1085 390.5 Q1122 407 1176 407 Q1230 407 1266.5 390 Q1303 373 1325 344.5 Q1347 316 1356 279 Q1365 242 1365 201 Z M1234 200 Q1234 222 1232 242.5 Q1230 263 1223.5 279 Q1217 295 1205.5 305 Q1194 315 1176 315 Q1156 315 1144 305 Q1132 295 1125.5 278.5 Q1119 262 1117 241.5 Q1115 221 1115 200 Q1115 149 1126.5 118 Q1138 87 1176 87 Q1193 87 1204.5 96 Q1216 105 1222.5 120 Q1229 135 1231.5 155.5 Q1234 176 1234 200 Z " />
<glyph glyph-name="dieresis" unicode="&#xa8;" horiz-adv-x="441" d="M397 611 Q397 582 377 562 Q357 542 327 542 Q298 542 278 562 Q258 582 258 611 Q258 640 278 660 Q298 680 327 680 Q357 680 377 660.5 Q397 641 397 611 Z M185 611 Q185 582 165 562 Q145 542 116 542 Q87 542 67 562 Q47 582 47 611 Q47 640 67 660 Q87 680 115 680 Q145 680 165 660.5 Q185 641 185 611 Z " />
<glyph glyph-name="florin" unicode="&#x192;" horiz-adv-x="630" d="M151 400 L243 400 Q245 426 248.5 457 Q252 488 260 519.5 Q268 551 282.5 580.5 Q297 610 321.5 633 Q346 656 382 670 Q418 684 469 684 Q510 684 545 679 Q580 674 612 664 Q604 634 596.5 604 Q589 574 581 544 Q558 549 545 550.5 Q532 552 515 552 Q491 552 475 546 Q459 540 449 523.5 Q439 507 432.5 477.5 Q426 448 420 400 L520 400 L520 289 L410 289 Q405 252 401 214 Q397 176 391 133 Q386 94 376 50.5 Q366 7 343 -29 Q320 -65 278 -89 Q236 -113 167 -113 Q126 -113 91 -108.5 Q56 -104 24 -93 Q32 -63 39.5 -33 Q47 -3 55 26 Q78 21 92 20 Q106 19 121 19 Q161 19 181 38.5 Q201 58 210 117 Q215 162 221.5 209 Q228 256 231 289 L151 289 L151 400 Z " />
<glyph glyph-name="daggerdbl" unicode="&#x2021;" horiz-adv-x="515" d="M180 213 L180 383 L41 383 L41 502 L180 502 L180 696 L330 696 L330 502 L475 502 L475 383 L330 383 L330 213 L475 213 L475 95 L330 95 L330 -76 L180 -76 L180 95 L41 95 L41 213 L180 213 Z " />
<glyph glyph-name="logicalnot" unicode="&#xac;" horiz-adv-x="630" d="M545 81 L438 81 L438 254 L111 254 L111 357 L545 357 L545 81 Z " />
<glyph glyph-name="multiply" unicode="&#xd7;" horiz-adv-x="630" d="M323 228 L197 102 L122 177 L248 303 L122 429 L195 502 L320 376 L443 500 L518 424 L396 301 L520 177 L447 103 L323 228 Z " />
<glyph glyph-name="plusminus" unicode="&#xb1;" horiz-adv-x="630" d="M381 285 L381 142 L275 142 L275 285 L111 285 L111 388 L275 388 L275 533 L381 533 L381 388 L544 388 L544 285 L381 285 Z M544 101 L544 0 L111 0 L111 101 L544 101 Z " />
<glyph glyph-name="brokenbar" unicode="&#xa6;" horiz-adv-x="369" d="M122 363 L122 713 L247 713 L247 363 L122 363 Z M247 231 L247 -152 L122 -152 L122 231 L247 231 Z " />
<glyph glyph-name="guilsinglright" unicode="&#x203a;" horiz-adv-x="373" d="M308 185 L130 -11 L52 45 L156 204 L50 367 L126 418 L308 223 L308 185 Z " />
<glyph glyph-name="guilsinglleft" unicode="&#x2039;" horiz-adv-x="373" d="M49 223 L231 418 L307 367 L201 204 L305 45 L228 -11 L49 185 L49 223 Z " />
<glyph glyph-name="currency" unicode="&#xa4;" horiz-adv-x="630" d="M212 305 Q212 284 220 265.5 Q228 247 241.5 233.5 Q255 220 274 212 Q293 204 314 204 Q335 204 353.5 212 Q372 220 386 233.5 Q400 247 408 265.5 Q416 284 416 305 Q416 326 408 344.5 Q400 363 386.5 377.5 Q373 392 354.5 400 Q336 408 314 408 Q293 408 274 400 Q255 392 241.5 378 Q228 364 220 345 Q212 326 212 305 Z M68 476 L143 552 L208 487 Q231 501 258.5 508.5 Q286 516 315 516 Q373 516 423 486 L486 552 L562 476 L496 411 Q510 387 517 360 Q524 333 524 305 Q524 279 516.5 251 Q509 223 495 200 L562 137 L486 60 L421 125 Q397 109 370.5 102.5 Q344 96 315 96 Q286 96 259.5 102.5 Q233 109 208 125 L143 60 L68 137 L133 201 Q117 226 111 252.5 Q105 279 105 305 Q105 332 112 359.5 Q119 387 133 410 L68 476 Z " />
<glyph glyph-name="exclamdown" unicode="&#xa1;" horiz-adv-x="329" d="M79 -225 L80 15 L97 277 L234 277 L251 15 L251 -225 L79 -225 Z M165 328 Q124 328 98.5 354 Q73 380 73 416 Q73 451 97.5 477 Q122 503 165 503 Q207 503 232 477 Q257 451 257 416 Q257 379 232 353.5 Q207 328 165 328 Z " />
<glyph glyph-name="questiondown" unicode="&#xbf;" horiz-adv-x="541" d="M243 -30 Q243 -60 265.5 -75.5 Q288 -91 325 -91 Q346 -91 359.5 -89 Q373 -87 385 -84 Q385 -65 385.5 -46.5 Q386 -28 386 -9 L512 -9 L512 -185 Q445 -211 385.5 -218.5 Q326 -226 281 -226 Q170 -226 111 -179.5 Q52 -133 52 -55 Q52 -25 63 3.5 Q74 32 93 55 Q117 86 143 111 Q169 136 190.5 159.5 Q212 183 226 206 Q240 229 240 256 Q240 264 239.5 270.5 Q239 277 237 287 L389 290 Q391 272 392 257 Q393 242 393 229 Q393 189 381.5 159 Q370 129 352 105.5 Q334 82 312 62 Q290 42 270 22 Q258 10 250.5 -2.5 Q243 -15 243 -30 Z M211 415 Q211 450 237 475 Q263 500 301 500 Q320 500 336.5 493 Q353 486 365.5 474.5 Q378 463 385 447.5 Q392 432 392 415 Q392 398 385 382.5 Q378 367 365.5 355 Q353 343 336.5 336 Q320 329 301 329 Q263 329 237 354 Q211 379 211 415 Z " />
<glyph glyph-name="sfthyphen" unicode="&#xad;" horiz-adv-x="415" d="M64 210 L64 335 L351 335 L351 210 L64 210 Z " />
<glyph glyph-name="periodcentered" unicode="&#xb7;" horiz-adv-x="304" d="M248 277 Q248 258 240.5 241 Q233 224 220 211.5 Q207 199 190 191.5 Q173 184 154 184 Q134 184 117 191.5 Q100 199 87.5 211.5 Q75 224 67.5 241 Q60 258 60 277 Q60 297 67.5 314.5 Q75 332 87.5 344.5 Q100 357 117 364.5 Q134 372 154 372 Q173 372 190.5 364.5 Q208 357 220.5 344.5 Q233 332 240.5 314.5 Q248 297 248 277 Z " />
<glyph glyph-name="cedilla" unicode="&#xb8;" horiz-adv-x="502" d="M282 -55 Q333 -58 361.5 -81 Q390 -104 390 -143 Q390 -164 378.5 -185 Q367 -206 343 -222 Q319 -238 280.5 -248.5 Q242 -259 188 -259 Q188 -245 187.5 -230.5 Q187 -216 187 -202 Q297 -191 297 -149 Q297 -129 277.5 -123.5 Q258 -118 226 -118 L209 -118 L190 -90 L293 46 Q304 38 315 32 Q326 26 337 19 L282 -55 Z " />
<glyph glyph-name="acute" unicode="&#xb4;" horiz-adv-x="547" d="M241 530 L185 593 L354 769 L441 670 L241 530 Z " />
<glyph glyph-name="primemod" unicode="&#x2b9;" horiz-adv-x="234" d="M94 361 L30 400 L191 712 L296 654 L94 361 Z " />
<glyph glyph-name="caron" unicode="&#x2c7;" horiz-adv-x="600" d="M517 699 L358 543 L243 543 L87 699 L129 749 L300 649 L473 750 L517 699 Z " />
<glyph glyph-name="breve" unicode="&#x2d8;" horiz-adv-x="611" d="M303 549 Q271 549 243 560 Q215 571 190 590.5 Q165 610 143 636 Q121 662 102 692 L170 747 Q205 699 243 677.5 Q281 656 307 656 Q316 656 329 657 Q342 658 361 665.5 Q380 673 406 690.5 Q432 708 466 740 L515 692 Q490 651 462.5 623.5 Q435 596 407.5 579.5 Q380 563 353.5 556 Q327 549 303 549 Z " />
<glyph glyph-name="dotaccent" unicode="&#x2d9;" horiz-adv-x="604" d="M422 654 Q422 631 413.5 611.5 Q405 592 390 577 Q375 562 355 553.5 Q335 545 313 545 Q290 545 270.5 553.5 Q251 562 236.5 577 Q222 592 213.5 611.5 Q205 631 205 654 Q205 676 213.5 696 Q222 716 236.5 731 Q251 746 270.5 754.5 Q290 763 313 763 Q335 763 355 754.5 Q375 746 390 731 Q405 716 413.5 696 Q422 676 422 654 Z " />
<glyph glyph-name="ring" unicode="&#x2da;" horiz-adv-x="604" d="M312 545 Q283 545 258 555.5 Q233 566 214.5 584 Q196 602 185.5 626.5 Q175 651 175 678 Q175 704 185.5 728 Q196 752 214.5 770 Q233 788 258 799 Q283 810 312 810 Q341 810 365.5 799.5 Q390 789 407.5 771 Q425 753 435 729 Q445 705 445 678 Q445 650 434.5 625.5 Q424 601 406 583 Q388 565 364 555 Q340 545 312 545 Z M312 729 Q289 729 273.5 712.5 Q258 696 258 675 Q258 655 272.5 639.5 Q287 624 312 624 Q335 624 348.5 639.5 Q362 655 362 675 Q362 696 349 712.5 Q336 729 312 729 Z " />
<glyph glyph-name="ogonek" unicode="&#x2db;" horiz-adv-x="611" d="M466 14 Q440 -18 422 -55.5 Q404 -93 402 -121 Q402 -145 413.5 -158 Q425 -171 453 -171 Q474 -171 494.5 -167 Q515 -163 534 -158 L546 -211 Q516 -228 483 -236.5 Q450 -245 418 -245 Q361 -245 332 -221.5 Q303 -198 303 -156 Q303 -139 308.5 -116.5 Q314 -94 328.5 -69 Q343 -44 368 -17 Q393 10 433 36 L466 14 Z " />
<glyph glyph-name="hungarumlaut" unicode="&#x2dd;" horiz-adv-x="604" d="M178 528 L113 581 L253 781 L356 699 L178 528 Z M363 528 L298 581 L438 781 L540 699 L363 528 Z " />
<glyph glyph-name="tonos" unicode="&#x384;" horiz-adv-x="547" d="M267 528 L195 571 L312 780 L434 708 L267 528 Z " />
<glyph glyph-name="dieresistonos" unicode="&#x385;" horiz-adv-x="527" d="M492 618 Q492 589 471.5 569 Q451 549 422 549 Q393 549 373 569 Q353 589 353 618 Q353 648 373.5 668 Q394 688 423 688 Q452 688 472 668 Q492 648 492 618 Z M171 618 Q171 589 150.5 569 Q130 549 101 549 Q73 549 53 569 Q33 589 33 618 Q33 648 53 668 Q73 688 101 688 Q130 688 150.5 668 Q171 648 171 618 Z M251 525 L177 557 L258 782 L383 729 L251 525 Z " />
<glyph glyph-name="anoteleia" unicode="&#x387;" horiz-adv-x="304" d="M247 367 Q247 347 239.5 329.5 Q232 312 219 299 Q206 286 189 279 Q172 272 153 272 Q133 272 116 279 Q99 286 85.5 299 Q72 312 64.5 329.5 Q57 347 57 367 Q57 386 64.5 403.5 Q72 421 85 434 Q98 447 115.5 454.5 Q133 462 152 462 Q171 462 188.5 454.5 Q206 447 219 434 Q232 421 239.5 403.5 Q247 386 247 367 Z " />
<glyph glyph-name="Alphatonos" unicode="&#x386;" horiz-adv-x="794" d="M526 121 L504 192 L277 192 L254 121 L315 121 L315 0 L20 0 L20 121 L74 121 L284 690 L521 690 L719 121 L774 121 L774 0 L468 0 L468 121 L526 121 Z M-4 494 L-76 537 L41 746 L163 674 L-4 494 Z M468 307 Q451 367 433 424 Q415 481 397 541 L393 541 Q388 523 379 494.5 Q370 466 359 433.5 Q348 401 337 367.5 Q326 334 317 307 L468 307 Z " />
<glyph glyph-name="Epsilontonos" unicode="&#x388;" horiz-adv-x="713" d="M44 0 L44 123 L116 123 L116 568 L45 568 L45 690 L666 690 L666 453 L534 453 L534 568 L309 568 L309 411 L521 419 L521 292 L309 298 L309 123 L544 123 L544 246 L677 246 L677 0 L44 0 Z M-160 495 L-232 538 L-115 747 L7 675 L-160 495 Z " />
<glyph glyph-name="Etatonos" unicode="&#x389;" horiz-adv-x="856" d="M484 0 L484 122 L547 122 L547 298 L310 298 L310 122 L373 122 L373 0 L44 0 L44 122 L118 122 L118 568 L44 568 L44 690 L373 690 L373 568 L310 568 L310 412 L547 412 L547 568 L484 568 L484 690 L812 690 L812 568 L740 568 L740 122 L812 122 L812 0 L484 0 Z M-159 491 L-231 534 L-114 743 L8 671 L-159 491 Z " />
<glyph glyph-name="Iotatonos" unicode="&#x38a;" horiz-adv-x="475" d="M70 0 L70 122 L142 122 L142 568 L70 568 L70 691 L405 691 L405 568 L335 568 L335 122 L405 122 L405 0 L70 0 Z M-143 491 L-215 534 L-98 743 L24 671 L-143 491 Z " />
<glyph glyph-name="Omicrontonos" unicode="&#x38c;" horiz-adv-x="793" d="M743 347 Q743 270 721 204.5 Q699 139 656 91 Q613 43 548 16 Q483 -11 398 -11 Q309 -11 244 15.5 Q179 42 135.5 89 Q92 136 71 202 Q50 268 50 346 Q50 422 71 487.5 Q92 553 135 601.5 Q178 650 243.5 677.5 Q309 705 398 705 Q487 705 552 677.5 Q617 650 659.5 601.5 Q702 553 722.5 487.5 Q743 422 743 347 Z M537 346 Q537 392 531 432.5 Q525 473 509 504 Q493 535 466.5 553 Q440 571 398 571 Q356 571 328 552.5 Q300 534 283.5 503 Q267 472 260.5 431.5 Q254 391 254 346 Q254 293 261.5 251.5 Q269 210 286 181.5 Q303 153 330.5 137.5 Q358 122 398 122 Q436 122 462.5 138.5 Q489 155 505.5 184.5 Q522 214 529.5 255 Q537 296 537 346 Z M-104 499 L-176 542 L-59 751 L63 679 L-104 499 Z " />
<glyph glyph-name="Upsilontonos" unicode="&#x38e;" horiz-adv-x="733" d="M476 567 L419 567 L419 691 L719 691 L719 567 L667 567 L468 250 L468 122 L543 122 L543 0 L184 0 L184 122 L260 122 L260 249 L64 567 L14 567 L14 691 L317 691 L317 567 L262 567 L367 377 L371 377 L476 567 Z M-174 498 L-246 541 L-129 750 L-7 678 L-174 498 Z " />
<glyph glyph-name="Omegatonos" unicode="&#x38f;" horiz-adv-x="806" d="M673 122 L773 122 L773 0 L449 0 L449 125 Q503 141 525 193.5 Q547 246 547 353 Q547 461 514.5 516 Q482 571 407 571 Q332 571 297 514 Q262 457 262 353 Q262 249 283 195 Q304 141 355 126 L355 0 L29 0 L29 122 L132 122 L135 126 Q91 161 74.5 222 Q58 283 58 359 Q58 433 79.5 496.5 Q101 560 144.5 606.5 Q188 653 252.5 679.5 Q317 706 403 706 Q490 706 555.5 680.5 Q621 655 665 609 Q709 563 731 500.5 Q753 438 753 364 Q753 295 734.5 231 Q716 167 672 127 L673 122 Z M-87 499 L-159 542 L-42 751 L80 679 L-87 499 Z " />
<glyph glyph-name="Tau" unicode="&#x3a4;" horiz-adv-x="695" d="M170 0 L170 122 L252 122 L252 568 L148 568 L149 451 L18 451 L18 691 L677 691 L677 451 L546 451 L546 568 L443 568 L443 122 L524 122 L524 0 L170 0 Z " />
<glyph glyph-name="Upsilon" unicode="&#x3a5;" horiz-adv-x="733" d="M476 567 L419 567 L419 691 L719 691 L719 567 L667 567 L468 250 L468 122 L543 122 L543 0 L184 0 L184 122 L260 122 L260 249 L64 567 L14 567 L14 691 L317 691 L317 567 L262 567 L367 377 L371 377 L476 567 Z " />
<glyph glyph-name="Chi" unicode="&#x3a7;" horiz-adv-x="765" d="M460 691 L734 691 L734 567 L679 567 L506 343 L671 123 L738 123 L738 0 L382 0 L382 123 L429 123 L337 258 L243 123 L293 123 L293 0 L21 0 L21 123 L76 123 L249 365 L104 566 L25 566 L25 691 L383 691 L383 566 L336 566 L422 444 L510 567 L460 567 L460 691 Z " />
<glyph glyph-name="iotadieresistonos" unicode="&#x390;" horiz-adv-x="378" d="M35 374 L35 493 L275 493 L275 125 L344 125 L344 14 Q329 8 312 3 Q295 -2 277 -5.5 Q259 -9 241.5 -10.5 Q224 -12 210 -12 Q140 -12 113.5 16 Q87 44 86 99 L86 374 L35 374 Z M399 618 Q399 589 378.5 569 Q358 549 329 549 Q300 549 280 569 Q260 589 260 618 Q260 648 280.5 668 Q301 688 330 688 Q359 688 379 668 Q399 648 399 618 Z M78 618 Q78 589 57.5 569 Q37 549 8 549 Q-20 549 -40 569 Q-60 589 -60 618 Q-60 648 -40 668 Q-20 688 8 688 Q37 688 57.5 668 Q78 648 78 618 Z M158 525 L84 557 L165 782 L290 729 L158 525 Z " />
<glyph glyph-name="Iotadieresis" unicode="&#x3aa;" horiz-adv-x="475" d="M70 0 L70 122 L142 122 L142 568 L70 568 L70 691 L405 691 L405 568 L335 568 L335 122 L405 122 L405 0 L70 0 Z M410 811 Q410 782 390 762 Q370 742 341 742 Q312 742 292 762 Q272 782 272 811 Q272 840 292 860 Q312 880 341 880 Q370 880 390 860 Q410 840 410 811 Z M199 811 Q199 782 179 762 Q159 742 130 742 Q101 742 81 762 Q61 782 61 811 Q61 840 81 860 Q101 880 129 880 Q158 880 178.5 860 Q199 840 199 811 Z " />
<glyph glyph-name="Upsilondieresis" unicode="&#x3ab;" horiz-adv-x="733" d="M476 567 L419 567 L419 691 L719 691 L719 567 L667 567 L468 250 L468 122 L543 122 L543 0 L184 0 L184 122 L260 122 L260 249 L64 567 L14 567 L14 691 L317 691 L317 567 L262 567 L367 377 L371 377 L476 567 Z M541 811 Q541 782 521 762 Q501 742 472 742 Q443 742 423 762 Q403 782 403 811 Q403 840 423 860 Q443 880 472 880 Q501 880 521 860 Q541 840 541 811 Z M330 811 Q330 782 310 762 Q290 742 261 742 Q232 742 212 762 Q192 782 192 811 Q192 840 212 860 Q232 880 260 880 Q289 880 309.5 860 Q330 840 330 811 Z " />
<glyph glyph-name="tilde" unicode="&#x2dc;" horiz-adv-x="600" d="M402 556 Q375 556 347 562 Q319 568 293.5 575 Q268 582 245.5 588 Q223 594 206 594 L151 555 L99 593 Q120 653 149.5 676 Q179 699 215 699 Q239 699 264.5 693.5 Q290 688 315 681 Q340 674 364.5 668.5 Q389 663 410 663 L465 703 L515 665 Q479 556 402 556 Z " />
<glyph glyph-name="macron" unicode="&#xaf;" horiz-adv-x="600" d="M106 689 L497 689 L497 575 L106 575 L106 689 Z " />
<glyph glyph-name="iotadieresis" unicode="&#x3ca;" horiz-adv-x="378" d="M35 374 L35 493 L275 493 L275 125 L344 125 L344 14 Q329 8 312 3 Q295 -2 277 -5.5 Q259 -9 241.5 -10.5 Q224 -12 210 -12 Q140 -12 113.5 16 Q87 44 86 99 L86 374 L35 374 Z M335 611 Q335 582 315 562 Q295 542 265 542 Q236 542 216 562 Q196 582 196 611 Q196 640 216 660 Q236 680 265 680 Q295 680 315 660.5 Q335 641 335 611 Z M123 611 Q123 582 103 562 Q83 542 54 542 Q25 542 5 562 Q-15 582 -15 611 Q-15 640 5 660 Q25 680 53 680 Q83 680 103 660.5 Q123 641 123 611 Z " />
<glyph glyph-name="upsilondieresis" unicode="&#x3cb;" horiz-adv-x="656" d="M592 493 L592 220 Q592 160 572 116 Q552 72 517.5 43.5 Q483 15 435.5 1.5 Q388 -12 333 -12 Q207 -12 142 45 Q77 102 77 197 L77 374 L25 374 L25 493 L266 493 L266 192 Q266 160 282 140 Q298 120 334 120 Q345 120 357.5 124 Q370 128 380 137 Q390 146 396.5 160.5 Q403 175 403 196 L403 493 L592 493 Z M497 611 Q497 582 477 562 Q457 542 427 542 Q398 542 378 562 Q358 582 358 611 Q358 640 378 660 Q398 680 427 680 Q457 680 477 660.5 Q497 641 497 611 Z M285 611 Q285 582 265 562 Q245 542 216 542 Q187 542 167 562 Q147 582 147 611 Q147 640 167 660 Q187 680 215 680 Q245 680 265 660.5 Q285 641 285 611 Z " />
<glyph glyph-name="etatonos" unicode="&#x3ae;" horiz-adv-x="693" d="M433 505 Q481 505 514 491 Q547 477 566.5 453 Q586 429 594.5 397 Q603 365 603 328 L603 124 L667 124 L667 14 Q637 1 602 -5 Q567 -11 538 -11 Q497 -11 473 0 Q449 11 436 28.5 Q423 46 419 66.5 Q415 87 415 106 L415 290 Q415 329 400.5 345.5 Q386 362 354 362 Q336 362 314 353.5 Q292 345 275 332 L275 0 L85 0 L85 376 L25 376 L25 493 L271 493 L271 450 Q272 450 274 449.5 Q276 449 277 449 Q315 475 355 490 Q395 505 433 505 Z M319 528 L247 571 L364 780 L486 708 L319 528 Z " />
<glyph glyph-name="iotatonos" unicode="&#x3af;" horiz-adv-x="378" d="M35 374 L35 493 L275 493 L275 125 L344 125 L344 14 Q329 8 312 3 Q295 -2 277 -5.5 Q259 -9 241.5 -10.5 Q224 -12 210 -12 Q140 -12 113.5 16 Q87 44 86 99 L86 374 L35 374 Z M158 528 L86 571 L203 780 L325 708 L158 528 Z " />
<glyph glyph-name="upsilondieresistonos" unicode="&#x3b0;" horiz-adv-x="656" d="M592 493 L592 220 Q592 160 572 116 Q552 72 517.5 43.5 Q483 15 435.5 1.5 Q388 -12 333 -12 Q207 -12 142 45 Q77 102 77 197 L77 374 L25 374 L25 493 L266 493 L266 192 Q266 160 282 140 Q298 120 334 120 Q345 120 357.5 124 Q370 128 380 137 Q390 146 396.5 160.5 Q403 175 403 196 L403 493 L592 493 Z M552 618 Q552 589 531.5 569 Q511 549 482 549 Q453 549 433 569 Q413 589 413 618 Q413 648 433.5 668 Q454 688 483 688 Q512 688 532 668 Q552 648 552 618 Z M231 618 Q231 589 210.5 569 Q190 549 161 549 Q133 549 113 569 Q93 589 93 618 Q93 648 113 668 Q133 688 161 688 Q190 688 210.5 668 Q231 648 231 618 Z M311 525 L237 557 L318 782 L443 729 L311 525 Z " />
<glyph glyph-name="omegatonos" unicode="&#x3ce;" horiz-adv-x="839" d="M497 333 L498 185 Q499 154 513.5 135.5 Q528 117 554 117 Q588 117 602.5 145.5 Q617 174 617 240 Q617 292 601.5 332 Q586 372 547 387 L576 503 Q639 497 682.5 475 Q726 453 753 418.5 Q780 384 792 338.5 Q804 293 804 241 Q804 190 791.5 144.5 Q779 99 751 65 Q723 31 678.5 11 Q634 -9 570 -9 Q527 -9 486 7 Q445 23 420 60 L414 60 Q388 23 345.5 7 Q303 -9 260 -9 Q194 -9 151 11 Q108 31 82 65 Q56 99 45.5 144.5 Q35 190 35 241 Q35 293 47 338.5 Q59 384 86 418.5 Q113 453 156.5 475 Q200 497 263 503 L291 387 Q252 372 237 332 Q222 292 222 240 Q222 180 234.5 148.5 Q247 117 285 117 Q313 117 328 135.5 Q343 154 343 185 L343 333 L497 333 Z M428 528 L356 571 L473 780 L595 708 L428 528 Z " />
<glyph glyph-name="epsilontonos" unicode="&#x3ad;" horiz-adv-x="486" d="M262 507 Q328 507 379 496.5 Q430 486 453 475 L453 341 L336 341 L336 391 Q326 394 312.5 395 Q299 396 289 396 Q257 396 241 382.5 Q225 369 225 349 Q225 327 239.5 316.5 Q254 306 277 306 L334 306 L334 207 L277 207 Q256 207 238.5 197 Q221 187 221 162 Q221 133 244.5 121 Q268 109 311 109 Q340 109 376.5 115 Q413 121 448 134 L479 29 Q446 13 389.5 0 Q333 -13 260 -13 Q142 -13 87 30 Q32 73 32 139 Q32 172 51.5 205 Q71 238 109 252 L109 254 Q74 267 55.5 293.5 Q37 320 37 354 Q37 384 50.5 411.5 Q64 439 91.5 460 Q119 481 161.5 494 Q204 507 262 507 Z M246 528 L174 571 L291 780 L413 708 L246 528 Z " />
<glyph glyph-name="OE" unicode="&#x152;" horiz-adv-x="966" d="M389 704 Q421 704 451 700 Q481 696 507 689 L923 689 L923 455 L791 455 L791 568 L603 568 L603 411 Q643 412 690.5 414.5 Q738 417 777 418 L777 291 Q738 291 690.5 294 Q643 297 603 297 L603 121 L803 121 L803 243 L936 243 L936 0 L488 0 Q465 -5 440.5 -7.5 Q416 -10 389 -10 Q300 -10 235 16 Q170 42 127 89 Q84 136 63 201.5 Q42 267 42 345 Q42 421 63 486.5 Q84 552 126.5 600.5 Q169 649 234.5 676.5 Q300 704 389 704 Z M389 120 Q394 120 399.5 120 Q405 120 410 121 L410 570 Q406 570 401.5 570.5 Q397 571 391 571 L384 571 Q343 570 316.5 551 Q290 532 274 501 Q258 470 252 429.5 Q246 389 246 345 Q246 292 253.5 250.5 Q261 209 278 180 Q295 151 322 135.5 Q349 120 389 120 Z " />
<glyph glyph-name="paragraph" unicode="&#xb6;" horiz-adv-x="682" d="M260 270 Q213 270 173 285.5 Q133 301 103.5 329 Q74 357 57.5 397 Q41 437 41 487 Q41 533 56.5 574 Q72 615 100.5 645.5 Q129 676 169.5 694 Q210 712 260 712 L650 712 L650 591 L583 591 L583 -217 L459 -217 L459 591 L404 591 L404 -217 L187 -217 L187 -107 L279 -107 L279 270 L260 270 Z " />
<glyph glyph-name="oe" unicode="&#x153;" horiz-adv-x="921" d="M879 44 Q827 16 768.5 4.5 Q710 -7 659 -7 Q598 -7 556.5 8 Q515 23 486 52 Q454 23 410.5 6.5 Q367 -10 308 -10 Q237 -10 186 9.5 Q135 29 101 63 Q67 97 51 144 Q35 191 35 247 Q35 301 51.5 348 Q68 395 102 429.5 Q136 464 188 484 Q240 504 310 504 Q367 504 409.5 487.5 Q452 471 482 442 Q510 473 553 491 Q596 509 657 509 Q729 509 774.5 486.5 Q820 464 846 428.5 Q872 393 881.5 350 Q891 307 891 265 L891 231 L585 231 Q585 177 611 151 Q637 125 694 125 Q730 125 769 132.5 Q808 140 843 153 L879 44 Z M390 247 Q390 272 386.5 295.5 Q383 319 374 337 Q365 355 349.5 365.5 Q334 376 310 376 Q286 376 270 365 Q254 354 244.5 335.5 Q235 317 231.5 294 Q228 271 228 247 Q228 220 231.5 196 Q235 172 244 154 Q253 136 269 126 Q285 116 310 116 Q334 116 349.5 126.5 Q365 137 374 154.5 Q383 172 386.5 196 Q390 220 390 247 Z M723 292 Q722 334 709 359.5 Q696 385 659 385 Q621 385 605.5 357.5 Q590 330 588 292 L723 292 Z " />
<glyph glyph-name="ae" unicode="&#xe6;" horiz-adv-x="864" d="M607 505 Q678 505 722.5 482.5 Q767 460 792.5 424.5 Q818 389 827 346 Q836 303 836 261 L836 221 L536 221 Q536 167 561 144 Q586 121 644 121 Q679 121 717 129 Q755 137 790 149 L824 40 Q773 11 716 0.5 Q659 -10 609 -10 Q568 -10 537.5 -5.5 Q507 -1 483 8 Q459 17 441.5 30.5 Q424 44 410 63 Q383 38 354.5 23 Q326 8 299 0 Q272 -8 247 -10.5 Q222 -13 200 -13 Q147 -13 113.5 1.5 Q80 16 60.5 38 Q41 60 34 85.5 Q27 111 27 133 Q27 154 33 180.5 Q39 207 58.5 231 Q78 255 113 271 Q148 287 207 287 L355 287 L355 306 Q355 342 334 358 Q313 374 266 374 Q218 374 176 367.5 Q134 361 103 352 L75 464 Q97 473 125 480.5 Q153 488 183 493.5 Q213 499 243.5 501.5 Q274 504 303 504 Q323 504 345 500.5 Q367 497 388 490 Q409 483 426.5 472 Q444 461 454 446 Q480 474 518 489.5 Q556 505 607 505 Z M279 101 Q294 101 320.5 109 Q347 117 366 137 Q355 174 353 218 L298 218 Q260 218 240 203 Q220 188 220 159 Q220 128 236 114.5 Q252 101 279 101 Z M609 381 Q590 381 577 373.5 Q564 366 556 353 Q548 340 544 323.5 Q540 307 539 288 L671 288 Q671 330 658.5 355.5 Q646 381 609 381 Z " />
<glyph glyph-name="AE" unicode="&#xc6;" horiz-adv-x="1088" d="M531 198 L309 198 L261 122 L314 122 L314 0 L16 0 L16 122 L67 122 L345 566 L295 566 L295 690 L1038 690 L1038 455 L906 455 L906 569 L724 569 L724 411 L899 414 L899 296 L724 298 L724 122 L916 122 L916 244 L1048 244 L1048 0 L458 0 L458 122 L531 122 L531 198 Z M371 313 L531 313 L531 563 L526 563 L371 313 Z " />
<glyph glyph-name="numbersign" unicode="&#x23;" horiz-adv-x="631" d="M469 382 L444 283 L530 283 L529 199 L426 199 L379 -1 L281 -1 L328 199 L241 199 L193 -1 L95 -1 L143 199 L68 199 L71 283 L162 283 L187 382 L103 382 L104 465 L207 465 L252 644 L348 644 L305 465 L392 465 L437 644 L532 644 L490 465 L566 465 L565 382 L469 382 Z M261 283 L347 283 L372 382 L285 382 L261 283 Z " />
<glyph glyph-name="fj" unicode="&#xe1f8;" horiz-adv-x="713" d="M44 118 L105 118 L105 375 L33 375 L33 476 L106 498 L106 543 Q106 579 115 615.5 Q124 652 150 682 Q176 712 222.5 730.5 Q269 749 344 749 Q361 749 385.5 747.5 Q410 746 439 743 Q468 740 500.5 734 Q533 728 565 719 L542 589 Q491 597 455.5 600.5 Q420 604 389 604 Q339 604 313.5 587.5 Q288 571 288 523 L288 493 L641 493 L641 97 Q641 25 627.5 -29.5 Q614 -84 582.5 -123.5 Q551 -163 499.5 -190 Q448 -217 372 -233 Q371 -231 364.5 -214 Q358 -197 350.5 -177 Q343 -157 336 -140 Q329 -123 328 -121 Q369 -97 393.5 -78.5 Q418 -60 430.5 -39 Q443 -18 447 9.5 Q451 37 451 79 L451 375 L288 375 L288 118 L355 118 L355 0 L44 0 L44 118 Z " />
<glyph glyph-name="ffj" unicode="&#xe1f9;" horiz-adv-x="1060" d="M910 729 Q903 697 897.5 664.5 Q892 632 886 600 Q834 608 800 611.5 Q766 615 735 615 Q685 615 659.5 598 Q634 581 634 534 L634 492 L983 492 L983 92 Q983 20 968.5 -34 Q954 -88 922 -127 Q890 -166 839 -191.5 Q788 -217 715 -232 L671 -120 Q713 -96 737.5 -77.5 Q762 -59 774.5 -38 Q787 -17 790.5 11 Q794 39 794 81 L794 375 L634 375 L634 117 L700 117 L700 0 L400 0 L400 117 L451 117 L451 375 L287 375 L287 117 L342 117 L342 0 L43 0 L43 117 L104 117 L104 375 L32 375 L32 475 Q50 481 68 486.5 Q86 492 105 497 L105 527 Q105 567 115 603 Q125 639 153.5 666.5 Q182 694 234 710.5 Q286 727 370 727 Q401 726 434 721.5 Q467 717 507 705 Q536 733 583.5 745.5 Q631 758 711 758 Q750 756 803 750 Q856 744 910 729 Z M452 547 Q452 556 452 564 Q452 572 454 580 Q413 589 377 589 Q329 589 308 573 Q287 557 287 516 L287 492 L452 492 L452 547 Z " />
<glyph glyph-name="ff" unicode="&#xfb00;" horiz-adv-x="829" d="M403 117 L451 117 L451 375 L288 375 L288 117 L335 117 L335 0 L44 0 L44 117 L105 117 L105 375 L33 375 L33 476 L106 498 L106 528 Q106 564 115 599.5 Q124 635 150 664 Q176 693 223 711 Q270 729 347 729 Q378 729 416 725.5 Q454 722 502 708 Q526 728 566 739.5 Q606 751 666 751 Q680 751 698.5 750 Q717 749 737.5 746.5 Q758 744 779 740 Q800 736 819 730 L793 604 Q770 609 744.5 611.5 Q719 614 702 614 Q671 614 652.5 601.5 Q634 589 634 560 L634 492 L774 492 L774 375 L634 375 L634 117 L708 117 L708 0 L403 0 L403 117 Z M377 589 Q329 589 308.5 573 Q288 557 288 516 L288 492 L451 492 Q451 501 451.5 515.5 Q452 530 452 543.5 Q452 557 452 567.5 Q452 578 453 581 Q433 585 413.5 587 Q394 589 377 589 Z " />
<glyph glyph-name="fi" unicode="&#xfb01;" horiz-adv-x="744" d="M637 125 L707 125 L707 14 Q677 1 639 -5.5 Q601 -12 572 -12 Q503 -12 476 15 Q449 42 449 97 L448 375 L288 375 L288 118 L350 118 L350 0 L44 0 L44 118 L105 118 L105 375 L33 375 L33 477 L106 498 L106 543 Q106 579 115 615.5 Q124 652 149.5 682 Q175 712 221.5 730.5 Q268 749 343 749 Q359 749 383.5 748 Q408 747 437.5 743.5 Q467 740 500 734 Q533 728 566 719 L542 589 Q491 597 455.5 601 Q420 605 389 605 Q339 605 313.5 588 Q288 571 288 523 L288 493 L637 493 L637 125 Z " />
<glyph glyph-name="fl" unicode="&#xfb02;" horiz-adv-x="748" d="M648 118 L711 118 L711 0 L406 0 L406 118 L459 118 L459 596 Q421 602 389 602 Q339 602 313.5 585 Q288 568 288 521 L288 493 L405 493 L405 375 L288 375 L288 118 L342 118 L342 0 L44 0 L44 118 L105 118 L105 375 L33 375 L33 477 L106 498 L106 541 Q106 577 115 613.5 Q124 650 149.5 679.5 Q175 709 221.5 727.5 Q268 746 343 746 Q367 746 407.5 743.5 Q448 741 495 733 L648 748 L648 118 Z " />
<glyph glyph-name="ffi" unicode="&#xfb03;" horiz-adv-x="1091" d="M452 548 Q452 558 452.5 565 Q453 572 455 580 Q413 589 377 589 Q329 589 308 573 Q287 557 287 516 L287 492 L452 492 L452 548 Z M634 375 L634 117 L699 117 L699 0 L397 0 L397 117 L451 117 L451 375 L287 375 L287 117 L339 117 L339 0 L43 0 L43 117 L104 117 L104 375 L32 375 L32 475 Q50 481 68 486.5 Q86 492 105 497 L105 527 Q105 565 114.5 601.5 Q124 638 150 666 Q176 694 223.5 711 Q271 728 347 728 Q379 728 419 723.5 Q459 719 507 705 Q537 733 583.5 745.5 Q630 758 708 758 Q747 757 802 750.5 Q857 744 911 728 Q905 696 899.5 663.5 Q894 631 888 599 Q836 607 801 610.5 Q766 614 735 614 Q685 614 659.5 597.5 Q634 581 634 534 L634 492 L983 492 L983 124 L1052 124 L1052 13 Q1037 7 1020 2.5 Q1003 -2 985 -5 Q967 -8 949.5 -9.5 Q932 -11 918 -11 Q877 -11 852.5 -1 Q828 9 815 27 Q802 45 798 70 Q794 95 794 125 L794 375 L634 375 Z " />
<glyph glyph-name="ffl" unicode="&#xfb04;" horiz-adv-x="1094" d="M634 492 L750 492 L750 375 L634 375 L634 117 L691 117 L691 0 L395 0 L395 117 L451 117 L451 375 L287 375 L287 117 L337 117 L337 0 L43 0 L43 117 L104 117 L104 375 L32 375 L32 475 Q50 481 68 486.5 Q86 492 105 497 L105 526 Q105 565 114.5 601 Q124 637 151 665.5 Q178 694 225.5 711 Q273 728 350 728 Q382 728 421 724 Q460 720 507 705 Q539 736 589 747 Q639 758 720 758 Q752 757 791 753.5 Q830 750 878 744 L994 760 L994 117 L1056 117 L1056 0 L752 0 L752 117 L805 117 L805 609 Q786 611 768.5 612.5 Q751 614 735 614 Q685 614 659.5 597.5 Q634 581 634 534 L634 492 Z M452 551 Q452 565 455 580 Q413 589 377 589 Q329 589 308 573 Q287 557 287 516 L287 492 L452 492 L452 551 Z " />
<glyph glyph-name="ft" unicode="&#xfb05;" horiz-adv-x="839" d="M44 118 L105 118 L105 375 L33 375 L33 477 L106 498 L106 563 Q106 597 113.5 629.5 Q121 662 143 687.5 Q165 713 205.5 729 Q246 745 313 745 Q342 745 389 740 Q436 735 477 723 L451 597 Q428 602 402 604.5 Q376 607 359 607 Q326 607 307 595 Q288 583 288 554 L288 493 L473 493 L517 628 L642 639 L642 493 L781 493 L781 375 L642 375 L642 204 Q642 158 657 143 Q672 128 710 128 Q721 128 742.5 130.5 Q764 133 788 138 L808 18 Q791 11 771 5.5 Q751 0 731 -3.5 Q711 -7 691.5 -9 Q672 -11 656 -11 Q590 -11 550.5 4.5 Q511 20 490 44 Q469 68 462.5 97.5 Q456 127 456 156 L456 375 L288 375 L288 118 L362 118 L362 0 L44 0 L44 118 Z " />
<glyph glyph-name="Scaron" unicode="&#x160;" horiz-adv-x="672" d="M183 218 L184 145 Q199 139 216 135.5 Q233 132 250 129.5 Q267 127 282 126 Q297 125 308 125 Q369 125 393.5 145 Q418 165 418 193 Q418 218 404 231 Q390 244 366 252 Q296 275 237.5 294.5 Q179 314 137 338 Q95 362 72 396 Q49 430 49 483 Q49 585 121.5 642.5 Q194 700 337 700 Q365 700 396.5 697.5 Q428 695 459.5 689.5 Q491 684 521 675 Q551 666 577 654 Q577 610 577.5 567 Q578 524 578 480 L445 480 Q445 498 444.5 516 Q444 534 444 551 Q424 559 395.5 563 Q367 567 348 567 Q295 567 273 548 Q251 529 251 504 Q251 487 263 474 Q275 461 295 451 Q315 441 340.5 432.5 Q366 424 393 416 Q444 401 487.5 384.5 Q531 368 563.5 344 Q596 320 614.5 285.5 Q633 251 633 200 Q633 97 555 42.5 Q477 -12 320 -12 Q255 -12 185.5 -1.5 Q116 9 53 35 Q53 80 52.5 126 Q52 172 52 218 L183 218 Z M546 899 L387 745 L273 745 L116 899 L158 949 L329 849 L502 950 L546 899 Z " />
<glyph glyph-name="Zcaron" unicode="&#x17d;" horiz-adv-x="672" d="M274 123 L513 123 L513 258 L646 258 L646 0 L28 0 L28 121 L378 569 L184 569 L184 451 L52 451 L52 691 L627 691 L627 574 L274 123 Z M564 899 L405 745 L291 745 L134 899 L176 949 L347 849 L520 950 L564 899 Z " />
<glyph glyph-name="scaron" unicode="&#x161;" horiz-adv-x="552" d="M159 167 Q159 154 159 141.5 Q159 129 160 116 Q172 110 197 106 Q222 102 245 102 Q274 102 295.5 111.5 Q317 121 317 138 Q317 163 300 170 Q283 177 254 185 Q213 197 174 209 Q135 221 104.5 238.5 Q74 256 55 281.5 Q36 307 36 345 Q36 423 97 463.5 Q158 504 274 504 Q323 504 377.5 494.5 Q432 485 474 465 Q474 432 474 399 Q474 366 475 333 L350 333 Q350 345 349.5 357 Q349 369 349 381 Q335 386 320 388 Q305 390 291 390 Q264 390 247.5 380 Q231 370 231 353 Q231 336 251 327.5 Q271 319 294 313 Q324 305 362.5 296.5 Q401 288 434.5 270 Q468 252 491.5 221 Q515 190 515 138 Q515 66 452.5 28 Q390 -10 259 -10 Q238 -10 210.5 -8.5 Q183 -7 153 -2.5 Q123 2 93 9 Q63 16 36 28 Q36 62 36 97 Q36 132 35 167 L159 167 Z M486 699 L327 543 L212 543 L56 699 L98 749 L269 649 L442 750 L486 699 Z " />
<glyph glyph-name="Ydieresis" unicode="&#x178;" horiz-adv-x="733" d="M476 567 L419 567 L419 691 L719 691 L719 567 L667 567 L468 250 L468 122 L543 122 L543 0 L184 0 L184 122 L260 122 L260 249 L64 567 L14 567 L14 691 L317 691 L317 567 L262 567 L367 377 L371 377 L476 567 Z M536 811 Q536 782 516 762 Q496 742 467 742 Q438 742 418 762 Q398 782 398 811 Q398 840 418 860 Q438 880 467 880 Q496 880 516 860 Q536 840 536 811 Z M325 811 Q325 782 305 762 Q285 742 256 742 Q227 742 207 762 Q187 782 187 811 Q187 840 207 860 Q227 880 255 880 Q284 880 304.5 860 Q325 840 325 811 Z " />
<glyph glyph-name="cent" unicode="&#xa2;" horiz-adv-x="630" d="M393 505 Q426 503 459 496.5 Q492 490 521 479 L521 312 L399 312 L399 372 Q392 374 383 374 Q374 374 369 374 Q344 374 326.5 364.5 Q309 355 297.5 338.5 Q286 322 281 299 Q276 276 276 250 Q276 212 283.5 187.5 Q291 163 304.5 149 Q318 135 336.5 129 Q355 123 377 123 Q408 123 445 129 Q482 135 513 145 Q521 118 529.5 88 Q538 58 546 30 Q514 15 474.5 5.5 Q435 -4 393 -8 L393 -95 L277 -95 L277 -5 Q219 4 181.5 27 Q144 50 122.5 83 Q101 116 92.5 157.5 Q84 199 84 244 Q84 284 92 324.5 Q100 365 122 400.5 Q144 436 181 462 Q218 488 277 499 L277 600 L393 600 L393 505 Z " />
<glyph glyph-name="ordfeminine" unicode="&#xaa;" horiz-adv-x="417" d="M359 355 L396 355 L401 280 Q382 272 353.5 267 Q325 262 304 262 Q281 262 262 270.5 Q243 279 239 303 Q224 288 207.5 279.5 Q191 271 176.5 267.5 Q162 264 150.5 263 Q139 262 132 262 Q98 262 76.5 272 Q55 282 42.5 296.5 Q30 311 25 327.5 Q20 344 20 358 Q20 372 23.5 386.5 Q27 401 36.5 413 Q46 425 62.5 434 Q79 443 105 448 Q134 453 165.5 456.5 Q197 460 231 463 L231 470 Q231 491 220.5 501 Q210 511 181 511 Q158 511 129 507 Q100 503 77 496 Q72 515 66.5 534.5 Q61 554 55 574 Q87 587 130.5 594 Q174 601 214 601 Q281 601 320 575 Q359 549 359 484 L359 355 Z M231 408 Q218 408 204.5 406 Q191 404 180.5 400.5 Q170 397 163 390 Q156 383 156 372 Q156 356 163.5 347.5 Q171 339 190 339 Q199 339 211 343 Q223 347 231 355 L231 408 Z " />
<glyph glyph-name="ordmasculine" unicode="&#xba;" horiz-adv-x="434" d="M407 434 Q407 398 395.5 367 Q384 336 360.5 313.5 Q337 291 300.5 278 Q264 265 215 265 Q166 265 130.5 277.5 Q95 290 72 312.5 Q49 335 38 366 Q27 397 27 434 Q27 470 38.5 500.5 Q50 531 73.5 553.5 Q97 576 133 589 Q169 602 218 602 Q267 602 302.5 589 Q338 576 361 553.5 Q384 531 395.5 500.5 Q407 470 407 434 Z M269 434 Q269 465 259 489 Q249 513 218 513 Q202 513 192 506 Q182 499 176 487.5 Q170 476 167.5 462 Q165 448 165 433 Q165 400 175 376 Q185 352 218 352 Q249 352 259 376 Q269 400 269 434 Z " />
<glyph glyph-name="onequarter" unicode="&#xbc;" horiz-adv-x="980" d="M86 359 L172 359 L172 561 Q169 561 156 559.5 Q143 558 128.5 556.5 Q114 555 101 554 Q88 553 85 552 L70 633 L194 674 L310 674 L310 359 L399 359 L399 266 L86 266 L86 359 Z M397 -19 L291 -19 L624 714 L731 714 L397 -19 Z M842 407 L842 193 L905 193 L905 115 L842 115 L842 80 L882 80 L882 2 L677 2 L677 80 L713 80 L713 115 L524 115 L524 179 Q535 192 552.5 213 Q570 234 590 258 Q610 282 630.5 307 Q651 332 668.5 353.5 Q686 375 697.5 389.5 Q709 404 712 407 L842 407 Z M713 284 Q693 259 674 237.5 Q655 216 638 193 L714 193 L714 284 L713 284 Z " />
<glyph glyph-name="threequarters" unicode="&#xbe;" horiz-adv-x="980" d="M164 499 Q170 504 183.5 515.5 Q197 527 212.5 539.5 Q228 552 241.5 564 Q255 576 260 581 L187 581 L187 548 L93 548 L93 674 L406 674 Q406 672 408.5 661 Q411 650 414 638 Q417 626 419.5 615 Q422 604 423 602 Q417 597 403 585 Q389 573 372.5 559.5 Q356 546 342 534 Q328 522 322 517 Q372 506 400 478 Q428 450 428 405 Q428 370 413 343 Q398 316 372.5 298 Q347 280 311.5 270.5 Q276 261 236 261 Q223 261 203.5 262 Q184 263 161.5 267 Q139 271 115.5 277.5 Q92 284 70 296 Q71 298 76.5 311.5 Q82 325 88 340.5 Q94 356 99 369.5 Q104 383 105 386 Q145 373 175.5 369.5 Q206 366 226 366 Q256 366 272.5 377 Q289 388 289 407 Q289 422 275.5 434 Q262 446 220 446 Q201 446 177 443 L164 499 Z M398 -19 L292 -19 L625 714 L732 714 L398 -19 Z M841 407 L841 193 L904 193 L904 115 L841 115 L841 80 L881 80 L881 2 L676 2 L676 80 L712 80 L712 115 L523 115 L523 179 Q534 192 551.5 213 Q569 234 589 258 Q609 282 629.5 307 Q650 332 667.5 353.5 Q685 375 696.5 389.5 Q708 404 711 407 L841 407 Z M712 284 Q692 259 673 237.5 Q654 216 637 193 L713 193 L713 284 L712 284 Z " />
<glyph glyph-name="Agrave" unicode="&#xc0;" horiz-adv-x="794" d="M526 121 L504 192 L277 192 L254 121 L315 121 L315 0 L20 0 L20 121 L74 121 L284 690 L521 690 L719 121 L774 121 L774 0 L468 0 L468 121 L526 121 Z M215 881 L298 979 L467 804 L412 741 L215 881 Z M468 307 Q451 367 433 424 Q415 481 397 541 L393 541 Q388 523 379 494.5 Q370 466 359 433.5 Q348 401 337 367.5 Q326 334 317 307 L468 307 Z " />
<glyph glyph-name="Aacute" unicode="&#xc1;" horiz-adv-x="794" d="M526 121 L504 192 L277 192 L254 121 L315 121 L315 0 L20 0 L20 121 L74 121 L284 690 L521 690 L719 121 L774 121 L774 0 L468 0 L468 121 L526 121 Z M404 742 L348 805 L517 981 L604 882 L404 742 Z M468 307 Q451 367 433 424 Q415 481 397 541 L393 541 Q388 523 379 494.5 Q370 466 359 433.5 Q348 401 337 367.5 Q326 334 317 307 L468 307 Z " />
<glyph glyph-name="Acircumflex" unicode="&#xc2;" horiz-adv-x="794" d="M526 121 L504 192 L277 192 L254 121 L315 121 L315 0 L20 0 L20 121 L74 121 L284 690 L521 690 L719 121 L774 121 L774 0 L468 0 L468 121 L526 121 Z M566 742 L393 843 L223 743 L181 793 L337 947 L451 947 L611 794 L566 742 Z M468 307 Q451 367 433 424 Q415 481 397 541 L393 541 Q388 523 379 494.5 Q370 466 359 433.5 Q348 401 337 367.5 Q326 334 317 307 L468 307 Z " />
<glyph glyph-name="Atilde" unicode="&#xc3;" horiz-adv-x="794" d="M526 121 L504 192 L277 192 L254 121 L315 121 L315 0 L20 0 L20 121 L74 121 L284 690 L521 690 L719 121 L774 121 L774 0 L468 0 L468 121 L526 121 Z M491 756 Q464 756 436 762 Q408 768 382.5 775 Q357 782 334.5 788 Q312 794 295 794 L240 755 L188 793 Q209 853 238.5 876 Q268 899 304 899 Q328 899 353.5 893.5 Q379 888 404 881 Q429 874 453.5 868.5 Q478 863 499 863 L554 903 L604 865 Q568 756 491 756 Z M468 307 Q451 367 433 424 Q415 481 397 541 L393 541 Q388 523 379 494.5 Q370 466 359 433.5 Q348 401 337 367.5 Q326 334 317 307 L468 307 Z " />
<glyph glyph-name="Adieresis" unicode="&#xc4;" horiz-adv-x="794" d="M526 121 L504 192 L277 192 L254 121 L315 121 L315 0 L20 0 L20 121 L74 121 L284 690 L521 690 L719 121 L774 121 L774 0 L468 0 L468 121 L526 121 Z M468 307 Q451 367 433 424 Q415 481 397 541 L393 541 Q388 523 379 494.5 Q370 466 359 433.5 Q348 401 337 367.5 Q326 334 317 307 L468 307 Z M575 811 Q575 782 555 762 Q535 742 506 742 Q477 742 457 762 Q437 782 437 811 Q437 840 457 860 Q477 880 506 880 Q535 880 555 860 Q575 840 575 811 Z M364 811 Q364 782 344 762 Q324 742 295 742 Q266 742 246 762 Q226 782 226 811 Q226 840 246 860 Q266 880 294 880 Q323 880 343.5 860 Q364 840 364 811 Z " />
<glyph glyph-name="Aring" unicode="&#xc5;" horiz-adv-x="794" d="M526 121 L504 192 L277 192 L254 121 L315 121 L315 0 L20 0 L20 121 L74 121 L284 690 L521 690 L719 121 L774 121 L774 0 L468 0 L468 121 L526 121 Z M395 737 Q366 737 341 747.5 Q316 758 297.5 776 Q279 794 268.5 818.5 Q258 843 258 870 Q258 896 268.5 920 Q279 944 297.5 962 Q316 980 341 991 Q366 1002 395 1002 Q424 1002 448.5 991.5 Q473 981 490.5 963 Q508 945 518 921 Q528 897 528 870 Q528 842 517.5 817.5 Q507 793 489 775 Q471 757 447 747 Q423 737 395 737 Z M468 307 Q451 367 433 424 Q415 481 397 541 L393 541 Q388 523 379 494.5 Q370 466 359 433.5 Q348 401 337 367.5 Q326 334 317 307 L468 307 Z M395 921 Q372 921 356.5 904.5 Q341 888 341 867 Q341 847 355.5 831.5 Q370 816 395 816 Q418 816 431.5 831.5 Q445 847 445 867 Q445 888 432 904.5 Q419 921 395 921 Z " />
<glyph glyph-name="Ccedilla" unicode="&#xc7;" horiz-adv-x="668" d="M254 350 Q254 288 265.5 247.5 Q277 207 300.5 183 Q324 159 360 149.5 Q396 140 445 140 Q457 140 476 141.5 Q495 143 517 145.5 Q539 148 562 151.5 Q585 155 603 160 L631 28 Q586 11 530 1 Q474 -9 421 -11 Q410 -25 398 -40.5 Q386 -56 375 -72 Q426 -75 454.5 -98 Q483 -121 483 -160 Q483 -181 471.5 -202 Q460 -223 436 -239 Q412 -255 373.5 -265.5 Q335 -276 281 -276 Q281 -262 280.5 -247.5 Q280 -233 280 -219 Q390 -208 390 -166 Q390 -146 370.5 -140.5 Q351 -135 319 -135 L302 -135 L283 -107 L356 -10 Q264 -4 205 27 Q146 58 111.5 106.5 Q77 155 63.5 216.5 Q50 278 50 345 Q50 410 65 474.5 Q80 539 120 590.5 Q160 642 230 674 Q300 706 411 706 Q465 706 512 698.5 Q559 691 602 678 L602 456 L469 456 L469 557 Q455 560 441.5 561 Q428 562 414 562 Q369 562 338.5 547 Q308 532 289.5 504.5 Q271 477 262.5 437.5 Q254 398 254 350 Z " />
<glyph glyph-name="Egrave" unicode="&#xc8;" horiz-adv-x="713" d="M44 0 L44 123 L116 123 L116 568 L45 568 L45 690 L666 690 L666 453 L534 453 L534 568 L309 568 L309 411 L521 419 L521 292 L309 298 L309 123 L544 123 L544 246 L677 246 L677 0 L44 0 Z M215 881 L298 979 L467 804 L412 741 L215 881 Z " />
<glyph glyph-name="Eacute" unicode="&#xc9;" horiz-adv-x="713" d="M44 0 L44 123 L116 123 L116 568 L45 568 L45 690 L666 690 L666 453 L534 453 L534 568 L309 568 L309 411 L521 419 L521 292 L309 298 L309 123 L544 123 L544 246 L677 246 L677 0 L44 0 Z M352 742 L296 805 L465 981 L552 882 L352 742 Z " />
<glyph glyph-name="Ecircumflex" unicode="&#xca;" horiz-adv-x="713" d="M44 0 L44 123 L116 123 L116 568 L45 568 L45 690 L666 690 L666 453 L534 453 L534 568 L309 568 L309 411 L521 419 L521 292 L309 298 L309 123 L544 123 L544 246 L677 246 L677 0 L44 0 Z M544 742 L371 843 L201 743 L159 793 L315 947 L429 947 L589 794 L544 742 Z " />
<glyph glyph-name="Edieresis" unicode="&#xcb;" horiz-adv-x="713" d="M44 0 L44 123 L116 123 L116 568 L45 568 L45 690 L666 690 L666 453 L534 453 L534 568 L309 568 L309 411 L521 419 L521 292 L309 298 L309 123 L544 123 L544 246 L677 246 L677 0 L44 0 Z M548 811 Q548 782 528 762 Q508 742 479 742 Q450 742 430 762 Q410 782 410 811 Q410 840 430 860 Q450 880 479 880 Q508 880 528 860 Q548 840 548 811 Z M337 811 Q337 782 317 762 Q297 742 268 742 Q239 742 219 762 Q199 782 199 811 Q199 840 219 860 Q239 880 267 880 Q296 880 316.5 860 Q337 840 337 811 Z " />
<glyph glyph-name="Igrave" unicode="&#xcc;" horiz-adv-x="475" d="M70 0 L70 122 L142 122 L142 568 L70 568 L70 691 L405 691 L405 568 L335 568 L335 122 L405 122 L405 0 L70 0 Z M48 881 L131 979 L300 804 L245 741 L48 881 Z " />
<glyph glyph-name="Iacute" unicode="&#xcd;" horiz-adv-x="475" d="M70 0 L70 122 L142 122 L142 568 L70 568 L70 691 L405 691 L405 568 L335 568 L335 122 L405 122 L405 0 L70 0 Z M247 742 L191 805 L360 981 L447 882 L247 742 Z " />
<glyph glyph-name="Icircumflex" unicode="&#xce;" horiz-adv-x="475" d="M70 0 L70 122 L142 122 L142 568 L70 568 L70 691 L405 691 L405 568 L335 568 L335 122 L405 122 L405 0 L70 0 Z M410 742 L237 843 L67 743 L25 793 L181 947 L295 947 L455 794 L410 742 Z " />
<glyph glyph-name="Idieresis" unicode="&#xcf;" horiz-adv-x="475" d="M70 0 L70 122 L142 122 L142 568 L70 568 L70 691 L405 691 L405 568 L335 568 L335 122 L405 122 L405 0 L70 0 Z M408 811 Q408 782 388 762 Q368 742 339 742 Q310 742 290 762 Q270 782 270 811 Q270 840 290 860 Q310 880 339 880 Q368 880 388 860 Q408 840 408 811 Z M197 811 Q197 782 177 762 Q157 742 128 742 Q99 742 79 762 Q59 782 59 811 Q59 840 79 860 Q99 880 127 880 Q156 880 176.5 860 Q197 840 197 811 Z " />
<glyph glyph-name="Ntilde" unicode="&#xd1;" horiz-adv-x="880" d="M589 264 L589 568 L522 568 L522 690 L835 690 L835 568 L768 568 L768 0 L579 0 L420 245 L335 379 L291 450 Q290 450 290 449.5 Q290 449 289 449 L289 121 L357 121 L357 0 L42 0 L42 121 L112 121 L112 568 L43 568 L43 690 L318 690 Q349 641 376.5 597.5 Q404 554 431 511.5 Q458 469 485 425.5 Q512 382 541 334 Q552 317 562.5 299.5 Q573 282 584 264 L589 264 Z M528 758 Q501 758 473 764 Q445 770 419.5 777 Q394 784 371.5 790 Q349 796 332 796 L277 757 L225 795 Q246 855 275.5 878 Q305 901 341 901 Q365 901 390.5 895.5 Q416 890 441 883 Q466 876 490.5 870.5 Q515 865 536 865 L591 905 L641 867 Q605 758 528 758 Z " />
<glyph glyph-name="Ograve" unicode="&#xd2;" horiz-adv-x="793" d="M743 347 Q743 270 721 204.5 Q699 139 656 91 Q613 43 548 16 Q483 -11 398 -11 Q309 -11 244 15.5 Q179 42 135.5 89 Q92 136 71 202 Q50 268 50 346 Q50 422 71 487.5 Q92 553 135 601.5 Q178 650 243.5 677.5 Q309 705 398 705 Q487 705 552 677.5 Q617 650 659.5 601.5 Q702 553 722.5 487.5 Q743 422 743 347 Z M537 346 Q537 392 531 432.5 Q525 473 509 504 Q493 535 466.5 553 Q440 571 398 571 Q356 571 328 552.5 Q300 534 283.5 503 Q267 472 260.5 431.5 Q254 391 254 346 Q254 293 261.5 251.5 Q269 210 286 181.5 Q303 153 330.5 137.5 Q358 122 398 122 Q436 122 462.5 138.5 Q489 155 505.5 184.5 Q522 214 529.5 255 Q537 296 537 346 Z M225 881 L308 979 L477 804 L422 741 L225 881 Z " />
<glyph glyph-name="Oacute" unicode="&#xd3;" horiz-adv-x="793" d="M743 347 Q743 270 721 204.5 Q699 139 656 91 Q613 43 548 16 Q483 -11 398 -11 Q309 -11 244 15.5 Q179 42 135.5 89 Q92 136 71 202 Q50 268 50 346 Q50 422 71 487.5 Q92 553 135 601.5 Q178 650 243.5 677.5 Q309 705 398 705 Q487 705 552 677.5 Q617 650 659.5 601.5 Q702 553 722.5 487.5 Q743 422 743 347 Z M537 346 Q537 392 531 432.5 Q525 473 509 504 Q493 535 466.5 553 Q440 571 398 571 Q356 571 328 552.5 Q300 534 283.5 503 Q267 472 260.5 431.5 Q254 391 254 346 Q254 293 261.5 251.5 Q269 210 286 181.5 Q303 153 330.5 137.5 Q358 122 398 122 Q436 122 462.5 138.5 Q489 155 505.5 184.5 Q522 214 529.5 255 Q537 296 537 346 Z M398 742 L342 805 L511 981 L598 882 L398 742 Z " />
<glyph glyph-name="Ocircumflex" unicode="&#xd4;" horiz-adv-x="793" d="M743 347 Q743 270 721 204.5 Q699 139 656 91 Q613 43 548 16 Q483 -11 398 -11 Q309 -11 244 15.5 Q179 42 135.5 89 Q92 136 71 202 Q50 268 50 346 Q50 422 71 487.5 Q92 553 135 601.5 Q178 650 243.5 677.5 Q309 705 398 705 Q487 705 552 677.5 Q617 650 659.5 601.5 Q702 553 722.5 487.5 Q743 422 743 347 Z M537 346 Q537 392 531 432.5 Q525 473 509 504 Q493 535 466.5 553 Q440 571 398 571 Q356 571 328 552.5 Q300 534 283.5 503 Q267 472 260.5 431.5 Q254 391 254 346 Q254 293 261.5 251.5 Q269 210 286 181.5 Q303 153 330.5 137.5 Q358 122 398 122 Q436 122 462.5 138.5 Q489 155 505.5 184.5 Q522 214 529.5 255 Q537 296 537 346 Z M570 742 L397 843 L227 743 L185 793 L341 947 L455 947 L615 794 L570 742 Z " />
<glyph glyph-name="Otilde" unicode="&#xd5;" horiz-adv-x="793" d="M743 347 Q743 270 721 204.5 Q699 139 656 91 Q613 43 548 16 Q483 -11 398 -11 Q309 -11 244 15.5 Q179 42 135.5 89 Q92 136 71 202 Q50 268 50 346 Q50 422 71 487.5 Q92 553 135 601.5 Q178 650 243.5 677.5 Q309 705 398 705 Q487 705 552 677.5 Q617 650 659.5 601.5 Q702 553 722.5 487.5 Q743 422 743 347 Z M537 346 Q537 392 531 432.5 Q525 473 509 504 Q493 535 466.5 553 Q440 571 398 571 Q356 571 328 552.5 Q300 534 283.5 503 Q267 472 260.5 431.5 Q254 391 254 346 Q254 293 261.5 251.5 Q269 210 286 181.5 Q303 153 330.5 137.5 Q358 122 398 122 Q436 122 462.5 138.5 Q489 155 505.5 184.5 Q522 214 529.5 255 Q537 296 537 346 Z M495 760 Q468 760 440 766 Q412 772 386.5 779 Q361 786 338.5 792 Q316 798 299 798 L244 759 L192 797 Q213 857 242.5 880 Q272 903 308 903 Q332 903 357.5 897.5 Q383 892 408 885 Q433 878 457.5 872.5 Q482 867 503 867 L558 907 L608 869 Q572 760 495 760 Z " />
<glyph glyph-name="Odieresis" unicode="&#xd6;" horiz-adv-x="793" d="M743 347 Q743 270 721 204.5 Q699 139 656 91 Q613 43 548 16 Q483 -11 398 -11 Q309 -11 244 15.5 Q179 42 135.5 89 Q92 136 71 202 Q50 268 50 346 Q50 422 71 487.5 Q92 553 135 601.5 Q178 650 243.5 677.5 Q309 705 398 705 Q487 705 552 677.5 Q617 650 659.5 601.5 Q702 553 722.5 487.5 Q743 422 743 347 Z M537 346 Q537 392 531 432.5 Q525 473 509 504 Q493 535 466.5 553 Q440 571 398 571 Q356 571 328 552.5 Q300 534 283.5 503 Q267 472 260.5 431.5 Q254 391 254 346 Q254 293 261.5 251.5 Q269 210 286 181.5 Q303 153 330.5 137.5 Q358 122 398 122 Q436 122 462.5 138.5 Q489 155 505.5 184.5 Q522 214 529.5 255 Q537 296 537 346 Z M570 811 Q570 782 550 762 Q530 742 501 742 Q472 742 452 762 Q432 782 432 811 Q432 840 452 860 Q472 880 501 880 Q530 880 550 860 Q570 840 570 811 Z M359 811 Q359 782 339 762 Q319 742 290 742 Q261 742 241 762 Q221 782 221 811 Q221 840 241 860 Q261 880 289 880 Q318 880 338.5 860 Q359 840 359 811 Z " />
<glyph glyph-name="Oslash" unicode="&#xd8;" horiz-adv-x="793" d="M743 347 Q743 270 721 204.5 Q699 139 656 91 Q613 43 548 16 Q483 -11 398 -11 Q327 -11 272.5 5.5 Q218 22 176 53 L121 -9 L49 -9 L134 90 Q92 138 71 203 Q50 268 50 346 Q50 422 71 487.5 Q92 553 135 601.5 Q178 650 243.5 677.5 Q309 705 398 705 Q466 705 518.5 689 Q571 673 612 644 L664 706 L745 706 L657 605 Q701 557 722 490.5 Q743 424 743 347 Z M537 346 Q537 375 533.5 403.5 Q530 432 522 456 L287 178 Q305 150 332 135.5 Q359 121 398 121 Q436 121 462.5 137.5 Q489 154 505.5 183.5 Q522 213 529.5 254.5 Q537 296 537 346 Z M254 346 Q254 282 267 240 L501 518 Q484 543 459 557.5 Q434 572 398 572 Q356 572 328 553.5 Q300 535 283.5 503.5 Q267 472 260.5 431.5 Q254 391 254 346 Z " />
<glyph glyph-name="Ugrave" unicode="&#xd9;" horiz-adv-x="800" d="M707 259 Q707 195 689.5 145 Q672 95 634.5 60.5 Q597 26 539 8 Q481 -10 401 -10 Q317 -10 257.5 8.5 Q198 27 161 61.5 Q124 96 107 146 Q90 196 90 259 L90 568 L34 568 L34 691 L339 691 L339 568 L280 568 L280 250 Q280 183 311 153 Q342 123 402 123 Q427 123 448.5 129.5 Q470 136 486 151 Q502 166 511 190.5 Q520 215 520 250 L520 568 L463 568 L463 691 L766 691 L766 568 L707 568 L707 259 Z M214 881 L297 979 L466 804 L411 741 L214 881 Z " />
<glyph glyph-name="Uacute" unicode="&#xda;" horiz-adv-x="800" d="M707 259 Q707 195 689.5 145 Q672 95 634.5 60.5 Q597 26 539 8 Q481 -10 401 -10 Q317 -10 257.5 8.5 Q198 27 161 61.5 Q124 96 107 146 Q90 196 90 259 L90 568 L34 568 L34 691 L339 691 L339 568 L280 568 L280 250 Q280 183 311 153 Q342 123 402 123 Q427 123 448.5 129.5 Q470 136 486 151 Q502 166 511 190.5 Q520 215 520 250 L520 568 L463 568 L463 691 L766 691 L766 568 L707 568 L707 259 Z M400 742 L344 805 L513 981 L600 882 L400 742 Z " />
<glyph glyph-name="Ucircumflex" unicode="&#xdb;" horiz-adv-x="800" d="M707 259 Q707 195 689.5 145 Q672 95 634.5 60.5 Q597 26 539 8 Q481 -10 401 -10 Q317 -10 257.5 8.5 Q198 27 161 61.5 Q124 96 107 146 Q90 196 90 259 L90 568 L34 568 L34 691 L339 691 L339 568 L280 568 L280 250 Q280 183 311 153 Q342 123 402 123 Q427 123 448.5 129.5 Q470 136 486 151 Q502 166 511 190.5 Q520 215 520 250 L520 568 L463 568 L463 691 L766 691 L766 568 L707 568 L707 259 Z M579 742 L399 841 L223 743 L179 792 L341 943 L459 943 L626 793 L579 742 Z " />
<glyph glyph-name="Udieresis" unicode="&#xdc;" horiz-adv-x="800" d="M707 259 Q707 195 689.5 145 Q672 95 634.5 60.5 Q597 26 539 8 Q481 -10 401 -10 Q317 -10 257.5 8.5 Q198 27 161 61.5 Q124 96 107 146 Q90 196 90 259 L90 568 L34 568 L34 691 L339 691 L339 568 L280 568 L280 250 Q280 183 311 153 Q342 123 402 123 Q427 123 448.5 129.5 Q470 136 486 151 Q502 166 511 190.5 Q520 215 520 250 L520 568 L463 568 L463 691 L766 691 L766 568 L707 568 L707 259 Z M573 811 Q573 782 553 762 Q533 742 504 742 Q475 742 455 762 Q435 782 435 811 Q435 840 455 860 Q475 880 504 880 Q533 880 553 860 Q573 840 573 811 Z M362 811 Q362 782 342 762 Q322 742 293 742 Q264 742 244 762 Q224 782 224 811 Q224 840 244 860 Q264 880 292 880 Q321 880 341.5 860 Q362 840 362 811 Z " />
<glyph glyph-name="Yacute" unicode="&#xdd;" horiz-adv-x="733" d="M476 567 L419 567 L419 691 L719 691 L719 567 L667 567 L468 250 L468 122 L543 122 L543 0 L184 0 L184 122 L260 122 L260 249 L64 567 L14 567 L14 691 L317 691 L317 567 L262 567 L367 377 L371 377 L476 567 Z M371 741 L315 804 L484 980 L571 881 L371 741 Z " />
<glyph glyph-name="Thorn" unicode="&#xde;" horiz-adv-x="685" d="M309 532 L406 532 Q475 532 524 519 Q573 506 603.5 482.5 Q634 459 648.5 425 Q663 391 663 349 Q663 310 648.5 276 Q634 242 604 216.5 Q574 191 528.5 176 Q483 161 421 162 L309 163 L309 111 L378 111 L378 0 L42 0 L42 111 L116 111 L116 573 L42 573 L42 691 L378 691 L378 573 L309 573 L309 532 Z M309 433 L309 264 L369 264 Q411 264 436.5 284.5 Q462 305 462 347 Q462 393 435.5 413 Q409 433 364 433 L309 433 Z " />
<glyph glyph-name="agrave" unicode="&#xe0;" horiz-adv-x="608" d="M518 120 L586 120 Q588 94 590 69 Q592 44 594 18 Q562 3 521 -4.5 Q480 -12 442 -12 Q406 -12 380 1 Q354 14 352 55 Q352 55 351 56 Q328 32 303.5 18 Q279 4 257 -2.5 Q235 -9 217 -10.5 Q199 -12 189 -12 Q141 -12 110.5 2.5 Q80 17 62 38.5 Q44 60 37.5 85.5 Q31 111 31 132 Q31 158 39 181.5 Q47 205 67 224 Q87 243 121 257 Q155 271 208 277 L341 289 L341 305 Q341 338 324.5 355.5 Q308 373 263 373 Q228 373 186 367 Q144 361 113 351 L85 463 Q107 472 134.5 479.5 Q162 487 191.5 492.5 Q221 498 251 500.5 Q281 503 310 503 Q358 503 396.5 494 Q435 485 462 464.5 Q489 444 503.5 410 Q518 376 518 327 L518 120 Z M152 670 L236 769 L405 593 L350 530 L152 670 Z M272 204 Q246 200 235 186 Q224 172 224 155 Q224 129 235.5 114.5 Q247 100 275 100 Q291 100 308 107.5 Q325 115 339 128 L339 213 L272 204 Z " />
<glyph glyph-name="aacute" unicode="&#xe1;" horiz-adv-x="608" d="M518 120 L586 120 Q588 94 590 69 Q592 44 594 18 Q562 3 521 -4.5 Q480 -12 442 -12 Q406 -12 380 1 Q354 14 352 55 Q352 55 351 56 Q328 32 303.5 18 Q279 4 257 -2.5 Q235 -9 217 -10.5 Q199 -12 189 -12 Q141 -12 110.5 2.5 Q80 17 62 38.5 Q44 60 37.5 85.5 Q31 111 31 132 Q31 158 39 181.5 Q47 205 67 224 Q87 243 121 257 Q155 271 208 277 L341 289 L341 305 Q341 338 324.5 355.5 Q308 373 263 373 Q228 373 186 367 Q144 361 113 351 L85 463 Q107 472 134.5 479.5 Q162 487 191.5 492.5 Q221 498 251 500.5 Q281 503 310 503 Q358 503 396.5 494 Q435 485 462 464.5 Q489 444 503.5 410 Q518 376 518 327 L518 120 Z M239 530 L183 593 L352 769 L439 670 L239 530 Z M272 204 Q246 200 235 186 Q224 172 224 155 Q224 129 235.5 114.5 Q247 100 275 100 Q291 100 308 107.5 Q325 115 339 128 L339 213 L272 204 Z " />
<glyph glyph-name="acircumflex" unicode="&#xe2;" horiz-adv-x="608" d="M518 120 L586 120 Q588 94 590 69 Q592 44 594 18 Q562 3 521 -4.5 Q480 -12 442 -12 Q406 -12 380 1 Q354 14 352 55 Q352 55 351 56 Q328 32 303.5 18 Q279 4 257 -2.5 Q235 -9 217 -10.5 Q199 -12 189 -12 Q141 -12 110.5 2.5 Q80 17 62 38.5 Q44 60 37.5 85.5 Q31 111 31 132 Q31 158 39 181.5 Q47 205 67 224 Q87 243 121 257 Q155 271 208 277 L341 289 L341 305 Q341 338 324.5 355.5 Q308 373 263 373 Q228 373 186 367 Q144 361 113 351 L85 463 Q107 472 134.5 479.5 Q162 487 191.5 492.5 Q221 498 251 500.5 Q281 503 310 503 Q358 503 396.5 494 Q435 485 462 464.5 Q489 444 503.5 410 Q518 376 518 327 L518 120 Z M473 528 L300 629 L129 529 L87 579 L243 735 L358 735 L517 580 L473 528 Z M272 204 Q246 200 235 186 Q224 172 224 155 Q224 129 235.5 114.5 Q247 100 275 100 Q291 100 308 107.5 Q325 115 339 128 L339 213 L272 204 Z " />
<glyph glyph-name="atilde" unicode="&#xe3;" horiz-adv-x="608" d="M518 120 L586 120 Q588 94 590 69 Q592 44 594 18 Q562 3 521 -4.5 Q480 -12 442 -12 Q406 -12 380 1 Q354 14 352 55 Q352 55 351 56 Q328 32 303.5 18 Q279 4 257 -2.5 Q235 -9 217 -10.5 Q199 -12 189 -12 Q141 -12 110.5 2.5 Q80 17 62 38.5 Q44 60 37.5 85.5 Q31 111 31 132 Q31 158 39 181.5 Q47 205 67 224 Q87 243 121 257 Q155 271 208 277 L341 289 L341 305 Q341 338 324.5 355.5 Q308 373 263 373 Q228 373 186 367 Q144 361 113 351 L85 463 Q107 472 134.5 479.5 Q162 487 191.5 492.5 Q221 498 251 500.5 Q281 503 310 503 Q358 503 396.5 494 Q435 485 462 464.5 Q489 444 503.5 410 Q518 376 518 327 L518 120 Z M398 564 Q371 564 343 570 Q315 576 289.5 583 Q264 590 241.5 596 Q219 602 202 602 L147 563 L95 601 Q116 661 145.5 684 Q175 707 211 707 Q235 707 260.5 701.5 Q286 696 311 689 Q336 682 360.5 676.5 Q385 671 406 671 L461 711 L511 673 Q475 564 398 564 Z M272 204 Q246 200 235 186 Q224 172 224 155 Q224 129 235.5 114.5 Q247 100 275 100 Q291 100 308 107.5 Q325 115 339 128 L339 213 L272 204 Z " />
<glyph glyph-name="adieresis" unicode="&#xe4;" horiz-adv-x="608" d="M518 120 L586 120 Q588 94 590 69 Q592 44 594 18 Q562 3 521 -4.5 Q480 -12 442 -12 Q406 -12 380 1 Q354 14 352 55 Q352 55 351 56 Q328 32 303.5 18 Q279 4 257 -2.5 Q235 -9 217 -10.5 Q199 -12 189 -12 Q141 -12 110.5 2.5 Q80 17 62 38.5 Q44 60 37.5 85.5 Q31 111 31 132 Q31 158 39 181.5 Q47 205 67 224 Q87 243 121 257 Q155 271 208 277 L341 289 L341 305 Q341 338 324.5 355.5 Q308 373 263 373 Q228 373 186 367 Q144 361 113 351 L85 463 Q107 472 134.5 479.5 Q162 487 191.5 492.5 Q221 498 251 500.5 Q281 503 310 503 Q358 503 396.5 494 Q435 485 462 464.5 Q489 444 503.5 410 Q518 376 518 327 L518 120 Z M491 611 Q491 582 471 562 Q451 542 421 542 Q392 542 372 562 Q352 582 352 611 Q352 640 372 660 Q392 680 421 680 Q451 680 471 660.5 Q491 641 491 611 Z M279 611 Q279 582 259 562 Q239 542 210 542 Q181 542 161 562 Q141 582 141 611 Q141 640 161 660 Q181 680 209 680 Q239 680 259 660.5 Q279 641 279 611 Z M272 204 Q246 200 235 186 Q224 172 224 155 Q224 129 235.5 114.5 Q247 100 275 100 Q291 100 308 107.5 Q325 115 339 128 L339 213 L272 204 Z " />
<glyph glyph-name="aring" unicode="&#xe5;" horiz-adv-x="608" d="M518 120 L586 120 Q588 94 590 69 Q592 44 594 18 Q562 3 521 -4.5 Q480 -12 442 -12 Q406 -12 380 1 Q354 14 352 55 Q352 55 351 56 Q328 32 303.5 18 Q279 4 257 -2.5 Q235 -9 217 -10.5 Q199 -12 189 -12 Q141 -12 110.5 2.5 Q80 17 62 38.5 Q44 60 37.5 85.5 Q31 111 31 132 Q31 158 39 181.5 Q47 205 67 224 Q87 243 121 257 Q155 271 208 277 L341 289 L341 305 Q341 338 324.5 355.5 Q308 373 263 373 Q228 373 186 367 Q144 361 113 351 L85 463 Q107 472 134.5 479.5 Q162 487 191.5 492.5 Q221 498 251 500.5 Q281 503 310 503 Q358 503 396.5 494 Q435 485 462 464.5 Q489 444 503.5 410 Q518 376 518 327 L518 120 Z M309 545 Q280 545 255 555.5 Q230 566 211.5 584 Q193 602 182.5 626.5 Q172 651 172 678 Q172 704 182.5 728 Q193 752 211.5 770 Q230 788 255 799 Q280 810 309 810 Q338 810 362.5 799.5 Q387 789 404.5 771 Q422 753 432 729 Q442 705 442 678 Q442 650 431.5 625.5 Q421 601 403 583 Q385 565 361 555 Q337 545 309 545 Z M272 204 Q246 200 235 186 Q224 172 224 155 Q224 129 235.5 114.5 Q247 100 275 100 Q291 100 308 107.5 Q325 115 339 128 L339 213 L272 204 Z M309 729 Q286 729 270.5 712.5 Q255 696 255 675 Q255 655 269.5 639.5 Q284 624 309 624 Q332 624 345.5 639.5 Q359 655 359 675 Q359 696 346 712.5 Q333 729 309 729 Z " />
<glyph glyph-name="ccedilla" unicode="&#xe7;" horiz-adv-x="529" d="M306 506 Q349 506 393 499.5 Q437 493 475 479 L475 312 L353 312 L353 372 Q346 374 337 374 Q328 374 323 374 Q298 374 280.5 364.5 Q263 355 251.5 338.5 Q240 322 235 299 Q230 276 230 250 Q230 212 237.5 187.5 Q245 163 258.5 149 Q272 135 290.5 129 Q309 123 331 123 Q362 123 399 129 Q436 135 467 145 Q475 118 483.5 88 Q492 58 500 30 Q464 13 417 3 Q370 -7 322 -9 L289 -55 Q340 -58 368.5 -81 Q397 -104 397 -143 Q397 -164 385.5 -185 Q374 -206 350 -222 Q326 -238 287.5 -248.5 Q249 -259 195 -259 Q195 -245 194.5 -230.5 Q194 -216 194 -202 Q304 -191 304 -149 Q304 -129 284.5 -123.5 Q265 -118 233 -118 L216 -118 L197 -90 L259 -8 Q193 -3 150 19.5 Q107 42 82 76 Q57 110 47.5 153 Q38 196 38 244 Q38 289 49 336 Q60 383 89.5 420.5 Q119 458 171 482 Q223 506 306 506 Z " />
<glyph glyph-name="egrave" unicode="&#xe8;" horiz-adv-x="572" d="M301 380 Q264 380 248 354 Q232 328 231 295 L364 295 Q364 313 361 328.5 Q358 344 351 355.5 Q344 367 332 373.5 Q320 380 301 380 Z M300 505 Q372 505 417 483 Q462 461 488 426.5 Q514 392 523.5 348 Q533 304 533 261 L533 220 L228 220 Q228 166 253.5 143.5 Q279 121 337 121 Q373 121 411.5 128.5 Q450 136 486 149 L522 39 Q470 11 411 0 Q352 -11 301 -11 Q221 -11 170.5 10.5 Q120 32 91 68 Q62 104 51 150 Q40 196 40 245 Q40 292 53 338.5 Q66 385 96 422 Q126 459 176 482 Q226 505 300 505 Z M144 670 L228 769 L397 593 L342 530 L144 670 Z " />
<glyph glyph-name="eacute" unicode="&#xe9;" horiz-adv-x="572" d="M301 380 Q264 380 248 354 Q232 328 231 295 L364 295 Q364 313 361 328.5 Q358 344 351 355.5 Q344 367 332 373.5 Q320 380 301 380 Z M300 505 Q372 505 417 483 Q462 461 488 426.5 Q514 392 523.5 348 Q533 304 533 261 L533 220 L228 220 Q228 166 253.5 143.5 Q279 121 337 121 Q373 121 411.5 128.5 Q450 136 486 149 L522 39 Q470 11 411 0 Q352 -11 301 -11 Q221 -11 170.5 10.5 Q120 32 91 68 Q62 104 51 150 Q40 196 40 245 Q40 292 53 338.5 Q66 385 96 422 Q126 459 176 482 Q226 505 300 505 Z M239 530 L183 593 L352 769 L439 670 L239 530 Z " />
<glyph glyph-name="ecircumflex" unicode="&#xea;" horiz-adv-x="572" d="M301 380 Q264 380 248 354 Q232 328 231 295 L364 295 Q364 313 361 328.5 Q358 344 351 355.5 Q344 367 332 373.5 Q320 380 301 380 Z M300 505 Q372 505 417 483 Q462 461 488 426.5 Q514 392 523.5 348 Q533 304 533 261 L533 220 L228 220 Q228 166 253.5 143.5 Q279 121 337 121 Q373 121 411.5 128.5 Q450 136 486 149 L522 39 Q470 11 411 0 Q352 -11 301 -11 Q221 -11 170.5 10.5 Q120 32 91 68 Q62 104 51 150 Q40 196 40 245 Q40 292 53 338.5 Q66 385 96 422 Q126 459 176 482 Q226 505 300 505 Z M476 528 L303 629 L132 529 L90 579 L246 735 L361 735 L520 580 L476 528 Z " />
<glyph glyph-name="edieresis" unicode="&#xeb;" horiz-adv-x="572" d="M301 380 Q264 380 248 354 Q232 328 231 295 L364 295 Q364 313 361 328.5 Q358 344 351 355.5 Q344 367 332 373.5 Q320 380 301 380 Z M300 505 Q372 505 417 483 Q462 461 488 426.5 Q514 392 523.5 348 Q533 304 533 261 L533 220 L228 220 Q228 166 253.5 143.5 Q279 121 337 121 Q373 121 411.5 128.5 Q450 136 486 149 L522 39 Q470 11 411 0 Q352 -11 301 -11 Q221 -11 170.5 10.5 Q120 32 91 68 Q62 104 51 150 Q40 196 40 245 Q40 292 53 338.5 Q66 385 96 422 Q126 459 176 482 Q226 505 300 505 Z M478 611 Q478 582 458 562 Q438 542 408 542 Q379 542 359 562 Q339 582 339 611 Q339 640 359 660 Q379 680 408 680 Q438 680 458 660.5 Q478 641 478 611 Z M266 611 Q266 582 246 562 Q226 542 197 542 Q168 542 148 562 Q128 582 128 611 Q128 640 148 660 Q168 680 196 680 Q226 680 246 660.5 Q266 641 266 611 Z " />
<glyph glyph-name="igrave" unicode="&#xec;" horiz-adv-x="390" d="M43 376 L43 493 L283 493 L283 125 L352 125 L352 14 Q323 1 285 -5.5 Q247 -12 218 -12 Q148 -12 121.5 16 Q95 44 95 99 L95 376 L43 376 Z M30 670 L114 769 L283 593 L228 530 L30 670 Z " />
<glyph glyph-name="iacute" unicode="&#xed;" horiz-adv-x="390" d="M43 376 L43 493 L283 493 L283 125 L352 125 L352 14 Q323 1 285 -5.5 Q247 -12 218 -12 Q148 -12 121.5 16 Q95 44 95 99 L95 376 L43 376 Z M144 530 L88 593 L257 769 L344 670 L144 530 Z " />
<glyph glyph-name="icircumflex" unicode="&#xee;" horiz-adv-x="398" d="M43 376 L43 493 L283 493 L283 125 L352 125 L352 14 Q323 1 285 -5.5 Q247 -12 218 -12 Q148 -12 121.5 16 Q95 44 95 99 L95 376 L43 376 Z M354 528 L181 629 L10 529 L-32 579 L124 735 L239 735 L398 580 L354 528 Z " />
<glyph glyph-name="idieresis" unicode="&#xef;" horiz-adv-x="390" d="M43 376 L43 493 L283 493 L283 125 L352 125 L352 14 Q323 1 285 -5.5 Q247 -12 218 -12 Q148 -12 121.5 16 Q95 44 95 99 L95 376 L43 376 Z M363 611 Q363 582 343 562 Q323 542 293 542 Q264 542 244 562 Q224 582 224 611 Q224 640 244 660 Q264 680 293 680 Q323 680 343 660.5 Q363 641 363 611 Z M151 611 Q151 582 131 562 Q111 542 82 542 Q53 542 33 562 Q13 582 13 611 Q13 640 33 660 Q53 680 81 680 Q111 680 131 660.5 Q151 641 151 611 Z " />
<glyph glyph-name="ntilde" unicode="&#xf1;" horiz-adv-x="696" d="M435 505 Q483 505 516 491 Q549 477 568.5 453 Q588 429 596.5 397 Q605 365 605 328 L605 124 L669 124 L669 14 Q639 1 604 -5 Q569 -11 540 -11 Q499 -11 475 0 Q451 11 438 28.5 Q425 46 421 66.5 Q417 87 417 106 L417 290 Q417 329 402.5 345.5 Q388 362 356 362 Q338 362 316 353.5 Q294 345 277 332 L277 0 L87 0 L87 376 L27 376 L27 493 L273 493 L273 450 Q274 450 276 449.5 Q278 449 279 449 Q317 475 357 490 Q397 505 435 505 Z M412 569 Q385 569 357 575 Q329 581 303.5 588 Q278 595 255.5 601 Q233 607 216 607 L161 568 L109 606 Q130 666 159.5 689 Q189 712 225 712 Q249 712 274.5 706.5 Q300 701 325 694 Q350 687 374.5 681.5 Q399 676 420 676 L475 716 L525 678 Q489 569 412 569 Z " />
<glyph glyph-name="ograve" unicode="&#xf2;" horiz-adv-x="628" d="M588 247 Q588 193 571.5 146 Q555 99 521 64.5 Q487 30 435 10 Q383 -10 312 -10 Q242 -10 190.5 9.5 Q139 29 105.5 63 Q72 97 56 144 Q40 191 40 247 Q40 301 56.5 348 Q73 395 107 429.5 Q141 464 193 484 Q245 504 315 504 Q385 504 436.5 484 Q488 464 522 429.5 Q556 395 572 348 Q588 301 588 247 Z M395 247 Q395 272 391.5 295 Q388 318 379.5 336 Q371 354 355.5 364.5 Q340 375 316 375 Q291 375 275 364 Q259 353 249.5 335 Q240 317 236.5 294 Q233 271 233 247 Q233 220 236.5 196 Q240 172 249 154 Q258 136 273.5 126 Q289 116 314 116 Q338 116 354 126.5 Q370 137 379 154.5 Q388 172 391.5 196 Q395 220 395 247 Z M148 670 L232 769 L401 593 L346 530 L148 670 Z " />
<glyph glyph-name="oacute" unicode="&#xf3;" horiz-adv-x="628" d="M588 247 Q588 193 571.5 146 Q555 99 521 64.5 Q487 30 435 10 Q383 -10 312 -10 Q242 -10 190.5 9.5 Q139 29 105.5 63 Q72 97 56 144 Q40 191 40 247 Q40 301 56.5 348 Q73 395 107 429.5 Q141 464 193 484 Q245 504 315 504 Q385 504 436.5 484 Q488 464 522 429.5 Q556 395 572 348 Q588 301 588 247 Z M395 247 Q395 272 391.5 295 Q388 318 379.5 336 Q371 354 355.5 364.5 Q340 375 316 375 Q291 375 275 364 Q259 353 249.5 335 Q240 317 236.5 294 Q233 271 233 247 Q233 220 236.5 196 Q240 172 249 154 Q258 136 273.5 126 Q289 116 314 116 Q338 116 354 126.5 Q370 137 379 154.5 Q388 172 391.5 196 Q395 220 395 247 Z M264 530 L208 593 L377 769 L464 670 L264 530 Z " />
<glyph glyph-name="ocircumflex" unicode="&#xf4;" horiz-adv-x="628" d="M588 247 Q588 193 571.5 146 Q555 99 521 64.5 Q487 30 435 10 Q383 -10 312 -10 Q242 -10 190.5 9.5 Q139 29 105.5 63 Q72 97 56 144 Q40 191 40 247 Q40 301 56.5 348 Q73 395 107 429.5 Q141 464 193 484 Q245 504 315 504 Q385 504 436.5 484 Q488 464 522 429.5 Q556 395 572 348 Q588 301 588 247 Z M395 247 Q395 272 391.5 295 Q388 318 379.5 336 Q371 354 355.5 364.5 Q340 375 316 375 Q291 375 275 364 Q259 353 249.5 335 Q240 317 236.5 294 Q233 271 233 247 Q233 220 236.5 196 Q240 172 249 154 Q258 136 273.5 126 Q289 116 314 116 Q338 116 354 126.5 Q370 137 379 154.5 Q388 172 391.5 196 Q395 220 395 247 Z M487 528 L314 629 L143 529 L101 579 L257 735 L372 735 L531 580 L487 528 Z " />
<glyph glyph-name="otilde" unicode="&#xf5;" horiz-adv-x="628" d="M588 247 Q588 193 571.5 146 Q555 99 521 64.5 Q487 30 435 10 Q383 -10 312 -10 Q242 -10 190.5 9.5 Q139 29 105.5 63 Q72 97 56 144 Q40 191 40 247 Q40 301 56.5 348 Q73 395 107 429.5 Q141 464 193 484 Q245 504 315 504 Q385 504 436.5 484 Q488 464 522 429.5 Q556 395 572 348 Q588 301 588 247 Z M395 247 Q395 272 391.5 295 Q388 318 379.5 336 Q371 354 355.5 364.5 Q340 375 316 375 Q291 375 275 364 Q259 353 249.5 335 Q240 317 236.5 294 Q233 271 233 247 Q233 220 236.5 196 Q240 172 249 154 Q258 136 273.5 126 Q289 116 314 116 Q338 116 354 126.5 Q370 137 379 154.5 Q388 172 391.5 196 Q395 220 395 247 Z M412 555 Q385 555 357 561 Q329 567 303.5 574 Q278 581 255.5 587 Q233 593 216 593 L161 554 L109 592 Q130 652 159.5 675 Q189 698 225 698 Q249 698 274.5 692.5 Q300 687 325 680 Q350 673 374.5 667.5 Q399 662 420 662 L475 702 L525 664 Q489 555 412 555 Z " />
<glyph glyph-name="odieresis" unicode="&#xf6;" horiz-adv-x="628" d="M588 247 Q588 193 571.5 146 Q555 99 521 64.5 Q487 30 435 10 Q383 -10 312 -10 Q242 -10 190.5 9.5 Q139 29 105.5 63 Q72 97 56 144 Q40 191 40 247 Q40 301 56.5 348 Q73 395 107 429.5 Q141 464 193 484 Q245 504 315 504 Q385 504 436.5 484 Q488 464 522 429.5 Q556 395 572 348 Q588 301 588 247 Z M395 247 Q395 272 391.5 295 Q388 318 379.5 336 Q371 354 355.5 364.5 Q340 375 316 375 Q291 375 275 364 Q259 353 249.5 335 Q240 317 236.5 294 Q233 271 233 247 Q233 220 236.5 196 Q240 172 249 154 Q258 136 273.5 126 Q289 116 314 116 Q338 116 354 126.5 Q370 137 379 154.5 Q388 172 391.5 196 Q395 220 395 247 Z M487 611 Q487 582 467 562 Q447 542 417 542 Q388 542 368 562 Q348 582 348 611 Q348 640 368 660 Q388 680 417 680 Q447 680 467 660.5 Q487 641 487 611 Z M275 611 Q275 582 255 562 Q235 542 206 542 Q177 542 157 562 Q137 582 137 611 Q137 640 157 660 Q177 680 205 680 Q235 680 255 660.5 Q275 641 275 611 Z " />
<glyph glyph-name="oslash" unicode="&#xf8;" horiz-adv-x="628" d="M314 503 Q366 503 407 491.5 Q448 480 480 460 L519 503 L588 503 L520 430 Q554 395 570.5 348 Q587 301 587 246 Q587 192 570.5 145 Q554 98 520 64 Q486 30 434 10.5 Q382 -9 311 -9 Q205 -9 143 31 Q134 21 125 11.5 Q116 2 106 -7 L37 -7 Q54 10 70 27.5 Q86 45 103 62 Q70 97 55 143.5 Q40 190 40 246 Q40 300 56.5 347 Q73 394 107 428.5 Q141 463 192.5 483 Q244 503 314 503 Z M394 246 Q394 258 392.5 271 Q391 284 387 295 L253 143 Q263 130 277.5 122.5 Q292 115 314 115 Q338 115 353.5 125 Q369 135 378 153 Q387 171 390.5 195 Q394 219 394 246 Z M314 375 Q272 375 251 339.5 Q230 304 230 249 Q230 238 231 223.5 Q232 209 236 198 L369 349 Q360 361 347 368 Q334 375 314 375 Z " />
<glyph glyph-name="ugrave" unicode="&#xf9;" horiz-adv-x="685" d="M357 493 L595 493 L595 124 L657 124 L657 13 Q612 -2 578.5 -6.5 Q545 -11 524 -11 Q469 -11 445.5 7.5 Q422 26 416 61 Q379 26 337 6.5 Q295 -13 250 -13 Q169 -13 128.5 30 Q88 73 88 154 L88 374 L27 374 L27 493 L278 493 L278 198 Q278 164 288.5 148.5 Q299 133 331 133 Q343 133 365 140.5 Q387 148 406 168 L406 375 L357 375 L357 493 Z M171 670 L255 769 L424 593 L369 530 L171 670 Z " />
<glyph glyph-name="uacute" unicode="&#xfa;" horiz-adv-x="685" d="M357 493 L595 493 L595 124 L657 124 L657 13 Q612 -2 578.5 -6.5 Q545 -11 524 -11 Q469 -11 445.5 7.5 Q422 26 416 61 Q379 26 337 6.5 Q295 -13 250 -13 Q169 -13 128.5 30 Q88 73 88 154 L88 374 L27 374 L27 493 L278 493 L278 198 Q278 164 288.5 148.5 Q299 133 331 133 Q343 133 365 140.5 Q387 148 406 168 L406 375 L357 375 L357 493 Z M308 530 L252 593 L421 769 L508 670 L308 530 Z " />
<glyph glyph-name="ucircumflex" unicode="&#xfb;" horiz-adv-x="685" d="M357 493 L595 493 L595 124 L657 124 L657 13 Q612 -2 578.5 -6.5 Q545 -11 524 -11 Q469 -11 445.5 7.5 Q422 26 416 61 Q379 26 337 6.5 Q295 -13 250 -13 Q169 -13 128.5 30 Q88 73 88 154 L88 374 L27 374 L27 493 L278 493 L278 198 Q278 164 288.5 148.5 Q299 133 331 133 Q343 133 365 140.5 Q387 148 406 168 L406 375 L357 375 L357 493 Z M510 528 L337 629 L166 529 L124 579 L280 735 L395 735 L554 580 L510 528 Z " />
<glyph glyph-name="udieresis" unicode="&#xfc;" horiz-adv-x="685" d="M357 493 L595 493 L595 124 L657 124 L657 13 Q612 -2 578.5 -6.5 Q545 -11 524 -11 Q469 -11 445.5 7.5 Q422 26 416 61 Q379 26 337 6.5 Q295 -13 250 -13 Q169 -13 128.5 30 Q88 73 88 154 L88 374 L27 374 L27 493 L278 493 L278 198 Q278 164 288.5 148.5 Q299 133 331 133 Q343 133 365 140.5 Q387 148 406 168 L406 375 L357 375 L357 493 Z M511 611 Q511 582 491 562 Q471 542 441 542 Q412 542 392 562 Q372 582 372 611 Q372 640 392 660 Q412 680 441 680 Q471 680 491 660.5 Q511 641 511 611 Z M299 611 Q299 582 279 562 Q259 542 230 542 Q201 542 181 562 Q161 582 161 611 Q161 640 181 660 Q201 680 229 680 Q259 680 279 660.5 Q299 641 299 611 Z " />
<glyph glyph-name="yacute" unicode="&#xfd;" horiz-adv-x="651" d="M399 -119 Q390 -142 378 -160.5 Q366 -179 349 -192.5 Q332 -206 308 -213.5 Q284 -221 251 -221 Q244 -221 227 -220 Q210 -219 187.5 -216 Q165 -213 139.5 -208 Q114 -203 90 -194 L112 -69 Q117 -70 127 -71.5 Q137 -73 148 -74.5 Q159 -76 168.5 -77 Q178 -78 182 -78 Q217 -79 231.5 -69.5 Q246 -60 257 -33 L277 19 L189 19 Q184 34 174.5 61.5 Q165 89 153 122 Q141 155 128.5 191 Q116 227 104 260.5 Q92 294 82 321 Q72 348 67 364 L18 364 L18 493 L207 493 L317 122 L321 122 Q322 127 328.5 146 Q335 165 343 191 Q351 217 360.5 246.5 Q370 276 378.5 302.5 Q387 329 393.5 348.5 Q400 368 402 374 L355 374 L355 493 L630 493 L630 374 L585 374 L399 -119 Z M291 530 L235 593 L404 769 L491 670 L291 530 Z " />
<glyph glyph-name="thorn" unicode="&#xfe;" horiz-adv-x="665" d="M85 573 L22 573 L22 690 L268 690 L268 457 Q269 457 269.5 456.5 Q270 456 271 456 Q288 468 307.5 476.5 Q327 485 346 490.5 Q365 496 382.5 498.5 Q400 501 413 501 Q474 501 515 482 Q556 463 580.5 430 Q605 397 615 352.5 Q625 308 625 257 Q625 198 613.5 149 Q602 100 576 65 Q550 30 507.5 10 Q465 -10 404 -10 Q393 -10 377 -8.5 Q361 -7 343 -3.5 Q325 0 307 5 Q289 10 274 17 L274 -95 L338 -95 L338 -211 L23 -211 L23 -95 L85 -95 L85 573 Z M356 120 Q369 120 383.5 125 Q398 130 410 145 Q422 160 430 186 Q438 212 438 254 Q438 293 431 316.5 Q424 340 412.5 352 Q401 364 386 368 Q371 372 356 372 Q339 372 315 364 Q291 356 274 344 L274 142 Q292 132 314 126 Q336 120 356 120 Z " />
<glyph glyph-name="ydieresis" unicode="&#xff;" horiz-adv-x="651" d="M399 -119 Q390 -142 378 -160.5 Q366 -179 349 -192.5 Q332 -206 308 -213.5 Q284 -221 251 -221 Q244 -221 227 -220 Q210 -219 187.5 -216 Q165 -213 139.5 -208 Q114 -203 90 -194 L112 -69 Q117 -70 127 -71.5 Q137 -73 148 -74.5 Q159 -76 168.5 -77 Q178 -78 182 -78 Q217 -79 231.5 -69.5 Q246 -60 257 -33 L277 19 L189 19 Q184 34 174.5 61.5 Q165 89 153 122 Q141 155 128.5 191 Q116 227 104 260.5 Q92 294 82 321 Q72 348 67 364 L18 364 L18 493 L207 493 L317 122 L321 122 Q322 127 328.5 146 Q335 165 343 191 Q351 217 360.5 246.5 Q370 276 378.5 302.5 Q387 329 393.5 348.5 Q400 368 402 374 L355 374 L355 493 L630 493 L630 374 L585 374 L399 -119 Z M495 611 Q495 582 475 562 Q455 542 425 542 Q396 542 376 562 Q356 582 356 611 Q356 640 376 660 Q396 680 425 680 Q455 680 475 660.5 Q495 641 495 611 Z M283 611 Q283 582 263 562 Q243 542 214 542 Q185 542 165 562 Q145 582 145 611 Q145 640 165 660 Q185 680 213 680 Q243 680 263 660.5 Q283 641 283 611 Z " />
<glyph glyph-name="Amacron" unicode="&#x100;" horiz-adv-x="794" d="M526 121 L504 192 L277 192 L254 121 L315 121 L315 0 L20 0 L20 121 L74 121 L284 690 L521 690 L719 121 L774 121 L774 0 L468 0 L468 121 L526 121 Z M206 862 L582 862 L582 749 L206 749 L206 862 Z M468 307 Q451 367 433 424 Q415 481 397 541 L393 541 Q388 523 379 494.5 Q370 466 359 433.5 Q348 401 337 367.5 Q326 334 317 307 L468 307 Z " />
<glyph glyph-name="amacron" unicode="&#x101;" horiz-adv-x="608" d="M518 120 L586 120 Q588 94 590 69 Q592 44 594 18 Q562 3 521 -4.5 Q480 -12 442 -12 Q406 -12 380 1 Q354 14 352 55 Q352 55 351 56 Q328 32 303.5 18 Q279 4 257 -2.5 Q235 -9 217 -10.5 Q199 -12 189 -12 Q141 -12 110.5 2.5 Q80 17 62 38.5 Q44 60 37.5 85.5 Q31 111 31 132 Q31 158 39 181.5 Q47 205 67 224 Q87 243 121 257 Q155 271 208 277 L341 289 L341 305 Q341 338 324.5 355.5 Q308 373 263 373 Q228 373 186 367 Q144 361 113 351 L85 463 Q107 472 134.5 479.5 Q162 487 191.5 492.5 Q221 498 251 500.5 Q281 503 310 503 Q358 503 396.5 494 Q435 485 462 464.5 Q489 444 503.5 410 Q518 376 518 327 L518 120 Z M101 689 L492 689 L492 575 L101 575 L101 689 Z M272 204 Q246 200 235 186 Q224 172 224 155 Q224 129 235.5 114.5 Q247 100 275 100 Q291 100 308 107.5 Q325 115 339 128 L339 213 L272 204 Z " />
<glyph glyph-name="Abreve" unicode="&#x102;" horiz-adv-x="794" d="M526 121 L504 192 L277 192 L254 121 L315 121 L315 0 L20 0 L20 121 L74 121 L284 690 L521 690 L719 121 L774 121 L774 0 L468 0 L468 121 L526 121 Z M399 742 Q367 742 339 753 Q311 764 286 783.5 Q261 803 239 829 Q217 855 198 885 L266 939 Q301 891 339 869.5 Q377 848 403 848 Q412 848 425 849 Q438 850 457 858 Q476 866 502 883.5 Q528 901 562 933 L611 885 Q586 844 558.5 816.5 Q531 789 503.5 772.5 Q476 756 449.5 749 Q423 742 399 742 Z M468 307 Q451 367 433 424 Q415 481 397 541 L393 541 Q388 523 379 494.5 Q370 466 359 433.5 Q348 401 337 367.5 Q326 334 317 307 L468 307 Z " />
<glyph glyph-name="abreve" unicode="&#x103;" horiz-adv-x="608" d="M518 120 L586 120 Q588 94 590 69 Q592 44 594 18 Q562 3 521 -4.5 Q480 -12 442 -12 Q406 -12 380 1 Q354 14 352 55 Q352 55 351 56 Q328 32 303.5 18 Q279 4 257 -2.5 Q235 -9 217 -10.5 Q199 -12 189 -12 Q141 -12 110.5 2.5 Q80 17 62 38.5 Q44 60 37.5 85.5 Q31 111 31 132 Q31 158 39 181.5 Q47 205 67 224 Q87 243 121 257 Q155 271 208 277 L341 289 L341 305 Q341 338 324.5 355.5 Q308 373 263 373 Q228 373 186 367 Q144 361 113 351 L85 463 Q107 472 134.5 479.5 Q162 487 191.5 492.5 Q221 498 251 500.5 Q281 503 310 503 Q358 503 396.5 494 Q435 485 462 464.5 Q489 444 503.5 410 Q518 376 518 327 L518 120 Z M298 549 Q266 549 238 560 Q210 571 185 590.5 Q160 610 138 636 Q116 662 97 692 L165 747 Q200 699 238 677.5 Q276 656 302 656 Q311 656 324 657 Q337 658 356 665.5 Q375 673 401 690.5 Q427 708 461 740 L510 692 Q485 651 457.5 623.5 Q430 596 402.5 579.5 Q375 563 348.5 556 Q322 549 298 549 Z M272 204 Q246 200 235 186 Q224 172 224 155 Q224 129 235.5 114.5 Q247 100 275 100 Q291 100 308 107.5 Q325 115 339 128 L339 213 L272 204 Z " />
<glyph glyph-name="Aogonek" unicode="&#x104;" horiz-adv-x="794" d="M526 121 L504 192 L277 192 L254 121 L315 121 L315 0 L20 0 L20 121 L74 121 L284 690 L521 690 L719 121 L774 121 L774 0 L644 0 Q624 -29 610.5 -60 Q597 -91 596 -114 Q596 -138 607.5 -151 Q619 -164 647 -164 Q668 -164 688.5 -160 Q709 -156 728 -151 L740 -204 Q710 -221 677 -229.5 Q644 -238 612 -238 Q555 -238 526 -214.5 Q497 -191 497 -149 Q497 -121 512 -81.5 Q527 -42 572 0 L468 0 L468 121 L526 121 Z M468 307 Q451 367 433 424 Q415 481 397 541 L393 541 Q388 523 379 494.5 Q370 466 359 433.5 Q348 401 337 367.5 Q326 334 317 307 L468 307 Z " />
<glyph glyph-name="aogonek" unicode="&#x105;" horiz-adv-x="608" d="M518 120 L586 120 Q588 94 590 69 Q592 44 594 18 Q574 8 550 2 Q526 -4 501 -8 Q485 -34 475 -59.5 Q465 -85 464 -105 Q464 -129 475.5 -142 Q487 -155 515 -155 Q536 -155 556.5 -151 Q577 -147 596 -142 L608 -195 Q578 -212 545 -220.5 Q512 -229 480 -229 Q423 -229 394 -205.5 Q365 -182 365 -140 Q365 -115 376 -81.5 Q387 -48 420 -11 Q392 -8 373 6 Q354 20 352 55 Q352 55 351 56 Q328 32 303.5 18 Q279 4 257 -2.5 Q235 -9 217 -10.5 Q199 -12 189 -12 Q141 -12 110.5 2.5 Q80 17 62 38.5 Q44 60 37.5 85.5 Q31 111 31 132 Q31 158 39 181.5 Q47 205 67 224 Q87 243 121 257 Q155 271 208 277 L341 289 L341 305 Q341 338 324.5 355.5 Q308 373 263 373 Q228 373 186 367 Q144 361 113 351 L85 463 Q107 472 134.5 479.5 Q162 487 191.5 492.5 Q221 498 251 500.5 Q281 503 310 503 Q358 503 396.5 494 Q435 485 462 464.5 Q489 444 503.5 410 Q518 376 518 327 L518 120 Z M272 204 Q246 200 235 186 Q224 172 224 155 Q224 129 235.5 114.5 Q247 100 275 100 Q291 100 308 107.5 Q325 115 339 128 L339 213 L272 204 Z " />
<glyph glyph-name="Cacute" unicode="&#x106;" horiz-adv-x="668" d="M254 350 Q254 288 265.5 247.5 Q277 207 300.5 183 Q324 159 360 149.5 Q396 140 445 140 Q457 140 476 141.5 Q495 143 517 145.5 Q539 148 562 151.5 Q585 155 603 160 L631 28 Q607 19 578 11.5 Q549 4 518.5 -1 Q488 -6 457 -8.5 Q426 -11 398 -11 Q293 -11 225.5 18 Q158 47 119 96.5 Q80 146 65 210 Q50 274 50 345 Q50 410 65 474.5 Q80 539 120 590.5 Q160 642 230 674 Q300 706 411 706 Q465 706 512 698.5 Q559 691 602 678 L602 456 L469 456 L469 557 Q455 560 441.5 561 Q428 562 414 562 Q369 562 338.5 547 Q308 532 289.5 504.5 Q271 477 262.5 437.5 Q254 398 254 350 Z M366 742 L310 805 L479 981 L566 882 L366 742 Z " />
<glyph glyph-name="cacute" unicode="&#x107;" horiz-adv-x="529" d="M306 506 Q349 506 393 499.5 Q437 493 475 479 L475 312 L353 312 L353 372 Q346 374 337 374 Q328 374 323 374 Q298 374 280.5 364.5 Q263 355 251.5 338.5 Q240 322 235 299 Q230 276 230 250 Q230 212 237.5 187.5 Q245 163 258.5 149 Q272 135 290.5 129 Q309 123 331 123 Q362 123 399 129 Q436 135 467 145 Q475 118 483.5 88 Q492 58 500 30 Q459 10 405.5 0 Q352 -10 299 -10 Q220 -10 169.5 10.5 Q119 31 89.5 66 Q60 101 49 147 Q38 193 38 244 Q38 289 49 336 Q60 383 89.5 420.5 Q119 458 171 482 Q223 506 306 506 Z M226 530 L170 593 L339 769 L426 670 L226 530 Z " />
<glyph glyph-name="Ccircumflex" unicode="&#x108;" horiz-adv-x="668" d="M254 350 Q254 288 265.5 247.5 Q277 207 300.5 183 Q324 159 360 149.5 Q396 140 445 140 Q457 140 476 141.5 Q495 143 517 145.5 Q539 148 562 151.5 Q585 155 603 160 L631 28 Q607 19 578 11.5 Q549 4 518.5 -1 Q488 -6 457 -8.5 Q426 -11 398 -11 Q293 -11 225.5 18 Q158 47 119 96.5 Q80 146 65 210 Q50 274 50 345 Q50 410 65 474.5 Q80 539 120 590.5 Q160 642 230 674 Q300 706 411 706 Q465 706 512 698.5 Q559 691 602 678 L602 456 L469 456 L469 557 Q455 560 441.5 561 Q428 562 414 562 Q369 562 338.5 547 Q308 532 289.5 504.5 Q271 477 262.5 437.5 Q254 398 254 350 Z M553 742 L380 843 L210 743 L168 793 L324 947 L438 947 L598 794 L553 742 Z " />
<glyph glyph-name="ccircumflex" unicode="&#x109;" horiz-adv-x="529" d="M306 506 Q349 506 393 499.5 Q437 493 475 479 L475 312 L353 312 L353 372 Q346 374 337 374 Q328 374 323 374 Q298 374 280.5 364.5 Q263 355 251.5 338.5 Q240 322 235 299 Q230 276 230 250 Q230 212 237.5 187.5 Q245 163 258.5 149 Q272 135 290.5 129 Q309 123 331 123 Q362 123 399 129 Q436 135 467 145 Q475 118 483.5 88 Q492 58 500 30 Q459 10 405.5 0 Q352 -10 299 -10 Q220 -10 169.5 10.5 Q119 31 89.5 66 Q60 101 49 147 Q38 193 38 244 Q38 289 49 336 Q60 383 89.5 420.5 Q119 458 171 482 Q223 506 306 506 Z M457 528 L284 629 L113 529 L71 579 L227 735 L342 735 L501 580 L457 528 Z " />
<glyph glyph-name="Cdotaccent" unicode="&#x10a;" horiz-adv-x="668" d="M254 350 Q254 288 265.5 247.5 Q277 207 300.5 183 Q324 159 360 149.5 Q396 140 445 140 Q457 140 476 141.5 Q495 143 517 145.5 Q539 148 562 151.5 Q585 155 603 160 L631 28 Q607 19 578 11.5 Q549 4 518.5 -1 Q488 -6 457 -8.5 Q426 -11 398 -11 Q293 -11 225.5 18 Q158 47 119 96.5 Q80 146 65 210 Q50 274 50 345 Q50 410 65 474.5 Q80 539 120 590.5 Q160 642 230 674 Q300 706 411 706 Q465 706 512 698.5 Q559 691 602 678 L602 456 L469 456 L469 557 Q455 560 441.5 561 Q428 562 414 562 Q369 562 338.5 547 Q308 532 289.5 504.5 Q271 477 262.5 437.5 Q254 398 254 350 Z M497 854 Q497 831 488.5 811.5 Q480 792 465 777 Q450 762 430 753.5 Q410 745 388 745 Q365 745 345.5 753.5 Q326 762 311.5 777 Q297 792 288.5 811.5 Q280 831 280 854 Q280 876 288.5 896 Q297 916 311.5 931 Q326 946 345.5 954.5 Q365 963 388 963 Q410 963 430 954.5 Q450 946 465 931 Q480 916 488.5 896 Q497 876 497 854 Z " />
<glyph glyph-name="cdotaccent" unicode="&#x10b;" horiz-adv-x="529" d="M306 506 Q349 506 393 499.5 Q437 493 475 479 L475 312 L353 312 L353 372 Q346 374 337 374 Q328 374 323 374 Q298 374 280.5 364.5 Q263 355 251.5 338.5 Q240 322 235 299 Q230 276 230 250 Q230 212 237.5 187.5 Q245 163 258.5 149 Q272 135 290.5 129 Q309 123 331 123 Q362 123 399 129 Q436 135 467 145 Q475 118 483.5 88 Q492 58 500 30 Q459 10 405.5 0 Q352 -10 299 -10 Q220 -10 169.5 10.5 Q119 31 89.5 66 Q60 101 49 147 Q38 193 38 244 Q38 289 49 336 Q60 383 89.5 420.5 Q119 458 171 482 Q223 506 306 506 Z M404 654 Q404 632 396.5 613 Q389 594 375.5 579.5 Q362 565 344.5 557 Q327 549 307 549 Q265 549 237.5 579.5 Q210 610 210 654 Q210 698 237.5 728.5 Q265 759 307 759 Q327 759 344.5 750.5 Q362 742 375.5 728 Q389 714 396.5 695 Q404 676 404 654 Z " />
<glyph glyph-name="Ccaron" unicode="&#x10c;" horiz-adv-x="668" d="M254 350 Q254 288 265.5 247.5 Q277 207 300.5 183 Q324 159 360 149.5 Q396 140 445 140 Q457 140 476 141.5 Q495 143 517 145.5 Q539 148 562 151.5 Q585 155 603 160 L631 28 Q607 19 578 11.5 Q549 4 518.5 -1 Q488 -6 457 -8.5 Q426 -11 398 -11 Q293 -11 225.5 18 Q158 47 119 96.5 Q80 146 65 210 Q50 274 50 345 Q50 410 65 474.5 Q80 539 120 590.5 Q160 642 230 674 Q300 706 411 706 Q465 706 512 698.5 Q559 691 602 678 L602 456 L469 456 L469 557 Q455 560 441.5 561 Q428 562 414 562 Q369 562 338.5 547 Q308 532 289.5 504.5 Q271 477 262.5 437.5 Q254 398 254 350 Z M595 899 L436 745 L322 745 L165 899 L207 949 L378 849 L551 950 L595 899 Z " />
<glyph glyph-name="ccaron" unicode="&#x10d;" horiz-adv-x="529" d="M306 506 Q349 506 393 499.5 Q437 493 475 479 L475 312 L353 312 L353 372 Q346 374 337 374 Q328 374 323 374 Q298 374 280.5 364.5 Q263 355 251.5 338.5 Q240 322 235 299 Q230 276 230 250 Q230 212 237.5 187.5 Q245 163 258.5 149 Q272 135 290.5 129 Q309 123 331 123 Q362 123 399 129 Q436 135 467 145 Q475 118 483.5 88 Q492 58 500 30 Q459 10 405.5 0 Q352 -10 299 -10 Q220 -10 169.5 10.5 Q119 31 89.5 66 Q60 101 49 147 Q38 193 38 244 Q38 289 49 336 Q60 383 89.5 420.5 Q119 458 171 482 Q223 506 306 506 Z M513 699 L354 543 L239 543 L83 699 L125 749 L296 649 L469 750 L513 699 Z " />
<glyph glyph-name="Dcaron" unicode="&#x10e;" horiz-adv-x="784" d="M44 0 L44 122 L119 122 L119 568 L49 568 L49 691 L407 691 Q504 691 567.5 663.5 Q631 636 668 589 Q705 542 719.5 479.5 Q734 417 734 347 Q734 278 717.5 215.5 Q701 153 662 105 Q623 57 560 28.5 Q497 0 404 0 L44 0 Z M313 568 L313 122 L384 122 Q415 122 441.5 135.5 Q468 149 487.5 176.5 Q507 204 518 246 Q529 288 529 344 Q529 460 489 514 Q449 568 381 568 L313 568 Z M570 899 L411 745 L297 745 L140 899 L182 949 L353 849 L526 950 L570 899 Z " />
<glyph glyph-name="dcaron" unicode="&#x10f;" horiz-adv-x="838" d="M650 676 Q650 706 674 728 Q698 750 736 750 Q759 750 775.5 742 Q792 734 802.5 721.5 Q813 709 818 692.5 Q823 676 823 659 Q823 632 811.5 605 Q800 578 782 554.5 Q764 531 741 512.5 Q718 494 693 482 L651 533 Q674 550 688 568.5 Q702 587 705 610 Q676 615 663 632.5 Q650 650 650 676 Z M400 41 Q383 27 362.5 17.5 Q342 8 322 2 Q302 -4 283.5 -7 Q265 -10 252 -10 Q191 -10 150 9 Q109 28 84.5 61 Q60 94 50 139 Q40 184 40 235 Q40 293 51.5 343 Q63 393 89 429 Q115 465 157 485.5 Q199 506 261 506 Q272 506 288 504.5 Q304 503 321.5 500 Q339 497 357.5 492 Q376 487 392 480 L392 602 L324 602 L324 720 L580 720 L580 118 L642 118 L642 0 L403 0 L403 40 L400 41 Z M309 374 Q296 374 281.5 370 Q267 366 255 352 Q243 338 235.5 311 Q228 284 228 239 Q228 200 235 176.5 Q242 153 253 140.5 Q264 128 279 124 Q294 120 309 120 Q328 120 351 128 Q374 136 391 148 L391 352 Q373 362 351 368 Q329 374 309 374 Z " />
<glyph glyph-name="dcroat" unicode="&#x111;" horiz-adv-x="666" d="M399 41 Q382 27 362 17.5 Q342 8 322 2 Q302 -4 283.5 -7 Q265 -10 252 -10 Q191 -10 150 8 Q109 26 84.5 57.5 Q60 89 50 132.5 Q40 176 40 227 Q40 282 51.5 328 Q63 374 89 407 Q115 440 157 458.5 Q199 477 261 477 Q272 477 288 475 Q304 473 322 469 Q340 465 358.5 459.5 Q377 454 392 447 L392 510 L274 510 L274 568 L392 568 L392 611 L324 611 L324 720 L580 720 L580 568 L639 568 L639 510 L580 510 L580 117 L642 117 L642 0 L402 0 L402 40 L399 41 Z M309 349 Q296 349 281 345 Q266 341 254 328.5 Q242 316 234.5 292.5 Q227 269 228 231 Q229 192 236 169.5 Q243 147 254 135.5 Q265 124 279.5 121.5 Q294 119 309 119 Q326 119 350 127.5 Q374 136 391 147 L391 326 Q373 337 351 343 Q329 349 309 349 Z " />
<glyph glyph-name="Emacron" unicode="&#x112;" horiz-adv-x="713" d="M44 0 L44 123 L116 123 L116 568 L45 568 L45 690 L666 690 L666 453 L534 453 L534 568 L309 568 L309 411 L521 419 L521 292 L309 298 L309 123 L544 123 L544 246 L677 246 L677 0 L44 0 Z M199 862 L575 862 L575 749 L199 749 L199 862 Z " />
<glyph glyph-name="emacron" unicode="&#x113;" horiz-adv-x="572" d="M301 380 Q264 380 248 354 Q232 328 231 295 L364 295 Q364 313 361 328.5 Q358 344 351 355.5 Q344 367 332 373.5 Q320 380 301 380 Z M300 505 Q372 505 417 483 Q462 461 488 426.5 Q514 392 523.5 348 Q533 304 533 261 L533 220 L228 220 Q228 166 253.5 143.5 Q279 121 337 121 Q373 121 411.5 128.5 Q450 136 486 149 L522 39 Q470 11 411 0 Q352 -11 301 -11 Q221 -11 170.5 10.5 Q120 32 91 68 Q62 104 51 150 Q40 196 40 245 Q40 292 53 338.5 Q66 385 96 422 Q126 459 176 482 Q226 505 300 505 Z M96 689 L487 689 L487 575 L96 575 L96 689 Z " />
<glyph glyph-name="Ebreve" unicode="&#x114;" horiz-adv-x="713" d="M44 0 L44 123 L116 123 L116 568 L45 568 L45 690 L666 690 L666 453 L534 453 L534 568 L309 568 L309 411 L521 419 L521 292 L309 298 L309 123 L544 123 L544 246 L677 246 L677 0 L44 0 Z M377 742 Q345 742 317 753 Q289 764 264 783.5 Q239 803 217 829 Q195 855 176 885 L244 939 Q279 891 317 869.5 Q355 848 381 848 Q390 848 403 849 Q416 850 435 858 Q454 866 480 883.5 Q506 901 540 933 L589 885 Q564 844 536.5 816.5 Q509 789 481.5 772.5 Q454 756 427.5 749 Q401 742 377 742 Z " />
<glyph glyph-name="ebreve" unicode="&#x115;" horiz-adv-x="572" d="M301 380 Q264 380 248 354 Q232 328 231 295 L364 295 Q364 313 361 328.5 Q358 344 351 355.5 Q344 367 332 373.5 Q320 380 301 380 Z M300 505 Q372 505 417 483 Q462 461 488 426.5 Q514 392 523.5 348 Q533 304 533 261 L533 220 L228 220 Q228 166 253.5 143.5 Q279 121 337 121 Q373 121 411.5 128.5 Q450 136 486 149 L522 39 Q470 11 411 0 Q352 -11 301 -11 Q221 -11 170.5 10.5 Q120 32 91 68 Q62 104 51 150 Q40 196 40 245 Q40 292 53 338.5 Q66 385 96 422 Q126 459 176 482 Q226 505 300 505 Z M298 549 Q266 549 238 560 Q210 571 185 590.5 Q160 610 138 636 Q116 662 97 692 L165 747 Q200 699 238 677.5 Q276 656 302 656 Q311 656 324 657 Q337 658 356 665.5 Q375 673 401 690.5 Q427 708 461 740 L510 692 Q485 651 457.5 623.5 Q430 596 402.5 579.5 Q375 563 348.5 556 Q322 549 298 549 Z " />
<glyph glyph-name="Edotaccent" unicode="&#x116;" horiz-adv-x="713" d="M44 0 L44 123 L116 123 L116 568 L45 568 L45 690 L666 690 L666 453 L534 453 L534 568 L309 568 L309 411 L521 419 L521 292 L309 298 L309 123 L544 123 L544 246 L677 246 L677 0 L44 0 Z M478 848 Q478 825 469.5 805.5 Q461 786 446 771 Q431 756 411 747.5 Q391 739 369 739 Q346 739 326.5 747.5 Q307 756 292.5 771 Q278 786 269.5 805.5 Q261 825 261 848 Q261 870 269.5 890 Q278 910 292.5 925 Q307 940 326.5 948.5 Q346 957 369 957 Q391 957 411 948.5 Q431 940 446 925 Q461 910 469.5 890 Q478 870 478 848 Z " />
<glyph glyph-name="edotaccent" unicode="&#x117;" horiz-adv-x="572" d="M301 380 Q264 380 248 354 Q232 328 231 295 L364 295 Q364 313 361 328.5 Q358 344 351 355.5 Q344 367 332 373.5 Q320 380 301 380 Z M300 505 Q372 505 417 483 Q462 461 488 426.5 Q514 392 523.5 348 Q533 304 533 261 L533 220 L228 220 Q228 166 253.5 143.5 Q279 121 337 121 Q373 121 411.5 128.5 Q450 136 486 149 L522 39 Q470 11 411 0 Q352 -11 301 -11 Q221 -11 170.5 10.5 Q120 32 91 68 Q62 104 51 150 Q40 196 40 245 Q40 292 53 338.5 Q66 385 96 422 Q126 459 176 482 Q226 505 300 505 Z M422 654 Q422 631 413.5 611.5 Q405 592 390 577 Q375 562 355 553.5 Q335 545 313 545 Q290 545 270.5 553.5 Q251 562 236.5 577 Q222 592 213.5 611.5 Q205 631 205 654 Q205 676 213.5 696 Q222 716 236.5 731 Q251 746 270.5 754.5 Q290 763 313 763 Q335 763 355 754.5 Q375 746 390 731 Q405 716 413.5 696 Q422 676 422 654 Z " />
<glyph glyph-name="Eogonek" unicode="&#x118;" horiz-adv-x="713" d="M616 0 Q597 -28 584.5 -57 Q572 -86 571 -109 Q571 -133 582.5 -146 Q594 -159 622 -159 Q643 -159 663.5 -155 Q684 -151 703 -146 L715 -199 Q685 -216 652 -224.5 Q619 -233 587 -233 Q530 -233 501 -209.5 Q472 -186 472 -144 Q472 -117 486 -79.5 Q500 -42 542 0 L44 0 L44 123 L116 123 L116 568 L45 568 L45 690 L666 690 L666 453 L534 453 L534 568 L309 568 L309 411 L521 419 L521 292 L309 298 L309 123 L544 123 L544 246 L677 246 L677 0 L616 0 Z " />
<glyph glyph-name="eogonek" unicode="&#x119;" horiz-adv-x="572" d="M300 505 Q372 505 417 483 Q462 461 488 426.5 Q514 392 523.5 348 Q533 304 533 261 L533 220 L228 220 Q228 166 253.5 143.5 Q279 121 337 121 Q373 121 411.5 128.5 Q450 136 486 149 L522 39 Q491 23 457 12 Q443 -12 434 -35.5 Q425 -59 424 -78 Q424 -102 435.5 -115 Q447 -128 475 -128 Q496 -128 516.5 -124 Q537 -120 556 -115 L568 -168 Q538 -185 505 -193.5 Q472 -202 440 -202 Q383 -202 354 -178.5 Q325 -155 325 -113 Q325 -93 332.5 -65.5 Q340 -38 362 -8 Q330 -11 301 -11 Q221 -11 170.5 10.5 Q120 32 91 68 Q62 104 51 150 Q40 196 40 245 Q40 292 53 338.5 Q66 385 96 422 Q126 459 176 482 Q226 505 300 505 Z M301 380 Q264 380 248 354 Q232 328 231 295 L364 295 Q364 313 361 328.5 Q358 344 351 355.5 Q344 367 332 373.5 Q320 380 301 380 Z " />
<glyph glyph-name="Ecaron" unicode="&#x11a;" horiz-adv-x="713" d="M44 0 L44 123 L116 123 L116 568 L45 568 L45 690 L666 690 L666 453 L534 453 L534 568 L309 568 L309 411 L521 419 L521 292 L309 298 L309 123 L544 123 L544 246 L677 246 L677 0 L44 0 Z M601 899 L442 745 L328 745 L171 899 L213 949 L384 849 L557 950 L601 899 Z " />
<glyph glyph-name="ecaron" unicode="&#x11b;" horiz-adv-x="572" d="M301 380 Q264 380 248 354 Q232 328 231 295 L364 295 Q364 313 361 328.5 Q358 344 351 355.5 Q344 367 332 373.5 Q320 380 301 380 Z M300 505 Q372 505 417 483 Q462 461 488 426.5 Q514 392 523.5 348 Q533 304 533 261 L533 220 L228 220 Q228 166 253.5 143.5 Q279 121 337 121 Q373 121 411.5 128.5 Q450 136 486 149 L522 39 Q470 11 411 0 Q352 -11 301 -11 Q221 -11 170.5 10.5 Q120 32 91 68 Q62 104 51 150 Q40 196 40 245 Q40 292 53 338.5 Q66 385 96 422 Q126 459 176 482 Q226 505 300 505 Z M504 699 L345 543 L230 543 L74 699 L116 749 L287 649 L460 750 L504 699 Z " />
<glyph glyph-name="Gcircumflex" unicode="&#x11c;" horiz-adv-x="737" d="M420 706 Q474 706 527.5 698.5 Q581 691 624 678 L624 462 L491 462 L491 556 Q477 559 460 561 Q443 563 428 563 Q381 563 348 547.5 Q315 532 294 504.5 Q273 477 263.5 437.5 Q254 398 254 350 Q254 238 290 187.5 Q326 137 406 137 Q423 137 442.5 139 Q462 141 479 145 L479 260 L405 260 L405 371 L700 371 L700 260 L652 260 L652 30 Q589 7 522 -2 Q455 -11 398 -11 Q293 -11 225.5 19 Q158 49 119 98.5 Q80 148 65 212 Q50 276 50 345 Q50 408 65 472.5 Q80 537 121 589 Q162 641 234 673.5 Q306 706 420 706 Z M577 742 L404 843 L234 743 L192 793 L348 947 L462 947 L622 794 L577 742 Z " />
<glyph glyph-name="gcircumflex" unicode="&#x11d;" horiz-adv-x="631" d="M534 406 Q545 390 551 365 Q557 340 557 323 Q557 279 537.5 246.5 Q518 214 484.5 192.5 Q451 171 407 160 Q363 149 314 148 L255 147 Q206 147 206 118 Q206 98 237 98 L389 98 Q436 98 474.5 90.5 Q513 83 541 66.5 Q569 50 584 23 Q599 -4 599 -43 Q599 -75 584.5 -106.5 Q570 -138 533 -163.5 Q496 -189 434 -204.5 Q372 -220 278 -220 Q206 -220 158.5 -209.5 Q111 -199 83.5 -182 Q56 -165 44.5 -143 Q33 -121 33 -97 Q33 -59 50.5 -29.5 Q68 0 96 17 Q70 25 56.5 45 Q43 65 43 92 Q43 124 65 148.5 Q87 173 125 187 Q94 201 74 233.5 Q54 266 54 316 Q54 366 75 401.5 Q96 437 130.5 460 Q165 483 210.5 493.5 Q256 504 304 504 Q337 504 366.5 500.5 Q396 497 416 492 L603 492 L603 410 L539 410 L534 406 Z M249 -7 Q235 -13 226 -26 Q217 -39 217 -50 Q217 -70 236 -84 Q255 -98 304 -98 Q349 -98 376.5 -84 Q404 -70 404 -49 Q404 -30 389.5 -18.5 Q375 -7 346 -7 L249 -7 Z M368 324 Q368 348 353.5 367 Q339 386 304 386 Q273 386 258 367.5 Q243 349 243 323 Q243 295 258 279.5 Q273 264 302 264 Q330 264 349 278.5 Q368 293 368 324 Z M472 528 L299 629 L128 529 L86 579 L242 735 L357 735 L516 580 L472 528 Z " />
<glyph glyph-name="Gbreve" unicode="&#x11e;" horiz-adv-x="737" d="M420 706 Q474 706 527.5 698.5 Q581 691 624 678 L624 462 L491 462 L491 556 Q477 559 460 561 Q443 563 428 563 Q381 563 348 547.5 Q315 532 294 504.5 Q273 477 263.5 437.5 Q254 398 254 350 Q254 238 290 187.5 Q326 137 406 137 Q423 137 442.5 139 Q462 141 479 145 L479 260 L405 260 L405 371 L700 371 L700 260 L652 260 L652 30 Q589 7 522 -2 Q455 -11 398 -11 Q293 -11 225.5 19 Q158 49 119 98.5 Q80 148 65 212 Q50 276 50 345 Q50 408 65 472.5 Q80 537 121 589 Q162 641 234 673.5 Q306 706 420 706 Z M388 742 Q356 742 328 753 Q300 764 275 783.5 Q250 803 228 829 Q206 855 187 885 L255 939 Q290 891 328 869.5 Q366 848 392 848 Q401 848 414 849 Q427 850 446 858 Q465 866 491 883.5 Q517 901 551 933 L600 885 Q575 844 547.5 816.5 Q520 789 492.5 772.5 Q465 756 438.5 749 Q412 742 388 742 Z " />
<glyph glyph-name="gbreve" unicode="&#x11f;" horiz-adv-x="631" d="M534 406 Q545 390 551 365 Q557 340 557 323 Q557 279 537.5 246.5 Q518 214 484.5 192.5 Q451 171 407 160 Q363 149 314 148 L255 147 Q206 147 206 118 Q206 98 237 98 L389 98 Q436 98 474.5 90.5 Q513 83 541 66.5 Q569 50 584 23 Q599 -4 599 -43 Q599 -75 584.5 -106.5 Q570 -138 533 -163.5 Q496 -189 434 -204.5 Q372 -220 278 -220 Q206 -220 158.5 -209.5 Q111 -199 83.5 -182 Q56 -165 44.5 -143 Q33 -121 33 -97 Q33 -59 50.5 -29.5 Q68 0 96 17 Q70 25 56.5 45 Q43 65 43 92 Q43 124 65 148.5 Q87 173 125 187 Q94 201 74 233.5 Q54 266 54 316 Q54 366 75 401.5 Q96 437 130.5 460 Q165 483 210.5 493.5 Q256 504 304 504 Q337 504 366.5 500.5 Q396 497 416 492 L603 492 L603 410 L539 410 L534 406 Z M249 -7 Q235 -13 226 -26 Q217 -39 217 -50 Q217 -70 236 -84 Q255 -98 304 -98 Q349 -98 376.5 -84 Q404 -70 404 -49 Q404 -30 389.5 -18.5 Q375 -7 346 -7 L249 -7 Z M368 324 Q368 348 353.5 367 Q339 386 304 386 Q273 386 258 367.5 Q243 349 243 323 Q243 295 258 279.5 Q273 264 302 264 Q330 264 349 278.5 Q368 293 368 324 Z M301 549 Q269 549 241 560 Q213 571 188 590.5 Q163 610 141 636 Q119 662 100 692 L168 747 Q203 699 241 677.5 Q279 656 305 656 Q314 656 327 657 Q340 658 359 665.5 Q378 673 404 690.5 Q430 708 464 740 L513 692 Q488 651 460.5 623.5 Q433 596 405.5 579.5 Q378 563 351.5 556 Q325 549 301 549 Z " />
<glyph glyph-name="Gdotaccent" unicode="&#x120;" horiz-adv-x="737" d="M420 706 Q474 706 527.5 698.5 Q581 691 624 678 L624 462 L491 462 L491 556 Q477 559 460 561 Q443 563 428 563 Q381 563 348 547.5 Q315 532 294 504.5 Q273 477 263.5 437.5 Q254 398 254 350 Q254 238 290 187.5 Q326 137 406 137 Q423 137 442.5 139 Q462 141 479 145 L479 260 L405 260 L405 371 L700 371 L700 260 L652 260 L652 30 Q589 7 522 -2 Q455 -11 398 -11 Q293 -11 225.5 19 Q158 49 119 98.5 Q80 148 65 212 Q50 276 50 345 Q50 408 65 472.5 Q80 537 121 589 Q162 641 234 673.5 Q306 706 420 706 Z M529 853 Q529 830 520.5 810.5 Q512 791 497 776 Q482 761 462 752.5 Q442 744 420 744 Q397 744 377.5 752.5 Q358 761 343.5 776 Q329 791 320.5 810.5 Q312 830 312 853 Q312 875 320.5 895 Q329 915 343.5 930 Q358 945 377.5 953.5 Q397 962 420 962 Q442 962 462 953.5 Q482 945 497 930 Q512 915 520.5 895 Q529 875 529 853 Z " />
<glyph glyph-name="gdotaccent" unicode="&#x121;" horiz-adv-x="631" d="M534 406 Q545 390 551 365 Q557 340 557 323 Q557 279 537.5 246.5 Q518 214 484.5 192.5 Q451 171 407 160 Q363 149 314 148 L255 147 Q206 147 206 118 Q206 98 237 98 L389 98 Q436 98 474.5 90.5 Q513 83 541 66.5 Q569 50 584 23 Q599 -4 599 -43 Q599 -75 584.5 -106.5 Q570 -138 533 -163.5 Q496 -189 434 -204.5 Q372 -220 278 -220 Q206 -220 158.5 -209.5 Q111 -199 83.5 -182 Q56 -165 44.5 -143 Q33 -121 33 -97 Q33 -59 50.5 -29.5 Q68 0 96 17 Q70 25 56.5 45 Q43 65 43 92 Q43 124 65 148.5 Q87 173 125 187 Q94 201 74 233.5 Q54 266 54 316 Q54 366 75 401.5 Q96 437 130.5 460 Q165 483 210.5 493.5 Q256 504 304 504 Q337 504 366.5 500.5 Q396 497 416 492 L603 492 L603 410 L539 410 L534 406 Z M249 -7 Q235 -13 226 -26 Q217 -39 217 -50 Q217 -70 236 -84 Q255 -98 304 -98 Q349 -98 376.5 -84 Q404 -70 404 -49 Q404 -30 389.5 -18.5 Q375 -7 346 -7 L249 -7 Z M368 324 Q368 348 353.5 367 Q339 386 304 386 Q273 386 258 367.5 Q243 349 243 323 Q243 295 258 279.5 Q273 264 302 264 Q330 264 349 278.5 Q368 293 368 324 Z M434 654 Q434 631 425.5 611.5 Q417 592 402 577 Q387 562 367 553.5 Q347 545 325 545 Q302 545 282.5 553.5 Q263 562 248.5 577 Q234 592 225.5 611.5 Q217 631 217 654 Q217 676 225.5 696 Q234 716 248.5 731 Q263 746 282.5 754.5 Q302 763 325 763 Q347 763 367 754.5 Q387 746 402 731 Q417 716 425.5 696 Q434 676 434 654 Z " />
<glyph glyph-name="Gcommaaccent" unicode="&#x122;" horiz-adv-x="737" d="M420 706 Q474 706 527.5 698.5 Q581 691 624 678 L624 462 L491 462 L491 556 Q477 559 460 561 Q443 563 428 563 Q381 563 348 547.5 Q315 532 294 504.5 Q273 477 263.5 437.5 Q254 398 254 350 Q254 238 290 187.5 Q326 137 406 137 Q423 137 442.5 139 Q462 141 479 145 L479 260 L405 260 L405 371 L700 371 L700 260 L652 260 L652 30 Q589 7 522 -2 Q455 -11 398 -11 Q293 -11 225.5 19 Q158 49 119 98.5 Q80 148 65 212 Q50 276 50 345 Q50 408 65 472.5 Q80 537 121 589 Q162 641 234 673.5 Q306 706 420 706 Z M318 -116 Q318 -86 342 -64 Q366 -42 404 -42 Q427 -42 443.5 -50 Q460 -58 470.5 -70.5 Q481 -83 486 -99.5 Q491 -116 491 -133 Q491 -160 479.5 -187 Q468 -214 450 -237.5 Q432 -261 409 -279.5 Q386 -298 361 -310 L319 -259 Q342 -242 356 -223.5 Q370 -205 373 -182 Q344 -177 331 -159.5 Q318 -142 318 -116 Z " />
<glyph glyph-name="gcommaaccent" unicode="&#x123;" horiz-adv-x="631" d="M420 625 Q420 593 394.5 569.5 Q369 546 327 546 Q302 546 284.5 554.5 Q267 563 255.5 576.5 Q244 590 239 607.5 Q234 625 234 643 Q234 673 246 701.5 Q258 730 277.5 754.5 Q297 779 322 799 Q347 819 374 832 Q385 818 396 805 Q407 792 418 778 Q393 758 378.5 740 Q364 722 361 696 Q391 691 405.5 672.5 Q420 654 420 625 Z M534 406 Q545 390 551 365 Q557 340 557 323 Q557 279 537.5 246.5 Q518 214 484.5 192.5 Q451 171 407 160 Q363 149 314 148 L255 147 Q206 147 206 118 Q206 98 237 98 L389 98 Q436 98 474.5 90.5 Q513 83 541 66.5 Q569 50 584 23 Q599 -4 599 -43 Q599 -75 584.5 -106.5 Q570 -138 533 -163.5 Q496 -189 434 -204.5 Q372 -220 278 -220 Q206 -220 158.5 -209.5 Q111 -199 83.5 -182 Q56 -165 44.5 -143 Q33 -121 33 -97 Q33 -59 50.5 -29.5 Q68 0 96 17 Q70 25 56.5 45 Q43 65 43 92 Q43 124 65 148.5 Q87 173 125 187 Q94 201 74 233.5 Q54 266 54 316 Q54 366 75 401.5 Q96 437 130.5 460 Q165 483 210.5 493.5 Q256 504 304 504 Q337 504 366.5 500.5 Q396 497 416 492 L603 492 L603 410 L539 410 L534 406 Z M249 -7 Q235 -13 226 -26 Q217 -39 217 -50 Q217 -70 236 -84 Q255 -98 304 -98 Q349 -98 376.5 -84 Q404 -70 404 -49 Q404 -30 389.5 -18.5 Q375 -7 346 -7 L249 -7 Z M368 324 Q368 348 353.5 367 Q339 386 304 386 Q273 386 258 367.5 Q243 349 243 323 Q243 295 258 279.5 Q273 264 302 264 Q330 264 349 278.5 Q368 293 368 324 Z " />
<glyph glyph-name="Hcircumflex" unicode="&#x124;" horiz-adv-x="856" d="M484 0 L484 122 L547 122 L547 298 L310 298 L310 122 L373 122 L373 0 L44 0 L44 122 L118 122 L118 568 L44 568 L44 690 L373 690 L373 568 L310 568 L310 412 L547 412 L547 568 L484 568 L484 690 L812 690 L812 568 L740 568 L740 122 L812 122 L812 0 L484 0 Z M597 742 L424 843 L254 743 L212 793 L368 947 L482 947 L642 794 L597 742 Z " />
<glyph glyph-name="hcircumflex" unicode="&#x125;" horiz-adv-x="689" d="M81 0 L81 602 L20 602 L20 719 L270 719 L270 448 Q308 476 348.5 490.5 Q389 505 428 505 Q476 505 508.5 491 Q541 477 561 453 Q581 429 589.5 396.5 Q598 364 598 328 L598 124 L662 124 L662 13 Q632 2 597 -4.5 Q562 -11 533 -11 Q494 -11 469.5 -1.5 Q445 8 432 24 Q419 40 414.5 60.5 Q410 81 410 103 L410 290 Q410 329 395 345.5 Q380 362 349 362 Q331 362 309 353.5 Q287 345 270 332 L270 0 L81 0 Z M331 773 L158 874 L-12 774 L-54 824 L102 978 L216 978 L376 825 L331 773 Z " />
<glyph glyph-name="Hbar" unicode="&#x126;" horiz-adv-x="856" d="M484 0 L484 122 L547 122 L547 290 L310 290 L310 122 L373 122 L373 0 L44 0 L44 122 L118 122 L118 442 L43 442 L43 508 L118 508 L118 569 L44 569 L44 690 L373 690 L373 569 L310 569 L310 508 L547 508 L547 569 L484 569 L484 690 L812 690 L812 569 L740 569 L740 508 L812 508 L812 442 L740 442 L740 122 L812 122 L812 0 L484 0 Z M547 383 L547 442 L310 442 L310 383 L547 383 Z " />
<glyph glyph-name="hbar" unicode="&#x127;" horiz-adv-x="689" d="M26 498 L26 563 L81 563 L81 614 L20 614 L20 720 L271 720 L271 563 L424 563 L424 498 L271 498 L271 400 Q309 428 350 442 Q391 456 429 456 Q476 456 508.5 443.5 Q541 431 561.5 408 Q582 385 591 352.5 Q600 320 600 280 L600 125 L661 125 L661 14 Q631 1 597 -5.5 Q563 -12 534 -12 Q464 -12 437.5 16 Q411 44 411 99 L411 240 Q411 278 397.5 296 Q384 314 350 314 Q333 314 310.5 305.5 Q288 297 271 284 L271 0 L81 0 L81 498 L26 498 Z " />
<glyph glyph-name="Itilde" unicode="&#x128;" horiz-adv-x="475" d="M70 0 L70 122 L142 122 L142 568 L70 568 L70 691 L405 691 L405 568 L335 568 L335 122 L405 122 L405 0 L70 0 Z M330 749 Q303 749 275 755 Q247 761 221.5 768 Q196 775 173.5 781 Q151 787 134 787 L79 748 L27 786 Q48 846 77.5 869 Q107 892 143 892 Q167 892 192.5 886.5 Q218 881 243 874 Q268 867 292.5 861.5 Q317 856 338 856 L393 896 L443 858 Q407 749 330 749 Z " />
<glyph glyph-name="itilde" unicode="&#x129;" horiz-adv-x="395" d="M43 376 L43 493 L283 493 L283 125 L352 125 L352 14 Q323 1 285 -5.5 Q247 -12 218 -12 Q148 -12 121.5 16 Q95 44 95 99 L95 376 L43 376 Z M275 571 Q248 571 220 577 Q192 583 166.5 590 Q141 597 118.5 603 Q96 609 79 609 L24 570 L-28 608 Q-7 668 22.5 691 Q52 714 88 714 Q112 714 137.5 708.5 Q163 703 188 696 Q213 689 237.5 683.5 Q262 678 283 678 L338 718 L388 680 Q352 571 275 571 Z " />
<glyph glyph-name="Imacron" unicode="&#x12a;" horiz-adv-x="475" d="M70 0 L70 122 L142 122 L142 568 L70 568 L70 691 L405 691 L405 568 L335 568 L335 122 L405 122 L405 0 L70 0 Z M50 862 L426 862 L426 749 L50 749 L50 862 Z " />
<glyph glyph-name="imacron" unicode="&#x12b;" horiz-adv-x="390" d="M43 376 L43 493 L283 493 L283 125 L352 125 L352 14 Q323 1 285 -5.5 Q247 -12 218 -12 Q148 -12 121.5 16 Q95 44 95 99 L95 376 L43 376 Z M-30 689 L361 689 L361 575 L-30 575 L-30 689 Z " />
<glyph glyph-name="Ibreve" unicode="&#x12c;" horiz-adv-x="475" d="M237 745 Q205 745 177 756 Q149 767 124 786.5 Q99 806 77 832 Q55 858 36 888 L104 942 Q139 894 177 872.5 Q215 851 241 851 Q250 851 263 852 Q276 853 295 861 Q314 869 340 886.5 Q366 904 400 936 L449 888 Q424 847 396.5 819.5 Q369 792 341.5 775.5 Q314 759 287.5 752 Q261 745 237 745 Z M70 0 L70 122 L142 122 L142 568 L70 568 L70 691 L405 691 L405 568 L335 568 L335 122 L405 122 L405 0 L70 0 Z " />
<glyph glyph-name="ibreve" unicode="&#x12d;" horiz-adv-x="410" d="M43 376 L43 493 L283 493 L283 125 L352 125 L352 14 Q323 1 285 -5.5 Q247 -12 218 -12 Q148 -12 121.5 16 Q95 44 95 99 L95 376 L43 376 Z M178 549 Q146 549 118 560 Q90 571 65 590.5 Q40 610 18 636 Q-4 662 -23 692 L45 747 Q80 699 118 677.5 Q156 656 182 656 Q191 656 204 657 Q217 658 236 665.5 Q255 673 281 690.5 Q307 708 341 740 L390 692 Q365 651 337.5 623.5 Q310 596 282.5 579.5 Q255 563 228.5 556 Q202 549 178 549 Z " />
<glyph glyph-name="Iogonek" unicode="&#x12e;" horiz-adv-x="475" d="M248 0 Q230 -28 218 -56 Q206 -84 205 -107 Q205 -131 216.5 -144 Q228 -157 256 -157 Q277 -157 297.5 -153 Q318 -149 337 -144 L349 -197 Q319 -214 286 -222.5 Q253 -231 221 -231 Q164 -231 135 -207.5 Q106 -184 106 -142 Q106 -116 119.5 -78.5 Q133 -41 174 0 L70 0 L70 122 L142 122 L142 568 L70 568 L70 691 L405 691 L405 568 L335 568 L335 122 L405 122 L405 0 L248 0 Z " />
<glyph glyph-name="iogonek" unicode="&#x12f;" horiz-adv-x="390" d="M45 374 L45 493 L283 493 L283 125 L352 125 L352 14 Q335 6 314.5 1 Q294 -4 274 -7 Q260 -32 250.5 -56 Q241 -80 240 -99 Q240 -123 251.5 -136 Q263 -149 291 -149 Q312 -149 332.5 -145 Q353 -141 372 -136 L384 -189 Q354 -206 321 -214.5 Q288 -223 256 -223 Q199 -223 170 -199.5 Q141 -176 141 -134 Q141 -111 151.5 -78.5 Q162 -46 191 -11 Q137 -6 116 21.5 Q95 49 94 99 L94 374 L45 374 Z M293 653 Q293 631 284.5 611.5 Q276 592 261 577 Q246 562 226.5 553.5 Q207 545 185 545 Q162 545 142.5 553.5 Q123 562 108.5 577 Q94 592 85.5 611.5 Q77 631 77 653 Q77 675 85.5 695 Q94 715 108.5 729.5 Q123 744 142.5 752.5 Q162 761 185 761 Q207 761 226.5 752.5 Q246 744 261 729.5 Q276 715 284.5 695 Q293 675 293 653 Z " />
<glyph glyph-name="Idotaccent" unicode="&#x130;" horiz-adv-x="475" d="M70 0 L70 122 L142 122 L142 568 L70 568 L70 691 L405 691 L405 568 L335 568 L335 122 L405 122 L405 0 L70 0 Z M352 846 Q352 823 343.5 803.5 Q335 784 320 769 Q305 754 285 745.5 Q265 737 243 737 Q220 737 200.5 745.5 Q181 754 166.5 769 Q152 784 143.5 803.5 Q135 823 135 846 Q135 868 143.5 888 Q152 908 166.5 923 Q181 938 200.5 946.5 Q220 955 243 955 Q265 955 285 946.5 Q305 938 320 923 Q335 908 343.5 888 Q352 868 352 846 Z " />
<glyph glyph-name="dotlessi" unicode="&#x131;" horiz-adv-x="390" d="M43 376 L43 493 L283 493 L283 125 L352 125 L352 14 Q323 1 285 -5.5 Q247 -12 218 -12 Q148 -12 121.5 16 Q95 44 95 99 L95 376 L43 376 Z " />
<glyph glyph-name="IJ" unicode="&#x132;" horiz-adv-x="960" d="M70 0 L70 122 L142 122 L142 568 L70 568 L70 691 L405 691 L405 568 L335 568 L335 122 L405 122 L405 0 L70 0 Z M534 691 L902 691 L902 568 L821 568 L821 183 Q821 28 735.5 -64.5 Q650 -157 484 -186 L439 -51 Q496 -28 532.5 -5.5 Q569 17 590.5 43.5 Q612 70 620.5 104 Q629 138 629 184 L629 568 L534 569 L534 691 Z " />
<glyph glyph-name="ij" unicode="&#x133;" horiz-adv-x="771" d="M45 374 L45 493 L283 493 L283 125 L352 125 L352 14 Q323 1 285 -5.5 Q247 -12 218 -12 Q148 -12 121.5 16 Q95 44 94 99 L94 374 L45 374 Z M293 653 Q293 631 284.5 611.5 Q276 592 261 577 Q246 562 226.5 553.5 Q207 545 185 545 Q162 545 142.5 553.5 Q123 562 108.5 577 Q94 592 85.5 611.5 Q77 631 77 653 Q77 675 85.5 695 Q94 715 108.5 729.5 Q123 744 142.5 752.5 Q162 761 185 761 Q207 761 226.5 752.5 Q246 744 261 729.5 Q276 715 284.5 695 Q293 675 293 653 Z M443 493 L687 493 L687 84 Q687 12 672 -41.5 Q657 -95 624.5 -133 Q592 -171 541 -196.5 Q490 -222 419 -237 L373 -124 Q415 -100 439.5 -80 Q464 -60 477 -38 Q490 -16 493.5 12.5 Q497 41 497 82 L497 374 L443 374 L443 493 Z M697 653 Q697 631 688.5 611.5 Q680 592 665 577 Q650 562 630.5 553.5 Q611 545 589 545 Q566 545 546.5 553.5 Q527 562 512.5 577 Q498 592 489.5 611.5 Q481 631 481 653 Q481 675 489.5 695 Q498 715 512.5 729.5 Q527 744 546.5 752.5 Q566 761 589 761 Q611 761 630.5 752.5 Q650 744 665 729.5 Q680 715 688.5 695 Q697 675 697 653 Z " />
<glyph glyph-name="Jcircumflex" unicode="&#x134;" horiz-adv-x="505" d="M79 692 L447 692 L447 569 L366 569 L366 184 Q366 29 280.5 -63.5 Q195 -156 29 -185 L-16 -50 Q41 -27 77.5 -4.5 Q114 18 135.5 44.5 Q157 71 165.5 105 Q174 139 174 185 L174 569 L79 570 L79 692 Z M440 742 L267 843 L97 743 L55 793 L211 947 L325 947 L485 794 L440 742 Z " />
<glyph glyph-name="jcircumflex" unicode="&#x135;" horiz-adv-x="387" d="M42 493 L286 493 L286 83 Q286 11 271 -42 Q256 -95 223.5 -132.5 Q191 -170 140.5 -194 Q90 -218 18 -233 L-26 -121 Q15 -97 39 -78.5 Q63 -60 76 -39 Q89 -18 92.5 9.5 Q96 37 96 79 L96 376 L42 376 L42 493 Z M343 535 L170 637 L-1 537 L-43 587 L113 742 L228 742 L387 587 L343 535 Z " />
<glyph glyph-name="Kcommaaccent" unicode="&#x136;" horiz-adv-x="787" d="M510 421 L712 123 L768 123 L768 0 L444 0 L443 123 L496 123 L371 309 L304 251 L304 122 L365 122 L365 0 L44 0 L44 122 L117 122 L117 569 L44 569 L44 689 L370 689 L370 569 L304 569 L304 404 L492 569 L439 569 L439 689 L748 689 L748 569 L684 569 L510 421 Z M333 -116 Q333 -86 357 -64 Q381 -42 419 -42 Q442 -42 458.5 -50 Q475 -58 485.5 -70.5 Q496 -83 501 -99.5 Q506 -116 506 -133 Q506 -160 494.5 -187 Q483 -214 465 -237.5 Q447 -261 424 -279.5 Q401 -298 376 -310 L334 -259 Q357 -242 371 -223.5 Q385 -205 388 -182 Q359 -177 346 -159.5 Q333 -142 333 -116 Z " />
<glyph glyph-name="kcommaaccent" unicode="&#x137;" horiz-adv-x="658" d="M466 316 L574 115 L642 103 L642 2 Q628 -3 610.5 -6 Q593 -9 575 -11 Q557 -13 541 -14 Q525 -15 516 -15 Q502 -15 488.5 -14 Q475 -13 461.5 -8.5 Q448 -4 436 6 Q424 16 415 33 L328 211 L280 175 L280 117 L326 117 L326 0 L30 0 L30 117 L90 117 L90 602 L27 602 L27 716 L280 716 L280 337 L369 407 L369 492 L612 492 L612 375 L544 375 L466 316 Z M273 -116 Q273 -86 297 -64 Q321 -42 359 -42 Q382 -42 398.5 -50 Q415 -58 425.5 -70.5 Q436 -83 441 -99.5 Q446 -116 446 -133 Q446 -160 434.5 -187 Q423 -214 405 -237.5 Q387 -261 364 -279.5 Q341 -298 316 -310 L274 -259 Q297 -242 311 -223.5 Q325 -205 328 -182 Q299 -177 286 -159.5 Q273 -142 273 -116 Z " />
<glyph glyph-name="kgreenlandic" unicode="&#x138;" horiz-adv-x="666" d="M466 316 L574 115 L642 103 L642 2 Q628 -3 610.5 -6 Q593 -9 575 -11 Q557 -13 541 -14 Q525 -15 516 -15 Q502 -15 488.5 -14 Q475 -13 461.5 -8.5 Q448 -4 436 6 Q424 16 415 33 L328 211 L280 175 L280 117 L326 117 L326 0 L30 0 L30 117 L90 117 L90 378 L27 378 L27 492 L280 492 L280 337 L369 407 L369 492 L612 492 L612 375 L544 375 L466 316 Z " />
<glyph glyph-name="Lacute" unicode="&#x139;" horiz-adv-x="687" d="M44 0 L44 122 L118 122 L118 568 L45 568 L45 690 L383 690 L383 568 L311 568 L311 122 L538 122 L538 252 L671 252 L671 0 L44 0 Z M226 742 L170 805 L339 981 L426 882 L226 742 Z " />
<glyph glyph-name="lacute" unicode="&#x13a;" horiz-adv-x="392" d="M292 118 L355 118 L355 0 L41 0 L41 118 L103 118 L103 601 L39 601 L39 719 L292 719 L292 118 Z M185 752 L129 815 L298 991 L385 892 L185 752 Z " />
<glyph glyph-name="Lcommaaccent" unicode="&#x13b;" horiz-adv-x="687" d="M44 0 L44 122 L118 122 L118 568 L45 568 L45 690 L383 690 L383 568 L311 568 L311 122 L538 122 L538 252 L671 252 L671 0 L44 0 Z M257 -116 Q257 -86 281 -64 Q305 -42 343 -42 Q366 -42 382.5 -50 Q399 -58 409.5 -70.5 Q420 -83 425 -99.5 Q430 -116 430 -133 Q430 -160 418.5 -187 Q407 -214 389 -237.5 Q371 -261 348 -279.5 Q325 -298 300 -310 L258 -259 Q281 -242 295 -223.5 Q309 -205 312 -182 Q283 -177 270 -159.5 Q257 -142 257 -116 Z " />
<glyph glyph-name="lcommaaccent" unicode="&#x13c;" horiz-adv-x="392" d="M292 118 L355 118 L355 0 L41 0 L41 118 L103 118 L103 601 L39 601 L39 719 L292 719 L292 118 Z M127 -116 Q127 -86 151 -64 Q175 -42 213 -42 Q236 -42 252.5 -50 Q269 -58 279.5 -70.5 Q290 -83 295 -99.5 Q300 -116 300 -133 Q300 -160 288.5 -187 Q277 -214 259 -237.5 Q241 -261 218 -279.5 Q195 -298 170 -310 L128 -259 Q151 -242 165 -223.5 Q179 -205 182 -182 Q153 -177 140 -159.5 Q127 -142 127 -116 Z " />
<glyph glyph-name="Lcaron" unicode="&#x13d;" horiz-adv-x="687" d="M44 0 L44 122 L118 122 L118 568 L45 568 L45 690 L383 690 L383 568 L311 568 L311 122 L538 122 L538 252 L671 252 L671 0 L44 0 Z M500 628 Q500 658 524 680 Q548 702 586 702 Q609 702 625.5 694 Q642 686 652.5 673.5 Q663 661 668 644.5 Q673 628 673 611 Q673 584 661.5 557 Q650 530 632 506.5 Q614 483 591 464.5 Q568 446 543 434 L501 485 Q524 502 538 520.5 Q552 539 555 562 Q526 567 513 584.5 Q500 602 500 628 Z " />
<glyph glyph-name="lcaron" unicode="&#x13e;" horiz-adv-x="559" d="M371 659 Q371 689 395 711 Q419 733 457 733 Q480 733 496.5 725 Q513 717 523.5 704.5 Q534 692 539 675.5 Q544 659 544 642 Q544 615 532.5 588 Q521 561 503 537.5 Q485 514 462 495.5 Q439 477 414 465 L372 516 Q395 533 409 551.5 Q423 570 426 593 Q397 598 384 615.5 Q371 633 371 659 Z M292 118 L355 118 L355 0 L41 0 L41 118 L103 118 L103 601 L39 601 L39 719 L292 719 L292 118 Z " />
<glyph glyph-name="Ldot" unicode="&#x13f;" horiz-adv-x="687" d="M44 0 L44 122 L118 122 L118 568 L45 568 L45 690 L383 690 L383 568 L311 568 L311 122 L538 122 L538 252 L671 252 L671 0 L44 0 Z M660 440 Q660 417 651.5 397.5 Q643 378 628 363 Q613 348 593 339.5 Q573 331 551 331 Q528 331 508.5 339.5 Q489 348 474.5 363 Q460 378 451.5 397.5 Q443 417 443 440 Q443 462 451.5 482 Q460 502 474.5 517 Q489 532 508.5 540.5 Q528 549 551 549 Q573 549 593 540.5 Q613 532 628 517 Q643 502 651.5 482 Q660 462 660 440 Z " />
<glyph glyph-name="ldot" unicode="&#x140;" horiz-adv-x="603" d="M580 388 Q580 365 571.5 345.5 Q563 326 548 311 Q533 296 513 287.5 Q493 279 471 279 Q448 279 428.5 287.5 Q409 296 394.5 311 Q380 326 371.5 345.5 Q363 365 363 388 Q363 410 371.5 430 Q380 450 394.5 465 Q409 480 428.5 488.5 Q448 497 471 497 Q493 497 513 488.5 Q533 480 548 465 Q563 450 571.5 430 Q580 410 580 388 Z M292 118 L355 118 L355 0 L41 0 L41 118 L103 118 L103 601 L39 601 L39 719 L292 719 L292 118 Z " />
<glyph glyph-name="Lslash" unicode="&#x141;" horiz-adv-x="684" d="M44 0 L44 122 L118 122 L118 213 L71 187 L31 251 L118 301 L118 569 L45 569 L45 690 L383 690 L383 569 L311 569 L311 412 L397 461 L436 399 L311 326 L311 122 L534 122 L534 252 L667 252 L667 0 L44 0 Z " />
<glyph glyph-name="lslash" unicode="&#x142;" horiz-adv-x="392" d="M291 116 L354 116 L354 0 L41 0 L41 116 L103 116 L103 263 L42 228 Q40 231 34 240.5 Q28 250 21.5 260 Q15 270 9.5 279.5 Q4 289 2 292 Q8 295 22 303 Q36 311 52 320 Q68 329 82 337 Q96 345 103 349 L103 603 L38 603 L38 720 L291 720 L291 458 L362 499 L401 436 Q394 432 378.5 423 Q363 414 346 404 Q329 394 313.5 385.5 Q298 377 291 373 L291 116 Z " />
<glyph glyph-name="Nacute" unicode="&#x143;" horiz-adv-x="880" d="M589 264 L589 568 L522 568 L522 690 L835 690 L835 568 L768 568 L768 0 L579 0 L420 245 L335 379 L291 450 Q290 450 290 449.5 Q290 449 289 449 L289 121 L357 121 L357 0 L42 0 L42 121 L112 121 L112 568 L43 568 L43 690 L318 690 Q349 641 376.5 597.5 Q404 554 431 511.5 Q458 469 485 425.5 Q512 382 541 334 Q552 317 562.5 299.5 Q573 282 584 264 L589 264 Z M427 742 L371 805 L540 981 L627 882 L427 742 Z " />
<glyph glyph-name="nacute" unicode="&#x144;" horiz-adv-x="696" d="M435 505 Q483 505 516 491 Q549 477 568.5 453 Q588 429 596.5 397 Q605 365 605 328 L605 124 L669 124 L669 14 Q639 1 604 -5 Q569 -11 540 -11 Q499 -11 475 0 Q451 11 438 28.5 Q425 46 421 66.5 Q417 87 417 106 L417 290 Q417 329 402.5 345.5 Q388 362 356 362 Q338 362 316 353.5 Q294 345 277 332 L277 0 L87 0 L87 376 L27 376 L27 493 L273 493 L273 450 Q274 450 276 449.5 Q278 449 279 449 Q317 475 357 490 Q397 505 435 505 Z M253 530 L197 593 L366 769 L453 670 L253 530 Z " />
<glyph glyph-name="Ncommaaccent" unicode="&#x145;" horiz-adv-x="880" d="M589 264 L589 568 L522 568 L522 690 L835 690 L835 568 L768 568 L768 0 L579 0 L420 245 L335 379 L291 450 Q290 450 290 449.5 Q290 449 289 449 L289 121 L357 121 L357 0 L42 0 L42 121 L112 121 L112 568 L43 568 L43 690 L318 690 Q349 641 376.5 597.5 Q404 554 431 511.5 Q458 469 485 425.5 Q512 382 541 334 Q552 317 562.5 299.5 Q573 282 584 264 L589 264 Z M373 -116 Q373 -86 397 -64 Q421 -42 459 -42 Q482 -42 498.5 -50 Q515 -58 525.5 -70.5 Q536 -83 541 -99.5 Q546 -116 546 -133 Q546 -160 534.5 -187 Q523 -214 505 -237.5 Q487 -261 464 -279.5 Q441 -298 416 -310 L374 -259 Q397 -242 411 -223.5 Q425 -205 428 -182 Q399 -177 386 -159.5 Q373 -142 373 -116 Z " />
<glyph glyph-name="ncommaaccent" unicode="&#x146;" horiz-adv-x="696" d="M435 505 Q483 505 516 491 Q549 477 568.5 453 Q588 429 596.5 397 Q605 365 605 328 L605 124 L669 124 L669 14 Q639 1 604 -5 Q569 -11 540 -11 Q499 -11 475 0 Q451 11 438 28.5 Q425 46 421 66.5 Q417 87 417 106 L417 290 Q417 329 402.5 345.5 Q388 362 356 362 Q338 362 316 353.5 Q294 345 277 332 L277 0 L87 0 L87 376 L27 376 L27 493 L273 493 L273 450 Q274 450 276 449.5 Q278 449 279 449 Q317 475 357 490 Q397 505 435 505 Z M286 -116 Q286 -86 310 -64 Q334 -42 372 -42 Q395 -42 411.5 -50 Q428 -58 438.5 -70.5 Q449 -83 454 -99.5 Q459 -116 459 -133 Q459 -160 447.5 -187 Q436 -214 418 -237.5 Q400 -261 377 -279.5 Q354 -298 329 -310 L287 -259 Q310 -242 324 -223.5 Q338 -205 341 -182 Q312 -177 299 -159.5 Q286 -142 286 -116 Z " />
<glyph glyph-name="Ncaron" unicode="&#x147;" horiz-adv-x="880" d="M589 264 L589 568 L522 568 L522 690 L835 690 L835 568 L768 568 L768 0 L579 0 L420 245 L335 379 L291 450 Q290 450 290 449.5 Q290 449 289 449 L289 121 L357 121 L357 0 L42 0 L42 121 L112 121 L112 568 L43 568 L43 690 L318 690 Q349 641 376.5 597.5 Q404 554 431 511.5 Q458 469 485 425.5 Q512 382 541 334 Q552 317 562.5 299.5 Q573 282 584 264 L589 264 Z M649 899 L490 745 L376 745 L219 899 L261 949 L432 849 L605 950 L649 899 Z " />
<glyph glyph-name="ncaron" unicode="&#x148;" horiz-adv-x="696" d="M435 505 Q483 505 516 491 Q549 477 568.5 453 Q588 429 596.5 397 Q605 365 605 328 L605 124 L669 124 L669 14 Q639 1 604 -5 Q569 -11 540 -11 Q499 -11 475 0 Q451 11 438 28.5 Q425 46 421 66.5 Q417 87 417 106 L417 290 Q417 329 402.5 345.5 Q388 362 356 362 Q338 362 316 353.5 Q294 345 277 332 L277 0 L87 0 L87 376 L27 376 L27 493 L273 493 L273 450 Q274 450 276 449.5 Q278 449 279 449 Q317 475 357 490 Q397 505 435 505 Z M544 699 L385 543 L270 543 L114 699 L156 749 L327 649 L500 750 L544 699 Z " />
<glyph glyph-name="napostrophe" unicode="&#x149;" horiz-adv-x="857" d="M596 505 Q644 505 677 491 Q710 477 729.5 453 Q749 429 757.5 397 Q766 365 766 328 L766 124 L830 124 L830 14 Q800 1 765 -5 Q730 -11 701 -11 Q660 -11 636 0 Q612 11 599 28.5 Q586 46 582 66.5 Q578 87 578 106 L578 290 Q578 329 563.5 345.5 Q549 362 517 362 Q499 362 477 353.5 Q455 345 438 332 L438 0 L248 0 L248 376 L188 376 L188 493 L434 493 L434 450 Q435 450 437 449.5 Q439 449 440 449 Q478 475 518 490 Q558 505 596 505 Z M5 647 Q5 677 29 699 Q53 721 91 721 Q114 721 130.5 713 Q147 705 157.5 692.5 Q168 680 173 663.5 Q178 647 178 630 Q178 603 166.5 576 Q155 549 137 525.5 Q119 502 96 483.5 Q73 465 48 453 L6 504 Q29 521 43 539.5 Q57 558 60 581 Q31 586 18 603.5 Q5 621 5 647 Z " />
<glyph glyph-name="Eng" unicode="&#x14a;" horiz-adv-x="880" d="M454 -94 Q468 -95 484 -96 Q500 -97 521 -97 Q535 -97 548 -94.5 Q561 -92 571 -85.5 Q581 -79 587 -66 Q593 -53 593 -32 L593 0 Q571 32 545.5 71 Q520 110 491.5 153 Q463 196 432.5 241.5 Q402 287 372 332 Q365 342 354 358.5 Q343 375 331 393 Q319 411 308 428 Q297 445 291 454 L289 454 L289 121 L357 121 L357 0 L43 0 L43 121 L112 121 L112 569 L43 569 L43 690 L308 690 Q326 664 348.5 631 Q371 598 395.5 561 Q420 524 446 485.5 Q472 447 497 409 L584 273 L589 273 L589 569 L522 569 L522 690 L835 690 L835 569 L768 569 L768 -22 Q767 -63 759.5 -101.5 Q752 -140 729.5 -169.5 Q707 -199 664 -216.5 Q621 -234 549 -234 Q526 -234 494 -230 Q462 -226 440 -221 Q443 -189 446.5 -157.5 Q450 -126 454 -94 Z " />
<glyph glyph-name="eng" unicode="&#x14b;" horiz-adv-x="667" d="M607 38 Q607 -8 603 -51.5 Q599 -95 577.5 -129.5 Q556 -164 511.5 -185 Q467 -206 387 -206 Q376 -206 361.5 -205 Q347 -204 331 -202.5 Q315 -201 300.5 -199 Q286 -197 275 -194 L289 -65 Q303 -66 316 -66.5 Q329 -67 340 -67 Q375 -67 396.5 -54.5 Q418 -42 418 0 L418 289 Q418 327 403.5 345 Q389 363 357 363 Q339 363 317 354.5 Q295 346 278 333 L278 0 L88 0 L88 377 L27 377 L27 494 L274 494 L274 451 Q275 450 276 450 Q277 449 279 449 Q316 475 357 490 Q398 505 436 505 Q483 505 515.5 492.5 Q548 480 568.5 457 Q589 434 598 401 Q607 368 607 328 L607 38 Z " />
<glyph glyph-name="Omacron" unicode="&#x14c;" horiz-adv-x="793" d="M743 347 Q743 270 721 204.5 Q699 139 656 91 Q613 43 548 16 Q483 -11 398 -11 Q309 -11 244 15.5 Q179 42 135.5 89 Q92 136 71 202 Q50 268 50 346 Q50 422 71 487.5 Q92 553 135 601.5 Q178 650 243.5 677.5 Q309 705 398 705 Q487 705 552 677.5 Q617 650 659.5 601.5 Q702 553 722.5 487.5 Q743 422 743 347 Z M537 346 Q537 392 531 432.5 Q525 473 509 504 Q493 535 466.5 553 Q440 571 398 571 Q356 571 328 552.5 Q300 534 283.5 503 Q267 472 260.5 431.5 Q254 391 254 346 Q254 293 261.5 251.5 Q269 210 286 181.5 Q303 153 330.5 137.5 Q358 122 398 122 Q436 122 462.5 138.5 Q489 155 505.5 184.5 Q522 214 529.5 255 Q537 296 537 346 Z M214 862 L590 862 L590 749 L214 749 L214 862 Z " />
<glyph glyph-name="omacron" unicode="&#x14d;" horiz-adv-x="628" d="M588 247 Q588 193 571.5 146 Q555 99 521 64.5 Q487 30 435 10 Q383 -10 312 -10 Q242 -10 190.5 9.5 Q139 29 105.5 63 Q72 97 56 144 Q40 191 40 247 Q40 301 56.5 348 Q73 395 107 429.5 Q141 464 193 484 Q245 504 315 504 Q385 504 436.5 484 Q488 464 522 429.5 Q556 395 572 348 Q588 301 588 247 Z M395 247 Q395 272 391.5 295 Q388 318 379.5 336 Q371 354 355.5 364.5 Q340 375 316 375 Q291 375 275 364 Q259 353 249.5 335 Q240 317 236.5 294 Q233 271 233 247 Q233 220 236.5 196 Q240 172 249 154 Q258 136 273.5 126 Q289 116 314 116 Q338 116 354 126.5 Q370 137 379 154.5 Q388 172 391.5 196 Q395 220 395 247 Z M114 689 L505 689 L505 575 L114 575 L114 689 Z " />
<glyph glyph-name="Obreve" unicode="&#x14e;" horiz-adv-x="793" d="M743 347 Q743 270 721 204.5 Q699 139 656 91 Q613 43 548 16 Q483 -11 398 -11 Q309 -11 244 15.5 Q179 42 135.5 89 Q92 136 71 202 Q50 268 50 346 Q50 422 71 487.5 Q92 553 135 601.5 Q178 650 243.5 677.5 Q309 705 398 705 Q487 705 552 677.5 Q617 650 659.5 601.5 Q702 553 722.5 487.5 Q743 422 743 347 Z M537 346 Q537 392 531 432.5 Q525 473 509 504 Q493 535 466.5 553 Q440 571 398 571 Q356 571 328 552.5 Q300 534 283.5 503 Q267 472 260.5 431.5 Q254 391 254 346 Q254 293 261.5 251.5 Q269 210 286 181.5 Q303 153 330.5 137.5 Q358 122 398 122 Q436 122 462.5 138.5 Q489 155 505.5 184.5 Q522 214 529.5 255 Q537 296 537 346 Z M398 742 Q366 742 338 753 Q310 764 285 783.5 Q260 803 238 829 Q216 855 197 885 L265 939 Q300 891 338 869.5 Q376 848 402 848 Q411 848 424 849 Q437 850 456 858 Q475 866 501 883.5 Q527 901 561 933 L610 885 Q585 844 557.5 816.5 Q530 789 502.5 772.5 Q475 756 448.5 749 Q422 742 398 742 Z " />
<glyph glyph-name="obreve" unicode="&#x14f;" horiz-adv-x="628" d="M588 247 Q588 193 571.5 146 Q555 99 521 64.5 Q487 30 435 10 Q383 -10 312 -10 Q242 -10 190.5 9.5 Q139 29 105.5 63 Q72 97 56 144 Q40 191 40 247 Q40 301 56.5 348 Q73 395 107 429.5 Q141 464 193 484 Q245 504 315 504 Q385 504 436.5 484 Q488 464 522 429.5 Q556 395 572 348 Q588 301 588 247 Z M395 247 Q395 272 391.5 295 Q388 318 379.5 336 Q371 354 355.5 364.5 Q340 375 316 375 Q291 375 275 364 Q259 353 249.5 335 Q240 317 236.5 294 Q233 271 233 247 Q233 220 236.5 196 Q240 172 249 154 Q258 136 273.5 126 Q289 116 314 116 Q338 116 354 126.5 Q370 137 379 154.5 Q388 172 391.5 196 Q395 220 395 247 Z M309 549 Q277 549 249 560 Q221 571 196 590.5 Q171 610 149 636 Q127 662 108 692 L176 747 Q211 699 249 677.5 Q287 656 313 656 Q322 656 335 657 Q348 658 367 665.5 Q386 673 412 690.5 Q438 708 472 740 L521 692 Q496 651 468.5 623.5 Q441 596 413.5 579.5 Q386 563 359.5 556 Q333 549 309 549 Z " />
</font>
</svg>
