<?xml version="1.0" encoding="UTF-8"?>
<svg xmlns="http://www.w3.org/2000/svg" xmlns:xlink="http://www.w3.org/1999/xlink" version="1.2" >
<font id="SapientCentroSlab-Light">
<font-face  font-family="Sapient Centro Slab" units-per-em="1000" ascent="750" descent="-250" font-style="normal" font-weight="300" font-stretch="normal" cap-height="683" x-height="487" underline-position="-80" underline-thickness="40" />
<missing-glyph  horiz-adv-x="440" d="M0 682 L440 682 L440 0 L0 0 L0 682 Z M391 94 L391 591 L251 342 L391 94 Z M49 96 L189 342 L49 589 L49 96 Z M359 49 L220 296 L81 49 L359 49 Z M359 634 L81 634 L220 389 L359 634 Z " />
<glyph glyph-name="NULL" d="" />
<glyph glyph-name="nonmarkingreturn" unicode="&#xd;" horiz-adv-x="260" d="" />
<glyph glyph-name="space" unicode="&#x20;" horiz-adv-x="260" d="" />
<glyph glyph-name="dollar" unicode="&#x24;" horiz-adv-x="540" d="M283 727 L319 727 L319 665 Q348 663 379.5 654.5 Q411 646 438 629 L438 511 L394 511 L394 600 Q377 608 358 612.5 Q339 617 319 619 L319 356 Q350 343 379.5 329.5 Q409 316 431.5 296.5 Q454 277 467.5 249.5 Q481 222 481 182 Q481 142 468.5 111.5 Q456 81 434.5 60 Q413 39 383 26 Q353 13 319 7 L319 -75 L283 -75 L283 727 Z M249 -75 L214 -75 L214 4 Q175 8 140.5 18 Q106 28 68 52 L68 169 L112 169 L112 82 Q145 66 168 61 Q191 56 214 53 L214 338 Q185 348 159.5 361.5 Q134 375 115 393 Q96 411 85.5 436 Q75 461 75 496 Q75 531 85.5 559 Q96 587 115 607.5 Q134 628 159 641.5 Q184 655 214 661 L214 727 L249 727 L249 -75 Z M430 186 Q430 210 421.5 228.5 Q413 247 398 261.5 Q383 276 363 286.5 Q343 297 319 306 L319 55 Q372 64 401 95 Q430 126 430 186 Z M127 501 Q127 475 133.5 457.5 Q140 440 152 427 Q164 414 180 405 Q196 396 214 389 L214 614 Q178 604 152.5 577.5 Q127 551 127 501 Z " />
<glyph glyph-name="percent" unicode="&#x25;" horiz-adv-x="785" d="M331 463 Q331 428 324 392.5 Q317 357 299 328 Q281 299 251.5 280.5 Q222 262 177 262 Q126 262 95 279.5 Q64 297 47 325.5 Q30 354 24.5 389.5 Q19 425 19 461 Q19 493 24.5 529.5 Q30 566 47.5 596.5 Q65 627 96.5 647.5 Q128 668 179 668 Q231 668 261.5 646.5 Q292 625 307.5 594 Q323 563 327 527 Q331 491 331 463 Z M280 461 Q280 483 278 511.5 Q276 540 266 565.5 Q256 591 235.5 608.5 Q215 626 179 626 Q142 626 120.5 609 Q99 592 87.5 567 Q76 542 73 513 Q70 484 70 460 Q70 428 74 399.5 Q78 371 90 349.5 Q102 328 123 315.5 Q144 303 179 303 Q210 303 229.5 317.5 Q249 332 260.5 354.5 Q272 377 276 405.5 Q280 434 280 461 Z M272 -23 L229 -23 L513 698 L554 698 L272 -23 Z M766 198 Q766 163 759 127.5 Q752 92 734 63 Q716 34 686.5 15.5 Q657 -3 612 -3 Q561 -3 530 14.5 Q499 32 482 60.5 Q465 89 459.5 124.5 Q454 160 454 196 Q454 228 459.5 264.5 Q465 301 482.5 331.5 Q500 362 531.5 382.5 Q563 403 614 403 Q666 403 696.5 381.5 Q727 360 742.5 329 Q758 298 762 262 Q766 226 766 198 Z M715 196 Q715 218 713 246.5 Q711 275 701 300.5 Q691 326 670.5 343.5 Q650 361 614 361 Q577 361 555.5 344 Q534 327 522.5 302 Q511 277 508 248 Q505 219 505 195 Q505 163 509 134.5 Q513 106 525 84.5 Q537 63 558 50.5 Q579 38 614 38 Q645 38 664.5 52.5 Q684 67 695.5 89.5 Q707 112 711 140.5 Q715 169 715 196 Z " />
<glyph glyph-name="ampersand" unicode="&#x26;" horiz-adv-x="696" d="M271 627 Q249 627 234.5 618 Q220 609 211 595.5 Q202 582 198.5 567 Q195 552 195 539 Q195 511 209 483.5 Q223 456 246 422 Q269 434 289.5 446.5 Q310 459 325 474 Q340 489 348.5 506.5 Q357 524 357 547 Q357 582 334.5 604.5 Q312 627 271 627 Z M328 215 Q299 252 271.5 288.5 Q244 325 222 357 Q191 340 165 322 Q139 304 119.5 282.5 Q100 261 89 236.5 Q78 212 78 182 Q78 144 90 116.5 Q102 89 123 70.5 Q144 52 172 43 Q200 34 231 34 Q278 34 327.5 51.5 Q377 69 424 101 Q396 130 372.5 159 Q349 188 328 215 Z M487 403 L701 403 L701 358 L628 358 Q622 279 586 214.5 Q550 150 496 100 Q571 27 648 -5 L625 -49 Q609 -42 588 -30 Q567 -18 544 -2 Q521 14 498 32 Q475 50 456 68 Q406 30 348.5 10 Q291 -10 236 -10 Q192 -10 154 2 Q116 14 88 37.5 Q60 61 43.5 96.5 Q27 132 27 180 Q27 249 72.5 301 Q118 353 197 398 Q165 442 152.5 473 Q140 504 140 534 Q140 563 149 588.5 Q158 614 175.5 632.5 Q193 651 218 662 Q243 673 275 673 Q308 673 333 663 Q358 653 375 636 Q392 619 400.5 596 Q409 573 409 547 Q409 520 399.5 497.5 Q390 475 372.5 455 Q355 435 329 416.5 Q303 398 270 379 Q294 342 324.5 302 Q355 262 387 222 Q405 199 424 177 Q443 155 463 133 Q508 176 540.5 231.5 Q573 287 582 358 L487 358 L487 403 Z " />
<glyph glyph-name="quotesingle" unicode="&#x27;" horiz-adv-x="171" d="M72 498 L60 683 L115 683 L102 498 L72 498 Z " />
<glyph glyph-name="parenleft" unicode="&#x28;" horiz-adv-x="263" d="M198 -172 Q187 -156 163.5 -119 Q140 -82 117 -25 Q94 32 76.5 110 Q59 188 59 287 Q59 375 76 446 Q93 517 116 570.5 Q139 624 162.5 660 Q186 696 198 713 L221 699 Q210 683 192 648 Q174 613 156.5 561 Q139 509 126 440 Q113 371 113 287 Q113 192 126 118.5 Q139 45 156.5 -9.5 Q174 -64 192.5 -99.5 Q211 -135 222 -154 L198 -172 Z " />
<glyph glyph-name="parenright" unicode="&#x29;" horiz-adv-x="265" d="M29 -154 Q40 -135 58.5 -99.5 Q77 -64 94.5 -9.5 Q112 45 125 118.5 Q138 192 138 287 Q138 371 125 440 Q112 509 94.5 561 Q77 613 58.5 648 Q40 683 30 699 L53 713 Q65 696 88.5 660 Q112 624 135 570.5 Q158 517 175 446 Q192 375 192 287 Q192 188 174.5 110 Q157 32 133.5 -25 Q110 -82 87 -119 Q64 -156 53 -172 L29 -154 Z " />
<glyph glyph-name="asterisk" unicode="&#x2a;" horiz-adv-x="374" d="M301 628 Q318 612 321.5 596 Q325 580 325 560 L209 547 L291 469 Q271 438 235 426 L186 531 L138 427 Q119 432 106 441.5 Q93 451 80 469 L162 548 L51 562 Q52 585 57 601 Q62 617 74 632 L173 576 L151 688 Q169 694 189 694 Q208 694 225 688 L202 576 L301 628 Z " />
<glyph glyph-name="plus" unicode="&#x2b;" horiz-adv-x="540" d="M296 274 L296 107 L247 107 L247 274 L84 274 L84 321 L247 321 L247 481 L296 481 L296 321 L458 321 L458 274 L296 274 Z " />
<glyph glyph-name="comma" unicode="&#x2c;" horiz-adv-x="186" d="M47 34 Q47 51 60 64 Q73 77 91 77 Q111 77 124.5 63 Q138 49 138 25 Q138 -10 114 -46 Q90 -82 51 -102 L37 -84 Q54 -67 64.5 -50.5 Q75 -34 77 -8 Q63 -3 55 8 Q47 19 47 34 Z " />
<glyph glyph-name="hyphen" unicode="&#x2d;" horiz-adv-x="354" d="M51 235 L51 288 L302 288 L302 235 L51 235 Z " />
<glyph glyph-name="period" unicode="&#x2e;" horiz-adv-x="183" d="M130 34 Q130 16 117.5 3 Q105 -10 88 -10 Q70 -10 57 3 Q44 16 44 34 Q44 51 56.5 63.5 Q69 76 87 76 Q105 76 117.5 63.5 Q130 51 130 34 Z " />
<glyph glyph-name="slash" unicode="&#x2f;" horiz-adv-x="315" d="M52 -26 L18 -26 L273 698 L306 698 L52 -26 Z " />
<glyph glyph-name="zero" unicode="0" horiz-adv-x="540" d="M503 328 Q503 270 492 210.5 Q481 151 454.5 102.5 Q428 54 384 23.5 Q340 -7 273 -7 Q196 -7 149.5 22.5 Q103 52 77.5 99 Q52 146 44 205.5 Q36 265 36 325 Q36 360 39.5 400 Q43 440 52.5 478.5 Q62 517 78.5 552 Q95 587 121.5 614 Q148 641 186 657 Q224 673 275 673 Q327 673 364.5 656.5 Q402 640 427 612.5 Q452 585 467 549 Q482 513 490 474.5 Q498 436 500.5 398 Q503 360 503 328 Z M445 325 Q445 351 443.5 383 Q442 415 437 448.5 Q432 482 421 513.5 Q410 545 391.5 569.5 Q373 594 344.5 609 Q316 624 275 624 Q213 624 177 593.5 Q141 563 122.5 517.5 Q104 472 99 419.5 Q94 367 94 323 Q94 265 101 213.5 Q108 162 127.5 124 Q147 86 182.5 63.5 Q218 41 275 41 Q327 41 360.5 67 Q394 93 412.5 134 Q431 175 438 225.5 Q445 276 445 325 Z " />
<glyph glyph-name="one" unicode="1" horiz-adv-x="540" d="M87 570 L78 606 L251 663 L304 663 L304 46 L440 46 L440 0 L102 0 L102 46 L248 46 L248 596 L87 570 Z " />
<glyph glyph-name="two" unicode="2" horiz-adv-x="540" d="M36 0 L36 43 Q61 68 96 100.5 Q131 133 168.5 170.5 Q206 208 243 248 Q280 288 309.5 329.5 Q339 371 357 411.5 Q375 452 375 489 Q375 524 364 549.5 Q353 575 333 591 Q313 607 286 614.5 Q259 622 228 622 Q216 622 199.5 620.5 Q183 619 161.5 613.5 Q140 608 114 597.5 Q88 587 58 568 L35 603 Q65 625 94.5 639 Q124 653 150 660.5 Q176 668 198 670.5 Q220 673 236 673 Q278 673 314.5 662.5 Q351 652 377.5 630.5 Q404 609 419 575.5 Q434 542 434 496 Q434 453 417 410.5 Q400 368 372.5 326.5 Q345 285 310.5 245.5 Q276 206 240 170.5 Q204 135 170 103.5 Q136 72 111 47 L407 47 L407 146 L458 146 L458 0 L36 0 Z " />
<glyph glyph-name="three" unicode="3" horiz-adv-x="540" d="M224 397 L241 397 Q286 397 327.5 386 Q369 375 400.5 351.5 Q432 328 451 292 Q470 256 470 207 Q470 152 450.5 111.5 Q431 71 399 44 Q367 17 326 4 Q285 -9 241 -9 Q182 -9 134.5 0 Q87 9 44 29 L59 71 Q115 55 154.5 48.5 Q194 42 223 42 Q311 42 361.5 81.5 Q412 121 412 207 Q412 276 363 312 Q314 348 226 348 Q207 348 191.5 346.5 Q176 345 158 342 L140 380 L369 612 L369 613 L120 613 L120 511 L69 510 L69 663 L442 663 L453 627 L224 397 Z " />
<glyph glyph-name="four" unicode="4" horiz-adv-x="540" d="M411 190 L411 46 L486 46 L486 0 L287 0 L287 46 L357 46 L357 190 L32 190 L32 237 L353 663 L411 663 L411 237 L508 237 L508 190 L411 190 Z M352 589 L304 523 L89 237 L358 237 L358 589 L352 589 Z " />
<glyph glyph-name="five" unicode="5" horiz-adv-x="540" d="M263 411 Q300 411 337.5 400 Q375 389 405 365 Q435 341 454 302 Q473 263 473 207 Q473 152 453.5 111.5 Q434 71 402 44 Q370 17 329 4 Q288 -9 244 -9 Q185 -9 137.5 0 Q90 9 47 29 L62 71 Q118 55 157.5 48.5 Q197 42 226 42 Q314 42 364.5 81.5 Q415 121 415 207 Q415 246 401 275.5 Q387 305 364 324 Q341 343 310.5 352.5 Q280 362 246 362 Q217 362 186.5 354.5 Q156 347 128 333 L88 364 L106 663 L445 663 L445 530 L397 530 L397 613 L156 613 L143 389 Q156 393 184 402 Q212 411 263 411 Z " />
<glyph glyph-name="six" unicode="6" horiz-adv-x="540" d="M116 364 Q143 381 186 397 Q229 413 287 413 Q326 413 362.5 402 Q399 391 427 366.5 Q455 342 471.5 302.5 Q488 263 488 207 Q488 158 472 118.5 Q456 79 427.5 51 Q399 23 359 8 Q319 -7 271 -7 Q205 -7 162.5 18 Q120 43 95.5 85.5 Q71 128 61.5 185 Q52 242 52 305 Q52 387 68 454.5 Q84 522 115.5 571 Q147 620 194 647 Q241 674 303 674 Q357 674 394.5 662 Q432 650 448 641 L431 599 Q393 615 360 620 Q327 625 302 625 Q244 625 207 595 Q170 565 149 523.5 Q128 482 119.5 438 Q111 394 110 367 L116 364 Z M281 363 Q239 363 207 354.5 Q175 346 153 335 Q127 323 109 308 L109 285 Q109 253 113.5 210.5 Q118 168 135 130.5 Q152 93 184.5 67 Q217 41 273 41 Q312 41 341.5 53 Q371 65 390.5 87 Q410 109 420 138.5 Q430 168 430 203 Q430 238 422.5 267.5 Q415 297 397.5 318 Q380 339 351.5 351 Q323 363 281 363 Z " />
<glyph glyph-name="seven" unicode="7" horiz-adv-x="540" d="M188 0 L134 0 L410 613 L126 613 L126 510 L75 510 L75 663 L465 663 L465 616 L188 0 Z " />
<glyph glyph-name="eight" unicode="8" horiz-adv-x="540" d="M133 512 Q133 483 148.5 462 Q164 441 189 424.5 Q214 408 246 394.5 Q278 381 311 367 Q368 406 390 441.5 Q412 477 412 509 Q412 528 404.5 549.5 Q397 571 380 588 Q363 605 335.5 616.5 Q308 628 269 628 Q230 628 204 615.5 Q178 603 162.5 585 Q147 567 140 547 Q133 527 133 512 Z M264 37 Q305 37 335.5 48.5 Q366 60 386 79.5 Q406 99 416 124 Q426 149 426 175 Q426 212 410 237.5 Q394 263 366 282.5 Q338 302 299.5 318.5 Q261 335 215 354 Q151 314 125 264 Q99 214 99 167 Q99 143 108 119.5 Q117 96 137 77.5 Q157 59 188 48 Q219 37 264 37 Z M466 518 Q466 479 444 434.5 Q422 390 361 346 Q414 320 447.5 278 Q481 236 481 174 Q481 138 466.5 105 Q452 72 424 47 Q396 22 355 7.5 Q314 -7 261 -7 Q205 -7 164 6.5 Q123 20 96 43 Q69 66 55.5 96 Q42 126 42 160 Q42 188 49 218 Q56 248 72 276 Q88 304 112.5 329.5 Q137 355 172 375 Q123 402 99 433.5 Q75 465 75 512 Q75 545 89 574.5 Q103 604 129 626 Q155 648 191.5 661 Q228 674 272 674 Q305 674 339.5 665.5 Q374 657 402 638 Q430 619 448 589.5 Q466 560 466 518 Z " />
<glyph glyph-name="nine" unicode="9" horiz-adv-x="540" d="M414 304 Q387 287 344 270.5 Q301 254 242 254 Q203 254 166.5 265 Q130 276 102.5 300.5 Q75 325 58.5 364.5 Q42 404 42 460 Q42 509 57.5 548.5 Q73 588 101.5 616 Q130 644 170 659 Q210 674 258 674 Q324 674 366.5 649 Q409 624 433.5 581.5 Q458 539 467.5 482 Q477 425 477 362 Q477 280 461 212.5 Q445 145 413.5 96.5 Q382 48 335 21 Q288 -6 226 -6 Q199 -6 174.5 -2.5 Q150 1 129.5 6 Q109 11 94 16.5 Q79 22 71 27 L88 69 Q126 53 164 48 Q202 43 227 43 Q266 43 295 57 Q324 71 345 94 Q366 117 379.5 145 Q393 173 401.5 202 Q410 231 414 257 Q418 283 419 301 L414 304 Z M248 304 Q290 304 322 312 Q354 320 376 331 Q402 343 420 359 L420 382 Q420 414 415.5 456 Q411 498 394 535 Q377 572 344.5 597.5 Q312 623 256 623 Q177 623 138 578.5 Q99 534 99 464 Q99 429 106.5 399.5 Q114 370 131.5 349 Q149 328 177.5 316 Q206 304 248 304 Z " />
<glyph glyph-name="colon" unicode="&#x3a;" horiz-adv-x="179" d="M135 37 Q135 19 124 6 Q113 -7 93 -7 Q73 -7 61 6 Q49 19 49 37 Q49 54 61.5 66.5 Q74 79 92 79 Q110 79 122.5 66.5 Q135 54 135 37 Z M135 358 Q135 340 122.5 327 Q110 314 93 314 Q75 314 62 327.5 Q49 341 49 358 Q49 376 61.5 388 Q74 400 92 400 Q110 400 122.5 388 Q135 376 135 358 Z " />
<glyph glyph-name="semicolon" unicode="&#x3b;" horiz-adv-x="179" d="M135 358 Q135 340 122.5 327 Q110 314 93 314 Q75 314 62 327.5 Q49 341 49 358 Q49 376 61.5 388 Q74 400 92 400 Q110 400 122.5 388 Q135 376 135 358 Z M47 34 Q47 51 60 64 Q73 77 91 77 Q111 77 124.5 63 Q138 49 138 25 Q138 -10 114 -46 Q90 -82 51 -102 L37 -84 Q54 -67 64.5 -50.5 Q75 -34 77 -8 Q63 -3 55 8 Q47 19 47 34 Z " />
<glyph glyph-name="less" unicode="&#x3c;" horiz-adv-x="540" d="M86 276 L86 317 L462 509 L462 455 L141 297 L462 136 L462 82 L86 276 Z " />
<glyph glyph-name="equal" unicode="&#x3d;" horiz-adv-x="540" d="M73 347 L73 394 L466 394 L466 347 L73 347 Z M73 210 L73 256 L466 256 L466 210 L73 210 Z " />
<glyph glyph-name="greater" unicode="&#x3e;" horiz-adv-x="540" d="M86 82 L86 136 L407 297 L86 455 L86 509 L462 317 L462 276 L86 82 Z " />
<glyph glyph-name="question" unicode="&#x3f;" horiz-adv-x="415" d="M248 444 Q288 475 310 502 Q332 529 332 567 Q332 614 299 633.5 Q266 653 215 653 Q187 653 153 648.5 Q119 644 87 633 L87 538 L40 538 L40 672 Q83 687 128.5 694.5 Q174 702 210 702 Q301 702 345.5 667.5 Q390 633 390 571 Q390 522 361.5 486 Q333 450 296 421 Q261 394 237 372 Q213 350 197.5 330 Q182 310 175 291 Q168 272 168 251 Q168 232 171 213 Q174 194 178 168 L134 158 Q126 190 123 214.5 Q120 239 120 256 Q120 303 149 346.5 Q178 390 248 444 Z M217 34 Q217 15 204.5 2.5 Q192 -10 175 -10 Q157 -10 144 3 Q131 16 131 34 Q131 51 143.5 63.5 Q156 76 174 76 Q192 76 204.5 63.5 Q217 51 217 34 Z " />
<glyph glyph-name="at" unicode="&#x40;" horiz-adv-x="857" d="M410 341 Q375 339 351.5 321 Q328 303 328 271 Q328 237 345.5 219 Q363 201 402 201 Q457 201 512 250 L512 349 L410 341 Z M446 684 Q525 684 588.5 660.5 Q652 637 696 594.5 Q740 552 763.5 492.5 Q787 433 787 360 Q786 310 771.5 272.5 Q757 235 733.5 210 Q710 185 681 173 Q652 161 623 161 Q592 161 563.5 172.5 Q535 184 522 216 Q500 195 464 178 Q428 161 385 161 Q353 161 332.5 172 Q312 183 300.5 199 Q289 215 284.5 233.5 Q280 252 280 268 Q280 293 289.5 312.5 Q299 332 314.5 345.5 Q330 359 350 366.5 Q370 374 391 376 L512 386 L512 414 Q512 465 494 484.5 Q476 504 430 504 Q376 504 314 482 L302 516 Q333 531 369 539 Q405 547 440 547 Q494 547 524.5 519.5 Q555 492 555 425 L555 267 Q555 234 573 216 Q591 198 628 198 Q648 198 669.5 207.5 Q691 217 708.5 236.5 Q726 256 737 286.5 Q748 317 748 359 Q748 428 726.5 481.5 Q705 535 665.5 572.5 Q626 610 570 629.5 Q514 649 446 649 Q377 649 316 625 Q255 601 208.5 558.5 Q162 516 135 458.5 Q108 401 108 334 Q108 266 132 208 Q156 150 197.5 108 Q239 66 295.5 42 Q352 18 418 18 Q447 18 475.5 22 Q504 26 537 37 L546 5 Q523 -5 489.5 -11.5 Q456 -18 421 -18 Q344 -18 280 8.5 Q216 35 169 81.5 Q122 128 96 192.5 Q70 257 70 333 Q70 409 100 473.5 Q130 538 181.5 584.5 Q233 631 301 657.5 Q369 684 446 684 Z " />
<glyph glyph-name="A" unicode="A" horiz-adv-x="636" d="M430 0 L430 46 L501 46 L457 189 L180 189 L136 46 L210 46 L210 0 L20 0 L20 46 L78 46 Q126 200 180 365 Q234 530 283 684 L355 684 L562 46 L617 46 L617 0 L430 0 Z M342 555 L320 629 L318 629 Q318 627 317 623.5 Q316 620 313.5 612 Q311 604 306.5 590 Q302 576 295 554 Q282 514 258.5 439.5 Q235 365 197 239 L441 239 L342 555 Z " />
<glyph glyph-name="B" unicode="B" horiz-adv-x="587" d="M44 637 L44 683 L329 683 Q427 683 476.5 634.5 Q526 586 526 511 Q526 493 522 471.5 Q518 450 507.5 429 Q497 408 478 389 Q459 370 428 357 Q461 348 483.5 329 Q506 310 520 286 Q534 262 540.5 235.5 Q547 209 547 185 Q547 143 531.5 109 Q516 75 490.5 50.5 Q465 26 432 13 Q399 0 363 0 L40 0 L40 47 L108 47 L108 637 L44 637 Z M491 190 Q491 217 481.5 242.5 Q472 268 453.5 287.5 Q435 307 406.5 319 Q378 331 341 331 L165 331 L165 47 L341 47 Q382 47 410.5 59 Q439 71 457 90.5 Q475 110 483 136 Q491 162 491 190 Z M470 506 Q470 534 461.5 558 Q453 582 435 599.5 Q417 617 389 627 Q361 637 322 637 L165 637 L165 378 L322 378 Q394 378 432 413.5 Q470 449 470 506 Z " />
<glyph glyph-name="C" unicode="C" horiz-adv-x="545" d="M515 23 Q499 17 476.5 11.5 Q454 6 429.5 2 Q405 -2 379 -4.5 Q353 -7 331 -7 Q255 -7 201.5 17 Q148 41 114.5 86 Q81 131 65.5 194.5 Q50 258 50 337 Q50 372 55.5 412 Q61 452 73.5 491.5 Q86 531 107 567.5 Q128 604 159.5 632 Q191 660 234.5 676.5 Q278 693 335 693 Q392 693 434 685 Q476 677 504 666 L504 522 L456 522 L456 629 Q433 636 401 640.5 Q369 645 337 645 Q278 645 234.5 622.5 Q191 600 163 559.5 Q135 519 121.5 462 Q108 405 108 335 Q108 276 117 223 Q126 170 151 130 Q176 90 221 66 Q266 42 338 42 Q352 42 372 43 Q392 44 414 47 Q436 50 459 54.5 Q482 59 503 66 L515 23 Z " />
<glyph glyph-name="D" unicode="D" horiz-adv-x="633" d="M583 343 Q583 272 570 210 Q557 148 525 101 Q493 54 439 27 Q385 0 304 0 L40 0 L40 46 L108 46 L108 637 L44 637 L44 683 L314 683 Q394 683 446 655.5 Q498 628 528.5 581.5 Q559 535 571 473 Q583 411 583 343 Z M526 335 Q526 409 514 460.5 Q502 512 483 545.5 Q464 579 440 597.5 Q416 616 391 625 Q366 634 343 635.5 Q320 637 304 637 L167 637 L167 47 L296 47 Q310 47 332.5 48 Q355 49 381 56.5 Q407 64 432.5 81.5 Q458 99 479 131 Q500 163 513 212.5 Q526 262 526 335 Z " />
<glyph glyph-name="E" unicode="E" horiz-adv-x="540" d="M40 46 L106 46 L106 637 L44 637 L44 682 L493 682 L493 548 L445 548 L445 637 L163 637 L163 382 L442 388 L442 334 L163 338 L163 46 L460 46 L460 135 L510 135 L510 0 L40 0 L40 46 Z " />
<glyph glyph-name="F" unicode="F" horiz-adv-x="513" d="M260 0 L40 0 L40 46 L106 46 L106 637 L44 637 L44 682 L493 682 L493 548 L445 548 L445 637 L163 637 L163 382 L442 388 L442 334 L163 338 L163 46 L260 46 L260 0 Z " />
<glyph glyph-name="G" unicode="G" horiz-adv-x="606" d="M350 693 Q407 693 449 685 Q491 677 519 666 L519 522 L471 522 L471 629 Q448 636 416 640.5 Q384 645 352 645 Q289 645 243 622.5 Q197 600 167 559.5 Q137 519 122.5 462 Q108 405 108 335 Q108 276 117.5 223.5 Q127 171 152.5 130.5 Q178 90 222 66.5 Q266 43 336 43 Q350 43 368 44 Q386 45 404.5 47 Q423 49 440 52 Q457 55 469 60 L469 303 L366 303 L366 348 L576 348 L576 303 L524 303 L524 22 Q476 7 426.5 0 Q377 -7 329 -7 Q254 -7 201.5 17 Q149 41 115 86 Q81 131 65.5 194.5 Q50 258 50 337 Q50 372 55.5 412 Q61 452 74 491.5 Q87 531 108.5 567.5 Q130 604 163.5 632 Q197 660 243 676.5 Q289 693 350 693 Z " />
<glyph glyph-name="H" unicode="H" horiz-adv-x="664" d="M442 0 L442 47 L504 47 L504 336 L159 336 L159 47 L222 47 L222 0 L40 0 L40 47 L102 47 L102 637 L40 637 L40 683 L222 683 L222 637 L159 637 L159 385 L504 385 L504 637 L442 637 L442 683 L624 683 L624 637 L561 637 L561 47 L624 47 L624 0 L442 0 Z " />
<glyph glyph-name="I" unicode="I" horiz-adv-x="321" d="M70 0 L70 46 L131 46 L131 637 L70 637 L70 683 L251 683 L251 637 L188 637 L188 46 L251 46 L251 0 L70 0 Z " />
<glyph glyph-name="J" unicode="J" horiz-adv-x="321" d="M56 637 L56 683 L271 683 L271 637 L196 637 L195 122 Q195 61 181.5 15 Q168 -31 142 -66 Q116 -101 78 -127 Q40 -153 -10 -174 L-26 -136 Q17 -112 47.5 -88 Q78 -64 98 -35.5 Q118 -7 127.5 27 Q137 61 137 106 L138 637 L56 637 Z " />
<glyph glyph-name="K" unicode="K" horiz-adv-x="608" d="M289 413 L534 48 L593 48 L593 0 L399 0 L398 48 L467 48 L248 374 L159 287 L159 47 L224 47 L224 0 L40 0 L40 47 L102 47 L102 637 L40 637 L40 683 L222 683 L222 637 L159 637 L159 351 L449 636 L380 636 L380 683 L571 683 L571 636 L517 636 L289 413 Z " />
<glyph glyph-name="L" unicode="L" horiz-adv-x="520" d="M236 637 L163 637 L163 46 L460 46 L460 165 L510 165 L510 0 L40 0 L40 46 L106 46 L106 637 L44 637 L44 682 L236 682 L236 637 Z " />
<glyph glyph-name="M" unicode="M" horiz-adv-x="825" d="M416 130 L473 260 L659 683 L785 683 L785 637 L723 637 L723 46 L785 46 L785 0 L603 0 L603 46 L667 46 L667 580 L665 580 L616 466 L439 67 L384 67 L202 474 L156 580 L154 580 L156 46 L221 46 L221 0 L40 0 L40 46 L101 46 L101 637 L40 637 L40 683 L166 683 L354 258 L410 130 L416 130 Z " />
<glyph glyph-name="N" unicode="N" horiz-adv-x="699" d="M539 104 L539 637 L469 637 L469 683 L659 683 L659 637 L594 637 L594 0 L541 0 L237 475 L164 592 L161 591 L162 47 L232 47 L232 0 L40 0 L40 47 L107 47 L107 637 L40 637 L40 683 L168 683 L450 238 L534 104 L539 104 Z " />
<glyph glyph-name="O" unicode="O" horiz-adv-x="648" d="M598 338 Q598 264 581 201 Q564 138 530.5 92 Q497 46 447 19.5 Q397 -7 330 -7 Q253 -7 199.5 17 Q146 41 113 85 Q80 129 65 192.5 Q50 256 50 335 Q50 405 64 470 Q78 535 110.5 584.5 Q143 634 196.5 663.5 Q250 693 330 693 Q411 693 463 663 Q515 633 545 583.5 Q575 534 586.5 470 Q598 406 598 338 Z M540 335 Q540 387 532.5 442 Q525 497 502.5 542.5 Q480 588 438.5 617 Q397 646 330 646 Q263 646 220 619 Q177 592 152 548 Q127 504 117.5 448 Q108 392 108 333 Q108 188 160.5 114 Q213 40 330 40 Q384 40 423.5 63.5 Q463 87 489 127 Q515 167 527.5 221 Q540 275 540 335 Z " />
<glyph glyph-name="P" unicode="P" horiz-adv-x="542" d="M40 0 L40 46 L103 46 L103 637 L40 637 L40 683 L310 683 Q351 683 388 671.5 Q425 660 452.5 636 Q480 612 496 575.5 Q512 539 512 490 Q512 461 503.5 426 Q495 391 473.5 360.5 Q452 330 414 309 Q376 288 318 288 L160 288 L160 46 L244 46 L244 0 L40 0 Z M315 334 Q340 334 365.5 341.5 Q391 349 410.5 366.5 Q430 384 442.5 413.5 Q455 443 455 487 Q455 525 444 553 Q433 581 413.5 600 Q394 619 368 628 Q342 637 312 637 L160 637 L160 334 L315 334 Z " />
<glyph glyph-name="Q" unicode="Q" horiz-adv-x="647" d="M598 338 Q598 281 588 230.5 Q578 180 558 138 Q538 96 508 64.5 Q478 33 438 15 L596 -23 L572 -81 L341 -7 L330 -7 Q253 -7 199.5 17 Q146 41 113 85 Q80 129 65 192.5 Q50 256 50 335 Q50 405 64 470 Q78 535 110.5 584.5 Q143 634 196.5 663.5 Q250 693 330 693 Q411 693 463 663 Q515 633 545 583.5 Q575 534 586.5 470 Q598 406 598 338 Z M540 335 Q540 387 532.5 442 Q525 497 502.5 542.5 Q480 588 438.5 617 Q397 646 330 646 Q263 646 220 619 Q177 592 152 548 Q127 504 117.5 448 Q108 392 108 333 Q108 188 160.5 114 Q213 40 330 40 Q384 40 423.5 63.5 Q463 87 489 127 Q515 167 527.5 221 Q540 275 540 335 Z " />
<glyph glyph-name="R" unicode="R" horiz-adv-x="585" d="M40 0 L40 46 L103 46 L103 637 L40 637 L40 683 L310 683 Q351 683 388 673 Q425 663 452.5 641 Q480 619 496 584 Q512 549 512 500 Q512 476 506 447.5 Q500 419 485 393 Q470 367 444 346 Q418 325 379 315 L506 47 L576 38 L576 5 Q561 0 541 -3.5 Q521 -7 507 -7 Q481 -7 471 5 Q461 17 452 37 L325 308 L160 308 L160 46 L244 46 L244 0 L40 0 Z M315 354 Q340 354 365.5 359.5 Q391 365 410.5 381 Q430 397 442.5 425 Q455 453 455 497 Q455 535 444 561.5 Q433 588 413.5 605 Q394 622 368 629.5 Q342 637 312 637 L160 637 L160 354 L315 354 Z " />
<glyph glyph-name="S" unicode="S" horiz-adv-x="513" d="M83 168 L83 80 Q124 59 161.5 51 Q199 43 239 43 Q282 43 316 50 Q350 57 373.5 73.5 Q397 90 409.5 117.5 Q422 145 422 186 Q422 221 409.5 244 Q397 267 375 282 Q353 297 323.5 307 Q294 317 260 326 Q218 337 179.5 350 Q141 363 111 382.5 Q81 402 63.5 431.5 Q46 461 46 506 Q46 552 63 587 Q80 622 109 645.5 Q138 669 176.5 681 Q215 693 258 693 Q277 693 299 691.5 Q321 690 344 685.5 Q367 681 389.5 673 Q412 665 432 653 L432 529 L383 529 L383 623 Q355 636 320.5 640.5 Q286 645 254 645 Q188 645 145.5 610.5 Q103 576 103 505 Q103 474 117 453 Q131 432 153.5 418 Q176 404 204.5 395 Q233 386 262 379 Q300 369 338.5 358 Q377 347 408 326.5 Q439 306 458.5 272.5 Q478 239 478 185 Q478 133 459 96.5 Q440 60 408 37 Q376 14 333.5 3.5 Q291 -7 243 -7 Q189 -7 135.5 4.5 Q82 16 35 45 L35 168 L83 168 Z " />
<glyph glyph-name="T" unicode="T" horiz-adv-x="518" d="M503 538 L454 538 L454 637 L288 637 L288 46 L362 46 L362 0 L160 0 L160 46 L232 46 L232 637 L63 637 L63 538 L15 538 L15 683 L502 683 L503 538 Z " />
<glyph glyph-name="U" unicode="U" horiz-adv-x="682" d="M461 637 L461 683 L652 683 L652 637 L589 637 L589 243 Q589 187 573.5 141 Q558 95 527 62 Q496 29 449 11 Q402 -7 339 -7 Q209 -7 150 59.5 Q91 126 91 243 L91 637 L30 637 L30 683 L221 683 L221 637 L148 637 L148 244 Q148 143 198 92 Q248 41 339 41 Q434 41 483.5 92 Q533 143 533 244 L533 637 L461 637 Z " />
<glyph glyph-name="V" unicode="V" horiz-adv-x="603" d="M308 66 L346 198 L480 637 L418 637 L418 683 L598 683 L598 637 L537 637 L336 0 L272 0 L71 637 L10 637 L10 683 L192 683 L192 637 L128 637 L266 195 L304 66 L308 66 Z " />
<glyph glyph-name="W" unicode="W" horiz-adv-x="881" d="M690 637 L690 683 L876 683 L876 637 L814 637 Q796 561 776.5 480.5 Q757 400 737 318.5 Q717 237 697 156.5 Q677 76 659 0 L597 0 L475 413 L447 513 L445 513 L415 408 L295 0 L230 0 L71 637 L10 637 L10 683 L201 683 L201 637 L128 637 L240 171 L263 72 L265 72 L293 174 L417 603 L407 637 L336 637 L336 683 L537 683 L537 637 L463 637 L604 161 L629 72 L631 72 L654 173 L761 637 L690 637 Z " />
<glyph glyph-name="X" unicode="X" horiz-adv-x="604" d="M95 637 L35 637 L35 683 L226 683 L226 637 L156 637 L303 395 L452 637 L379 637 L379 683 L573 683 L573 637 L513 637 L333 351 L521 47 L584 47 L584 0 L384 0 L384 47 L461 47 L298 312 L140 47 L221 47 L221 0 L20 0 L20 47 L80 47 L269 356 L95 637 Z " />
<glyph glyph-name="Y" unicode="Y" horiz-adv-x="550" d="M277 360 L432 637 L365 637 L365 683 L540 683 L540 637 L488 637 L303 310 L303 46 L385 46 L385 0 L163 0 L163 46 L245 46 L245 307 L64 637 L10 637 L10 683 L189 683 L189 637 L124 637 L273 360 L277 360 Z " />
<glyph glyph-name="Z" unicode="Z" horiz-adv-x="496" d="M20 0 L20 46 L393 637 L92 637 L92 538 L44 538 L44 683 L459 683 L459 637 L86 47 L426 47 L426 155 L476 155 L476 0 L20 0 Z " />
<glyph glyph-name="bracketleft" unicode="&#x5b;" horiz-adv-x="235" d="M50 -160 L50 696 L200 696 L200 654 L102 654 L102 -115 L200 -115 L200 -160 L50 -160 Z " />
<glyph glyph-name="backslash" unicode="&#x5c;" horiz-adv-x="315" d="M18 698 L51 698 L306 -26 L272 -26 L18 698 Z " />
<glyph glyph-name="bracketright" unicode="&#x5d;" horiz-adv-x="235" d="M30 -160 L30 -115 L128 -115 L128 654 L30 654 L30 696 L180 696 L180 -160 L30 -160 Z " />
<glyph glyph-name="asciicircum" unicode="&#x5e;" horiz-adv-x="423" d="M350 393 L210 637 L69 393 L22 393 L192 683 L231 683 L397 393 L350 393 Z " />
<glyph glyph-name="underscore" unicode="&#x5f;" horiz-adv-x="500" d="M0 -126 L0 -90 L500 -90 L500 -126 L0 -126 Z " />
<glyph glyph-name="grave" unicode="&#x60;" horiz-adv-x="478" d="M254 536 L123 675 L172 715 L283 557 L254 536 Z " />
<glyph glyph-name="a" unicode="a" horiz-adv-x="478" d="M204 232 Q149 229 121.5 203.5 Q94 178 94 136 Q94 89 117.5 64.5 Q141 40 194 40 Q229 40 266 55.5 Q303 71 341 106 L341 239 L204 232 Z M394 46 L464 46 L468 13 Q451 5 430 0.5 Q409 -4 395 -4 Q369 -4 355.5 7 Q342 18 341 55 L339 56 Q310 32 284.5 19 Q259 6 238 0.5 Q217 -5 200.5 -6 Q184 -7 172 -7 Q131 -7 104.5 7 Q78 21 62.5 42 Q47 63 41 87 Q35 111 35 132 Q35 166 48 192 Q61 218 84.5 236 Q108 254 140.5 263.5 Q173 273 211 275 L341 282 L341 322 Q341 357 335.5 380.5 Q330 404 317.5 418 Q305 432 283.5 438 Q262 444 231 444 Q160 444 81 416 L66 456 Q107 475 153 485 Q199 495 243 495 Q315 495 354.5 459.5 Q394 424 394 336 L394 46 Z " />
<glyph glyph-name="b" unicode="b" horiz-adv-x="509" d="M280 498 Q332 498 367 478.5 Q402 459 422 424.5 Q442 390 450.5 343 Q459 296 459 241 Q459 190 449 145 Q439 100 416 66.5 Q393 33 355 13.5 Q317 -6 262 -6 Q208 -6 162 5.5 Q116 17 77 34 L77 665 L-7 665 L-7 709 L131 709 L131 452 Q176 477 211.5 487.5 Q247 498 280 498 Z M277 450 Q238 450 199 436.5 Q160 423 131 406 L131 66 Q164 52 196.5 47 Q229 42 258 42 Q292 42 319 52.5 Q346 63 364.5 86 Q383 109 392.5 147 Q402 185 402 239 Q402 300 393 341 Q384 382 368 406 Q352 430 328.5 440 Q305 450 277 450 Z " />
<glyph glyph-name="c" unicode="c" horiz-adv-x="433" d="M249 498 Q289 498 326 490.5 Q363 483 391 470 L391 352 L347 352 L347 438 Q321 446 299 449 Q277 452 252 452 Q211 452 181.5 435.5 Q152 419 133 390.5 Q114 362 105 322.5 Q96 283 96 237 Q96 196 103 160 Q110 124 126.5 97 Q143 70 171 54.5 Q199 39 242 39 Q282 39 316 47.5 Q350 56 390 73 L406 37 Q377 20 334 7.5 Q291 -5 243 -5 Q186 -5 147.5 13 Q109 31 85 63 Q61 95 50.5 139.5 Q40 184 40 237 Q40 274 48.5 319.5 Q57 365 80 404.5 Q103 444 143.5 471 Q184 498 249 498 Z " />
<glyph glyph-name="d" unicode="d" horiz-adv-x="512" d="M366 48 Q338 26 299 10 Q260 -6 218 -6 Q168 -6 134 13.5 Q100 33 79 66 Q58 99 49 143 Q40 187 40 235 Q40 290 50.5 338.5 Q61 387 83.5 422 Q106 457 142.5 477.5 Q179 498 232 498 Q247 498 264.5 496 Q282 494 300.5 489.5 Q319 485 336.5 477.5 Q354 470 368 460 L368 665 L282 665 L282 709 L423 709 L423 43 L502 43 L502 0 L368 0 L368 45 L366 48 Z M368 411 Q360 417 345 424 Q330 431 312 437 Q294 443 273.5 446.5 Q253 450 235 450 Q206 450 181 439 Q156 428 137 402.5 Q118 377 107.5 335.5 Q97 294 97 233 Q97 179 106 142.5 Q115 106 132.5 83.5 Q150 61 174.5 51.5 Q199 42 229 42 Q245 42 265.5 47 Q286 52 306 60 Q326 68 342.5 78 Q359 88 368 97 L368 411 Z " />
<glyph glyph-name="e" unicode="e" horiz-adv-x="462" d="M242 497 Q289 497 321 483 Q353 469 373.5 447.5 Q394 426 405 399.5 Q416 373 420.5 347.5 Q425 322 425.5 300.5 Q426 279 426 267 L426 229 L96 229 Q96 193 102 158.5 Q108 124 124.5 98 Q141 72 169.5 56 Q198 40 242 40 Q264 40 283 42 Q302 44 320 48.5 Q338 53 357 60 Q376 67 397 76 L413 39 Q371 16 331 5.5 Q291 -5 243 -5 Q181 -5 142 14.5 Q103 34 80 67.5 Q57 101 48.5 146 Q40 191 40 242 Q40 261 42.5 287.5 Q45 314 52.5 342.5 Q60 371 73.5 398.5 Q87 426 109.5 448 Q132 470 164.5 483.5 Q197 497 242 497 Z M242 450 Q203 450 176.5 435.5 Q150 421 133 396.5 Q116 372 108 340.5 Q100 309 97 275 L372 275 Q372 314 365.5 346 Q359 378 344 401.5 Q329 425 304 437.5 Q279 450 242 450 Z " />
<glyph glyph-name="f" unicode="f" horiz-adv-x="320" d="M317 665 Q300 667 281.5 669 Q263 671 248 671 Q197 671 171.5 650.5 Q146 630 146 578 L146 488 L290 488 L290 442 L146 442 L146 44 L233 44 L233 0 L20 0 L20 44 L93 44 L93 442 L26 442 L26 472 L94 489 L94 576 Q94 613 105 639.5 Q116 666 135 683.5 Q154 701 180.5 709.5 Q207 718 238 718 Q258 718 280.5 715.5 Q303 713 325 708 L317 665 L317 665 Z " />
<glyph glyph-name="g" unicode="g" horiz-adv-x="482" d="M385 438 Q404 419 413 391 Q422 363 422 329 Q422 290 408 259.5 Q394 229 368 207.5 Q342 186 306 175 Q270 164 227 164 L174 164 Q161 164 150 164 Q139 164 129 162 Q109 158 98.5 150 Q88 142 88 126 Q88 108 103.5 98.5 Q119 89 144 89 L264 89 Q352 89 398.5 49.5 Q445 10 445 -61 Q445 -98 428 -127 Q411 -156 381.5 -175.5 Q352 -195 312 -205 Q272 -215 227 -215 Q170 -215 131.5 -203 Q93 -191 70 -171 Q47 -151 37.5 -125 Q28 -99 28 -70 Q28 -48 34.5 -29 Q41 -10 50.5 5 Q60 20 71.5 31 Q83 42 93 47 Q33 58 31 117 Q30 142 39 157.5 Q48 173 61 182 Q74 191 88.5 195 Q103 199 114 200 Q102 206 90 216 Q78 226 68 241 Q58 256 52 277 Q46 298 46 326 Q46 374 63.5 407.5 Q81 441 108 461.5 Q135 482 168.5 491 Q202 500 234 499 Q255 498 275 495.5 Q295 493 315 487 L465 487 L465 443 L387 443 L385 438 Z M233 450 Q170 450 137 419.5 Q104 389 104 329 Q104 275 136 242.5 Q168 210 221 210 Q284 210 324.5 239 Q365 268 365 329 Q365 349 359 370.5 Q353 392 338 409.5 Q323 427 297.5 438.5 Q272 450 233 450 Z M148 39 Q137 36 125.5 26 Q114 16 104 2 Q94 -12 88 -28.5 Q82 -45 82 -61 Q82 -82 89.5 -101.5 Q97 -121 114.5 -136 Q132 -151 161.5 -160 Q191 -169 236 -169 Q269 -169 297 -161.5 Q325 -154 346 -139.5 Q367 -125 379 -105 Q391 -85 391 -61 Q391 -44 385 -26.5 Q379 -9 364 5.5 Q349 20 323.5 29.5 Q298 39 260 39 L148 39 Z " />
<glyph glyph-name="h" unicode="h" horiz-adv-x="556" d="M96 0 L96 665 L20 665 L20 709 L150 709 L150 443 Q193 469 240.5 483.5 Q288 498 324 498 Q375 498 402.5 483 Q430 468 442.5 445.5 Q455 423 457.5 396.5 Q460 370 460 346 L460 46 L534 46 L534 13 Q517 5 496 0.5 Q475 -4 461 -4 Q435 -4 421.5 7 Q408 18 407 55 L407 331 Q407 358 404.5 380 Q402 402 393 417.5 Q384 433 366 441.5 Q348 450 316 450 Q296 450 274.5 445.5 Q253 441 231 433.5 Q209 426 188 416.5 Q167 407 150 398 L150 0 L96 0 Z " />
<glyph glyph-name="i" unicode="i" horiz-adv-x="267" d="M95 607 Q95 624 106.5 635.5 Q118 647 134 647 Q151 647 162.5 635.5 Q174 624 174 607 Q174 591 162.5 579.5 Q151 568 134 568 Q118 568 106.5 579.5 Q95 591 95 607 Z M53 443 L53 487 L164 487 L164 46 L238 46 L238 13 Q221 5 200 0.5 Q179 -4 165 -4 Q139 -4 125.5 7 Q112 18 111 55 L111 443 L53 443 Z " />
<glyph glyph-name="k" unicode="k" horiz-adv-x="492" d="M148 202 L148 44 L221 44 L221 0 L23 0 L23 44 L95 44 L95 665 L12 665 L12 709 L148 709 L148 261 L342 443 L276 443 L276 487 L456 487 L456 443 L405 443 L258 304 L421 45 L488 36 L488 6 Q474 -1 458 -4 Q442 -7 428 -7 Q403 -7 393 1.5 Q383 10 371 28 L222 270 L148 202 Z " />
<glyph glyph-name="l" unicode="l" horiz-adv-x="274" d="M171 44 L244 44 L244 0 L46 0 L46 44 L118 44 L118 665 L35 665 L35 709 L171 709 L171 44 Z " />
<glyph glyph-name="m" unicode="m" horiz-adv-x="850" d="M318 496 Q354 496 384 482.5 Q414 469 433 440 Q451 451 472.5 461.5 Q494 472 517.5 480 Q541 488 564.5 492.5 Q588 497 610 497 Q663 497 692 481 Q721 465 735 441 Q749 417 751.5 389.5 Q754 362 754 338 L754 46 L828 46 L828 13 Q811 5 790 0.5 Q769 -4 755 -4 Q729 -4 715.5 7 Q702 18 701 55 L701 328 Q701 356 697.5 378.5 Q694 401 683 417 Q672 433 652.5 441 Q633 449 601 449 Q583 449 562 445.5 Q541 442 520 435.5 Q499 429 479.5 420.5 Q460 412 445 402 Q450 385 451 366.5 Q452 348 452 336 L452 0 L398 0 L398 347 Q398 405 371 427 Q344 449 305 449 Q267 449 224.5 433 Q182 417 149 397 L149 0 L96 0 L96 442 L20 442 L20 487 L149 487 L149 446 L153 443 Q195 468 237.5 482 Q280 496 318 496 Z " />
<glyph glyph-name="n" unicode="n" horiz-adv-x="556" d="M324 498 Q375 498 402.5 483 Q430 468 442.5 445.5 Q455 423 457.5 396.5 Q460 370 460 346 L460 46 L534 46 L534 13 Q517 5 496 0.5 Q475 -4 461 -4 Q435 -4 421.5 7 Q408 18 407 55 L407 331 Q407 358 404.5 380 Q402 402 393 417.5 Q384 433 366 441.5 Q348 450 316 450 Q296 450 274.5 445.5 Q253 441 231 433.5 Q209 426 188 416.5 Q167 407 150 398 L150 0 L96 0 L96 443 L20 443 L20 487 L150 487 L150 447 L153 445 Q195 471 242 484.5 Q289 498 324 498 Z " />
<glyph glyph-name="o" unicode="o" horiz-adv-x="481" d="M385 240 Q385 274 380 311 Q375 348 360 379 Q345 410 317.5 430 Q290 450 245 450 Q200 450 171.5 431 Q143 412 126.5 382 Q110 352 103.5 314 Q97 276 97 239 Q97 200 102.5 164.5 Q108 129 123.5 101 Q139 73 168 56.5 Q197 40 245 40 Q289 40 316.5 58.5 Q344 77 359 105.5 Q374 134 379.5 169.5 Q385 205 385 240 Z M245 497 Q303 497 341 474.5 Q379 452 401.5 416 Q424 380 432.5 334 Q441 288 441 242 Q441 197 432 152.5 Q423 108 399.5 72.5 Q376 37 336 15 Q296 -7 234 -7 Q177 -7 139.5 13.5 Q102 34 80 68.5 Q58 103 49 147.5 Q40 192 40 240 Q40 287 50.5 333 Q61 379 85.5 415.5 Q110 452 149 474.5 Q188 497 245 497 Z " />
<glyph glyph-name="p" unicode="p" horiz-adv-x="507" d="M5 -164 L84 -164 L84 443 L2 443 L2 487 L139 487 L139 437 Q167 460 206.5 476.5 Q246 493 289 493 Q339 493 373 473.5 Q407 454 428 421 Q449 388 458 344 Q467 300 467 252 Q467 196 456.5 148 Q446 100 423.5 65 Q401 30 364 9.5 Q327 -11 275 -11 Q260 -11 242.5 -9 Q225 -7 206.5 -2.5 Q188 2 170.5 9.5 Q153 17 139 27 L139 -164 L225 -164 L225 -208 L5 -208 L5 -164 Z M139 76 Q147 70 162 63 Q177 56 195 50 Q213 44 233.5 40.5 Q254 37 272 37 Q301 37 326 48 Q351 59 370 84.5 Q389 110 399.5 151.5 Q410 193 410 254 Q410 308 401 344.5 Q392 381 374.5 403.5 Q357 426 332.5 435.5 Q308 445 278 445 Q261 445 241 440 Q221 435 201 427 Q181 419 164.5 409 Q148 399 139 390 L139 76 Z " />
<glyph glyph-name="q" unicode="q" horiz-adv-x="510" d="M287 -163 L379 -163 L379 35 Q334 10 298.5 -0.5 Q263 -11 230 -11 Q177 -11 142.5 8 Q108 27 87 61 Q66 95 58 141.5 Q50 188 51 243 Q52 294 63 339.5 Q74 385 97.5 419 Q121 453 158.5 473 Q196 493 251 493 Q305 493 349.5 481.5 Q394 470 433 453 L433 -163 L515 -163 L515 -208 L287 -208 L287 -163 Z M233 37 Q272 37 311 50.5 Q350 64 379 81 L379 421 Q346 435 315 440 Q284 445 255 445 Q188 445 149 397.5 Q110 350 108 241 Q107 182 115.5 143 Q124 104 140.5 80.5 Q157 57 180.5 47 Q204 37 233 37 Z " />
<glyph glyph-name="r" unicode="r" horiz-adv-x="349" d="M158 421 Q172 433 192.5 446.5 Q213 460 236 472 Q259 484 283.5 491.5 Q308 499 330 499 Q338 499 344.5 495 Q351 491 351 477 Q351 464 345 445.5 Q339 427 330 416 L159 397 L159 44 L240 44 L240 0 L29 0 L29 44 L104 44 L104 443 L30 443 L30 487 L157 487 L157 421 L158 421 Z " />
<glyph glyph-name="s" unicode="s" horiz-adv-x="408" d="M73 140 L76 63 Q100 51 131.5 45 Q163 39 189 39 Q216 39 239.5 43 Q263 47 281 57 Q299 67 309 85 Q319 103 319 130 Q319 152 309.5 167 Q300 182 283.5 193 Q267 204 246 212 Q225 220 203 226 Q173 234 144 243.5 Q115 253 92 268 Q69 283 54.5 306.5 Q40 330 40 366 Q40 402 54 427 Q68 452 91 467.5 Q114 483 143.5 490 Q173 497 205 497 Q239 497 274.5 489 Q310 481 339 462 L342 352 L298 352 L295 434 Q276 442 251.5 446.5 Q227 451 204 451 Q158 451 126 432.5 Q94 414 94 364 Q94 342 106 327.5 Q118 313 135.5 303.5 Q153 294 172.5 288.5 Q192 283 207 279 Q237 271 266.5 261.5 Q296 252 319.5 236 Q343 220 357 194.5 Q371 169 371 129 Q371 93 356 67.5 Q341 42 316.5 25.5 Q292 9 259.5 1.5 Q227 -6 192 -6 Q148 -6 105.5 3 Q63 12 33 33 L30 140 L73 140 Z " />
<glyph glyph-name="t" unicode="t" horiz-adv-x="344" d="M145 124 Q145 91 158 67 Q171 43 212 43 Q249 43 308 61 L319 23 Q294 11 264 3.5 Q234 -4 205 -4 Q181 -4 160 1.5 Q139 7 124 19.5 Q109 32 100.5 53 Q92 74 92 104 L92 443 L20 443 L20 471 L93 493 L114 597 L146 605 L146 487 L295 487 L295 443 L145 443 L145 124 Z " />
<glyph glyph-name="u" unicode="u" horiz-adv-x="547" d="M232 -11 Q181 -11 153.5 3.5 Q126 18 113.5 40.5 Q101 63 98.5 90 Q96 117 96 141 L96 443 L20 443 L20 487 L149 487 L149 156 Q149 129 151.5 107 Q154 85 163 69.5 Q172 54 190 45.5 Q208 37 240 37 Q255 37 274.5 41.5 Q294 46 315 54.5 Q336 63 357.5 76 Q379 89 398 106 L398 443 L326 443 L326 487 L451 488 L451 487 L452 487 L451 46 L521 46 L525 13 Q508 5 487 0.5 Q466 -4 452 -4 Q426 -4 412.5 7 Q399 18 398 55 L396 56 Q372 34 347.5 20.5 Q323 7 301 0 Q279 -7 261.5 -9 Q244 -11 232 -11 Z " />
<glyph glyph-name="v" unicode="v" horiz-adv-x="480" d="M7 487 L108 487 L196 201 L242 55 L246 55 L287 191 L365 442 L316 442 L316 487 L470 487 L470 442 L419 442 L273 0 L210 0 L66 442 L7 442 L7 487 Z " />
<glyph glyph-name="w" unicode="w" horiz-adv-x="738" d="M362 333 L320 207 L249 0 L188 0 L58 442 L3 442 L3 487 L98 487 L178 207 L220 58 L224 58 L271 203 L339 401 L326 442 L250 442 L250 487 L437 487 L437 442 L383 442 L474 187 L518 58 L522 58 L556 190 L624 442 L556 442 L556 487 L728 487 L728 442 L677 442 L553 0 L491 0 L412 212 L368 333 L362 333 Z " />
<glyph glyph-name="x" unicode="x" horiz-adv-x="464" d="M238 290 L326 443 L284 443 L284 487 L446 487 L446 443 L382 443 L265 246 L390 44 L455 44 L455 0 L290 0 L290 44 L331 44 L229 214 L130 44 L184 44 L184 0 L10 0 L10 44 L73 44 L200 256 L92 443 L16 443 L16 487 L124 487 L238 290 Z " />
<glyph glyph-name="y" unicode="y" horiz-adv-x="503" d="M286 152 L381 442 L315 442 L315 487 L484 487 L484 442 L433 442 L249 -115 Q232 -169 206.5 -191.5 Q181 -214 137 -214 Q129 -214 104.5 -213 Q80 -212 33 -198 L43 -157 Q67 -162 88 -165.5 Q109 -169 126 -169 Q152 -169 171 -154.5 Q190 -140 204 -99 L236 0 L209 0 L66 442 L16 442 L16 487 L108 487 L212 154 L245 43 L250 43 L286 152 Z " />
<glyph glyph-name="z" unicode="z" horiz-adv-x="416" d="M345 128 L391 128 L391 0 L20 0 L20 39 L319 442 L81 442 L81 358 L36 358 L36 487 L381 487 L381 444 L85 46 L345 46 L345 128 Z " />
<glyph glyph-name="braceleft" unicode="&#x7b;" horiz-adv-x="237" d="M168 -171 Q150 -171 136 -162 Q122 -153 112.5 -139 Q103 -125 97.5 -108 Q92 -91 92 -75 L92 172 Q92 191 90.5 209 Q89 227 83 242 Q77 257 64.5 268 Q52 279 29 283 L29 315 Q52 319 64.5 330.5 Q77 342 83 357 Q89 372 90.5 390 Q92 408 92 427 L92 607 Q92 623 97 639.5 Q102 656 112 670 Q122 684 136 693 Q150 702 168 702 L212 702 L212 659 L191 659 Q167 659 155.5 640.5 Q144 622 144 593 L144 423 Q144 404 142 384.5 Q140 365 134 348 Q128 331 117.5 318.5 Q107 306 89 300 Q126 277 135 248.5 Q144 220 144 176 L144 -62 Q144 -90 152 -108.5 Q160 -127 187 -127 L212 -127 L212 -171 L168 -171 Z " />
<glyph glyph-name="bar" unicode="&#x7c;" horiz-adv-x="211" d="M81 -136 L81 697 L121 697 L121 -136 L81 -136 Z " />
<glyph glyph-name="braceright" unicode="&#x7d;" horiz-adv-x="237" d="M25 -171 L25 -127 L50 -127 Q77 -127 85 -108.5 Q93 -90 93 -62 L93 176 Q93 198 94.5 216 Q96 234 101.5 249 Q107 264 118 276.5 Q129 289 148 300 Q130 306 119.5 318.5 Q109 331 103 348 Q97 365 95 384.5 Q93 404 93 423 L93 593 Q93 622 81.5 640.5 Q70 659 46 659 L25 659 L25 702 L69 702 Q87 702 101 693 Q115 684 125 670 Q135 656 140 639.5 Q145 623 145 607 L145 427 Q145 408 146.5 390 Q148 372 154 357 Q160 342 172.5 330.5 Q185 319 208 315 L208 283 Q185 279 172.5 268 Q160 257 154 242 Q148 227 146.5 209 Q145 191 145 172 L145 -75 Q145 -91 139.5 -108 Q134 -125 124.5 -139 Q115 -153 101 -162 Q87 -171 69 -171 L25 -171 Z " />
<glyph glyph-name="asciitilde" unicode="&#x7e;" horiz-adv-x="540" d="M185 353 Q207 353 234 345.5 Q261 338 288 329 Q315 320 340 312.5 Q365 305 383 305 L452 353 L478 331 Q464 299 436 277 Q408 255 371 255 Q342 255 316.5 262.5 Q291 270 267 278.5 Q243 287 221 294.5 Q199 302 179 302 L105 255 L78 278 Q93 310 121 331.5 Q149 353 185 353 Z " />
<glyph glyph-name="endash" unicode="&#x2013;" horiz-adv-x="500" d="M27 232 L27 279 L476 279 L476 232 L27 232 Z " />
<glyph glyph-name="emdash" unicode="&#x2014;" horiz-adv-x="1000" d="M27 232 L27 279 L968 279 L968 232 L27 232 Z " />
<glyph glyph-name="quoteleft" unicode="&#x2018;" horiz-adv-x="196" d="M146 557 Q146 540 133 526.5 Q120 513 102 513 Q82 513 67.5 527.5 Q53 542 53 567 Q53 585 59.5 605 Q66 625 78 644 Q90 663 106.5 679 Q123 695 143 705 L157 687 Q139 670 128.5 648.5 Q118 627 116 601 Q130 596 138 584.5 Q146 573 146 557 Z " />
<glyph glyph-name="quoteright" unicode="&#x2019;" horiz-adv-x="196" d="M64 661 Q64 678 77 691.5 Q90 705 108 705 Q128 705 142.5 690.5 Q157 676 157 651 Q157 633 150.5 613 Q144 593 132 574 Q120 555 103.5 539 Q87 523 67 513 L53 531 Q71 548 81.5 569.5 Q92 591 94 617 Q80 622 72 633.5 Q64 645 64 661 Z " />
<glyph glyph-name="quotedblleft" unicode="&#x201c;" horiz-adv-x="306" d="M146 557 Q146 540 133 526.5 Q120 513 102 513 Q82 513 67.5 527.5 Q53 542 53 567 Q53 585 59.5 605 Q66 625 78 644 Q90 663 106.5 679 Q123 695 143 705 L157 687 Q139 670 128.5 648.5 Q118 627 116 601 Q130 596 138 584.5 Q146 573 146 557 Z M261 557 Q261 540 248 526.5 Q235 513 217 513 Q197 513 182.5 527.5 Q168 542 168 567 Q168 585 174.5 605 Q181 625 193 644 Q205 663 221.5 679 Q238 695 258 705 L272 687 Q254 670 243.5 648.5 Q233 627 231 601 Q245 596 253 584.5 Q261 573 261 557 Z " />
<glyph glyph-name="quotedblright" unicode="&#x201d;" horiz-adv-x="306" d="M180 661 Q180 678 193 691.5 Q206 705 224 705 Q244 705 258.5 690.5 Q273 676 273 651 Q273 633 266.5 613 Q260 593 248 574 Q236 555 219.5 539 Q203 523 183 513 L169 531 Q187 548 197.5 569.5 Q208 591 210 617 Q196 622 188 633.5 Q180 645 180 661 Z M65 661 Q65 678 78 691.5 Q91 705 109 705 Q129 705 143.5 690.5 Q158 676 158 651 Q158 633 151.5 613 Q145 593 133 574 Q121 555 104.5 539 Q88 523 68 513 L54 531 Q72 548 82.5 569.5 Q93 591 95 617 Q81 622 73 633.5 Q65 645 65 661 Z " />
<glyph glyph-name="bullet" unicode="&#x2022;" horiz-adv-x="288" d="M241 276 Q241 256 233 238.5 Q225 221 211.5 207.5 Q198 194 180.5 186 Q163 178 143 178 Q123 178 105.5 186 Q88 194 75 207.5 Q62 221 54 238.5 Q46 256 46 276 Q46 296 54 314 Q62 332 75 345.5 Q88 359 105.5 367 Q123 375 143 375 Q163 375 180.5 367 Q198 359 211.5 345.5 Q225 332 233 314 Q241 296 241 276 Z " />
<glyph glyph-name="quotesinglbase" unicode="&#x201a;" horiz-adv-x="186" d="M47 34 Q47 51 60 64 Q73 77 91 77 Q111 77 124.5 63 Q138 49 138 25 Q138 -10 114 -46 Q90 -82 51 -102 L37 -84 Q54 -67 64.5 -50.5 Q75 -34 77 -8 Q63 -3 55 8 Q47 19 47 34 Z " />
<glyph glyph-name="quotedblbase" unicode="&#x201e;" horiz-adv-x="293" d="M47 34 Q47 51 60 64 Q73 77 91 77 Q111 77 124.5 63 Q138 49 138 25 Q138 -10 114 -46 Q90 -82 51 -102 L37 -84 Q54 -67 64.5 -50.5 Q75 -34 77 -8 Q63 -3 55 8 Q47 19 47 34 Z M161 34 Q161 51 174 64 Q187 77 205 77 Q225 77 238.5 63 Q252 49 252 25 Q252 -10 228 -46 Q204 -82 165 -102 L151 -84 Q168 -67 178.5 -50.5 Q189 -34 191 -8 Q177 -3 169 8 Q161 19 161 34 Z " />
<glyph glyph-name="alpha" unicode="&#x3b1;" horiz-adv-x="514" d="M368 384 Q359 393 344 404 Q329 415 311.5 424.5 Q294 434 275 440 Q256 446 240 446 Q198 446 170.5 427.5 Q143 409 126.5 379.5 Q110 350 103.5 314 Q97 278 97 242 Q97 180 106.5 141 Q116 102 132.5 79 Q149 56 171.5 47.5 Q194 39 220 39 Q251 39 290 55 Q329 71 367 106 L368 384 Z M420 46 L490 46 L494 13 Q477 5 456 0.5 Q435 -4 421 -4 Q395 -4 381.5 7 Q368 18 367 55 L365 56 Q336 32 310.5 19 Q285 6 264 0 Q243 -6 226.5 -7 Q210 -8 198 -8 Q116 -8 78 58.5 Q40 125 40 240 Q40 285 50 330 Q60 375 83 411.5 Q106 448 143 471 Q180 494 233 494 Q276 494 311.5 476.5 Q347 459 370 437 L389 487 L420 487 L420 46 Z " />
<glyph glyph-name="beta" unicode="&#x3b2;" horiz-adv-x="472" d="M170 375 L170 422 L228 422 Q252 422 273 430.5 Q294 439 309.5 456 Q325 473 334.5 497.5 Q344 522 344 554 Q344 602 311.5 634 Q279 666 224 666 Q170 666 137 634 Q104 602 104 536 L104 77 Q122 65 141.5 57 Q161 49 179.5 44.5 Q198 40 213.5 38.5 Q229 37 238 37 Q306 37 341 85 Q376 133 376 215 Q376 292 340 333.5 Q304 375 229 375 L170 375 Z M50 532 Q50 580 64.5 614 Q79 648 102.5 669.5 Q126 691 156.5 701.5 Q187 712 219 712 Q304 712 352.5 670 Q401 628 401 549 Q401 524 393.5 501 Q386 478 374 459 Q362 440 346 425.5 Q330 411 314 403 Q382 380 407 331 Q432 282 432 212 Q432 156 417.5 114 Q403 72 377 44.5 Q351 17 315.5 3 Q280 -11 238 -11 Q199 -11 161 0.5 Q123 12 104 29 L104 -207 L50 -207 L50 532 Z " />
<glyph glyph-name="gamma" unicode="&#x3b3;" horiz-adv-x="460" d="M242 103 L351 440 L297 440 L297 487 L462 487 L462 440 L404 440 L266 28 L266 -207 L213 -207 L213 28 L62 440 L5 440 L5 487 L103 487 L238 103 L242 103 Z " />
<glyph glyph-name="delta" unicode="&#x3b4;" horiz-adv-x="481" d="M248 655 Q225 655 204 650.5 Q183 646 167 636 Q151 626 141.5 611.5 Q132 597 132 576 Q132 553 145 536.5 Q158 520 176.5 508.5 Q195 497 215.5 490 Q236 483 251 479 Q299 465 335 445.5 Q371 426 394.5 397 Q418 368 429.5 327 Q441 286 441 228 Q441 190 432 148.5 Q423 107 399.5 72.5 Q376 38 336 15.5 Q296 -7 234 -7 Q177 -7 139.5 13.5 Q102 34 80 67 Q58 100 49 142 Q40 184 40 226 Q40 262 47 297 Q54 332 69 362 Q84 392 108 416 Q132 440 167 453 Q149 461 133 471.5 Q117 482 105 496 Q93 510 85.5 528 Q78 546 78 570 Q78 606 93 631 Q108 656 132 671.5 Q156 687 186.5 694 Q217 701 249 701 Q283 701 321 693 Q359 685 388 666 L391 556 L347 556 L344 638 Q325 646 298 650.5 Q271 655 248 655 Z M385 226 Q385 257 382 288.5 Q379 320 364.5 348 Q350 376 319.5 397 Q289 418 235 428 Q193 421 166 401.5 Q139 382 124 354.5 Q109 327 103 293.5 Q97 260 97 225 Q97 192 102.5 158.5 Q108 125 123.5 99 Q139 73 168 56.5 Q197 40 245 40 Q289 40 316.5 58.5 Q344 77 359 105 Q374 133 379.5 165.5 Q385 198 385 226 Z " />
<glyph glyph-name="epsilon" unicode="&#x3b5;" horiz-adv-x="414" d="M127 265 Q111 269 95.5 277 Q80 285 67.5 296.5 Q55 308 47.5 324 Q40 340 40 360 Q40 394 54 420 Q68 446 92 463.5 Q116 481 147.5 489.5 Q179 498 213 498 Q253 498 295.5 491.5 Q338 485 366 473 L368 354 L324 354 L323 440 Q296 448 269.5 450 Q243 452 217 452 Q184 452 161 445 Q138 438 124 426 Q110 414 103.5 398 Q97 382 97 365 Q97 338 109 322.5 Q121 307 139 299.5 Q157 292 178.5 290 Q200 288 220 289 L281 289 L281 243 L219 242 Q200 242 177 237.5 Q154 233 134 222 Q114 211 100.5 192 Q87 173 87 142 Q87 115 98 95.5 Q109 76 127.5 63.5 Q146 51 171.5 45 Q197 39 226 39 Q268 39 302 49 Q336 59 377 76 L394 40 Q365 23 319.5 9 Q274 -5 226 -5 Q191 -5 156 1.5 Q121 8 93 24 Q65 40 47.5 67 Q30 94 30 136 Q30 186 58.5 218.5 Q87 251 125 262 L127 265 Z " />
<glyph glyph-name="zeta" unicode="&#x3b6;" horiz-adv-x="361" d="M334 661 L105 661 L105 591 L60 591 L60 706 L408 706 L408 663 Q339 606 281 544 Q223 482 181 421.5 Q139 361 115.5 305.5 Q92 250 92 206 Q92 174 101.5 152.5 Q111 131 135 114 Q159 97 200.5 80.5 Q242 64 307 42 Q351 28 368 9 Q385 -10 385 -32 Q385 -57 362 -91.5 Q339 -126 305 -167 L272 -142 Q284 -127 292 -116 Q300 -105 307 -95 Q325 -68 328 -56 Q331 -44 330 -39 Q329 -27 313.5 -17.5 Q298 -8 277 0 Q218 20 173 36.5 Q128 53 98 74 Q68 95 53 125.5 Q38 156 38 206 Q38 240 55 290.5 Q72 341 108.5 401.5 Q145 462 201 528 Q257 594 335 658 L334 661 Z " />
<glyph glyph-name="eta" unicode="&#x3b7;" horiz-adv-x="556" d="M96 0 L96 443 L20 443 L20 487 L150 487 L150 443 Q193 469 240.5 483.5 Q288 498 324 498 Q375 498 402.5 483 Q430 468 442.5 445.5 Q455 423 457.5 396.5 Q460 370 460 346 L460 46 L534 46 L534 13 Q517 5 496 0.5 Q475 -4 461 -4 Q435 -4 421.5 7 Q408 18 407 55 L407 331 Q407 358 404.5 380 Q402 402 393 417.5 Q384 433 366 441.5 Q348 450 316 450 Q296 450 274.5 445.5 Q253 441 231 433.5 Q209 426 188 416.5 Q167 407 150 398 L150 0 L96 0 Z " />
<glyph glyph-name="theta" unicode="&#x3b8;" horiz-adv-x="484" d="M240 -5 Q172 -5 131.5 22.5 Q91 50 70 98 Q49 146 43 210.5 Q37 275 37 348 Q37 391 39.5 434.5 Q42 478 50 518.5 Q58 559 72.5 594.5 Q87 630 110 656 Q133 682 166.5 697 Q200 712 246 712 Q314 712 354 679 Q394 646 414.5 593.5 Q435 541 441 477 Q447 413 447 350 Q447 283 439 219.5 Q431 156 408 106 Q385 56 344.5 25.5 Q304 -5 240 -5 Z M246 664 Q198 664 168.5 640.5 Q139 617 123 579 Q107 541 101 493.5 Q95 446 94 397 L390 397 Q389 442 383.5 489.5 Q378 537 362.5 576 Q347 615 319.5 639.5 Q292 664 246 664 Z M93 350 Q93 275 97.5 217.5 Q102 160 118 121 Q134 82 164 62 Q194 42 244 42 Q290 42 319.5 67 Q349 92 365.5 134.5 Q382 177 387 233 Q392 289 391 350 L93 350 Z " />
<glyph glyph-name="upsilon" unicode="&#x3c5;" horiz-adv-x="516" d="M446 487 L446 183 Q446 145 434 110.5 Q422 76 399 50.5 Q376 25 341 10 Q306 -5 261 -5 Q216 -5 182 8 Q148 21 126 45 Q104 69 93 101.5 Q82 134 82 173 L82 442 L15 442 L15 487 L136 487 L136 175 Q136 146 142.5 122 Q149 98 163.5 80.5 Q178 63 201.5 53 Q225 43 260 43 Q295 43 320 54.5 Q345 66 360.5 85.5 Q376 105 383.5 130.5 Q391 156 391 185 L391 487 L446 487 Z " />
<glyph glyph-name="omega" unicode="&#x3c9;" horiz-adv-x="702" d="M480 -6 Q431 -6 398.5 15.5 Q366 37 355 72 L352 72 Q335 37 301.5 15.5 Q268 -6 222 -6 Q166 -6 130.5 14.5 Q95 35 75 69 Q55 103 47.5 147.5 Q40 192 40 240 Q40 279 47.5 319.5 Q55 360 72.5 394.5 Q90 429 117.5 455.5 Q145 482 186 494 L201 456 Q169 441 148.5 417 Q128 393 116 364.5 Q104 336 99 304 Q94 272 94 239 Q94 205 98.5 170 Q103 135 117 107 Q131 79 156.5 61 Q182 43 224 43 Q252 43 271.5 52.5 Q291 62 303.5 77 Q316 92 322 111.5 Q328 131 328 151 L328 337 L382 337 L383 151 Q384 131 389.5 111.5 Q395 92 406.5 77 Q418 62 435.5 52.5 Q453 43 478 43 Q547 43 577.5 96 Q608 149 608 239 Q608 272 603 304 Q598 336 586 364.5 Q574 393 553.5 417 Q533 441 501 456 L516 494 Q556 482 584 456 Q612 430 629.5 395.5 Q647 361 654.5 320.5 Q662 280 662 240 Q662 192 652 147.5 Q642 103 620 69 Q598 35 563.5 14.5 Q529 -6 480 -6 Z " />
<glyph glyph-name="rho" unicode="&#x3c1;" horiz-adv-x="487" d="M237 -11 Q208 -11 172 -3 Q136 5 105 28 L105 -207 L50 -207 L50 280 Q50 326 62 365.5 Q74 405 99 434 Q124 463 162 480 Q200 497 251 497 Q301 497 338 479 Q375 461 399 428.5 Q423 396 435 350.5 Q447 305 447 250 Q447 192 434 144 Q421 96 394.5 61.5 Q368 27 328.5 8 Q289 -11 237 -11 Z M244 449 Q206 449 180 434 Q154 419 137 394.5 Q120 370 112.5 339 Q105 308 105 277 L105 77 Q113 71 127 64 Q141 57 159 51 Q177 45 196.5 41 Q216 37 234 37 Q267 37 295.5 46 Q324 55 345 78.5 Q366 102 378 144 Q390 186 390 252 Q390 310 378.5 348 Q367 386 347.5 408.5 Q328 431 301 440 Q274 449 244 449 Z " />
<glyph glyph-name="xi" unicode="&#x3be;" horiz-adv-x="418" d="M254 714 Q267 714 287 712.5 Q307 711 328 707.5 Q349 704 370 698.5 Q391 693 407 684 L393 643 Q351 658 316 663 Q281 668 252 668 Q213 668 186.5 658.5 Q160 649 143 632 Q126 615 118.5 592 Q111 569 111 541 Q111 480 156 448.5 Q201 417 273 417 L360 417 L360 371 L265 371 Q218 371 184.5 357 Q151 343 130 319 Q109 295 99 264 Q89 233 89 200 Q89 171 97 149 Q105 127 124 109 Q143 91 175 75.5 Q207 60 255 43 L332 16 Q367 3 387.5 -14.5 Q408 -32 408 -58 Q408 -73 401.5 -89 Q395 -105 384.5 -121.5 Q374 -138 360 -154.5 Q346 -171 332 -186 L300 -161 L324 -130 Q341 -107 348 -94.5 Q355 -82 355 -72 Q355 -59 341.5 -48 Q328 -37 294 -24 Q251 -8 205 7.5 Q159 23 121 47 Q83 71 58.5 107.5 Q34 144 34 201 Q34 223 39.5 251 Q45 279 59.5 306.5 Q74 334 99.5 358 Q125 382 165 396 Q131 407 109.5 423.5 Q88 440 76 459.5 Q64 479 59.5 500 Q55 521 55 539 Q55 626 109 670 Q163 714 254 714 Z " />
<glyph glyph-name="nu" unicode="&#x3bd;" horiz-adv-x="480" d="M7 487 L108 487 L196 201 L242 55 L246 55 L287 191 L365 442 L316 442 L316 487 L470 487 L470 442 L419 442 L273 0 L210 0 L66 442 L7 442 L7 487 Z " />
<glyph glyph-name="omicron" unicode="&#x3bf;" horiz-adv-x="481" d="M385 240 Q385 274 380 311 Q375 348 360 379 Q345 410 317.5 430 Q290 450 245 450 Q200 450 171.5 431 Q143 412 126.5 382 Q110 352 103.5 314 Q97 276 97 239 Q97 200 102.5 164.5 Q108 129 123.5 101 Q139 73 168 56.5 Q197 40 245 40 Q289 40 316.5 58.5 Q344 77 359 105.5 Q374 134 379.5 169.5 Q385 205 385 240 Z M245 497 Q303 497 341 474.5 Q379 452 401.5 416 Q424 380 432.5 334 Q441 288 441 242 Q441 197 432 152.5 Q423 108 399.5 72.5 Q376 37 336 15 Q296 -7 234 -7 Q177 -7 139.5 13.5 Q102 34 80 68.5 Q58 103 49 147.5 Q40 192 40 240 Q40 287 50.5 333 Q61 379 85.5 415.5 Q110 452 149 474.5 Q188 497 245 497 Z " />
<glyph glyph-name="Euro" unicode="&#x20ac;" horiz-adv-x="540" d="M446 310 L446 273 L134 273 Q137 225 148.5 182.5 Q160 140 184.5 108.5 Q209 77 249 58.5 Q289 40 349 40 Q370 40 403.5 43 Q437 46 472 54 L472 126 L516 126 L516 22 Q501 16 480 10.5 Q459 5 435.5 1.5 Q412 -2 387.5 -4.5 Q363 -7 342 -7 Q277 -7 229 13 Q181 33 148.5 69.5 Q116 106 99 157.5 Q82 209 80 273 L34 273 L34 310 L446 310 Z M34 359 L34 396 L83 396 Q87 442 103.5 490.5 Q120 539 151.5 579 Q183 619 231 644.5 Q279 670 346 670 Q399 670 438.5 662 Q478 654 504 644 L504 525 L459 525 L459 608 Q438 615 408 619.5 Q378 624 348 624 Q300 624 263.5 608 Q227 592 200.5 562 Q174 532 158.5 490 Q143 448 137 396 L446 396 L446 359 L34 359 Z " />
<glyph glyph-name="Phi" unicode="&#x3a6;" horiz-adv-x="764" d="M724 346 Q724 293 702.5 247.5 Q681 202 641 168 Q601 134 544 113.5 Q487 93 416 90 L416 47 L488 47 L488 0 L288 0 L288 47 L359 47 L359 90 Q191 97 115.5 162.5 Q40 228 40 343 Q40 389 58 433.5 Q76 478 115 514 Q154 550 214.5 573.5 Q275 597 359 601 L359 637 L288 637 L288 683 L488 683 L488 637 L416 637 L416 601 Q503 598 562 575 Q621 552 657 516.5 Q693 481 708.5 436.5 Q724 392 724 346 Z M94 341 Q94 240 161.5 190 Q229 140 359 134 L359 556 Q285 552 234.5 533 Q184 514 152.5 484.5 Q121 455 107.5 417.5 Q94 380 94 341 Z M670 343 Q670 380 657.5 417 Q645 454 615.5 484 Q586 514 537.5 533.5 Q489 553 416 556 L416 134 Q537 141 603.5 198 Q670 255 670 343 Z " />
<glyph glyph-name="Omega" unicode="&#x3a9;" horiz-adv-x="666" d="M338 693 Q418 693 470 664.5 Q522 636 553 588.5 Q584 541 596 480 Q608 419 608 354 Q608 307 602.5 261.5 Q597 216 585 176 Q573 136 552.5 103 Q532 70 502 48 L504 47 L626 47 L626 0 L400 0 L400 51 Q445 62 474 90.5 Q503 119 519.5 159.5 Q536 200 542.5 249.5 Q549 299 549 352 Q549 403 541 455 Q533 507 510 549.5 Q487 592 446 618.5 Q405 645 338 645 Q276 645 233.5 621.5 Q191 598 165.5 558.5 Q140 519 129 466 Q118 413 118 354 Q118 296 124.5 245 Q131 194 147 154.5 Q163 115 191 88 Q219 61 262 52 L262 0 L40 0 L40 47 L152 47 L153 48 Q122 69 103.5 102 Q85 135 75.5 175.5 Q66 216 63 261.5 Q60 307 60 354 Q60 421 74.5 482 Q89 543 122 590 Q155 637 208 665 Q261 693 338 693 Z " />
<glyph glyph-name="Psi" unicode="&#x3a8;" horiz-adv-x="773" d="M678 637 L678 415 Q677 312 610 249.5 Q543 187 417 182 L417 46 L488 46 L488 0 L290 0 L290 46 L360 46 L360 181 Q233 189 166.5 249 Q100 309 100 429 L100 637 L30 637 L30 683 L157 683 L157 426 Q157 330 209.5 282.5 Q262 235 360 229 L360 637 L300 637 L300 683 L478 683 L478 637 L417 637 L417 229 Q523 236 571.5 285 Q620 334 621 430 L622 683 L743 683 L743 637 L678 637 Z " />
<glyph glyph-name="sterling" unicode="&#xa3;" horiz-adv-x="540" d="M63 0 L63 46 Q87 54 102 73.5 Q117 93 126 118 Q135 143 139 171 Q143 199 144 224 L149 315 L79 315 L79 360 L151 360 L156 474 Q158 513 168.5 548.5 Q179 584 200.5 610.5 Q222 637 256 652.5 Q290 668 338 668 Q380 668 422.5 659.5 Q465 651 493 637 L493 516 L445 516 L445 603 Q423 610 395 615.5 Q367 621 340 621 Q301 621 276 609.5 Q251 598 236 577.5 Q221 557 215 529.5 Q209 502 207 470 L202 360 L401 360 L401 315 L201 315 L196 224 Q195 199 192 172.5 Q189 146 183 122 Q177 98 167.5 78 Q158 58 144 47 L487 47 L487 0 L63 0 Z " />
<glyph glyph-name="pi" unicode="&#x3c0;" horiz-adv-x="561" d="M534 46 L534 13 Q517 5 496 0.5 Q475 -4 461 -4 Q435 -4 421.5 7 Q408 18 407 55 L407 442 L150 442 L150 0 L96 0 L96 442 L26 442 L26 487 L532 487 L532 442 L460 442 L460 46 L534 46 Z " />
<glyph glyph-name="lambda" unicode="&#x3bb;" horiz-adv-x="459" d="M159 656 L66 666 L65 695 Q82 703 107 710.5 Q132 718 155 718 Q181 718 190.5 708 Q200 698 208 672 L404 39 L443 39 L447 7 Q438 2 422.5 -1 Q407 -4 396 -4 Q379 -4 368.5 3 Q358 10 353 27 L227 434 L223 434 L65 0 L11 0 L182 468 L217 468 L159 656 Z " />
<glyph glyph-name="kappa" unicode="&#x3ba;" horiz-adv-x="492" d="M148 202 L148 44 L221 44 L221 0 L23 0 L23 44 L95 44 L95 443 L12 443 L12 487 L148 487 L148 261 L342 443 L276 443 L276 487 L456 487 L456 443 L405 443 L258 304 L421 45 L488 36 L488 6 Q474 -1 458 -4 Q442 -7 428 -7 Q403 -7 393 1.5 Q383 10 371 28 L222 270 L148 202 Z " />
<glyph glyph-name="&amp;#xb5;" unicode="&#xb5;" horiz-adv-x="525" d="M231 -10 Q196 -10 171.5 -2.5 Q147 5 130 17 L130 -164 L196 -164 L196 -208 L13 -208 L13 -164 L76 -164 L76 442 L2 442 L2 488 L129 488 L129 157 Q129 130 134 108 Q139 86 152 70.5 Q165 55 186 46.5 Q207 38 239 38 Q270 38 309 54.5 Q348 71 386 106 L386 443 L314 443 L314 487 L439 488 L439 487 L440 487 L439 46 L509 46 L513 13 Q496 5 475 0.5 Q454 -4 440 -4 Q414 -4 400.5 7 Q387 18 386 55 L384 56 Q360 34 337 21 Q314 8 294.5 1 Q275 -6 259 -8 Q243 -10 231 -10 Z " />
<glyph glyph-name="&amp;#x3bc;" unicode="&#x3bc;" horiz-adv-x="525" d="M231 -10 Q196 -10 171.5 -2.5 Q147 5 130 17 L130 -164 L196 -164 L196 -208 L13 -208 L13 -164 L76 -164 L76 442 L2 442 L2 488 L129 488 L129 157 Q129 130 134 108 Q139 86 152 70.5 Q165 55 186 46.5 Q207 38 239 38 Q270 38 309 54.5 Q348 71 386 106 L386 443 L314 443 L314 487 L439 488 L439 487 L440 487 L439 46 L509 46 L513 13 Q496 5 475 0.5 Q454 -4 440 -4 Q414 -4 400.5 7 Q387 18 386 55 L384 56 Q360 34 337 21 Q314 8 294.5 1 Q275 -6 259 -8 Q243 -10 231 -10 Z " />
<glyph glyph-name="phi" unicode="&#x3c6;" horiz-adv-x="621" d="M353 494 Q411 494 454 475.5 Q497 457 525.5 424 Q554 391 567.5 345.5 Q581 300 581 247 Q581 195 568.5 150 Q556 105 527.5 71 Q499 37 451.5 16.5 Q404 -4 335 -7 L335 -207 L285 -207 L285 -7 Q210 -5 162.5 15.5 Q115 36 88 69.5 Q61 103 50.5 147 Q40 191 40 241 Q40 329 78 395.5 Q116 462 198 491 L214 449 Q150 425 122 368.5 Q94 312 94 241 Q94 198 102 161.5 Q110 125 131 98 Q152 71 189 55.5 Q226 40 285 38 L285 494 L353 494 Z M336 38 Q391 39 427.5 55.5 Q464 72 486.5 100.5 Q509 129 518.5 166.5 Q528 204 528 247 Q528 290 519.5 326.5 Q511 363 489.5 390 Q468 417 430.5 432 Q393 447 336 447 L336 38 Z " />
<glyph glyph-name="chi" unicode="&#x3c7;" horiz-adv-x="464" d="M238 290 L326 443 L284 443 L284 487 L446 487 L446 443 L382 443 L265 246 L390 44 L455 44 L455 0 L290 0 L290 44 L331 44 L229 214 L130 44 L184 44 L184 0 L10 0 L10 44 L73 44 L200 256 L92 443 L16 443 L16 487 L124 487 L238 290 Z " />
<glyph glyph-name="psi" unicode="&#x3c8;" horiz-adv-x="677" d="M364 -164 L449 -164 L449 -207 L232 -207 L232 -164 L312 -164 L312 -6 Q258 -6 215.5 8.5 Q173 23 143 48 Q113 73 97.5 107 Q82 141 82 180 L82 441 L15 441 L15 486 L136 486 L136 182 Q136 153 146.5 127.5 Q157 102 179 83 Q201 64 234 52.5 Q267 41 312 40 L312 535 L248 535 L248 583 L364 583 L364 40 Q407 41 440 52.5 Q473 64 495.5 83 Q518 102 529.5 127.5 Q541 153 541 182 L541 486 L662 486 L662 441 L595 441 L595 180 Q595 141 578.5 107 Q562 73 532 48 Q502 23 459 8.5 Q416 -6 364 -6 L364 -164 Z " />
<glyph glyph-name="sigma" unicode="&#x3c3;" horiz-adv-x="485" d="M375 438 Q394 422 407 399.5 Q420 377 427.5 350.5 Q435 324 438 295 Q441 266 441 238 Q441 187 428 142.5 Q415 98 390 65.5 Q365 33 328 14 Q291 -5 242 -5 Q186 -5 147.5 12 Q109 29 85 60.5 Q61 92 50.5 136.5 Q40 181 40 236 Q40 285 50.5 330 Q61 375 85 410 Q109 445 148 466 Q187 487 244 487 L468 487 L468 442 L378 442 L375 438 Z M244 441 Q200 441 171 423.5 Q142 406 125.5 377 Q109 348 102.5 311 Q96 274 96 234 Q96 138 130.5 89.5 Q165 41 244 41 Q280 41 306.5 56.5 Q333 72 350.5 98 Q368 124 376.5 159.5 Q385 195 385 236 Q385 271 380.5 307.5 Q376 344 361 373.5 Q346 403 318 422 Q290 441 244 441 Z " />
<glyph glyph-name="tau" unicode="&#x3c4;" horiz-adv-x="389" d="M190 124 Q190 91 203 67 Q216 43 257 43 Q294 43 353 61 L364 23 Q339 11 309 3.5 Q279 -4 250 -4 Q226 -4 205 1.5 Q184 7 169 19.5 Q154 32 145.5 53 Q137 74 137 104 L137 443 L20 443 L20 487 L336 487 L336 443 L190 443 L190 124 Z " />
<glyph glyph-name="iota" unicode="&#x3b9;" horiz-adv-x="255" d="M30 443 L30 487 L141 487 L141 46 L215 46 L215 13 Q198 5 177 0.5 Q156 -4 142 -4 Q116 -4 102.5 7 Q89 18 88 55 L88 443 L30 443 Z " />
<glyph glyph-name="Alpha" unicode="&#x391;" horiz-adv-x="636" d="M430 0 L430 46 L501 46 L457 189 L180 189 L136 46 L210 46 L210 0 L20 0 L20 46 L78 46 Q126 200 180 365 Q234 530 283 684 L355 684 L562 46 L617 46 L617 0 L430 0 Z M342 555 L320 629 L318 629 Q318 627 317 623.5 Q316 620 313.5 612 Q311 604 306.5 590 Q302 576 295 554 Q282 514 258.5 439.5 Q235 365 197 239 L441 239 L342 555 Z " />
<glyph glyph-name="Beta" unicode="&#x392;" horiz-adv-x="587" d="M44 637 L44 683 L329 683 Q427 683 476.5 634.5 Q526 586 526 511 Q526 493 522 471.5 Q518 450 507.5 429 Q497 408 478 389 Q459 370 428 357 Q461 348 483.5 329 Q506 310 520 286 Q534 262 540.5 235.5 Q547 209 547 185 Q547 143 531.5 109 Q516 75 490.5 50.5 Q465 26 432 13 Q399 0 363 0 L40 0 L40 47 L108 47 L108 637 L44 637 Z M491 190 Q491 217 481.5 242.5 Q472 268 453.5 287.5 Q435 307 406.5 319 Q378 331 341 331 L165 331 L165 47 L341 47 Q382 47 410.5 59 Q439 71 457 90.5 Q475 110 483 136 Q491 162 491 190 Z M470 506 Q470 534 461.5 558 Q453 582 435 599.5 Q417 617 389 627 Q361 637 322 637 L165 637 L165 378 L322 378 Q394 378 432 413.5 Q470 449 470 506 Z " />
<glyph glyph-name="Gamma" unicode="&#x393;" horiz-adv-x="513" d="M260 0 L40 0 L40 46 L106 46 L106 637 L44 637 L44 682 L493 682 L493 548 L445 548 L445 637 L163 637 L163 46 L260 46 L260 0 Z " />
<glyph glyph-name="Epsilon" unicode="&#x395;" horiz-adv-x="540" d="M40 46 L106 46 L106 637 L44 637 L44 682 L493 682 L493 548 L445 548 L445 637 L163 637 L163 382 L442 388 L442 334 L163 338 L163 46 L460 46 L460 135 L510 135 L510 0 L40 0 L40 46 Z " />
<glyph glyph-name="Zeta" unicode="&#x396;" horiz-adv-x="496" d="M20 0 L20 46 L393 637 L92 637 L92 538 L44 538 L44 683 L459 683 L459 637 L86 47 L426 47 L426 155 L476 155 L476 0 L20 0 Z " />
<glyph glyph-name="Eta" unicode="&#x397;" horiz-adv-x="664" d="M442 0 L442 47 L504 47 L504 336 L159 336 L159 47 L222 47 L222 0 L40 0 L40 47 L102 47 L102 637 L40 637 L40 683 L222 683 L222 637 L159 637 L159 385 L504 385 L504 637 L442 637 L442 683 L624 683 L624 637 L561 637 L561 47 L624 47 L624 0 L442 0 Z " />
<glyph glyph-name="Theta" unicode="&#x398;" horiz-adv-x="648" d="M173 380 L472 386 L472 329 L173 333 L173 380 Z M598 338 Q598 264 581 201 Q564 138 530.5 92 Q497 46 447 19.5 Q397 -7 330 -7 Q253 -7 199.5 17 Q146 41 113 85 Q80 129 65 192.5 Q50 256 50 335 Q50 405 64 470 Q78 535 110.5 584.5 Q143 634 196.5 663.5 Q250 693 330 693 Q411 693 463 663 Q515 633 545 583.5 Q575 534 586.5 470 Q598 406 598 338 Z M540 335 Q540 387 532.5 442 Q525 497 502.5 542.5 Q480 588 438.5 617 Q397 646 330 646 Q263 646 220 619 Q177 592 152 548 Q127 504 117.5 448 Q108 392 108 333 Q108 188 160.5 114 Q213 40 330 40 Q384 40 423.5 63.5 Q463 87 489 127 Q515 167 527.5 221 Q540 275 540 335 Z " />
<glyph glyph-name="Iota" unicode="&#x399;" horiz-adv-x="321" d="M70 0 L70 46 L131 46 L131 637 L70 637 L70 683 L251 683 L251 637 L188 637 L188 46 L251 46 L251 0 L70 0 Z " />
<glyph glyph-name="Kappa" unicode="&#x39a;" horiz-adv-x="608" d="M289 413 L534 48 L593 48 L593 0 L399 0 L398 48 L467 48 L248 374 L159 287 L159 47 L224 47 L224 0 L40 0 L40 47 L102 47 L102 637 L40 637 L40 683 L222 683 L222 637 L159 637 L159 351 L449 636 L380 636 L380 683 L571 683 L571 636 L517 636 L289 413 Z " />
<glyph glyph-name="Lambda" unicode="&#x39b;" horiz-adv-x="636" d="M136 46 L210 46 L210 0 L20 0 L20 46 L78 46 Q126 200 180 365 Q234 530 283 684 L355 684 L562 46 L617 46 L617 0 L430 0 L430 46 L501 46 L342 555 L320 629 L318 629 Q318 627 317 623.5 Q316 620 313.5 612 Q311 604 306.5 590 Q302 576 295 554 L136 46 Z " />
<glyph glyph-name="Mu" unicode="&#x39c;" horiz-adv-x="825" d="M416 130 L473 260 L659 683 L785 683 L785 637 L723 637 L723 46 L785 46 L785 0 L603 0 L603 46 L667 46 L667 580 L665 580 L616 466 L439 67 L384 67 L202 474 L156 580 L154 580 L156 46 L221 46 L221 0 L40 0 L40 46 L101 46 L101 637 L40 637 L40 683 L166 683 L354 258 L410 130 L416 130 Z " />
<glyph glyph-name="Nu" unicode="&#x39d;" horiz-adv-x="699" d="M539 104 L539 637 L469 637 L469 683 L659 683 L659 637 L594 637 L594 0 L541 0 L237 475 L164 592 L161 591 L162 47 L232 47 L232 0 L40 0 L40 47 L107 47 L107 637 L40 637 L40 683 L168 683 L450 238 L534 104 L539 104 Z " />
<glyph glyph-name="Xi" unicode="&#x39e;" horiz-adv-x="521" d="M21 0 L21 153 L71 153 L71 57 L448 57 L448 153 L498 153 L498 0 L21 0 Z M86 528 L39 528 L39 682 L480 682 L480 528 L433 528 L433 626 L86 626 L86 528 Z M112 377 L407 383 L407 324 L112 328 L112 377 Z " />
<glyph glyph-name="Omicron" unicode="&#x39f;" horiz-adv-x="648" d="M598 338 Q598 264 581 201 Q564 138 530.5 92 Q497 46 447 19.5 Q397 -7 330 -7 Q253 -7 199.5 17 Q146 41 113 85 Q80 129 65 192.5 Q50 256 50 335 Q50 405 64 470 Q78 535 110.5 584.5 Q143 634 196.5 663.5 Q250 693 330 693 Q411 693 463 663 Q515 633 545 583.5 Q575 534 586.5 470 Q598 406 598 338 Z M540 335 Q540 387 532.5 442 Q525 497 502.5 542.5 Q480 588 438.5 617 Q397 646 330 646 Q263 646 220 619 Q177 592 152 548 Q127 504 117.5 448 Q108 392 108 333 Q108 188 160.5 114 Q213 40 330 40 Q384 40 423.5 63.5 Q463 87 489 127 Q515 167 527.5 221 Q540 275 540 335 Z " />
<glyph glyph-name="Pi" unicode="&#x3a0;" horiz-adv-x="664" d="M440 0 L440 47 L502 47 L502 634 L160 634 L160 47 L223 47 L223 0 L40 0 L40 47 L102 47 L102 634 L40 634 L40 683 L624 683 L624 634 L561 634 L561 47 L624 47 L624 0 L440 0 Z " />
<glyph glyph-name="Rho" unicode="&#x3a1;" horiz-adv-x="542" d="M40 0 L40 46 L103 46 L103 637 L40 637 L40 683 L310 683 Q351 683 388 671.5 Q425 660 452.5 636 Q480 612 496 575.5 Q512 539 512 490 Q512 461 503.5 426 Q495 391 473.5 360.5 Q452 330 414 309 Q376 288 318 288 L160 288 L160 46 L244 46 L244 0 L40 0 Z M315 334 Q340 334 365.5 341.5 Q391 349 410.5 366.5 Q430 384 442.5 413.5 Q455 443 455 487 Q455 525 444 553 Q433 581 413.5 600 Q394 619 368 628 Q342 637 312 637 L160 637 L160 334 L315 334 Z " />
<glyph glyph-name="Delta" unicode="&#x394;" horiz-adv-x="636" d="M587 0 L48 0 L48 41 L281 684 L353 684 L587 41 L587 0 Z M371 486 L318 637 L316 637 L263 485 L104 46 L529 46 L371 486 Z " />
<glyph glyph-name="Sigma" unicode="&#x3a3;" horiz-adv-x="511" d="M276 352 L94 47 L436 47 L436 155 L486 155 L486 0 L30 0 L30 46 L217 361 L30 637 L30 683 L475 683 L475 538 L427 538 L427 637 L94 637 L276 371 L276 352 Z " />
<glyph glyph-name="dagger" unicode="&#x2020;" horiz-adv-x="457" d="M255 428 L255 -56 L204 -56 L204 428 L40 428 L40 480 L204 480 L204 683 L255 683 L255 480 L419 480 L419 428 L255 428 Z " />
<glyph glyph-name="ellipsis" unicode="&#x2026;" horiz-adv-x="582" d="M327 34 Q327 16 314.5 3 Q302 -10 285 -10 Q267 -10 254 3 Q241 16 241 34 Q241 51 253.5 63.5 Q266 76 284 76 Q302 76 314.5 63.5 Q327 51 327 34 Z M539 34 Q539 16 526.5 3 Q514 -10 497 -10 Q479 -10 466 3 Q453 16 453 34 Q453 51 465.5 63.5 Q478 76 496 76 Q514 76 526.5 63.5 Q539 51 539 34 Z M130 34 Q130 16 117.5 3 Q105 -10 88 -10 Q70 -10 57 3 Q44 16 44 34 Q44 51 56.5 63.5 Q69 76 87 76 Q105 76 117.5 63.5 Q130 51 130 34 Z " />
<glyph glyph-name="registered" unicode="&#xae;" horiz-adv-x="568" d="M172 329 L172 356 L197 356 L197 594 L172 594 L172 621 L289 621 Q327 621 352.5 602.5 Q378 584 378 541 Q378 522 365 498 Q352 474 322 462 L373 357 L403 353 L403 331 Q388 326 369 326 Q358 326 351 333 Q344 340 341 347 L287 458 L231 458 L231 356 L266 356 L266 329 L172 329 Z M290 485 Q311 485 328 496 Q345 507 345 540 Q345 570 328.5 582 Q312 594 290 594 L231 594 L231 485 L290 485 Z M278 242 Q229 242 186.5 260 Q144 278 112 309.5 Q80 341 61.5 383 Q43 425 43 473 Q43 521 61.5 563.5 Q80 606 112 637.5 Q144 669 186.5 687.5 Q229 706 278 706 Q326 706 369 687.5 Q412 669 444.5 637.5 Q477 606 495.5 563.5 Q514 521 514 473 Q514 425 495.5 383 Q477 341 444.5 309.5 Q412 278 369 260 Q326 242 278 242 Z M278 677 Q236 677 198.5 661 Q161 645 133.5 617.5 Q106 590 89.5 552.5 Q73 515 73 473 Q73 432 89.5 395 Q106 358 133.5 330.5 Q161 303 198.5 287 Q236 271 278 271 Q321 271 358 287 Q395 303 423 330.5 Q451 358 467 395 Q483 432 483 473 Q483 515 467 552.5 Q451 590 423 617.5 Q395 645 358 661 Q321 677 278 677 Z " />
<glyph glyph-name="trademark" unicode="&#x2122;" horiz-adv-x="712" d="M605 604 L511 416 L479 416 L388 598 L387 598 L387 396 L423 396 L423 365 L312 365 L312 396 L347 396 L347 649 L312 649 L312 683 L391 683 L496 459 L605 683 L682 683 L682 649 L647 649 L647 396 L682 396 L682 365 L572 365 L572 396 L607 396 L607 604 L605 604 Z M253 650 L179 650 L179 396 L222 396 L222 366 L95 366 L95 396 L136 396 L136 650 L67 650 L67 601 L35 601 L35 683 L284 683 L284 601 L253 601 L253 650 Z " />
<glyph glyph-name="copyright" unicode="&#xa9;" horiz-adv-x="824" d="M553 96 Q530 87 491.5 80.5 Q453 74 419 74 Q363 74 323.5 91.5 Q284 109 259.5 142 Q235 175 223.5 221.5 Q212 268 212 326 Q212 364 221 409.5 Q230 455 253.5 494.5 Q277 534 318 560.5 Q359 587 422 587 Q465 587 495.5 581 Q526 575 545 567 L545 459 L508 459 L508 536 Q491 541 468.5 544.5 Q446 548 423 548 Q381 548 349.5 532 Q318 516 298 486.5 Q278 457 268 416 Q258 375 258 325 Q258 283 264.5 244.5 Q271 206 289 177 Q307 148 339.5 131 Q372 114 424 114 Q434 114 449 115 Q464 116 480.5 118 Q497 120 513.5 123 Q530 126 544 131 L553 96 Z M412 -23 Q337 -23 271.5 5 Q206 33 157.5 81.5 Q109 130 80.5 195 Q52 260 52 334 Q52 407 80.5 472 Q109 537 157.5 585.5 Q206 634 271.5 662 Q337 690 412 690 Q486 690 552 662 Q618 634 667.5 585.5 Q717 537 745.5 472 Q774 407 774 334 Q774 260 745.5 195 Q717 130 667.5 81.5 Q618 33 552 5 Q486 -23 412 -23 Z M412 655 Q345 655 286 630 Q227 605 182.5 561.5 Q138 518 112.5 459.5 Q87 401 87 334 Q87 268 112.5 209.5 Q138 151 182.5 107.5 Q227 64 286 38.5 Q345 13 412 13 Q480 13 539 38.5 Q598 64 642 107.5 Q686 151 711.5 209.5 Q737 268 737 334 Q737 401 711.5 459.5 Q686 518 642 561.5 Q598 605 539 630 Q480 655 412 655 Z " />
<glyph glyph-name="sigma1" unicode="&#x3c2;" horiz-adv-x="426" d="M250 498 Q299 498 335.5 489.5 Q372 481 398 471 L398 355 L354 355 L354 437 Q337 444 313 448 Q289 452 256 452 Q214 452 184 436 Q154 420 134.5 393 Q115 366 105.5 329 Q96 292 96 250 Q96 213 102.5 185.5 Q109 158 127 135.5 Q145 113 176.5 93 Q208 73 257 51 Q290 36 312 24 Q334 12 346.5 1 Q359 -10 364.5 -21 Q370 -32 370 -44 Q370 -53 365.5 -67.5 Q361 -82 346 -103 L306 -157 L272 -135 L303 -86 Q308 -77 312 -68.5 Q316 -60 316 -52 Q316 -38 298.5 -26 Q281 -14 232 8 Q169 34 131.5 59.5 Q94 85 73.5 114 Q53 143 46.5 176.5 Q40 210 40 251 Q40 306 54.5 352 Q69 398 96 430 Q123 462 162 480 Q201 498 250 498 Z " />
<glyph glyph-name="yen" unicode="&#xa5;" horiz-adv-x="540" d="M73 282 L73 317 L224 317 L70 617 L16 617 L16 663 L195 663 L195 617 L130 617 L266 338 L270 338 L409 617 L342 617 L342 663 L517 663 L517 617 L465 617 L308 317 L461 317 L461 282 L73 282 Z M461 232 L461 194 L293 194 L293 46 L377 46 L377 0 L155 0 L155 46 L238 46 L238 194 L73 194 L73 232 L461 232 Z " />
<glyph glyph-name="section" unicode="&#xa7;" horiz-adv-x="447" d="M392 269 Q392 234 376.5 203 Q361 172 322 135 Q348 119 362.5 101 Q377 83 384.5 66.5 Q392 50 394 35.5 Q396 21 396 12 Q396 -29 380.5 -58.5 Q365 -88 339 -106.5 Q313 -125 279 -134 Q245 -143 209 -143 Q161 -143 127 -134 Q93 -125 66 -117 L65 0 L111 0 L111 -80 Q135 -87 161.5 -91 Q188 -95 212 -95 Q237 -95 260.5 -89.5 Q284 -84 302 -71.5 Q320 -59 331 -39.5 Q342 -20 342 7 Q342 41 320.5 64 Q299 87 267.5 104 Q236 121 198.5 136 Q161 151 129.5 170.5 Q98 190 76.5 217 Q55 244 55 285 Q55 321 72.5 355.5 Q90 390 130 418 Q95 441 81 464.5 Q67 488 67 520 Q67 557 80 584.5 Q93 612 116 631 Q139 650 170.5 659.5 Q202 669 240 669 Q291 669 323 661.5 Q355 654 382 646 L381 526 L335 526 L335 605 Q317 610 294.5 614.5 Q272 619 240 619 Q217 619 195.5 614.5 Q174 610 157.5 599.5 Q141 589 130.5 570.5 Q120 552 120 525 Q120 496 140 476 Q160 456 190 440.5 Q220 425 255.5 411 Q291 397 321 378 Q351 359 371.5 333 Q392 307 392 269 Z M339 256 Q339 287 322 308 Q305 329 279.5 344 Q254 359 223.5 371 Q193 383 167 398 Q141 375 125.5 351.5 Q110 328 110 300 Q110 266 127 245 Q144 224 169.5 209 Q195 194 226 182.5 Q257 171 286 157 Q311 182 325 209.5 Q339 237 339 256 Z " />
<glyph glyph-name="guillemotright" unicode="&#xbb;" horiz-adv-x="405" d="M185 335 L208 354 L345 204 L345 165 L206 16 L184 34 L284 184 L185 335 Z M55 335 L78 354 L215 204 L215 165 L76 16 L54 34 L154 184 L55 335 Z " />
<glyph glyph-name="degree" unicode="&#xb0;" horiz-adv-x="334" d="M175 412 Q145 412 121 421.5 Q97 431 80.5 448 Q64 465 55 488 Q46 511 46 538 Q46 563 56 586.5 Q66 610 83.5 628 Q101 646 124.5 656.5 Q148 667 175 667 Q202 667 225 656.5 Q248 646 265 628 Q282 610 291.5 586.5 Q301 563 301 538 Q301 511 291.5 488 Q282 465 265 448 Q248 431 225 421.5 Q202 412 175 412 Z M172 626 Q135 626 109.5 599.5 Q84 573 84 535 Q84 499 109.5 473 Q135 447 172 447 Q190 447 206 454 Q222 461 234.5 473 Q247 485 254 501 Q261 517 261 535 Q261 554 254 570.5 Q247 587 234.5 599.5 Q222 612 206 619 Q190 626 172 626 Z " />
<glyph glyph-name="germandbls" unicode="&#xdf;" horiz-adv-x="549" d="M458 109 Q458 137 448.5 157 Q439 177 425 193.5 Q411 210 394 223.5 Q377 237 361 252 Q343 268 325 285.5 Q307 303 292.5 321.5 Q278 340 269 359 Q260 378 260 398 Q260 425 277 448 Q294 471 314 492.5 Q334 514 351 536 Q368 558 368 583 Q368 589 366 603 Q364 617 353.5 632 Q343 647 321.5 658 Q300 669 261 669 Q232 669 211.5 659 Q191 649 177.5 632.5 Q164 616 157.5 593.5 Q151 571 151 546 L151 0 L20 0 L20 46 L97 46 L97 388 L24 388 L24 431 L97 431 L97 545 Q97 567 104 597 Q111 627 130 653 Q149 679 182.5 697.5 Q216 716 269 716 Q314 716 344 703.5 Q374 691 392 673 Q410 655 417.5 633.5 Q425 612 425 594 Q425 557 408.5 531 Q392 505 372.5 484 Q353 463 337 444 Q321 425 321 402 Q321 373 341.5 347 Q362 321 395 294 Q416 277 437.5 260 Q459 243 476 222.5 Q493 202 504 176.5 Q515 151 515 118 Q515 94 507 70.5 Q499 47 481 28.5 Q463 10 433.5 -2 Q404 -14 361 -14 Q325 -14 286 -6.5 Q247 1 222 13 L222 121 L266 120 L266 50 Q300 39 324.5 36 Q349 33 364 33 Q412 33 435 55 Q458 77 458 109 Z " />
<glyph glyph-name="guillemotleft" unicode="&#xab;" horiz-adv-x="405" d="M126 184 L226 34 L204 16 L65 165 L65 204 L202 354 L225 335 L126 184 Z M256 184 L356 34 L334 16 L195 165 L195 204 L332 354 L355 335 L256 184 Z " />
<glyph glyph-name="divide" unicode="&#xf7;" horiz-adv-x="540" d="M83 274 L83 320 L458 320 L458 274 L83 274 Z M314 449 Q314 431 301.5 418 Q289 405 272 405 Q254 405 241 418.5 Q228 432 228 449 Q228 467 240.5 479.5 Q253 492 271 492 Q289 492 301.5 479.5 Q314 467 314 449 Z M314 144 Q314 126 301.5 113 Q289 100 272 100 Q254 100 241 113.5 Q228 127 228 144 Q228 162 240.5 174 Q253 186 271 186 Q289 186 301.5 174 Q314 162 314 144 Z " />
<glyph glyph-name="circumflex" unicode="&#x2c6;" horiz-adv-x="478" d="M237 632 L87 532 L69 554 L218 693 L257 693 L407 556 L388 533 L237 632 Z " />
<glyph glyph-name="perthousand" unicode="&#x2030;" horiz-adv-x="1205" d="M353 463 Q353 428 346 392.5 Q339 357 321 328 Q303 299 273.5 280.5 Q244 262 199 262 Q148 262 117 279.5 Q86 297 69 325.5 Q52 354 46.5 389.5 Q41 425 41 461 Q41 493 46.5 529.5 Q52 566 69.5 596.5 Q87 627 118.5 647.5 Q150 668 201 668 Q253 668 283.5 646.5 Q314 625 329.5 594 Q345 563 349 527 Q353 491 353 463 Z M302 461 Q302 483 300 511.5 Q298 540 288 565.5 Q278 591 257.5 608.5 Q237 626 201 626 Q164 626 142.5 609 Q121 592 109.5 567 Q98 542 95 513 Q92 484 92 460 Q92 428 96 399.5 Q100 371 112 349.5 Q124 328 145 315.5 Q166 303 201 303 Q232 303 251.5 317.5 Q271 332 282.5 354.5 Q294 377 298 405.5 Q302 434 302 461 Z M294 -23 L251 -23 L535 698 L576 698 L294 -23 Z M788 198 Q788 163 781 127.5 Q774 92 756 63 Q738 34 708.5 15.5 Q679 -3 634 -3 Q583 -3 552 14.5 Q521 32 504 60.5 Q487 89 481.5 124.5 Q476 160 476 196 Q476 228 481.5 264.5 Q487 301 504.5 331.5 Q522 362 553.5 382.5 Q585 403 636 403 Q688 403 718.5 381.5 Q749 360 764.5 329 Q780 298 784 262 Q788 226 788 198 Z M737 196 Q737 218 735 246.5 Q733 275 723 300.5 Q713 326 692.5 343.5 Q672 361 636 361 Q599 361 577.5 344 Q556 327 544.5 302 Q533 277 530 248 Q527 219 527 195 Q527 163 531 134.5 Q535 106 547 84.5 Q559 63 580 50.5 Q601 38 636 38 Q667 38 686.5 52.5 Q706 67 717.5 89.5 Q729 112 733 140.5 Q737 169 737 196 Z M1151 198 Q1151 163 1144 127.5 Q1137 92 1119 63 Q1101 34 1071.5 15.5 Q1042 -3 997 -3 Q946 -3 915 14.5 Q884 32 867 60.5 Q850 89 844.5 124.5 Q839 160 839 196 Q839 228 844.5 264.5 Q850 301 867.5 331.5 Q885 362 916.5 382.5 Q948 403 999 403 Q1051 403 1081.5 381.5 Q1112 360 1127.5 329 Q1143 298 1147 262 Q1151 226 1151 198 Z M1100 196 Q1100 218 1098 246.5 Q1096 275 1086 300.5 Q1076 326 1055.5 343.5 Q1035 361 999 361 Q962 361 940.5 344 Q919 327 907.5 302 Q896 277 893 248 Q890 219 890 195 Q890 163 894 134.5 Q898 106 910 84.5 Q922 63 943 50.5 Q964 38 999 38 Q1030 38 1049.5 52.5 Q1069 67 1080.5 89.5 Q1092 112 1096 140.5 Q1100 169 1100 196 Z " />
<glyph glyph-name="dieresis" unicode="&#xa8;" horiz-adv-x="478" d="M317 535 Q301 535 291 545 Q281 555 281 572 Q281 588 292 599 Q303 610 317 610 Q336 610 348 599.5 Q360 589 360 572 Q360 555 348 545 Q336 535 317 535 Z M139 535 Q122 535 110.5 545 Q99 555 99 572 Q99 588 111 599 Q123 610 137 610 Q156 610 167.5 599.5 Q179 589 179 572 Q179 555 167.5 545 Q156 535 139 535 Z " />
<glyph glyph-name="florin" unicode="&#x192;" horiz-adv-x="540" d="M162 395 L260 395 L274 493 Q279 531 289 563.5 Q299 596 316.5 620 Q334 644 360 658 Q386 672 423 672 Q444 672 463 668.5 Q482 665 501 659 L490 621 Q467 626 454 627.5 Q441 629 424 629 Q398 629 380.5 619.5 Q363 610 351.5 592 Q340 574 333.5 549 Q327 524 323 493 Q320 471 316 443.5 Q312 416 310 395 L413 395 L413 353 L305 353 Q303 340 300 316 Q297 292 293.5 262.5 Q290 233 286 201 Q282 169 278.5 141 Q275 113 272 91 Q269 69 267 60 Q253 -31 217 -77 Q181 -123 115 -123 Q96 -123 76.5 -119 Q57 -115 39 -106 L54 -69 Q74 -75 85.5 -76.5 Q97 -78 110 -78 Q135 -78 152.5 -69 Q170 -60 182 -43 Q194 -26 202 0 Q210 26 217 61 Q222 87 227.5 126 Q233 165 237.5 207 Q242 249 246.5 288 Q251 327 255 353 L162 353 L162 395 Z " />
<glyph glyph-name="daggerdbl" unicode="&#x2021;" horiz-adv-x="457" d="M204 188 L204 428 L40 428 L40 480 L204 480 L204 683 L255 683 L255 480 L419 480 L419 428 L255 428 L255 188 L419 188 L419 136 L255 136 L255 -56 L204 -56 L204 136 L40 136 L40 188 L204 188 Z " />
<glyph glyph-name="logicalnot" unicode="&#xac;" horiz-adv-x="540" d="M458 107 L409 107 L409 274 L84 274 L84 321 L458 321 L458 107 Z " />
<glyph glyph-name="multiply" unicode="&#xd7;" horiz-adv-x="540" d="M273 252 L140 120 L106 155 L238 287 L108 416 L142 449 L271 320 L398 447 L433 413 L306 285 L434 157 L401 123 L273 252 Z " />
<glyph glyph-name="plusminus" unicode="&#xb1;" horiz-adv-x="540" d="M83 41 L457 41 L457 0 L83 0 L83 41 Z M295 264 L295 97 L246 97 L246 264 L83 264 L83 311 L246 311 L246 471 L295 471 L295 311 L457 311 L457 264 L295 264 Z " />
<glyph glyph-name="brokenbar" unicode="&#xa6;" horiz-adv-x="211" d="M81 338 L81 697 L121 697 L121 338 L81 338 Z M121 245 L121 -136 L81 -136 L81 245 L121 245 Z " />
<glyph glyph-name="guilsinglright" unicode="&#x203a;" horiz-adv-x="300" d="M65 335 L88 354 L225 204 L225 165 L86 16 L64 34 L164 184 L65 335 Z " />
<glyph glyph-name="guilsinglleft" unicode="&#x2039;" horiz-adv-x="300" d="M126 184 L226 34 L204 16 L65 165 L65 204 L202 354 L225 335 L126 184 Z " />
<glyph glyph-name="currency" unicode="&#xa4;" horiz-adv-x="540" d="M127 306 Q127 277 138 251 Q149 225 168.5 206 Q188 187 214 176 Q240 165 269 165 Q297 165 323 176 Q349 187 368 206 Q387 225 398.5 251 Q410 277 410 306 Q410 335 399 361 Q388 387 368.5 406 Q349 425 323.5 436 Q298 447 269 447 Q240 447 214 436 Q188 425 168.5 406 Q149 387 138 361 Q127 335 127 306 Z M62 486 L89 514 L153 451 Q203 492 270 492 Q302 492 331 481.5 Q360 471 386 451 L449 514 L478 485 L413 423 Q436 395 445 367 Q454 339 454 307 Q454 275 443.5 245.5 Q433 216 414 190 L478 131 L449 100 L385 163 Q357 139 328 130.5 Q299 122 270 122 Q240 122 211.5 130.5 Q183 139 154 163 L90 99 L61 129 L125 190 Q100 219 91.5 249 Q83 279 83 305 Q83 336 92.5 366.5 Q102 397 125 423 L62 486 Z " />
<glyph glyph-name="exclamdown" unicode="&#xa1;" horiz-adv-x="198" d="M118 326 L128 -207 L71 -207 L85 326 L118 326 Z M142 451 Q142 434 129.5 421.5 Q117 409 99 409 Q81 409 68.5 421.5 Q56 434 56 451 Q56 469 69 482 Q82 495 100 495 Q117 495 129.5 482 Q142 469 142 451 Z " />
<glyph glyph-name="questiondown" unicode="&#xbf;" horiz-adv-x="415" d="M182 41 Q142 10 120 -17 Q98 -44 98 -82 Q98 -129 131 -148.5 Q164 -168 215 -168 Q243 -168 277 -163.5 Q311 -159 343 -148 L343 -53 L390 -53 L390 -187 Q347 -202 301.5 -209.5 Q256 -217 220 -217 Q129 -217 84.5 -182.5 Q40 -148 40 -86 Q40 -37 68.5 -1 Q97 35 134 64 Q168 91 192.5 113 Q217 135 232.5 155 Q248 175 255 194 Q262 213 262 234 Q262 253 259 272 Q256 291 252 317 L296 327 Q304 295 307 270.5 Q310 246 310 229 Q310 182 281 138.5 Q252 95 182 41 Z M213 451 Q213 470 225.5 482.5 Q238 495 255 495 Q273 495 286 482 Q299 469 299 451 Q299 434 286.5 421.5 Q274 409 256 409 Q238 409 225.5 421.5 Q213 434 213 451 Z " />
<glyph glyph-name="sfthyphen" unicode="&#xad;" horiz-adv-x="354" d="M51 235 L51 288 L302 288 L302 235 L51 235 Z " />
<glyph glyph-name="periodcentered" unicode="&#xb7;" horiz-adv-x="179" d="M135 288 Q135 270 122.5 257 Q110 244 93 244 Q75 244 62 257.5 Q49 271 49 288 Q49 306 61.5 318 Q74 330 92 330 Q110 330 122.5 318 Q135 306 135 288 Z " />
<glyph glyph-name="cedilla" unicode="&#xb8;" horiz-adv-x="433" d="M212 -65 Q260 -67 290.5 -85.5 Q321 -104 321 -142 Q321 -162 310.5 -180.5 Q300 -199 278.5 -212.5 Q257 -226 224.5 -234 Q192 -242 148 -241 L148 -210 Q202 -205 235 -190.5 Q268 -176 268 -149 Q268 -135 258.5 -127 Q249 -119 234 -114.5 Q219 -110 200.5 -108 Q182 -106 164 -106 L153 -89 L248 34 L276 17 L212 -65 Z " />
<glyph glyph-name="acute" unicode="&#xb4;" horiz-adv-x="478" d="M198 557 L309 715 L358 675 L227 536 L198 557 Z " />
<glyph glyph-name="primemod" unicode="&#x2b9;" horiz-adv-x="234" d="M46 416 L183 685 L237 653 L78 399 L46 416 Z " />
<glyph glyph-name="caron" unicode="&#x2c7;" horiz-adv-x="478" d="M389 695 L408 672 L258 544 L219 544 L70 674 L88 696 L238 596 L389 695 Z " />
<glyph glyph-name="breve" unicode="&#x2d8;" horiz-adv-x="478" d="M243 541 Q218 541 196.5 550 Q175 559 156 574 Q137 589 121 607.5 Q105 626 91 645 L129 671 Q155 636 186 611.5 Q217 587 246 587 Q255 587 268 589 Q281 591 298.5 598.5 Q316 606 337 620.5 Q358 635 384 661 L406 642 Q364 584 322.5 562.5 Q281 541 243 541 Z " />
<glyph glyph-name="dotaccent" unicode="&#x2d9;" horiz-adv-x="478" d="M197 578 Q197 596 209.5 608.5 Q222 621 239 621 Q257 621 269.5 608.5 Q282 596 282 578 Q282 561 269.5 548.5 Q257 536 239 536 Q222 536 209.5 548.5 Q197 561 197 578 Z " />
<glyph glyph-name="ring" unicode="&#x2da;" horiz-adv-x="478" d="M242 536 Q221 536 202 543.5 Q183 551 169.5 564.5 Q156 578 148 596 Q140 614 140 634 Q140 654 148 672 Q156 690 169.5 703.5 Q183 717 202 725 Q221 733 242 733 Q263 733 281 725 Q299 717 312.5 703.5 Q326 690 333.5 672 Q341 654 341 634 Q341 592 312.5 564 Q284 536 242 536 Z M242 699 Q212 699 194 680 Q176 661 176 632 Q176 604 194 585.5 Q212 567 242 567 Q270 567 287.5 585.5 Q305 604 305 632 Q305 660 287.5 679.5 Q270 699 242 699 Z " />
<glyph glyph-name="ogonek" unicode="&#x2db;" horiz-adv-x="433" d="M299 14 Q285 0 273.5 -18 Q262 -36 254 -54.5 Q246 -73 241.5 -90 Q237 -107 237 -120 Q237 -142 252.5 -150.5 Q268 -159 290 -159.5 Q312 -160 335 -156 Q358 -152 372 -149 L377 -175 Q354 -186 327.5 -193 Q301 -200 274 -200 Q229 -200 206 -182 Q183 -164 183 -132 Q183 -117 187 -98.5 Q191 -80 202.5 -59 Q214 -38 234.5 -16 Q255 6 287 27 L299 14 Z " />
<glyph glyph-name="hungarumlaut" unicode="&#x2dd;" horiz-adv-x="478" d="M138 557 L249 715 L298 675 L167 536 L138 557 Z M250 557 L361 715 L410 675 L279 536 L250 557 Z " />
<glyph glyph-name="tonos" unicode="&#x384;" horiz-adv-x="478" d="M198 557 L309 715 L358 675 L227 536 L198 557 Z " />
<glyph glyph-name="dieresistonos" unicode="&#x385;" horiz-adv-x="478" d="M183 552 L260 729 L316 700 L216 538 L183 552 Z M331 564 Q315 564 305 574 Q295 584 295 601 Q295 617 307.5 628 Q320 639 334 639 Q351 639 362.5 628.5 Q374 618 374 601 Q374 584 361 574 Q348 564 331 564 Z M133 564 Q116 564 104.5 574 Q93 584 93 601 Q93 617 105 628 Q117 639 131 639 Q150 639 161.5 628.5 Q173 618 173 601 Q173 584 161.5 574 Q150 564 133 564 Z " />
<glyph glyph-name="anoteleia" unicode="&#x387;" horiz-adv-x="179" d="M135 358 Q135 340 122.5 327 Q110 314 93 314 Q75 314 62 327.5 Q49 341 49 358 Q49 376 61.5 388 Q74 400 92 400 Q110 400 122.5 388 Q135 376 135 358 Z " />
<glyph glyph-name="Alphatonos" unicode="&#x386;" horiz-adv-x="636" d="M430 0 L430 46 L501 46 L457 189 L180 189 L136 46 L210 46 L210 0 L20 0 L20 46 L78 46 Q126 200 180 365 Q234 530 283 684 L355 684 L562 46 L617 46 L617 0 L430 0 Z M342 555 L320 629 L318 629 Q318 627 317 623.5 Q316 620 313.5 612 Q311 604 306.5 590 Q302 576 295 554 Q282 514 258.5 439.5 Q235 365 197 239 L441 239 L342 555 Z M18 557 L129 715 L178 675 L47 536 L18 557 Z " />
<glyph glyph-name="Epsilontonos" unicode="&#x388;" horiz-adv-x="540" d="M40 46 L106 46 L106 637 L44 637 L44 682 L493 682 L493 548 L445 548 L445 637 L163 637 L163 382 L442 388 L442 334 L163 338 L163 46 L460 46 L460 135 L510 135 L510 0 L40 0 L40 46 Z M-154 557 L-43 715 L6 675 L-125 536 L-154 557 Z " />
<glyph glyph-name="Etatonos" unicode="&#x389;" horiz-adv-x="664" d="M442 0 L442 47 L504 47 L504 336 L159 336 L159 47 L222 47 L222 0 L40 0 L40 47 L102 47 L102 637 L40 637 L40 683 L222 683 L222 637 L159 637 L159 385 L504 385 L504 637 L442 637 L442 683 L624 683 L624 637 L561 637 L561 47 L624 47 L624 0 L442 0 Z M-158 557 L-47 715 L2 675 L-129 536 L-158 557 Z " />
<glyph glyph-name="Iotatonos" unicode="&#x38a;" horiz-adv-x="321" d="M70 0 L70 46 L131 46 L131 637 L70 637 L70 683 L251 683 L251 637 L188 637 L188 46 L251 46 L251 0 L70 0 Z M-127 557 L-16 715 L33 675 L-98 536 L-127 557 Z " />
<glyph glyph-name="Omicrontonos" unicode="&#x38c;" horiz-adv-x="648" d="M598 338 Q598 264 581 201 Q564 138 530.5 92 Q497 46 447 19.5 Q397 -7 330 -7 Q253 -7 199.5 17 Q146 41 113 85 Q80 129 65 192.5 Q50 256 50 335 Q50 405 64 470 Q78 535 110.5 584.5 Q143 634 196.5 663.5 Q250 693 330 693 Q411 693 463 663 Q515 633 545 583.5 Q575 534 586.5 470 Q598 406 598 338 Z M540 335 Q540 387 532.5 442 Q525 497 502.5 542.5 Q480 588 438.5 617 Q397 646 330 646 Q263 646 220 619 Q177 592 152 548 Q127 504 117.5 448 Q108 392 108 333 Q108 188 160.5 114 Q213 40 330 40 Q384 40 423.5 63.5 Q463 87 489 127 Q515 167 527.5 221 Q540 275 540 335 Z M-99 557 L12 715 L61 675 L-70 536 L-99 557 Z " />
<glyph glyph-name="Upsilontonos" unicode="&#x38e;" horiz-adv-x="550" d="M277 360 L432 637 L365 637 L365 683 L540 683 L540 637 L488 637 L303 310 L303 46 L385 46 L385 0 L163 0 L163 46 L245 46 L245 307 L64 637 L10 637 L10 683 L189 683 L189 637 L124 637 L273 360 L277 360 Z M-174 557 L-63 715 L-14 675 L-145 536 L-174 557 Z " />
<glyph glyph-name="Omegatonos" unicode="&#x38f;" horiz-adv-x="666" d="M338 693 Q418 693 470 664.5 Q522 636 553 588.5 Q584 541 596 480 Q608 419 608 354 Q608 307 602.5 261.5 Q597 216 585 176 Q573 136 552.5 103 Q532 70 502 48 L504 47 L626 47 L626 0 L400 0 L400 51 Q445 62 474 90.5 Q503 119 519.5 159.5 Q536 200 542.5 249.5 Q549 299 549 352 Q549 403 541 455 Q533 507 510 549.5 Q487 592 446 618.5 Q405 645 338 645 Q276 645 233.5 621.5 Q191 598 165.5 558.5 Q140 519 129 466 Q118 413 118 354 Q118 296 124.5 245 Q131 194 147 154.5 Q163 115 191 88 Q219 61 262 52 L262 0 L40 0 L40 47 L152 47 L153 48 Q122 69 103.5 102 Q85 135 75.5 175.5 Q66 216 63 261.5 Q60 307 60 354 Q60 421 74.5 482 Q89 543 122 590 Q155 637 208 665 Q261 693 338 693 Z M-85 557 L26 715 L75 675 L-56 536 L-85 557 Z " />
<glyph glyph-name="Tau" unicode="&#x3a4;" horiz-adv-x="518" d="M503 538 L454 538 L454 637 L288 637 L288 46 L362 46 L362 0 L160 0 L160 46 L232 46 L232 637 L63 637 L63 538 L15 538 L15 683 L502 683 L503 538 Z " />
<glyph glyph-name="Upsilon" unicode="&#x3a5;" horiz-adv-x="550" d="M277 360 L432 637 L365 637 L365 683 L540 683 L540 637 L488 637 L303 310 L303 46 L385 46 L385 0 L163 0 L163 46 L245 46 L245 307 L64 637 L10 637 L10 683 L189 683 L189 637 L124 637 L273 360 L277 360 Z " />
<glyph glyph-name="Chi" unicode="&#x3a7;" horiz-adv-x="604" d="M95 637 L35 637 L35 683 L226 683 L226 637 L156 637 L303 395 L452 637 L379 637 L379 683 L573 683 L573 637 L513 637 L333 351 L521 47 L584 47 L584 0 L384 0 L384 47 L461 47 L298 312 L140 47 L221 47 L221 0 L20 0 L20 47 L80 47 L269 356 L95 637 Z " />
<glyph glyph-name="iotadieresistonos" unicode="&#x390;" horiz-adv-x="255" d="M30 443 L30 487 L141 487 L141 46 L215 46 L215 13 Q198 5 177 0.5 Q156 -4 142 -4 Q116 -4 102.5 7 Q89 18 88 55 L88 443 L30 443 Z M48 552 L125 729 L181 700 L81 538 L48 552 Z M196 564 Q180 564 170 574 Q160 584 160 601 Q160 617 172.5 628 Q185 639 199 639 Q216 639 227.5 628.5 Q239 618 239 601 Q239 584 226 574 Q213 564 196 564 Z M-2 564 Q-19 564 -30.5 574 Q-42 584 -42 601 Q-42 617 -30 628 Q-18 639 -4 639 Q15 639 26.5 628.5 Q38 618 38 601 Q38 584 26.5 574 Q15 564 -2 564 Z " />
<glyph glyph-name="Iotadieresis" unicode="&#x3aa;" horiz-adv-x="321" d="M70 0 L70 46 L131 46 L131 637 L70 637 L70 683 L251 683 L251 637 L188 637 L188 46 L251 46 L251 0 L70 0 Z M245 727 Q229 727 219 737 Q209 747 209 764 Q209 780 220 791 Q231 802 245 802 Q264 802 276 791.5 Q288 781 288 764 Q288 747 276 737 Q264 727 245 727 Z M67 727 Q50 727 38.5 737 Q27 747 27 764 Q27 780 39 791 Q51 802 65 802 Q84 802 95.5 791.5 Q107 781 107 764 Q107 747 95.5 737 Q84 727 67 727 Z " />
<glyph glyph-name="Upsilondieresis" unicode="&#x3ab;" horiz-adv-x="550" d="M277 360 L432 637 L365 637 L365 683 L540 683 L540 637 L488 637 L303 310 L303 46 L385 46 L385 0 L163 0 L163 46 L245 46 L245 307 L64 637 L10 637 L10 683 L189 683 L189 637 L124 637 L273 360 L277 360 Z M368 727 Q352 727 342 737 Q332 747 332 764 Q332 780 343 791 Q354 802 368 802 Q387 802 399 791.5 Q411 781 411 764 Q411 747 399 737 Q387 727 368 727 Z M190 727 Q173 727 161.5 737 Q150 747 150 764 Q150 780 162 791 Q174 802 188 802 Q207 802 218.5 791.5 Q230 781 230 764 Q230 747 218.5 737 Q207 727 190 727 Z " />
<glyph glyph-name="tilde" unicode="&#x2dc;" horiz-adv-x="478" d="M163 621 Q179 621 197.5 615 Q216 609 233.5 601.5 Q251 594 267 588 Q283 582 295 582 L352 621 L374 603 Q364 575 343 555.5 Q322 536 295 536 Q274 536 255.5 542 Q237 548 221 555.5 Q205 563 190.5 569 Q176 575 163 575 L106 536 L84 554 Q94 582 115 601.5 Q136 621 163 621 Z " />
<glyph glyph-name="macron" unicode="&#xaf;" horiz-adv-x="478" d="M386 603 L386 555 L83 555 L83 603 L386 603 Z " />
<glyph glyph-name="omicrontonos" unicode="&#x3cc;" horiz-adv-x="481" d="M385 240 Q385 274 380 311 Q375 348 360 379 Q345 410 317.5 430 Q290 450 245 450 Q200 450 171.5 431 Q143 412 126.5 382 Q110 352 103.5 314 Q97 276 97 239 Q97 200 102.5 164.5 Q108 129 123.5 101 Q139 73 168 56.5 Q197 40 245 40 Q289 40 316.5 58.5 Q344 77 359 105.5 Q374 134 379.5 169.5 Q385 205 385 240 Z M245 497 Q303 497 341 474.5 Q379 452 401.5 416 Q424 380 432.5 334 Q441 288 441 242 Q441 197 432 152.5 Q423 108 399.5 72.5 Q376 37 336 15 Q296 -7 234 -7 Q177 -7 139.5 13.5 Q102 34 80 68.5 Q58 103 49 147.5 Q40 192 40 240 Q40 287 50.5 333 Q61 379 85.5 415.5 Q110 452 149 474.5 Q188 497 245 497 Z M217 557 L328 715 L377 675 L246 536 L217 557 Z " />
<glyph glyph-name="iotadieresis" unicode="&#x3ca;" horiz-adv-x="255" d="M30 443 L30 487 L141 487 L141 46 L215 46 L215 13 Q198 5 177 0.5 Q156 -4 142 -4 Q116 -4 102.5 7 Q89 18 88 55 L88 443 L30 443 Z M172 535 Q156 535 146 545 Q136 555 136 572 Q136 588 147 599 Q158 610 172 610 Q191 610 203 599.5 Q215 589 215 572 Q215 555 203 545 Q191 535 172 535 Z M-6 535 Q-23 535 -34.5 545 Q-46 555 -46 572 Q-46 588 -34 599 Q-22 610 -8 610 Q11 610 22.5 599.5 Q34 589 34 572 Q34 555 22.5 545 Q11 535 -6 535 Z " />
<glyph glyph-name="upsilondieresis" unicode="&#x3cb;" horiz-adv-x="516" d="M446 487 L446 183 Q446 145 434 110.5 Q422 76 399 50.5 Q376 25 341 10 Q306 -5 261 -5 Q216 -5 182 8 Q148 21 126 45 Q104 69 93 101.5 Q82 134 82 173 L82 442 L15 442 L15 487 L136 487 L136 175 Q136 146 142.5 122 Q149 98 163.5 80.5 Q178 63 201.5 53 Q225 43 260 43 Q295 43 320 54.5 Q345 66 360.5 85.5 Q376 105 383.5 130.5 Q391 156 391 185 L391 487 L446 487 Z M342 535 Q326 535 316 545 Q306 555 306 572 Q306 588 317 599 Q328 610 342 610 Q361 610 373 599.5 Q385 589 385 572 Q385 555 373 545 Q361 535 342 535 Z M164 535 Q147 535 135.5 545 Q124 555 124 572 Q124 588 136 599 Q148 610 162 610 Q181 610 192.5 599.5 Q204 589 204 572 Q204 555 192.5 545 Q181 535 164 535 Z " />
<glyph glyph-name="etatonos" unicode="&#x3ae;" horiz-adv-x="556" d="M96 0 L96 443 L20 443 L20 487 L150 487 L150 443 Q193 469 240.5 483.5 Q288 498 324 498 Q375 498 402.5 483 Q430 468 442.5 445.5 Q455 423 457.5 396.5 Q460 370 460 346 L460 46 L534 46 L534 13 Q517 5 496 0.5 Q475 -4 461 -4 Q435 -4 421.5 7 Q408 18 407 55 L407 331 Q407 358 404.5 380 Q402 402 393 417.5 Q384 433 366 441.5 Q348 450 316 450 Q296 450 274.5 445.5 Q253 441 231 433.5 Q209 426 188 416.5 Q167 407 150 398 L150 0 L96 0 Z M199 557 L310 715 L359 675 L228 536 L199 557 Z " />
<glyph glyph-name="iotatonos" unicode="&#x3af;" horiz-adv-x="255" d="M30 443 L30 487 L141 487 L141 46 L215 46 L215 13 Q198 5 177 0.5 Q156 -4 142 -4 Q116 -4 102.5 7 Q89 18 88 55 L88 443 L30 443 Z M64 557 L175 715 L224 675 L93 536 L64 557 Z " />
<glyph glyph-name="upsilondieresistonos" unicode="&#x3b0;" horiz-adv-x="516" d="M446 487 L446 183 Q446 145 434 110.5 Q422 76 399 50.5 Q376 25 341 10 Q306 -5 261 -5 Q216 -5 182 8 Q148 21 126 45 Q104 69 93 101.5 Q82 134 82 173 L82 442 L15 442 L15 487 L136 487 L136 175 Q136 146 142.5 122 Q149 98 163.5 80.5 Q178 63 201.5 53 Q225 43 260 43 Q295 43 320 54.5 Q345 66 360.5 85.5 Q376 105 383.5 130.5 Q391 156 391 185 L391 487 L446 487 Z M213 552 L290 729 L346 700 L246 538 L213 552 Z M361 564 Q345 564 335 574 Q325 584 325 601 Q325 617 337.5 628 Q350 639 364 639 Q381 639 392.5 628.5 Q404 618 404 601 Q404 584 391 574 Q378 564 361 564 Z M163 564 Q146 564 134.5 574 Q123 584 123 601 Q123 617 135 628 Q147 639 161 639 Q180 639 191.5 628.5 Q203 618 203 601 Q203 584 191.5 574 Q180 564 163 564 Z " />
<glyph glyph-name="upsilontonos" unicode="&#x3cd;" horiz-adv-x="516" d="M446 487 L446 183 Q446 145 434 110.5 Q422 76 399 50.5 Q376 25 341 10 Q306 -5 261 -5 Q216 -5 182 8 Q148 21 126 45 Q104 69 93 101.5 Q82 134 82 173 L82 442 L15 442 L15 487 L136 487 L136 175 Q136 146 142.5 122 Q149 98 163.5 80.5 Q178 63 201.5 53 Q225 43 260 43 Q295 43 320 54.5 Q345 66 360.5 85.5 Q376 105 383.5 130.5 Q391 156 391 185 L391 487 L446 487 Z M213 557 L324 715 L373 675 L242 536 L213 557 Z " />
<glyph glyph-name="omegatonos" unicode="&#x3ce;" horiz-adv-x="702" d="M480 -6 Q431 -6 398.5 15.5 Q366 37 355 72 L352 72 Q335 37 301.5 15.5 Q268 -6 222 -6 Q166 -6 130.5 14.5 Q95 35 75 69 Q55 103 47.5 147.5 Q40 192 40 240 Q40 279 47.5 319.5 Q55 360 72.5 394.5 Q90 429 117.5 455.5 Q145 482 186 494 L201 456 Q169 441 148.5 417 Q128 393 116 364.5 Q104 336 99 304 Q94 272 94 239 Q94 205 98.5 170 Q103 135 117 107 Q131 79 156.5 61 Q182 43 224 43 Q252 43 271.5 52.5 Q291 62 303.5 77 Q316 92 322 111.5 Q328 131 328 151 L328 337 L382 337 L383 151 Q384 131 389.5 111.5 Q395 92 406.5 77 Q418 62 435.5 52.5 Q453 43 478 43 Q547 43 577.5 96 Q608 149 608 239 Q608 272 603 304 Q598 336 586 364.5 Q574 393 553.5 417 Q533 441 501 456 L516 494 Q556 482 584 456 Q612 430 629.5 395.5 Q647 361 654.5 320.5 Q662 280 662 240 Q662 192 652 147.5 Q642 103 620 69 Q598 35 563.5 14.5 Q529 -6 480 -6 Z M316 557 L427 715 L476 675 L345 536 L316 557 Z " />
<glyph glyph-name="alphatonos" unicode="&#x3ac;" horiz-adv-x="514" d="M202 557 L313 715 L362 675 L231 536 L202 557 Z M368 384 Q359 393 344 404 Q329 415 311.5 424.5 Q294 434 275 440 Q256 446 240 446 Q198 446 170.5 427.5 Q143 409 126.5 379.5 Q110 350 103.5 314 Q97 278 97 242 Q97 180 106.5 141 Q116 102 132.5 79 Q149 56 171.5 47.5 Q194 39 220 39 Q251 39 290 55 Q329 71 367 106 L368 384 Z M420 46 L490 46 L494 13 Q477 5 456 0.5 Q435 -4 421 -4 Q395 -4 381.5 7 Q368 18 367 55 L365 56 Q336 32 310.5 19 Q285 6 264 0 Q243 -6 226.5 -7 Q210 -8 198 -8 Q116 -8 78 58.5 Q40 125 40 240 Q40 285 50 330 Q60 375 83 411.5 Q106 448 143 471 Q180 494 233 494 Q276 494 311.5 476.5 Q347 459 370 437 L389 487 L420 487 L420 46 Z " />
<glyph glyph-name="epsilontonos" unicode="&#x3ad;" horiz-adv-x="414" d="M127 265 Q111 269 95.5 277 Q80 285 67.5 296.5 Q55 308 47.5 324 Q40 340 40 360 Q40 394 54 420 Q68 446 92 463.5 Q116 481 147.5 489.5 Q179 498 213 498 Q253 498 295.5 491.5 Q338 485 366 473 L368 354 L324 354 L323 440 Q296 448 269.5 450 Q243 452 217 452 Q184 452 161 445 Q138 438 124 426 Q110 414 103.5 398 Q97 382 97 365 Q97 338 109 322.5 Q121 307 139 299.5 Q157 292 178.5 290 Q200 288 220 289 L281 289 L281 243 L219 242 Q200 242 177 237.5 Q154 233 134 222 Q114 211 100.5 192 Q87 173 87 142 Q87 115 98 95.5 Q109 76 127.5 63.5 Q146 51 171.5 45 Q197 39 226 39 Q268 39 302 49 Q336 59 377 76 L394 40 Q365 23 319.5 9 Q274 -5 226 -5 Q191 -5 156 1.5 Q121 8 93 24 Q65 40 47.5 67 Q30 94 30 136 Q30 186 58.5 218.5 Q87 251 125 262 L127 265 Z M168 557 L279 715 L328 675 L197 536 L168 557 Z " />
<glyph glyph-name="OE" unicode="&#x152;" horiz-adv-x="770" d="M330 693 Q377 693 416 682 L723 682 L723 548 L675 548 L675 637 L413 637 L413 382 L672 388 L672 334 L413 338 L413 46 L690 46 L690 135 L740 135 L740 0 L394 0 Q379 -3 363 -5 Q347 -7 330 -7 Q253 -7 199.5 17 Q146 41 113 85 Q80 129 65 192.5 Q50 256 50 335 Q50 405 64 470 Q78 535 110.5 584.5 Q143 634 196.5 663.5 Q250 693 330 693 Z M330 40 Q336 40 342.5 40 Q349 40 355 41 L355 645 Q349 645 342.5 645.5 Q336 646 330 646 Q263 646 220 619 Q177 592 152 548 Q127 504 117.5 448 Q108 392 108 333 Q108 188 160.5 114 Q213 40 330 40 Z " />
<glyph glyph-name="paragraph" unicode="&#xb6;" horiz-adv-x="488" d="M392 -188 L349 -188 L349 645 L278 645 L279 -188 L158 -188 L158 -144 L235 -144 L235 339 L216 339 Q179 339 147.5 352.5 Q116 366 92.5 389 Q69 412 56 443.5 Q43 475 43 511 Q43 547 56 579.5 Q69 612 92.5 636 Q116 660 147.5 674 Q179 688 216 688 L459 688 L459 645 L392 645 L392 -188 Z " />
<glyph glyph-name="oe" unicode="&#x153;" horiz-adv-x="809" d="M443 229 Q443 193 449 158.5 Q455 124 471.5 98 Q488 72 516.5 56 Q545 40 589 40 Q611 40 630 42 Q649 44 667 48.5 Q685 53 704 60 Q723 67 744 76 L760 39 Q718 16 678 5.5 Q638 -5 590 -5 Q516 -5 474 22 Q432 49 412 94 Q390 49 347.5 21 Q305 -7 234 -7 Q177 -7 139.5 13.5 Q102 34 80 68.5 Q58 103 49 147.5 Q40 192 40 240 Q40 287 50.5 333 Q61 379 85.5 415.5 Q110 452 149 474.5 Q188 497 245 497 Q314 497 354.5 466.5 Q395 436 415 389 Q425 411 440 430.5 Q455 450 476 465 Q497 480 525 488.5 Q553 497 589 497 Q636 497 668 483 Q700 469 720.5 447.5 Q741 426 752 399.5 Q763 373 767.5 347.5 Q772 322 772.5 300.5 Q773 279 773 267 L773 229 L443 229 Z M385 240 Q385 274 380 311 Q375 348 360 379 Q345 410 317.5 430 Q290 450 245 450 Q200 450 171.5 431 Q143 412 126.5 382 Q110 352 103.5 314 Q97 276 97 239 Q97 200 102.5 164.5 Q108 129 123.5 101 Q139 73 168 56.5 Q197 40 245 40 Q289 40 316.5 58.5 Q344 77 359 105.5 Q374 134 379.5 169.5 Q385 205 385 240 Z M589 450 Q550 450 523.5 435.5 Q497 421 480 396.5 Q463 372 455 340.5 Q447 309 444 275 L719 275 Q719 314 712.5 346 Q706 378 691 401.5 Q676 425 651 437.5 Q626 450 589 450 Z " />
<glyph glyph-name="ae" unicode="&#xe6;" horiz-adv-x="774" d="M408 229 Q408 193 414 158.5 Q420 124 436.5 98 Q453 72 481.5 56 Q510 40 554 40 Q576 40 595 42 Q614 44 632 48.5 Q650 53 669 60 Q688 67 709 76 L725 39 Q683 16 643 5.5 Q603 -5 555 -5 Q491 -5 451.5 15.5 Q412 36 389 71 Q348 41 313.5 25 Q279 9 251 2 Q223 -5 203 -6 Q183 -7 172 -7 Q131 -7 104.5 7 Q78 21 62.5 42 Q47 63 41 87 Q35 111 35 132 Q35 166 48 192.5 Q61 219 84.5 237 Q108 255 140.5 265 Q173 275 211 275 L353 276 L353 322 Q353 392 323.5 418 Q294 444 231 444 Q160 444 81 416 L66 456 Q107 475 153 485 Q199 495 243 495 Q297 495 336 476 Q375 457 393 412 Q415 448 453 472.5 Q491 497 554 497 Q601 497 633 483 Q665 469 685.5 447.5 Q706 426 717 399.5 Q728 373 732.5 347.5 Q737 322 737.5 300.5 Q738 279 738 267 L738 229 L408 229 Z M194 40 Q209 40 231.5 44.5 Q254 49 278.5 57.5 Q303 66 327.5 78.5 Q352 91 371 108 Q361 134 357 164.5 Q353 195 352 229 L204 229 Q149 229 121.5 203.5 Q94 178 94 136 Q94 89 117.5 64.5 Q141 40 194 40 Z M554 450 Q515 450 488.5 435.5 Q462 421 445 396.5 Q428 372 420 340.5 Q412 309 409 275 L684 275 Q684 314 677.5 346 Q671 378 656 401.5 Q641 425 616 437.5 Q591 450 554 450 Z " />
<glyph glyph-name="AE" unicode="&#xc6;" horiz-adv-x="919" d="M495 46 L495 209 L227 209 L126 46 L205 46 L205 0 L0 0 L0 46 L63 46 L433 637 L376 637 L376 682 L862 682 L862 548 L814 548 L814 637 L552 637 L552 382 L811 388 L811 334 L552 338 L552 46 L829 46 L829 135 L879 135 L879 0 L429 0 L429 46 L495 46 Z M258 259 L495 259 L495 631 L489 631 L258 259 Z " />
<glyph glyph-name="numbersign" unicode="&#x23;" horiz-adv-x="508" d="M317 194 L155 194 L114 0 L74 0 L115 194 L40 194 L51 231 L123 231 L163 417 L84 417 L95 454 L171 454 L208 624 L248 624 L211 454 L373 454 L410 624 L450 624 L413 454 L481 454 L470 417 L405 417 L365 231 L437 231 L426 194 L357 194 L316 0 L276 0 L317 194 Z M163 231 L325 231 L365 417 L203 417 L163 231 Z " />
<glyph glyph-name="fj" unicode="&#xe1f8;" horiz-adv-x="513" d="M396 662 Q366 667 332 671 Q298 675 271 675 Q238 675 214.5 669.5 Q191 664 175.5 650.5 Q160 637 153 614 Q146 591 146 556 L146 487 L433 487 L433 6 Q433 -39 426.5 -71.5 Q420 -104 402.5 -129 Q385 -154 355.5 -174 Q326 -194 280 -213 L263 -176 Q299 -156 321.5 -138.5 Q344 -121 357 -101.5 Q370 -82 375 -59 Q380 -36 380 -6 L380 442 L146 442 L146 44 L233 44 L233 0 L20 0 L20 44 L93 44 L93 442 L26 442 L26 472 L94 489 L94 576 Q94 620 108.5 648.5 Q123 677 147 693.5 Q171 710 202 716.5 Q233 723 266 723 Q300 723 338 718.5 Q376 714 405 708 L396 662 Z " />
<glyph glyph-name="ffj" unicode="&#xe1f9;" horiz-adv-x="790" d="M667 676 Q637 681 606 684.5 Q575 688 548 688 Q515 688 491.5 682.5 Q468 677 452.5 663.5 Q437 650 430 627 Q423 604 423 569 L423 487 L700 487 L700 6 Q700 -39 693.5 -71.5 Q687 -104 669.5 -129 Q652 -154 622.5 -174 Q593 -194 547 -213 L530 -176 Q566 -156 588.5 -138.5 Q611 -121 624 -101.5 Q637 -82 642 -59 Q647 -36 647 -6 L647 442 L423 442 L423 44 L510 44 L510 0 L309 0 L309 44 L370 44 L370 442 L146 442 L146 44 L217 44 L217 0 L20 0 L20 44 L93 44 L93 442 L26 442 L26 472 L94 489 L94 552 Q94 596 108.5 627 Q123 658 148.5 677.5 Q174 697 208.5 705.5 Q243 714 283 714 Q315 714 344.5 709.5 Q374 705 409 695 Q434 718 469 727 Q504 736 543 736 Q577 736 612 731.5 Q647 727 676 721 L667 676 Z M371 589 Q371 629 381 653 Q354 661 330 663.5 Q306 666 288 666 Q246 666 219 658.5 Q192 651 175.5 634.5 Q159 618 152.5 592.5 Q146 567 146 532 L146 488 L371 487 L371 589 Z " />
<glyph glyph-name="ff" unicode="&#xfb00;" horiz-adv-x="597" d="M567 442 L423 442 L423 44 L510 44 L510 0 L311 0 L311 44 L370 44 L370 442 L146 442 L146 44 L214 44 L214 0 L20 0 L20 44 L93 44 L93 442 L26 442 L26 472 L94 489 L94 552 Q94 596 108.5 627 Q123 658 148.5 677.5 Q174 697 208.5 705.5 Q243 714 283 714 Q314 714 343.5 710 Q373 706 406 696 Q445 736 515 736 Q535 736 557.5 733.5 Q580 731 602 726 L594 683 Q577 685 558.5 687 Q540 689 525 689 Q474 689 448.5 668.5 Q423 648 423 596 L423 487 L567 487 L567 442 Z M371 594 Q371 627 380 653 Q354 660 330 663 Q306 666 288 666 Q246 666 219 658.5 Q192 651 175.5 634.5 Q159 618 152.5 592.5 Q146 567 146 532 L146 488 L371 487 L371 594 Z " />
<glyph glyph-name="fi" unicode="&#xfb01;" horiz-adv-x="523" d="M419 46 L493 46 L493 13 Q476 5 455 0.5 Q434 -4 420 -4 Q395 -4 381 4 Q367 12 367 44 L367 442 L146 442 L146 44 L214 44 L214 0 L20 0 L20 44 L93 44 L93 442 L26 442 L26 472 L94 489 L94 576 Q94 620 108.5 648.5 Q123 677 147 693.5 Q171 710 202 716.5 Q233 723 266 723 Q300 723 338 718.5 Q376 714 405 708 L396 662 Q366 667 332 671 Q298 675 271 675 Q238 675 214.5 669.5 Q191 664 175.5 650.5 Q160 637 153 614 Q146 591 146 556 L146 487 L420 487 L419 46 Z " />
<glyph glyph-name="fl" unicode="&#xfb02;" horiz-adv-x="536" d="M298 442 L146 442 L146 44 L211 44 L211 0 L20 0 L20 44 L93 44 L93 442 L26 442 L26 472 L94 489 L94 566 Q94 610 108.5 638.5 Q123 667 147 683.5 Q171 700 202 706.5 Q233 713 266 713 Q296 713 330 709 Q364 705 392 700 L433 709 L433 44 L506 44 L506 0 L313 0 L313 44 L380 44 L380 654 Q352 659 323 662 Q294 665 271 665 Q238 665 214.5 659.5 Q191 654 175.5 640.5 Q160 627 153 604 Q146 581 146 546 L146 487 L298 487 L298 442 Z " />
<glyph glyph-name="ffi" unicode="&#xfb03;" horiz-adv-x="801" d="M371 588 Q371 625 382 653 Q355 661 330.5 663.5 Q306 666 288 666 Q246 666 219 658.5 Q192 651 175.5 634.5 Q159 618 152.5 592.5 Q146 567 146 532 L146 488 L371 487 L371 588 Z M423 442 L423 44 L503 44 L503 0 L301 0 L301 44 L370 44 L370 442 L146 442 L146 44 L212 44 L212 0 L20 0 L20 44 L93 44 L93 442 L26 442 L26 472 L94 489 L94 552 Q94 596 108.5 627 Q123 658 148.5 677.5 Q174 697 208.5 705.5 Q243 714 283 714 Q315 714 345 709.5 Q375 705 410 695 Q434 718 469.5 726.5 Q505 735 543 735 Q577 735 615 730.5 Q653 726 682 720 L673 674 Q643 679 609 683 Q575 687 548 687 Q515 687 491.5 681.5 Q468 676 452.5 662.5 Q437 649 430 626 Q423 603 423 568 L423 487 L698 487 L697 46 L771 46 L771 13 Q754 5 733 0.5 Q712 -4 698 -4 Q673 -4 659 4 Q645 12 645 44 L645 442 L423 442 Z " />
<glyph glyph-name="ffl" unicode="&#xfb04;" horiz-adv-x="814" d="M423 487 L576 487 L576 442 L423 442 L423 44 L503 44 L503 0 L301 0 L301 44 L370 44 L370 442 L146 442 L146 44 L212 44 L212 0 L20 0 L20 44 L93 44 L93 442 L26 442 L26 472 L94 489 L94 552 Q94 596 108.5 627 Q123 658 148.5 677.5 Q174 697 208.5 705.5 Q243 714 283 714 Q315 714 345 709.5 Q375 705 410 695 Q436 718 470 726.5 Q504 735 544 735 Q574 735 608 731 Q642 727 670 722 L711 731 L711 44 L784 44 L784 0 L591 0 L591 44 L658 44 L658 676 Q630 681 601 684 Q572 687 549 687 Q516 687 492.5 681.5 Q469 676 453.5 662.5 Q438 649 431 626 Q424 603 424 568 L423 487 Z M372 588 Q372 623 382 651 L382 653 Q355 661 330.5 663.5 Q306 666 288 666 Q246 666 219 658.5 Q192 651 175.5 634.5 Q159 618 152.5 592.5 Q146 567 146 532 L146 488 L371 487 L372 588 Z " />
<glyph glyph-name="ft" unicode="&#xfb05;" horiz-adv-x="632" d="M433 124 Q433 91 446 67 Q459 43 500 43 Q537 43 596 61 L607 23 Q582 11 552 3.5 Q522 -4 493 -4 Q469 -4 448 1.5 Q427 7 412 19.5 Q397 32 388.5 53 Q380 74 380 104 L380 442 L146 442 L146 44 L233 44 L233 0 L20 0 L20 44 L93 44 L93 442 L26 442 L26 472 L94 489 L94 576 Q94 613 105 639.5 Q116 666 135 683.5 Q154 701 180.5 709.5 Q207 718 238 718 Q258 718 288 715.5 Q318 713 340 708 L332 665 Q323 666 312 667 Q301 668 289 669 Q277 670 266 670.5 Q255 671 248 671 Q197 671 171.5 650.5 Q146 630 146 578 L146 488 L380 488 L402 597 L434 605 L434 487 L583 487 L583 443 L433 443 L433 124 Z " />
<glyph glyph-name="Scaron" unicode="&#x160;" horiz-adv-x="513" d="M83 168 L83 80 Q124 59 161.5 51 Q199 43 239 43 Q282 43 316 50 Q350 57 373.5 73.5 Q397 90 409.5 117.5 Q422 145 422 186 Q422 221 409.5 244 Q397 267 375 282 Q353 297 323.5 307 Q294 317 260 326 Q218 337 179.5 350 Q141 363 111 382.5 Q81 402 63.5 431.5 Q46 461 46 506 Q46 552 63 587 Q80 622 109 645.5 Q138 669 176.5 681 Q215 693 258 693 Q277 693 299 691.5 Q321 690 344 685.5 Q367 681 389.5 673 Q412 665 432 653 L432 529 L383 529 L383 623 Q355 636 320.5 640.5 Q286 645 254 645 Q188 645 145.5 610.5 Q103 576 103 505 Q103 474 117 453 Q131 432 153.5 418 Q176 404 204.5 395 Q233 386 262 379 Q300 369 338.5 358 Q377 347 408 326.5 Q439 306 458.5 272.5 Q478 239 478 185 Q478 133 459 96.5 Q440 60 408 37 Q376 14 333.5 3.5 Q291 -7 243 -7 Q189 -7 135.5 4.5 Q82 16 35 45 L35 168 L83 168 Z M422 887 L441 864 L291 734 L252 734 L103 866 L121 888 L271 788 L422 887 Z " />
<glyph glyph-name="Zcaron" unicode="&#x17d;" horiz-adv-x="496" d="M20 0 L20 46 L393 637 L92 637 L92 538 L44 538 L44 683 L459 683 L459 637 L86 47 L426 47 L426 155 L476 155 L476 0 L20 0 Z M417 887 L436 864 L286 734 L247 734 L98 866 L116 888 L266 788 L417 887 Z " />
<glyph glyph-name="scaron" unicode="&#x161;" horiz-adv-x="408" d="M73 140 L76 63 Q100 51 131.5 45 Q163 39 189 39 Q216 39 239.5 43 Q263 47 281 57 Q299 67 309 85 Q319 103 319 130 Q319 152 309.5 167 Q300 182 283.5 193 Q267 204 246 212 Q225 220 203 226 Q173 234 144 243.5 Q115 253 92 268 Q69 283 54.5 306.5 Q40 330 40 366 Q40 402 54 427 Q68 452 91 467.5 Q114 483 143.5 490 Q173 497 205 497 Q239 497 274.5 489 Q310 481 339 462 L342 352 L298 352 L295 434 Q276 442 251.5 446.5 Q227 451 204 451 Q158 451 126 432.5 Q94 414 94 364 Q94 342 106 327.5 Q118 313 135.5 303.5 Q153 294 172.5 288.5 Q192 283 207 279 Q237 271 266.5 261.5 Q296 252 319.5 236 Q343 220 357 194.5 Q371 169 371 129 Q371 93 356 67.5 Q341 42 316.5 25.5 Q292 9 259.5 1.5 Q227 -6 192 -6 Q148 -6 105.5 3 Q63 12 33 33 L30 140 L73 140 Z M358 695 L377 672 L227 544 L188 544 L39 674 L57 696 L207 596 L358 695 Z " />
<glyph glyph-name="Ydieresis" unicode="&#x178;" horiz-adv-x="550" d="M277 360 L432 637 L365 637 L365 683 L540 683 L540 637 L488 637 L303 310 L303 46 L385 46 L385 0 L163 0 L163 46 L245 46 L245 307 L64 637 L10 637 L10 683 L189 683 L189 637 L124 637 L273 360 L277 360 Z M365 727 Q349 727 339 737 Q329 747 329 764 Q329 780 340 791 Q351 802 365 802 Q384 802 396 791.5 Q408 781 408 764 Q408 747 396 737 Q384 727 365 727 Z M187 727 Q170 727 158.5 737 Q147 747 147 764 Q147 780 159 791 Q171 802 185 802 Q204 802 215.5 791.5 Q227 781 227 764 Q227 747 215.5 737 Q204 727 187 727 Z " />
<glyph glyph-name="cent" unicode="&#xa2;" horiz-adv-x="540" d="M314 497 Q349 495 381 488 Q413 481 438 470 L438 352 L394 352 L394 438 Q371 445 352.5 448 Q334 451 314 452 L314 40 Q346 42 374.5 50.5 Q403 59 437 73 L453 37 Q427 22 391 10.5 Q355 -1 314 -4 L314 -85 L274 -85 L274 -5 Q222 -2 186 17 Q150 36 128 68 Q106 100 96.5 143 Q87 186 87 237 Q87 272 94.5 315.5 Q102 359 122.5 397.5 Q143 436 179.5 464 Q216 492 274 497 L274 590 L314 590 L314 497 Z M143 237 Q143 198 149 163 Q155 128 169.5 101.5 Q184 75 209.5 58.5 Q235 42 274 39 L274 450 Q239 445 214 427.5 Q189 410 173 382 Q157 354 150 317 Q143 280 143 237 Z " />
<glyph glyph-name="ordfeminine" unicode="&#xaa;" horiz-adv-x="330" d="M275 306 L322 306 L326 277 Q314 271 298.5 268 Q283 265 272 265 Q254 265 243 272.5 Q232 280 229 301 Q190 271 162.5 267 Q135 263 120 263 Q91 263 72 272.5 Q53 282 42 296 Q31 310 26.5 326.5 Q22 343 22 357 Q22 403 57 427 Q92 451 146 453 L230 457 L230 479 Q230 522 215.5 538 Q201 554 159 554 Q112 554 55 534 L43 567 Q72 580 105 587 Q138 594 168 594 Q219 594 247 570.5 Q275 547 275 487 L275 306 Z M141 417 Q70 412 70 359 Q70 302 134 302 Q155 302 181.5 313.5 Q208 325 230 342 L230 421 L141 417 Z " />
<glyph glyph-name="ordmasculine" unicode="&#xba;" horiz-adv-x="332" d="M261 426 Q261 447 257.5 470.5 Q254 494 244 513.5 Q234 533 216 545.5 Q198 558 169 558 Q140 558 121 546 Q102 534 91 515 Q80 496 76 472 Q72 448 72 425 Q72 401 75.5 379 Q79 357 89 339.5 Q99 322 118 312 Q137 302 169 302 Q198 302 216 313.5 Q234 325 244 343 Q254 361 257.5 383 Q261 405 261 426 Z M169 595 Q210 595 236.5 580.5 Q263 566 278.5 542 Q294 518 300 488 Q306 458 306 427 Q306 397 299.5 368 Q293 339 277 315.5 Q261 292 232.5 277.5 Q204 263 161 263 Q121 263 95 276.5 Q69 290 53.5 313 Q38 336 32 365 Q26 394 26 426 Q26 457 33.5 487.5 Q41 518 57.5 542 Q74 566 101.5 580.5 Q129 595 169 595 Z " />
<glyph glyph-name="onequarter" unicode="&#xbc;" horiz-adv-x="785" d="M67 594 L59 629 L175 662 L219 662 L219 306 L305 306 L305 265 L75 265 L75 306 L168 306 L168 610 L67 594 Z M283 -23 L240 -23 L524 698 L565 698 L283 -23 Z M663 111 L663 41 L711 41 L711 0 L571 0 L571 41 L615 41 L615 111 L408 111 L408 149 L615 397 L663 397 L663 152 L725 152 L725 111 L663 111 Z M616 152 L616 334 L466 152 L616 152 Z " />
<glyph glyph-name="threequarters" unicode="&#xbe;" horiz-adv-x="785" d="M169 509 Q199 509 225 502 Q251 495 271 480.5 Q291 466 302.5 444.5 Q314 423 314 393 Q314 359 301 334.5 Q288 310 267 293.5 Q246 277 218.5 269 Q191 261 161 261 Q121 261 88.5 266 Q56 271 27 284 L38 321 Q76 309 103.5 306.5 Q131 304 149 304 Q202 304 232.5 325 Q263 346 263 393 Q263 428 233.5 447.5 Q204 467 151 467 Q137 467 127 466.5 Q117 466 105 464 L88 494 L226 620 L90 620 L90 561 L44 561 L44 662 L295 662 L304 633 L169 509 Z M291 -23 L248 -23 L532 698 L573 698 L291 -23 Z M695 111 L695 41 L743 41 L743 0 L603 0 L603 41 L647 41 L647 111 L440 111 L440 149 L647 397 L695 397 L695 152 L757 152 L757 111 L695 111 Z M648 152 L648 334 L498 152 L648 152 Z " />
<glyph glyph-name="Agrave" unicode="&#xc0;" horiz-adv-x="636" d="M430 0 L430 46 L501 46 L457 189 L180 189 L136 46 L210 46 L210 0 L20 0 L20 46 L78 46 Q126 200 180 365 Q234 530 283 684 L355 684 L562 46 L617 46 L617 0 L430 0 Z M342 555 L320 629 L318 629 Q318 627 317 623.5 Q316 620 313.5 612 Q311 604 306.5 590 Q302 576 295 554 Q282 514 258.5 439.5 Q235 365 197 239 L441 239 L342 555 Z M298 726 L167 865 L216 905 L327 747 L298 726 Z " />
<glyph glyph-name="Aacute" unicode="&#xc1;" horiz-adv-x="636" d="M430 0 L430 46 L501 46 L457 189 L180 189 L136 46 L210 46 L210 0 L20 0 L20 46 L78 46 Q126 200 180 365 Q234 530 283 684 L355 684 L562 46 L617 46 L617 0 L430 0 Z M342 555 L320 629 L318 629 Q318 627 317 623.5 Q316 620 313.5 612 Q311 604 306.5 590 Q302 576 295 554 Q282 514 258.5 439.5 Q235 365 197 239 L441 239 L342 555 Z M303 747 L414 905 L463 865 L332 726 L303 747 Z " />
<glyph glyph-name="Acircumflex" unicode="&#xc2;" horiz-adv-x="636" d="M430 0 L430 46 L501 46 L457 189 L180 189 L136 46 L210 46 L210 0 L20 0 L20 46 L78 46 Q126 200 180 365 Q234 530 283 684 L355 684 L562 46 L617 46 L617 0 L430 0 Z M342 555 L320 629 L318 629 Q318 627 317 623.5 Q316 620 313.5 612 Q311 604 306.5 590 Q302 576 295 554 Q282 514 258.5 439.5 Q235 365 197 239 L441 239 L342 555 Z M316 826 L166 726 L148 748 L297 881 L336 881 L486 750 L467 727 L316 826 Z " />
<glyph glyph-name="Atilde" unicode="&#xc3;" horiz-adv-x="636" d="M430 0 L430 46 L501 46 L457 189 L180 189 L136 46 L210 46 L210 0 L20 0 L20 46 L78 46 Q126 200 180 365 Q234 530 283 684 L355 684 L562 46 L617 46 L617 0 L430 0 Z M342 555 L320 629 L318 629 Q318 627 317 623.5 Q316 620 313.5 612 Q311 604 306.5 590 Q302 576 295 554 Q282 514 258.5 439.5 Q235 365 197 239 L441 239 L342 555 Z M257 809 Q273 809 291.5 803 Q310 797 327.5 789.5 Q345 782 361 776 Q377 770 389 770 L446 809 L468 791 Q458 763 437 743.5 Q416 724 389 724 Q368 724 349.5 730 Q331 736 315 743.5 Q299 751 284.5 757 Q270 763 257 763 L200 724 L178 742 Q188 770 209 789.5 Q230 809 257 809 Z " />
<glyph glyph-name="Adieresis" unicode="&#xc4;" horiz-adv-x="636" d="M430 0 L430 46 L501 46 L457 189 L180 189 L136 46 L210 46 L210 0 L20 0 L20 46 L78 46 Q126 200 180 365 Q234 530 283 684 L355 684 L562 46 L617 46 L617 0 L430 0 Z M342 555 L320 629 L318 629 Q318 627 317 623.5 Q316 620 313.5 612 Q311 604 306.5 590 Q302 576 295 554 Q282 514 258.5 439.5 Q235 365 197 239 L441 239 L342 555 Z M408 727 Q392 727 382 737 Q372 747 372 764 Q372 780 383 791 Q394 802 408 802 Q427 802 439 791.5 Q451 781 451 764 Q451 747 439 737 Q427 727 408 727 Z M230 727 Q213 727 201.5 737 Q190 747 190 764 Q190 780 202 791 Q214 802 228 802 Q247 802 258.5 791.5 Q270 781 270 764 Q270 747 258.5 737 Q247 727 230 727 Z " />
<glyph glyph-name="Aring" unicode="&#xc5;" horiz-adv-x="636" d="M430 0 L430 46 L501 46 L457 189 L180 189 L136 46 L210 46 L210 0 L20 0 L20 46 L78 46 Q126 200 180 365 Q234 530 283 684 L355 684 L562 46 L617 46 L617 0 L430 0 Z M342 555 L320 629 L318 629 Q318 627 317 623.5 Q316 620 313.5 612 Q311 604 306.5 590 Q302 576 295 554 Q282 514 258.5 439.5 Q235 365 197 239 L441 239 L342 555 Z M317 728 Q296 728 277 735.5 Q258 743 244.5 756.5 Q231 770 223 788 Q215 806 215 826 Q215 846 223 864 Q231 882 244.5 895.5 Q258 909 277 917 Q296 925 317 925 Q338 925 356 917 Q374 909 387.5 895.5 Q401 882 408.5 864 Q416 846 416 826 Q416 784 387.5 756 Q359 728 317 728 Z M317 891 Q287 891 269 872 Q251 853 251 824 Q251 796 269 777.5 Q287 759 317 759 Q345 759 362.5 777.5 Q380 796 380 824 Q380 852 362.5 871.5 Q345 891 317 891 Z " />
<glyph glyph-name="Ccedilla" unicode="&#xc7;" horiz-adv-x="545" d="M515 23 Q488 12 446.5 4.5 Q405 -3 364 -6 L305 -82 Q353 -84 383.5 -102.5 Q414 -121 414 -159 Q414 -179 403.5 -197.5 Q393 -216 371.5 -229.5 Q350 -243 317.5 -251 Q285 -259 241 -258 L241 -227 Q295 -222 328 -207.5 Q361 -193 361 -166 Q361 -152 351.5 -144 Q342 -136 327 -131.5 Q312 -127 293.5 -125 Q275 -123 257 -123 L246 -106 L322 -6 Q249 -5 197.5 19.5 Q146 44 113 89 Q80 134 65 196.5 Q50 259 50 337 Q50 372 55.5 412 Q61 452 73.5 491.5 Q86 531 107 567.5 Q128 604 159.5 632 Q191 660 234.5 676.5 Q278 693 335 693 Q392 693 434 685 Q476 677 504 666 L504 522 L456 522 L456 629 Q433 636 401 640.5 Q369 645 337 645 Q278 645 234.5 622.5 Q191 600 163 559.5 Q135 519 121.5 462 Q108 405 108 335 Q108 276 117 223 Q126 170 151 130 Q176 90 221 66 Q266 42 338 42 Q352 42 372 43 Q392 44 414 47 Q436 50 459 54.5 Q482 59 503 66 L515 23 Z " />
<glyph glyph-name="Egrave" unicode="&#xc8;" horiz-adv-x="540" d="M40 46 L106 46 L106 637 L44 637 L44 682 L493 682 L493 548 L445 548 L445 637 L163 637 L163 382 L442 388 L442 334 L163 338 L163 46 L460 46 L460 135 L510 135 L510 0 L40 0 L40 46 Z M298 726 L167 865 L216 905 L327 747 L298 726 Z " />
<glyph glyph-name="Eacute" unicode="&#xc9;" horiz-adv-x="540" d="M40 46 L106 46 L106 637 L44 637 L44 682 L493 682 L493 548 L445 548 L445 637 L163 637 L163 382 L442 388 L442 334 L163 338 L163 46 L460 46 L460 135 L510 135 L510 0 L40 0 L40 46 Z M259 747 L370 905 L419 865 L288 726 L259 747 Z " />
<glyph glyph-name="Ecircumflex" unicode="&#xca;" horiz-adv-x="540" d="M40 46 L106 46 L106 637 L44 637 L44 682 L493 682 L493 548 L445 548 L445 637 L163 637 L163 382 L442 388 L442 334 L163 338 L163 46 L460 46 L460 135 L510 135 L510 0 L40 0 L40 46 Z M294 826 L144 726 L126 748 L275 881 L314 881 L464 750 L445 727 L294 826 Z " />
<glyph glyph-name="Edieresis" unicode="&#xcb;" horiz-adv-x="540" d="M40 46 L106 46 L106 637 L44 637 L44 682 L493 682 L493 548 L445 548 L445 637 L163 637 L163 382 L442 388 L442 334 L163 338 L163 46 L460 46 L460 135 L510 135 L510 0 L40 0 L40 46 Z M381 727 Q365 727 355 737 Q345 747 345 764 Q345 780 356 791 Q367 802 381 802 Q400 802 412 791.5 Q424 781 424 764 Q424 747 412 737 Q400 727 381 727 Z M203 727 Q186 727 174.5 737 Q163 747 163 764 Q163 780 175 791 Q187 802 201 802 Q220 802 231.5 791.5 Q243 781 243 764 Q243 747 231.5 737 Q220 727 203 727 Z " />
<glyph glyph-name="Igrave" unicode="&#xcc;" horiz-adv-x="321" d="M70 0 L70 46 L131 46 L131 637 L70 637 L70 683 L251 683 L251 637 L188 637 L188 46 L251 46 L251 0 L70 0 Z M160 726 L29 865 L78 905 L189 747 L160 726 Z " />
<glyph glyph-name="Iacute" unicode="&#xcd;" horiz-adv-x="321" d="M70 0 L70 46 L131 46 L131 637 L70 637 L70 683 L251 683 L251 637 L188 637 L188 46 L251 46 L251 0 L70 0 Z M133 747 L244 905 L293 865 L162 726 L133 747 Z " />
<glyph glyph-name="Icircumflex" unicode="&#xce;" horiz-adv-x="321" d="M70 0 L70 46 L131 46 L131 637 L70 637 L70 683 L251 683 L251 637 L188 637 L188 46 L251 46 L251 0 L70 0 Z M160 826 L10 726 L-8 748 L141 881 L180 881 L330 750 L311 727 L160 826 Z " />
<glyph glyph-name="Idieresis" unicode="&#xcf;" horiz-adv-x="321" d="M70 0 L70 46 L131 46 L131 637 L70 637 L70 683 L251 683 L251 637 L188 637 L188 46 L251 46 L251 0 L70 0 Z M248 727 Q232 727 222 737 Q212 747 212 764 Q212 780 223 791 Q234 802 248 802 Q267 802 279 791.5 Q291 781 291 764 Q291 747 279 737 Q267 727 248 727 Z M70 727 Q53 727 41.5 737 Q30 747 30 764 Q30 780 42 791 Q54 802 68 802 Q87 802 98.5 791.5 Q110 781 110 764 Q110 747 98.5 737 Q87 727 70 727 Z " />
<glyph glyph-name="Ntilde" unicode="&#xd1;" horiz-adv-x="699" d="M539 104 L539 637 L469 637 L469 683 L659 683 L659 637 L594 637 L594 0 L541 0 L237 475 L164 592 L161 591 L162 47 L232 47 L232 0 L40 0 L40 47 L107 47 L107 637 L40 637 L40 683 L168 683 L450 238 L534 104 L539 104 Z M289 812 Q305 812 323.5 806 Q342 800 359.5 792.5 Q377 785 393 779 Q409 773 421 773 L478 812 L500 794 Q490 766 469 746.5 Q448 727 421 727 Q400 727 381.5 733 Q363 739 347 746.5 Q331 754 316.5 760 Q302 766 289 766 L232 727 L210 745 Q220 773 241 792.5 Q262 812 289 812 Z " />
<glyph glyph-name="Ograve" unicode="&#xd2;" horiz-adv-x="648" d="M598 338 Q598 264 581 201 Q564 138 530.5 92 Q497 46 447 19.5 Q397 -7 330 -7 Q253 -7 199.5 17 Q146 41 113 85 Q80 129 65 192.5 Q50 256 50 335 Q50 405 64 470 Q78 535 110.5 584.5 Q143 634 196.5 663.5 Q250 693 330 693 Q411 693 463 663 Q515 633 545 583.5 Q575 534 586.5 470 Q598 406 598 338 Z M540 335 Q540 387 532.5 442 Q525 497 502.5 542.5 Q480 588 438.5 617 Q397 646 330 646 Q263 646 220 619 Q177 592 152 548 Q127 504 117.5 448 Q108 392 108 333 Q108 188 160.5 114 Q213 40 330 40 Q384 40 423.5 63.5 Q463 87 489 127 Q515 167 527.5 221 Q540 275 540 335 Z M308 726 L177 865 L226 905 L337 747 L308 726 Z " />
<glyph glyph-name="Oacute" unicode="&#xd3;" horiz-adv-x="648" d="M598 338 Q598 264 581 201 Q564 138 530.5 92 Q497 46 447 19.5 Q397 -7 330 -7 Q253 -7 199.5 17 Q146 41 113 85 Q80 129 65 192.5 Q50 256 50 335 Q50 405 64 470 Q78 535 110.5 584.5 Q143 634 196.5 663.5 Q250 693 330 693 Q411 693 463 663 Q515 633 545 583.5 Q575 534 586.5 470 Q598 406 598 338 Z M540 335 Q540 387 532.5 442 Q525 497 502.5 542.5 Q480 588 438.5 617 Q397 646 330 646 Q263 646 220 619 Q177 592 152 548 Q127 504 117.5 448 Q108 392 108 333 Q108 188 160.5 114 Q213 40 330 40 Q384 40 423.5 63.5 Q463 87 489 127 Q515 167 527.5 221 Q540 275 540 335 Z M297 747 L408 905 L457 865 L326 726 L297 747 Z " />
<glyph glyph-name="Ocircumflex" unicode="&#xd4;" horiz-adv-x="648" d="M598 338 Q598 264 581 201 Q564 138 530.5 92 Q497 46 447 19.5 Q397 -7 330 -7 Q253 -7 199.5 17 Q146 41 113 85 Q80 129 65 192.5 Q50 256 50 335 Q50 405 64 470 Q78 535 110.5 584.5 Q143 634 196.5 663.5 Q250 693 330 693 Q411 693 463 663 Q515 633 545 583.5 Q575 534 586.5 470 Q598 406 598 338 Z M540 335 Q540 387 532.5 442 Q525 497 502.5 542.5 Q480 588 438.5 617 Q397 646 330 646 Q263 646 220 619 Q177 592 152 548 Q127 504 117.5 448 Q108 392 108 333 Q108 188 160.5 114 Q213 40 330 40 Q384 40 423.5 63.5 Q463 87 489 127 Q515 167 527.5 221 Q540 275 540 335 Z M329 826 L179 726 L161 748 L310 881 L349 881 L499 750 L480 727 L329 826 Z " />
<glyph glyph-name="Otilde" unicode="&#xd5;" horiz-adv-x="648" d="M598 338 Q598 264 581 201 Q564 138 530.5 92 Q497 46 447 19.5 Q397 -7 330 -7 Q253 -7 199.5 17 Q146 41 113 85 Q80 129 65 192.5 Q50 256 50 335 Q50 405 64 470 Q78 535 110.5 584.5 Q143 634 196.5 663.5 Q250 693 330 693 Q411 693 463 663 Q515 633 545 583.5 Q575 534 586.5 470 Q598 406 598 338 Z M540 335 Q540 387 532.5 442 Q525 497 502.5 542.5 Q480 588 438.5 617 Q397 646 330 646 Q263 646 220 619 Q177 592 152 548 Q127 504 117.5 448 Q108 392 108 333 Q108 188 160.5 114 Q213 40 330 40 Q384 40 423.5 63.5 Q463 87 489 127 Q515 167 527.5 221 Q540 275 540 335 Z M269 814 Q285 814 303.5 808 Q322 802 339.5 794.5 Q357 787 373 781 Q389 775 401 775 L458 814 L480 796 Q470 768 449 748.5 Q428 729 401 729 Q380 729 361.5 735 Q343 741 327 748.5 Q311 756 296.5 762 Q282 768 269 768 L212 729 L190 747 Q200 775 221 794.5 Q242 814 269 814 Z " />
<glyph glyph-name="Odieresis" unicode="&#xd6;" horiz-adv-x="648" d="M598 338 Q598 264 581 201 Q564 138 530.5 92 Q497 46 447 19.5 Q397 -7 330 -7 Q253 -7 199.5 17 Q146 41 113 85 Q80 129 65 192.5 Q50 256 50 335 Q50 405 64 470 Q78 535 110.5 584.5 Q143 634 196.5 663.5 Q250 693 330 693 Q411 693 463 663 Q515 633 545 583.5 Q575 534 586.5 470 Q598 406 598 338 Z M540 335 Q540 387 532.5 442 Q525 497 502.5 542.5 Q480 588 438.5 617 Q397 646 330 646 Q263 646 220 619 Q177 592 152 548 Q127 504 117.5 448 Q108 392 108 333 Q108 188 160.5 114 Q213 40 330 40 Q384 40 423.5 63.5 Q463 87 489 127 Q515 167 527.5 221 Q540 275 540 335 Z M412 727 Q396 727 386 737 Q376 747 376 764 Q376 780 387 791 Q398 802 412 802 Q431 802 443 791.5 Q455 781 455 764 Q455 747 443 737 Q431 727 412 727 Z M234 727 Q217 727 205.5 737 Q194 747 194 764 Q194 780 206 791 Q218 802 232 802 Q251 802 262.5 791.5 Q274 781 274 764 Q274 747 262.5 737 Q251 727 234 727 Z " />
<glyph glyph-name="Oslash" unicode="&#xd8;" horiz-adv-x="648" d="M598 338 Q598 264 581 201 Q564 138 530.5 92 Q497 46 447 19.5 Q397 -7 330 -7 Q264 -7 216 10 Q168 27 135 59 L88 -5 L46 -5 L112 85 Q79 130 64.5 193 Q50 256 50 335 Q50 405 64 470 Q78 535 110.5 584.5 Q143 634 196.5 663.5 Q250 693 330 693 Q391 693 435 675.5 Q479 658 510 627 L560 695 L602 695 L533 601 Q570 550 584 481.5 Q598 413 598 338 Z M540 335 Q540 390 531.5 447.5 Q523 505 497 552 L168 104 Q222 40 330 40 Q384 40 423.5 63.5 Q463 87 489 127 Q515 167 527.5 221 Q540 275 540 335 Z M108 333 Q108 269 117.5 219.5 Q127 170 148 134 L477 581 Q453 610 417 628 Q381 646 330 646 Q263 646 220 619 Q177 592 152 548 Q127 504 117.5 448 Q108 392 108 333 Z " />
<glyph glyph-name="Ugrave" unicode="&#xd9;" horiz-adv-x="682" d="M461 637 L461 683 L652 683 L652 637 L589 637 L589 243 Q589 187 573.5 141 Q558 95 527 62 Q496 29 449 11 Q402 -7 339 -7 Q209 -7 150 59.5 Q91 126 91 243 L91 637 L30 637 L30 683 L221 683 L221 637 L148 637 L148 244 Q148 143 198 92 Q248 41 339 41 Q434 41 483.5 92 Q533 143 533 244 L533 637 L461 637 Z M339 726 L208 865 L257 905 L368 747 L339 726 Z " />
<glyph glyph-name="Uacute" unicode="&#xda;" horiz-adv-x="682" d="M461 637 L461 683 L652 683 L652 637 L589 637 L589 243 Q589 187 573.5 141 Q558 95 527 62 Q496 29 449 11 Q402 -7 339 -7 Q209 -7 150 59.5 Q91 126 91 243 L91 637 L30 637 L30 683 L221 683 L221 637 L148 637 L148 244 Q148 143 198 92 Q248 41 339 41 Q434 41 483.5 92 Q533 143 533 244 L533 637 L461 637 Z M326 747 L437 905 L486 865 L355 726 L326 747 Z " />
<glyph glyph-name="Ucircumflex" unicode="&#xdb;" horiz-adv-x="682" d="M461 637 L461 683 L652 683 L652 637 L589 637 L589 243 Q589 187 573.5 141 Q558 95 527 62 Q496 29 449 11 Q402 -7 339 -7 Q209 -7 150 59.5 Q91 126 91 243 L91 637 L30 637 L30 683 L221 683 L221 637 L148 637 L148 244 Q148 143 198 92 Q248 41 339 41 Q434 41 483.5 92 Q533 143 533 244 L533 637 L461 637 Z M347 825 L191 726 L173 748 L327 879 L368 879 L524 750 L504 727 L347 825 Z " />
<glyph glyph-name="Udieresis" unicode="&#xdc;" horiz-adv-x="682" d="M461 637 L461 683 L652 683 L652 637 L589 637 L589 243 Q589 187 573.5 141 Q558 95 527 62 Q496 29 449 11 Q402 -7 339 -7 Q209 -7 150 59.5 Q91 126 91 243 L91 637 L30 637 L30 683 L221 683 L221 637 L148 637 L148 244 Q148 143 198 92 Q248 41 339 41 Q434 41 483.5 92 Q533 143 533 244 L533 637 L461 637 Z M434 727 Q418 727 408 737 Q398 747 398 764 Q398 780 409 791 Q420 802 434 802 Q453 802 465 791.5 Q477 781 477 764 Q477 747 465 737 Q453 727 434 727 Z M256 727 Q239 727 227.5 737 Q216 747 216 764 Q216 780 228 791 Q240 802 254 802 Q273 802 284.5 791.5 Q296 781 296 764 Q296 747 284.5 737 Q273 727 256 727 Z " />
<glyph glyph-name="Yacute" unicode="&#xdd;" horiz-adv-x="550" d="M277 360 L432 637 L365 637 L365 683 L540 683 L540 637 L488 637 L303 310 L303 46 L385 46 L385 0 L163 0 L163 46 L245 46 L245 307 L64 637 L10 637 L10 683 L189 683 L189 637 L124 637 L273 360 L277 360 Z M252 746 L363 904 L412 864 L281 725 L252 746 Z " />
<glyph glyph-name="Thorn" unicode="&#xde;" horiz-adv-x="542" d="M315 204 Q340 204 365.5 211.5 Q391 219 410.5 236.5 Q430 254 442.5 283.5 Q455 313 455 357 Q455 395 444 423 Q433 451 413.5 470 Q394 489 368 498 Q342 507 312 507 L160 507 L160 204 L315 204 Z M310 553 Q351 553 388 541.5 Q425 530 452.5 506 Q480 482 496 445.5 Q512 409 512 360 Q512 331 503.5 296 Q495 261 473.5 230.5 Q452 200 414 179 Q376 158 318 158 L160 158 L160 46 L244 46 L244 0 L40 0 L40 46 L103 46 L103 637 L40 637 L40 683 L244 683 L244 637 L160 637 L160 553 L310 553 Z " />
<glyph glyph-name="agrave" unicode="&#xe0;" horiz-adv-x="478" d="M204 232 Q149 229 121.5 203.5 Q94 178 94 136 Q94 89 117.5 64.5 Q141 40 194 40 Q229 40 266 55.5 Q303 71 341 106 L341 239 L204 232 Z M394 46 L464 46 L468 13 Q451 5 430 0.5 Q409 -4 395 -4 Q369 -4 355.5 7 Q342 18 341 55 L339 56 Q310 32 284.5 19 Q259 6 238 0.5 Q217 -5 200.5 -6 Q184 -7 172 -7 Q131 -7 104.5 7 Q78 21 62.5 42 Q47 63 41 87 Q35 111 35 132 Q35 166 48 192 Q61 218 84.5 236 Q108 254 140.5 263.5 Q173 273 211 275 L341 282 L341 322 Q341 357 335.5 380.5 Q330 404 317.5 418 Q305 432 283.5 438 Q262 444 231 444 Q160 444 81 416 L66 456 Q107 475 153 485 Q199 495 243 495 Q315 495 354.5 459.5 Q394 424 394 336 L394 46 Z M257 536 L126 675 L175 715 L286 557 L257 536 Z " />
<glyph glyph-name="aacute" unicode="&#xe1;" horiz-adv-x="478" d="M204 232 Q149 229 121.5 203.5 Q94 178 94 136 Q94 89 117.5 64.5 Q141 40 194 40 Q229 40 266 55.5 Q303 71 341 106 L341 239 L204 232 Z M394 46 L464 46 L468 13 Q451 5 430 0.5 Q409 -4 395 -4 Q369 -4 355.5 7 Q342 18 341 55 L339 56 Q310 32 284.5 19 Q259 6 238 0.5 Q217 -5 200.5 -6 Q184 -7 172 -7 Q131 -7 104.5 7 Q78 21 62.5 42 Q47 63 41 87 Q35 111 35 132 Q35 166 48 192 Q61 218 84.5 236 Q108 254 140.5 263.5 Q173 273 211 275 L341 282 L341 322 Q341 357 335.5 380.5 Q330 404 317.5 418 Q305 432 283.5 438 Q262 444 231 444 Q160 444 81 416 L66 456 Q107 475 153 485 Q199 495 243 495 Q315 495 354.5 459.5 Q394 424 394 336 L394 46 Z M212 557 L323 715 L372 675 L241 536 L212 557 Z " />
<glyph glyph-name="acircumflex" unicode="&#xe2;" horiz-adv-x="478" d="M204 232 Q149 229 121.5 203.5 Q94 178 94 136 Q94 89 117.5 64.5 Q141 40 194 40 Q229 40 266 55.5 Q303 71 341 106 L341 239 L204 232 Z M394 46 L464 46 L468 13 Q451 5 430 0.5 Q409 -4 395 -4 Q369 -4 355.5 7 Q342 18 341 55 L339 56 Q310 32 284.5 19 Q259 6 238 0.5 Q217 -5 200.5 -6 Q184 -7 172 -7 Q131 -7 104.5 7 Q78 21 62.5 42 Q47 63 41 87 Q35 111 35 132 Q35 166 48 192 Q61 218 84.5 236 Q108 254 140.5 263.5 Q173 273 211 275 L341 282 L341 322 Q341 357 335.5 380.5 Q330 404 317.5 418 Q305 432 283.5 438 Q262 444 231 444 Q160 444 81 416 L66 456 Q107 475 153 485 Q199 495 243 495 Q315 495 354.5 459.5 Q394 424 394 336 L394 46 Z M237 632 L87 532 L69 554 L218 693 L257 693 L407 556 L388 533 L237 632 Z " />
<glyph glyph-name="atilde" unicode="&#xe3;" horiz-adv-x="478" d="M204 232 Q149 229 121.5 203.5 Q94 178 94 136 Q94 89 117.5 64.5 Q141 40 194 40 Q229 40 266 55.5 Q303 71 341 106 L341 239 L204 232 Z M394 46 L464 46 L468 13 Q451 5 430 0.5 Q409 -4 395 -4 Q369 -4 355.5 7 Q342 18 341 55 L339 56 Q310 32 284.5 19 Q259 6 238 0.5 Q217 -5 200.5 -6 Q184 -7 172 -7 Q131 -7 104.5 7 Q78 21 62.5 42 Q47 63 41 87 Q35 111 35 132 Q35 166 48 192 Q61 218 84.5 236 Q108 254 140.5 263.5 Q173 273 211 275 L341 282 L341 322 Q341 357 335.5 380.5 Q330 404 317.5 418 Q305 432 283.5 438 Q262 444 231 444 Q160 444 81 416 L66 456 Q107 475 153 485 Q199 495 243 495 Q315 495 354.5 459.5 Q394 424 394 336 L394 46 Z M166 621 Q182 621 200.5 615 Q219 609 236.5 601.5 Q254 594 270 588 Q286 582 298 582 L355 621 L377 603 Q367 575 346 555.5 Q325 536 298 536 Q277 536 258.5 542 Q240 548 224 555.5 Q208 563 193.5 569 Q179 575 166 575 L109 536 L87 554 Q97 582 118 601.5 Q139 621 166 621 Z " />
<glyph glyph-name="adieresis" unicode="&#xe4;" horiz-adv-x="478" d="M204 232 Q149 229 121.5 203.5 Q94 178 94 136 Q94 89 117.5 64.5 Q141 40 194 40 Q229 40 266 55.5 Q303 71 341 106 L341 239 L204 232 Z M394 46 L464 46 L468 13 Q451 5 430 0.5 Q409 -4 395 -4 Q369 -4 355.5 7 Q342 18 341 55 L339 56 Q310 32 284.5 19 Q259 6 238 0.5 Q217 -5 200.5 -6 Q184 -7 172 -7 Q131 -7 104.5 7 Q78 21 62.5 42 Q47 63 41 87 Q35 111 35 132 Q35 166 48 192 Q61 218 84.5 236 Q108 254 140.5 263.5 Q173 273 211 275 L341 282 L341 322 Q341 357 335.5 380.5 Q330 404 317.5 418 Q305 432 283.5 438 Q262 444 231 444 Q160 444 81 416 L66 456 Q107 475 153 485 Q199 495 243 495 Q315 495 354.5 459.5 Q394 424 394 336 L394 46 Z M306 535 Q290 535 280 545 Q270 555 270 572 Q270 588 281 599 Q292 610 306 610 Q325 610 337 599.5 Q349 589 349 572 Q349 555 337 545 Q325 535 306 535 Z M128 535 Q111 535 99.5 545 Q88 555 88 572 Q88 588 100 599 Q112 610 126 610 Q145 610 156.5 599.5 Q168 589 168 572 Q168 555 156.5 545 Q145 535 128 535 Z " />
<glyph glyph-name="aring" unicode="&#xe5;" horiz-adv-x="478" d="M204 232 Q149 229 121.5 203.5 Q94 178 94 136 Q94 89 117.5 64.5 Q141 40 194 40 Q229 40 266 55.5 Q303 71 341 106 L341 239 L204 232 Z M394 46 L464 46 L468 13 Q451 5 430 0.5 Q409 -4 395 -4 Q369 -4 355.5 7 Q342 18 341 55 L339 56 Q310 32 284.5 19 Q259 6 238 0.5 Q217 -5 200.5 -6 Q184 -7 172 -7 Q131 -7 104.5 7 Q78 21 62.5 42 Q47 63 41 87 Q35 111 35 132 Q35 166 48 192 Q61 218 84.5 236 Q108 254 140.5 263.5 Q173 273 211 275 L341 282 L341 322 Q341 357 335.5 380.5 Q330 404 317.5 418 Q305 432 283.5 438 Q262 444 231 444 Q160 444 81 416 L66 456 Q107 475 153 485 Q199 495 243 495 Q315 495 354.5 459.5 Q394 424 394 336 L394 46 Z M239 536 Q218 536 199 543.5 Q180 551 166.5 564.5 Q153 578 145 596 Q137 614 137 634 Q137 654 145 672 Q153 690 166.5 703.5 Q180 717 199 725 Q218 733 239 733 Q260 733 278 725 Q296 717 309.5 703.5 Q323 690 330.5 672 Q338 654 338 634 Q338 592 309.5 564 Q281 536 239 536 Z M239 699 Q209 699 191 680 Q173 661 173 632 Q173 604 191 585.5 Q209 567 239 567 Q267 567 284.5 585.5 Q302 604 302 632 Q302 660 284.5 679.5 Q267 699 239 699 Z " />
<glyph glyph-name="ccedilla" unicode="&#xe7;" horiz-adv-x="433" d="M249 498 Q289 498 326 490.5 Q363 483 391 470 L391 352 L347 352 L347 438 Q321 446 299 449 Q277 452 252 452 Q211 452 181.5 435.5 Q152 419 133 390.5 Q114 362 105 322.5 Q96 283 96 237 Q96 196 103 160 Q110 124 126.5 97 Q143 70 171 54.5 Q199 39 242 39 Q282 39 316 47.5 Q350 56 390 73 L406 37 Q379 21 340.5 9.5 Q302 -2 259 -4 L212 -65 Q260 -67 290.5 -85.5 Q321 -104 321 -142 Q321 -162 310.5 -180.5 Q300 -199 278.5 -212.5 Q257 -226 224.5 -234 Q192 -242 148 -241 L148 -210 Q202 -205 235 -190.5 Q268 -176 268 -149 Q268 -135 258.5 -127 Q249 -119 234 -114.5 Q219 -110 200.5 -108 Q182 -106 164 -106 L153 -89 L218 -4 Q168 0 134 19.5 Q100 39 79 70.5 Q58 102 49 144.5 Q40 187 40 237 Q40 274 48.5 319.5 Q57 365 80 404.5 Q103 444 143.5 471 Q184 498 249 498 Z " />
<glyph glyph-name="egrave" unicode="&#xe8;" horiz-adv-x="462" d="M242 497 Q289 497 321 483 Q353 469 373.5 447.5 Q394 426 405 399.5 Q416 373 420.5 347.5 Q425 322 425.5 300.5 Q426 279 426 267 L426 229 L96 229 Q96 193 102 158.5 Q108 124 124.5 98 Q141 72 169.5 56 Q198 40 242 40 Q264 40 283 42 Q302 44 320 48.5 Q338 53 357 60 Q376 67 397 76 L413 39 Q371 16 331 5.5 Q291 -5 243 -5 Q181 -5 142 14.5 Q103 34 80 67.5 Q57 101 48.5 146 Q40 191 40 242 Q40 261 42.5 287.5 Q45 314 52.5 342.5 Q60 371 73.5 398.5 Q87 426 109.5 448 Q132 470 164.5 483.5 Q197 497 242 497 Z M242 450 Q203 450 176.5 435.5 Q150 421 133 396.5 Q116 372 108 340.5 Q100 309 97 275 L372 275 Q372 314 365.5 346 Q359 378 344 401.5 Q329 425 304 437.5 Q279 450 242 450 Z M230 536 L99 675 L148 715 L259 557 L230 536 Z " />
<glyph glyph-name="eacute" unicode="&#xe9;" horiz-adv-x="462" d="M242 497 Q289 497 321 483 Q353 469 373.5 447.5 Q394 426 405 399.5 Q416 373 420.5 347.5 Q425 322 425.5 300.5 Q426 279 426 267 L426 229 L96 229 Q96 193 102 158.5 Q108 124 124.5 98 Q141 72 169.5 56 Q198 40 242 40 Q264 40 283 42 Q302 44 320 48.5 Q338 53 357 60 Q376 67 397 76 L413 39 Q371 16 331 5.5 Q291 -5 243 -5 Q181 -5 142 14.5 Q103 34 80 67.5 Q57 101 48.5 146 Q40 191 40 242 Q40 261 42.5 287.5 Q45 314 52.5 342.5 Q60 371 73.5 398.5 Q87 426 109.5 448 Q132 470 164.5 483.5 Q197 497 242 497 Z M242 450 Q203 450 176.5 435.5 Q150 421 133 396.5 Q116 372 108 340.5 Q100 309 97 275 L372 275 Q372 314 365.5 346 Q359 378 344 401.5 Q329 425 304 437.5 Q279 450 242 450 Z M223 557 L334 715 L383 675 L252 536 L223 557 Z " />
<glyph glyph-name="ecircumflex" unicode="&#xea;" horiz-adv-x="462" d="M242 497 Q289 497 321 483 Q353 469 373.5 447.5 Q394 426 405 399.5 Q416 373 420.5 347.5 Q425 322 425.5 300.5 Q426 279 426 267 L426 229 L96 229 Q96 193 102 158.5 Q108 124 124.5 98 Q141 72 169.5 56 Q198 40 242 40 Q264 40 283 42 Q302 44 320 48.5 Q338 53 357 60 Q376 67 397 76 L413 39 Q371 16 331 5.5 Q291 -5 243 -5 Q181 -5 142 14.5 Q103 34 80 67.5 Q57 101 48.5 146 Q40 191 40 242 Q40 261 42.5 287.5 Q45 314 52.5 342.5 Q60 371 73.5 398.5 Q87 426 109.5 448 Q132 470 164.5 483.5 Q197 497 242 497 Z M242 450 Q203 450 176.5 435.5 Q150 421 133 396.5 Q116 372 108 340.5 Q100 309 97 275 L372 275 Q372 314 365.5 346 Q359 378 344 401.5 Q329 425 304 437.5 Q279 450 242 450 Z M240 632 L90 532 L72 554 L221 693 L260 693 L410 556 L391 533 L240 632 Z " />
<glyph glyph-name="edieresis" unicode="&#xeb;" horiz-adv-x="462" d="M242 497 Q289 497 321 483 Q353 469 373.5 447.5 Q394 426 405 399.5 Q416 373 420.5 347.5 Q425 322 425.5 300.5 Q426 279 426 267 L426 229 L96 229 Q96 193 102 158.5 Q108 124 124.5 98 Q141 72 169.5 56 Q198 40 242 40 Q264 40 283 42 Q302 44 320 48.5 Q338 53 357 60 Q376 67 397 76 L413 39 Q371 16 331 5.5 Q291 -5 243 -5 Q181 -5 142 14.5 Q103 34 80 67.5 Q57 101 48.5 146 Q40 191 40 242 Q40 261 42.5 287.5 Q45 314 52.5 342.5 Q60 371 73.5 398.5 Q87 426 109.5 448 Q132 470 164.5 483.5 Q197 497 242 497 Z M242 450 Q203 450 176.5 435.5 Q150 421 133 396.5 Q116 372 108 340.5 Q100 309 97 275 L372 275 Q372 314 365.5 346 Q359 378 344 401.5 Q329 425 304 437.5 Q279 450 242 450 Z M334 535 Q318 535 308 545 Q298 555 298 572 Q298 588 309 599 Q320 610 334 610 Q353 610 365 599.5 Q377 589 377 572 Q377 555 365 545 Q353 535 334 535 Z M156 535 Q139 535 127.5 545 Q116 555 116 572 Q116 588 128 599 Q140 610 154 610 Q173 610 184.5 599.5 Q196 589 196 572 Q196 555 184.5 545 Q173 535 156 535 Z " />
<glyph glyph-name="igrave" unicode="&#xec;" horiz-adv-x="267" d="M53 443 L53 487 L164 487 L164 46 L238 46 L238 13 Q221 5 200 0.5 Q179 -4 165 -4 Q139 -4 125.5 7 Q112 18 111 55 L111 443 L53 443 Z M116 536 L-15 675 L34 715 L145 557 L116 536 Z " />
<glyph glyph-name="iacute" unicode="&#xed;" horiz-adv-x="267" d="M53 443 L53 487 L164 487 L164 46 L238 46 L238 13 Q221 5 200 0.5 Q179 -4 165 -4 Q139 -4 125.5 7 Q112 18 111 55 L111 443 L53 443 Z M100 557 L211 715 L260 675 L129 536 L100 557 Z " />
<glyph glyph-name="icircumflex" unicode="&#xee;" horiz-adv-x="267" d="M53 443 L53 487 L164 487 L164 46 L238 46 L238 13 Q221 5 200 0.5 Q179 -4 165 -4 Q139 -4 125.5 7 Q112 18 111 55 L111 443 L53 443 Z M139 632 L-11 532 L-29 554 L120 693 L159 693 L309 556 L290 533 L139 632 Z " />
<glyph glyph-name="idieresis" unicode="&#xef;" horiz-adv-x="260" d="M53 443 L53 487 L164 487 L164 46 L238 46 L238 13 Q221 5 200 0.5 Q179 -4 165 -4 Q139 -4 125.5 7 Q112 18 111 55 L111 443 L53 443 Z M216 535 Q200 535 190 545 Q180 555 180 572 Q180 588 191 599 Q202 610 216 610 Q235 610 247 599.5 Q259 589 259 572 Q259 555 247 545 Q235 535 216 535 Z M38 535 Q21 535 9.5 545 Q-2 555 -2 572 Q-2 588 10 599 Q22 610 36 610 Q55 610 66.5 599.5 Q78 589 78 572 Q78 555 66.5 545 Q55 535 38 535 Z " />
<glyph glyph-name="ntilde" unicode="&#xf1;" horiz-adv-x="556" d="M324 498 Q375 498 402.5 483 Q430 468 442.5 445.5 Q455 423 457.5 396.5 Q460 370 460 346 L460 46 L534 46 L534 13 Q517 5 496 0.5 Q475 -4 461 -4 Q435 -4 421.5 7 Q408 18 407 55 L407 331 Q407 358 404.5 380 Q402 402 393 417.5 Q384 433 366 441.5 Q348 450 316 450 Q296 450 274.5 445.5 Q253 441 231 433.5 Q209 426 188 416.5 Q167 407 150 398 L150 0 L96 0 L96 443 L20 443 L20 487 L150 487 L150 447 L153 445 Q195 471 242 484.5 Q289 498 324 498 Z M187 634 Q203 634 221.5 628 Q240 622 257.5 614.5 Q275 607 291 601 Q307 595 319 595 L376 634 L398 616 Q388 588 367 568.5 Q346 549 319 549 Q298 549 279.5 555 Q261 561 245 568.5 Q229 576 214.5 582 Q200 588 187 588 L130 549 L108 567 Q118 595 139 614.5 Q160 634 187 634 Z " />
<glyph glyph-name="ograve" unicode="&#xf2;" horiz-adv-x="481" d="M385 240 Q385 274 380 311 Q375 348 360 379 Q345 410 317.5 430 Q290 450 245 450 Q200 450 171.5 431 Q143 412 126.5 382 Q110 352 103.5 314 Q97 276 97 239 Q97 200 102.5 164.5 Q108 129 123.5 101 Q139 73 168 56.5 Q197 40 245 40 Q289 40 316.5 58.5 Q344 77 359 105.5 Q374 134 379.5 169.5 Q385 205 385 240 Z M245 497 Q303 497 341 474.5 Q379 452 401.5 416 Q424 380 432.5 334 Q441 288 441 242 Q441 197 432 152.5 Q423 108 399.5 72.5 Q376 37 336 15 Q296 -7 234 -7 Q177 -7 139.5 13.5 Q102 34 80 68.5 Q58 103 49 147.5 Q40 192 40 240 Q40 287 50.5 333 Q61 379 85.5 415.5 Q110 452 149 474.5 Q188 497 245 497 Z M234 536 L103 675 L152 715 L263 557 L234 536 Z " />
<glyph glyph-name="oacute" unicode="&#xf3;" horiz-adv-x="481" d="M385 240 Q385 274 380 311 Q375 348 360 379 Q345 410 317.5 430 Q290 450 245 450 Q200 450 171.5 431 Q143 412 126.5 382 Q110 352 103.5 314 Q97 276 97 239 Q97 200 102.5 164.5 Q108 129 123.5 101 Q139 73 168 56.5 Q197 40 245 40 Q289 40 316.5 58.5 Q344 77 359 105.5 Q374 134 379.5 169.5 Q385 205 385 240 Z M245 497 Q303 497 341 474.5 Q379 452 401.5 416 Q424 380 432.5 334 Q441 288 441 242 Q441 197 432 152.5 Q423 108 399.5 72.5 Q376 37 336 15 Q296 -7 234 -7 Q177 -7 139.5 13.5 Q102 34 80 68.5 Q58 103 49 147.5 Q40 192 40 240 Q40 287 50.5 333 Q61 379 85.5 415.5 Q110 452 149 474.5 Q188 497 245 497 Z M219 557 L330 715 L379 675 L248 536 L219 557 Z " />
<glyph glyph-name="ocircumflex" unicode="&#xf4;" horiz-adv-x="481" d="M385 240 Q385 274 380 311 Q375 348 360 379 Q345 410 317.5 430 Q290 450 245 450 Q200 450 171.5 431 Q143 412 126.5 382 Q110 352 103.5 314 Q97 276 97 239 Q97 200 102.5 164.5 Q108 129 123.5 101 Q139 73 168 56.5 Q197 40 245 40 Q289 40 316.5 58.5 Q344 77 359 105.5 Q374 134 379.5 169.5 Q385 205 385 240 Z M245 497 Q303 497 341 474.5 Q379 452 401.5 416 Q424 380 432.5 334 Q441 288 441 242 Q441 197 432 152.5 Q423 108 399.5 72.5 Q376 37 336 15 Q296 -7 234 -7 Q177 -7 139.5 13.5 Q102 34 80 68.5 Q58 103 49 147.5 Q40 192 40 240 Q40 287 50.5 333 Q61 379 85.5 415.5 Q110 452 149 474.5 Q188 497 245 497 Z M244 632 L94 532 L76 554 L225 693 L264 693 L414 556 L395 533 L244 632 Z " />
<glyph glyph-name="otilde" unicode="&#xf5;" horiz-adv-x="481" d="M385 240 Q385 274 380 311 Q375 348 360 379 Q345 410 317.5 430 Q290 450 245 450 Q200 450 171.5 431 Q143 412 126.5 382 Q110 352 103.5 314 Q97 276 97 239 Q97 200 102.5 164.5 Q108 129 123.5 101 Q139 73 168 56.5 Q197 40 245 40 Q289 40 316.5 58.5 Q344 77 359 105.5 Q374 134 379.5 169.5 Q385 205 385 240 Z M245 497 Q303 497 341 474.5 Q379 452 401.5 416 Q424 380 432.5 334 Q441 288 441 242 Q441 197 432 152.5 Q423 108 399.5 72.5 Q376 37 336 15 Q296 -7 234 -7 Q177 -7 139.5 13.5 Q102 34 80 68.5 Q58 103 49 147.5 Q40 192 40 240 Q40 287 50.5 333 Q61 379 85.5 415.5 Q110 452 149 474.5 Q188 497 245 497 Z M180 621 Q196 621 214.5 615 Q233 609 250.5 601.5 Q268 594 284 588 Q300 582 312 582 L369 621 L391 603 Q381 575 360 555.5 Q339 536 312 536 Q291 536 272.5 542 Q254 548 238 555.5 Q222 563 207.5 569 Q193 575 180 575 L123 536 L101 554 Q111 582 132 601.5 Q153 621 180 621 Z " />
<glyph glyph-name="odieresis" unicode="&#xf6;" horiz-adv-x="481" d="M385 240 Q385 274 380 311 Q375 348 360 379 Q345 410 317.5 430 Q290 450 245 450 Q200 450 171.5 431 Q143 412 126.5 382 Q110 352 103.5 314 Q97 276 97 239 Q97 200 102.5 164.5 Q108 129 123.5 101 Q139 73 168 56.5 Q197 40 245 40 Q289 40 316.5 58.5 Q344 77 359 105.5 Q374 134 379.5 169.5 Q385 205 385 240 Z M245 497 Q303 497 341 474.5 Q379 452 401.5 416 Q424 380 432.5 334 Q441 288 441 242 Q441 197 432 152.5 Q423 108 399.5 72.5 Q376 37 336 15 Q296 -7 234 -7 Q177 -7 139.5 13.5 Q102 34 80 68.5 Q58 103 49 147.5 Q40 192 40 240 Q40 287 50.5 333 Q61 379 85.5 415.5 Q110 452 149 474.5 Q188 497 245 497 Z M336 535 Q320 535 310 545 Q300 555 300 572 Q300 588 311 599 Q322 610 336 610 Q355 610 367 599.5 Q379 589 379 572 Q379 555 367 545 Q355 535 336 535 Z M158 535 Q141 535 129.5 545 Q118 555 118 572 Q118 588 130 599 Q142 610 156 610 Q175 610 186.5 599.5 Q198 589 198 572 Q198 555 186.5 545 Q175 535 158 535 Z " />
<glyph glyph-name="oslash" unicode="&#xf8;" horiz-adv-x="481" d="M245 497 Q290 497 321.5 484 Q353 471 376 448 L411 496 L444 497 L393 428 Q420 390 430.5 341.5 Q441 293 441 242 Q441 197 432 152.5 Q423 108 399.5 72.5 Q376 37 336 15 Q296 -7 234 -7 Q190 -7 158.5 5 Q127 17 105 38 L72 -6 L36 -7 L86 60 Q60 95 50 142 Q40 189 40 240 Q40 287 50.5 333 Q61 379 85.5 415.5 Q110 452 149 474.5 Q188 497 245 497 Z M385 240 Q385 275 379.5 312 Q374 349 358 381 L137 81 Q154 62 180 51 Q206 40 245 40 Q289 40 316.5 58.5 Q344 77 359 105.5 Q374 134 379.5 169.5 Q385 205 385 240 Z M245 450 Q200 450 171.5 431 Q143 412 126.5 382 Q110 352 103.5 314 Q97 276 97 239 Q97 202 101.5 167.5 Q106 133 120 106 L343 405 Q327 425 303.5 437.5 Q280 450 245 450 Z " />
<glyph glyph-name="ugrave" unicode="&#xf9;" horiz-adv-x="547" d="M232 -11 Q181 -11 153.5 3.5 Q126 18 113.5 40.5 Q101 63 98.5 90 Q96 117 96 141 L96 443 L20 443 L20 487 L149 487 L149 156 Q149 129 151.5 107 Q154 85 163 69.5 Q172 54 190 45.5 Q208 37 240 37 Q255 37 274.5 41.5 Q294 46 315 54.5 Q336 63 357.5 76 Q379 89 398 106 L398 443 L326 443 L326 487 L451 488 L451 487 L452 487 L451 46 L521 46 L525 13 Q508 5 487 0.5 Q466 -4 452 -4 Q426 -4 412.5 7 Q399 18 398 55 L396 56 Q372 34 347.5 20.5 Q323 7 301 0 Q279 -7 261.5 -9 Q244 -11 232 -11 Z M257 536 L126 675 L175 715 L286 557 L257 536 Z " />
<glyph glyph-name="uacute" unicode="&#xfa;" horiz-adv-x="547" d="M232 -11 Q181 -11 153.5 3.5 Q126 18 113.5 40.5 Q101 63 98.5 90 Q96 117 96 141 L96 443 L20 443 L20 487 L149 487 L149 156 Q149 129 151.5 107 Q154 85 163 69.5 Q172 54 190 45.5 Q208 37 240 37 Q255 37 274.5 41.5 Q294 46 315 54.5 Q336 63 357.5 76 Q379 89 398 106 L398 443 L326 443 L326 487 L451 488 L451 487 L452 487 L451 46 L521 46 L525 13 Q508 5 487 0.5 Q466 -4 452 -4 Q426 -4 412.5 7 Q399 18 398 55 L396 56 Q372 34 347.5 20.5 Q323 7 301 0 Q279 -7 261.5 -9 Q244 -11 232 -11 Z M223 557 L334 715 L383 675 L252 536 L223 557 Z " />
<glyph glyph-name="ucircumflex" unicode="&#xfb;" horiz-adv-x="547" d="M232 -11 Q181 -11 153.5 3.5 Q126 18 113.5 40.5 Q101 63 98.5 90 Q96 117 96 141 L96 443 L20 443 L20 487 L149 487 L149 156 Q149 129 151.5 107 Q154 85 163 69.5 Q172 54 190 45.5 Q208 37 240 37 Q255 37 274.5 41.5 Q294 46 315 54.5 Q336 63 357.5 76 Q379 89 398 106 L398 443 L326 443 L326 487 L451 488 L451 487 L452 487 L451 46 L521 46 L525 13 Q508 5 487 0.5 Q466 -4 452 -4 Q426 -4 412.5 7 Q399 18 398 55 L396 56 Q372 34 347.5 20.5 Q323 7 301 0 Q279 -7 261.5 -9 Q244 -11 232 -11 Z M260 632 L110 532 L92 554 L241 693 L280 693 L430 556 L411 533 L260 632 Z " />
<glyph glyph-name="udieresis" unicode="&#xfc;" horiz-adv-x="547" d="M232 -11 Q181 -11 153.5 3.5 Q126 18 113.5 40.5 Q101 63 98.5 90 Q96 117 96 141 L96 443 L20 443 L20 487 L149 487 L149 156 Q149 129 151.5 107 Q154 85 163 69.5 Q172 54 190 45.5 Q208 37 240 37 Q255 37 274.5 41.5 Q294 46 315 54.5 Q336 63 357.5 76 Q379 89 398 106 L398 443 L326 443 L326 487 L451 488 L451 487 L452 487 L451 46 L521 46 L525 13 Q508 5 487 0.5 Q466 -4 452 -4 Q426 -4 412.5 7 Q399 18 398 55 L396 56 Q372 34 347.5 20.5 Q323 7 301 0 Q279 -7 261.5 -9 Q244 -11 232 -11 Z M351 535 Q335 535 325 545 Q315 555 315 572 Q315 588 326 599 Q337 610 351 610 Q370 610 382 599.5 Q394 589 394 572 Q394 555 382 545 Q370 535 351 535 Z M173 535 Q156 535 144.5 545 Q133 555 133 572 Q133 588 145 599 Q157 610 171 610 Q190 610 201.5 599.5 Q213 589 213 572 Q213 555 201.5 545 Q190 535 173 535 Z " />
<glyph glyph-name="yacute" unicode="&#xfd;" horiz-adv-x="503" d="M286 152 L381 442 L315 442 L315 487 L484 487 L484 442 L433 442 L249 -115 Q232 -169 206.5 -191.5 Q181 -214 137 -214 Q129 -214 104.5 -213 Q80 -212 33 -198 L43 -157 Q67 -162 88 -165.5 Q109 -169 126 -169 Q152 -169 171 -154.5 Q190 -140 204 -99 L236 0 L209 0 L66 442 L16 442 L16 487 L108 487 L212 154 L245 43 L250 43 L286 152 Z M198 557 L309 715 L358 675 L227 536 L198 557 Z " />
<glyph glyph-name="thorn" unicode="&#xfe;" horiz-adv-x="507" d="M5 -164 L84 -164 L84 640 L2 640 L2 684 L139 684 L139 437 Q167 460 206.5 476.5 Q246 493 289 493 Q339 493 373 473.5 Q407 454 428 421 Q449 388 458 344 Q467 300 467 252 Q467 196 456.5 148 Q446 100 423.5 65 Q401 30 364 9.5 Q327 -11 275 -11 Q260 -11 242.5 -9 Q225 -7 206.5 -2.5 Q188 2 170.5 9.5 Q153 17 139 27 L139 -164 L225 -164 L225 -208 L5 -208 L5 -164 Z M139 76 Q147 70 162 63 Q177 56 195 50 Q213 44 233.5 40.5 Q254 37 272 37 Q301 37 326 48 Q351 59 370 84.5 Q389 110 399.5 151.5 Q410 193 410 254 Q410 308 401 344.5 Q392 381 374.5 403.5 Q357 426 332.5 435.5 Q308 445 278 445 Q261 445 241 440 Q221 435 201 427 Q181 419 164.5 409 Q148 399 139 390 L139 76 Z " />
<glyph glyph-name="ydieresis" unicode="&#xff;" horiz-adv-x="503" d="M286 152 L381 442 L315 442 L315 487 L484 487 L484 442 L433 442 L249 -115 Q232 -169 206.5 -191.5 Q181 -214 137 -214 Q129 -214 104.5 -213 Q80 -212 33 -198 L43 -157 Q67 -162 88 -165.5 Q109 -169 126 -169 Q152 -169 171 -154.5 Q190 -140 204 -99 L236 0 L209 0 L66 442 L16 442 L16 487 L108 487 L212 154 L245 43 L250 43 L286 152 Z M327 535 Q311 535 301 545 Q291 555 291 572 Q291 588 302 599 Q313 610 327 610 Q346 610 358 599.5 Q370 589 370 572 Q370 555 358 545 Q346 535 327 535 Z M149 535 Q132 535 120.5 545 Q109 555 109 572 Q109 588 121 599 Q133 610 147 610 Q166 610 177.5 599.5 Q189 589 189 572 Q189 555 177.5 545 Q166 535 149 535 Z " />
<glyph glyph-name="Amacron" unicode="&#x100;" horiz-adv-x="636" d="M430 0 L430 46 L501 46 L457 189 L180 189 L136 46 L210 46 L210 0 L20 0 L20 46 L78 46 Q126 200 180 365 Q234 530 283 684 L355 684 L562 46 L617 46 L617 0 L430 0 Z M342 555 L320 629 L318 629 Q318 627 317 623.5 Q316 620 313.5 612 Q311 604 306.5 590 Q302 576 295 554 Q282 514 258.5 439.5 Q235 365 197 239 L441 239 L342 555 Z M477 798 L477 747 L164 747 L164 798 L477 798 Z " />
<glyph glyph-name="amacron" unicode="&#x101;" horiz-adv-x="478" d="M204 232 Q149 229 121.5 203.5 Q94 178 94 136 Q94 89 117.5 64.5 Q141 40 194 40 Q229 40 266 55.5 Q303 71 341 106 L341 239 L204 232 Z M394 46 L464 46 L468 13 Q451 5 430 0.5 Q409 -4 395 -4 Q369 -4 355.5 7 Q342 18 341 55 L339 56 Q310 32 284.5 19 Q259 6 238 0.5 Q217 -5 200.5 -6 Q184 -7 172 -7 Q131 -7 104.5 7 Q78 21 62.5 42 Q47 63 41 87 Q35 111 35 132 Q35 166 48 192 Q61 218 84.5 236 Q108 254 140.5 263.5 Q173 273 211 275 L341 282 L341 322 Q341 357 335.5 380.5 Q330 404 317.5 418 Q305 432 283.5 438 Q262 444 231 444 Q160 444 81 416 L66 456 Q107 475 153 485 Q199 495 243 495 Q315 495 354.5 459.5 Q394 424 394 336 L394 46 Z M381 603 L381 555 L78 555 L78 603 L381 603 Z " />
<glyph glyph-name="Abreve" unicode="&#x102;" horiz-adv-x="636" d="M430 0 L430 46 L501 46 L457 189 L180 189 L136 46 L210 46 L210 0 L20 0 L20 46 L78 46 Q126 200 180 365 Q234 530 283 684 L355 684 L562 46 L617 46 L617 0 L430 0 Z M342 555 L320 629 L318 629 Q318 627 317 623.5 Q316 620 313.5 612 Q311 604 306.5 590 Q302 576 295 554 Q282 514 258.5 439.5 Q235 365 197 239 L441 239 L342 555 Z M314 727 Q289 727 267.5 736 Q246 745 227 760 Q208 775 192 793.5 Q176 812 162 831 L203 859 Q229 824 258.5 801 Q288 778 317 778 Q326 778 339 780 Q352 782 369.5 789.5 Q387 797 408 811.5 Q429 826 455 852 L477 833 Q435 775 393.5 751 Q352 727 314 727 Z " />
<glyph glyph-name="abreve" unicode="&#x103;" horiz-adv-x="478" d="M204 232 Q149 229 121.5 203.5 Q94 178 94 136 Q94 89 117.5 64.5 Q141 40 194 40 Q229 40 266 55.5 Q303 71 341 106 L341 239 L204 232 Z M394 46 L464 46 L468 13 Q451 5 430 0.5 Q409 -4 395 -4 Q369 -4 355.5 7 Q342 18 341 55 L339 56 Q310 32 284.5 19 Q259 6 238 0.5 Q217 -5 200.5 -6 Q184 -7 172 -7 Q131 -7 104.5 7 Q78 21 62.5 42 Q47 63 41 87 Q35 111 35 132 Q35 166 48 192 Q61 218 84.5 236 Q108 254 140.5 263.5 Q173 273 211 275 L341 282 L341 322 Q341 357 335.5 380.5 Q330 404 317.5 418 Q305 432 283.5 438 Q262 444 231 444 Q160 444 81 416 L66 456 Q107 475 153 485 Q199 495 243 495 Q315 495 354.5 459.5 Q394 424 394 336 L394 46 Z M238 541 Q213 541 191.5 550 Q170 559 151 574 Q132 589 116 607.5 Q100 626 86 645 L124 671 Q150 636 181 611.5 Q212 587 241 587 Q250 587 263 589 Q276 591 293.5 598.5 Q311 606 332 620.5 Q353 635 379 661 L401 642 Q359 584 317.5 562.5 Q276 541 238 541 Z " />
<glyph glyph-name="Aogonek" unicode="&#x104;" horiz-adv-x="636" d="M547 0 Q524 -29 511 -63 Q498 -97 498 -120 Q498 -142 513.5 -150.5 Q529 -159 551 -159.5 Q573 -160 596 -156 Q619 -152 633 -149 L638 -175 Q615 -186 588.5 -193 Q562 -200 535 -200 Q490 -200 467 -182 Q444 -164 444 -132 Q444 -107 457 -72 Q470 -37 512 0 L430 0 L430 46 L501 46 L457 189 L180 189 L136 46 L210 46 L210 0 L20 0 L20 46 L78 46 Q126 200 180 365 Q234 530 283 684 L355 684 L562 46 L617 46 L617 0 L547 0 Z M342 555 L320 629 L318 629 Q318 627 317 623.5 Q316 620 313.5 612 Q311 604 306.5 590 Q302 576 295 554 Q282 514 258.5 439.5 Q235 365 197 239 L441 239 L342 555 Z " />
<glyph glyph-name="aogonek" unicode="&#x105;" horiz-adv-x="478" d="M394 46 L464 46 L468 13 Q460 8 450.5 5 Q441 2 431 0 Q408 -28 394.5 -62.5 Q381 -97 381 -120 Q381 -142 396.5 -150.5 Q412 -159 434 -159.5 Q456 -160 479 -156 Q502 -152 516 -149 L521 -175 Q498 -186 471.5 -193 Q445 -200 418 -200 Q373 -200 350 -182 Q327 -164 327 -132 Q327 -108 339.5 -74 Q352 -40 391 -4 Q367 -3 354.5 8.5 Q342 20 341 55 L339 56 Q310 32 284.5 19 Q259 6 238 0.5 Q217 -5 200.5 -6 Q184 -7 172 -7 Q131 -7 104.5 7 Q78 21 62.5 42 Q47 63 41 87 Q35 111 35 132 Q35 166 48 192 Q61 218 84.5 236 Q108 254 140.5 263.5 Q173 273 211 275 L341 282 L341 322 Q341 357 335.5 380.5 Q330 404 317.5 418 Q305 432 283.5 438 Q262 444 231 444 Q160 444 81 416 L66 456 Q107 475 153 485 Q199 495 243 495 Q315 495 354.5 459.5 Q394 424 394 336 L394 46 Z M204 232 Q149 229 121.5 203.5 Q94 178 94 136 Q94 89 117.5 64.5 Q141 40 194 40 Q229 40 266 55.5 Q303 71 341 106 L341 239 L204 232 Z " />
<glyph glyph-name="Cacute" unicode="&#x106;" horiz-adv-x="545" d="M515 23 Q499 17 476.5 11.5 Q454 6 429.5 2 Q405 -2 379 -4.5 Q353 -7 331 -7 Q255 -7 201.5 17 Q148 41 114.5 86 Q81 131 65.5 194.5 Q50 258 50 337 Q50 372 55.5 412 Q61 452 73.5 491.5 Q86 531 107 567.5 Q128 604 159.5 632 Q191 660 234.5 676.5 Q278 693 335 693 Q392 693 434 685 Q476 677 504 666 L504 522 L456 522 L456 629 Q433 636 401 640.5 Q369 645 337 645 Q278 645 234.5 622.5 Q191 600 163 559.5 Q135 519 121.5 462 Q108 405 108 335 Q108 276 117 223 Q126 170 151 130 Q176 90 221 66 Q266 42 338 42 Q352 42 372 43 Q392 44 414 47 Q436 50 459 54.5 Q482 59 503 66 L515 23 Z M311 747 L422 905 L471 865 L340 726 L311 747 Z " />
<glyph glyph-name="cacute" unicode="&#x107;" horiz-adv-x="433" d="M249 498 Q289 498 326 490.5 Q363 483 391 470 L391 352 L347 352 L347 438 Q321 446 299 449 Q277 452 252 452 Q211 452 181.5 435.5 Q152 419 133 390.5 Q114 362 105 322.5 Q96 283 96 237 Q96 196 103 160 Q110 124 126.5 97 Q143 70 171 54.5 Q199 39 242 39 Q282 39 316 47.5 Q350 56 390 73 L406 37 Q377 20 334 7.5 Q291 -5 243 -5 Q186 -5 147.5 13 Q109 31 85 63 Q61 95 50.5 139.5 Q40 184 40 237 Q40 274 48.5 319.5 Q57 365 80 404.5 Q103 444 143.5 471 Q184 498 249 498 Z M208 557 L319 715 L368 675 L237 536 L208 557 Z " />
<glyph glyph-name="Ccircumflex" unicode="&#x108;" horiz-adv-x="545" d="M515 23 Q499 17 476.5 11.5 Q454 6 429.5 2 Q405 -2 379 -4.5 Q353 -7 331 -7 Q255 -7 201.5 17 Q148 41 114.5 86 Q81 131 65.5 194.5 Q50 258 50 337 Q50 372 55.5 412 Q61 452 73.5 491.5 Q86 531 107 567.5 Q128 604 159.5 632 Q191 660 234.5 676.5 Q278 693 335 693 Q392 693 434 685 Q476 677 504 666 L504 522 L456 522 L456 629 Q433 636 401 640.5 Q369 645 337 645 Q278 645 234.5 622.5 Q191 600 163 559.5 Q135 519 121.5 462 Q108 405 108 335 Q108 276 117 223 Q126 170 151 130 Q176 90 221 66 Q266 42 338 42 Q352 42 372 43 Q392 44 414 47 Q436 50 459 54.5 Q482 59 503 66 L515 23 Z M325 826 L175 726 L157 748 L306 881 L345 881 L495 750 L476 727 L325 826 Z " />
<glyph glyph-name="ccircumflex" unicode="&#x109;" horiz-adv-x="433" d="M249 498 Q289 498 326 490.5 Q363 483 391 470 L391 352 L347 352 L347 438 Q321 446 299 449 Q277 452 252 452 Q211 452 181.5 435.5 Q152 419 133 390.5 Q114 362 105 322.5 Q96 283 96 237 Q96 196 103 160 Q110 124 126.5 97 Q143 70 171 54.5 Q199 39 242 39 Q282 39 316 47.5 Q350 56 390 73 L406 37 Q377 20 334 7.5 Q291 -5 243 -5 Q186 -5 147.5 13 Q109 31 85 63 Q61 95 50.5 139.5 Q40 184 40 237 Q40 274 48.5 319.5 Q57 365 80 404.5 Q103 444 143.5 471 Q184 498 249 498 Z M246 632 L96 532 L78 554 L227 693 L266 693 L416 556 L397 533 L246 632 Z " />
<glyph glyph-name="Cdotaccent" unicode="&#x10a;" horiz-adv-x="545" d="M515 23 Q499 17 476.5 11.5 Q454 6 429.5 2 Q405 -2 379 -4.5 Q353 -7 331 -7 Q255 -7 201.5 17 Q148 41 114.5 86 Q81 131 65.5 194.5 Q50 258 50 337 Q50 372 55.5 412 Q61 452 73.5 491.5 Q86 531 107 567.5 Q128 604 159.5 632 Q191 660 234.5 676.5 Q278 693 335 693 Q392 693 434 685 Q476 677 504 666 L504 522 L456 522 L456 629 Q433 636 401 640.5 Q369 645 337 645 Q278 645 234.5 622.5 Q191 600 163 559.5 Q135 519 121.5 462 Q108 405 108 335 Q108 276 117 223 Q126 170 151 130 Q176 90 221 66 Q266 42 338 42 Q352 42 372 43 Q392 44 414 47 Q436 50 459 54.5 Q482 59 503 66 L515 23 Z M281 778 Q281 796 293.5 808.5 Q306 821 323 821 Q341 821 353.5 808.5 Q366 796 366 778 Q366 761 353.5 748.5 Q341 736 323 736 Q306 736 293.5 748.5 Q281 761 281 778 Z " />
<glyph glyph-name="cdotaccent" unicode="&#x10b;" horiz-adv-x="433" d="M249 498 Q289 498 326 490.5 Q363 483 391 470 L391 352 L347 352 L347 438 Q321 446 299 449 Q277 452 252 452 Q211 452 181.5 435.5 Q152 419 133 390.5 Q114 362 105 322.5 Q96 283 96 237 Q96 196 103 160 Q110 124 126.5 97 Q143 70 171 54.5 Q199 39 242 39 Q282 39 316 47.5 Q350 56 390 73 L406 37 Q377 20 334 7.5 Q291 -5 243 -5 Q186 -5 147.5 13 Q109 31 85 63 Q61 95 50.5 139.5 Q40 184 40 237 Q40 274 48.5 319.5 Q57 365 80 404.5 Q103 444 143.5 471 Q184 498 249 498 Z M209 581 Q209 598 220 610 Q231 622 247 622 Q263 622 274 610 Q285 598 285 581 Q285 564 274 552 Q263 540 247 540 Q231 540 220 552 Q209 564 209 581 Z " />
<glyph glyph-name="Ccaron" unicode="&#x10c;" horiz-adv-x="545" d="M515 23 Q499 17 476.5 11.5 Q454 6 429.5 2 Q405 -2 379 -4.5 Q353 -7 331 -7 Q255 -7 201.5 17 Q148 41 114.5 86 Q81 131 65.5 194.5 Q50 258 50 337 Q50 372 55.5 412 Q61 452 73.5 491.5 Q86 531 107 567.5 Q128 604 159.5 632 Q191 660 234.5 676.5 Q278 693 335 693 Q392 693 434 685 Q476 677 504 666 L504 522 L456 522 L456 629 Q433 636 401 640.5 Q369 645 337 645 Q278 645 234.5 622.5 Q191 600 163 559.5 Q135 519 121.5 462 Q108 405 108 335 Q108 276 117 223 Q126 170 151 130 Q176 90 221 66 Q266 42 338 42 Q352 42 372 43 Q392 44 414 47 Q436 50 459 54.5 Q482 59 503 66 L515 23 Z M477 887 L496 864 L346 734 L307 734 L158 866 L176 888 L326 788 L477 887 Z " />
<glyph glyph-name="ccaron" unicode="&#x10d;" horiz-adv-x="433" d="M249 498 Q289 498 326 490.5 Q363 483 391 470 L391 352 L347 352 L347 438 Q321 446 299 449 Q277 452 252 452 Q211 452 181.5 435.5 Q152 419 133 390.5 Q114 362 105 322.5 Q96 283 96 237 Q96 196 103 160 Q110 124 126.5 97 Q143 70 171 54.5 Q199 39 242 39 Q282 39 316 47.5 Q350 56 390 73 L406 37 Q377 20 334 7.5 Q291 -5 243 -5 Q186 -5 147.5 13 Q109 31 85 63 Q61 95 50.5 139.5 Q40 184 40 237 Q40 274 48.5 319.5 Q57 365 80 404.5 Q103 444 143.5 471 Q184 498 249 498 Z M407 695 L426 672 L276 544 L237 544 L88 674 L106 696 L256 596 L407 695 Z " />
<glyph glyph-name="Dcaron" unicode="&#x10e;" horiz-adv-x="633" d="M583 343 Q583 272 570 210 Q557 148 525 101 Q493 54 439 27 Q385 0 304 0 L40 0 L40 46 L108 46 L108 637 L44 637 L44 683 L314 683 Q394 683 446 655.5 Q498 628 528.5 581.5 Q559 535 571 473 Q583 411 583 343 Z M526 335 Q526 409 514 460.5 Q502 512 483 545.5 Q464 579 440 597.5 Q416 616 391 625 Q366 634 343 635.5 Q320 637 304 637 L167 637 L167 47 L296 47 Q310 47 332.5 48 Q355 49 381 56.5 Q407 64 432.5 81.5 Q458 99 479 131 Q500 163 513 212.5 Q526 262 526 335 Z M423 887 L442 864 L292 734 L253 734 L104 866 L122 888 L272 788 L423 887 Z " />
<glyph glyph-name="dcaron" unicode="&#x10f;" horiz-adv-x="594" d="M497 694 Q497 711 510 724 Q523 737 541 737 Q561 737 575 723 Q589 709 588 685 Q585 620 517 585 L503 603 Q528 628 527 652 Q513 657 505 668 Q497 679 497 694 Z M366 48 Q338 26 299 10 Q260 -6 218 -6 Q168 -6 134 13.5 Q100 33 79 66 Q58 99 49 143 Q40 187 40 235 Q40 290 50.5 338.5 Q61 387 83.5 422 Q106 457 142.5 477.5 Q179 498 232 498 Q247 498 264.5 496 Q282 494 300.5 489.5 Q319 485 336.5 477.5 Q354 470 368 460 L368 665 L282 665 L282 709 L423 709 L423 43 L502 43 L502 0 L368 0 L368 45 L366 48 Z M368 411 Q360 417 345 424 Q330 431 312 437 Q294 443 273.5 446.5 Q253 450 235 450 Q206 450 181 439 Q156 428 137 402.5 Q118 377 107.5 335.5 Q97 294 97 233 Q97 179 106 142.5 Q115 106 132.5 83.5 Q150 61 174.5 51.5 Q199 42 229 42 Q245 42 265.5 47 Q286 52 306 60 Q326 68 342.5 78 Q359 88 368 97 L368 411 Z " />
<glyph glyph-name="dcroat" unicode="&#x111;" horiz-adv-x="512" d="M366 48 Q338 26 299 10 Q260 -6 218 -6 Q168 -6 134 13.5 Q100 33 79 66 Q58 99 49 143 Q40 187 40 235 Q40 290 50.5 337 Q61 384 83.5 418 Q106 452 142.5 471 Q179 490 232 490 Q247 490 264.5 488 Q282 486 300.5 481.5 Q319 477 336.5 469.5 Q354 462 368 452 L368 543 L212 543 L212 585 L368 585 L368 665 L282 665 L282 709 L423 709 L423 585 L502 585 L502 543 L423 543 L423 43 L502 43 L502 0 L368 0 L368 45 L366 48 Z M368 403 Q360 409 345 416 Q330 423 312 429 Q294 435 273.5 438.5 Q253 442 235 442 Q206 442 181 432.5 Q156 423 137 399 Q118 375 107.5 334.5 Q97 294 97 233 Q97 179 106 142.5 Q115 106 132.5 83.5 Q150 61 174.5 51.5 Q199 42 229 42 Q245 42 265.5 47 Q286 52 306 60 Q326 68 342.5 78 Q359 88 368 97 L368 403 Z " />
<glyph glyph-name="Emacron" unicode="&#x112;" horiz-adv-x="540" d="M40 46 L106 46 L106 637 L44 637 L44 682 L493 682 L493 548 L445 548 L445 637 L163 637 L163 382 L442 388 L442 334 L163 338 L163 46 L460 46 L460 135 L510 135 L510 0 L40 0 L40 46 Z M455 798 L455 747 L142 747 L142 798 L455 798 Z " />
<glyph glyph-name="emacron" unicode="&#x113;" horiz-adv-x="462" d="M242 497 Q289 497 321 483 Q353 469 373.5 447.5 Q394 426 405 399.5 Q416 373 420.5 347.5 Q425 322 425.5 300.5 Q426 279 426 267 L426 229 L96 229 Q96 193 102 158.5 Q108 124 124.5 98 Q141 72 169.5 56 Q198 40 242 40 Q264 40 283 42 Q302 44 320 48.5 Q338 53 357 60 Q376 67 397 76 L413 39 Q371 16 331 5.5 Q291 -5 243 -5 Q181 -5 142 14.5 Q103 34 80 67.5 Q57 101 48.5 146 Q40 191 40 242 Q40 261 42.5 287.5 Q45 314 52.5 342.5 Q60 371 73.5 398.5 Q87 426 109.5 448 Q132 470 164.5 483.5 Q197 497 242 497 Z M242 450 Q203 450 176.5 435.5 Q150 421 133 396.5 Q116 372 108 340.5 Q100 309 97 275 L372 275 Q372 314 365.5 346 Q359 378 344 401.5 Q329 425 304 437.5 Q279 450 242 450 Z M405 603 L405 555 L102 555 L102 603 L405 603 Z " />
<glyph glyph-name="Ebreve" unicode="&#x114;" horiz-adv-x="540" d="M40 46 L106 46 L106 637 L44 637 L44 682 L493 682 L493 548 L445 548 L445 637 L163 637 L163 382 L442 388 L442 334 L163 338 L163 46 L460 46 L460 135 L510 135 L510 0 L40 0 L40 46 Z M292 727 Q267 727 245.5 736 Q224 745 205 760 Q186 775 170 793.5 Q154 812 140 831 L181 859 Q207 824 236.5 801 Q266 778 295 778 Q304 778 317 780 Q330 782 347.5 789.5 Q365 797 386 811.5 Q407 826 433 852 L455 833 Q413 775 371.5 751 Q330 727 292 727 Z " />
<glyph glyph-name="ebreve" unicode="&#x115;" horiz-adv-x="462" d="M242 497 Q289 497 321 483 Q353 469 373.5 447.5 Q394 426 405 399.5 Q416 373 420.5 347.5 Q425 322 425.5 300.5 Q426 279 426 267 L426 229 L96 229 Q96 193 102 158.5 Q108 124 124.5 98 Q141 72 169.5 56 Q198 40 242 40 Q264 40 283 42 Q302 44 320 48.5 Q338 53 357 60 Q376 67 397 76 L413 39 Q371 16 331 5.5 Q291 -5 243 -5 Q181 -5 142 14.5 Q103 34 80 67.5 Q57 101 48.5 146 Q40 191 40 242 Q40 261 42.5 287.5 Q45 314 52.5 342.5 Q60 371 73.5 398.5 Q87 426 109.5 448 Q132 470 164.5 483.5 Q197 497 242 497 Z M242 450 Q203 450 176.5 435.5 Q150 421 133 396.5 Q116 372 108 340.5 Q100 309 97 275 L372 275 Q372 314 365.5 346 Q359 378 344 401.5 Q329 425 304 437.5 Q279 450 242 450 Z M238 541 Q213 541 191.5 550 Q170 559 151 574 Q132 589 116 607.5 Q100 626 86 645 L124 671 Q150 636 181 611.5 Q212 587 241 587 Q250 587 263 589 Q276 591 293.5 598.5 Q311 606 332 620.5 Q353 635 379 661 L401 642 Q359 584 317.5 562.5 Q276 541 238 541 Z " />
<glyph glyph-name="Edotaccent" unicode="&#x116;" horiz-adv-x="540" d="M40 46 L106 46 L106 637 L44 637 L44 682 L493 682 L493 548 L445 548 L445 637 L163 637 L163 382 L442 388 L442 334 L163 338 L163 46 L460 46 L460 135 L510 135 L510 0 L40 0 L40 46 Z M253 772 Q253 790 265.5 802.5 Q278 815 295 815 Q313 815 325.5 802.5 Q338 790 338 772 Q338 755 325.5 742.5 Q313 730 295 730 Q278 730 265.5 742.5 Q253 755 253 772 Z " />
<glyph glyph-name="edotaccent" unicode="&#x117;" horiz-adv-x="462" d="M242 497 Q289 497 321 483 Q353 469 373.5 447.5 Q394 426 405 399.5 Q416 373 420.5 347.5 Q425 322 425.5 300.5 Q426 279 426 267 L426 229 L96 229 Q96 193 102 158.5 Q108 124 124.5 98 Q141 72 169.5 56 Q198 40 242 40 Q264 40 283 42 Q302 44 320 48.5 Q338 53 357 60 Q376 67 397 76 L413 39 Q371 16 331 5.5 Q291 -5 243 -5 Q181 -5 142 14.5 Q103 34 80 67.5 Q57 101 48.5 146 Q40 191 40 242 Q40 261 42.5 287.5 Q45 314 52.5 342.5 Q60 371 73.5 398.5 Q87 426 109.5 448 Q132 470 164.5 483.5 Q197 497 242 497 Z M242 450 Q203 450 176.5 435.5 Q150 421 133 396.5 Q116 372 108 340.5 Q100 309 97 275 L372 275 Q372 314 365.5 346 Q359 378 344 401.5 Q329 425 304 437.5 Q279 450 242 450 Z M195 578 Q195 596 207.5 608.5 Q220 621 237 621 Q255 621 267.5 608.5 Q280 596 280 578 Q280 561 267.5 548.5 Q255 536 237 536 Q220 536 207.5 548.5 Q195 561 195 578 Z " />
<glyph glyph-name="Eogonek" unicode="&#x118;" horiz-adv-x="540" d="M40 46 L106 46 L106 637 L44 637 L44 682 L493 682 L493 548 L445 548 L445 637 L163 637 L163 382 L442 388 L442 334 L163 338 L163 46 L460 46 L460 135 L510 135 L510 0 L456 0 Q433 -29 420 -63 Q407 -97 407 -120 Q407 -142 422.5 -150.5 Q438 -159 460 -159.5 Q482 -160 505 -156 Q528 -152 542 -149 L547 -175 Q524 -186 497.5 -193 Q471 -200 444 -200 Q399 -200 376 -182 Q353 -164 353 -132 Q353 -107 366 -72 Q379 -37 421 0 L40 0 L40 46 Z " />
<glyph glyph-name="eogonek" unicode="&#x119;" horiz-adv-x="462" d="M242 497 Q289 497 321 483 Q353 469 373.5 447.5 Q394 426 405 399.5 Q416 373 420.5 347.5 Q425 322 425.5 300.5 Q426 279 426 267 L426 229 L96 229 Q96 193 102 158.5 Q108 124 124.5 98 Q141 72 169.5 56 Q198 40 242 40 Q264 40 283 42 Q302 44 320 48.5 Q338 53 357 60 Q376 67 397 76 L413 39 L391 28 Q368 -1 355 -35 Q342 -69 342 -92 Q342 -114 357.5 -122.5 Q373 -131 395 -131.5 Q417 -132 440 -128 Q463 -124 477 -121 L482 -147 Q459 -158 432.5 -165 Q406 -172 379 -172 Q334 -172 311 -154 Q288 -136 288 -104 Q288 -83 297 -54 Q306 -25 335 6 Q313 1 290.5 -2 Q268 -5 243 -5 Q181 -5 142 14.5 Q103 34 80 67.5 Q57 101 48.5 146 Q40 191 40 242 Q40 261 42.5 287.5 Q45 314 52.5 342.5 Q60 371 73.5 398.5 Q87 426 109.5 448 Q132 470 164.5 483.5 Q197 497 242 497 Z M242 450 Q203 450 176.5 435.5 Q150 421 133 396.5 Q116 372 108 340.5 Q100 309 97 275 L372 275 Q372 314 365.5 346 Q359 378 344 401.5 Q329 425 304 437.5 Q279 450 242 450 Z " />
<glyph glyph-name="Ecaron" unicode="&#x11a;" horiz-adv-x="540" d="M40 46 L106 46 L106 637 L44 637 L44 682 L493 682 L493 548 L445 548 L445 637 L163 637 L163 382 L442 388 L442 334 L163 338 L163 46 L460 46 L460 135 L510 135 L510 0 L40 0 L40 46 Z M454 887 L473 864 L323 734 L284 734 L135 866 L153 888 L303 788 L454 887 Z " />
<glyph glyph-name="ecaron" unicode="&#x11b;" horiz-adv-x="462" d="M242 497 Q289 497 321 483 Q353 469 373.5 447.5 Q394 426 405 399.5 Q416 373 420.5 347.5 Q425 322 425.5 300.5 Q426 279 426 267 L426 229 L96 229 Q96 193 102 158.5 Q108 124 124.5 98 Q141 72 169.5 56 Q198 40 242 40 Q264 40 283 42 Q302 44 320 48.5 Q338 53 357 60 Q376 67 397 76 L413 39 Q371 16 331 5.5 Q291 -5 243 -5 Q181 -5 142 14.5 Q103 34 80 67.5 Q57 101 48.5 146 Q40 191 40 242 Q40 261 42.5 287.5 Q45 314 52.5 342.5 Q60 371 73.5 398.5 Q87 426 109.5 448 Q132 470 164.5 483.5 Q197 497 242 497 Z M242 450 Q203 450 176.5 435.5 Q150 421 133 396.5 Q116 372 108 340.5 Q100 309 97 275 L372 275 Q372 314 365.5 346 Q359 378 344 401.5 Q329 425 304 437.5 Q279 450 242 450 Z M392 695 L411 672 L261 544 L222 544 L73 674 L91 696 L241 596 L392 695 Z " />
<glyph glyph-name="Gcircumflex" unicode="&#x11c;" horiz-adv-x="606" d="M350 693 Q407 693 449 685 Q491 677 519 666 L519 522 L471 522 L471 629 Q448 636 416 640.5 Q384 645 352 645 Q289 645 243 622.5 Q197 600 167 559.5 Q137 519 122.5 462 Q108 405 108 335 Q108 276 117.5 223.5 Q127 171 152.5 130.5 Q178 90 222 66.5 Q266 43 336 43 Q350 43 368 44 Q386 45 404.5 47 Q423 49 440 52 Q457 55 469 60 L469 303 L366 303 L366 348 L576 348 L576 303 L524 303 L524 22 Q476 7 426.5 0 Q377 -7 329 -7 Q254 -7 201.5 17 Q149 41 115 86 Q81 131 65.5 194.5 Q50 258 50 337 Q50 372 55.5 412 Q61 452 74 491.5 Q87 531 108.5 567.5 Q130 604 163.5 632 Q197 660 243 676.5 Q289 693 350 693 Z M342 826 L192 726 L174 748 L323 881 L362 881 L512 750 L493 727 L342 826 Z " />
<glyph glyph-name="gcircumflex" unicode="&#x11d;" horiz-adv-x="482" d="M385 438 Q404 419 413 391 Q422 363 422 329 Q422 290 408 259.5 Q394 229 368 207.5 Q342 186 306 175 Q270 164 227 164 L174 164 Q161 164 150 164 Q139 164 129 162 Q109 158 98.5 150 Q88 142 88 126 Q88 108 103.5 98.5 Q119 89 144 89 L264 89 Q352 89 398.5 49.5 Q445 10 445 -61 Q445 -98 428 -127 Q411 -156 381.5 -175.5 Q352 -195 312 -205 Q272 -215 227 -215 Q170 -215 131.5 -203 Q93 -191 70 -171 Q47 -151 37.5 -125 Q28 -99 28 -70 Q28 -48 34.5 -29 Q41 -10 50.5 5 Q60 20 71.5 31 Q83 42 93 47 Q33 58 31 117 Q30 142 39 157.5 Q48 173 61 182 Q74 191 88.5 195 Q103 199 114 200 Q102 206 90 216 Q78 226 68 241 Q58 256 52 277 Q46 298 46 326 Q46 374 63.5 407.5 Q81 441 108 461.5 Q135 482 168.5 491 Q202 500 234 499 Q255 498 275 495.5 Q295 493 315 487 L465 487 L465 443 L387 443 L385 438 Z M233 450 Q170 450 137 419.5 Q104 389 104 329 Q104 275 136 242.5 Q168 210 221 210 Q284 210 324.5 239 Q365 268 365 329 Q365 349 359 370.5 Q353 392 338 409.5 Q323 427 297.5 438.5 Q272 450 233 450 Z M148 39 Q137 36 125.5 26 Q114 16 104 2 Q94 -12 88 -28.5 Q82 -45 82 -61 Q82 -82 89.5 -101.5 Q97 -121 114.5 -136 Q132 -151 161.5 -160 Q191 -169 236 -169 Q269 -169 297 -161.5 Q325 -154 346 -139.5 Q367 -125 379 -105 Q391 -85 391 -61 Q391 -44 385 -26.5 Q379 -9 364 5.5 Q349 20 323.5 29.5 Q298 39 260 39 L148 39 Z M236 632 L86 532 L68 554 L217 693 L256 693 L406 556 L387 533 L236 632 Z " />
<glyph glyph-name="Gbreve" unicode="&#x11e;" horiz-adv-x="606" d="M350 693 Q407 693 449 685 Q491 677 519 666 L519 522 L471 522 L471 629 Q448 636 416 640.5 Q384 645 352 645 Q289 645 243 622.5 Q197 600 167 559.5 Q137 519 122.5 462 Q108 405 108 335 Q108 276 117.5 223.5 Q127 171 152.5 130.5 Q178 90 222 66.5 Q266 43 336 43 Q350 43 368 44 Q386 45 404.5 47 Q423 49 440 52 Q457 55 469 60 L469 303 L366 303 L366 348 L576 348 L576 303 L524 303 L524 22 Q476 7 426.5 0 Q377 -7 329 -7 Q254 -7 201.5 17 Q149 41 115 86 Q81 131 65.5 194.5 Q50 258 50 337 Q50 372 55.5 412 Q61 452 74 491.5 Q87 531 108.5 567.5 Q130 604 163.5 632 Q197 660 243 676.5 Q289 693 350 693 Z M337 727 Q312 727 290.5 736 Q269 745 250 760 Q231 775 215 793.5 Q199 812 185 831 L226 859 Q252 824 281.5 801 Q311 778 340 778 Q349 778 362 780 Q375 782 392.5 789.5 Q410 797 431 811.5 Q452 826 478 852 L500 833 Q458 775 416.5 751 Q375 727 337 727 Z " />
<glyph glyph-name="gbreve" unicode="&#x11f;" horiz-adv-x="482" d="M385 438 Q404 419 413 391 Q422 363 422 329 Q422 290 408 259.5 Q394 229 368 207.5 Q342 186 306 175 Q270 164 227 164 L174 164 Q161 164 150 164 Q139 164 129 162 Q109 158 98.5 150 Q88 142 88 126 Q88 108 103.5 98.5 Q119 89 144 89 L264 89 Q352 89 398.5 49.5 Q445 10 445 -61 Q445 -98 428 -127 Q411 -156 381.5 -175.5 Q352 -195 312 -205 Q272 -215 227 -215 Q170 -215 131.5 -203 Q93 -191 70 -171 Q47 -151 37.5 -125 Q28 -99 28 -70 Q28 -48 34.5 -29 Q41 -10 50.5 5 Q60 20 71.5 31 Q83 42 93 47 Q33 58 31 117 Q30 142 39 157.5 Q48 173 61 182 Q74 191 88.5 195 Q103 199 114 200 Q102 206 90 216 Q78 226 68 241 Q58 256 52 277 Q46 298 46 326 Q46 374 63.5 407.5 Q81 441 108 461.5 Q135 482 168.5 491 Q202 500 234 499 Q255 498 275 495.5 Q295 493 315 487 L465 487 L465 443 L387 443 L385 438 Z M233 450 Q170 450 137 419.5 Q104 389 104 329 Q104 275 136 242.5 Q168 210 221 210 Q284 210 324.5 239 Q365 268 365 329 Q365 349 359 370.5 Q353 392 338 409.5 Q323 427 297.5 438.5 Q272 450 233 450 Z M148 39 Q137 36 125.5 26 Q114 16 104 2 Q94 -12 88 -28.5 Q82 -45 82 -61 Q82 -82 89.5 -101.5 Q97 -121 114.5 -136 Q132 -151 161.5 -160 Q191 -169 236 -169 Q269 -169 297 -161.5 Q325 -154 346 -139.5 Q367 -125 379 -105 Q391 -85 391 -61 Q391 -44 385 -26.5 Q379 -9 364 5.5 Q349 20 323.5 29.5 Q298 39 260 39 L148 39 Z M226 541 Q201 541 179.5 550 Q158 559 139 574 Q120 589 104 607.5 Q88 626 74 645 L112 671 Q138 636 169 611.5 Q200 587 229 587 Q238 587 251 589 Q264 591 281.5 598.5 Q299 606 320 620.5 Q341 635 367 661 L389 642 Q347 584 305.5 562.5 Q264 541 226 541 Z " />
<glyph glyph-name="Gdotaccent" unicode="&#x120;" horiz-adv-x="606" d="M350 693 Q407 693 449 685 Q491 677 519 666 L519 522 L471 522 L471 629 Q448 636 416 640.5 Q384 645 352 645 Q289 645 243 622.5 Q197 600 167 559.5 Q137 519 122.5 462 Q108 405 108 335 Q108 276 117.5 223.5 Q127 171 152.5 130.5 Q178 90 222 66.5 Q266 43 336 43 Q350 43 368 44 Q386 45 404.5 47 Q423 49 440 52 Q457 55 469 60 L469 303 L366 303 L366 348 L576 348 L576 303 L524 303 L524 22 Q476 7 426.5 0 Q377 -7 329 -7 Q254 -7 201.5 17 Q149 41 115 86 Q81 131 65.5 194.5 Q50 258 50 337 Q50 372 55.5 412 Q61 452 74 491.5 Q87 531 108.5 567.5 Q130 604 163.5 632 Q197 660 243 676.5 Q289 693 350 693 Z M313 770 Q313 788 325.5 800.5 Q338 813 355 813 Q373 813 385.5 800.5 Q398 788 398 770 Q398 753 385.5 740.5 Q373 728 355 728 Q338 728 325.5 740.5 Q313 753 313 770 Z " />
<glyph glyph-name="gdotaccent" unicode="&#x121;" horiz-adv-x="482" d="M385 438 Q404 419 413 391 Q422 363 422 329 Q422 290 408 259.5 Q394 229 368 207.5 Q342 186 306 175 Q270 164 227 164 L174 164 Q161 164 150 164 Q139 164 129 162 Q109 158 98.5 150 Q88 142 88 126 Q88 108 103.5 98.5 Q119 89 144 89 L264 89 Q352 89 398.5 49.5 Q445 10 445 -61 Q445 -98 428 -127 Q411 -156 381.5 -175.5 Q352 -195 312 -205 Q272 -215 227 -215 Q170 -215 131.5 -203 Q93 -191 70 -171 Q47 -151 37.5 -125 Q28 -99 28 -70 Q28 -48 34.5 -29 Q41 -10 50.5 5 Q60 20 71.5 31 Q83 42 93 47 Q33 58 31 117 Q30 142 39 157.5 Q48 173 61 182 Q74 191 88.5 195 Q103 199 114 200 Q102 206 90 216 Q78 226 68 241 Q58 256 52 277 Q46 298 46 326 Q46 374 63.5 407.5 Q81 441 108 461.5 Q135 482 168.5 491 Q202 500 234 499 Q255 498 275 495.5 Q295 493 315 487 L465 487 L465 443 L387 443 L385 438 Z M233 450 Q170 450 137 419.5 Q104 389 104 329 Q104 275 136 242.5 Q168 210 221 210 Q284 210 324.5 239 Q365 268 365 329 Q365 349 359 370.5 Q353 392 338 409.5 Q323 427 297.5 438.5 Q272 450 233 450 Z M148 39 Q137 36 125.5 26 Q114 16 104 2 Q94 -12 88 -28.5 Q82 -45 82 -61 Q82 -82 89.5 -101.5 Q97 -121 114.5 -136 Q132 -151 161.5 -160 Q191 -169 236 -169 Q269 -169 297 -161.5 Q325 -154 346 -139.5 Q367 -125 379 -105 Q391 -85 391 -61 Q391 -44 385 -26.5 Q379 -9 364 5.5 Q349 20 323.5 29.5 Q298 39 260 39 L148 39 Z M202 578 Q202 596 214.5 608.5 Q227 621 244 621 Q262 621 274.5 608.5 Q287 596 287 578 Q287 561 274.5 548.5 Q262 536 244 536 Q227 536 214.5 548.5 Q202 561 202 578 Z " />
<glyph glyph-name="Gcommaaccent" unicode="&#x122;" horiz-adv-x="606" d="M350 693 Q407 693 449 685 Q491 677 519 666 L519 522 L471 522 L471 629 Q448 636 416 640.5 Q384 645 352 645 Q289 645 243 622.5 Q197 600 167 559.5 Q137 519 122.5 462 Q108 405 108 335 Q108 276 117.5 223.5 Q127 171 152.5 130.5 Q178 90 222 66.5 Q266 43 336 43 Q350 43 368 44 Q386 45 404.5 47 Q423 49 440 52 Q457 55 469 60 L469 303 L366 303 L366 348 L576 348 L576 303 L524 303 L524 22 Q476 7 426.5 0 Q377 -7 329 -7 Q254 -7 201.5 17 Q149 41 115 86 Q81 131 65.5 194.5 Q50 258 50 337 Q50 372 55.5 412 Q61 452 74 491.5 Q87 531 108.5 567.5 Q130 604 163.5 632 Q197 660 243 676.5 Q289 693 350 693 Z M289 -83 Q289 -66 302 -53 Q315 -40 333 -40 Q353 -40 367 -54 Q381 -68 380 -92 Q377 -157 309 -192 L295 -174 Q320 -149 319 -125 Q305 -120 297 -109 Q289 -98 289 -83 Z " />
<glyph glyph-name="gcommaaccent" unicode="&#x123;" horiz-adv-x="482" d="M289 589 Q289 572 276 559 Q263 546 245 546 Q225 546 211 560 Q197 574 198 598 Q201 663 269 698 L283 680 Q258 655 259 631 Q273 626 281 615 Q289 604 289 589 Z M385 438 Q404 419 413 391 Q422 363 422 329 Q422 290 408 259.5 Q394 229 368 207.5 Q342 186 306 175 Q270 164 227 164 L174 164 Q161 164 150 164 Q139 164 129 162 Q109 158 98.5 150 Q88 142 88 126 Q88 108 103.5 98.5 Q119 89 144 89 L264 89 Q352 89 398.5 49.5 Q445 10 445 -61 Q445 -98 428 -127 Q411 -156 381.5 -175.5 Q352 -195 312 -205 Q272 -215 227 -215 Q170 -215 131.5 -203 Q93 -191 70 -171 Q47 -151 37.5 -125 Q28 -99 28 -70 Q28 -48 34.5 -29 Q41 -10 50.5 5 Q60 20 71.5 31 Q83 42 93 47 Q33 58 31 117 Q30 142 39 157.5 Q48 173 61 182 Q74 191 88.5 195 Q103 199 114 200 Q102 206 90 216 Q78 226 68 241 Q58 256 52 277 Q46 298 46 326 Q46 374 63.5 407.5 Q81 441 108 461.5 Q135 482 168.5 491 Q202 500 234 499 Q255 498 275 495.5 Q295 493 315 487 L465 487 L465 443 L387 443 L385 438 Z M233 450 Q170 450 137 419.5 Q104 389 104 329 Q104 275 136 242.5 Q168 210 221 210 Q284 210 324.5 239 Q365 268 365 329 Q365 349 359 370.5 Q353 392 338 409.5 Q323 427 297.5 438.5 Q272 450 233 450 Z M148 39 Q137 36 125.5 26 Q114 16 104 2 Q94 -12 88 -28.5 Q82 -45 82 -61 Q82 -82 89.5 -101.5 Q97 -121 114.5 -136 Q132 -151 161.5 -160 Q191 -169 236 -169 Q269 -169 297 -161.5 Q325 -154 346 -139.5 Q367 -125 379 -105 Q391 -85 391 -61 Q391 -44 385 -26.5 Q379 -9 364 5.5 Q349 20 323.5 29.5 Q298 39 260 39 L148 39 Z " />
<glyph glyph-name="Hcircumflex" unicode="&#x124;" horiz-adv-x="664" d="M442 0 L442 47 L504 47 L504 336 L159 336 L159 47 L222 47 L222 0 L40 0 L40 47 L102 47 L102 637 L40 637 L40 683 L222 683 L222 637 L159 637 L159 385 L504 385 L504 637 L442 637 L442 683 L624 683 L624 637 L561 637 L561 47 L624 47 L624 0 L442 0 Z M320 826 L170 726 L152 748 L301 881 L340 881 L490 750 L471 727 L320 826 Z " />
<glyph glyph-name="hcircumflex" unicode="&#x125;" horiz-adv-x="556" d="M96 0 L96 665 L20 665 L20 709 L150 709 L150 443 Q193 469 240.5 483.5 Q288 498 324 498 Q375 498 402.5 483 Q430 468 442.5 445.5 Q455 423 457.5 396.5 Q460 370 460 346 L460 46 L534 46 L534 13 Q517 5 496 0.5 Q475 -4 461 -4 Q435 -4 421.5 7 Q408 18 407 55 L407 331 Q407 358 404.5 380 Q402 402 393 417.5 Q384 433 366 441.5 Q348 450 316 450 Q296 450 274.5 445.5 Q253 441 231 433.5 Q209 426 188 416.5 Q167 407 150 398 L150 0 L96 0 Z M117 857 L-33 757 L-51 779 L98 912 L137 912 L287 781 L268 758 L117 857 Z " />
<glyph glyph-name="Hbar" unicode="&#x126;" horiz-adv-x="664" d="M440 0 L440 47 L502 47 L502 336 L160 336 L160 47 L223 47 L223 0 L40 0 L40 47 L102 47 L102 486 L39 486 L39 529 L102 529 L102 637 L40 637 L40 683 L223 683 L223 637 L160 637 L160 529 L502 529 L502 637 L440 637 L440 683 L624 683 L624 637 L561 637 L561 529 L624 529 L624 486 L561 486 L561 47 L624 47 L624 0 L440 0 Z M502 385 L502 486 L160 486 L160 385 L502 385 Z " />
<glyph glyph-name="hbar" unicode="&#x127;" horiz-adv-x="556" d="M96 0 L96 523 L20 523 L20 565 L96 565 L96 665 L20 665 L20 709 L150 709 L150 565 L339 565 L339 523 L150 523 L150 413 Q193 439 240.5 453.5 Q288 468 324 468 Q375 468 402.5 453 Q430 438 442.5 415.5 Q455 393 457.5 366.5 Q460 340 460 316 L460 46 L534 46 L534 13 Q517 5 496 0.5 Q475 -4 461 -4 Q435 -4 421.5 7 Q408 18 407 55 L407 301 Q407 328 404.5 350 Q402 372 393 387.5 Q384 403 366 411.5 Q348 420 316 420 Q296 420 274.5 415.5 Q253 411 231 403.5 Q209 396 188 386.5 Q167 377 150 368 L150 0 L96 0 Z " />
<glyph glyph-name="Itilde" unicode="&#x128;" horiz-adv-x="321" d="M70 0 L70 46 L131 46 L131 637 L70 637 L70 683 L251 683 L251 637 L188 637 L188 46 L251 46 L251 0 L70 0 Z M91 801 Q107 801 125.5 795 Q144 789 161.5 781.5 Q179 774 195 768 Q211 762 223 762 L280 801 L302 783 Q292 755 271 735.5 Q250 716 223 716 Q202 716 183.5 722 Q165 728 149 735.5 Q133 743 118.5 749 Q104 755 91 755 L34 716 L12 734 Q22 762 43 781.5 Q64 801 91 801 Z " />
<glyph glyph-name="itilde" unicode="&#x129;" horiz-adv-x="267" d="M53 443 L53 487 L164 487 L164 46 L238 46 L238 13 Q221 5 200 0.5 Q179 -4 165 -4 Q139 -4 125.5 7 Q112 18 111 55 L111 443 L53 443 Z M63 623 Q79 623 97.5 617 Q116 611 133.5 603.5 Q151 596 167 590 Q183 584 195 584 L252 623 L274 605 Q264 577 243 557.5 Q222 538 195 538 Q174 538 155.5 544 Q137 550 121 557.5 Q105 565 90.5 571 Q76 577 63 577 L6 538 L-16 556 Q-6 584 15 603.5 Q36 623 63 623 Z " />
<glyph glyph-name="Imacron" unicode="&#x12a;" horiz-adv-x="321" d="M70 0 L70 46 L131 46 L131 637 L70 637 L70 683 L251 683 L251 637 L188 637 L188 46 L251 46 L251 0 L70 0 Z M318 798 L318 747 L5 747 L5 798 L318 798 Z " />
<glyph glyph-name="imacron" unicode="&#x12b;" horiz-adv-x="267" d="M53 443 L53 487 L164 487 L164 46 L238 46 L238 13 Q221 5 200 0.5 Q179 -4 165 -4 Q139 -4 125.5 7 Q112 18 111 55 L111 443 L53 443 Z M280 603 L280 555 L-23 555 L-23 603 L280 603 Z " />
<glyph glyph-name="Ibreve" unicode="&#x12c;" horiz-adv-x="350" d="M157 730 Q132 730 110.5 739 Q89 748 70 763 Q51 778 35 796.5 Q19 815 5 834 L46 862 Q72 827 101.5 804 Q131 781 160 781 Q169 781 182 783 Q195 785 212.5 792.5 Q230 800 251 814.5 Q272 829 298 855 L320 836 Q278 778 236.5 754 Q195 730 157 730 Z M70 0 L70 46 L131 46 L131 637 L70 637 L70 683 L251 683 L251 637 L188 637 L188 46 L251 46 L251 0 L70 0 Z " />
<glyph glyph-name="ibreve" unicode="&#x12d;" horiz-adv-x="281" d="M53 443 L53 487 L164 487 L164 46 L238 46 L238 13 Q221 5 200 0.5 Q179 -4 165 -4 Q139 -4 125.5 7 Q112 18 111 55 L111 443 L53 443 Z M133 541 Q108 541 86.5 550 Q65 559 46 574 Q27 589 11 607.5 Q-5 626 -19 645 L19 671 Q45 636 76 611.5 Q107 587 136 587 Q145 587 158 589 Q171 591 188.5 598.5 Q206 606 227 620.5 Q248 635 274 661 L296 642 Q254 584 212.5 562.5 Q171 541 133 541 Z " />
<glyph glyph-name="Iogonek" unicode="&#x12e;" horiz-adv-x="321" d="M175 0 Q152 -29 139 -63 Q126 -97 126 -120 Q126 -142 141.5 -150.5 Q157 -159 179 -159.5 Q201 -160 224 -156 Q247 -152 261 -149 L266 -175 Q243 -186 216.5 -193 Q190 -200 163 -200 Q118 -200 95 -182 Q72 -164 72 -132 Q72 -107 85 -72 Q98 -37 140 0 L70 0 L70 46 L131 46 L131 637 L70 637 L70 683 L251 683 L251 637 L188 637 L188 46 L251 46 L251 0 L175 0 Z " />
<glyph glyph-name="iogonek" unicode="&#x12f;" horiz-adv-x="267" d="M53 443 L53 487 L164 487 L164 46 L238 46 L238 13 Q227 7 217 5 Q194 -24 181 -58 Q168 -92 168 -115 Q168 -137 183.5 -145.5 Q199 -154 221 -154.5 Q243 -155 266 -151 Q289 -147 303 -144 L308 -170 Q285 -181 258.5 -188 Q232 -195 205 -195 Q160 -195 137 -177 Q114 -159 114 -127 Q114 -104 125.5 -71.5 Q137 -39 172 -4 L165 -4 Q139 -4 125.5 7 Q112 18 111 55 L111 443 L53 443 Z M95 607 Q95 624 106.5 635.5 Q118 647 134 647 Q151 647 162.5 635.5 Q174 624 174 607 Q174 591 162.5 579.5 Q151 568 134 568 Q118 568 106.5 579.5 Q95 591 95 607 Z " />
<glyph glyph-name="Idotaccent" unicode="&#x130;" horiz-adv-x="321" d="M70 0 L70 46 L131 46 L131 637 L70 637 L70 683 L251 683 L251 637 L188 637 L188 46 L251 46 L251 0 L70 0 Z M120 770 Q120 788 132.5 800.5 Q145 813 162 813 Q180 813 192.5 800.5 Q205 788 205 770 Q205 753 192.5 740.5 Q180 728 162 728 Q145 728 132.5 740.5 Q120 753 120 770 Z " />
<glyph glyph-name="dotlessi" unicode="&#x131;" horiz-adv-x="267" d="M53 443 L53 487 L164 487 L164 46 L238 46 L238 13 Q221 5 200 0.5 Q179 -4 165 -4 Q139 -4 125.5 7 Q112 18 111 55 L111 443 L53 443 Z " />
<glyph glyph-name="IJ" unicode="&#x132;" horiz-adv-x="636" d="M70 0 L70 46 L131 46 L131 637 L70 637 L70 683 L251 683 L251 637 L188 637 L188 46 L251 46 L251 0 L70 0 Z M371 637 L371 683 L586 683 L586 637 L511 637 L510 122 Q510 61 496.5 15 Q483 -31 457 -66 Q431 -101 393 -127 Q355 -153 305 -174 L289 -136 Q332 -112 362.5 -88 Q393 -64 413 -35.5 Q433 -7 442.5 27 Q452 61 452 106 L453 637 L371 637 Z " />
<glyph glyph-name="ij" unicode="&#x133;" horiz-adv-x="501" d="M95 607 Q95 624 106.5 635.5 Q118 647 134 647 Q151 647 162.5 635.5 Q174 624 174 607 Q174 591 162.5 579.5 Q151 568 134 568 Q118 568 106.5 579.5 Q95 591 95 607 Z M53 443 L53 487 L164 487 L164 46 L238 46 L238 13 Q221 5 200 0.5 Q179 -4 165 -4 Q139 -4 125.5 7 Q112 18 111 55 L111 443 L53 443 Z M353 443 L280 443 L280 487 L406 487 L406 6 Q406 -39 399.5 -71.5 Q393 -104 375.5 -129 Q358 -154 328.5 -174 Q299 -194 253 -213 L236 -176 Q272 -156 294.5 -138.5 Q317 -121 330 -101.5 Q343 -82 348 -59 Q353 -36 353 -6 L353 443 Z M337 607 Q337 624 348.5 635.5 Q360 647 376 647 Q393 647 404.5 635.5 Q416 624 416 607 Q416 591 404.5 579.5 Q393 568 376 568 Q360 568 348.5 579.5 Q337 591 337 607 Z " />
<glyph glyph-name="Jcircumflex" unicode="&#x134;" horiz-adv-x="321" d="M56 638 L56 684 L271 684 L271 638 L196 638 L195 123 Q195 62 181.5 16 Q168 -30 142 -65 Q116 -100 78 -126 Q40 -152 -10 -173 L-26 -135 Q17 -111 47.5 -87 Q78 -63 98 -34.5 Q118 -6 127.5 28 Q137 62 137 107 L138 638 L56 638 Z M166 826 L16 726 L-2 748 L147 881 L186 881 L336 750 L317 727 L166 826 Z " />
<glyph glyph-name="jcircumflex" unicode="&#x135;" horiz-adv-x="283" d="M127 443 L54 443 L54 487 L180 487 L180 6 Q180 -39 173.5 -71.5 Q167 -104 149.5 -129 Q132 -154 102.5 -174 Q73 -194 27 -213 L10 -176 Q46 -156 68.5 -138.5 Q91 -121 104 -101.5 Q117 -82 122 -59 Q127 -36 127 -6 L127 443 Z M128 632 L-22 532 L-40 554 L109 693 L148 693 L298 556 L279 533 L128 632 Z " />
<glyph glyph-name="Kcommaaccent" unicode="&#x136;" horiz-adv-x="608" d="M289 413 L534 48 L593 48 L593 0 L399 0 L398 48 L467 48 L248 374 L159 287 L159 47 L224 47 L224 0 L40 0 L40 47 L102 47 L102 637 L40 637 L40 683 L222 683 L222 637 L159 637 L159 351 L449 636 L380 636 L380 683 L571 683 L571 636 L517 636 L289 413 Z M254 -83 Q254 -66 267 -53 Q280 -40 298 -40 Q318 -40 332 -54 Q346 -68 345 -92 Q342 -157 274 -192 L260 -174 Q285 -149 284 -125 Q270 -120 262 -109 Q254 -98 254 -83 Z " />
<glyph glyph-name="kcommaaccent" unicode="&#x137;" horiz-adv-x="492" d="M148 202 L148 44 L221 44 L221 0 L23 0 L23 44 L95 44 L95 665 L12 665 L12 709 L148 709 L148 261 L342 443 L276 443 L276 487 L456 487 L456 443 L405 443 L258 304 L421 45 L488 36 L488 6 Q474 -1 458 -4 Q442 -7 428 -7 Q403 -7 393 1.5 Q383 10 371 28 L222 270 L148 202 Z M244 -83 Q244 -66 257 -53 Q270 -40 288 -40 Q308 -40 322 -54 Q336 -68 335 -92 Q332 -157 264 -192 L250 -174 Q275 -149 274 -125 Q260 -120 252 -109 Q244 -98 244 -83 Z " />
<glyph glyph-name="kgreenlandic" unicode="&#x138;" horiz-adv-x="492" d="M148 202 L148 44 L221 44 L221 0 L23 0 L23 44 L95 44 L95 443 L12 443 L12 487 L148 487 L148 261 L342 443 L276 443 L276 487 L456 487 L456 443 L405 443 L258 304 L421 45 L488 36 L488 6 Q474 -1 458 -4 Q442 -7 428 -7 Q403 -7 393 1.5 Q383 10 371 28 L222 270 L148 202 Z " />
<glyph glyph-name="Lacute" unicode="&#x139;" horiz-adv-x="520" d="M236 637 L163 637 L163 46 L460 46 L460 165 L510 165 L510 0 L40 0 L40 46 L106 46 L106 637 L44 637 L44 682 L236 682 L236 637 Z M112 747 L223 905 L272 865 L141 726 L112 747 Z " />
<glyph glyph-name="lacute" unicode="&#x13a;" horiz-adv-x="274" d="M171 44 L244 44 L244 0 L46 0 L46 44 L118 44 L118 665 L35 665 L35 709 L171 709 L171 44 Z M108 757 L219 915 L268 875 L137 736 L108 757 Z " />
<glyph glyph-name="Lcommaaccent" unicode="&#x13b;" horiz-adv-x="520" d="M236 637 L163 637 L163 46 L460 46 L460 165 L510 165 L510 0 L40 0 L40 46 L106 46 L106 637 L44 637 L44 682 L236 682 L236 637 Z M228 -83 Q228 -66 241 -53 Q254 -40 272 -40 Q292 -40 306 -54 Q320 -68 319 -92 Q316 -157 248 -192 L234 -174 Q259 -149 258 -125 Q244 -120 236 -109 Q228 -98 228 -83 Z " />
<glyph glyph-name="lcommaaccent" unicode="&#x13c;" horiz-adv-x="274" d="M171 44 L244 44 L244 0 L46 0 L46 44 L118 44 L118 665 L35 665 L35 709 L171 709 L171 44 Z M98 -83 Q98 -66 111 -53 Q124 -40 142 -40 Q162 -40 176 -54 Q190 -68 189 -92 Q186 -157 118 -192 L104 -174 Q129 -149 128 -125 Q114 -120 106 -109 Q98 -98 98 -83 Z " />
<glyph glyph-name="Lcaron" unicode="&#x13d;" horiz-adv-x="520" d="M236 637 L163 637 L163 46 L460 46 L460 165 L510 165 L510 0 L40 0 L40 46 L106 46 L106 637 L44 637 L44 682 L236 682 L236 637 Z M340 624 Q340 641 353 654 Q366 667 384 667 Q404 667 418 653 Q432 639 431 615 Q428 550 360 515 L346 533 Q371 558 370 582 Q356 587 348 598 Q340 609 340 624 Z " />
<glyph glyph-name="lcaron" unicode="&#x13e;" horiz-adv-x="391" d="M281 665 Q281 682 294 695 Q307 708 325 708 Q345 708 359 694 Q373 680 372 656 Q369 591 301 556 L287 574 Q312 599 311 623 Q297 628 289 639 Q281 650 281 665 Z M171 44 L244 44 L244 0 L46 0 L46 44 L118 44 L118 665 L35 665 L35 709 L171 709 L171 44 Z " />
<glyph glyph-name="Ldot" unicode="&#x13f;" horiz-adv-x="520" d="M236 637 L163 637 L163 46 L460 46 L460 165 L510 165 L510 0 L40 0 L40 46 L106 46 L106 637 L44 637 L44 682 L236 682 L236 637 Z M320 339 Q320 357 332.5 369.5 Q345 382 362 382 Q380 382 392.5 369.5 Q405 357 405 339 Q405 322 392.5 309.5 Q380 297 362 297 Q345 297 332.5 309.5 Q320 322 320 339 Z " />
<glyph glyph-name="ldot" unicode="&#x140;" horiz-adv-x="371" d="M264 308 Q264 326 276.5 338.5 Q289 351 306 351 Q324 351 336.5 338.5 Q349 326 349 308 Q349 291 336.5 278.5 Q324 266 306 266 Q289 266 276.5 278.5 Q264 291 264 308 Z M171 44 L244 44 L244 0 L46 0 L46 44 L118 44 L118 665 L35 665 L35 709 L171 709 L171 44 Z " />
<glyph glyph-name="Lslash" unicode="&#x141;" horiz-adv-x="520" d="M236 637 L163 637 L163 330 L298 407 L321 370 L163 279 L163 46 L460 46 L460 165 L510 165 L510 0 L40 0 L40 46 L106 46 L106 246 L28 200 L4 238 L106 298 L106 637 L44 637 L44 682 L236 682 L236 637 Z " />
<glyph glyph-name="lslash" unicode="&#x142;" horiz-adv-x="274" d="M171 44 L244 44 L244 0 L46 0 L46 44 L118 44 L118 301 L23 246 L-1 284 L118 352 L118 665 L35 665 L35 709 L171 709 L171 383 L269 439 L292 402 L171 332 L171 44 Z " />
<glyph glyph-name="Nacute" unicode="&#x143;" horiz-adv-x="699" d="M539 104 L539 637 L469 637 L469 683 L659 683 L659 637 L594 637 L594 0 L541 0 L237 475 L164 592 L161 591 L162 47 L232 47 L232 0 L40 0 L40 47 L107 47 L107 637 L40 637 L40 683 L168 683 L450 238 L534 104 L539 104 Z M326 747 L437 905 L486 865 L355 726 L326 747 Z " />
<glyph glyph-name="nacute" unicode="&#x144;" horiz-adv-x="556" d="M324 498 Q375 498 402.5 483 Q430 468 442.5 445.5 Q455 423 457.5 396.5 Q460 370 460 346 L460 46 L534 46 L534 13 Q517 5 496 0.5 Q475 -4 461 -4 Q435 -4 421.5 7 Q408 18 407 55 L407 331 Q407 358 404.5 380 Q402 402 393 417.5 Q384 433 366 441.5 Q348 450 316 450 Q296 450 274.5 445.5 Q253 441 231 433.5 Q209 426 188 416.5 Q167 407 150 398 L150 0 L96 0 L96 443 L20 443 L20 487 L150 487 L150 447 L153 445 Q195 471 242 484.5 Q289 498 324 498 Z M219 557 L330 715 L379 675 L248 536 L219 557 Z " />
<glyph glyph-name="Ncommaaccent" unicode="&#x145;" horiz-adv-x="699" d="M539 104 L539 637 L469 637 L469 683 L659 683 L659 637 L594 637 L594 0 L541 0 L237 475 L164 592 L161 591 L162 47 L232 47 L232 0 L40 0 L40 47 L107 47 L107 637 L40 637 L40 683 L168 683 L450 238 L534 104 L539 104 Z M301 -83 Q301 -66 314 -53 Q327 -40 345 -40 Q365 -40 379 -54 Q393 -68 392 -92 Q389 -157 321 -192 L307 -174 Q332 -149 331 -125 Q317 -120 309 -109 Q301 -98 301 -83 Z " />
<glyph glyph-name="ncommaaccent" unicode="&#x146;" horiz-adv-x="556" d="M324 498 Q375 498 402.5 483 Q430 468 442.5 445.5 Q455 423 457.5 396.5 Q460 370 460 346 L460 46 L534 46 L534 13 Q517 5 496 0.5 Q475 -4 461 -4 Q435 -4 421.5 7 Q408 18 407 55 L407 331 Q407 358 404.5 380 Q402 402 393 417.5 Q384 433 366 441.5 Q348 450 316 450 Q296 450 274.5 445.5 Q253 441 231 433.5 Q209 426 188 416.5 Q167 407 150 398 L150 0 L96 0 L96 443 L20 443 L20 487 L150 487 L150 447 L153 445 Q195 471 242 484.5 Q289 498 324 498 Z M263 -83 Q263 -66 276 -53 Q289 -40 307 -40 Q327 -40 341 -54 Q355 -68 354 -92 Q351 -157 283 -192 L269 -174 Q294 -149 293 -125 Q279 -120 271 -109 Q263 -98 263 -83 Z " />
<glyph glyph-name="Ncaron" unicode="&#x147;" horiz-adv-x="699" d="M539 104 L539 637 L469 637 L469 683 L659 683 L659 637 L594 637 L594 0 L541 0 L237 475 L164 592 L161 591 L162 47 L232 47 L232 0 L40 0 L40 47 L107 47 L107 637 L40 637 L40 683 L168 683 L450 238 L534 104 L539 104 Z M488 887 L507 864 L357 734 L318 734 L169 866 L187 888 L337 788 L488 887 Z " />
<glyph glyph-name="ncaron" unicode="&#x148;" horiz-adv-x="556" d="M324 498 Q375 498 402.5 483 Q430 468 442.5 445.5 Q455 423 457.5 396.5 Q460 370 460 346 L460 46 L534 46 L534 13 Q517 5 496 0.5 Q475 -4 461 -4 Q435 -4 421.5 7 Q408 18 407 55 L407 331 Q407 358 404.5 380 Q402 402 393 417.5 Q384 433 366 441.5 Q348 450 316 450 Q296 450 274.5 445.5 Q253 441 231 433.5 Q209 426 188 416.5 Q167 407 150 398 L150 0 L96 0 L96 443 L20 443 L20 487 L150 487 L150 447 L153 445 Q195 471 242 484.5 Q289 498 324 498 Z M393 695 L412 672 L262 544 L223 544 L74 674 L92 696 L242 596 L393 695 Z " />
<glyph glyph-name="napostrophe" unicode="&#x149;" horiz-adv-x="692" d="M460 498 Q511 498 538.5 483 Q566 468 578.5 445.5 Q591 423 593.5 396.5 Q596 370 596 346 L596 46 L670 46 L670 13 Q653 5 632 0.5 Q611 -4 597 -4 Q571 -4 557.5 7 Q544 18 543 55 L543 331 Q543 358 540.5 380 Q538 402 529 417.5 Q520 433 502 441.5 Q484 450 452 450 Q432 450 410.5 445.5 Q389 441 367 433.5 Q345 426 324 416.5 Q303 407 286 398 L286 0 L232 0 L232 443 L156 443 L156 487 L286 487 L286 447 L289 445 Q331 471 378 484.5 Q425 498 460 498 Z M25 603 Q25 620 38 633 Q51 646 69 646 Q89 646 103 632 Q117 618 116 594 Q113 529 45 494 L31 512 Q56 537 55 561 Q41 566 33 577 Q25 588 25 603 Z " />
<glyph glyph-name="Eng" unicode="&#x14a;" horiz-adv-x="699" d="M371 -123 Q388 -125 406.5 -127 Q425 -129 440 -129 Q487 -129 514.5 -111.5 Q542 -94 542 -50 L542 -1 L237 475 L164 592 L161 591 L162 47 L232 47 L232 0 L40 0 L40 47 L107 47 L107 637 L40 637 L40 683 L168 683 L450 238 L534 104 L539 104 L539 637 L469 637 L469 683 L659 683 L659 637 L594 637 L594 -36 Q594 -72 583 -98.5 Q572 -125 552.5 -142 Q533 -159 507 -167.5 Q481 -176 450 -176 Q430 -176 407.5 -173.5 Q385 -171 363 -166 L371 -123 L371 -123 Z " />
<glyph glyph-name="eng" unicode="&#x14b;" horiz-adv-x="520" d="M324 498 Q375 498 402.5 483 Q430 468 442.5 445.5 Q455 423 457.5 396.5 Q460 370 460 346 L460 -2 Q460 -39 449 -65.5 Q438 -92 418.5 -109.5 Q399 -127 372.5 -135.5 Q346 -144 315 -144 Q295 -144 272.5 -141.5 Q250 -139 228 -134 L236 -91 Q253 -93 271.5 -95 Q290 -97 305 -97 Q356 -97 381.5 -76.5 Q407 -56 407 -4 L407 331 Q407 358 404.5 380 Q402 402 393 417.5 Q384 433 366 441.5 Q348 450 316 450 Q296 450 274.5 445.5 Q253 441 231 433.5 Q209 426 188 416.5 Q167 407 150 398 L150 0 L96 0 L96 443 L20 443 L20 487 L150 487 L150 447 L153 445 Q195 471 242 484.5 Q289 498 324 498 Z " />
<glyph glyph-name="Omacron" unicode="&#x14c;" horiz-adv-x="648" d="M598 338 Q598 264 581 201 Q564 138 530.5 92 Q497 46 447 19.5 Q397 -7 330 -7 Q253 -7 199.5 17 Q146 41 113 85 Q80 129 65 192.5 Q50 256 50 335 Q50 405 64 470 Q78 535 110.5 584.5 Q143 634 196.5 663.5 Q250 693 330 693 Q411 693 463 663 Q515 633 545 583.5 Q575 534 586.5 470 Q598 406 598 338 Z M540 335 Q540 387 532.5 442 Q525 497 502.5 542.5 Q480 588 438.5 617 Q397 646 330 646 Q263 646 220 619 Q177 592 152 548 Q127 504 117.5 448 Q108 392 108 333 Q108 188 160.5 114 Q213 40 330 40 Q384 40 423.5 63.5 Q463 87 489 127 Q515 167 527.5 221 Q540 275 540 335 Z M492 798 L492 747 L179 747 L179 798 L492 798 Z " />
<glyph glyph-name="omacron" unicode="&#x14d;" horiz-adv-x="481" d="M385 240 Q385 274 380 311 Q375 348 360 379 Q345 410 317.5 430 Q290 450 245 450 Q200 450 171.5 431 Q143 412 126.5 382 Q110 352 103.5 314 Q97 276 97 239 Q97 200 102.5 164.5 Q108 129 123.5 101 Q139 73 168 56.5 Q197 40 245 40 Q289 40 316.5 58.5 Q344 77 359 105.5 Q374 134 379.5 169.5 Q385 205 385 240 Z M245 497 Q303 497 341 474.5 Q379 452 401.5 416 Q424 380 432.5 334 Q441 288 441 242 Q441 197 432 152.5 Q423 108 399.5 72.5 Q376 37 336 15 Q296 -7 234 -7 Q177 -7 139.5 13.5 Q102 34 80 68.5 Q58 103 49 147.5 Q40 192 40 240 Q40 287 50.5 333 Q61 379 85.5 415.5 Q110 452 149 474.5 Q188 497 245 497 Z M394 603 L394 555 L91 555 L91 603 L394 603 Z " />
<glyph glyph-name="Obreve" unicode="&#x14e;" horiz-adv-x="648" d="M598 338 Q598 264 581 201 Q564 138 530.5 92 Q497 46 447 19.5 Q397 -7 330 -7 Q253 -7 199.5 17 Q146 41 113 85 Q80 129 65 192.5 Q50 256 50 335 Q50 405 64 470 Q78 535 110.5 584.5 Q143 634 196.5 663.5 Q250 693 330 693 Q411 693 463 663 Q515 633 545 583.5 Q575 534 586.5 470 Q598 406 598 338 Z M540 335 Q540 387 532.5 442 Q525 497 502.5 542.5 Q480 588 438.5 617 Q397 646 330 646 Q263 646 220 619 Q177 592 152 548 Q127 504 117.5 448 Q108 392 108 333 Q108 188 160.5 114 Q213 40 330 40 Q384 40 423.5 63.5 Q463 87 489 127 Q515 167 527.5 221 Q540 275 540 335 Z M313 727 Q288 727 266.5 736 Q245 745 226 760 Q207 775 191 793.5 Q175 812 161 831 L202 859 Q228 824 257.5 801 Q287 778 316 778 Q325 778 338 780 Q351 782 368.5 789.5 Q386 797 407 811.5 Q428 826 454 852 L476 833 Q434 775 392.5 751 Q351 727 313 727 Z " />
<glyph glyph-name="obreve" unicode="&#x14f;" horiz-adv-x="481" d="M385 240 Q385 274 380 311 Q375 348 360 379 Q345 410 317.5 430 Q290 450 245 450 Q200 450 171.5 431 Q143 412 126.5 382 Q110 352 103.5 314 Q97 276 97 239 Q97 200 102.5 164.5 Q108 129 123.5 101 Q139 73 168 56.5 Q197 40 245 40 Q289 40 316.5 58.5 Q344 77 359 105.5 Q374 134 379.5 169.5 Q385 205 385 240 Z M245 497 Q303 497 341 474.5 Q379 452 401.5 416 Q424 380 432.5 334 Q441 288 441 242 Q441 197 432 152.5 Q423 108 399.5 72.5 Q376 37 336 15 Q296 -7 234 -7 Q177 -7 139.5 13.5 Q102 34 80 68.5 Q58 103 49 147.5 Q40 192 40 240 Q40 287 50.5 333 Q61 379 85.5 415.5 Q110 452 149 474.5 Q188 497 245 497 Z M241 541 Q216 541 194.5 550 Q173 559 154 574 Q135 589 119 607.5 Q103 626 89 645 L127 671 Q153 636 184 611.5 Q215 587 244 587 Q253 587 266 589 Q279 591 296.5 598.5 Q314 606 335 620.5 Q356 635 382 661 L404 642 Q362 584 320.5 562.5 Q279 541 241 541 Z " />
<glyph glyph-name="Ohungarumlaut" unicode="&#x150;" horiz-adv-x="648" d="M598 338 Q598 264 581 201 Q564 138 530.5 92 Q497 46 447 19.5 Q397 -7 330 -7 Q253 -7 199.5 17 Q146 41 113 85 Q80 129 65 192.5 Q50 256 50 335 Q50 405 64 470 Q78 535 110.5 584.5 Q143 634 196.5 663.5 Q250 693 330 693 Q411 693 463 663 Q515 633 545 583.5 Q575 534 586.5 470 Q598 406 598 338 Z M540 335 Q540 387 532.5 442 Q525 497 502.5 542.5 Q480 588 438.5 617 Q397 646 330 646 Q263 646 220 619 Q177 592 152 548 Q127 504 117.5 448 Q108 392 108 333 Q108 188 160.5 114 Q213 40 330 40 Q384 40 423.5 63.5 Q463 87 489 127 Q515 167 527.5 221 Q540 275 540 335 Z M239 749 L350 907 L399 867 L268 728 L239 749 Z M351 749 L462 907 L511 867 L380 728 L351 749 Z " />
<glyph glyph-name="ohungarumlaut" unicode="&#x151;" horiz-adv-x="481" d="M385 240 Q385 274 380 311 Q375 348 360 379 Q345 410 317.5 430 Q290 450 245 450 Q200 450 171.5 431 Q143 412 126.5 382 Q110 352 103.5 314 Q97 276 97 239 Q97 200 102.5 164.5 Q108 129 123.5 101 Q139 73 168 56.5 Q197 40 245 40 Q289 40 316.5 58.5 Q344 77 359 105.5 Q374 134 379.5 169.5 Q385 205 385 240 Z M245 497 Q303 497 341 474.5 Q379 452 401.5 416 Q424 380 432.5 334 Q441 288 441 242 Q441 197 432 152.5 Q423 108 399.5 72.5 Q376 37 336 15 Q296 -7 234 -7 Q177 -7 139.5 13.5 Q102 34 80 68.5 Q58 103 49 147.5 Q40 192 40 240 Q40 287 50.5 333 Q61 379 85.5 415.5 Q110 452 149 474.5 Q188 497 245 497 Z M154 557 L265 715 L314 675 L183 536 L154 557 Z M266 557 L377 715 L426 675 L295 536 L266 557 Z " />
<glyph glyph-name="Racute" unicode="&#x154;" horiz-adv-x="585" d="M40 0 L40 46 L103 46 L103 637 L40 637 L40 683 L310 683 Q351 683 388 673 Q425 663 452.5 641 Q480 619 496 584 Q512 549 512 500 Q512 476 506 447.5 Q500 419 485 393 Q470 367 444 346 Q418 325 379 315 L506 47 L576 38 L576 5 Q561 0 541 -3.5 Q521 -7 507 -7 Q481 -7 471 5 Q461 17 452 37 L325 308 L160 308 L160 46 L244 46 L244 0 L40 0 Z M315 354 Q340 354 365.5 359.5 Q391 365 410.5 381 Q430 397 442.5 425 Q455 453 455 497 Q455 535 444 561.5 Q433 588 413.5 605 Q394 622 368 629.5 Q342 637 312 637 L160 637 L160 354 L315 354 Z M278 747 L389 905 L438 865 L307 726 L278 747 Z " />
<glyph glyph-name="racute" unicode="&#x155;" horiz-adv-x="349" d="M158 421 Q172 433 192.5 446.5 Q213 460 236 472 Q259 484 283.5 491.5 Q308 499 330 499 Q338 499 344.5 495 Q351 491 351 477 Q351 464 345 445.5 Q339 427 330 416 L159 397 L159 44 L240 44 L240 0 L29 0 L29 44 L104 44 L104 443 L30 443 L30 487 L157 487 L157 421 L158 421 Z M161 557 L272 715 L321 675 L190 536 L161 557 Z " />
<glyph glyph-name="Rcommaaccent" unicode="&#x156;" horiz-adv-x="585" d="M40 0 L40 46 L103 46 L103 637 L40 637 L40 683 L310 683 Q351 683 388 673 Q425 663 452.5 641 Q480 619 496 584 Q512 549 512 500 Q512 476 506 447.5 Q500 419 485 393 Q470 367 444 346 Q418 325 379 315 L506 47 L576 38 L576 5 Q561 0 541 -3.5 Q521 -7 507 -7 Q481 -7 471 5 Q461 17 452 37 L325 308 L160 308 L160 46 L244 46 L244 0 L40 0 Z M315 354 Q340 354 365.5 359.5 Q391 365 410.5 381 Q430 397 442.5 425 Q455 453 455 497 Q455 535 444 561.5 Q433 588 413.5 605 Q394 622 368 629.5 Q342 637 312 637 L160 637 L160 354 L315 354 Z M253 -83 Q253 -66 266 -53 Q279 -40 297 -40 Q317 -40 331 -54 Q345 -68 344 -92 Q341 -157 273 -192 L259 -174 Q284 -149 283 -125 Q269 -120 261 -109 Q253 -98 253 -83 Z " />
<glyph glyph-name="rcommaaccent" unicode="&#x157;" horiz-adv-x="349" d="M158 421 Q172 433 192.5 446.5 Q213 460 236 472 Q259 484 283.5 491.5 Q308 499 330 499 Q338 499 344.5 495 Q351 491 351 477 Q351 464 345 445.5 Q339 427 330 416 L159 397 L159 44 L240 44 L240 0 L29 0 L29 44 L104 44 L104 443 L30 443 L30 487 L157 487 L157 421 L158 421 Z M88 -83 Q88 -66 101 -53 Q114 -40 132 -40 Q152 -40 166 -54 Q180 -68 179 -92 Q176 -157 108 -192 L94 -174 Q119 -149 118 -125 Q104 -120 96 -109 Q88 -98 88 -83 Z " />
<glyph glyph-name="Rcaron" unicode="&#x158;" horiz-adv-x="585" d="M40 0 L40 46 L103 46 L103 637 L40 637 L40 683 L310 683 Q351 683 388 673 Q425 663 452.5 641 Q480 619 496 584 Q512 549 512 500 Q512 476 506 447.5 Q500 419 485 393 Q470 367 444 346 Q418 325 379 315 L506 47 L576 38 L576 5 Q561 0 541 -3.5 Q521 -7 507 -7 Q481 -7 471 5 Q461 17 452 37 L325 308 L160 308 L160 46 L244 46 L244 0 L40 0 Z M315 354 Q340 354 365.5 359.5 Q391 365 410.5 381 Q430 397 442.5 425 Q455 453 455 497 Q455 535 444 561.5 Q433 588 413.5 605 Q394 622 368 629.5 Q342 637 312 637 L160 637 L160 354 L315 354 Z M427 887 L446 864 L296 734 L257 734 L108 866 L126 888 L276 788 L427 887 Z " />
<glyph glyph-name="rcaron" unicode="&#x159;" horiz-adv-x="349" d="M158 421 Q172 433 192.5 446.5 Q213 460 236 472 Q259 484 283.5 491.5 Q308 499 330 499 Q338 499 344.5 495 Q351 491 351 477 Q351 464 345 445.5 Q339 427 330 416 L159 397 L159 44 L240 44 L240 0 L29 0 L29 44 L104 44 L104 443 L30 443 L30 487 L157 487 L157 421 L158 421 Z M323 695 L342 672 L192 544 L153 544 L4 674 L22 696 L172 596 L323 695 Z " />
</font>
</svg>
