<?xml version="1.0" encoding="UTF-8"?>
<svg xmlns="http://www.w3.org/2000/svg" xmlns:xlink="http://www.w3.org/1999/xlink" version="1.2" >
<font id="SapientCentroSlab-MediumItalic">
<font-face  font-family="Sapient Centro Slab" units-per-em="1000" ascent="750" descent="-250" font-style="italic" font-weight="500" font-stretch="normal" slope="-12" cap-height="686" x-height="489" underline-position="-85" underline-thickness="60" />
<missing-glyph  horiz-adv-x="431" d="M0 686 L430 686 L430 0 L0 0 L0 686 Z M353 49 L216 298 L77 49 L353 49 Z M353 637 L77 637 L216 388 L353 637 Z M48 92 L186 343 L48 595 L48 92 Z M382 90 L382 598 L244 342 L382 90 Z " />
<glyph glyph-name="NULL" d="" />
<glyph glyph-name="nonmarkingreturn" unicode="&#xd;" horiz-adv-x="273" d="" />
<glyph glyph-name="space" unicode="&#x20;" horiz-adv-x="273" d="" />
<glyph glyph-name="dollar" unicode="&#x24;" horiz-adv-x="558" d="M256 -75 Q282 127 306.5 328.5 Q331 530 356 734 L394 734 L386 669 Q413 666 446.5 657 Q480 648 506 631 Q501 598 497 564 Q493 530 489 496 L425 496 L436 577 Q423 584 408 588 Q393 592 377 594 L350 373 Q378 362 404.5 348.5 Q431 335 452 316.5 Q473 298 485.5 272 Q498 246 498 209 Q498 164 483.5 128.5 Q469 93 443 68 Q417 43 382 28 Q347 13 305 7 Q302 -12 299.5 -33.5 Q297 -55 294 -75 L256 -75 Z M323 734 L224 -75 L185 -75 Q188 -55 190.5 -34.5 Q193 -14 196 4 Q158 9 119.5 20 Q81 31 49 52 Q54 86 58 120 Q62 154 67 188 L130 188 L121 106 Q142 95 163 90.5 Q184 86 205 83 L234 319 Q206 329 182 342.5 Q158 356 141 374 Q124 392 114 416.5 Q104 441 104 474 Q104 517 118 550.5 Q132 584 156 607.5 Q180 631 211 645.5 Q242 660 277 666 L285 734 L323 734 Z M314 87 Q357 95 384 122.5 Q411 150 411 201 Q411 235 391.5 254 Q372 273 338 287 L314 87 Z M267 588 Q235 580 212 555.5 Q189 531 188 485 L188 484 Q189 451 204 435 Q219 419 245 408 L267 588 Z " />
<glyph glyph-name="percent" unicode="&#x25;" horiz-adv-x="830" d="M248 671 Q290 671 318 658 Q346 645 362 623 Q378 601 384.5 572.5 Q391 544 391 513 Q391 472 382.5 427.5 Q374 383 352.5 346 Q331 309 294.5 285.5 Q258 262 203 262 Q161 262 133 274 Q105 286 88.5 307 Q72 328 65 356 Q58 384 58 416 Q58 448 65.5 492 Q73 536 93.5 575.5 Q114 615 151 643 Q188 671 248 671 Z M246 609 Q208 609 186.5 584.5 Q165 560 154 527 Q143 494 140 460.5 Q137 427 137 410 Q137 371 152.5 347 Q168 323 210 323 Q240 323 259.5 341 Q279 359 290.5 386 Q302 413 307 445.5 Q312 478 312 508 Q312 527 309.5 545 Q307 563 299.5 577 Q292 591 279 600 Q266 609 246 609 Z M307 -21 L241 -21 L629 704 L693 704 L307 -21 Z M709 405 Q751 405 779 391.5 Q807 378 823 356.5 Q839 335 845.5 306.5 Q852 278 852 248 Q852 206 843 161 Q834 116 812.5 79.5 Q791 43 755 19.5 Q719 -4 664 -4 Q622 -4 594 8 Q566 20 549 41 Q532 62 525 90 Q518 118 518 149 Q518 182 525.5 226 Q533 270 554 309.5 Q575 349 612 377 Q649 405 709 405 Z M707 343 Q669 343 647.5 318.5 Q626 294 615 261 Q604 228 601 194.5 Q598 161 598 143 Q598 105 613.5 81.5 Q629 58 671 58 Q701 58 720.5 75.5 Q740 93 751.5 120 Q763 147 768 179.5 Q773 212 773 242 Q773 261 770.5 279 Q768 297 760.5 311 Q753 325 740 334 Q727 343 707 343 Z " />
<glyph glyph-name="ampersand" unicode="&#x26;" horiz-adv-x="874" d="M440 306 Q483 315 521 315 Q550 315 583 311 Q616 307 651 299 Q658 322 660 344.5 Q662 367 662 389 Q662 439 648.5 482 Q635 525 606.5 556 Q578 587 534 604.5 Q490 622 430 622 Q358 622 302 595.5 Q246 569 205.5 526 Q165 483 139.5 428 Q114 373 103 315 Q85 317 67.5 319 Q50 321 33 323 Q42 386 70.5 451.5 Q99 517 148.5 570 Q198 623 269.5 657 Q341 691 437 691 Q521 691 579.5 666 Q638 641 674.5 599.5 Q711 558 728 505 Q745 452 745 396 Q745 370 741.5 343 Q738 316 732 290 Q760 290 780.5 293 Q801 296 816 302.5 Q831 309 842.5 319.5 Q854 330 865 345 Q873 335 882.5 325.5 Q892 316 902 306 Q876 265 836.5 245 Q797 225 732 225 Q727 225 721.5 225.5 Q716 226 710 226 Q689 176 655 132.5 Q621 89 576.5 56 Q532 23 479 4 Q426 -15 366 -15 Q308 -15 267.5 1 Q227 17 201.5 45 Q176 73 164.5 109 Q153 145 153 186 Q153 261 173.5 318 Q194 375 226 413 Q258 451 297 470 Q336 489 373 489 Q399 489 419.5 480.5 Q440 472 454 459 Q468 446 475.5 429 Q483 412 483 396 Q483 377 475.5 354 Q468 331 440 308 L440 306 Z M367 229 Q356 235 351 251.5 Q346 268 340 282 Q400 325 400 362 Q400 382 388 393 Q376 404 359 404 Q341 404 320 393 Q299 382 281.5 357.5 Q264 333 252 293.5 Q240 254 240 198 Q240 126 277 89.5 Q314 53 383 53 Q418 53 454 66.5 Q490 80 523 104 Q556 128 583.5 162 Q611 196 628 237 Q562 254 505 254 Q439 254 367 229 Z " />
<glyph glyph-name="quotesingle" unicode="&#x27;" horiz-adv-x="206" d="M106 467 L118 687 L207 687 L164 467 L106 467 Z " />
<glyph glyph-name="parenleft" unicode="&#x28;" horiz-adv-x="296" d="M151 161 Q151 101 158 53.5 Q165 6 174.5 -31 Q184 -68 194.5 -94.5 Q205 -121 213 -138 L164 -170 Q148 -148 130.5 -113.5 Q113 -79 98 -33.5 Q83 12 73 67.5 Q63 123 63 188 Q63 288 85 371.5 Q107 455 139 521 Q171 587 207.5 635 Q244 683 273 713 L312 682 Q296 661 269 616 Q242 571 215.5 504.5 Q189 438 170 351.5 Q151 265 151 161 Z " />
<glyph glyph-name="parenright" unicode="&#x29;" horiz-adv-x="297" d="M157 387 Q157 445 150 492.5 Q143 540 132.5 577 Q122 614 111 640.5 Q100 667 93 683 L140 713 Q157 689 175.5 654.5 Q194 620 209 575.5 Q224 531 234 477 Q244 423 244 362 Q244 259 220.5 173 Q197 87 164 19.5 Q131 -48 94.5 -95.5 Q58 -143 32 -170 L-8 -137 Q7 -116 35 -72 Q63 -28 90 38 Q117 104 137 191.5 Q157 279 157 387 Z " />
<glyph glyph-name="asterisk" unicode="&#x2a;" horiz-adv-x="391" d="M273 530 Q288 514 309 490.5 Q330 467 345 451 Q332 436 308.5 419.5 Q285 403 267 396 L232 503 L171 397 Q155 403 135 419 Q115 435 105 451 L198 532 L87 547 Q91 567 103 594 Q115 621 126 636 L219 578 Q218 590 217 605 Q216 620 215 635.5 Q214 651 213 666 Q212 681 211 693 Q219 695 231.5 696 Q244 697 257 697 Q270 697 282 696 Q294 695 302 693 Q298 681 293.5 666 Q289 651 284 635.5 Q279 620 274 605 Q269 590 265 578 L375 631 Q384 615 388.5 588.5 Q393 562 391 539 L273 530 Z " />
<glyph glyph-name="plus" unicode="&#x2b;" horiz-adv-x="558" d="M327 266 L306 97 L237 97 L257 266 L98 266 L107 335 L266 335 L286 498 L355 498 L335 335 L492 335 L484 266 L327 266 Z " />
<glyph glyph-name="comma" unicode="&#x2c;" horiz-adv-x="226" d="M97 117 Q124 117 139 98 Q154 79 154 51 Q154 27 143 2 Q132 -23 114 -46 Q96 -69 73 -87.5 Q50 -106 26 -118 L5 -84 Q28 -65 42.5 -46.5 Q57 -28 64 0 Q47 4 38 16.5 Q29 29 29 47 Q29 74 47.5 95.5 Q66 117 97 117 Z " />
<glyph glyph-name="hyphen" unicode="&#x2d;" horiz-adv-x="366" d="M56 225 L66 307 L324 307 L313 225 L56 225 Z " />
<glyph glyph-name="period" unicode="&#x2e;" horiz-adv-x="224" d="M97 116 Q121 116 136 99.5 Q151 83 151 59 Q151 44 145 31.5 Q139 19 129.5 10 Q120 1 108 -4.5 Q96 -10 83 -10 Q60 -10 44.5 6 Q29 22 29 45 Q29 75 49.5 95.5 Q70 116 97 116 Z " />
<glyph glyph-name="slash" unicode="&#x2f;" horiz-adv-x="339" d="M52 -30 L-18 -30 L322 703 L392 703 L52 -30 Z " />
<glyph glyph-name="zero" unicode="0" horiz-adv-x="558" d="M327 675 Q393 675 435.5 651 Q478 627 502 588 Q526 549 535 499 Q544 449 544 398 Q544 330 530 258.5 Q516 187 483.5 128 Q451 69 397 31 Q343 -7 263 -7 Q200 -7 158 13 Q116 33 90.5 67 Q65 101 54 146.5 Q43 192 42 242 Q42 278 46.5 324.5 Q51 371 62.5 419 Q74 467 94 513 Q114 559 145.5 595 Q177 631 221.5 653 Q266 675 327 675 Z M323 594 Q281 594 251 573 Q221 552 201.5 519 Q182 486 170.5 445 Q159 404 153 364 Q147 324 145.5 289.5 Q144 255 144 235 Q145 200 151.5 170 Q158 140 172.5 118 Q187 96 211 84 Q235 72 271 72 Q320 72 353 103.5 Q386 135 405.5 183.5 Q425 232 433 290.5 Q441 349 441 403 Q441 437 436.5 471 Q432 505 419 532.5 Q406 560 383 577 Q360 594 323 594 Z " />
<glyph glyph-name="one" unicode="1" horiz-adv-x="558" d="M78 73 L217 73 L279 568 L125 546 L121 606 L300 665 L392 665 L319 73 L453 73 L444 0 L70 0 L78 73 Z " />
<glyph glyph-name="two" unicode="2" horiz-adv-x="558" d="M165 73 L393 73 L403 159 L482 159 L463 0 L15 0 L22 67 Q55 95 95.5 128 Q136 161 177 197.5 Q218 234 257.5 272 Q297 310 327 348.5 Q357 387 375.5 424.5 Q394 462 394 496 Q394 543 364 566.5 Q334 590 282 590 Q258 590 215 580.5 Q172 571 112 537 L81 602 Q147 646 204 661 Q261 676 303 676 Q390 676 444.5 635.5 Q499 595 499 513 Q499 472 483 431 Q467 390 440 350.5 Q413 311 378 273.5 Q343 236 306 201.5 Q269 167 232 136 Q195 105 164 79 L165 73 Z " />
<glyph glyph-name="three" unicode="3" horiz-adv-x="558" d="M354 373 Q414 362 451.5 319.5 Q489 277 489 217 Q489 171 470 130 Q451 89 415.5 58 Q380 27 329.5 8.5 Q279 -10 216 -10 Q162 -10 106.5 0 Q51 10 12 32 Q15 38 19 47 Q23 56 27.5 66.5 Q32 77 36 86 Q40 95 43 101 Q73 91 96.5 85 Q120 79 139.5 75.5 Q159 72 175.5 71 Q192 70 208 70 Q243 70 275 79.5 Q307 89 331.5 107 Q356 125 370.5 151 Q385 177 385 210 Q385 265 346 294.5 Q307 324 247 324 Q236 324 222.5 323 Q209 322 192 320 L180 386 Q285 404 336 442 Q387 480 387 521 Q387 552 363.5 575.5 Q340 599 284 599 Q250 599 210 589.5 Q170 580 116 556 Q114 561 110.5 570 Q107 579 103.5 589 Q100 599 96.5 608 Q93 617 90 622 Q147 652 201.5 666 Q256 680 306 680 Q355 680 390 669 Q425 658 447 639 Q469 620 479 595 Q489 570 489 543 Q489 521 481.5 497.5 Q474 474 458 452 Q442 430 416 410.5 Q390 391 354 378 L354 373 Z " />
<glyph glyph-name="four" unicode="4" horiz-adv-x="558" d="M491 665 Q485 621 478.5 569.5 Q472 518 465.5 464 Q459 410 452.5 358 Q446 306 441 262 L536 262 Q534 249 531 225 Q528 201 527 188 L432 188 Q429 161 425 130 Q421 99 417 72 L484 72 L476 0 L247 0 Q248 6 249 15.5 Q250 25 251.5 35.5 Q253 46 254 56 Q255 66 255 72 L318 72 L333 188 L28 188 L36 256 Q73 300 117.5 353 Q162 406 208 460.5 Q254 515 298 568 Q342 621 379 665 L491 665 Z M374 556 L324 493 Q276 438 226.5 377.5 Q177 317 130 262 L343 262 L379 556 L374 556 Z " />
<glyph glyph-name="five" unicode="5" horiz-adv-x="558" d="M267 346 Q241 346 212 339 Q183 332 154 320 L103 354 L152 665 L518 665 L500 516 L421 516 L430 590 L228 590 L201 405 Q214 409 239.5 416 Q265 423 303 423 Q344 423 380 412.5 Q416 402 442.5 379.5 Q469 357 484.5 322.5 Q500 288 500 240 Q500 177 477 130 Q454 83 416 52.5 Q378 22 329.5 6.5 Q281 -9 230 -9 Q180 -9 126 0 Q72 9 28 34 L59 108 Q115 87 151 81.5 Q187 76 217 76 Q255 76 288 85 Q321 94 345 113.5 Q369 133 383 163 Q397 193 397 234 Q397 262 386.5 283.5 Q376 305 358.5 318.5 Q341 332 317.5 339 Q294 346 267 346 Z " />
<glyph glyph-name="six" unicode="6" horiz-adv-x="558" d="M174 373 Q189 382 208.5 390 Q228 398 250 405 Q272 412 294.5 416 Q317 420 338 420 Q374 420 405.5 410 Q437 400 460.5 378.5 Q484 357 497.5 323.5 Q511 290 511 244 Q511 185 491.5 138.5 Q472 92 438 60 Q404 28 358 10.5 Q312 -7 258 -7 Q200 -7 161 10.5 Q122 28 98.5 59.5 Q75 91 65 134.5 Q55 178 55 229 Q55 322 75 403.5 Q95 485 134 545 Q173 605 232 640 Q291 675 369 675 Q420 675 461.5 665 Q503 655 520 646 L494 574 Q460 588 425 592 Q390 596 368 596 Q318 596 282.5 572 Q247 548 223.5 513.5 Q200 479 187.5 441 Q175 403 171 376 L174 373 Z M307 343 Q275 343 250 336 Q225 329 206 321 Q187 313 176 305.5 Q165 298 162 297 Q160 279 158 261 Q156 243 156 224 Q156 197 160 171 Q164 145 176.5 124 Q189 103 211 90 Q233 77 269 77 Q303 77 330 89 Q357 101 375 122.5 Q393 144 402.5 173.5 Q412 203 412 239 Q412 285 389 314 Q366 343 307 343 Z " />
<glyph glyph-name="seven" unicode="7" horiz-adv-x="558" d="M111 491 Q117 535 122 578 Q127 621 133 665 L542 665 L536 599 L198 0 L97 0 Q180 149 265 295 Q350 441 434 590 L204 590 Q201 564 197.5 540 Q194 516 192 491 L111 491 Z " />
<glyph glyph-name="eight" unicode="8" horiz-adv-x="558" d="M330 597 Q294 597 271 585 Q248 573 234.5 556.5 Q221 540 216 522.5 Q211 505 211 494 Q211 474 221 459 Q231 444 247.5 432 Q264 420 286.5 409 Q309 398 335 385 Q389 421 410 452.5 Q431 484 431 511 Q431 526 426 541.5 Q421 557 409.5 569.5 Q398 582 378.5 589.5 Q359 597 330 597 Z M259 71 Q296 71 323.5 81 Q351 91 369 108 Q387 125 395.5 146.5 Q404 168 404 191 Q404 215 395 234 Q386 253 367.5 269 Q349 285 319.5 300 Q290 315 249 331 Q219 312 198.5 291 Q178 270 165.5 248.5 Q153 227 148 206 Q143 185 143 167 Q143 127 171.5 99 Q200 71 259 71 Z M342 677 Q378 677 412 667.5 Q446 658 472 638.5 Q498 619 513.5 589 Q529 559 529 519 Q529 477 502 433.5 Q475 390 414 349 Q455 326 480.5 288 Q506 250 506 194 Q506 157 490 120.5 Q474 84 442 55.5 Q410 27 362.5 9.5 Q315 -8 252 -8 Q199 -8 159 5 Q119 18 92 40.5 Q65 63 51.5 93.5 Q38 124 38 160 Q38 186 46 215 Q54 244 71 272 Q88 300 114.5 325.5 Q141 351 179 369 Q144 392 126.5 420 Q109 448 109 486 Q109 526 126.5 561 Q144 596 175 622 Q206 648 249 662.5 Q292 677 342 677 Z " />
<glyph glyph-name="nine" unicode="9" horiz-adv-x="558" d="M407 295 Q392 286 372.5 278 Q353 270 331 263 Q309 256 286.5 252 Q264 248 243 248 Q207 248 175.5 258 Q144 268 120.5 289.5 Q97 311 83.5 344.5 Q70 378 70 424 Q70 482 89.5 529 Q109 576 143 608 Q177 640 223 657.5 Q269 675 323 675 Q381 675 420 657.5 Q459 640 482.5 608.5 Q506 577 516 533.5 Q526 490 526 439 Q526 346 506 264.5 Q486 183 447 123 Q408 63 349 28 Q290 -7 212 -7 Q161 -7 121.5 3 Q82 13 65 22 Q67 28 70 37.5 Q73 47 76 57.5 Q79 68 82 78 Q85 88 87 94 Q121 80 156 76 Q191 72 213 72 Q263 72 298.5 96 Q334 120 357 154.5 Q380 189 392.5 227 Q405 265 410 292 L407 295 Z M274 325 Q305 325 330.5 332 Q356 339 375 347 Q394 355 405 362.5 Q416 370 419 371 Q421 389 423 407 Q425 425 425 444 Q425 471 421 497 Q417 523 404.5 544 Q392 565 370 578 Q348 591 312 591 Q277 591 250.5 579 Q224 567 206 545.5 Q188 524 178.5 494.5 Q169 465 169 429 Q169 382 192 353.5 Q215 325 274 325 Z " />
<glyph glyph-name="colon" unicode="&#x3a;" horiz-adv-x="221" d="M101 117 Q125 117 139.5 101 Q154 85 154 62 Q154 33 134.5 12 Q115 -9 87 -9 Q62 -9 47.5 7.5 Q33 24 33 48 Q33 77 53.5 97 Q74 117 101 117 Z M139 424 Q163 424 177.5 408.5 Q192 393 192 370 Q192 340 171.5 319 Q151 298 124 298 Q100 298 85 315 Q70 332 70 356 Q70 371 76 383.5 Q82 396 91.5 405 Q101 414 113.5 419 Q126 424 139 424 Z " />
<glyph glyph-name="semicolon" unicode="&#x3b;" horiz-adv-x="221" d="M99 117 Q126 117 141 98 Q156 79 156 51 Q156 27 145 2 Q134 -23 116 -46 Q98 -69 75 -87.5 Q52 -106 28 -118 L6 -84 Q29 -65 44 -46.5 Q59 -28 66 0 Q49 4 40 16.5 Q31 29 31 47 Q31 74 49.5 95.5 Q68 117 99 117 Z M139 424 Q163 424 177.5 408.5 Q192 393 192 370 Q192 340 171.5 319 Q151 298 124 298 Q100 298 85 315 Q70 332 70 356 Q70 371 76 383.5 Q82 396 91.5 405 Q101 414 113.5 419 Q126 424 139 424 Z " />
<glyph glyph-name="less" unicode="&#x3c;" horiz-adv-x="558" d="M466 61 L85 268 L92 328 L523 535 L513 451 L181 297 Q188 293 210.5 281 Q233 269 263.5 253 Q294 237 328 218.5 Q362 200 392.5 184 Q423 168 445.5 155.5 Q468 143 475 140 L466 61 Z " />
<glyph glyph-name="equal" unicode="&#x3d;" horiz-adv-x="558" d="M95 343 L104 411 L503 411 L495 343 L95 343 Z M77 191 L85 258 L485 258 L476 191 L77 191 Z " />
<glyph glyph-name="greater" unicode="&#x3e;" horiz-adv-x="558" d="M70 144 L404 299 Q397 303 374 315 Q351 327 320.5 343 Q290 359 255.5 377 Q221 395 190.5 411 Q160 427 137.5 438.5 Q115 450 108 454 L118 535 L499 328 L491 268 L60 61 L70 144 Z " />
<glyph glyph-name="question" unicode="&#x3f;" horiz-adv-x="451" d="M290 706 Q374 706 419 670 Q464 634 464 577 Q464 521 437 482 Q410 443 367 410 Q329 381 301.5 359 Q274 337 256 316.5 Q238 296 229.5 274.5 Q221 253 221 226 Q221 217 221.5 207 Q222 197 222 185 Q202 183 179 179.5 Q156 176 136 173 Q134 190 133 204.5 Q132 219 132 232 Q132 266 141.5 294 Q151 322 169.5 347.5 Q188 373 215.5 397.5 Q243 422 279 449 Q311 474 334 501 Q357 528 357 561 Q357 585 337 604 Q317 623 266 623 Q244 623 217.5 619.5 Q191 616 165 608 L154 521 L80 521 L98 672 Q151 690 201.5 698 Q252 706 290 706 Z M189 107 Q213 107 227.5 92 Q242 77 242 54 Q242 25 221.5 7.5 Q201 -10 175 -10 Q152 -10 137 4 Q122 18 122 40 Q122 66 141 86.5 Q160 107 189 107 Z " />
<glyph glyph-name="at" unicode="&#x40;" horiz-adv-x="906" d="M627 157 Q569 157 546 189.5 Q523 222 523 275 L523 279 L520 279 Q511 256 501 240 Q491 224 480 213 Q454 181 426 171 Q398 161 378 161 Q330 161 300.5 194.5 Q271 228 271 296 Q271 349 283.5 396 Q296 443 320.5 478.5 Q345 514 382 534.5 Q419 555 468 555 Q489 555 512.5 550 Q536 545 560 536 L579 558 L630 552 Q622 517 615 478 Q608 439 602.5 402 Q597 365 593.5 334 Q590 303 590 284 Q590 254 601.5 235.5 Q613 217 644 217 Q663 217 686.5 228 Q710 239 730.5 263 Q751 287 765 325 Q779 363 779 418 Q779 532 710.5 594.5 Q642 657 520 657 Q442 657 374.5 629.5 Q307 602 257 554.5 Q207 507 178.5 442.5 Q150 378 150 304 Q150 242 168.5 191.5 Q187 141 221.5 104 Q256 67 306 47 Q356 27 419 27 Q442 28 474 31 Q506 34 544 47 L559 -1 Q526 -17 485 -23.5 Q444 -30 409 -30 Q331 -30 271 -5.5 Q211 19 169.5 63 Q128 107 106.5 167.5 Q85 228 85 299 Q85 388 119.5 464.5 Q154 541 213 597 Q272 653 352 685 Q432 717 522 717 Q596 717 656 696.5 Q716 676 758 638 Q800 600 823 546 Q846 492 846 425 Q846 360 827 310.5 Q808 261 777 226.5 Q746 192 706.5 174.5 Q667 157 627 157 Z M403 221 Q416 221 431.5 229 Q447 237 463 256 Q479 275 495.5 307 Q512 339 527 386 L544 481 Q521 490 502.5 493 Q484 496 470 496 Q435 496 412 477 Q389 458 375 429.5 Q361 401 355.5 367.5 Q350 334 350 306 Q350 263 364.5 242 Q379 221 403 221 Z " />
<glyph glyph-name="A" unicode="A" horiz-adv-x="676" d="M408 0 L416 75 L481 75 L460 189 L211 189 L162 75 L228 75 L220 0 L-6 0 L1 75 L58 75 L333 686 L465 686 L588 75 L641 75 L632 0 L408 0 Z M411 464 L389 598 L386 598 L333 472 L245 265 L447 265 L411 464 Z " />
<glyph glyph-name="B" unicode="B" horiz-adv-x="628" d="M427 685 Q473 685 506.5 673.5 Q540 662 562 641.5 Q584 621 594.5 592.5 Q605 564 605 530 Q605 506 599.5 482 Q594 458 581.5 435.5 Q569 413 547.5 393.5 Q526 374 494 359 L494 358 Q522 349 540.5 333 Q559 317 570 297 Q581 277 585 255 Q589 233 589 212 Q589 159 570.5 119.5 Q552 80 521 53.5 Q490 27 450 13.5 Q410 0 367 0 L14 0 Q17 19 19 37.5 Q21 56 23 75 L91 75 L157 610 L92 610 L101 685 L427 685 Z M227 317 L198 75 L338 75 Q409 75 443 114.5 Q477 154 477 214 Q477 235 470.5 253.5 Q464 272 450.5 286 Q437 300 416.5 308.5 Q396 317 368 317 L227 317 Z M264 610 Q256 554 250 499 Q244 444 236 389 L362 389 Q425 389 460.5 425 Q496 461 496 516 Q496 558 471 584 Q446 610 389 610 L264 610 Z " />
<glyph glyph-name="C" unicode="C" horiz-adv-x="575" d="M412 698 Q466 698 508.5 690 Q551 682 583 670 L562 496 L483 496 L495 600 Q478 605 454.5 608.5 Q431 612 406 612 Q347 612 303.5 587 Q260 562 231.5 518 Q203 474 188.5 412 Q174 350 174 277 Q174 184 217 136 Q260 88 362 88 Q374 88 392.5 89 Q411 90 432 93 Q453 96 475 100 Q497 104 517 110 L533 25 Q513 17 488 11 Q463 5 436 0.5 Q409 -4 381.5 -6.5 Q354 -9 330 -9 Q256 -9 205 10.5 Q154 30 122 66.5 Q90 103 75.5 154.5 Q61 206 61 269 Q61 311 66.5 359.5 Q72 408 86.5 455.5 Q101 503 126 547 Q151 591 190 624.5 Q229 658 283.5 678 Q338 698 412 698 Z " />
<glyph glyph-name="D" unicode="D" horiz-adv-x="671" d="M16 0 L24 75 L93 75 L158 611 L94 611 L103 686 L385 686 Q459 686 508.5 664.5 Q558 643 588 605 Q618 567 630.5 516 Q643 465 643 406 Q643 325 625 251.5 Q607 178 567 122 Q527 66 463 33 Q399 0 308 0 L16 0 Z M267 611 L201 76 L297 76 Q314 76 338.5 80 Q363 84 388.5 96 Q414 108 439.5 130 Q465 152 485 188 Q505 224 517.5 276 Q530 328 530 400 Q530 471 513 513 Q496 555 471 576.5 Q446 598 417 604.5 Q388 611 363 611 L267 611 Z " />
<glyph glyph-name="E" unicode="E" horiz-adv-x="589" d="M16 0 L24 75 L90 75 L156 611 L93 611 L101 685 L601 685 L579 512 L501 512 L513 611 L263 611 L236 393 L472 398 L464 319 L227 323 L197 75 L467 75 L480 177 L560 177 L538 0 L16 0 Z " />
<glyph glyph-name="F" unicode="F" horiz-adv-x="569" d="M16 0 L24 75 L91 75 L156 611 L93 611 L101 685 L596 685 L574 512 L497 512 L509 611 L263 611 L236 393 L470 398 L460 319 L227 323 L197 75 L289 75 L280 0 L16 0 Z " />
<glyph glyph-name="G" unicode="G" horiz-adv-x="638" d="M425 698 Q479 698 523.5 690 Q568 682 599 670 L579 499 L500 499 L513 601 Q495 606 470 609.5 Q445 613 420 613 Q358 613 311.5 587.5 Q265 562 234.5 517 Q204 472 189 411 Q174 350 174 278 Q174 233 182.5 196.5 Q191 160 211 133.5 Q231 107 263.5 93 Q296 79 344 79 Q367 79 394.5 82.5 Q422 86 445 93 L469 286 L381 286 L389 356 L624 356 L616 286 L566 286 L534 25 Q429 -9 326 -9 Q253 -9 202.5 11.5 Q152 32 120.5 69 Q89 106 75 157 Q61 208 61 269 Q61 312 67.5 360.5 Q74 409 89.5 456.5 Q105 504 131.5 548 Q158 592 198.5 625 Q239 658 294.5 678 Q350 698 425 698 Z " />
<glyph glyph-name="H" unicode="H" horiz-adv-x="717" d="M419 0 L428 76 L488 76 L518 321 L226 321 L196 76 L257 76 L248 0 L16 0 L24 76 L88 76 L154 611 L90 611 L99 686 L331 686 L322 611 L261 611 L235 396 L527 396 L553 611 L493 611 L502 686 L735 686 L726 611 L662 611 L596 76 L660 76 L652 0 L419 0 Z " />
<glyph glyph-name="I" unicode="I" horiz-adv-x="370" d="M43 0 L52 75 L115 75 L180 611 L117 611 L126 686 L360 686 L351 611 L287 611 L221 75 L285 75 L277 0 L43 0 Z " />
<glyph glyph-name="J" unicode="J" horiz-adv-x="380" d="M107 686 L400 686 L391 611 L304 611 L246 145 Q238 78 218.5 24.5 Q199 -29 165 -69 Q131 -109 80 -136 Q29 -163 -42 -178 L-60 -105 Q-3 -84 33 -60 Q69 -36 90.5 -7 Q112 22 122 57.5 Q132 93 138 136 L197 611 L98 611 L107 686 Z " />
<glyph glyph-name="K" unicode="K" horiz-adv-x="657" d="M385 413 L576 77 L632 77 L623 0 L396 0 L405 77 L465 77 L308 352 L217 273 L193 76 L254 76 L245 0 L16 0 L24 76 L88 76 L154 611 L90 611 L99 685 L330 685 L321 611 L258 611 L231 380 L499 610 L443 610 L452 685 L679 685 L670 610 L613 610 L385 413 Z " />
<glyph glyph-name="L" unicode="L" horiz-adv-x="567" d="M16 0 L24 75 L91 75 L156 611 L93 611 L101 685 L344 685 L334 611 L264 611 L197 75 L458 75 L473 199 L553 199 L529 0 L16 0 Z " />
<glyph glyph-name="M" unicode="M" horiz-adv-x="882" d="M443 198 L500 308 L702 685 L901 685 L891 610 L830 610 L765 75 L825 75 L816 0 L593 0 L601 75 L661 75 L716 529 L714 529 L664 435 L474 87 L382 87 L244 529 L241 529 L187 75 L249 75 L240 0 L14 0 L23 75 L88 75 L153 610 L89 610 L98 685 L290 685 L397 341 L437 198 L443 198 Z " />
<glyph glyph-name="N" unicode="N" horiz-adv-x="747" d="M536 165 Q550 277 563.5 387.5 Q577 498 591 610 L524 610 L533 685 L764 685 Q761 666 759 647.5 Q757 629 755 610 L691 610 Q672 456 654 304.5 Q636 153 616 0 L514 0 Q457 112 406 218.5 Q355 325 296 437 Q284 462 271.5 486.5 Q259 511 248 537 Q247 537 246.5 536.5 Q246 536 245 536 L188 75 L256 75 L247 0 L14 0 Q17 19 19 37.5 Q21 56 23 75 L89 75 Q105 210 121.5 342.5 Q138 475 155 610 L89 610 L98 685 L278 685 Q323 594 371.5 494.5 Q420 395 479 274 L531 165 L536 165 Z " />
<glyph glyph-name="O" unicode="O" horiz-adv-x="684" d="M398 697 Q470 697 519 675 Q568 653 598 614 Q628 575 641.5 523 Q655 471 655 411 Q655 323 633.5 246.5 Q612 170 570 113 Q528 56 466.5 23.5 Q405 -9 325 -9 Q255 -9 205 10.5 Q155 30 123 66 Q91 102 76 153 Q61 204 61 267 Q61 348 80.5 425.5 Q100 503 141 563.5 Q182 624 245.5 660.5 Q309 697 398 697 Z M395 617 Q331 617 288.5 585 Q246 553 220 502.5 Q194 452 183 389.5 Q172 327 172 265 Q172 170 209 121 Q246 72 330 72 Q387 72 427.5 100 Q468 128 493.5 175.5 Q519 223 531 285 Q543 347 543 415 Q543 455 536.5 491.5 Q530 528 513.5 556 Q497 584 468.5 600.5 Q440 617 395 617 Z " />
<glyph glyph-name="P" unicode="P" horiz-adv-x="580" d="M395 686 Q489 686 538.5 640.5 Q588 595 588 507 Q588 467 575.5 426 Q563 385 535 351.5 Q507 318 462.5 296.5 Q418 275 354 275 L219 275 L194 75 L278 75 L270 0 L16 0 L24 75 L88 75 L153 611 L90 611 L99 686 L395 686 Z M260 611 L228 348 L339 348 Q364 348 388.5 356.5 Q413 365 432.5 383 Q452 401 464 430 Q476 459 476 500 Q476 556 447.5 583.5 Q419 611 371 611 L260 611 Z " />
<glyph glyph-name="Q" unicode="Q" horiz-adv-x="685" d="M398 697 Q470 697 519 675 Q568 653 598 614 Q628 575 641.5 523 Q655 471 655 411 Q655 345 643 285.5 Q631 226 608 176 Q585 126 550.5 88 Q516 50 471 27 L613 -11 L566 -102 L299 -6 Q236 -3 190.5 17.5 Q145 38 116.5 73.5 Q88 109 74.5 158 Q61 207 61 267 Q61 348 80.5 425.5 Q100 503 141 563.5 Q182 624 245.5 660.5 Q309 697 398 697 Z M395 617 Q331 617 288.5 585 Q246 553 220 502.5 Q194 452 183 389.5 Q172 327 172 265 Q172 170 209 121 Q246 72 330 72 Q387 72 427.5 100 Q468 128 493.5 175.5 Q519 223 531 285 Q543 347 543 415 Q543 455 536.5 491.5 Q530 528 513.5 556 Q497 584 468.5 600.5 Q440 617 395 617 Z " />
<glyph glyph-name="R" unicode="R" horiz-adv-x="629" d="M259 611 L230 367 L347 367 Q371 367 395 373.5 Q419 380 438.5 396 Q458 412 470 438.5 Q482 465 482 505 Q482 562 454 586.5 Q426 611 378 611 L259 611 Z M220 294 L194 75 L269 75 L260 0 L17 0 L25 75 L88 75 L153 611 L92 611 L101 686 L405 686 Q499 686 546.5 642 Q594 598 594 515 Q594 484 586.5 452.5 Q579 421 562 393 Q545 365 517.5 343.5 Q490 322 450 311 L526 75 L600 65 L603 5 Q592 1 577 -2 Q562 -5 547.5 -7 Q533 -9 519.5 -10 Q506 -11 498 -11 Q463 -11 449 5 Q435 21 425 51 L350 294 L220 294 Z " />
<glyph glyph-name="S" unicode="S" horiz-adv-x="558" d="M331 615 Q302 615 277 607.5 Q252 600 233 585.5 Q214 571 203 549 Q192 527 192 497 Q192 474 203.5 458 Q215 442 234 430 Q253 418 277 409 Q301 400 325 393 Q363 382 399 369.5 Q435 357 462.5 337.5 Q490 318 507 288 Q524 258 524 211 Q524 153 502 111.5 Q480 70 441.5 43 Q403 16 350.5 3.5 Q298 -9 238 -9 Q185 -9 126 2.5 Q67 14 20 43 L37 187 L116 187 L104 102 Q135 87 172 81 Q209 75 239 75 Q317 75 362 106.5 Q407 138 407 196 Q407 223 397 241 Q387 259 367.5 271.5 Q348 284 320 293 Q292 302 257 311 Q218 322 185.5 336 Q153 350 129.5 369.5 Q106 389 93 416.5 Q80 444 80 483 Q80 535 99.5 575 Q119 615 153 642 Q187 669 233 682.5 Q279 696 332 696 Q352 696 377.5 694 Q403 692 429 687 Q455 682 480.5 674 Q506 666 527 654 L509 510 L430 510 L442 596 Q413 607 385 611 Q357 615 331 615 Z " />
<glyph glyph-name="T" unicode="T" horiz-adv-x="569" d="M128 0 L137 75 L216 75 L282 611 L143 611 L131 505 L53 505 L75 686 L612 686 L590 505 L511 505 L524 611 L387 611 L322 75 L402 75 L394 0 L128 0 Z " />
<glyph glyph-name="U" unicode="U" horiz-adv-x="706" d="M621 249 Q613 190 593 142.5 Q573 95 538.5 61.5 Q504 28 453.5 10 Q403 -8 336 -8 Q263 -8 213 10.5 Q163 29 134 63.5 Q105 98 95.5 147 Q86 196 93 257 L137 611 L80 611 L89 686 L317 686 L309 611 L243 611 L198 246 Q177 72 338 72 Q413 72 459.5 115 Q506 158 517 246 L562 611 L497 611 L506 686 L734 686 L725 611 L666 611 L621 249 Z " />
<glyph glyph-name="V" unicode="V" horiz-adv-x="652" d="M379 249 L531 610 L471 610 L480 686 L703 686 L694 610 L637 610 L368 0 L239 0 L116 610 L61 610 L70 686 L294 686 L285 610 L224 610 L290 248 L315 101 L319 101 L379 249 Z " />
<glyph glyph-name="W" unicode="W" horiz-adv-x="951" d="M506 432 L465 330 L329 0 L198 0 L117 610 L61 610 L70 686 L303 686 L294 610 L229 610 L271 237 L284 108 L286 108 L338 237 L472 570 L465 610 L402 610 L411 686 L645 686 L637 610 L568 610 L633 231 L652 116 L654 116 L699 243 L827 610 L762 610 L771 686 L1003 686 L993 610 L935 610 Q922 574 903.5 525 Q885 476 864 420 Q843 364 820.5 305 Q798 246 777 190.5 Q756 135 738 85.5 Q720 36 707 0 L581 0 L524 333 L509 432 L506 432 Z " />
<glyph glyph-name="X" unicode="X" horiz-adv-x="647" d="M453 686 L678 686 L669 610 L614 610 L407 352 L548 76 L610 76 L602 0 L354 0 L363 76 L427 76 L320 291 L158 76 L230 76 L221 0 L-7 0 L1 76 L48 76 L268 364 L145 610 L79 610 L88 686 L331 686 L322 610 L262 610 L355 420 L503 610 L444 610 L453 686 Z " />
<glyph glyph-name="Y" unicode="Y" horiz-adv-x="603" d="M482 610 L420 610 L429 686 L650 686 L641 610 L591 610 L366 287 L341 75 L417 75 L409 0 L141 0 L149 75 L227 75 L252 284 L111 610 L61 610 L70 686 L287 686 L278 610 L218 610 L316 364 L320 364 L482 610 Z " />
<glyph glyph-name="Z" unicode="Z" horiz-adv-x="548" d="M139 76 L429 76 L445 195 L524 195 L500 0 L-3 0 L6 75 L425 611 L174 611 L160 504 L82 504 L105 686 L567 686 L559 613 L139 76 Z " />
<glyph glyph-name="bracketleft" unicode="&#x5b;" horiz-adv-x="274" d="M10 -159 L116 697 L299 697 Q297 681 295 665 Q293 649 291 633 L198 633 L108 -94 L201 -94 Q199 -111 197.5 -126.5 Q196 -142 193 -159 L10 -159 Z " />
<glyph glyph-name="backslash" unicode="&#x5c;" horiz-adv-x="339" d="M72 703 L142 703 L302 -30 L231 -30 L72 703 Z " />
<glyph glyph-name="bracketright" unicode="&#x5d;" horiz-adv-x="274" d="M-10 -159 L-2 -94 L89 -94 Q112 87 134 268.5 Q156 450 179 633 L86 633 L93 697 L277 697 L172 -159 L-10 -159 Z " />
<glyph glyph-name="asciicircum" unicode="&#x5e;" horiz-adv-x="448" d="M371 371 L272 601 L116 371 L40 371 L253 681 L307 681 L442 371 L371 371 Z " />
<glyph glyph-name="underscore" unicode="&#x5f;" horiz-adv-x="485" d="M-42 -138 L-35 -81 L450 -81 L443 -138 L-42 -138 Z " />
<glyph glyph-name="grave" unicode="&#x60;" horiz-adv-x="508" d="M182 688 L250 747 L362 576 L320 541 L182 688 Z " />
<glyph glyph-name="a" unicode="a" horiz-adv-x="571" d="M295 497 Q324 497 353 490 Q382 483 413 470 L437 497 L506 493 Q497 436 488.5 378.5 Q480 321 472.5 267.5 Q465 214 459 165.5 Q453 117 449 77 Q469 79 490 86.5 Q511 94 531 105 Q535 97 542 82 Q549 67 554 59 Q539 44 520.5 31.5 Q502 19 483 9 Q464 -1 446 -6.5 Q428 -12 413 -12 Q379 -12 365.5 6 Q352 24 350 53 Q350 73 352.5 93.5 Q355 114 359 137 L354 137 Q332 93 309 65 Q286 37 262.5 20 Q239 3 215.5 -3.5 Q192 -10 169 -10 Q111 -10 75.5 32 Q40 74 40 160 Q40 229 56 290 Q72 351 104 397 Q136 443 184 470 Q232 497 295 497 Z M211 66 Q229 66 248.5 76 Q268 86 289 110.5 Q310 135 330.5 175.5 Q351 216 371 276 L391 399 Q362 410 338 413.5 Q314 417 297 417 Q252 417 222.5 392.5 Q193 368 175.5 332 Q158 296 151 254 Q144 212 144 176 Q144 120 162.5 93 Q181 66 211 66 Z " />
<glyph glyph-name="b" unicode="b" horiz-adv-x="535" d="M188 358 Q209 399 232.5 426.5 Q256 454 279 470 Q302 486 325 492.5 Q348 499 369 499 Q427 499 463 457 Q499 415 499 328 Q499 260 482.5 199 Q466 138 433 92 Q400 46 350.5 19 Q301 -8 235 -8 Q199 -8 149.5 2 Q100 12 47 37 L41 49 Q51 125 61 198 Q71 271 80 343.5 Q89 416 97 489 Q105 562 113 639 L16 654 L20 704 Q62 715 99.5 720 Q137 725 166 725 Q199 725 210 712 Q221 699 221 676 Q221 670 219 649.5 Q217 629 214 599.5 Q211 570 207 535.5 Q203 501 199 467.5 Q195 434 190.5 405 Q186 376 183 358 L188 358 Z M326 420 Q308 420 288 409.5 Q268 399 247.5 375 Q227 351 206 311 Q185 271 166 211 L149 90 Q177 79 199 75.5 Q221 72 238 72 Q283 72 313 96 Q343 120 361 156 Q379 192 386.5 234 Q394 276 394 312 Q394 368 375 394 Q356 420 326 420 Z " />
<glyph glyph-name="c" unicode="c" horiz-adv-x="462" d="M300 499 Q314 499 329.5 497.5 Q345 496 360 493 Q375 490 387 487 Q399 484 406 481 Q424 473 432.5 463 Q441 453 441 435 Q441 428 438 414 Q435 400 430.5 383.5 Q426 367 420 350 Q414 333 408 319 Q394 320 380.5 320.5 Q367 321 353 323 Q355 345 355.5 367.5 Q356 390 357 413 Q346 417 330 419 Q314 421 297 421 Q258 421 229 401.5 Q200 382 181.5 350 Q163 318 153.5 275.5 Q144 233 144 188 Q144 134 167 104 Q190 74 247 74 Q280 74 309 80.5 Q338 87 379 99 Q384 82 391 66 Q398 50 403 33 Q368 16 319 4.5 Q270 -7 222 -7 Q172 -7 137.5 5.5 Q103 18 81.5 41.5 Q60 65 50 97.5 Q40 130 40 170 Q40 230 52.5 289 Q65 348 95 394.5 Q125 441 175 470 Q225 499 300 499 Z " />
<glyph glyph-name="d" unicode="d" horiz-adv-x="574" d="M301 496 Q324 496 348.5 490.5 Q373 485 399 477 Q404 519 408.5 556 Q413 593 418 638 L319 653 L322 704 Q365 715 402 720 Q439 725 468 725 Q503 725 514 709 Q525 693 525 668 Q525 660 518 606.5 Q511 553 500.5 470 Q490 387 477 284.5 Q464 182 451 77 Q493 83 534 105 L558 61 Q544 46 526 33 Q508 20 488.5 10 Q469 0 449 -6 Q429 -12 410 -12 Q378 -12 365.5 4.5 Q353 21 352 48 Q351 71 353.5 92 Q356 113 361 137 L356 137 Q334 93 310.5 64.5 Q287 36 263 19.5 Q239 3 215.5 -3.5 Q192 -10 169 -10 Q111 -10 75.5 32 Q40 74 40 160 Q40 231 56.5 292.5 Q73 354 106 399 Q139 444 187.5 470 Q236 496 301 496 Z M211 66 Q229 66 249 76 Q269 86 290 110.5 Q311 135 332.5 175.5 Q354 216 374 276 L391 399 Q362 410 338.5 413.5 Q315 417 298 417 Q253 417 223 392.5 Q193 368 175 332 Q157 296 150 254 Q143 212 143 176 Q143 120 161.5 93 Q180 66 211 66 Z " />
<glyph glyph-name="e" unicode="e" horiz-adv-x="481" d="M308 501 Q377 501 414 466 Q451 431 451 374 Q451 289 370.5 246.5 Q290 204 143 196 Q142 190 142 184 Q142 178 142 173 Q142 153 146 134 Q150 115 161 100 Q172 85 191.5 75.5 Q211 66 242 66 Q279 66 316.5 75.5 Q354 85 390 100 L411 40 Q393 29 370 20.5 Q347 12 322 5.5 Q297 -1 270.5 -4.5 Q244 -8 219 -8 Q164 -8 129.5 7.5 Q95 23 75 49 Q55 75 47.5 110.5 Q40 146 40 185 Q40 236 52.5 291.5 Q65 347 95.5 393.5 Q126 440 178 470.5 Q230 501 308 501 Z M293 424 Q229 424 192 378 Q155 332 146 252 Q249 257 302 283 Q355 309 355 363 Q355 390 340.5 407 Q326 424 293 424 Z " />
<glyph glyph-name="f" unicode="f" horiz-adv-x="362" d="M322 731 Q345 731 371.5 727.5 Q398 724 427 716 L410 643 Q389 648 370 650 Q351 652 336 652 Q316 652 298.5 646 Q281 640 267.5 624.5 Q254 609 244.5 581.5 Q235 554 231 512 L227 479 L361 479 Q361 473 360 464 Q359 455 357.5 445 Q356 435 355 426 Q354 417 353 411 L217 411 Q207 330 198.5 251.5 Q190 173 182 92 Q174 31 163 -24.5 Q152 -80 130 -122.5 Q108 -165 70.5 -190 Q33 -215 -27 -215 Q-50 -215 -75.5 -211.5 Q-101 -208 -129 -200 L-111 -132 Q-87 -137 -72 -138 Q-57 -139 -42 -139 Q11 -139 35 -99.5 Q59 -60 71 24 Q80 93 88 158 Q96 223 102 275.5 Q108 328 112 364 Q116 400 117 411 L34 411 L41 465 L125 485 L132 537 Q139 580 152 616 Q165 652 187.5 677.5 Q210 703 243 717 Q276 731 322 731 Z " />
<glyph glyph-name="g" unicode="g" horiz-adv-x="534" d="M303 496 Q345 495 393.5 485.5 Q442 476 492 453 L497 441 L439 -5 Q434 -40 422.5 -78.5 Q411 -117 384 -148.5 Q357 -180 310.5 -200.5 Q264 -221 189 -221 Q142 -221 98.5 -208.5 Q55 -196 29 -183 Q32 -177 36 -166.5 Q40 -156 44 -145 Q48 -134 52 -123.5 Q56 -113 59 -107 Q91 -121 126.5 -129 Q162 -137 193 -137 Q237 -137 264.5 -124 Q292 -111 308 -87.5 Q324 -64 332 -31.5 Q340 1 345 40 Q345 41 347 55.5 Q349 70 351 87 Q353 104 355 118.5 Q357 133 357 133 Q357 134 353 134 Q332 93 308.5 66 Q285 39 262 23 Q239 7 215.5 0.5 Q192 -6 171 -6 Q113 -6 77 35.5 Q41 77 41 164 Q41 232 57.5 292.5 Q74 353 106.5 398 Q139 443 188 469.5 Q237 496 303 496 Z M213 71 Q231 71 251 81.5 Q271 92 292 116 Q313 140 333.5 180.5 Q354 221 373 281 L390 399 Q361 410 338.5 413.5 Q316 417 299 417 Q254 417 224 393.5 Q194 370 176 334.5 Q158 299 151 257.5 Q144 216 144 180 Q144 124 163 97.5 Q182 71 213 71 Z " />
<glyph glyph-name="h" unicode="h" horiz-adv-x="596" d="M404 500 Q461 500 483.5 471 Q506 442 506 392 Q506 381 504 359 Q502 337 498 299.5 Q494 262 488 207.5 Q482 153 473 77 Q513 80 552 101 L574 56 Q538 21 499.5 4 Q461 -13 433 -13 Q395 -13 381.5 3.5 Q368 20 368 50 Q368 57 368.5 63.5 Q369 70 370 78 Q381 168 387 221.5 Q393 275 396 303.5 Q399 332 399.5 343.5 Q400 355 400 361 Q400 386 390 402 Q380 418 357 418 Q340 418 318.5 407 Q297 396 275.5 372 Q254 348 232.5 309 Q211 270 194 214 L164 0 L61 0 Q66 43 73 97 Q80 151 87 209.5 Q94 268 101.5 328.5 Q109 389 115.5 445.5 Q122 502 127.5 551.5 Q133 601 137 638 L41 653 L46 703 Q88 714 125 719 Q162 724 191 724 Q223 724 235.5 713.5 Q248 703 248 680 Q248 673 246 652 Q244 631 241 601 Q238 571 234 536 Q230 501 225.5 467 Q221 433 217.5 403.5 Q214 374 211 355 L215 354 Q237 396 263 424 Q289 452 315 469 Q341 486 364 493 Q387 500 404 500 Z " />
<glyph glyph-name="i" unicode="i" horiz-adv-x="318" d="M184 500 Q216 500 227.5 490 Q239 480 239 459 Q239 456 236 428.5 Q233 401 228 361.5 Q223 322 217 275.5 Q211 229 206 187.5 Q201 146 197 115.5 Q193 85 192 77 Q233 80 272 101 L295 56 Q260 21 221 4 Q182 -13 153 -13 Q115 -13 100.5 5 Q86 23 86 51 Q86 57 86.5 63.5 Q87 70 88 78 L131 413 L46 428 L49 479 Q91 490 125.5 495 Q160 500 184 500 Z M199 691 Q223 691 240 674 Q257 657 257 631 Q257 602 238 581 Q219 560 188 560 Q165 560 148 576.5 Q131 593 131 617 Q131 649 150.5 670 Q170 691 199 691 Z " />
<glyph glyph-name="j" unicode="j" horiz-adv-x="291" d="M179 500 Q211 500 224 490 Q237 480 237 459 Q237 457 234.5 433.5 Q232 410 228.5 374.5 Q225 339 220 296.5 Q215 254 210.5 214 Q206 174 202.5 141 Q199 108 197 92 Q190 30 175.5 -22 Q161 -74 134 -114.5 Q107 -155 65.5 -182.5 Q24 -210 -37 -223 L-54 -159 Q-10 -140 16.5 -115 Q43 -90 58.5 -59 Q74 -28 80.5 8 Q87 44 92 85 L127 413 L41 428 L46 479 Q130 500 179 500 Z M195 691 Q219 691 236 674 Q253 657 253 631 Q253 602 234 581 Q215 560 184 560 Q161 560 144 576.5 Q127 593 127 617 Q127 649 146.5 670 Q166 691 195 691 Z " />
<glyph glyph-name="k" unicode="k" horiz-adv-x="499" d="M414 500 Q444 500 462 482 Q480 464 488 437 L453 401 Q423 417 397 417 Q376 417 357 409 Q338 401 321 387.5 Q304 374 289 356.5 Q274 339 259 321 Q275 287 295.5 247.5 Q316 208 336.5 172 Q357 136 373.5 108 Q390 80 399 71 Q423 78 440 88.5 Q457 99 471 109 L500 72 Q460 21 428 4 Q396 -13 376 -13 Q352 -13 333 1 Q314 15 294 45 Q274 75 251 123.5 Q228 172 197 241 Q187 227 180.5 217.5 Q174 208 168.5 199 Q163 190 158.5 180 Q154 170 148 157 Q142 118 137 80.5 Q132 43 127 0 L25 0 Q48 162 69.5 321.5 Q91 481 109 640 L22 651 L25 701 Q64 712 101.5 719.5 Q139 727 168 727 Q197 727 209.5 713.5 Q222 700 220 677 Q208 580 194 486.5 Q180 393 167 296 L170 296 Q193 333 222 369.5 Q251 406 283 435 Q315 464 348.5 482 Q382 500 414 500 Z " />
<glyph glyph-name="l" unicode="l" horiz-adv-x="300" d="M190 725 Q220 725 233 715.5 Q246 706 246 684 Q246 672 242 631.5 Q238 591 231 535.5 Q224 480 216 414 Q208 348 199.5 284.5 Q191 221 184 166 Q177 111 173 77 Q214 80 253 101 L276 56 Q241 21 202.5 4 Q164 -13 135 -13 Q98 -13 83 3 Q68 19 68 50 Q68 57 68.5 63.5 Q69 70 70 78 L138 639 L42 654 L45 704 Q88 715 126.5 720 Q165 725 190 725 Z " />
<glyph glyph-name="m" unicode="m" horiz-adv-x="862" d="M497 344 Q518 387 543 416.5 Q568 446 592.5 465 Q617 484 639 492.5 Q661 501 678 501 Q731 501 754.5 471.5 Q778 442 778 393 Q778 382 776 360 Q774 338 770 301 Q766 264 760 209.5 Q754 155 745 79 Q766 80 784 85.5 Q802 91 822 102 L844 58 Q809 23 771 5.5 Q733 -12 704 -12 Q667 -12 653.5 4 Q640 20 640 50 Q640 55 640.5 63 Q641 71 642 79 Q652 162 658 214 Q664 266 667 296.5 Q670 327 671 342 Q672 357 672 365 Q672 388 663 403.5 Q654 419 631 419 Q595 419 555.5 369.5 Q516 320 482 211 L456 0 L354 0 L369 121 Q378 196 383 240.5 Q388 285 390.5 310 Q393 335 393 346 Q393 357 393 364 Q393 386 383.5 401.5 Q374 417 351 417 Q316 417 277 369 Q238 321 204 211 L176 0 L73 0 Q82 64 88.5 117.5 Q95 171 101 219.5 Q107 268 112 314.5 Q117 361 123 413 L32 428 L35 478 Q78 490 112 495 Q146 500 175 500 Q207 500 218 489 Q229 478 229 458 Q229 441 225 412 Q221 383 216 346 L221 346 Q244 391 268.5 421 Q293 451 316.5 468.5 Q340 486 361.5 493 Q383 500 400 500 Q452 500 474 471.5 Q496 443 496 397 Q496 388 495.5 375.5 Q495 363 494 345 L497 344 Z " />
<glyph glyph-name="n" unicode="n" horiz-adv-x="601" d="M417 499 Q474 499 495.5 466 Q517 433 517 380 Q517 359 508.5 284.5 Q500 210 485 77 Q505 78 523 83.5 Q541 89 561 100 Q566 93 573 78 Q580 63 584 55 Q565 37 545 24.5 Q525 12 505.5 4 Q486 -4 468.5 -8 Q451 -12 438 -12 Q403 -12 391.5 3.5 Q380 19 380 48 Q380 53 381 66 Q382 79 383 87 Q395 205 403 275.5 Q411 346 411 363 Q411 386 401 401.5 Q391 417 368 417 Q350 417 328.5 405.5 Q307 394 285 369 Q263 344 242 304.5 Q221 265 204 210 L175 0 L73 0 Q81 64 88 117 Q95 170 101 218.5 Q107 267 112.5 313.5 Q118 360 124 412 L32 427 L35 478 Q78 489 112 494 Q146 499 175 499 Q207 499 217.5 488.5 Q228 478 228 454 Q228 435 224.5 407 Q221 379 216 346 L220 346 Q243 391 270.5 420.5 Q298 450 325 467.5 Q352 485 376 492 Q400 499 417 499 Z " />
<glyph glyph-name="o" unicode="o" horiz-adv-x="521" d="M296 499 Q349 499 386 483 Q423 467 446.5 439 Q470 411 480.5 374 Q491 337 491 295 Q491 244 478 190.5 Q465 137 435 92.5 Q405 48 355.5 20 Q306 -8 233 -8 Q179 -8 142.5 7 Q106 22 83 48.5 Q60 75 50 111 Q40 147 40 189 Q40 244 54.5 299.5 Q69 355 99.5 399.5 Q130 444 178.5 471.5 Q227 499 296 499 Z M291 420 Q246 420 217.5 395 Q189 370 172.5 333.5 Q156 297 150 255 Q144 213 144 180 Q144 157 148.5 137 Q153 117 164.5 101 Q176 85 195 76 Q214 67 243 67 Q286 67 313.5 90.5 Q341 114 357 149 Q373 184 379 224 Q385 264 385 296 Q385 321 380.5 343.5 Q376 366 365.5 383 Q355 400 337 410 Q319 420 291 420 Z " />
<glyph glyph-name="p" unicode="p" horiz-adv-x="561" d="M47 -135 Q62 -2 79.5 140 Q97 282 112 412 L19 426 L23 477 Q59 488 96 493.5 Q133 499 165 499 Q200 499 209 485.5 Q218 472 216 447 L203 344 L208 344 Q230 387 253.5 416.5 Q277 446 301.5 463 Q326 480 350 487.5 Q374 495 396 495 Q453 495 488 452.5 Q523 410 523 322 Q523 252 506.5 191.5 Q490 131 458 86 Q426 41 377.5 15.5 Q329 -10 265 -10 Q242 -10 217.5 -5 Q193 0 167 7 L148 -135 L234 -135 L226 -208 L-29 -208 L-20 -135 L47 -135 Z M353 413 Q335 413 314.5 403 Q294 393 273 369 Q252 345 230.5 304.5 Q209 264 190 204 L174 86 Q202 75 226 71.5 Q250 68 267 68 Q312 68 341.5 91.5 Q371 115 388.5 150.5 Q406 186 413 226.5 Q420 267 420 302 Q420 359 401.5 386 Q383 413 353 413 Z " />
<glyph glyph-name="q" unicode="q" horiz-adv-x="541" d="M245 -136 L324 -136 Q335 -32 343 33.5 Q351 99 357 130 L353 131 Q331 90 308 62.5 Q285 35 261.5 19 Q238 3 214.5 -3.5 Q191 -10 170 -10 Q112 -10 76 31.5 Q40 73 40 160 Q40 228 56.5 289.5 Q73 351 106 397 Q139 443 188.5 470 Q238 497 304 497 Q340 497 390.5 487.5 Q441 478 493 453 L498 442 Q496 429 490.5 384.5 Q485 340 478 279.5 Q471 219 462.5 151 Q454 83 447 23 Q440 -37 435 -81 Q430 -125 429 -136 L499 -136 L491 -210 L237 -210 L245 -136 Z M212 67 Q230 67 250 77.5 Q270 88 291 112 Q312 136 333 176.5 Q354 217 373 277 L390 399 Q361 410 338.5 413.5 Q316 417 299 417 Q254 417 224 393 Q194 369 176.5 333 Q159 297 151.5 255 Q144 213 144 177 Q144 120 163 93.5 Q182 67 212 67 Z " />
<glyph glyph-name="r" unicode="r" horiz-adv-x="441" d="M177 499 Q209 499 220 488.5 Q231 478 231 453 Q231 436 227.5 409.5 Q224 383 219 350 L222 350 Q240 399 259.5 428.5 Q279 458 298.5 474 Q318 490 336.5 495 Q355 500 372 500 Q407 500 425 480 Q443 460 445 433 L400 381 Q383 390 368.5 392.5 Q354 395 342 395 Q302 395 264 343 Q226 291 200 185 Q192 128 187 85 Q182 42 176 0 L75 0 Q89 115 102.5 219 Q116 323 127 412 L43 427 Q43 435 44 452.5 Q45 470 46 478 Q89 489 118.5 494 Q148 499 177 499 Z " />
<glyph glyph-name="s" unicode="s" horiz-adv-x="455" d="M192 -8 Q110 -8 68.5 11.5 Q27 31 27 65 Q27 85 37.5 115 Q48 145 64 171 L115 169 L111 73 Q126 66 147 62.5 Q168 59 189 59 Q211 59 232.5 63.5 Q254 68 270.5 77.5 Q287 87 297 101.5 Q307 116 307 137 Q307 154 298 166 Q289 178 274.5 188 Q260 198 241.5 206 Q223 214 203 222 Q173 235 147 248.5 Q121 262 101.5 277.5 Q82 293 71 312.5 Q60 332 60 356 Q60 392 76 419.5 Q92 447 120 465 Q148 483 184.5 492 Q221 501 262 501 Q289 501 315.5 496.5 Q342 492 364 483.5 Q386 475 399.5 462.5 Q413 450 413 433 Q413 424 409.5 410 Q406 396 400.5 381 Q395 366 388.5 351 Q382 336 375 324 L326 327 L330 418 Q304 432 263 432 Q245 432 227.5 428.5 Q210 425 196.5 417 Q183 409 175 395.5 Q167 382 167 363 Q167 349 177 337 Q187 325 202.5 315.5 Q218 306 237 297.5 Q256 289 273 282 Q299 271 323.5 258.5 Q348 246 367.5 229.5 Q387 213 399.5 191.5 Q412 170 412 142 Q412 105 395 77 Q378 49 348.5 30 Q319 11 278.5 1.5 Q238 -8 192 -8 Z " />
<glyph glyph-name="t" unicode="t" horiz-adv-x="381" d="M183 156 Q182 150 181.5 144.5 Q181 139 181 134 Q181 107 194.5 95 Q208 83 238 83 Q252 83 276 86 Q300 89 327 97 L344 20 Q328 13 308 8 Q288 3 268 0 Q248 -3 231 -4.5 Q214 -6 204 -6 Q174 -6 150 -1 Q126 4 109.5 16.5 Q93 29 84.5 50 Q76 71 76 103 Q76 121 79 144 L113 420 L43 420 L49 476 L127 495 L171 608 L239 617 L224 489 L366 489 L358 420 L217 420 L183 156 Z " />
<glyph glyph-name="u" unicode="u" horiz-adv-x="598" d="M179 499 Q211 499 221.5 487 Q232 475 232 449 Q232 444 232 439.5 Q232 435 231 430 Q229 412 226 386 Q223 360 219.5 329.5 Q216 299 212 267.5 Q208 236 205 208 Q202 180 200 158.5 Q198 137 198 127 Q198 101 208 87 Q218 73 241 73 Q259 73 280 84 Q301 95 323 120 Q345 145 366 184.5 Q387 224 404 281 L433 489 L531 489 Q517 389 503.5 281.5 Q490 174 479 76 Q501 78 519.5 84 Q538 90 557 99 L580 55 Q544 20 504.5 4.5 Q465 -11 439 -11 Q421 -11 409.5 -5.5 Q398 0 392 9 Q386 18 384 29.5 Q382 41 382 54 Q382 72 384.5 95.5 Q387 119 389 136 L384 136 Q361 93 335.5 65 Q310 37 284 20.5 Q258 4 234 -2.5 Q210 -9 192 -9 Q139 -9 115 17 Q91 43 91 91 Q91 99 91 108.5 Q91 118 93 132 Q97 173 104.5 239.5 Q112 306 125 414 L33 428 L37 477 Q79 489 114.5 494 Q150 499 179 499 Z " />
<glyph glyph-name="v" unicode="v" horiz-adv-x="528" d="M126 501 Q146 501 157.5 493.5 Q169 486 175.5 473.5 Q182 461 185 444 Q188 427 190 408 L226 92 L231 92 Q260 125 288.5 165 Q317 205 340 247.5 Q363 290 378.5 333.5 Q394 377 397 416 L327 400 L310 445 Q342 470 377 485.5 Q412 501 439 501 Q500 501 500 439 Q499 383 473.5 319 Q448 255 409 193.5 Q370 132 324.5 80 Q279 28 239 -4 L142 -4 L90 410 L21 392 L2 436 Q39 469 71 485 Q103 501 126 501 Z " />
<glyph glyph-name="w" unicode="w" horiz-adv-x="755" d="M369 198 Q368 198 368 198.5 Q368 199 367 199 Q352 167 332.5 136 Q313 105 293 78 Q273 51 254.5 29.5 Q236 8 223 -4 L128 -4 Q118 99 110 203.5 Q102 308 90 410 L21 391 L5 434 Q44 467 79.5 483.5 Q115 500 142 500 Q165 500 178 480.5 Q191 461 194 413 L215 102 L220 102 Q239 125 259.5 154 Q280 183 298 214.5 Q316 246 331.5 277 Q347 308 358 334 Q356 356 355 372 Q354 388 352 411 L286 392 L268 436 Q305 467 339 484 Q373 501 399 501 Q414 500 423.5 494.5 Q433 489 438.5 478 Q444 467 446 449 Q448 431 450 404 Q455 326 459.5 248 Q464 170 469 92 L474 92 Q502 125 528.5 165 Q555 205 576 247.5 Q597 290 610.5 333 Q624 376 627 416 L559 399 L545 444 Q580 470 612.5 485.5 Q645 501 674 502 Q684 502 693.5 499.5 Q703 497 710.5 489.5 Q718 482 722.5 468.5 Q727 455 727 435 Q727 382 703.5 318.5 Q680 255 643.5 193.5 Q607 132 564 79.5 Q521 27 482 -4 L385 -4 Q381 45 377.5 96 Q374 147 369 198 Z " />
<glyph glyph-name="x" unicode="x" horiz-adv-x="509" d="M85 -16 Q83 -16 80.5 -16.5 Q78 -17 75 -17 Q61 -3 46.5 11.5 Q32 26 17 41 Q17 44 17.5 47 Q18 50 18 53 Q63 101 107 148.5 Q151 196 197 244 Q179 285 161.5 325 Q144 365 127 406 L49 384 L28 427 Q65 461 98 478 Q131 495 154 495 Q171 495 188 489 Q205 483 219 455 Q235 421 247 388 Q259 355 276 319 Q308 363 340 407 Q372 451 404 495 L415 495 L476 438 L476 427 L308 251 Q328 208 345.5 166.5 Q363 125 382 81 Q405 83 424.5 91.5 Q444 100 464 111 Q472 100 480 90.5 Q488 81 497 70 Q477 45 457.5 29 Q438 13 419 3.5 Q400 -6 384 -9.5 Q368 -13 356 -13 Q324 -13 309 5.5 Q294 24 279 59 L229 176 Q194 127 158 79 Q122 31 85 -16 Z " />
<glyph glyph-name="y" unicode="y" horiz-adv-x="532" d="M442 500 Q472 500 485.5 480.5 Q499 461 499 417 Q499 359 479 288 Q459 217 423 145 Q387 73 337.5 5.5 Q288 -62 229.5 -114.5 Q171 -167 105 -199 Q39 -231 -30 -231 Q-53 -231 -73 -225 Q-93 -219 -106.5 -207 Q-120 -195 -125.5 -176.5 Q-131 -158 -124 -133 L-81 -107 Q-66 -120 -53.5 -127 Q-41 -134 -29 -137.5 Q-17 -141 -6 -141.5 Q5 -142 17 -142 Q55 -142 103.5 -119 Q152 -96 201 -42 Q191 11 178.5 74 Q166 137 153 199 Q140 261 128 315.5 Q116 370 106 406 L32 388 L16 432 Q54 466 88 481 Q122 496 142 496 Q165 496 177.5 488.5 Q190 481 196 452 Q202 423 212.5 370.5 Q223 318 234 258.5 Q245 199 255.5 140 Q266 81 273 38 Q303 75 327 124 Q351 173 368 224.5 Q385 276 394 325 Q403 374 403 412 L332 395 L316 443 Q350 472 383 486 Q416 500 442 500 Z " />
<glyph glyph-name="z" unicode="z" horiz-adv-x="481" d="M12 58 L326 419 L145 419 L107 320 L56 325 L67 444 Q68 459 74 468 Q80 477 88 481.5 Q96 486 104.5 487.5 Q113 489 120 489 L447 489 L458 430 L143 69 L361 69 L404 173 L450 170 L435 43 Q433 29 427 20.5 Q421 12 413 7.5 Q405 3 396.5 1.5 Q388 0 381 0 L21 0 L12 58 Z " />
<glyph glyph-name="braceleft" unicode="&#x7b;" horiz-adv-x="274" d="M152 -168 Q119 -168 100 -158 Q81 -148 72 -130.5 Q63 -113 62.5 -89.5 Q62 -66 65 -39 L89 162 Q94 200 83.5 228.5 Q73 257 36 262 L43 319 Q81 326 99 354 Q117 382 122 425 L138 558 Q141 581 146.5 606.5 Q152 632 164.5 653 Q177 674 198 688 Q219 702 253 702 L323 702 L315 638 L291 638 Q262 638 248 619 Q234 600 231 572 L212 418 Q209 396 204.5 375.5 Q200 355 191.5 338.5 Q183 322 169 310 Q155 298 134 293 L134 292 Q154 281 165 267.5 Q176 254 180 236.5 Q184 219 183 196 Q182 173 178 145 L156 -39 Q152 -65 159 -84.5 Q166 -104 197 -104 L224 -104 L216 -168 L152 -168 Z " />
<glyph glyph-name="bar" unicode="&#x7c;" horiz-adv-x="264" d="M98 -142 L98 703 L169 703 L169 -142 L98 -142 Z " />
<glyph glyph-name="braceright" unicode="&#x7d;" horiz-adv-x="282" d="M146 702 Q179 702 198 692 Q217 682 226 664.5 Q235 647 235.5 623.5 Q236 600 233 573 L211 411 Q206 373 216.5 344.5 Q227 316 264 311 L257 254 Q219 247 201 219 Q183 191 178 148 L160 -24 Q157 -47 151.5 -72.5 Q146 -98 133.5 -119 Q121 -140 100 -154 Q79 -168 45 -168 L-25 -168 L-17 -104 L7 -104 Q36 -104 50 -85 Q64 -66 67 -38 L88 155 Q91 177 95.5 197.5 Q100 218 108.5 234.5 Q117 251 131 263 Q145 275 166 280 L166 281 Q146 291 135 305 Q124 319 120 336.5 Q116 354 117 376.5 Q118 399 122 428 L142 573 Q146 599 139 618.5 Q132 638 101 638 L74 638 L82 702 L146 702 Z " />
<glyph glyph-name="asciitilde" unicode="&#x7e;" horiz-adv-x="558" d="M389 240 Q359 240 331.5 247.5 Q304 255 279 263.5 Q254 272 231.5 279.5 Q209 287 189 287 L114 240 L79 272 Q103 318 136 342 Q169 366 207 366 Q231 366 258 359 Q285 352 312 343 Q339 334 364.5 327 Q390 320 411 320 L482 368 L517 337 Q494 292 461.5 266 Q429 240 389 240 Z " />
<glyph glyph-name="endash" unicode="&#x2013;" horiz-adv-x="485" d="M35 221 L44 292 L464 292 L455 221 L35 221 Z " />
<glyph glyph-name="emdash" unicode="&#x2014;" horiz-adv-x="970" d="M41 221 L50 292 L937 292 L929 221 L41 221 Z " />
<glyph glyph-name="quoteleft" unicode="&#x2018;" horiz-adv-x="226" d="M150 475 Q121 475 106.5 493.5 Q92 512 92 539 Q92 564 102.5 590.5 Q113 617 131 641.5 Q149 666 173 686 Q197 706 223 718 L244 684 Q221 664 205.5 643 Q190 622 184 593 Q219 581 219 541 Q219 515 198.5 495 Q178 475 150 475 Z " />
<glyph glyph-name="quoteright" unicode="&#x2019;" horiz-adv-x="226" d="M182 718 Q209 718 224 700 Q239 682 239 656 Q239 631 229 604.5 Q219 578 201 553.5 Q183 529 159 508.5 Q135 488 108 475 L87 510 Q135 547 147 600 Q114 612 114 648 Q114 675 132 696.5 Q150 718 182 718 Z " />
<glyph glyph-name="quotedblleft" unicode="&#x201c;" horiz-adv-x="365" d="M304 475 Q275 475 261 493.5 Q247 512 247 539 Q247 564 257.5 590.5 Q268 617 286 641 Q304 665 327.5 685.5 Q351 706 377 718 L399 684 Q375 664 360 643 Q345 622 338 593 Q372 583 372 543 Q372 517 353 496 Q334 475 304 475 Z M155 475 Q127 475 112.5 493.5 Q98 512 98 539 Q98 564 108.5 590.5 Q119 617 137 641.5 Q155 666 179 686 Q203 706 229 718 L250 684 Q226 664 211 643 Q196 622 190 593 Q225 581 225 541 Q225 515 204.5 495 Q184 475 155 475 Z " />
<glyph glyph-name="quotedblright" unicode="&#x201d;" horiz-adv-x="365" d="M326 718 Q355 718 369.5 699.5 Q384 681 384 655 Q384 630 373.5 603.5 Q363 577 345.5 553 Q328 529 304.5 508.5 Q281 488 254 475 L233 510 Q256 529 271 550.5 Q286 572 292 600 Q259 612 259 648 Q259 675 277 696.5 Q295 718 326 718 Z M181 718 Q209 718 224 700 Q239 682 239 656 Q239 631 228.5 604.5 Q218 578 200.5 553.5 Q183 529 159 508.5 Q135 488 108 475 L87 510 Q135 547 146 600 Q113 612 113 648 Q113 675 131 696.5 Q149 718 181 718 Z " />
<glyph glyph-name="bullet" unicode="&#x2022;" horiz-adv-x="344" d="M293 282 Q293 256 283 233.5 Q273 211 256 193.5 Q239 176 216.5 166 Q194 156 169 156 Q146 156 127 164.5 Q108 173 93.5 188 Q79 203 71 222.5 Q63 242 63 265 Q63 290 73.5 313 Q84 336 101 353 Q118 370 140.5 380 Q163 390 187 390 Q209 390 228.5 381.5 Q248 373 262.5 358.5 Q277 344 285 324 Q293 304 293 282 Z " />
<glyph glyph-name="quotesinglbase" unicode="&#x201a;" horiz-adv-x="226" d="M97 117 Q126 117 141 96.5 Q156 76 154 46 Q152 22 141 -2 Q130 -26 112.5 -48 Q95 -70 72.5 -88 Q50 -106 26 -118 L5 -84 Q28 -65 42.5 -46.5 Q57 -28 64 0 Q46 5 37 18.5 Q28 32 29 52 Q31 78 49.5 97.5 Q68 117 97 117 Z " />
<glyph glyph-name="quotedblbase" unicode="&#x201e;" horiz-adv-x="373" d="M129 117 Q158 117 173 96.5 Q188 76 186 46 Q184 22 173 -2 Q162 -26 144.5 -48 Q127 -70 104.5 -88 Q82 -106 58 -118 L37 -84 Q60 -65 74.5 -46.5 Q89 -28 96 0 Q78 5 69 18.5 Q60 32 62 52 Q63 78 82 97.5 Q101 117 129 117 Z M278 117 Q307 117 322 96.5 Q337 76 335 46 Q333 22 321.5 -2 Q310 -26 292.5 -48 Q275 -70 253 -88 Q231 -106 207 -118 L185 -84 Q209 -65 223.5 -46.5 Q238 -28 244 0 Q227 5 217.5 18.5 Q208 32 210 52 Q212 78 231 97.5 Q250 117 278 117 Z " />
<glyph glyph-name="alpha" unicode="&#x3b1;" horiz-adv-x="571" d="M295 497 Q324 497 353 490 Q382 483 413 470 L437 497 L506 493 Q497 436 488.5 378.5 Q480 321 472.5 267.5 Q465 214 459 165.5 Q453 117 449 77 Q469 79 490 86.5 Q511 94 531 105 Q535 97 542 82 Q549 67 554 59 Q539 44 520.5 31.5 Q502 19 483 9 Q464 -1 446 -6.5 Q428 -12 413 -12 Q379 -12 365.5 6 Q352 24 350 53 Q350 73 352.5 93.5 Q355 114 359 137 L354 137 Q332 93 309 65 Q286 37 262.5 20 Q239 3 215.5 -3.5 Q192 -10 169 -10 Q111 -10 75.5 32 Q40 74 40 160 Q40 229 56 290 Q72 351 104 397 Q136 443 184 470 Q232 497 295 497 Z M211 66 Q229 66 248.5 76 Q268 86 289 110.5 Q310 135 330.5 175.5 Q351 216 371 276 L391 399 Q362 410 338 413.5 Q314 417 297 417 Q252 417 222.5 392.5 Q193 368 175.5 332 Q158 296 151 254 Q144 212 144 176 Q144 120 162.5 93 Q181 66 211 66 Z " />
<glyph glyph-name="beta" unicode="&#x3b2;" horiz-adv-x="520" d="M-3 -207 Q16 -59 37.5 99 Q59 257 82 440 L94 530 Q101 576 120.5 611 Q140 646 168.5 669 Q197 692 232.5 704 Q268 716 307 716 Q398 716 441 675 Q484 634 484 562 Q484 536 475.5 511 Q467 486 453.5 464.5 Q440 443 423 427 Q406 411 388 403 Q441 384 462 345.5 Q483 307 483 261 Q483 199 464.5 149 Q446 99 413.5 63.5 Q381 28 338.5 8.5 Q296 -11 248 -11 Q212 -11 179 -4.5 Q146 2 128 12 L99 -207 L-3 -207 Z M226 361 L233 430 L278 430 Q296 430 315.5 437.5 Q335 445 350.5 460.5 Q366 476 376 500 Q386 524 386 557 Q386 589 366 611 Q346 633 311 633 Q291 633 271.5 627.5 Q252 622 236 608.5 Q220 595 208 573 Q196 551 191 517 L138 89 Q166 75 194.5 71 Q223 67 240 67 Q301 67 340.5 117 Q380 167 380 258 Q380 309 353.5 335 Q327 361 270 361 L226 361 Z " />
<glyph glyph-name="gamma" unicode="&#x3b3;" horiz-adv-x="540" d="M236 160 Q256 227 281 288.5 Q306 350 336 397 Q366 444 400.5 472 Q435 500 473 500 Q497 500 517 488.5 Q537 477 546 456 L522 409 Q514 414 507.5 415 Q501 416 496 416 Q460 416 425 376 Q390 336 358 274 Q326 212 299 137.5 Q272 63 252 -6 Q250 -63 248.5 -112.5 Q247 -162 239 -212 L228 -226 Q192 -228 164.5 -220 Q137 -212 117 -199 Q125 -149 137 -102.5 Q149 -56 166 1 L99 411 L30 393 L14 436 Q52 469 87.5 485.5 Q123 502 146 502 Q174 502 187 488 Q200 474 203 436 L232 161 L236 160 Z " />
<glyph glyph-name="delta" unicode="&#x3b4;" horiz-adv-x="519" d="M290 409 Q247 403 218.5 379 Q190 355 173.5 321.5 Q157 288 150.5 250 Q144 212 144 179 Q144 157 148.5 137 Q153 117 164.5 101.5 Q176 86 195 77 Q214 68 243 68 Q284 68 311 87.5 Q338 107 353.5 137 Q369 167 375.5 202 Q382 237 382 269 Q382 300 374.5 323 Q367 346 354 362.5 Q341 379 324.5 390 Q308 401 290 409 Z M329 709 Q356 709 382.5 705 Q409 701 429.5 692.5 Q450 684 463 671.5 Q476 659 476 642 Q476 623 467 591 Q458 559 445 530 L390 532 L394 624 Q381 630 364 633.5 Q347 637 332 637 Q315 637 298 634 Q281 631 267 623 Q253 615 244 601.5 Q235 588 235 568 Q235 555 243 544 Q251 533 262.5 524 Q274 515 288 508 Q302 501 314 496 Q353 478 384.5 458 Q416 438 439 412 Q462 386 474.5 352 Q487 318 487 270 Q487 228 474.5 179.5 Q462 131 432.5 89.5 Q403 48 355.5 20 Q308 -8 238 -8 Q185 -8 147.5 7 Q110 22 86 48 Q62 74 51 110 Q40 146 40 187 Q40 230 50 272.5 Q60 315 80.5 351.5 Q101 388 132 416 Q163 444 206 457 Q171 479 150.5 503.5 Q130 528 130 562 Q130 599 146 627 Q162 655 189.5 673 Q217 691 253 700 Q289 709 329 709 Z " />
<glyph glyph-name="epsilon" unicode="&#x3b5;" horiz-adv-x="453" d="M271 500 Q309 501 341.5 495.5 Q374 490 400 480 Q423 471 430 460 Q437 449 435 433 Q435 428 432.5 417 Q430 406 426.5 392 Q423 378 417.5 362 Q412 346 406 332 L350 335 L351 418 Q310 429 275 429 Q233 429 202.5 409 Q172 389 172 348 Q172 330 180.5 319 Q189 308 202.5 302 Q216 296 232.5 294.5 Q249 293 264 293 L314 293 L309 232 L255 232 Q239 232 219.5 228 Q200 224 183 213.5 Q166 203 154.5 185.5 Q143 168 143 141 Q143 101 173.5 84.5 Q204 68 253 68 Q288 68 323 74.5 Q358 81 396 95 L417 36 Q399 26 376 18 Q353 10 327.5 4 Q302 -2 276 -5 Q250 -8 226 -8 Q184 -8 149.5 -0.5 Q115 7 90 23 Q65 39 51 63.5 Q37 88 37 122 Q37 150 45.5 172.5 Q54 195 68 212 Q82 229 100 240.5 Q118 252 138 258 L140 261 Q110 272 89.5 295 Q69 318 69 353 Q69 422 124.5 461 Q180 500 271 500 Z " />
<glyph glyph-name="zeta" unicode="&#x3b6;" horiz-adv-x="401" d="M162 553 L105 559 L115 666 Q116 681 122 689.5 Q128 698 135.5 703 Q143 708 152 709.5 Q161 711 168 711 L481 711 L494 645 Q413 583 348.5 519 Q284 455 239 396 Q194 337 169.5 285.5 Q145 234 144 197 Q143 177 151 162 Q159 147 178 133 Q197 119 227 105 Q257 91 301 73 Q345 56 372.5 36.5 Q400 17 399 -15 Q398 -34 387.5 -54 Q377 -74 360.5 -94 Q344 -114 322.5 -134.5 Q301 -155 279 -175 L235 -131 Q255 -108 267 -92.5 Q279 -77 285.5 -67 Q292 -57 294 -51.5 Q296 -46 296 -42 Q297 -31 285 -22.5 Q273 -14 252 -6 Q194 16 153 34 Q112 52 86 72 Q60 92 48.5 117.5 Q37 143 38 181 Q38 215 58.5 265.5 Q79 316 120 376 Q161 436 224 502.5 Q287 569 373 637 L373 640 L194 640 L162 553 Z " />
<glyph glyph-name="eta" unicode="&#x3b7;" horiz-adv-x="571" d="M417 499 Q474 499 495.5 469 Q517 439 517 380 Q517 369 512.5 325.5 Q508 282 501 220.5 Q494 159 485.5 87 Q477 15 470 -51 Q507 -48 547 -28 L569 -72 Q531 -107 490.5 -123 Q450 -139 424 -139 Q365 -139 365 -80 Q365 -75 365 -67 Q365 -59 366 -51 Q373 29 381 100.5 Q389 172 396 227.5 Q403 283 407 319 Q411 355 411 363 Q411 386 401 401.5 Q391 417 368 417 Q350 417 328.5 405.5 Q307 394 285 369 Q263 344 242 304.5 Q221 265 204 210 L175 0 L73 0 Q81 64 88 117 Q95 170 101 218.5 Q107 267 112.5 313.5 Q118 360 124 412 L32 427 L35 478 Q78 489 112 494 Q146 499 175 499 Q207 499 217.5 488.5 Q228 478 228 454 Q228 435 224.5 407 Q221 379 216 346 L220 346 Q243 391 270.5 420.5 Q298 450 325 467.5 Q352 485 376 492 Q400 499 417 499 Z " />
<glyph glyph-name="theta" unicode="&#x3b8;" horiz-adv-x="529" d="M319 718 Q373 718 408.5 698.5 Q444 679 465.5 645.5 Q487 612 495.5 566.5 Q504 521 504 470 Q504 415 498.5 358 Q493 301 480.5 248 Q468 195 447 148.5 Q426 102 395.5 67.5 Q365 33 324 13 Q283 -7 230 -7 Q174 -7 137.5 11 Q101 29 79.5 61 Q58 93 49 136.5 Q40 180 40 232 Q40 285 45.5 341.5 Q51 398 63.5 452 Q76 506 96.5 554 Q117 602 148 638.5 Q179 675 221.5 696.5 Q264 718 319 718 Z M148 339 Q143 299 141 263.5 Q139 228 139 201 Q139 135 160.5 102.5 Q182 70 239 70 Q276 70 302.5 92 Q329 114 347 151 Q365 188 375.5 236.5 Q386 285 392 339 L148 339 Z M399 406 Q401 429 402.5 450.5 Q404 472 404 492 Q404 522 399.5 549 Q395 576 384.5 596 Q374 616 355.5 627.5 Q337 639 310 639 Q272 639 246 620 Q220 601 202.5 568.5 Q185 536 174.5 494 Q164 452 157 406 L399 406 Z " />
<glyph glyph-name="upsilon" unicode="&#x3c5;" horiz-adv-x="575" d="M478 507 Q504 507 520.5 495 Q537 483 537 448 Q537 407 529 357.5 Q521 308 504.5 257.5 Q488 207 462 159 Q436 111 400.5 73.5 Q365 36 319.5 13.5 Q274 -9 217 -9 Q180 -9 156.5 0.5 Q133 10 119.5 25.5 Q106 41 100.5 61 Q95 81 95 102 Q95 113 101.5 194 Q108 275 124 413 Q101 416 77.5 419.5 Q54 423 31 427 L35 477 Q78 489 113.5 494 Q149 499 178 499 Q206 499 218.5 490 Q231 481 231 458 Q231 451 228.5 424.5 Q226 398 222 362.5 Q218 327 213.5 287 Q209 247 205 212.5 Q201 178 198.5 153 Q196 128 196 122 Q196 96 206.5 82 Q217 68 244 68 Q281 68 314 101.5 Q347 135 372.5 186.5 Q398 238 413.5 300.5 Q429 363 432 420 L366 405 L354 448 Q386 478 420.5 492.5 Q455 507 478 507 Z " />
<glyph glyph-name="omega" unicode="&#x3c9;" horiz-adv-x="739" d="M431 335 L411 164 Q410 159 410 149 Q410 117 425.5 94.5 Q441 72 477 72 Q535 72 569 130 Q603 188 603 292 Q603 335 587 371 Q571 407 529 431 L562 497 Q601 485 628 464 Q655 443 671.5 416 Q688 389 695 356.5 Q702 324 702 290 Q702 235 689 181.5 Q676 128 648.5 86 Q621 44 578 18.5 Q535 -7 475 -7 Q429 -7 396.5 12.5 Q364 32 351 68 L348 68 Q324 31 286 12 Q248 -7 204 -7 Q154 -7 122 8 Q90 23 71.5 49.5 Q53 76 45.5 111 Q38 146 38 186 Q38 238 49 288.5 Q60 339 84.5 381 Q109 423 148.5 453.5 Q188 484 245 498 L265 431 Q228 416 204 389 Q180 362 165.5 328 Q151 294 145 256.5 Q139 219 139 182 Q139 159 143 139 Q147 119 157 104 Q167 89 183.5 80.5 Q200 72 224 72 Q269 72 291.5 100 Q314 128 319 164 L340 335 L431 335 Z " />
<glyph glyph-name="rho" unicode="&#x3c1;" horiz-adv-x="532" d="M240 70 Q266 70 292.5 80 Q319 90 340.5 115 Q362 140 375.5 182.5 Q389 225 389 289 Q389 328 379 353 Q369 378 354 393 Q339 408 321 413.5 Q303 419 287 419 Q255 419 232.5 407 Q210 395 195 374.5 Q180 354 171.5 327 Q163 300 159 270 L135 92 Q153 82 182 76 Q211 70 240 70 Z M49 215 Q57 278 72 330 Q87 382 114 419.5 Q141 457 182.5 478 Q224 499 285 499 Q387 499 440.5 442.5 Q494 386 494 289 Q494 222 477.5 167 Q461 112 430 72.5 Q399 33 353.5 11.5 Q308 -10 251 -10 Q238 -10 221.5 -8.5 Q205 -7 187.5 -4.5 Q170 -2 154 2.5 Q138 7 126 13 L99 -207 L-3 -207 L49 215 Z " />
<glyph glyph-name="xi" unicode="&#x3be;" horiz-adv-x="443" d="M331 719 Q345 719 364.5 717.5 Q384 716 405 712.5 Q426 709 446.5 703.5 Q467 698 484 690 Q479 672 473 654 Q467 636 461 617 Q421 631 386 635 Q351 639 326 639 Q259 639 227 605 Q195 571 195 520 Q195 475 227.5 452 Q260 429 316 429 L407 429 L398 354 L304 354 Q262 354 231 340.5 Q200 327 179.5 305.5 Q159 284 149 256 Q139 228 139 199 Q139 177 147 159.5 Q155 142 172 127 Q189 112 216 98 Q243 84 281 69 Q323 52 350.5 39 Q378 26 394 14 Q410 2 416 -10 Q422 -22 422 -37 Q422 -77 389 -118 Q356 -159 305 -199 L256 -157 Q289 -120 303.5 -99 Q318 -78 318 -67 Q318 -62 314.5 -56 Q311 -50 300.5 -42.5 Q290 -35 272 -26.5 Q254 -18 226 -7 Q190 7 156 23.5 Q122 40 95.5 62 Q69 84 52.5 113 Q36 142 36 182 Q36 253 72 310 Q108 367 177 394 Q151 404 134 421 Q117 438 107.5 457 Q98 476 94 494.5 Q90 513 90 526 Q90 570 107 606 Q124 642 155.5 667 Q187 692 231.5 705.5 Q276 719 331 719 Z " />
<glyph glyph-name="nu" unicode="&#x3bd;" horiz-adv-x="528" d="M126 501 Q146 501 157.5 493.5 Q169 486 175.5 473.5 Q182 461 185 444 Q188 427 190 408 L226 92 L231 92 Q260 125 288.5 165 Q317 205 340 247.5 Q363 290 378.5 333.5 Q394 377 397 416 L327 400 L310 445 Q342 470 377 485.5 Q412 501 439 501 Q500 501 500 439 Q499 383 473.5 319 Q448 255 409 193.5 Q370 132 324.5 80 Q279 28 239 -4 L142 -4 L90 410 L21 392 L2 436 Q39 469 71 485 Q103 501 126 501 Z " />
<glyph glyph-name="omicron" unicode="&#x3bf;" horiz-adv-x="521" d="M296 499 Q349 499 386 483 Q423 467 446.5 439 Q470 411 480.5 374 Q491 337 491 295 Q491 244 478 190.5 Q465 137 435 92.5 Q405 48 355.5 20 Q306 -8 233 -8 Q179 -8 142.5 7 Q106 22 83 48.5 Q60 75 50 111 Q40 147 40 189 Q40 244 54.5 299.5 Q69 355 99.5 399.5 Q130 444 178.5 471.5 Q227 499 296 499 Z M291 420 Q246 420 217.5 395 Q189 370 172.5 333.5 Q156 297 150 255 Q144 213 144 180 Q144 157 148.5 137 Q153 117 164.5 101 Q176 85 195 76 Q214 67 243 67 Q286 67 313.5 90.5 Q341 114 357 149 Q373 184 379 224 Q385 264 385 296 Q385 321 380.5 343.5 Q376 366 365.5 383 Q355 400 337 410 Q319 420 291 420 Z " />
<glyph glyph-name="Euro" unicode="&#x20ac;" horiz-adv-x="558" d="M48 357 Q49 368 50 379.5 Q51 391 53 402 L101 402 Q109 454 131 503 Q153 552 190.5 590 Q228 628 281.5 651 Q335 674 407 674 Q457 674 499 666 Q541 658 570 648 Q565 612 561 577 Q557 542 552 506 L479 506 L488 580 Q472 585 450 588.5 Q428 592 406 592 Q325 592 271.5 541.5 Q218 491 204 402 L462 402 L456 357 L48 357 Z M450 310 L445 266 L186 266 Q185 258 185 250 Q185 242 185 234 Q185 156 225.5 116 Q266 76 359 76 Q375 76 399.5 78.5 Q424 81 447 86 Q449 102 451 118 Q453 134 455 150 L527 150 L511 19 Q475 6 428.5 -0.5 Q382 -7 340 -7 Q211 -7 148 58.5 Q85 124 83 237 Q83 245 83.5 251.5 Q84 258 84 266 L37 266 L42 310 L450 310 Z " />
<glyph glyph-name="Phi" unicode="&#x3a6;" horiz-adv-x="782" d="M570 685 L561 612 L502 612 L498 586 Q561 581 612.5 564.5 Q664 548 700.5 520.5 Q737 493 757.5 454.5 Q778 416 778 367 Q778 305 748 258.5 Q718 212 670 179.5 Q622 147 561.5 129 Q501 111 440 107 L435 73 L494 73 L486 0 L268 0 L276 73 L335 73 L340 107 Q282 110 230 124 Q178 138 138.5 164 Q99 190 76 228 Q53 266 53 316 Q53 375 80 423.5 Q107 472 154 507 Q201 542 264 562.5 Q327 583 399 587 L402 612 L343 612 L352 685 L570 685 Z M392 509 Q344 506 300.5 493.5 Q257 481 224 458.5 Q191 436 171 403.5 Q151 371 151 328 Q151 292 167.5 265.5 Q184 239 211.5 221 Q239 203 275 193 Q311 183 350 179 L392 509 Z M448 179 Q492 182 534 194 Q576 206 608.5 228.5 Q641 251 660.5 284.5 Q680 318 680 363 Q680 427 630 466 Q580 505 490 509 L448 179 Z " />
<glyph glyph-name="Omega" unicode="&#x3a9;" horiz-adv-x="699" d="M403 697 Q476 697 526.5 675.5 Q577 654 608 616.5 Q639 579 652.5 528 Q666 477 666 419 Q666 370 657 318 Q648 266 631 219.5 Q614 173 589.5 135 Q565 97 534 75 L646 75 Q643 56 641 37.5 Q639 19 637 0 L380 0 Q383 19 385.5 39 Q388 59 390 79 Q432 90 462.5 120.5 Q493 151 513 196 Q533 241 543 297.5 Q553 354 553 416 Q553 460 545 497 Q537 534 519 560.5 Q501 587 472 601.5 Q443 616 401 616 Q340 616 298 586.5 Q256 557 229.5 507.5 Q203 458 191.5 392.5 Q180 327 180 256 Q180 187 204 140 Q228 93 273 80 Q270 60 267.5 40 Q265 20 263 0 L9 0 Q11 19 13 37.5 Q15 56 17 75 L130 75 Q130 76 131 76 Q99 103 84.5 147.5 Q70 192 68 246 Q68 330 85 411 Q102 492 141 555.5 Q180 619 244 658 Q308 697 403 697 Z " />
<glyph glyph-name="Psi" unicode="&#x3a8;" horiz-adv-x="825" d="M473 263 Q557 268 604 309.5 Q651 351 662 436 L693 686 L859 686 L849 611 L789 611 L767 440 Q760 384 737.5 338 Q715 292 677 258.5 Q639 225 585.5 206 Q532 187 464 185 L450 75 L520 75 L511 0 L267 0 L276 75 L346 75 L359 184 Q221 191 162.5 258 Q104 325 118 448 L138 611 L74 611 L83 686 L252 686 L222 433 Q212 352 250 310 Q288 268 369 263 L412 611 L357 611 L366 686 L580 686 L571 611 L516 611 L473 263 Z " />
<glyph glyph-name="sterling" unicode="&#xa3;" horiz-adv-x="558" d="M156 368 L172 469 Q179 515 194 553 Q209 591 234.5 618.5 Q260 646 296.5 661 Q333 676 383 676 Q432 676 477 666 Q522 656 551 640 L537 501 L462 501 L471 581 Q453 586 433 590.5 Q413 595 386 595 Q356 595 335.5 585.5 Q315 576 301.5 559 Q288 542 280 517.5 Q272 493 266 463 L251 368 L419 368 L412 307 L241 307 L229 235 Q221 188 206 142.5 Q191 97 162 74 L494 74 L487 0 L36 0 L41 73 Q64 84 80 102.5 Q96 121 106.5 143.5 Q117 166 123.5 190.5 Q130 215 134 239 L146 307 L82 307 L89 368 L156 368 Z " />
<glyph glyph-name="pi" unicode="&#x3c0;" horiz-adv-x="614" d="M206 416 Q194 311 181 207.5 Q168 104 156 0 L53 0 L104 416 L32 416 L40 487 L580 487 L572 416 L499 416 Q491 341 486 289.5 Q481 238 476.5 200 Q472 162 468.5 133.5 Q465 105 462 76 Q500 79 542 99 L563 55 Q545 38 525 25.5 Q505 13 485 5 Q465 -3 447 -6.5 Q429 -10 416 -10 Q356 -10 356 50 Q356 56 356.5 62.5 Q357 69 358 77 Q368 162 377 246.5 Q386 331 397 416 L206 416 L206 416 Z " />
<glyph glyph-name="lambda" unicode="&#x3bb;" horiz-adv-x="510" d="M424 79 Q441 80 459.5 84.5 Q478 89 495 97 L516 51 Q486 22 451 6 Q416 -10 393 -10 Q365 -10 349.5 1 Q334 12 329 42 L266 396 L262 396 L89 0 L-12 0 L198 464 L255 464 L225 640 L119 655 L117 709 Q130 714 148 718.5 Q166 723 184.5 726 Q203 729 220 731 Q237 733 248 733 Q267 733 279 729 Q291 725 298 717 Q305 709 309 697.5 Q313 686 316 671 L424 79 Z " />
<glyph glyph-name="kappa" unicode="&#x3ba;" horiz-adv-x="538" d="M452 500 Q482 500 500 482 Q518 464 526 437 L491 401 Q461 417 435 417 Q414 417 395 409 Q376 401 359 387.5 Q342 374 327 356.5 Q312 339 297 321 Q313 287 333.5 247.5 Q354 208 374.5 172 Q395 136 411.5 108 Q428 80 437 71 Q461 78 478 88.5 Q495 99 509 109 L538 72 Q498 21 466 4 Q434 -13 414 -13 Q390 -13 371 1 Q352 15 332 45 Q312 75 289 123.5 Q266 172 235 241 Q225 227 218.5 217.5 Q212 208 206.5 199 Q201 190 196.5 180 Q192 170 186 157 Q183 138 180.5 120.5 Q178 103 176 85 Q174 67 171 46 Q168 25 165 0 L63 0 Q69 45 77 106 Q85 167 92.5 227.5 Q100 288 106.5 339 Q113 390 116 414 L29 425 L32 475 Q71 486 109.5 493.5 Q148 501 177 501 Q206 501 217.5 487.5 Q229 474 227 451 Q226 441 224 424 Q222 407 219 386 Q216 365 212 342 Q208 319 205 296 L208 296 Q231 333 260 369.5 Q289 406 321 435 Q353 464 386.5 482 Q420 500 452 500 Z " />
<glyph glyph-name="&amp;#xb5;" unicode="&#xb5;" horiz-adv-x="589" d="M171 499 Q202 499 212 482 Q222 465 222 440 Q222 430 219.5 406 Q217 382 213.5 351 Q210 320 206 285.5 Q202 251 198.5 219.5 Q195 188 192.5 163 Q190 138 190 127 Q190 101 199.5 87 Q209 73 233 73 Q251 73 272 84 Q293 95 314.5 120 Q336 145 357 184.5 Q378 224 395 281 L424 489 L523 489 Q510 383 497 281 Q484 179 471 76 Q493 78 511.5 84 Q530 90 549 99 L571 55 Q533 19 494.5 4 Q456 -11 430 -11 Q410 -11 399 -5 Q388 1 382.5 11 Q377 21 376 35 Q375 49 375 66 Q375 83 376.5 101 Q378 119 380 134 L376 134 Q333 61 295 30.5 Q257 0 215 0 Q195 0 173 6 L157 -137 L220 -137 L211 -208 L-9 -208 Q-7 -191 -5 -172.5 Q-3 -154 -1 -137 L56 -137 L116 413 Q93 416 70 419.5 Q47 423 24 427 Q26 439 26 452 Q26 465 28 477 Q70 489 106 494 Q142 499 171 499 Z " />
<glyph glyph-name="&amp;#x3bc;" unicode="&#x3bc;" horiz-adv-x="589" d="M171 499 Q202 499 212 482 Q222 465 222 440 Q222 430 219.5 406 Q217 382 213.5 351 Q210 320 206 285.5 Q202 251 198.5 219.5 Q195 188 192.5 163 Q190 138 190 127 Q190 101 199.5 87 Q209 73 233 73 Q251 73 272 84 Q293 95 314.5 120 Q336 145 357 184.5 Q378 224 395 281 L424 489 L523 489 Q510 383 497 281 Q484 179 471 76 Q493 78 511.5 84 Q530 90 549 99 L571 55 Q533 19 494.5 4 Q456 -11 430 -11 Q410 -11 399 -5 Q388 1 382.5 11 Q377 21 376 35 Q375 49 375 66 Q375 83 376.5 101 Q378 119 380 134 L376 134 Q333 61 295 30.5 Q257 0 215 0 Q195 0 173 6 L157 -137 L220 -137 L211 -208 L-9 -208 Q-7 -191 -5 -172.5 Q-3 -154 -1 -137 L56 -137 L116 413 Q93 416 70 419.5 Q47 423 24 427 Q26 439 26 452 Q26 465 28 477 Q70 489 106 494 Q142 499 171 499 Z " />
<glyph glyph-name="phi" unicode="&#x3c6;" horiz-adv-x="684" d="M646 296 Q646 245 630 191.5 Q614 138 578.5 94.5 Q543 51 488 22.5 Q433 -6 355 -9 Q349 -60 344.5 -108 Q340 -156 334 -207 L234 -207 L258 -9 Q196 -6 154 12.5 Q112 31 86.5 59.5 Q61 88 50.5 123 Q40 158 40 194 Q40 240 51 287.5 Q62 335 86 376 Q110 417 147.5 449 Q185 481 238 497 L265 432 Q233 418 209 395 Q185 372 169 341.5 Q153 311 145 275 Q137 239 137 200 Q137 144 168.5 107 Q200 70 266 66 Q276 137 284 194.5 Q292 252 302 312 Q310 362 328 397 Q346 432 371 454.5 Q396 477 426 487 Q456 497 488 497 Q560 497 603 445 Q646 393 646 296 Z M364 67 Q415 70 449.5 91.5 Q484 113 505 146 Q526 179 535 221 Q544 263 544 308 Q544 329 540.5 349 Q537 369 529 384.5 Q521 400 508.5 409.5 Q496 419 479 419 Q471 419 460.5 416 Q450 413 439 403.5 Q428 394 418 375 Q408 356 401 323 Q398 312 393 277 Q388 242 382.5 201 Q377 160 372 122 Q367 84 364 67 Z " />
<glyph glyph-name="chi" unicode="&#x3c7;" horiz-adv-x="509" d="M85 -16 Q83 -16 80.5 -16.5 Q78 -17 75 -17 Q61 -3 46.5 11.5 Q32 26 17 41 Q17 44 17.5 47 Q18 50 18 53 Q63 101 107 148.5 Q151 196 197 244 Q179 285 161.5 325 Q144 365 127 406 L49 384 L28 427 Q65 461 98 478 Q131 495 154 495 Q171 495 188 489 Q205 483 219 455 Q235 421 247 388 Q259 355 276 319 Q308 363 340 407 Q372 451 404 495 L415 495 L476 438 L476 427 L308 251 Q328 208 345.5 166.5 Q363 125 382 81 Q405 83 424.5 91.5 Q444 100 464 111 Q472 100 480 90.5 Q488 81 497 70 Q477 45 457.5 29 Q438 13 419 3.5 Q400 -6 384 -9.5 Q368 -13 356 -13 Q324 -13 309 5.5 Q294 24 279 59 L229 176 Q194 127 158 79 Q122 31 85 -16 Z " />
<glyph glyph-name="psi" unicode="&#x3c8;" horiz-adv-x="722" d="M356 -136 L433 -136 Q431 -153 429 -171.5 Q427 -190 425 -207 L182 -207 Q184 -190 186.5 -171.5 Q189 -153 191 -136 L262 -136 Q265 -103 269 -70 Q273 -37 277 -5 Q176 6 131 60 Q86 114 86 193 Q86 212 89 241 Q92 270 96 300.5 Q100 331 104 360.5 Q108 390 110 411 Q89 415 67.5 418.5 Q46 422 24 425 Q26 438 26.5 450.5 Q27 463 28 476 Q70 487 103 492 Q136 497 165 497 Q194 497 205 487 Q216 477 216 453 Q216 444 211.5 411.5 Q207 379 202 339 Q197 299 192.5 261.5 Q188 224 188 205 Q188 181 192 158.5 Q196 136 206.5 118 Q217 100 236.5 87.5 Q256 75 286 71 Q303 202 318.5 331 Q334 460 351 591 Q328 594 304.5 597.5 Q281 601 258 605 Q260 618 260 630.5 Q260 643 262 656 Q304 667 338 672.5 Q372 678 397 678 Q414 678 424.5 674 Q435 670 441 663.5 Q447 657 449 648.5 Q451 640 451 632 Q451 622 448 591.5 Q445 561 439.5 516 Q434 471 427 415.5 Q420 360 412 301 Q404 242 396.5 182.5 Q389 123 382 70 Q436 76 473.5 110 Q511 144 535.5 193.5 Q560 243 572 302 Q584 361 586 417 L523 402 Q521 413 517.5 425 Q514 437 512 448 Q544 475 579 490 Q614 505 634 505 Q661 505 673 489 Q685 473 685 437 Q685 398 679 352 Q673 306 658.5 258.5 Q644 211 620.5 165.5 Q597 120 562.5 84 Q528 48 480.5 23.5 Q433 -1 372 -6 L372 -7 L356 -136 Z " />
<glyph glyph-name="sigma" unicode="&#x3c3;" horiz-adv-x="550" d="M446 411 Q468 388 477 354.5 Q486 321 486 283 Q486 224 469 171.5 Q452 119 419.5 80 Q387 41 340.5 18 Q294 -5 234 -5 Q181 -5 143.5 8.5 Q106 22 82 46.5 Q58 71 47 106.5 Q36 142 36 186 Q36 244 51.5 298.5 Q67 353 99 395.5 Q131 438 180 463.5 Q229 489 297 489 L543 489 L535 416 L450 416 L446 411 Z M285 412 Q244 412 217 392 Q190 372 173 340 Q156 308 149 268.5 Q142 229 142 190 Q142 130 166 99.5 Q190 69 244 69 Q279 69 304.5 87 Q330 105 347 135.5 Q364 166 372.5 206.5 Q381 247 381 292 Q381 316 377 338 Q373 360 362 376.5 Q351 393 332.5 402.5 Q314 412 285 412 Z " />
<glyph glyph-name="tau" unicode="&#x3c4;" horiz-adv-x="406" d="M33 416 L41 489 L391 489 L382 416 L243 416 L214 156 Q213 151 213 147.5 Q213 144 213 140 Q213 128 214 117.5 Q215 107 220.5 99.5 Q226 92 237.5 87.5 Q249 83 269 83 Q283 83 309 86 Q335 89 362 97 L376 20 Q360 13 339.5 8 Q319 3 299 0 Q279 -3 261.5 -4.5 Q244 -6 234 -6 Q204 -6 180 -1 Q156 4 139.5 16.5 Q123 29 114.5 50 Q106 71 106 103 Q106 121 109 144 L139 416 L33 416 Z " />
<glyph glyph-name="iota" unicode="&#x3b9;" horiz-adv-x="318" d="M185 500 Q217 500 228.5 490 Q240 480 240 459 Q240 456 236.5 428.5 Q233 401 228 361.5 Q223 322 217.5 275.5 Q212 229 206.5 187.5 Q201 146 197 115.5 Q193 85 192 77 Q233 80 272 101 L295 56 Q260 21 221 4 Q182 -13 153 -13 Q115 -13 100.5 5 Q86 23 86 51 Q86 57 86.5 63.5 Q87 70 88 78 L131 413 L46 428 L49 479 Q91 490 126 495 Q161 500 185 500 Z " />
<glyph glyph-name="Alpha" unicode="&#x391;" horiz-adv-x="676" d="M408 0 L416 75 L481 75 L460 189 L211 189 L162 75 L228 75 L220 0 L-6 0 L1 75 L58 75 L333 686 L465 686 L588 75 L641 75 L632 0 L408 0 Z M411 464 L389 598 L386 598 L333 472 L245 265 L447 265 L411 464 Z " />
<glyph glyph-name="Beta" unicode="&#x392;" horiz-adv-x="628" d="M427 685 Q473 685 506.5 673.5 Q540 662 562 641.5 Q584 621 594.5 592.5 Q605 564 605 530 Q605 506 599.5 482 Q594 458 581.5 435.5 Q569 413 547.5 393.5 Q526 374 494 359 L494 358 Q522 349 540.5 333 Q559 317 570 297 Q581 277 585 255 Q589 233 589 212 Q589 159 570.5 119.5 Q552 80 521 53.5 Q490 27 450 13.5 Q410 0 367 0 L14 0 Q17 19 19 37.5 Q21 56 23 75 L91 75 L157 610 L92 610 L101 685 L427 685 Z M227 317 L198 75 L338 75 Q409 75 443 114.5 Q477 154 477 214 Q477 235 470.5 253.5 Q464 272 450.5 286 Q437 300 416.5 308.5 Q396 317 368 317 L227 317 Z M264 610 Q256 554 250 499 Q244 444 236 389 L362 389 Q425 389 460.5 425 Q496 461 496 516 Q496 558 471 584 Q446 610 389 610 L264 610 Z " />
<glyph glyph-name="Gamma" unicode="&#x393;" horiz-adv-x="561" d="M16 0 L24 75 L91 75 L156 611 L93 611 L101 685 L603 685 L581 512 L503 512 L515 611 L263 611 L197 75 L289 75 L280 0 L16 0 Z " />
<glyph glyph-name="Epsilon" unicode="&#x395;" horiz-adv-x="589" d="M16 0 L24 75 L90 75 L156 611 L93 611 L101 685 L601 685 L579 512 L501 512 L513 611 L263 611 L236 393 L472 398 L464 319 L227 323 L197 75 L467 75 L480 177 L560 177 L538 0 L16 0 Z " />
<glyph glyph-name="Zeta" unicode="&#x396;" horiz-adv-x="548" d="M139 76 L429 76 L445 195 L524 195 L500 0 L-3 0 L6 75 L425 611 L174 611 L160 504 L82 504 L105 686 L567 686 L559 613 L139 76 Z " />
<glyph glyph-name="Eta" unicode="&#x397;" horiz-adv-x="717" d="M419 0 L428 76 L488 76 L518 321 L226 321 L196 76 L257 76 L248 0 L16 0 L24 76 L88 76 L154 611 L90 611 L99 686 L331 686 L322 611 L261 611 L235 396 L527 396 L553 611 L493 611 L502 686 L735 686 L726 611 L662 611 L596 76 L660 76 L652 0 L419 0 Z " />
<glyph glyph-name="Theta" unicode="&#x398;" horiz-adv-x="684" d="M236 392 L491 396 L481 316 L227 319 L236 392 Z M398 697 Q470 697 519 675 Q568 653 598 614 Q628 575 641.5 523 Q655 471 655 411 Q655 323 633.5 246.5 Q612 170 570 113 Q528 56 466.5 23.5 Q405 -9 325 -9 Q255 -9 205 10.5 Q155 30 123 66 Q91 102 76 153 Q61 204 61 267 Q61 348 80.5 425.5 Q100 503 141 563.5 Q182 624 245.5 660.5 Q309 697 398 697 Z M395 617 Q331 617 288.5 585 Q246 553 220 502.5 Q194 452 183 389.5 Q172 327 172 265 Q172 170 209 121 Q246 72 330 72 Q387 72 427.5 100 Q468 128 493.5 175.5 Q519 223 531 285 Q543 347 543 415 Q543 455 536.5 491.5 Q530 528 513.5 556 Q497 584 468.5 600.5 Q440 617 395 617 Z " />
<glyph glyph-name="Iota" unicode="&#x399;" horiz-adv-x="370" d="M43 0 L52 75 L115 75 L180 611 L117 611 L126 686 L360 686 L351 611 L287 611 L221 75 L285 75 L277 0 L43 0 Z " />
<glyph glyph-name="Kappa" unicode="&#x39a;" horiz-adv-x="657" d="M385 413 L576 77 L632 77 L623 0 L396 0 L405 77 L465 77 L308 352 L217 273 L193 76 L254 76 L245 0 L16 0 L24 76 L88 76 L154 611 L90 611 L99 685 L330 685 L321 611 L258 611 L231 380 L499 610 L443 610 L452 685 L679 685 L670 610 L613 610 L385 413 Z " />
<glyph glyph-name="Lambda" unicode="&#x39b;" horiz-adv-x="672" d="M401 502 L385 595 L383 595 Q382 594 378.5 585.5 Q375 577 369.5 564 Q364 551 357.5 535 Q351 519 344 503 L158 75 L226 75 L217 0 L-9 0 L-1 75 L56 75 Q71 111 93 160.5 Q115 210 140 266 Q165 322 192 381 Q219 440 244.5 495.5 Q270 551 292.5 600.5 Q315 650 331 686 L464 686 L586 75 L639 75 L631 0 L405 0 L414 75 L477 75 L401 502 Z " />
<glyph glyph-name="Mu" unicode="&#x39c;" horiz-adv-x="882" d="M443 198 L500 308 L702 685 L901 685 L891 610 L830 610 L765 75 L825 75 L816 0 L593 0 L601 75 L661 75 L716 529 L714 529 L664 435 L474 87 L382 87 L244 529 L241 529 L187 75 L249 75 L240 0 L14 0 L23 75 L88 75 L153 610 L89 610 L98 685 L290 685 L397 341 L437 198 L443 198 Z " />
<glyph glyph-name="Nu" unicode="&#x39d;" horiz-adv-x="747" d="M536 165 Q550 277 563.5 387.5 Q577 498 591 610 L524 610 L533 685 L764 685 Q761 666 759 647.5 Q757 629 755 610 L691 610 Q672 456 654 304.5 Q636 153 616 0 L514 0 Q457 112 406 218.5 Q355 325 296 437 Q284 462 271.5 486.5 Q259 511 248 537 Q247 537 246.5 536.5 Q246 536 245 536 L188 75 L256 75 L247 0 L14 0 Q17 19 19 37.5 Q21 56 23 75 L89 75 Q105 210 121.5 342.5 Q138 475 155 610 L89 610 L98 685 L278 685 Q323 594 371.5 494.5 Q420 395 479 274 L531 165 L536 165 Z " />
<glyph glyph-name="Xi" unicode="&#x39e;" horiz-adv-x="568" d="M165 595 L153 502 L76 502 L98 685 L587 685 L564 502 L485 502 L497 595 L165 595 Z M453 91 L465 189 L544 189 L522 0 L1 0 L23 189 L104 189 L92 91 L453 91 Z M155 317 L164 391 L451 395 L440 314 L155 317 Z " />
<glyph glyph-name="Omicron" unicode="&#x39f;" horiz-adv-x="684" d="M398 697 Q470 697 519 675 Q568 653 598 614 Q628 575 641.5 523 Q655 471 655 411 Q655 323 633.5 246.5 Q612 170 570 113 Q528 56 466.5 23.5 Q405 -9 325 -9 Q255 -9 205 10.5 Q155 30 123 66 Q91 102 76 153 Q61 204 61 267 Q61 348 80.5 425.5 Q100 503 141 563.5 Q182 624 245.5 660.5 Q309 697 398 697 Z M395 617 Q331 617 288.5 585 Q246 553 220 502.5 Q194 452 183 389.5 Q172 327 172 265 Q172 170 209 121 Q246 72 330 72 Q387 72 427.5 100 Q468 128 493.5 175.5 Q519 223 531 285 Q543 347 543 415 Q543 455 536.5 491.5 Q530 528 513.5 556 Q497 584 468.5 600.5 Q440 617 395 617 Z " />
<glyph glyph-name="Pi" unicode="&#x3a0;" horiz-adv-x="717" d="M419 0 L428 76 L488 76 L553 609 L261 609 L196 76 L257 76 L248 0 L16 0 L24 76 L88 76 L153 609 L89 609 L99 686 L735 686 L725 609 L661 609 L596 76 L660 76 L652 0 L419 0 Z " />
<glyph glyph-name="Rho" unicode="&#x3a1;" horiz-adv-x="580" d="M395 686 Q489 686 538.5 640.5 Q588 595 588 507 Q588 467 575.5 426 Q563 385 535 351.5 Q507 318 462.5 296.5 Q418 275 354 275 L219 275 L194 75 L278 75 L270 0 L16 0 L24 75 L88 75 L153 611 L90 611 L99 686 L395 686 Z M260 611 L228 348 L339 348 Q364 348 388.5 356.5 Q413 365 432.5 383 Q452 401 464 430 Q476 459 476 500 Q476 556 447.5 583.5 Q419 611 371 611 L260 611 Z " />
<glyph glyph-name="Delta" unicode="&#x394;" horiz-adv-x="667" d="M601 0 L16 0 L24 69 L329 686 L457 686 L608 67 L601 0 Z M419 452 L384 603 L383 603 L310 451 L129 75 L504 75 L419 452 Z " />
<glyph glyph-name="Sigma" unicode="&#x3a3;" horiz-adv-x="563" d="M345 373 L343 350 L141 76 L448 76 L462 187 L541 187 L519 0 L2 0 L11 69 L226 363 L82 620 L89 686 L577 686 L556 505 L478 505 L491 611 L211 611 L345 373 Z " />
<glyph glyph-name="dagger" unicode="&#x2020;" horiz-adv-x="465" d="M301 411 L242 -64 L156 -64 L214 411 L64 411 L74 489 L223 489 L248 689 L334 689 L310 489 L462 489 L452 411 L301 411 Z " />
<glyph glyph-name="ellipsis" unicode="&#x2026;" horiz-adv-x="668" d="M97 116 Q121 116 136 100 Q151 84 151 61 Q151 31 130 10.5 Q109 -10 83 -10 Q59 -10 44 6 Q29 22 29 46 Q29 75 49.5 95.5 Q70 116 97 116 Z M505 116 Q528 116 543 99 Q558 82 558 59 Q558 44 552 31.5 Q546 19 536 10 Q526 1 513.5 -4.5 Q501 -10 489 -10 Q466 -10 450.5 6 Q435 22 435 46 Q435 75 456.5 95.5 Q478 116 505 116 Z M306 116 Q330 116 344.5 100 Q359 84 359 61 Q359 31 338 10.5 Q317 -10 290 -10 Q267 -10 252 6 Q237 22 237 46 Q237 75 258 95.5 Q279 116 306 116 Z " />
<glyph glyph-name="registered" unicode="&#xae;" horiz-adv-x="580" d="M558 469 Q558 418 540 373 Q522 328 489.5 295 Q457 262 412.5 242.5 Q368 223 314 223 Q261 223 216.5 242.5 Q172 262 139.5 295 Q107 328 89 373 Q71 418 71 469 Q71 520 89 565 Q107 610 139 643.5 Q171 677 216 696 Q261 715 314 715 Q368 715 412.5 696 Q457 677 489.5 643.5 Q522 610 540 565 Q558 520 558 469 Z M519 469 Q519 512 504 549.5 Q489 587 462 615.5 Q435 644 397 660.5 Q359 677 314 677 Q269 677 231.5 660.5 Q194 644 167 615.5 Q140 587 125 549.5 Q110 512 110 469 Q110 427 125 389 Q140 351 167 323 Q194 295 231.5 278.5 Q269 262 314 262 Q362 262 400 278.5 Q438 295 464.5 323 Q491 351 505 389 Q519 427 519 469 Z M278 450 L278 365 L309 365 L309 328 L200 328 L200 365 L226 365 L226 581 L200 581 L200 619 L332 619 Q377 619 400.5 597 Q424 575 424 535 Q424 516 412 493 Q400 470 373 458 L417 365 L448 361 L448 329 Q439 327 426.5 325.5 Q414 324 406 324 Q391 324 383.5 330.5 Q376 337 369 351 L322 450 L278 450 Z M371 535 Q371 561 357 571.5 Q343 582 325 582 L278 582 L278 487 L323 487 Q342 487 356.5 496.5 Q371 506 371 535 Z " />
<glyph glyph-name="trademark" unicode="&#x2122;" horiz-adv-x="784" d="M568 480 Q570 485 574.5 495 Q579 505 583.5 516 Q588 527 592 537 Q596 547 599 552 L661 686 L775 686 L775 639 L740 639 L740 396 L775 396 L775 351 L643 351 L643 396 L676 396 L676 588 L674 588 L642 516 L593 409 L539 409 L488 516 L457 584 L456 584 L456 396 L491 396 L491 351 L358 351 L358 396 L394 396 L394 639 L358 639 L358 686 L472 686 L531 553 L564 480 L568 480 Z M115 351 L115 396 L157 396 L157 639 L97 639 L97 585 L49 585 L49 686 L334 686 L334 585 L287 585 L287 639 L225 639 L225 396 L266 396 L266 351 L115 351 Z " />
<glyph glyph-name="copyright" unicode="&#xa9;" horiz-adv-x="827" d="M784 332 Q784 255 755 188 Q726 121 676.5 70.5 Q627 20 560.5 -9 Q494 -38 419 -38 Q335 -38 267.5 -9 Q200 20 152.5 70.5 Q105 121 79.5 188 Q54 255 54 332 Q54 408 82 475 Q110 542 159 592.5 Q208 643 275 672 Q342 701 419 701 Q498 701 565 672 Q632 643 681 592.5 Q730 542 757 475 Q784 408 784 332 Z M734 332 Q734 398 710.5 456 Q687 514 645 557.5 Q603 601 545.5 626 Q488 651 419 651 Q353 651 295 626 Q237 601 194.5 557.5 Q152 514 127.5 456 Q103 398 103 332 Q103 266 125 207.5 Q147 149 188 105.5 Q229 62 287.5 36.5 Q346 11 419 11 Q485 11 542 36.5 Q599 62 642 105.5 Q685 149 709.5 207.5 Q734 266 734 332 Z M293 325 Q293 283 300 249 Q307 215 324.5 191 Q342 167 370.5 154 Q399 141 442 141 Q461 141 494.5 144.5 Q528 148 554 156 L566 101 Q553 96 536 91.5 Q519 87 500.5 84 Q482 81 462.5 79.5 Q443 78 425 78 Q365 78 325 96.5 Q285 115 260 147.5 Q235 180 224.5 225 Q214 270 214 324 Q214 364 223.5 409 Q233 454 258 491.5 Q283 529 325.5 553.5 Q368 578 434 578 Q474 578 504 572 Q534 566 556 558 L556 436 L502 436 L502 508 Q489 511 471 513.5 Q453 516 436 516 Q362 516 327.5 464.5 Q293 413 293 325 Z " />
<glyph glyph-name="sigma1" unicode="&#x3c2;" horiz-adv-x="463" d="M40 223 Q40 277 55 327 Q70 377 101.5 415.5 Q133 454 181.5 477 Q230 500 297 500 Q333 500 368 494 Q403 488 418 483 Q456 470 453 437 Q453 430 450 416 Q447 402 442 385.5 Q437 369 431 351.5 Q425 334 419 320 L363 322 L367 414 Q355 418 335.5 420 Q316 422 299 422 Q262 422 233.5 407 Q205 392 185.5 366 Q166 340 156 304.5 Q146 269 146 228 Q146 204 153 184 Q160 164 175 146.5 Q190 129 214 112.5 Q238 96 273 78 Q330 49 354.5 24.5 Q379 0 379 -26 Q379 -48 357 -86.5 Q335 -125 274 -180 L222 -134 Q240 -113 250 -99.5 Q260 -86 265 -77 Q270 -68 271.5 -62.5 Q273 -57 273 -53 Q273 -41 258.5 -30.5 Q244 -20 209 -2 Q164 22 132 45.5 Q100 69 79.5 95.5 Q59 122 49.5 153 Q40 184 40 223 Z " />
<glyph glyph-name="yen" unicode="&#xa5;" horiz-adv-x="558" d="M76 294 L82 338 L202 338 L110 591 L62 591 L72 665 L276 665 L266 591 L209 591 L291 346 L294 346 L436 591 L378 591 L386 665 L593 665 L584 591 L537 591 L381 338 L504 338 L498 294 L76 294 Z M492 247 L487 200 L324 200 L309 73 L386 73 L377 0 L123 0 L132 73 L207 73 L223 200 L65 200 L71 247 L492 247 Z " />
<glyph glyph-name="section" unicode="&#xa7;" horiz-adv-x="480" d="M301 613 Q261 613 232 592.5 Q203 572 203 535 Q203 517 212.5 502 Q222 487 238 475 Q254 463 273 453 Q292 443 312 433 Q334 422 356 409.5 Q378 397 395.5 380.5 Q413 364 424 343 Q435 322 435 294 Q435 265 417.5 227.5 Q400 190 354 152 Q387 131 400 98 Q413 65 413 35 Q413 -4 396 -34.5 Q379 -65 350 -85.5 Q321 -106 283 -117 Q245 -128 203 -128 Q159 -128 113 -120 Q67 -112 36 -100 L53 29 L123 29 L113 -48 Q133 -54 155.5 -57 Q178 -60 200 -60 Q262 -60 290.5 -33 Q319 -6 319 36 Q319 69 290 90 Q261 111 208 135 Q182 147 157 160 Q132 173 112.5 190.5 Q93 208 81 230 Q69 252 69 282 Q69 323 89.5 360 Q110 397 150 424 Q127 444 114.5 467.5 Q102 491 102 522 Q102 562 118.5 592 Q135 622 163.5 642.5 Q192 663 229 673 Q266 683 308 683 Q359 683 396 674.5 Q433 666 458 656 Q453 623 449 590 Q445 557 441 524 L369 524 L379 601 Q361 606 343 609.5 Q325 613 301 613 Z M211 389 Q185 369 170.5 344.5 Q156 320 156 295 Q156 274 169 259 Q182 244 202 232 Q222 220 247 209.5 Q272 199 296 186 Q322 210 335.5 235 Q349 260 349 279 Q349 301 336 316.5 Q323 332 303 344 Q283 356 258.5 366.5 Q234 377 211 389 Z " />
<glyph glyph-name="guillemotright" unicode="&#xbb;" horiz-adv-x="445" d="M393 173 L222 6 L185 38 L301 192 L222 347 L269 379 L398 211 L393 173 Z M235 173 L64 6 L25 38 L143 192 L63 347 L110 379 L240 211 L235 173 Z " />
<glyph glyph-name="Aring" unicode="&#xc5;" horiz-adv-x="676" d="M408 0 L416 75 L481 75 L460 189 L211 189 L162 75 L228 75 L220 0 L-6 0 L1 75 L58 75 L333 686 L465 686 L588 75 L641 75 L632 0 L408 0 Z M411 464 L389 598 L386 598 L333 472 L245 265 L447 265 L411 464 Z M398 711 Q375 711 355.5 720 Q336 729 322.5 744 Q309 759 303 779 Q297 799 300 822 Q303 845 313.5 865.5 Q324 886 340.5 901 Q357 916 379 925 Q401 934 426 934 Q449 934 467.5 925 Q486 916 499 901 Q512 886 517.5 865.5 Q523 845 520 822 Q518 799 507 778.5 Q496 758 479.5 743 Q463 728 442 719.5 Q421 711 398 711 Z M419 882 Q392 882 373.5 864 Q355 846 352 820 Q349 795 362.5 777 Q376 759 404 759 Q430 759 447.5 777 Q465 795 468 820 Q472 846 458.5 864 Q445 882 419 882 Z " />
<glyph glyph-name="degree" unicode="&#xb0;" horiz-adv-x="355" d="M323 544 Q322 515 311 491 Q300 467 281.5 449 Q263 431 238 421 Q213 411 185 411 Q155 411 130.5 421 Q106 431 89 448.5 Q72 466 63 490.5 Q54 515 56 544 Q57 573 68.5 597.5 Q80 622 99 640 Q118 658 143 668.5 Q168 679 196 679 Q224 679 247.5 668 Q271 657 288 638.5 Q305 620 314 595.5 Q323 571 323 544 Z M267 541 Q268 576 245 599.5 Q222 623 189 623 Q156 623 134 599 Q112 575 111 541 Q110 525 115.5 510.5 Q121 496 131 485.5 Q141 475 154.5 469 Q168 463 185 463 Q218 463 242 485 Q266 507 267 541 Z " />
<glyph glyph-name="germandbls" unicode="&#xdf;" horiz-adv-x="601" d="M183 110 Q175 46 165 -13 Q155 -72 133 -117 Q111 -162 73.5 -189 Q36 -216 -26 -216 Q-46 -216 -72.5 -212 Q-99 -208 -128 -200 L-109 -130 Q-86 -135 -70.5 -137 Q-55 -139 -41 -139 Q1 -139 24.5 -113.5 Q48 -88 62 -28 Q76 32 87 131.5 Q98 231 116 379 L47 379 L54 442 L121 442 Q123 451 124.5 467.5 Q126 484 128 501 Q132 534 142 572.5 Q152 611 176.5 644 Q201 677 245 699 Q289 721 363 721 Q402 721 431 710.5 Q460 700 479 683.5 Q498 667 507.5 646.5 Q517 626 517 607 Q517 572 498 542 Q479 512 455.5 486.5 Q432 461 413 439 Q394 417 394 396 Q394 377 406 360 Q418 343 436 326 Q454 309 475.5 290.5 Q497 272 515 250.5 Q533 229 545 203 Q557 177 557 145 Q557 114 545 85.5 Q533 57 510 35 Q487 13 451.5 0 Q416 -13 370 -13 Q335 -13 297 -6.5 Q259 0 231 11 L256 80 Q290 69 312.5 64.5 Q335 60 360 60 Q396 60 423 78 Q450 96 450 134 Q450 158 439 179 Q428 200 411 219 Q394 238 375 256.5 Q356 275 339 295.5 Q322 316 311 338.5 Q300 361 300 389 Q300 423 319 447.5 Q338 472 360.5 493.5 Q383 515 402 536 Q421 557 421 583 Q421 592 418 602.5 Q415 613 406 622.5 Q397 632 381.5 638 Q366 644 341 644 Q248 644 234 535 L183 110 Z " />
<glyph glyph-name="guillemotleft" unicode="&#xab;" horiz-adv-x="445" d="M54 211 L224 379 L263 347 L144 192 L224 38 L178 6 L49 173 L54 211 Z M213 211 L383 379 L421 347 L304 192 L383 38 L338 6 L208 173 L213 211 Z " />
<glyph glyph-name="divide" unicode="&#xf7;" horiz-adv-x="558" d="M366 469 Q364 443 345.5 425 Q327 407 305 407 Q282 407 268 423 Q254 439 255 461 Q257 485 275.5 503 Q294 521 317 521 Q340 521 354 506 Q368 491 366 469 Z M92 266 L101 335 L489 335 L480 266 L92 266 Z M326 141 Q324 115 305.5 97 Q287 79 264 79 Q243 79 228 94.5 Q213 110 215 133 Q217 158 235.5 175 Q254 192 277 192 Q299 192 313 177.5 Q327 163 326 141 Z " />
<glyph glyph-name="circumflex" unicode="&#x2c6;" horiz-adv-x="512" d="M450 533 L308 634 L142 534 L118 567 L282 712 L349 712 L480 568 L450 533 Z " />
<glyph glyph-name="perthousand" unicode="&#x2030;" horiz-adv-x="1211" d="M248 671 Q290 671 318 658 Q346 645 362 623 Q378 601 384.5 572.5 Q391 544 391 513 Q391 472 382.5 427.5 Q374 383 352.5 346 Q331 309 294.5 285.5 Q258 262 203 262 Q161 262 133 274 Q105 286 88.5 307 Q72 328 65 356 Q58 384 58 416 Q58 448 65.5 492 Q73 536 93.5 575.5 Q114 615 151 643 Q188 671 248 671 Z M246 609 Q208 609 186.5 584.5 Q165 560 154 527 Q143 494 140 460.5 Q137 427 137 410 Q137 371 152.5 347 Q168 323 210 323 Q240 323 259.5 341 Q279 359 290.5 386 Q302 413 307 445.5 Q312 478 312 508 Q312 527 309.5 545 Q307 563 299.5 577 Q292 591 279 600 Q266 609 246 609 Z M307 -21 L241 -21 L629 704 L693 704 L307 -21 Z M709 405 Q751 405 779 391.5 Q807 378 823 356.5 Q839 335 845.5 306.5 Q852 278 852 248 Q852 206 843 161 Q834 116 812.5 79.5 Q791 43 755 19.5 Q719 -4 664 -4 Q622 -4 594 8 Q566 20 549 41 Q532 62 525 90 Q518 118 518 149 Q518 182 525.5 226 Q533 270 554 309.5 Q575 349 612 377 Q649 405 709 405 Z M707 343 Q669 343 647.5 318.5 Q626 294 615 261 Q604 228 601 194.5 Q598 161 598 143 Q598 105 613.5 81.5 Q629 58 671 58 Q701 58 720.5 75.5 Q740 93 751.5 120 Q763 147 768 179.5 Q773 212 773 242 Q773 261 770.5 279 Q768 297 760.5 311 Q753 325 740 334 Q727 343 707 343 Z M1090 405 Q1132 405 1160 391.5 Q1188 378 1204 356.5 Q1220 335 1226.5 306.5 Q1233 278 1233 248 Q1233 206 1224 161 Q1215 116 1193.5 79.5 Q1172 43 1136 19.5 Q1100 -4 1045 -4 Q1003 -4 975 8 Q947 20 930 41 Q913 62 906 90 Q899 118 899 149 Q899 182 906.5 226 Q914 270 935 309.5 Q956 349 993 377 Q1030 405 1090 405 Z M1088 343 Q1050 343 1028.5 318.5 Q1007 294 996 261 Q985 228 982 194.5 Q979 161 979 143 Q979 105 994.5 81.5 Q1010 58 1052 58 Q1082 58 1101.5 75.5 Q1121 93 1132.5 120 Q1144 147 1149 179.5 Q1154 212 1154 242 Q1154 261 1151.5 279 Q1149 297 1141.5 311 Q1134 325 1121 334 Q1108 343 1088 343 Z " />
<glyph glyph-name="dieresis" unicode="&#xa8;" horiz-adv-x="512" d="M406 670 Q428 670 441.5 657.5 Q455 645 455 623 Q455 597 437.5 578.5 Q420 560 393 560 Q373 560 360 573.5 Q347 587 347 608 Q347 634 365.5 652 Q384 670 406 670 Z M218 670 Q241 670 254.5 657.5 Q268 645 268 623 Q268 597 250 578.5 Q232 560 206 560 Q185 560 171.5 573.5 Q158 587 158 608 Q158 634 177 652 Q196 670 218 670 Z " />
<glyph glyph-name="florin" unicode="&#x192;" horiz-adv-x="558" d="M167 396 L258 396 L266 451 Q272 494 284 535 Q296 576 318 607 Q340 638 375 657 Q410 676 463 676 Q484 676 509 672.5 Q534 669 563 660 L545 587 Q527 592 511.5 593.5 Q496 595 482 595 Q460 595 442 589.5 Q424 584 409.5 568.5 Q395 553 384.5 526 Q374 499 368 456 Q368 454 366.5 445 Q365 436 363.5 425.5 Q362 415 360.5 406 Q359 397 359 396 L456 396 L453 330 L349 330 Q349 326 345.5 305 Q342 284 338.5 259.5 Q335 235 331.5 213.5 Q328 192 327 186 Q318 135 307 80.5 Q296 26 274.5 -19 Q253 -64 215.5 -92.5 Q178 -121 116 -121 Q96 -121 68 -117.5 Q40 -114 11 -106 L30 -36 Q71 -43 97 -43 Q144 -43 171 -8 Q198 27 213 110 Q225 175 231.5 216 Q238 257 241.5 280.5 Q245 304 246.5 314.5 Q248 325 248 330 L165 330 L167 396 Z " />
<glyph glyph-name="daggerdbl" unicode="&#x2021;" horiz-adv-x="465" d="M188 198 L214 411 L64 411 L74 489 L223 489 L248 689 L334 689 L310 489 L462 489 L452 411 L301 411 L275 198 L427 198 L416 120 L265 120 L242 -64 L156 -64 L178 120 L28 120 L39 198 L188 198 Z " />
<glyph glyph-name="logicalnot" unicode="&#xac;" horiz-adv-x="558" d="M464 97 L395 97 L415 266 L98 266 L107 335 L492 335 L464 97 Z " />
<glyph glyph-name="multiply" unicode="&#xd7;" horiz-adv-x="558" d="M287 243 L146 113 L103 164 L245 293 L137 421 L191 470 L298 341 L434 468 L478 417 L340 291 L448 165 L396 115 L287 243 Z " />
<glyph glyph-name="plusminus" unicode="&#xb1;" horiz-adv-x="558" d="M327 272 L307 114 L238 114 L257 272 L99 272 L107 341 L266 341 L285 495 L354 495 L335 341 L492 341 L484 272 L327 272 Z M459 64 L451 0 L66 0 L74 64 L459 64 Z " />
<glyph glyph-name="brokenbar" unicode="&#xa6;" horiz-adv-x="264" d="M123 346 L123 703 L193 703 L193 346 L123 346 Z M193 242 L193 -142 L123 -142 L123 242 L193 242 Z " />
<glyph glyph-name="guilsinglright" unicode="&#x203a;" horiz-adv-x="318" d="M245 173 L74 6 L38 40 L155 193 L76 349 L120 379 L250 211 L245 173 Z " />
<glyph glyph-name="guilsinglleft" unicode="&#x2039;" horiz-adv-x="318" d="M58 211 L229 379 L266 347 L147 191 L228 37 L182 6 L53 173 L58 211 Z " />
<glyph glyph-name="currency" unicode="&#xa4;" horiz-adv-x="547" d="M164 306 Q164 280 173.5 257 Q183 234 200 217 Q217 200 239 190 Q261 180 287 180 Q312 180 334.5 190 Q357 200 374 217 Q391 234 401 257 Q411 280 411 306 Q411 332 401 355 Q391 378 374.5 395 Q358 412 335 422 Q312 432 287 432 Q261 432 239 422 Q217 412 200 395 Q183 378 173.5 355 Q164 332 164 306 Z M70 482 L114 529 L178 465 Q201 482 229.5 491.5 Q258 501 288 501 Q349 501 398 464 L461 529 L507 481 L443 419 Q462 393 470 365 Q478 337 478 307 Q478 276 469 247.5 Q460 219 444 194 L507 133 L461 85 L397 148 Q371 128 344 120 Q317 112 288 112 Q259 112 232 120 Q205 128 179 148 L115 84 L69 132 L132 194 Q111 222 103.5 250.5 Q96 279 96 305 Q96 334 104 363.5 Q112 393 132 418 L70 482 Z " />
<glyph glyph-name="exclamdown" unicode="&#xa1;" horiz-adv-x="242" d="M20 -213 L58 79 L96 307 L167 307 L150 79 L119 -213 L20 -213 Z M141 378 Q116 378 101.5 393.5 Q87 409 88 432 Q90 459 109.5 478.5 Q129 498 156 498 Q181 498 196 482 Q211 466 210 443 Q209 417 189.5 397.5 Q170 378 141 378 Z " />
<glyph glyph-name="questiondown" unicode="&#xbf;" horiz-adv-x="451" d="M185 -220 Q100 -220 55.5 -187 Q11 -154 11 -95 Q11 -39 39.5 1.5 Q68 42 109 74 Q148 102 175.5 125 Q203 148 221 169 Q239 190 247 211.5 Q255 233 255 259 Q255 267 254.5 277 Q254 287 254 299 Q275 302 295.5 305.5 Q316 309 336 311 Q338 294 339 279.5 Q340 265 340 252 Q340 217 331 190 Q322 163 304.5 138.5 Q287 114 260 90.5 Q233 67 197 40 Q163 15 141.5 -7.5 Q120 -30 120 -63 Q120 -102 141 -119.5 Q162 -137 209 -137 Q232 -137 258.5 -133.5 Q285 -130 312 -122 L321 -35 L396 -35 Q392 -73 387.5 -110.5 Q383 -148 379 -186 Q325 -204 274.5 -212 Q224 -220 185 -220 Z M287 378 Q264 378 249 393 Q234 408 234 431 Q234 460 255 478 Q276 496 301 496 Q324 496 339 481 Q354 466 354 445 Q354 418 335 398 Q316 378 287 378 Z " />
<glyph glyph-name="sfthyphen" unicode="&#xad;" horiz-adv-x="366" d="M56 225 L66 307 L324 307 L313 225 L56 225 Z " />
<glyph glyph-name="periodcentered" unicode="&#xb7;" horiz-adv-x="221" d="M127 345 Q150 345 165.5 329.5 Q181 314 181 291 Q181 261 159.5 240 Q138 219 111 219 Q88 219 73 236 Q58 253 58 277 Q58 306 79 325.5 Q100 345 127 345 Z " />
<glyph glyph-name="cedilla" unicode="&#xb8;" horiz-adv-x="456" d="M200 -59 Q244 -63 269 -81 Q294 -99 294 -132 Q294 -153 283.5 -173.5 Q273 -194 249.5 -210.5 Q226 -227 189.5 -238 Q153 -249 101 -249 Q101 -238 101.5 -227 Q102 -216 102 -205 Q157 -200 191 -184.5 Q225 -169 225 -143 Q225 -132 216 -125.5 Q207 -119 193.5 -115.5 Q180 -112 164.5 -111 Q149 -110 135 -110 L124 -88 Q179 -22 237 40 Q245 34 252.5 29 Q260 24 268 19 L200 -59 Z " />
<glyph glyph-name="acute" unicode="&#xb4;" horiz-adv-x="512" d="M290 539 L254 574 L398 746 L455 686 L290 539 Z " />
<glyph glyph-name="primemod" unicode="&#x2b9;" horiz-adv-x="227" d="M103 384 L64 410 L241 695 L307 653 L103 384 Z " />
<glyph glyph-name="caron" unicode="&#x2c7;" horiz-adv-x="512" d="M496 692 L330 548 L263 548 L134 693 L164 726 L305 626 L472 725 L496 692 Z " />
<glyph glyph-name="breve" unicode="&#x2d8;" horiz-adv-x="529" d="M301 551 Q274 551 251.5 561 Q229 571 210.5 587.5 Q192 604 177 625.5 Q162 647 149 670 L203 709 Q227 668 256.5 646 Q286 624 313 624 Q322 624 335 625.5 Q348 627 366 634.5 Q384 642 408 657.5 Q432 673 464 702 L491 671 Q465 637 440 614 Q415 591 390.5 577 Q366 563 343.5 557 Q321 551 301 551 Z " />
<glyph glyph-name="dotaccent" unicode="&#x2d9;" horiz-adv-x="512" d="M366 631 Q364 604 344 584.5 Q324 565 297 565 Q272 565 257 582 Q242 599 244 625 Q246 652 267 671.5 Q288 691 313 691 Q337 691 352.5 673.5 Q368 656 366 631 Z " />
<glyph glyph-name="ring" unicode="&#x2da;" horiz-adv-x="512" d="M301 552 Q278 552 258.5 561 Q239 570 225.5 585 Q212 600 206 620 Q200 640 203 663 Q206 686 216.5 706.5 Q227 727 243.5 742 Q260 757 282 766 Q304 775 329 775 Q352 775 370.5 766 Q389 757 402 742 Q415 727 420.5 706.5 Q426 686 423 663 Q421 640 410 619.5 Q399 599 382.5 584 Q366 569 345 560.5 Q324 552 301 552 Z M322 723 Q295 723 276.5 705 Q258 687 255 661 Q252 636 265.5 618 Q279 600 307 600 Q333 600 350.5 618 Q368 636 371 661 Q375 687 361.5 705 Q348 723 322 723 Z " />
<glyph glyph-name="ogonek" unicode="&#x2db;" horiz-adv-x="529" d="M400 8 Q385 -7 371.5 -25.5 Q358 -44 347.5 -62.5 Q337 -81 331 -98 Q325 -115 325 -128 Q325 -150 338.5 -159 Q352 -168 375 -168 Q394 -168 413.5 -164.5 Q433 -161 449 -157 Q451 -167 451.5 -176 Q452 -185 453 -194 Q427 -207 397.5 -215 Q368 -223 339 -223 Q296 -223 274 -205.5 Q252 -188 252 -156 Q252 -142 257.5 -121 Q263 -100 278 -76 Q293 -52 318.5 -26 Q344 0 384 25 L400 8 Z " />
<glyph glyph-name="hungarumlaut" unicode="&#x2dd;" horiz-adv-x="512" d="M215 538 L177 572 L317 747 L378 690 L215 538 Z M351 538 L314 572 L454 747 L514 690 L351 538 Z " />
<glyph glyph-name="tonos" unicode="&#x384;" horiz-adv-x="512" d="M290 539 L254 574 L398 746 L455 686 L290 539 Z " />
<glyph glyph-name="dieresistonos" unicode="&#x385;" horiz-adv-x="512" d="M478 622 Q476 598 458.5 582 Q441 566 418 566 Q397 566 384.5 580 Q372 594 374 615 Q376 638 394 654.5 Q412 671 432 671 Q452 671 466 657.5 Q480 644 478 622 Z M236 624 Q234 599 217 583.5 Q200 568 177 568 Q155 568 142 582 Q129 596 130 616 Q132 639 150 655.5 Q168 672 188 672 Q210 672 224 658.5 Q238 645 236 624 Z M281 542 L236 562 L335 758 L411 720 L281 542 Z " />
<glyph glyph-name="anoteleia" unicode="&#x387;" horiz-adv-x="221" d="M192 366 Q190 338 170 318 Q150 298 124 298 Q99 298 83.5 316 Q68 334 70 358 Q72 386 92.5 405 Q113 424 139 424 Q163 424 178.5 407 Q194 390 192 366 Z " />
<glyph glyph-name="Alphatonos" unicode="&#x386;" horiz-adv-x="676" d="M408 0 L416 75 L481 75 L460 189 L211 189 L162 75 L228 75 L220 0 L-6 0 L1 75 L58 75 L333 686 L465 686 L588 75 L641 75 L632 0 L408 0 Z M411 464 L389 598 L386 598 L333 472 L245 265 L447 265 L411 464 Z M70 526 L34 561 L178 733 L235 673 L70 526 Z " />
<glyph glyph-name="Epsilontonos" unicode="&#x388;" horiz-adv-x="589" d="M16 0 L24 75 L90 75 L156 611 L93 611 L101 685 L601 685 L579 512 L501 512 L513 611 L263 611 L236 393 L472 398 L464 319 L227 323 L197 75 L467 75 L480 177 L560 177 L538 0 L16 0 Z M-99 527 L-135 562 L9 734 L66 674 L-99 527 Z " />
<glyph glyph-name="Etatonos" unicode="&#x389;" horiz-adv-x="717" d="M419 0 L428 76 L488 76 L518 321 L226 321 L196 76 L257 76 L248 0 L16 0 L24 76 L88 76 L154 611 L90 611 L99 686 L331 686 L322 611 L261 611 L235 396 L527 396 L553 611 L493 611 L502 686 L735 686 L726 611 L662 611 L596 76 L660 76 L652 0 L419 0 Z M-101 525 L-137 560 L7 732 L64 672 L-101 525 Z " />
<glyph glyph-name="Iotatonos" unicode="&#x38a;" horiz-adv-x="370" d="M43 0 L52 75 L115 75 L180 611 L117 611 L126 686 L360 686 L351 611 L287 611 L221 75 L285 75 L277 0 L43 0 Z M-72 525 L-108 560 L36 732 L93 672 L-72 525 Z " />
<glyph glyph-name="Omicrontonos" unicode="&#x38c;" horiz-adv-x="684" d="M398 697 Q470 697 519 675 Q568 653 598 614 Q628 575 641.5 523 Q655 471 655 411 Q655 323 633.5 246.5 Q612 170 570 113 Q528 56 466.5 23.5 Q405 -9 325 -9 Q255 -9 205 10.5 Q155 30 123 66 Q91 102 76 153 Q61 204 61 267 Q61 348 80.5 425.5 Q100 503 141 563.5 Q182 624 245.5 660.5 Q309 697 398 697 Z M395 617 Q331 617 288.5 585 Q246 553 220 502.5 Q194 452 183 389.5 Q172 327 172 265 Q172 170 209 121 Q246 72 330 72 Q387 72 427.5 100 Q468 128 493.5 175.5 Q519 223 531 285 Q543 347 543 415 Q543 455 536.5 491.5 Q530 528 513.5 556 Q497 584 468.5 600.5 Q440 617 395 617 Z M-36 528 L-72 563 L72 735 L129 675 L-36 528 Z " />
<glyph glyph-name="Upsilontonos" unicode="&#x38e;" horiz-adv-x="603" d="M482 610 L420 610 L429 686 L650 686 L641 610 L591 610 L366 287 L341 75 L417 75 L409 0 L141 0 L149 75 L227 75 L252 284 L111 610 L61 610 L70 686 L287 686 L278 610 L218 610 L316 364 L320 364 L482 610 Z M-121 528 L-157 563 L-13 735 L44 675 L-121 528 Z " />
<glyph glyph-name="Omegatonos" unicode="&#x38f;" horiz-adv-x="699" d="M403 697 Q476 697 526.5 675.5 Q577 654 608 616.5 Q639 579 652.5 528 Q666 477 666 419 Q666 370 657 318 Q648 266 631 219.5 Q614 173 589.5 135 Q565 97 534 75 L646 75 Q643 56 641 37.5 Q639 19 637 0 L380 0 Q383 19 385.5 39 Q388 59 390 79 Q432 90 462.5 120.5 Q493 151 513 196 Q533 241 543 297.5 Q553 354 553 416 Q553 460 545 497 Q537 534 519 560.5 Q501 587 472 601.5 Q443 616 401 616 Q340 616 298 586.5 Q256 557 229.5 507.5 Q203 458 191.5 392.5 Q180 327 180 256 Q180 187 204 140 Q228 93 273 80 Q270 60 267.5 40 Q265 20 263 0 L9 0 Q11 19 13 37.5 Q15 56 17 75 L130 75 Q130 76 131 76 Q99 103 84.5 147.5 Q70 192 68 246 Q68 330 85 411 Q102 492 141 555.5 Q180 619 244 658 Q308 697 403 697 Z M-27 528 L-63 563 L81 735 L138 675 L-27 528 Z " />
<glyph glyph-name="Tau" unicode="&#x3a4;" horiz-adv-x="569" d="M128 0 L137 75 L216 75 L282 611 L143 611 L131 505 L53 505 L75 686 L612 686 L590 505 L511 505 L524 611 L387 611 L322 75 L402 75 L394 0 L128 0 Z " />
<glyph glyph-name="Upsilon" unicode="&#x3a5;" horiz-adv-x="603" d="M482 610 L420 610 L429 686 L650 686 L641 610 L591 610 L366 287 L341 75 L417 75 L409 0 L141 0 L149 75 L227 75 L252 284 L111 610 L61 610 L70 686 L287 686 L278 610 L218 610 L316 364 L320 364 L482 610 Z " />
<glyph glyph-name="Chi" unicode="&#x3a7;" horiz-adv-x="647" d="M453 686 L678 686 L669 610 L614 610 L407 352 L548 76 L610 76 L602 0 L354 0 L363 76 L427 76 L320 291 L158 76 L230 76 L221 0 L-7 0 L1 76 L48 76 L268 364 L145 610 L79 610 L88 686 L331 686 L322 610 L262 610 L355 420 L503 610 L444 610 L453 686 Z " />
<glyph glyph-name="iotadieresistonos" unicode="&#x390;" horiz-adv-x="318" d="M185 500 Q217 500 228.5 490 Q240 480 240 459 Q240 456 236.5 428.5 Q233 401 228 361.5 Q223 322 217.5 275.5 Q212 229 206.5 187.5 Q201 146 197 115.5 Q193 85 192 77 Q233 80 272 101 L295 56 Q260 21 221 4 Q182 -13 153 -13 Q115 -13 100.5 5 Q86 23 86 51 Q86 57 86.5 63.5 Q87 70 88 78 L131 413 L46 428 L49 479 Q91 490 126 495 Q161 500 185 500 Z M359 622 Q357 598 339.5 582 Q322 566 299 566 Q278 566 265.5 580 Q253 594 255 615 Q257 638 275 654.5 Q293 671 313 671 Q333 671 347 657.5 Q361 644 359 622 Z M117 624 Q115 599 98 583.5 Q81 568 58 568 Q36 568 23 582 Q10 596 11 616 Q13 639 31 655.5 Q49 672 69 672 Q91 672 105 658.5 Q119 645 117 624 Z M162 542 L117 562 L216 758 L292 720 L162 542 Z " />
<glyph glyph-name="Iotadieresis" unicode="&#x3aa;" horiz-adv-x="370" d="M43 0 L52 75 L115 75 L180 611 L117 611 L126 686 L360 686 L351 611 L287 611 L221 75 L285 75 L277 0 L43 0 Z M401 789 Q399 764 382 747.5 Q365 731 340 731 Q319 731 306.5 745 Q294 759 296 780 Q297 804 314 820.5 Q331 837 353 837 Q375 837 389 823.5 Q403 810 401 789 Z M217 789 Q215 764 197.5 747.5 Q180 731 157 731 Q135 731 122 745.5 Q109 760 110 781 Q111 804 129.5 820.5 Q148 837 168 837 Q191 837 204.5 823.5 Q218 810 217 789 Z " />
<glyph glyph-name="Upsilondieresis" unicode="&#x3ab;" horiz-adv-x="603" d="M482 610 L420 610 L429 686 L650 686 L641 610 L591 610 L366 287 L341 75 L417 75 L409 0 L141 0 L149 75 L227 75 L252 284 L111 610 L61 610 L70 686 L287 686 L278 610 L218 610 L316 364 L320 364 L482 610 Z M523 789 Q521 764 504 747.5 Q487 731 462 731 Q441 731 428.5 745 Q416 759 418 780 Q419 804 436 820.5 Q453 837 475 837 Q497 837 511 823.5 Q525 810 523 789 Z M339 789 Q337 764 319.5 747.5 Q302 731 279 731 Q257 731 244 745.5 Q231 760 232 781 Q233 804 251.5 820.5 Q270 837 290 837 Q313 837 326.5 823.5 Q340 810 339 789 Z " />
<glyph glyph-name="tilde" unicode="&#x2dc;" horiz-adv-x="512" d="M377 571 Q354 571 333.5 577 Q313 583 294.5 590.5 Q276 598 259.5 604 Q243 610 229 610 L170 571 L140 596 Q160 637 186 657.5 Q212 678 241 678 Q260 678 280 672 Q300 666 319 659.5 Q338 653 356 647 Q374 641 389 641 L449 680 L476 654 Q459 616 433.5 593.5 Q408 571 377 571 Z " />
<glyph glyph-name="macron" unicode="&#xaf;" horiz-adv-x="512" d="M147 658 L475 658 L465 583 L138 583 L147 658 Z " />
<glyph glyph-name="iotadieresis" unicode="&#x3ca;" horiz-adv-x="318" d="M185 500 Q217 500 228.5 490 Q240 480 240 459 Q240 456 236.5 428.5 Q233 401 228 361.5 Q223 322 217.5 275.5 Q212 229 206.5 187.5 Q201 146 197 115.5 Q193 85 192 77 Q233 80 272 101 L295 56 Q260 21 221 4 Q182 -13 153 -13 Q115 -13 100.5 5 Q86 23 86 51 Q86 57 86.5 63.5 Q87 70 88 78 L131 413 L46 428 L49 479 Q91 490 126 495 Q161 500 185 500 Z M272 670 Q294 670 307.5 657.5 Q321 645 321 623 Q321 597 303.5 578.5 Q286 560 259 560 Q239 560 226 573.5 Q213 587 213 608 Q213 634 231.5 652 Q250 670 272 670 Z M84 670 Q107 670 120.5 657.5 Q134 645 134 623 Q134 597 116 578.5 Q98 560 72 560 Q51 560 37.5 573.5 Q24 587 24 608 Q24 634 43 652 Q62 670 84 670 Z " />
<glyph glyph-name="upsilondieresis" unicode="&#x3cb;" horiz-adv-x="575" d="M478 507 Q504 507 520.5 495 Q537 483 537 448 Q537 407 529 357.5 Q521 308 504.5 257.5 Q488 207 462 159 Q436 111 400.5 73.5 Q365 36 319.5 13.5 Q274 -9 217 -9 Q180 -9 156.5 0.5 Q133 10 119.5 25.5 Q106 41 100.5 61 Q95 81 95 102 Q95 113 101.5 194 Q108 275 124 413 Q101 416 77.5 419.5 Q54 423 31 427 L35 477 Q78 489 113.5 494 Q149 499 178 499 Q206 499 218.5 490 Q231 481 231 458 Q231 451 228.5 424.5 Q226 398 222 362.5 Q218 327 213.5 287 Q209 247 205 212.5 Q201 178 198.5 153 Q196 128 196 122 Q196 96 206.5 82 Q217 68 244 68 Q281 68 314 101.5 Q347 135 372.5 186.5 Q398 238 413.5 300.5 Q429 363 432 420 L366 405 L354 448 Q386 478 420.5 492.5 Q455 507 478 507 Z M418 670 Q440 670 453.5 657.5 Q467 645 467 623 Q467 597 449.5 578.5 Q432 560 405 560 Q385 560 372 573.5 Q359 587 359 608 Q359 634 377.5 652 Q396 670 418 670 Z M230 670 Q253 670 266.5 657.5 Q280 645 280 623 Q280 597 262 578.5 Q244 560 218 560 Q197 560 183.5 573.5 Q170 587 170 608 Q170 634 189 652 Q208 670 230 670 Z " />
<glyph glyph-name="etatonos" unicode="&#x3ae;" horiz-adv-x="571" d="M417 499 Q474 499 495.5 469 Q517 439 517 380 Q517 369 512.5 325.5 Q508 282 501 220.5 Q494 159 485.5 87 Q477 15 470 -51 Q507 -48 547 -28 L569 -72 Q531 -107 490.5 -123 Q450 -139 424 -139 Q365 -139 365 -80 Q365 -75 365 -67 Q365 -59 366 -51 Q373 29 381 100.5 Q389 172 396 227.5 Q403 283 407 319 Q411 355 411 363 Q411 386 401 401.5 Q391 417 368 417 Q350 417 328.5 405.5 Q307 394 285 369 Q263 344 242 304.5 Q221 265 204 210 L175 0 L73 0 Q81 64 88 117 Q95 170 101 218.5 Q107 267 112.5 313.5 Q118 360 124 412 L32 427 L35 478 Q78 489 112 494 Q146 499 175 499 Q207 499 217.5 488.5 Q228 478 228 454 Q228 435 224.5 407 Q221 379 216 346 L220 346 Q243 391 270.5 420.5 Q298 450 325 467.5 Q352 485 376 492 Q400 499 417 499 Z M286 539 L250 574 L394 746 L451 686 L286 539 Z " />
<glyph glyph-name="iotatonos" unicode="&#x3af;" horiz-adv-x="318" d="M185 500 Q217 500 228.5 490 Q240 480 240 459 Q240 456 236.5 428.5 Q233 401 228 361.5 Q223 322 217.5 275.5 Q212 229 206.5 187.5 Q201 146 197 115.5 Q193 85 192 77 Q233 80 272 101 L295 56 Q260 21 221 4 Q182 -13 153 -13 Q115 -13 100.5 5 Q86 23 86 51 Q86 57 86.5 63.5 Q87 70 88 78 L131 413 L46 428 L49 479 Q91 490 126 495 Q161 500 185 500 Z M154 539 L118 574 L262 746 L319 686 L154 539 Z " />
<glyph glyph-name="upsilondieresistonos" unicode="&#x3b0;" horiz-adv-x="575" d="M478 507 Q504 507 520.5 495 Q537 483 537 448 Q537 407 529 357.5 Q521 308 504.5 257.5 Q488 207 462 159 Q436 111 400.5 73.5 Q365 36 319.5 13.5 Q274 -9 217 -9 Q180 -9 156.5 0.5 Q133 10 119.5 25.5 Q106 41 100.5 61 Q95 81 95 102 Q95 113 101.5 194 Q108 275 124 413 Q101 416 77.5 419.5 Q54 423 31 427 L35 477 Q78 489 113.5 494 Q149 499 178 499 Q206 499 218.5 490 Q231 481 231 458 Q231 451 228.5 424.5 Q226 398 222 362.5 Q218 327 213.5 287 Q209 247 205 212.5 Q201 178 198.5 153 Q196 128 196 122 Q196 96 206.5 82 Q217 68 244 68 Q281 68 314 101.5 Q347 135 372.5 186.5 Q398 238 413.5 300.5 Q429 363 432 420 L366 405 L354 448 Q386 478 420.5 492.5 Q455 507 478 507 Z M501 622 Q499 598 481.5 582 Q464 566 441 566 Q420 566 407.5 580 Q395 594 397 615 Q399 638 417 654.5 Q435 671 455 671 Q475 671 489 657.5 Q503 644 501 622 Z M259 624 Q257 599 240 583.5 Q223 568 200 568 Q178 568 165 582 Q152 596 153 616 Q155 639 173 655.5 Q191 672 211 672 Q233 672 247 658.5 Q261 645 259 624 Z M304 542 L259 562 L358 758 L434 720 L304 542 Z " />
<glyph glyph-name="omegatonos" unicode="&#x3ce;" horiz-adv-x="739" d="M431 335 L411 164 Q410 159 410 149 Q410 117 425.5 94.5 Q441 72 477 72 Q535 72 569 130 Q603 188 603 292 Q603 335 587 371 Q571 407 529 431 L562 497 Q601 485 628 464 Q655 443 671.5 416 Q688 389 695 356.5 Q702 324 702 290 Q702 235 689 181.5 Q676 128 648.5 86 Q621 44 578 18.5 Q535 -7 475 -7 Q429 -7 396.5 12.5 Q364 32 351 68 L348 68 Q324 31 286 12 Q248 -7 204 -7 Q154 -7 122 8 Q90 23 71.5 49.5 Q53 76 45.5 111 Q38 146 38 186 Q38 238 49 288.5 Q60 339 84.5 381 Q109 423 148.5 453.5 Q188 484 245 498 L265 431 Q228 416 204 389 Q180 362 165.5 328 Q151 294 145 256.5 Q139 219 139 182 Q139 159 143 139 Q147 119 157 104 Q167 89 183.5 80.5 Q200 72 224 72 Q269 72 291.5 100 Q314 128 319 164 L340 335 L431 335 Z M386 539 L350 574 L494 746 L551 686 L386 539 Z " />
<glyph glyph-name="epsilontonos" unicode="&#x3ad;" horiz-adv-x="453" d="M271 500 Q309 501 341.5 495.5 Q374 490 400 480 Q423 471 430 460 Q437 449 435 433 Q435 428 432.5 417 Q430 406 426.5 392 Q423 378 417.5 362 Q412 346 406 332 L350 335 L351 418 Q310 429 275 429 Q233 429 202.5 409 Q172 389 172 348 Q172 330 180.5 319 Q189 308 202.5 302 Q216 296 232.5 294.5 Q249 293 264 293 L314 293 L309 232 L255 232 Q239 232 219.5 228 Q200 224 183 213.5 Q166 203 154.5 185.5 Q143 168 143 141 Q143 101 173.5 84.5 Q204 68 253 68 Q288 68 323 74.5 Q358 81 396 95 L417 36 Q399 26 376 18 Q353 10 327.5 4 Q302 -2 276 -5 Q250 -8 226 -8 Q184 -8 149.5 -0.5 Q115 7 90 23 Q65 39 51 63.5 Q37 88 37 122 Q37 150 45.5 172.5 Q54 195 68 212 Q82 229 100 240.5 Q118 252 138 258 L140 261 Q110 272 89.5 295 Q69 318 69 353 Q69 422 124.5 461 Q180 500 271 500 Z M248 539 L212 574 L356 746 L413 686 L248 539 Z " />
<glyph glyph-name="OE" unicode="&#x152;" horiz-adv-x="826" d="M396 697 Q422 697 446.5 693.5 Q471 690 492 684 L840 684 Q835 640 829.5 597.5 Q824 555 819 511 L741 511 Q744 536 746.5 560.5 Q749 585 753 610 L521 610 L494 393 Q548 394 602 394.5 Q656 395 710 397 L701 319 Q647 320 593.5 320.5 Q540 321 486 321 L456 75 L704 75 L717 177 L797 177 Q792 132 786.5 88 Q781 44 776 0 L396 0 Q377 -3 358.5 -5 Q340 -7 320 -7 Q250 -7 200 12 Q150 31 118.5 66.5 Q87 102 72.5 152.5 Q58 203 58 266 Q58 348 77.5 425.5 Q97 503 138 563.5 Q179 624 243 660.5 Q307 697 396 697 Z M325 71 Q331 71 337 71 Q343 71 348 72 L416 614 Q410 615 404.5 615.5 Q399 616 391 616 Q327 616 284 583.5 Q241 551 215 500 Q189 449 178 385.5 Q167 322 167 260 Q167 168 204 119.5 Q241 71 325 71 Z " />
<glyph glyph-name="paragraph" unicode="&#xb6;" horiz-adv-x="546" d="M243 312 Q205 312 174.5 324.5 Q144 337 122 359.5 Q100 382 88.5 413.5 Q77 445 77 483 Q77 529 93.5 568 Q110 607 138 635.5 Q166 664 204 680.5 Q242 697 286 697 L577 697 L568 624 L503 624 L402 -199 L330 -199 L432 624 L369 624 L268 -199 L114 -199 L123 -129 L204 -129 L257 312 L243 312 Z " />
<glyph glyph-name="oe" unicode="&#x153;" horiz-adv-x="822" d="M651 500 Q722 500 759 464.5 Q796 429 796 374 Q796 289 715 244.5 Q634 200 486 195 Q485 190 485 184 Q485 178 485 173 Q485 154 489 135 Q493 116 504 100.5 Q515 85 534.5 75.5 Q554 66 586 66 Q623 66 660 75.5 Q697 85 734 99 Q736 94 738.5 86.5 Q741 79 744 70 Q747 61 750 53 Q753 45 755 40 Q719 18 666.5 5.5 Q614 -7 563 -7 Q499 -7 464 17 Q429 41 412 79 Q383 42 338.5 17.5 Q294 -7 233 -7 Q177 -7 140 8 Q103 23 81 49 Q59 75 49.5 111 Q40 147 40 189 Q40 244 54 299.5 Q68 355 98.5 399 Q129 443 177.5 470.5 Q226 498 294 498 Q357 498 397 472.5 Q437 447 457 406 Q488 448 534 474 Q580 500 651 500 Z M291 420 Q246 420 217.5 395 Q189 370 172.5 333.5 Q156 297 150 255 Q144 213 144 180 Q144 157 148.5 137 Q153 117 164.5 101 Q176 85 195 76 Q214 67 243 67 Q286 67 313.5 90.5 Q341 114 357 149 Q373 184 379 224 Q385 264 385 296 Q385 321 380.5 343.5 Q376 366 365.5 383 Q355 400 337 410 Q319 420 291 420 Z M638 423 Q571 423 535 376 Q499 329 491 249 Q592 254 648 281.5 Q704 309 704 362 Q704 389 687.5 406 Q671 423 638 423 Z " />
<glyph glyph-name="ae" unicode="&#xe6;" horiz-adv-x="782" d="M609 501 Q677 501 714.5 466 Q752 431 752 374 Q752 333 731 304.5 Q710 276 670 257 Q630 238 572.5 228 Q515 218 443 216 Q443 207 442.5 197.5 Q442 188 442 178 Q442 156 446 136 Q450 116 461 100.5 Q472 85 491.5 75.5 Q511 66 543 66 Q580 66 617.5 75.5 Q655 85 691 100 L713 40 Q695 29 672 20.5 Q649 12 623.5 5.5 Q598 -1 571.5 -4.5 Q545 -8 520 -8 Q454 -8 417 14.5 Q380 37 363 74 Q305 25 249.5 6.5 Q194 -12 148 -12 Q110 -12 87 -1.5 Q64 9 50.5 25.5 Q37 42 32.5 62.5 Q28 83 28 103 Q28 136 40 167 Q52 198 87 222 Q122 246 184.5 259.5 Q247 273 348 271 Q350 285 352.5 304.5 Q355 324 355 334 Q355 384 333.5 402 Q312 420 260 420 Q228 420 186.5 412.5 Q145 405 110 393 L93 459 Q137 478 186.5 488.5 Q236 499 284 499 Q303 499 324 496.5 Q345 494 363.5 486 Q382 478 397.5 461 Q413 444 421 416 Q452 456 497.5 478.5 Q543 501 609 501 Z M199 59 Q211 59 227.5 61.5 Q244 64 263 71 Q282 78 303 90.5 Q324 103 345 124 Q343 138 342 152.5 Q341 167 341 182 Q341 189 341 199.5 Q341 210 342 220 Q276 218 236 209.5 Q196 201 174.5 187 Q153 173 146 155.5 Q139 138 139 120 Q139 94 153 76.5 Q167 59 199 59 Z M594 424 Q560 424 534 411.5 Q508 399 489.5 378 Q471 357 460 328.5 Q449 300 446 268 Q548 270 604 291.5 Q660 313 660 363 Q660 390 644 407 Q628 424 594 424 Z " />
<glyph glyph-name="AE" unicode="&#xc6;" horiz-adv-x="956" d="M496 75 L501 204 L259 204 L175 75 L242 75 L239 0 L5 0 L8 75 L63 75 L454 684 L922 684 L913 511 L836 511 L842 608 L625 610 L616 393 L828 397 L825 319 L613 321 L602 75 L840 75 L845 177 L925 177 L916 0 L426 0 L429 75 L496 75 Z M304 280 L505 280 L520 606 L514 606 L304 280 Z " />
<glyph glyph-name="numbersign" unicode="&#x23;" horiz-adv-x="539" d="M442 404 L389 251 L465 251 L451 196 L370 196 L305 0 L245 0 L309 196 L181 196 L115 0 L55 0 L120 196 L48 196 L62 251 L139 251 L192 404 L113 404 L126 458 L210 458 L270 632 L330 632 L271 458 L400 458 L460 632 L520 632 L460 458 L530 458 L516 404 L442 404 Z M201 251 L329 251 L380 404 L252 404 L201 251 Z " />
<glyph glyph-name="fj" unicode="&#xe1f8;" horiz-adv-x="561" d="M483 94 Q476 32 462.5 -19.5 Q449 -71 423.5 -111 Q398 -151 358 -178.5 Q318 -206 258 -219 L239 -154 Q281 -136 306.5 -111.5 Q332 -87 346.5 -56.5 Q361 -26 367.5 10 Q374 46 379 87 L412 412 L217 412 Q216 406 213.5 383 Q211 360 207 328 Q203 296 199 259.5 Q195 223 191.5 191 Q188 159 185 135.5 Q182 112 182 107 Q174 42 163.5 -17 Q153 -76 131 -121 Q109 -166 71.5 -193 Q34 -220 -29 -220 Q-51 -220 -77 -216.5 Q-103 -213 -131 -204 L-113 -137 Q-90 -142 -74.5 -143 Q-59 -144 -45 -144 Q1 -144 28.5 -109 Q56 -74 68 14 Q78 96 85.5 155 Q93 214 98 256 Q103 298 106 324.5 Q109 351 111 368 Q113 385 114 394.5 Q115 404 116 412 L32 412 L39 466 L123 485 L135 563 Q146 646 198 689.5 Q250 733 347 733 Q379 733 416 728.5 Q453 724 494 712 L475 639 Q440 646 412.5 649 Q385 652 357 652 Q300 652 271 629 Q242 606 235 547 L226 479 L357 479 Q380 479 423.5 484 Q467 489 511 497 L525 489 L483 94 Z " />
<glyph glyph-name="ffj" unicode="&#xe1f9;" horiz-adv-x="853" d="M775 124 Q768 63 754.5 11.5 Q741 -40 715.5 -79.5 Q690 -119 650 -147 Q610 -175 550 -188 Q545 -171 541 -155 Q537 -139 532 -123 Q577 -104 603 -76 Q629 -48 643 -13.5 Q657 21 663 61 Q669 101 674 145 L703 410 L512 410 Q503 335 495 263.5 Q487 192 479 122 Q471 57 461.5 -2 Q452 -61 430.5 -106.5 Q409 -152 372 -179 Q335 -206 272 -206 Q246 -206 223.5 -203 Q201 -200 177 -192 L196 -124 Q214 -127 228 -128 Q242 -129 255 -129 Q283 -129 302.5 -117 Q322 -105 335 -84 Q348 -63 355.5 -33 Q363 -3 367 33 Q368 46 372 78 Q376 110 380.5 151.5 Q385 193 390.5 237.5 Q396 282 400.5 320 Q405 358 408 383 Q411 408 411 410 L222 410 L185 103 Q177 39 167 -19.5 Q157 -78 135 -123 Q113 -168 76 -195 Q39 -222 -23 -222 Q-52 -222 -76.5 -218 Q-101 -214 -126 -206 Q-121 -189 -116 -171.5 Q-111 -154 -107 -137 Q-82 -142 -67 -143 Q-52 -144 -37 -144 Q-10 -144 9.5 -130.5 Q29 -117 41.5 -93.5 Q54 -70 62 -37.5 Q70 -5 75 34 Q79 62 83.5 100.5 Q88 139 93 180.5 Q98 222 103 262 Q108 302 112 334.5 Q116 367 118.5 387.5 Q121 408 121 410 L37 410 Q39 424 40.5 437.5 Q42 451 44 465 L129 484 L133 514 Q144 623 201 670.5 Q258 718 364 718 Q393 718 429 713 Q465 708 491 699 Q520 722 556.5 733.5 Q593 745 648 745 Q683 745 720 740 Q757 735 792 726 Q787 707 782.5 688.5 Q778 670 773 651 Q744 657 716.5 661 Q689 665 663 665 Q601 665 568.5 642 Q536 619 529 559 L520 479 L647 479 Q671 479 714 483.5 Q757 488 801 496 Q805 494 808.5 492 Q812 490 816 488 L775 124 Z M365 638 Q341 638 319 634 Q297 630 279.5 617 Q262 604 250 579 Q238 554 234 512 L230 479 L419 479 Q422 503 425 527.5 Q428 552 432 577 Q434 591 437 604.5 Q440 618 445 629 Q435 631 423 632.5 Q411 634 400 635.5 Q389 637 379.5 637.5 Q370 638 365 638 Z " />
<glyph glyph-name="ff" unicode="&#xfb00;" horiz-adv-x="661" d="M515 410 Q507 332 499 258 Q491 184 481 112 Q473 49 462.5 -8.5 Q452 -66 430 -110.5 Q408 -155 370 -181.5 Q332 -208 270 -208 Q251 -208 227.5 -205 Q204 -202 180 -194 L199 -125 Q217 -130 230 -131 Q243 -132 255 -132 Q279 -132 297.5 -124 Q316 -116 330 -97.5 Q344 -79 353.5 -48.5 Q363 -18 369 26 L416 410 L220 410 L184 103 Q176 39 166 -19.5 Q156 -78 134 -123 Q112 -168 74.5 -195 Q37 -222 -25 -222 Q-54 -221 -78.5 -218 Q-103 -215 -127 -207 L-108 -139 Q-85 -144 -70 -145 Q-55 -146 -40 -146 Q-12 -146 7 -136 Q26 -126 39.5 -105 Q53 -84 61 -52 Q69 -20 74 24 Q77 46 81.5 82 Q86 118 91 158.5 Q96 199 101 241 Q106 283 110.5 318.5 Q115 354 117.5 379 Q120 404 121 410 L37 410 Q38 424 39.5 437.5 Q41 451 42 465 L130 484 L141 553 Q148 601 168 632.5 Q188 664 217 682.5 Q246 701 283.5 709 Q321 717 364 717 Q392 717 425.5 713 Q459 709 494 698 Q517 721 554.5 732 Q592 743 628 743 Q651 743 676 739 Q701 735 727 727 L709 655 Q689 660 669.5 661.5 Q650 663 636 663 Q620 663 604 659 Q588 655 574.5 646 Q561 637 551 623 Q541 609 537 590 Q532 565 529.5 541 Q527 517 523 479 L659 479 Q657 462 655 444.5 Q653 427 651 410 L515 410 Z M422 479 Q426 505 429 531.5 Q432 558 437 582 Q442 606 450 626 Q429 631 404.5 634.5 Q380 638 365 638 Q336 638 315 633 Q294 628 279.5 617.5 Q265 607 256 589.5 Q247 572 241 548 Q237 534 234.5 516.5 Q232 499 229 479 L422 479 Z " />
<glyph glyph-name="fi" unicode="&#xfb01;" horiz-adv-x="584" d="M356 479 Q368 479 385 480 Q402 481 422.5 483.5 Q443 486 465 489 Q487 492 509 496 Q513 494 516 492 Q519 490 523 488 Q509 368 497.5 269 Q486 170 474 76 Q494 78 514.5 83.5 Q535 89 554 99 L577 55 Q540 19 499.5 4 Q459 -11 433 -11 Q395 -11 382 6.5 Q369 24 369 52 Q369 75 373 99 Q377 123 379 146 L411 410 L216 410 L180 106 Q172 42 162 -17 Q152 -76 130.5 -121 Q109 -166 71.5 -193 Q34 -220 -28 -220 Q-77 -220 -131 -204 L-110 -128 Q-85 -133 -70 -134 Q-55 -135 -40 -135 Q-12 -135 7 -122 Q26 -109 38.5 -86.5 Q51 -64 58 -35 Q65 -6 69 27 Q84 149 92.5 220.5 Q101 292 105.5 331 Q110 370 112 385.5 Q114 401 115 410 L32 410 Q34 424 35.5 437.5 Q37 451 39 465 L123 484 L131 543 Q131 547 133 555 Q142 610 160.5 644.5 Q179 679 207 698 Q235 717 273 724 Q311 731 359 731 Q392 730 426.5 725 Q461 720 493 712 L474 638 Q439 645 412 648 Q385 651 357 651 Q319 651 297 644 Q275 637 262.5 623.5 Q250 610 244.5 591.5 Q239 573 235 550 Q233 537 230.5 521.5 Q228 506 225 479 L356 479 L356 479 Z " />
<glyph glyph-name="fl" unicode="&#xfb02;" horiz-adv-x="584" d="M526 734 L548 721 Q540 651 530.5 568.5 Q521 486 511.5 400.5 Q502 315 492.5 231.5 Q483 148 475 76 Q515 79 555 99 L579 52 Q542 17 504 2.5 Q466 -12 438 -12 Q399 -12 385 6.5 Q371 25 371 57 Q371 60 374.5 90 Q378 120 383.5 167.5 Q389 215 396 275 Q403 335 410.5 398.5 Q418 462 425 524 Q432 586 437 637 Q394 645 355 645 Q319 645 296 637.5 Q273 630 259 611 Q245 592 237.5 560 Q230 528 225 479 L357 479 Q355 462 353 444.5 Q351 427 349 410 L216 410 L180 106 Q172 42 162 -17 Q152 -76 130.5 -121 Q109 -166 71.5 -193 Q34 -220 -28 -220 Q-54 -220 -79.5 -215 Q-105 -210 -131 -204 L-111 -130 Q-86 -135 -71 -136 Q-56 -137 -41 -137 Q-14 -137 4.5 -127 Q23 -117 35.5 -96.5 Q48 -76 55.5 -45 Q63 -14 69 28 Q72 48 76 82 Q80 116 85 156.5 Q90 197 95 239.5 Q100 282 104 318 Q108 354 111 379 Q114 404 115 410 L34 410 Q35 424 36.5 437.5 Q38 451 40 465 L123 484 Q125 502 127 520 Q129 538 132 557 Q147 649 204.5 690 Q262 731 348 731 Q393 731 448 720 L526 734 Z " />
<glyph glyph-name="ffi" unicode="&#xfb03;" horiz-adv-x="873" d="M814 487 L764 76 Q804 79 844 99 L867 55 Q831 20 790 4.5 Q749 -11 722 -11 Q684 -11 672 9.5 Q660 30 660 59 L660 69 L669 160 Q677 223 684.5 285.5 Q692 348 699 410 L512 410 Q504 335 496 263.5 Q488 192 480 121 Q472 56 461.5 -4 Q451 -64 429 -109.5 Q407 -155 369 -182 Q331 -209 268 -209 Q249 -209 225.5 -206 Q202 -203 178 -196 L196 -124 Q215 -128 228.5 -129 Q242 -130 254 -130 Q284 -130 303.5 -117.5 Q323 -105 335.5 -83.5 Q348 -62 355 -34 Q362 -6 367 24 Q370 47 374.5 82.5 Q379 118 384 158.5 Q389 199 393.5 241 Q398 283 401.5 318 Q405 353 407.5 378 Q410 403 411 410 L222 410 Q213 335 204 256.5 Q195 178 185 103 Q178 39 167.5 -19.5 Q157 -78 135.5 -123 Q114 -168 76.5 -195 Q39 -222 -23 -222 Q-52 -221 -76.5 -217.5 Q-101 -214 -126 -206 L-107 -136 Q-82 -141 -67 -142.5 Q-52 -144 -37 -144 Q-12 -144 6 -135.5 Q24 -127 37 -108.5 Q50 -90 58.5 -59.5 Q67 -29 73 16 Q76 39 80.5 75.5 Q85 112 90 153.5 Q95 195 100.5 237.5 Q106 280 110 316 Q114 352 117 377.5 Q120 403 121 410 L37 410 Q39 424 40.5 437.5 Q42 451 44 465 L129 484 L134 523 Q140 581 163 619.5 Q186 658 220.5 680.5 Q255 703 296.5 711 Q338 719 382 718 Q411 717 439 711.5 Q467 706 491 699 Q549 745 650 745 Q685 745 721 740 Q757 735 792 726 Q787 708 782.5 689 Q778 670 773 652 Q745 657 718.5 661 Q692 665 667 665 Q640 665 616.5 660.5 Q593 656 575 644 Q557 632 544.5 611 Q532 590 528 557 L520 479 L639 479 Q650 479 669.5 479.5 Q689 480 712 481.5 Q735 483 758 486 Q781 489 799 493 L814 487 Z M365 638 Q341 638 319 634 Q297 630 279.5 617 Q262 604 250 579 Q238 554 234 512 L230 479 L419 479 Q422 503 424.5 527.5 Q427 552 431 577 Q435 605 445 629 Q424 633 400 635.5 Q376 638 365 638 Z " />
<glyph glyph-name="ffl" unicode="&#xfb04;" horiz-adv-x="876" d="M644 747 Q658 747 683.5 745.5 Q709 744 737 739 L821 754 L843 741 Q834 669 824.5 584 Q815 499 804.5 410.5 Q794 322 784 236 Q774 150 765 76 Q804 79 846 99 L868 55 Q840 29 811.5 14 Q783 -1 760 -6 Q748 -9 737.5 -10 Q727 -11 718 -11 Q683 -9 672 10.5 Q661 30 661 61 Q661 66 662.5 79 Q664 92 666 112 Q670 145 675 190 Q680 235 686.5 285.5 Q693 336 699.5 389 Q706 442 712 491.5 Q718 541 723 584.5 Q728 628 731 659 Q710 663 692.5 664.5 Q675 666 655 666 Q604 666 570 642.5 Q536 619 528 557 Q527 547 526 539.5 Q525 532 524 524 Q523 516 522 505.5 Q521 495 520 479 L653 479 Q651 462 649 444.5 Q647 427 645 410 L511 410 Q505 366 499.5 319 Q494 272 489 225 Q484 178 478.5 134.5 Q473 91 469 55 Q462 1 453.5 -47.5 Q445 -96 424.5 -132.5 Q404 -169 367.5 -190 Q331 -211 268 -211 Q250 -211 227 -208 Q204 -205 180 -197 Q185 -180 189.5 -163 Q194 -146 198 -129 Q217 -132 230 -133 Q243 -134 255 -134 Q280 -134 297.5 -128.5 Q315 -123 327 -109.5 Q339 -96 347 -74 Q355 -52 361 -18 Q364 -1 368.5 34 Q373 69 378 112.5 Q383 156 388.5 203 Q394 250 398.5 292 Q403 334 406 365.5 Q409 397 411 410 L222 410 L185 103 Q176 28 165.5 -32 Q155 -92 134 -134 Q113 -176 76 -199 Q39 -222 -23 -222 Q-52 -221 -76.5 -217.5 Q-101 -214 -126 -206 L-108 -139 Q-83 -144 -68 -145 Q-53 -146 -38 -146 Q-14 -146 4 -139 Q22 -132 35 -113.5 Q48 -95 57 -63.5 Q66 -32 73 16 Q75 30 79 62.5 Q83 95 88 136.5 Q93 178 98.5 223.5 Q104 269 109 308 Q114 347 117 375 Q120 403 121 410 L37 410 Q39 424 40.5 437.5 Q42 451 44 465 L129 484 Q131 508 132.5 513.5 Q134 519 134 521 Q145 615 201.5 667 Q258 719 367 719 Q399 719 429.5 713 Q460 707 491 699 Q520 724 558.5 735.5 Q597 747 644 747 Z M420 479 Q423 503 425.5 527.5 Q428 552 432 577 Q434 591 437 604.5 Q440 618 445 629 Q424 633 402 636 Q380 639 360 639 Q337 639 316 633.5 Q295 628 278.5 613.5 Q262 599 250 574.5 Q238 550 234 512 L230 479 L420 479 Z " />
<glyph glyph-name="ft" unicode="&#xfb05;" horiz-adv-x="678" d="M404 648 Q386 653 368.5 654.5 Q351 656 337 656 Q317 656 299.5 650 Q282 644 268.5 628.5 Q255 613 245 585.5 Q235 558 231 516 L227 479 L418 479 Q422 491 428.5 507.5 Q435 524 442 541.5 Q449 559 455.5 574.5 Q462 590 466 601 Q472 602 481.5 603 Q491 604 501 605 Q511 606 520.5 607 Q530 608 535 609 L519 479 L661 479 L654 411 L512 411 Q504 349 496 281 Q488 213 480 151 Q479 146 479 141.5 Q479 137 479 132 Q479 105 490 90 Q501 75 534 75 Q548 75 574 77.5 Q600 80 628 88 L641 20 Q626 14 606.5 9 Q587 4 568 0.5 Q549 -3 531.5 -4.5 Q514 -6 502 -6 Q437 -6 405 21 Q373 48 373 99 Q373 104 373.5 109.5 Q374 115 374 120 Q383 190 392 266.5 Q401 343 409 411 L217 411 L182 98 Q173 25 162.5 -33 Q152 -91 131 -131.5 Q110 -172 72.5 -194 Q35 -216 -28 -216 Q-45 -216 -72.5 -213 Q-100 -210 -129 -201 L-111 -132 Q-87 -137 -72 -138 Q-57 -139 -42 -139 Q-17 -139 1 -131.5 Q19 -124 32 -105.5 Q45 -87 54.5 -55.5 Q64 -24 71 24 Q73 40 77 73.5 Q81 107 86 147.5 Q91 188 96 231.5 Q101 275 105.5 312.5 Q110 350 113 377 Q116 404 117 411 L34 411 L41 465 L124 485 L129 519 Q135 564 148 603.5 Q161 643 183.5 672.5 Q206 702 241 719 Q276 736 327 736 Q347 736 371 733 Q395 730 421 722 L404 648 Z " />
<glyph glyph-name="afii10051" unicode="&#x402;" horiz-adv-x="771" d="M545 422 Q636 422 684.5 375 Q733 328 733 240 Q733 178 712.5 124 Q692 70 658.5 25.5 Q625 -19 582.5 -53.5 Q540 -88 497 -112 L462 -55 Q533 -4 576.5 63 Q620 130 620 215 Q620 282 591 311 Q562 340 506 340 Q474 340 435 332.5 Q396 325 358 310 L329 75 L402 75 L394 0 L148 0 L157 75 L224 75 L289 611 L151 611 L141 522 L62 522 L82 685 L686 685 L666 522 L588 522 L598 611 L395 611 L368 386 Q416 405 461.5 413.5 Q507 422 545 422 Z " />
<glyph glyph-name="afii10053" unicode="&#x404;" horiz-adv-x="575" d="M518 103 Q521 83 525 63.5 Q529 44 533 24 Q513 16 487.5 10.5 Q462 5 435 1 Q408 -3 380.5 -5 Q353 -7 329 -7 Q255 -7 204 12 Q153 31 121.5 67 Q90 103 75.5 154 Q61 205 61 268 Q61 310 66.5 358.5 Q72 407 86.5 454.5 Q101 502 126 546 Q151 590 189.5 623.5 Q228 657 282.5 677 Q337 697 411 697 Q465 697 507 689 Q549 681 581 670 L561 503 L481 503 L494 599 Q476 604 452 607.5 Q428 611 404 611 Q359 611 322.5 595.5 Q286 580 258 551.5 Q230 523 211.5 482.5 Q193 442 184 393 L440 399 L433 318 L176 322 Q173 295 173 270 Q173 229 183 194.5 Q193 160 215.5 134.5 Q238 109 274 94.5 Q310 80 362 80 Q375 80 393.5 81.5 Q412 83 433 86 Q454 89 476 93 Q498 97 518 103 Z " />
<glyph glyph-name="afii10054" unicode="&#x405;" horiz-adv-x="558" d="M331 615 Q302 615 277 607.5 Q252 600 233 585.5 Q214 571 203 549 Q192 527 192 497 Q192 474 203.5 458 Q215 442 234 430 Q253 418 277 409 Q301 400 325 393 Q363 382 399 369.5 Q435 357 462.5 337.5 Q490 318 507 288 Q524 258 524 211 Q524 153 502 111.5 Q480 70 441.5 43 Q403 16 350.5 3.5 Q298 -9 238 -9 Q185 -9 126 2.5 Q67 14 20 43 L37 187 L116 187 L104 102 Q135 87 172 81 Q209 75 239 75 Q317 75 362 106.5 Q407 138 407 196 Q407 223 397 241 Q387 259 367.5 271.5 Q348 284 320 293 Q292 302 257 311 Q218 322 185.5 336 Q153 350 129.5 369.5 Q106 389 93 416.5 Q80 444 80 483 Q80 535 99.5 575 Q119 615 153 642 Q187 669 233 682.5 Q279 696 332 696 Q352 696 377.5 694 Q403 692 429 687 Q455 682 480.5 674 Q506 666 527 654 L509 510 L430 510 L442 596 Q413 607 385 611 Q357 615 331 615 Z " />
<glyph glyph-name="afii10055" unicode="&#x406;" horiz-adv-x="370" d="M43 0 L52 75 L115 75 L180 611 L117 611 L126 686 L360 686 L351 611 L287 611 L221 75 L285 75 L277 0 L43 0 Z " />
<glyph glyph-name="afii10057" unicode="&#x408;" horiz-adv-x="380" d="M107 686 L400 686 L391 611 L304 611 L246 145 Q238 78 218.5 24.5 Q199 -29 165 -69 Q131 -109 80 -136 Q29 -163 -42 -178 L-60 -105 Q-3 -84 33 -60 Q69 -36 90.5 -7 Q112 22 122 57.5 Q132 93 138 136 L197 611 L98 611 L107 686 Z " />
<glyph glyph-name="afii10058" unicode="&#x409;" horiz-adv-x="964" d="M671 611 L602 611 L576 409 L718 409 Q818 409 872 360 Q926 311 926 227 Q926 170 907 127.5 Q888 85 855.5 56.5 Q823 28 780.5 14 Q738 0 691 0 L356 0 L364 75 L428 75 L495 611 L325 610 L317 539 Q303 429 285.5 333 Q268 237 235 163.5 Q202 90 148 42.5 Q94 -5 9 -19 L-10 58 Q48 76 85.5 109.5 Q123 143 147.5 197.5 Q172 252 187 330.5 Q202 409 216 518 L228 610 L143 610 L152 686 L680 686 L671 611 Z M567 334 L535 75 L679 75 Q707 75 732 84.5 Q757 94 776 112.5 Q795 131 806 158.5 Q817 186 817 223 Q817 281 781.5 307.5 Q746 334 694 334 L567 334 Z " />
<glyph glyph-name="afii10059" unicode="&#x40a;" horiz-adv-x="989" d="M695 611 L624 611 L600 406 L741 406 Q841 406 895 358 Q949 310 949 227 Q949 172 930 129.5 Q911 87 879 58.5 Q847 30 804.5 15 Q762 0 715 0 L380 0 L389 75 L452 75 L483 332 L229 332 L197 75 L257 75 L248 0 L17 0 L25 75 L90 75 L156 611 L92 611 L101 685 L331 685 L322 611 L263 611 L237 404 L493 404 L518 611 L454 611 L463 686 L704 686 L695 611 Z M590 332 L559 75 L703 75 Q731 75 756 84.5 Q781 94 799.5 112.5 Q818 131 829 158.5 Q840 186 840 223 Q840 280 804.5 306 Q769 332 718 332 L590 332 Z " />
<glyph glyph-name="afii10060" unicode="&#x40b;" horiz-adv-x="827" d="M771 75 L763 0 L531 0 L540 75 L601 75 L622 239 Q629 298 601 320 Q573 342 514 342 Q475 342 433.5 332.5 Q392 323 361 309 L333 75 L399 75 L390 0 L152 0 L161 75 L227 75 L294 611 L154 611 L144 522 L65 522 L85 685 L686 685 L666 522 L588 522 L599 611 L399 611 L371 388 Q419 405 466 413.5 Q513 422 555 422 Q600 422 635 412.5 Q670 403 693 383.5 Q716 364 726.5 333 Q737 302 731 259 L708 75 L771 75 Z " />
<glyph glyph-name="afii10145" unicode="&#x40f;" horiz-adv-x="717" d="M734 684 L725 610 L660 610 Q643 475 627 342 Q611 209 595 74 L659 74 L651 0 L375 0 L352 -179 L269 -179 Q275 -134 280.5 -89.5 Q286 -45 291 0 L14 0 Q17 18 19 37 Q21 56 23 74 L87 74 L154 610 L89 610 L98 684 L331 684 Q328 665 326 647 Q324 629 322 610 L261 610 L194 74 L486 74 L553 610 L492 610 Q494 629 496.5 647 Q499 665 502 684 L734 684 Z " />
<glyph glyph-name="afii10017" unicode="&#x410;" horiz-adv-x="676" d="M408 0 L416 75 L481 75 L460 189 L211 189 L162 75 L228 75 L220 0 L-6 0 L1 75 L58 75 L333 686 L465 686 L588 75 L641 75 L632 0 L408 0 Z M411 464 L389 598 L386 598 L333 472 L245 265 L447 265 L411 464 Z " />
<glyph glyph-name="afii10018" unicode="&#x411;" horiz-adv-x="624" d="M560 529 L481 529 L492 611 L261 611 L236 409 L378 409 Q478 409 531.5 360 Q585 311 585 227 Q585 170 566 127.5 Q547 85 515 56.5 Q483 28 440.5 14 Q398 0 351 0 L12 0 L20 75 L88 75 L154 611 L92 611 L101 685 L579 685 L560 529 Z M227 334 L195 75 L339 75 Q367 75 392 84.5 Q417 94 435.5 113 Q454 132 465 160 Q476 188 476 225 Q476 281 441 307.5 Q406 334 354 334 L227 334 Z " />
<glyph glyph-name="afii10019" unicode="&#x412;" horiz-adv-x="628" d="M427 685 Q473 685 506.5 673.5 Q540 662 562 641.5 Q584 621 594.5 592.5 Q605 564 605 530 Q605 506 599.5 482 Q594 458 581.5 435.5 Q569 413 547.5 393.5 Q526 374 494 359 L494 358 Q522 349 540.5 333 Q559 317 570 297 Q581 277 585 255 Q589 233 589 212 Q589 159 570.5 119.5 Q552 80 521 53.5 Q490 27 450 13.5 Q410 0 367 0 L14 0 Q17 19 19 37.5 Q21 56 23 75 L91 75 L157 610 L92 610 L101 685 L427 685 Z M227 317 L198 75 L338 75 Q409 75 443 114.5 Q477 154 477 214 Q477 235 470.5 253.5 Q464 272 450.5 286 Q437 300 416.5 308.5 Q396 317 368 317 L227 317 Z M264 610 Q256 554 250 499 Q244 444 236 389 L362 389 Q425 389 460.5 425 Q496 461 496 516 Q496 558 471 584 Q446 610 389 610 L264 610 Z " />
<glyph glyph-name="afii10020" unicode="&#x413;" horiz-adv-x="561" d="M16 0 L24 75 L91 75 L156 611 L93 611 L101 685 L603 685 L581 512 L503 512 L515 611 L263 611 L197 75 L289 75 L280 0 L16 0 Z " />
<glyph glyph-name="afii10021" unicode="&#x414;" horiz-adv-x="717" d="M81 0 L60 -171 L-22 -171 L7 72 L62 75 Q107 122 137.5 175 Q168 228 188 288.5 Q208 349 220.5 417.5 Q233 486 243 564 L249 611 L179 611 L188 685 L722 685 L713 611 L649 611 L583 75 L649 72 L620 -171 L539 -171 L560 0 L81 0 Z M335 558 Q326 488 316 422 Q306 356 289 295.5 Q272 235 246 179.5 Q220 124 180 75 L477 75 L543 611 L342 611 L335 558 Z " />
<glyph glyph-name="afii10022" unicode="&#x415;" horiz-adv-x="589" d="M16 0 L24 75 L90 75 L156 611 L93 611 L101 685 L601 685 L579 512 L501 512 L513 611 L263 611 L236 393 L472 398 L464 319 L227 323 L197 75 L467 75 L480 177 L560 177 L538 0 L16 0 Z " />
<glyph glyph-name="afii10024" unicode="&#x416;" horiz-adv-x="943" d="M574 610 Q557 475 540.5 342 Q524 209 508 75 L572 75 L563 0 L333 0 L342 75 L404 75 Q420 209 436.5 342 Q453 475 470 610 L407 610 Q413 647 416 685 L646 685 L637 610 L574 610 Z M160 599 Q138 601 116.5 603 Q95 605 73 607 Q72 624 72 639 Q72 654 72 670 Q92 680 117.5 686 Q143 692 165 693 Q183 693 197.5 689 Q212 685 225 665 L411 366 Q409 358 408.5 349.5 Q408 341 407 333 L156 28 Q135 2 114 -3 Q93 -8 73 -8 Q56 -7 34.5 -3 Q13 1 -4 8 L0 71 Q23 73 44 76 Q65 79 88 81 Q142 151 198.5 220.5 Q255 290 310 361 L160 599 Z M962 607 Q939 605 917.5 603 Q896 601 873 599 L667 352 L815 81 L905 71 L907 8 Q885 0 857 -4 Q829 -8 812 -8 Q779 -8 757.5 6.5 Q736 21 715 61 L568 336 L571 368 L816 659 Q834 680 851 686 Q868 692 885 692 Q909 692 931.5 686 Q954 680 974 670 L962 607 Z " />
<glyph glyph-name="afii10025" unicode="&#x417;" horiz-adv-x="570" d="M169 491 L88 491 Q94 532 98 572 Q102 612 107 653 Q131 664 158.5 672 Q186 680 214.5 685.5 Q243 691 271 694 Q299 697 324 697 Q370 697 410 688.5 Q450 680 479.5 661.5 Q509 643 526 613.5 Q543 584 543 543 Q543 484 509.5 439 Q476 394 416 373 L416 372 Q469 355 496.5 316 Q524 277 524 227 Q524 168 499.5 124.5 Q475 81 434 52.5 Q393 24 340 9.5 Q287 -5 230 -5 Q171 -5 114 4.5 Q57 14 12 35 L44 110 Q95 93 139.5 87 Q184 81 216 81 Q313 81 363 118.5 Q413 156 413 227 Q413 276 374 304.5 Q335 333 274 333 L192 333 L200 405 L277 405 Q313 405 342 414.5 Q371 424 391 440.5 Q411 457 421.5 479 Q432 501 432 526 Q432 576 396 596.5 Q360 617 304 617 Q272 617 240 611 Q208 605 181 594 L169 491 Z " />
<glyph glyph-name="afii10026" unicode="&#x418;" horiz-adv-x="734" d="M499 610 Q502 629 504 647 Q506 665 508 684 L755 684 L746 610 L679 610 L612 75 L680 75 L672 0 L433 0 Q436 18 437.5 37 Q439 56 442 75 L508 75 Q520 175 532.5 275.5 Q545 376 558 477 L555 477 Q465 383 377 290.5 Q289 198 199 105 L195 75 L260 75 Q257 56 255 37 Q253 18 251 0 L13 0 L22 75 L91 75 Q107 209 123 342 Q139 475 156 610 L90 610 Q92 629 94 647 Q96 665 98 684 L337 684 Q334 665 332 647 Q330 629 328 610 L261 610 L212 212 L214 212 Q304 305 392.5 397 Q481 489 572 582 L575 610 L499 610 L499 610 Z " />
<glyph glyph-name="afii10028" unicode="&#x41a;" horiz-adv-x="649" d="M194 75 L257 75 L248 0 L16 0 L24 75 L87 75 L153 611 L90 611 L99 685 L331 685 L323 611 L259 611 L194 75 Z M520 80 L609 72 L611 9 Q588 -1 560 -4.5 Q532 -8 515 -8 Q486 -10 466 -0.5 Q446 9 432 33 L259 339 L262 372 L486 645 Q509 673 528.5 683.5 Q548 694 573 693 Q621 693 663 671 L651 608 L567 600 L358 356 L520 80 Z " />
<glyph glyph-name="afii10029" unicode="&#x41b;" horiz-adv-x="693" d="M387 0 L396 76 L455 76 L521 610 L325 610 L317 539 Q303 429 285.5 333 Q268 237 235 163 Q202 89 148 41.5 Q94 -6 9 -20 L-10 57 Q47 75 84.5 108.5 Q122 142 146.5 196.5 Q171 251 187 330 Q203 409 217 518 L228 610 L143 610 L152 686 L702 686 L693 611 L628 611 L563 76 L627 76 L619 0 L387 0 Z " />
<glyph glyph-name="afii10030" unicode="&#x41c;" horiz-adv-x="882" d="M443 198 L500 308 L702 685 L901 685 L891 610 L830 610 L765 75 L825 75 L816 0 L593 0 L601 75 L661 75 L716 529 L714 529 L664 435 L474 87 L382 87 L244 529 L241 529 L187 75 L249 75 L240 0 L14 0 L23 75 L88 75 L153 610 L89 610 L98 685 L290 685 L397 341 L437 198 L443 198 Z " />
<glyph glyph-name="afii10031" unicode="&#x41d;" horiz-adv-x="717" d="M419 0 L428 76 L488 76 L518 321 L226 321 L196 76 L257 76 L248 0 L16 0 L24 76 L88 76 L154 611 L90 611 L99 686 L331 686 L322 611 L261 611 L235 396 L527 396 L553 611 L493 611 L502 686 L735 686 L726 611 L662 611 L596 76 L660 76 L652 0 L419 0 Z " />
<glyph glyph-name="afii10032" unicode="&#x41e;" horiz-adv-x="684" d="M398 697 Q470 697 519 675 Q568 653 598 614 Q628 575 641.5 523 Q655 471 655 411 Q655 323 633.5 246.5 Q612 170 570 113 Q528 56 466.5 23.5 Q405 -9 325 -9 Q255 -9 205 10.5 Q155 30 123 66 Q91 102 76 153 Q61 204 61 267 Q61 348 80.5 425.5 Q100 503 141 563.5 Q182 624 245.5 660.5 Q309 697 398 697 Z M395 617 Q331 617 288.5 585 Q246 553 220 502.5 Q194 452 183 389.5 Q172 327 172 265 Q172 170 209 121 Q246 72 330 72 Q387 72 427.5 100 Q468 128 493.5 175.5 Q519 223 531 285 Q543 347 543 415 Q543 455 536.5 491.5 Q530 528 513.5 556 Q497 584 468.5 600.5 Q440 617 395 617 Z " />
<glyph glyph-name="afii10033" unicode="&#x41f;" horiz-adv-x="717" d="M419 0 L428 76 L488 76 L553 609 L261 609 L196 76 L257 76 L248 0 L16 0 L24 76 L88 76 L153 609 L89 609 L99 686 L735 686 L725 609 L661 609 L596 76 L660 76 L652 0 L419 0 Z " />
<glyph glyph-name="afii10034" unicode="&#x420;" horiz-adv-x="580" d="M395 686 Q489 686 538.5 640.5 Q588 595 588 507 Q588 467 575.5 426 Q563 385 535 351.5 Q507 318 462.5 296.5 Q418 275 354 275 L219 275 L194 75 L278 75 L270 0 L16 0 L24 75 L88 75 L153 611 L90 611 L99 686 L395 686 Z M260 611 L228 348 L339 348 Q364 348 388.5 356.5 Q413 365 432.5 383 Q452 401 464 430 Q476 459 476 500 Q476 556 447.5 583.5 Q419 611 371 611 L260 611 Z " />
<glyph glyph-name="afii10035" unicode="&#x421;" horiz-adv-x="575" d="M412 698 Q466 698 508.5 690 Q551 682 583 670 L562 496 L483 496 L495 600 Q478 605 454.5 608.5 Q431 612 406 612 Q347 612 303.5 587 Q260 562 231.5 518 Q203 474 188.5 412 Q174 350 174 277 Q174 184 217 136 Q260 88 362 88 Q374 88 392.5 89 Q411 90 432 93 Q453 96 475 100 Q497 104 517 110 L533 25 Q513 17 488 11 Q463 5 436 0.5 Q409 -4 381.5 -6.5 Q354 -9 330 -9 Q256 -9 205 10.5 Q154 30 122 66.5 Q90 103 75.5 154.5 Q61 206 61 269 Q61 311 66.5 359.5 Q72 408 86.5 455.5 Q101 503 126 547 Q151 591 190 624.5 Q229 658 283.5 678 Q338 698 412 698 Z " />
<glyph glyph-name="afii10036" unicode="&#x422;" horiz-adv-x="569" d="M128 0 L137 75 L216 75 L282 611 L143 611 L131 505 L53 505 L75 686 L612 686 L590 505 L511 505 L524 611 L387 611 L322 75 L402 75 L394 0 L128 0 Z " />
<glyph glyph-name="afii10037" unicode="&#x423;" horiz-adv-x="608" d="M297 685 L288 610 L225 610 Q239 565 255 512 Q271 459 284 414 L330 266 L335 266 Q348 297 365.5 334 Q383 371 397 401 L492 610 L430 610 Q431 616 432 626.5 Q433 637 434 648 Q435 659 436.5 669 Q438 679 439 685 L658 685 L649 610 L595 610 L349 94 Q334 64 320 43.5 Q306 23 289.5 10 Q273 -3 252.5 -9 Q232 -15 205 -15 Q182 -15 153.5 -11.5 Q125 -8 84 3 L104 76 Q156 65 186 65 Q208 65 225 78 Q242 91 259 125 L292 196 L258 196 Q243 241 225 294 Q207 347 188 402.5 Q169 458 151 511.5 Q133 565 119 610 L66 610 L75 685 L297 685 Z " />
<glyph glyph-name="afii10038" unicode="&#x424;" horiz-adv-x="782" d="M570 685 L561 612 L502 612 L498 586 Q561 581 612.5 564.5 Q664 548 700.5 520.5 Q737 493 757.5 454.5 Q778 416 778 367 Q778 305 748 258.5 Q718 212 670 179.5 Q622 147 561.5 129 Q501 111 440 107 L435 73 L494 73 L486 0 L268 0 L276 73 L335 73 L340 107 Q282 110 230 124 Q178 138 138.5 164 Q99 190 76 228 Q53 266 53 316 Q53 375 80 423.5 Q107 472 154 507 Q201 542 264 562.5 Q327 583 399 587 L402 612 L343 612 L352 685 L570 685 Z M392 509 Q344 506 300.5 493.5 Q257 481 224 458.5 Q191 436 171 403.5 Q151 371 151 328 Q151 292 167.5 265.5 Q184 239 211.5 221 Q239 203 275 193 Q311 183 350 179 L392 509 Z M448 179 Q492 182 534 194 Q576 206 608.5 228.5 Q641 251 660.5 284.5 Q680 318 680 363 Q680 427 630 466 Q580 505 490 509 L448 179 Z " />
<glyph glyph-name="afii10039" unicode="&#x425;" horiz-adv-x="647" d="M453 686 L678 686 L669 610 L614 610 L407 352 L548 76 L610 76 L602 0 L354 0 L363 76 L427 76 L320 291 L158 76 L230 76 L221 0 L-7 0 L1 76 L48 76 L268 364 L145 610 L79 610 L88 686 L331 686 L322 610 L262 610 L355 420 L503 610 L444 610 L453 686 Z " />
<glyph glyph-name="afii10040" unicode="&#x426;" horiz-adv-x="717" d="M659 610 Q643 475 627 342 Q611 209 594 74 L669 74 Q661 14 654 -47 Q647 -108 640 -170 L558 -170 Q564 -127 569.5 -84.5 Q575 -42 580 0 L13 0 Q16 18 18 37 Q20 56 22 74 L87 74 Q103 209 119.5 342 Q136 475 153 610 L89 610 Q92 645 98 684 L330 684 L321 610 L260 610 L194 74 L486 74 Q502 209 518.5 342 Q535 475 552 610 L492 610 Q494 629 496 647 Q498 665 501 684 L733 684 Q731 665 729 647 Q727 629 724 610 L659 610 L659 610 Z " />
<glyph glyph-name="afii10041" unicode="&#x427;" horiz-adv-x="676" d="M618 75 Q615 56 613 37 Q611 18 609 0 L374 0 Q377 18 379 37 Q381 56 383 75 L446 75 L474 296 Q427 282 382.5 276 Q338 270 297 270 Q255 271 220 279 Q185 287 159.5 304 Q134 321 120 347 Q106 373 106 409 Q106 415 106 421 Q106 427 107 433 Q113 478 118.5 521 Q124 564 129 609 L66 609 Q72 646 75 684 L306 684 L298 609 L236 609 L217 456 Q216 451 216 446.5 Q216 442 216 437 Q216 388 247.5 370 Q279 352 339 352 Q375 352 413.5 358.5 Q452 365 483 378 Q491 436 498 493.5 Q505 551 512 609 L453 609 L462 684 L692 684 Q690 665 688 646.5 Q686 628 684 609 L618 609 Q602 475 585.5 342 Q569 209 552 75 L618 75 L618 75 Z " />
<glyph glyph-name="afii10042" unicode="&#x428;" horiz-adv-x="978" d="M486 610 L428 610 L437 685 L659 685 L651 610 L591 610 L525 75 L752 75 L818 610 L758 610 L767 685 L996 685 L987 610 L923 610 L857 75 L921 75 L913 0 L16 0 L24 75 L88 75 L154 610 L90 610 L99 685 L327 685 L319 610 L259 610 L193 75 L420 75 L486 610 Z " />
<glyph glyph-name="afii10043" unicode="&#x429;" horiz-adv-x="978" d="M486 610 L428 610 L437 685 L659 685 L651 610 L591 610 L525 75 L752 75 L818 610 L758 610 L767 685 L996 685 L987 610 L923 610 L857 75 L931 75 L901 -171 L820 -171 L842 0 L16 0 L24 75 L88 75 L154 610 L90 610 L99 685 L327 685 L319 610 L259 610 L193 75 L420 75 L486 610 Z " />
<glyph glyph-name="afii10044" unicode="&#x42a;" horiz-adv-x="774" d="M385 409 L528 409 Q627 409 681 360 Q735 311 735 228 Q735 171 716 128 Q697 85 665 56.5 Q633 28 590.5 14 Q548 0 501 0 L162 0 L170 75 L238 75 L303 611 L144 611 L129 495 L51 495 L75 685 L484 685 L474 611 L411 611 L385 409 Z M377 334 L345 75 L488 75 Q516 75 541.5 84.5 Q567 94 585.5 113 Q604 132 615 160 Q626 188 626 225 Q626 281 591 307.5 Q556 334 505 334 L377 334 Z " />
<glyph glyph-name="afii10045" unicode="&#x42b;" horiz-adv-x="911" d="M230 334 L199 75 L342 75 Q370 75 395 84.5 Q420 94 439 113 Q458 132 469 160 Q480 188 480 225 Q480 281 444.5 307.5 Q409 334 358 334 L230 334 Z M334 611 L264 611 L240 409 L381 409 Q481 409 534.5 360 Q588 311 588 228 Q588 172 569 129 Q550 86 518 57.5 Q486 29 443.5 14.5 Q401 0 354 0 L16 0 L24 75 L92 75 L158 611 L90 611 L99 686 L344 686 L334 611 Z M608 0 L617 75 L680 75 L747 611 L683 611 L692 685 L926 685 L917 611 L853 611 L788 75 L852 75 L843 0 L608 0 Z " />
<glyph glyph-name="afii10046" unicode="&#x42c;" horiz-adv-x="633" d="M235 334 L204 75 L347 75 Q375 75 400 84.5 Q425 94 444 113 Q463 132 474 160 Q485 188 485 225 Q485 281 449.5 307.5 Q414 334 363 334 L235 334 Z M339 611 L269 611 L245 409 L386 409 Q486 409 540 360.5 Q594 312 594 229 Q594 172 575 129 Q556 86 523.5 57.5 Q491 29 448.5 14.5 Q406 0 359 0 L21 0 L29 75 L97 75 L163 611 L95 611 L104 686 L349 686 L339 611 Z " />
<glyph glyph-name="afii10047" unicode="&#x42d;" horiz-adv-x="576" d="M192 318 L203 399 L443 392 Q446 414 446 435 Q446 473 437 505.5 Q428 538 407.5 561.5 Q387 585 355.5 598.5 Q324 612 279 612 Q254 612 225 607.5 Q196 603 176 598 Q173 574 170 549.5 Q167 525 165 501 L85 501 L106 668 Q141 680 188.5 688.5 Q236 697 290 697 Q368 697 419 674.5 Q470 652 500 614 Q530 576 542 525.5 Q554 475 554 419 Q554 332 534 255 Q514 178 471 119.5 Q428 61 360.5 27 Q293 -7 199 -7 Q151 -7 101 0.5 Q51 8 16 24 L44 102 Q81 91 120 85 Q159 79 191 79 Q249 79 292 98 Q335 117 364.5 150 Q394 183 411 227 Q428 271 434 322 L192 318 Z " />
<glyph glyph-name="afii10048" unicode="&#x42e;" horiz-adv-x="958" d="M681 697 Q749 697 796.5 675 Q844 653 874 615 Q904 577 917.5 525.5 Q931 474 931 414 Q931 324 910.5 247 Q890 170 849.5 113.5 Q809 57 749 25 Q689 -7 611 -7 Q542 -7 493 12.5 Q444 32 413.5 68 Q383 104 368.5 155.5 Q354 207 354 272 Q354 284 354.5 295.5 Q355 307 356 320 L225 320 Q217 259 209.5 198 Q202 137 194 75 L255 75 L247 0 L14 0 L23 75 L87 75 L154 610 L89 610 L98 684 L334 684 L325 610 L261 610 L234 395 L367 395 Q379 455 402.5 509.5 Q426 564 463.5 606 Q501 648 554.5 672.5 Q608 697 681 697 Z M674 616 Q612 616 571 583.5 Q530 551 505.5 499.5 Q481 448 471 384.5 Q461 321 461 259 Q461 166 496.5 118.5 Q532 71 616 71 Q671 71 710.5 99.5 Q750 128 775 175.5 Q800 223 811.5 285.5 Q823 348 823 417 Q823 457 815.5 493 Q808 529 791 556.5 Q774 584 745.5 600 Q717 616 674 616 Z " />
<glyph glyph-name="afii10049" unicode="&#x42f;" horiz-adv-x="646" d="M346 611 Q319 611 295 602 Q271 593 252.5 575 Q234 557 223 529.5 Q212 502 212 465 Q212 434 223 414.5 Q234 395 251 384 Q268 373 288.5 369 Q309 365 328 365 L439 365 L469 611 L346 611 Z M309 292 L179 53 Q171 38 163 26 Q155 14 145 6.5 Q135 -1 122 -5 Q109 -9 91 -9 Q83 -9 70.5 -8 Q58 -7 45 -5.5 Q32 -4 19 -1 Q6 2 -3 5 L4 66 L81 76 L211 309 Q179 317 158 334 Q137 351 124.5 373 Q112 395 107 420 Q102 445 102 468 Q102 521 119 562 Q136 603 167 630.5 Q198 658 241.5 672 Q285 686 337 686 L648 686 L639 611 L576 611 L510 75 L576 75 L567 0 L327 0 L336 75 L403 75 L430 292 L309 292 Z " />
<glyph glyph-name="afii10065" unicode="&#x430;" horiz-adv-x="571" d="M295 497 Q324 497 353 490 Q382 483 413 470 L437 497 L506 493 Q497 436 488.5 378.5 Q480 321 472.5 267.5 Q465 214 459 165.5 Q453 117 449 77 Q469 79 490 86.5 Q511 94 531 105 Q535 97 542 82 Q549 67 554 59 Q539 44 520.5 31.5 Q502 19 483 9 Q464 -1 446 -6.5 Q428 -12 413 -12 Q379 -12 365.5 6 Q352 24 350 53 Q350 73 352.5 93.5 Q355 114 359 137 L354 137 Q332 93 309 65 Q286 37 262.5 20 Q239 3 215.5 -3.5 Q192 -10 169 -10 Q111 -10 75.5 32 Q40 74 40 160 Q40 229 56 290 Q72 351 104 397 Q136 443 184 470 Q232 497 295 497 Z M211 66 Q229 66 248.5 76 Q268 86 289 110.5 Q310 135 330.5 175.5 Q351 216 371 276 L391 399 Q362 410 338 413.5 Q314 417 297 417 Q252 417 222.5 392.5 Q193 368 175.5 332 Q158 296 151 254 Q144 212 144 176 Q144 120 162.5 93 Q181 66 211 66 Z " />
<glyph glyph-name="afii10066" unicode="&#x431;" horiz-adv-x="525" d="M333 492 Q408 492 450.5 443.5 Q493 395 493 301 Q493 249 478.5 194.5 Q464 140 433 95 Q402 50 352 21.5 Q302 -7 232 -7 Q175 -7 138 8 Q101 23 79.5 50 Q58 77 50 114.5 Q42 152 42 196 Q42 223 44.5 253.5 Q47 284 51.5 315.5 Q56 347 61.5 378 Q67 409 74 437 Q85 484 101 526 Q117 568 138.5 601.5 Q160 635 189.5 659.5 Q219 684 257 696 Q279 703 305.5 707.5 Q332 712 361.5 715 Q391 718 421 721.5 Q451 725 479 731 Q482 712 485 694 Q488 676 492 657 Q450 647 412.5 643.5 Q375 640 351 637 Q307 632 275 616.5 Q243 601 219.5 571 Q196 541 179.5 494 Q163 447 151 379 L156 375 Q177 415 201.5 438.5 Q226 462 250 474 Q274 486 296 489 Q318 492 333 492 Z M299 414 Q282 414 261.5 406 Q241 398 220 380 Q199 362 179.5 333.5 Q160 305 145 265 Q142 243 139.5 221.5 Q137 200 137 181 Q137 158 141.5 137.5 Q146 117 157 101.5 Q168 86 186.5 77 Q205 68 234 68 Q267 68 295 84.5 Q323 101 343 132 Q363 163 374 208 Q385 253 385 309 Q385 339 377 359 Q369 379 357 391.5 Q345 404 330 409 Q315 414 299 414 Z " />
<glyph glyph-name="afii10067" unicode="&#x432;" horiz-adv-x="501" d="M219 -12 Q202 -12 178.5 -10.5 Q155 -9 129 -4.5 Q103 0 76.5 7.5 Q50 15 27 26 L21 37 Q29 101 36.5 164.5 Q44 228 52 292 Q56 338 72 376.5 Q88 415 115 442.5 Q142 470 181 485.5 Q220 501 272 501 Q349 501 395 463.5 Q441 426 442 368 Q442 338 426 309 Q410 280 376 268 Q416 262 437 233 Q458 204 458 169 Q458 118 436.5 83.5 Q415 49 381 27.5 Q347 6 304.5 -3 Q262 -12 219 -12 Z M224 64 Q249 64 273.5 69 Q298 74 317 86 Q336 98 347.5 118.5 Q359 139 359 169 Q359 201 333.5 219.5 Q308 238 266 238 L213 238 L219 299 L270 299 Q308 299 327 316.5 Q346 334 346 361 Q346 382 328.5 403 Q311 424 271 424 Q239 424 217 414.5 Q195 405 181 387.5 Q167 370 159.5 345.5 Q152 321 148 290 L124 79 Q135 75 149 72.5 Q163 70 176.5 68 Q190 66 202.5 65 Q215 64 224 64 Z " />
<glyph glyph-name="afii10068" unicode="&#x433;" horiz-adv-x="436" d="M268 501 Q333 501 372.5 474.5 Q412 448 412 394 Q412 364 398 340 Q384 316 359 295 Q334 274 299 255.5 Q264 237 223 219 Q185 202 157.5 179 Q130 156 130 121 Q130 92 152 78.5 Q174 65 210 65 Q245 65 287.5 77 Q330 89 372 109 L398 52 Q350 20 293 5.5 Q236 -9 190 -9 Q153 -9 123 -2.5 Q93 4 72 18 Q51 32 39.5 55 Q28 78 28 110 Q28 143 43.5 169.5 Q59 196 84 217.5 Q109 239 139.5 256.5 Q170 274 202 288 Q221 297 240 307 Q259 317 274.5 328.5 Q290 340 299.5 353 Q309 366 309 381 Q309 409 288 418.5 Q267 428 243 428 Q211 428 175 416.5 Q139 405 100 388 L74 446 Q115 471 166 486 Q217 501 268 501 Z " />
<glyph glyph-name="afii10069" unicode="&#x434;" horiz-adv-x="555" d="M409 470 Q410 505 404.5 537 Q399 569 385 593.5 Q371 618 345.5 632.5 Q320 647 281 647 Q255 647 224 643.5 Q193 640 142 624 L125 693 Q167 711 207 719 Q247 727 284 727 Q399 727 450 658.5 Q501 590 501 448 Q500 401 495.5 349 Q491 297 479.5 246.5 Q468 196 448 150 Q428 104 397.5 69 Q367 34 324.5 13.5 Q282 -7 224 -7 Q168 -7 132.5 7.5 Q97 22 77 47.5 Q57 73 49 107.5 Q41 142 41 181 Q41 235 55.5 291 Q70 347 100 392.5 Q130 438 175.5 466.5 Q221 495 282 495 Q309 495 343.5 489.5 Q378 484 409 470 Z M401 396 Q375 407 346.5 411 Q318 415 295 415 Q255 415 226 392.5 Q197 370 178 334.5 Q159 299 150 254.5 Q141 210 141 165 Q141 116 161 92 Q181 68 227 68 Q305 69 350 147.5 Q395 226 401 396 Z " />
<glyph glyph-name="afii10070" unicode="&#x435;" horiz-adv-x="481" d="M308 501 Q377 501 414 466 Q451 431 451 374 Q451 289 370.5 246.5 Q290 204 143 196 Q142 190 142 184 Q142 178 142 173 Q142 153 146 134 Q150 115 161 100 Q172 85 191.5 75.5 Q211 66 242 66 Q279 66 316.5 75.5 Q354 85 390 100 L411 40 Q393 29 370 20.5 Q347 12 322 5.5 Q297 -1 270.5 -4.5 Q244 -8 219 -8 Q164 -8 129.5 7.5 Q95 23 75 49 Q55 75 47.5 110.5 Q40 146 40 185 Q40 236 52.5 291.5 Q65 347 95.5 393.5 Q126 440 178 470.5 Q230 501 308 501 Z M293 424 Q229 424 192 378 Q155 332 146 252 Q249 257 302 283 Q355 309 355 363 Q355 390 340.5 407 Q326 424 293 424 Z " />
<glyph glyph-name="afii10072" unicode="&#x436;" horiz-adv-x="824" d="M143 497 Q173 497 207 475.5 Q241 454 271 421 Q301 388 324.5 348 Q348 308 359 272 L354 247 Q330 209 304.5 172 Q279 135 247 96 Q206 45 172 16.5 Q138 -12 107 -12 Q82 -12 56.5 3.5 Q31 19 7 68 L43 105 Q57 93 70.5 83.5 Q84 74 105 68 Q118 79 138 100.5 Q158 122 181.5 150 Q205 178 231 210.5 Q257 243 281 276 Q271 301 254 325 Q237 349 216.5 368.5 Q196 388 174 400 Q152 412 132 412 Q121 412 108.5 410 Q96 408 81 400 L54 437 Q65 464 86.5 480.5 Q108 497 143 497 Z M735 500 Q770 500 786 483 Q802 466 807 439 L773 404 Q757 412 746 414 Q735 416 724 416 Q706 416 686.5 405.5 Q667 395 647.5 377 Q628 359 608.5 335 Q589 311 573 284 Q590 249 609 214.5 Q628 180 645.5 150.5 Q663 121 677.5 100 Q692 79 701 70 Q723 76 739.5 86 Q756 96 772 107 L800 71 Q778 42 752 21.5 Q726 1 699 -7 Q681 -12 665 -12 Q645 -11 621 17 Q597 45 570 96 Q549 137 529 177.5 Q509 218 495 251 L499 278 Q522 323 551 363.5 Q580 404 611 434.5 Q642 465 674 482.5 Q706 500 735 500 Z M459 501 Q503 501 503 460 Q503 456 502.5 451.5 Q502 447 501 442 L443 0 L340 0 Q355 110 368 210.5 Q381 311 395 415 L329 424 L333 477 Q371 488 401 494.5 Q431 501 459 501 Z " />
<glyph glyph-name="afii10073" unicode="&#x437;" horiz-adv-x="455" d="M118 322 L69 326 Q65 353 63.5 378 Q62 403 62 424 Q62 447 76.5 459 Q91 471 108 479 Q129 488 162.5 493.5 Q196 499 237 500 Q274 500 306.5 492.5 Q339 485 363 470.5 Q387 456 401 434.5 Q415 413 415 384 Q415 369 410.5 352 Q406 335 395.5 319.5 Q385 304 368 291 Q351 278 326 269 L326 266 Q368 255 390 226 Q412 197 412 158 Q412 118 394 87 Q376 56 345 35 Q314 14 271 3 Q228 -8 179 -8 Q128 -8 83.5 0.5 Q39 9 8 25 L32 91 Q65 79 100.5 72.5 Q136 66 168 66 Q231 66 270 90.5 Q309 115 309 166 Q309 185 301 198 Q293 211 280 218.5 Q267 226 251 229 Q235 232 219 232 L161 232 L167 290 L213 290 Q232 290 250.5 294 Q269 298 283.5 306.5 Q298 315 306.5 328 Q315 341 315 360 Q315 395 287.5 408.5 Q260 422 221 422 Q198 422 179 417.5 Q160 413 144 407 L118 322 Z " />
<glyph glyph-name="afii10074" unicode="&#x438;" horiz-adv-x="598" d="M179 499 Q211 499 221.5 487 Q232 475 232 449 Q232 444 232 439.5 Q232 435 231 430 Q229 412 226 386 Q223 360 219.5 329.5 Q216 299 212 267.5 Q208 236 205 208 Q202 180 200 158.5 Q198 137 198 127 Q198 101 208 87 Q218 73 241 73 Q259 73 280 84 Q301 95 323 120 Q345 145 366 184.5 Q387 224 404 281 L433 489 L531 489 Q517 389 503.5 281.5 Q490 174 479 76 Q501 78 519.5 84 Q538 90 557 99 L580 55 Q544 20 504.5 4.5 Q465 -11 439 -11 Q421 -11 409.5 -5.5 Q398 0 392 9 Q386 18 384 29.5 Q382 41 382 54 Q382 72 384.5 95.5 Q387 119 389 136 L384 136 Q361 93 335.5 65 Q310 37 284 20.5 Q258 4 234 -2.5 Q210 -9 192 -9 Q139 -9 115 17 Q91 43 91 91 Q91 99 91 108.5 Q91 118 93 132 Q97 173 104.5 239.5 Q112 306 125 414 L33 428 L37 477 Q79 489 114.5 494 Q150 499 179 499 Z " />
<glyph glyph-name="afii10076" unicode="&#x43a;" horiz-adv-x="542" d="M465 500 Q494 500 512 482.5 Q530 465 537 439 L499 403 Q485 411 473 413.5 Q461 416 450 416 Q427 416 406 403.5 Q385 391 365.5 372 Q346 353 327.5 330.5 Q309 308 293 288 Q309 257 330 222.5 Q351 188 372 157 Q393 126 410 102.5 Q427 79 435 70 Q457 76 475 86.5 Q493 97 507 107 Q515 98 522.5 89 Q530 80 538 71 Q505 27 471 8.5 Q437 -10 409 -12 Q392 -12 378.5 -4.5 Q365 3 353 17.5 Q341 32 327.5 52.5 Q314 73 297 99 Q271 139 249 180 Q227 221 213 253 L216 280 Q236 316 265.5 355 Q295 394 328.5 426 Q362 458 397.5 479 Q433 500 465 500 Z M175 501 Q197 501 210 491 Q223 481 223 462 Q223 458 222.5 453.5 Q222 449 221 442 L163 0 L60 0 Q75 110 88 210 Q101 310 115 414 Q95 417 76.5 420 Q58 423 38 425 Q39 438 40 450.5 Q41 463 43 477 Q81 488 114 494.5 Q147 501 175 501 Z " />
<glyph glyph-name="afii10077" unicode="&#x43b;" horiz-adv-x="549" d="M9 10 Q73 128 133 242.5 Q193 357 258 483 L375 497 L387 488 Q398 374 412 270.5 Q426 167 443 82 Q460 84 477.5 90.5 Q495 97 512 108 L534 64 Q507 35 472 13.5 Q437 -8 406 -8 Q377 -8 362.5 3 Q348 14 341 49 Q327 128 318.5 209 Q310 290 302 379 L298 379 Q251 278 207.5 187.5 Q164 97 114 0 L17 0 L9 10 Z " />
<glyph glyph-name="afii10078" unicode="&#x43c;" horiz-adv-x="735" d="M354 137 Q355 137 355.5 136.5 Q356 136 357 136 L393 221 Q423 296 450 359 Q477 422 507 484 L608 498 L618 489 L618 423 Q618 325 620.5 238 Q623 151 631 80 Q665 84 701 106 L723 62 Q693 31 656.5 11.5 Q620 -8 590 -8 Q566 -8 549 0.5 Q532 9 529 36 Q522 99 523 179.5 Q524 260 526 354 L522 354 Q503 310 487.5 275 Q472 240 457 204 Q442 168 425 127.5 Q408 87 385 33 Q363 30 341.5 27 Q320 24 299 22 L285 31 Q271 100 258.5 185 Q246 270 238 364 L233 364 Q219 325 205.5 286 Q192 247 177.5 203.5 Q163 160 146.5 110 Q130 60 111 0 L23 0 L12 12 Q66 160 109 276.5 Q152 393 194 484 Q220 488 244 491 Q268 494 294 499 L309 486 Q320 376 330 293.5 Q340 211 354 137 Z " />
<glyph glyph-name="afii10079" unicode="&#x43d;" horiz-adv-x="604" d="M536 488 Q530 444 523 392.5 Q516 341 509 287 Q502 233 495.5 178.5 Q489 124 483 76 Q505 78 524.5 84 Q544 90 562 99 L584 55 Q566 37 545.5 24.5 Q525 12 505.5 4 Q486 -4 469 -7.5 Q452 -11 440 -11 Q405 -11 390.5 5 Q376 21 376 50 Q376 69 382 111 Q385 134 388.5 161.5 Q392 189 397 224 L205 224 Q199 186 194 150 Q189 114 185 84 Q181 54 178 32 Q175 10 174 0 L72 0 Q78 44 92 146 Q106 248 125 413 Q102 416 78.5 419.5 Q55 423 32 427 Q33 439 33.5 452 Q34 465 36 477 Q78 489 113.5 494 Q149 499 178 499 Q205 499 217.5 491.5 Q230 484 232 466 Q232 465 232.5 464 Q233 463 233 461 Q233 456 231.5 439.5 Q230 423 227 399 Q224 375 220.5 346 Q217 317 213 286 L406 286 Q413 337 419.5 387 Q426 437 434 488 L536 488 L536 488 Z " />
<glyph glyph-name="afii10080" unicode="&#x43e;" horiz-adv-x="521" d="M296 499 Q349 499 386 483 Q423 467 446.5 439 Q470 411 480.5 374 Q491 337 491 295 Q491 244 478 190.5 Q465 137 435 92.5 Q405 48 355.5 20 Q306 -8 233 -8 Q179 -8 142.5 7 Q106 22 83 48.5 Q60 75 50 111 Q40 147 40 189 Q40 244 54.5 299.5 Q69 355 99.5 399.5 Q130 444 178.5 471.5 Q227 499 296 499 Z M291 420 Q246 420 217.5 395 Q189 370 172.5 333.5 Q156 297 150 255 Q144 213 144 180 Q144 157 148.5 137 Q153 117 164.5 101 Q176 85 195 76 Q214 67 243 67 Q286 67 313.5 90.5 Q341 114 357 149 Q373 184 379 224 Q385 264 385 296 Q385 321 380.5 343.5 Q376 366 365.5 383 Q355 400 337 410 Q319 420 291 420 Z " />
<glyph glyph-name="afii10081" unicode="&#x43f;" horiz-adv-x="601" d="M417 499 Q474 499 495.5 466 Q517 433 517 380 Q517 359 508.5 284.5 Q500 210 485 77 Q505 78 523 83.5 Q541 89 561 100 Q566 93 573 78 Q580 63 584 55 Q565 37 545 24.5 Q525 12 505.5 4 Q486 -4 468.5 -8 Q451 -12 438 -12 Q403 -12 391.5 3.5 Q380 19 380 48 Q380 53 381 66 Q382 79 383 87 Q395 205 403 275.5 Q411 346 411 363 Q411 386 401 401.5 Q391 417 368 417 Q350 417 328.5 405.5 Q307 394 285 369 Q263 344 242 304.5 Q221 265 204 210 L175 0 L73 0 Q81 64 88 117 Q95 170 101 218.5 Q107 267 112.5 313.5 Q118 360 124 412 L32 427 L35 478 Q78 489 112 494 Q146 499 175 499 Q207 499 217.5 488.5 Q228 478 228 454 Q228 435 224.5 407 Q221 379 216 346 L220 346 Q243 391 270.5 420.5 Q298 450 325 467.5 Q352 485 376 492 Q400 499 417 499 Z " />
<glyph glyph-name="afii10082" unicode="&#x440;" horiz-adv-x="561" d="M47 -135 Q62 -2 79.5 140 Q97 282 112 412 L19 426 L23 477 Q59 488 96 493.5 Q133 499 165 499 Q200 499 209 485.5 Q218 472 216 447 L203 344 L208 344 Q230 387 253.5 416.5 Q277 446 301.5 463 Q326 480 350 487.5 Q374 495 396 495 Q453 495 488 452.5 Q523 410 523 322 Q523 252 506.5 191.5 Q490 131 458 86 Q426 41 377.5 15.5 Q329 -10 265 -10 Q242 -10 217.5 -5 Q193 0 167 7 L148 -135 L234 -135 L226 -208 L-29 -208 L-20 -135 L47 -135 Z M353 413 Q335 413 314.5 403 Q294 393 273 369 Q252 345 230.5 304.5 Q209 264 190 204 L174 86 Q202 75 226 71.5 Q250 68 267 68 Q312 68 341.5 91.5 Q371 115 388.5 150.5 Q406 186 413 226.5 Q420 267 420 302 Q420 359 401.5 386 Q383 413 353 413 Z " />
<glyph glyph-name="afii10083" unicode="&#x441;" horiz-adv-x="462" d="M300 499 Q314 499 329.5 497.5 Q345 496 360 493 Q375 490 387 487 Q399 484 406 481 Q424 473 432.5 463 Q441 453 441 435 Q441 428 438 414 Q435 400 430.5 383.5 Q426 367 420 350 Q414 333 408 319 Q394 320 380.5 320.5 Q367 321 353 323 Q355 345 355.5 367.5 Q356 390 357 413 Q346 417 330 419 Q314 421 297 421 Q258 421 229 401.5 Q200 382 181.5 350 Q163 318 153.5 275.5 Q144 233 144 188 Q144 134 167 104 Q190 74 247 74 Q280 74 309 80.5 Q338 87 379 99 Q384 82 391 66 Q398 50 403 33 Q368 16 319 4.5 Q270 -7 222 -7 Q172 -7 137.5 5.5 Q103 18 81.5 41.5 Q60 65 50 97.5 Q40 130 40 170 Q40 230 52.5 289 Q65 348 95 394.5 Q125 441 175 470 Q225 499 300 499 Z " />
<glyph glyph-name="afii10084" unicode="&#x442;" horiz-adv-x="862" d="M497 344 Q518 387 543 416.5 Q568 446 592.5 465 Q617 484 639 492.5 Q661 501 678 501 Q731 501 754.5 471.5 Q778 442 778 393 Q778 382 776 360 Q774 338 770 301 Q766 264 760 209.5 Q754 155 745 79 Q766 80 784 85.5 Q802 91 822 102 L844 58 Q809 23 771 5.5 Q733 -12 704 -12 Q667 -12 653.5 4 Q640 20 640 50 Q640 55 640.5 63 Q641 71 642 79 Q652 162 658 214 Q664 266 667 296.5 Q670 327 671 342 Q672 357 672 365 Q672 388 663 403.5 Q654 419 631 419 Q595 419 555.5 369.5 Q516 320 482 211 L456 0 L354 0 L369 121 Q378 196 383 240.5 Q388 285 390.5 310 Q393 335 393 346 Q393 357 393 364 Q393 386 383.5 401.5 Q374 417 351 417 Q316 417 277 369 Q238 321 204 211 L176 0 L73 0 Q82 64 88.5 117.5 Q95 171 101 219.5 Q107 268 112 314.5 Q117 361 123 413 L32 428 L35 478 Q78 490 112 495 Q146 500 175 500 Q207 500 218 489 Q229 478 229 458 Q229 441 225 412 Q221 383 216 346 L221 346 Q244 391 268.5 421 Q293 451 316.5 468.5 Q340 486 361.5 493 Q383 500 400 500 Q452 500 474 471.5 Q496 443 496 397 Q496 388 495.5 375.5 Q495 363 494 345 L497 344 Z " />
<glyph glyph-name="afii10085" unicode="&#x443;" horiz-adv-x="532" d="M442 500 Q472 500 485.5 480.5 Q499 461 499 417 Q499 359 479 288 Q459 217 423 145 Q387 73 337.5 5.5 Q288 -62 229.5 -114.5 Q171 -167 105 -199 Q39 -231 -30 -231 Q-53 -231 -73 -225 Q-93 -219 -106.5 -207 Q-120 -195 -125.5 -176.5 Q-131 -158 -124 -133 L-81 -107 Q-66 -120 -53.5 -127 Q-41 -134 -29 -137.5 Q-17 -141 -6 -141.5 Q5 -142 17 -142 Q55 -142 103.5 -119 Q152 -96 201 -42 Q191 11 178.5 74 Q166 137 153 199 Q140 261 128 315.5 Q116 370 106 406 L32 388 L16 432 Q54 466 88 481 Q122 496 142 496 Q165 496 177.5 488.5 Q190 481 196 452 Q202 423 212.5 370.5 Q223 318 234 258.5 Q245 199 255.5 140 Q266 81 273 38 Q303 75 327 124 Q351 173 368 224.5 Q385 276 394 325 Q403 374 403 412 L332 395 L316 443 Q350 472 383 486 Q416 500 442 500 Z " />
<glyph glyph-name="afii10086" unicode="&#x444;" horiz-adv-x="694" d="M395 723 Q427 723 439.5 713 Q452 703 452 680 Q452 672 450 653 Q448 634 445 609 Q442 584 438.5 554.5 Q435 525 431 497 Q492 495 536 479.5 Q580 464 608.5 436 Q637 408 650.5 369.5 Q664 331 664 285 Q664 225 646.5 173.5 Q629 122 593 83 Q557 44 501 20 Q445 -4 369 -7 Q364 -40 361 -73 Q358 -106 353 -138 L427 -138 L419 -208 L174 -208 L182 -138 L254 -138 L269 -7 Q201 -4 157 14.5 Q113 33 87 62 Q61 91 50.5 128 Q40 165 40 205 Q40 267 58.5 319.5 Q77 372 114 411 Q151 450 205 472.5 Q259 495 331 497 Q334 532 338 566.5 Q342 601 345 636 L251 651 L254 701 Q296 712 333.5 717.5 Q371 723 395 723 Z M564 279 Q564 309 557 335 Q550 361 533.5 380 Q517 399 489.5 410.5 Q462 422 422 423 L378 65 Q428 68 463.5 85 Q499 102 521.5 130.5 Q544 159 554 197 Q564 235 564 279 Z M136 205 Q136 142 168.5 105 Q201 68 278 65 L321 423 Q271 420 235.5 401.5 Q200 383 178 353.5 Q156 324 146 286 Q136 248 136 205 Z " />
<glyph glyph-name="afii10087" unicode="&#x445;" horiz-adv-x="509" d="M85 -16 Q83 -16 80.5 -16.5 Q78 -17 75 -17 Q61 -3 46.5 11.5 Q32 26 17 41 Q17 44 17.5 47 Q18 50 18 53 Q63 101 107 148.5 Q151 196 197 244 Q179 285 161.5 325 Q144 365 127 406 L49 384 L28 427 Q65 461 98 478 Q131 495 154 495 Q171 495 188 489 Q205 483 219 455 Q235 421 247 388 Q259 355 276 319 Q308 363 340 407 Q372 451 404 495 L415 495 L476 438 L476 427 L308 251 Q328 208 345.5 166.5 Q363 125 382 81 Q405 83 424.5 91.5 Q444 100 464 111 Q472 100 480 90.5 Q488 81 497 70 Q477 45 457.5 29 Q438 13 419 3.5 Q400 -6 384 -9.5 Q368 -13 356 -13 Q324 -13 309 5.5 Q294 24 279 59 L229 176 Q194 127 158 79 Q122 31 85 -16 Z " />
<glyph glyph-name="afii10088" unicode="&#x446;" horiz-adv-x="613" d="M515 12 Q496 0 474.5 -5.5 Q453 -11 439 -11 Q413 -11 397.5 2.5 Q382 16 382 45 Q382 68 385 90.5 Q388 113 389 136 L384 136 Q361 91 334.5 62.5 Q308 34 281.5 18.5 Q255 3 231 -3 Q207 -9 190 -9 Q141 -9 116 17.5 Q91 44 91 91 Q91 99 91.5 109 Q92 119 94 136 Q95 143 97 162.5 Q99 182 102 208 Q105 234 108 263.5 Q111 293 114.5 321.5 Q118 350 120.5 374 Q123 398 125 413 Q102 416 79 419.5 Q56 423 33 427 L37 477 Q79 489 114.5 494 Q150 499 179 499 Q208 499 218.5 489.5 Q229 480 231 456 Q231 451 231 444 Q231 437 230 429 Q228 404 222.5 359.5 Q217 315 211.5 269 Q206 223 202 183 Q198 143 198 127 Q198 101 208 87 Q218 73 241 73 Q259 73 280 84 Q301 95 322.5 120 Q344 145 365 184.5 Q386 224 403 281 L432 489 L532 489 Q518 389 505 284 Q492 179 479 76 Q502 77 524 85 Q546 93 566 104 Q576 94 585 84.5 Q594 75 605 65 Q587 7 569.5 -52 Q552 -111 534 -170 L460 -170 L454 -159 Q468 -114 485 -70 Q502 -26 519 9 L515 12 Z " />
<glyph glyph-name="afii10089" unicode="&#x447;" horiz-adv-x="599" d="M526 489 Q514 391 502 289 Q490 187 477 77 Q516 79 556 100 Q560 93 567 78 Q574 63 579 55 Q544 21 505 4.5 Q466 -12 437 -12 Q399 -12 385.5 6.5 Q372 25 372 59 Q372 82 375 111.5 Q378 141 382.5 171 Q387 201 392 229.5 Q397 258 400 279 L396 279 Q376 242 350 216.5 Q324 191 297.5 175 Q271 159 247 151.5 Q223 144 206 144 Q152 144 128.5 171.5 Q105 199 105 248 Q105 258 107 278.5 Q109 299 112 323 Q115 347 118 371 Q121 395 124 412 L30 427 L34 478 Q76 489 112 494.5 Q148 500 177 500 Q208 500 219 489.5 Q230 479 230 452 Q230 440 227 416 Q224 392 221 366 Q218 340 215 317 Q212 294 212 284 Q212 231 255 231 Q271 231 293 241 Q315 251 337 272.5 Q359 294 379.5 328.5 Q400 363 414 412 L424 489 L526 489 Z " />
<glyph glyph-name="afii10090" unicode="&#x448;" horiz-adv-x="864" d="M799 489 Q784 383 770 280.5 Q756 178 745 78 Q767 80 785.5 85.5 Q804 91 823 101 Q828 90 833.5 78.5 Q839 67 846 56 Q808 21 769 6 Q730 -9 705 -9 Q677 -9 660 2.5 Q643 14 643 40 Q643 60 646 90 Q649 120 654 142 L650 142 Q626 97 600.5 68 Q575 39 550.5 22 Q526 5 504 -1.5 Q482 -8 465 -8 Q417 -8 395.5 15.5 Q374 39 374 80 Q374 96 374.5 108 Q375 120 376 144 Q375 144 374 143.5 Q373 143 372 143 Q351 101 326.5 71.5 Q302 42 277.5 24 Q253 6 230.5 -2 Q208 -10 192 -10 Q136 -10 114 21.5 Q92 53 92 105 Q92 129 95.5 167 Q99 205 104.5 247.5 Q110 290 115.5 333.5 Q121 377 125 413 L32 428 L36 478 Q120 500 179 500 Q207 500 219 490 Q231 480 231 455 Q231 445 229 423 Q227 401 224 373 Q221 345 217 313.5 Q213 282 210 253 Q207 224 204 200 Q201 176 200 162 Q198 142 197.5 135.5 Q197 129 197 124 Q197 101 206.5 85.5 Q216 70 239 70 Q275 70 314.5 119.5 Q354 169 388 278 Q396 344 402 394.5 Q408 445 413 489 L516 489 Q511 452 508 422.5 Q505 393 501 367 Q492 295 487.5 251 Q483 207 480.5 181.5 Q478 156 477.5 144 Q477 132 477 125 Q477 103 486.5 87.5 Q496 72 519 72 Q557 72 595 124.5 Q633 177 668 292 Q675 342 681.5 390.5 Q688 439 696 489 L799 489 Z " />
<glyph glyph-name="afii10091" unicode="&#x449;" horiz-adv-x="875" d="M516 489 Q501 376 493 308 Q485 240 481.5 202 Q478 164 477.5 148.5 Q477 133 477 125 Q477 103 486.5 87.5 Q496 72 519 72 Q536 72 555 83.5 Q574 95 592.5 119.5 Q611 144 630 184 Q649 224 666 281 L694 489 L794 489 Q780 389 767 284 Q754 179 741 76 Q764 77 786 85 Q808 93 828 104 Q838 94 847 84.5 Q856 75 867 65 Q849 7 831 -52 Q813 -111 796 -170 L721 -170 L715 -159 Q730 -114 747 -70 Q764 -26 781 9 Q779 10 778 12 Q758 1 736.5 -5 Q715 -11 702 -11 Q667 -11 657 7 Q647 25 647 65 Q647 82 648.5 101 Q650 120 652 136 L648 136 Q625 93 601 65 Q577 37 554 21 Q531 5 509.5 -1.5 Q488 -8 471 -8 Q426 -8 400 13.5 Q374 35 374 80 Q374 96 374.5 108 Q375 120 376 144 Q375 144 374 143.5 Q373 143 372 143 Q351 101 326.5 71.5 Q302 42 277.5 24 Q253 6 230.5 -2 Q208 -10 192 -10 Q163 -10 143.5 -1 Q124 8 112.5 24 Q101 40 96.5 63 Q92 86 92 114 Q92 138 95.5 174.5 Q99 211 104.5 253 Q110 295 115.5 337 Q121 379 125 413 L32 428 L36 478 Q120 500 179 500 Q207 500 219 490 Q231 480 231 454 Q231 444 229 422.5 Q227 401 224 373 Q221 345 217 313.5 Q213 282 209.5 253 Q206 224 203.5 200 Q201 176 200 162 Q198 142 197.5 135.5 Q197 129 197 124 Q197 101 206.5 85.5 Q216 70 239 70 Q275 70 314.5 119.5 Q354 169 388 278 Q392 310 395 331.5 Q398 353 400 374.5 Q402 396 405 422 Q408 448 413 489 L516 489 Z " />
<glyph glyph-name="afii10092" unicode="&#x44a;" horiz-adv-x="592" d="M287 -10 Q239 -10 206.5 1 Q174 12 154 31 Q134 50 125 74 Q116 98 116 125 Q116 165 124.5 205 Q133 245 147 283 Q161 321 179.5 356 Q198 391 218 420 L103 412 L62 343 L12 351 Q18 396 23.5 424.5 Q29 453 39.5 469.5 Q50 486 66 492.5 Q82 499 109 499 Q118 499 152 498 Q186 497 225 496 Q264 495 297 493.5 Q330 492 338 492 L351 456 Q339 446 322 423.5 Q305 401 288.5 374.5 Q272 348 258.5 320.5 Q245 293 240 274 L244 273 Q269 304 294.5 325.5 Q320 347 344 359.5 Q368 372 390 377.5 Q412 383 430 383 Q488 383 521 346.5 Q554 310 554 244 Q554 208 540 164 Q526 120 494 81.5 Q462 43 411 16.5 Q360 -10 287 -10 Z M382 309 Q371 309 353.5 303.5 Q336 298 315 283.5 Q294 269 272 243.5 Q250 218 229 177 Q223 151 223 133 Q223 108 233.5 94 Q244 80 258 73 Q272 66 286 64.5 Q300 63 307 63 Q342 63 368 79.5 Q394 96 411 121.5 Q428 147 436.5 177.5 Q445 208 445 237 Q445 309 382 309 Z " />
<glyph glyph-name="afii10093" unicode="&#x44b;" horiz-adv-x="801" d="M219 275 Q267 335 317.5 359 Q368 383 404 383 Q463 383 495.5 347 Q528 311 528 245 Q528 208 514.5 164 Q501 120 471 81.5 Q441 43 393.5 17.5 Q346 -8 278 -8 Q262 -8 239 -6.5 Q216 -5 190.5 -1 Q165 3 138.5 10 Q112 17 89 28 L83 39 Q99 162 110 255.5 Q121 349 129 416 L33 431 L34 482 Q76 493 113 498 Q150 503 179 503 Q237 503 237 463 Q237 452 235 430 Q233 408 229.5 381.5 Q226 355 222 326.5 Q218 298 214 275 L219 275 Z M356 307 Q344 307 325.5 301 Q307 295 286.5 279.5 Q266 264 244 238 Q222 212 203 172 L190 81 Q213 73 236 70 Q259 67 276 67 Q312 67 339.5 82 Q367 97 385 121 Q403 145 412.5 174.5 Q422 204 422 233 Q422 269 405 288 Q388 307 356 307 Z M632 489 L735 489 Q734 485 730 454.5 Q726 424 720.5 379.5 Q715 335 708 284 Q701 233 695 188.5 Q689 144 685 112.5 Q681 81 680 77 Q722 80 761 101 L784 56 Q749 21 710 4 Q671 -13 643 -13 Q604 -13 590 5 Q576 23 576 51 Q576 57 576.5 63.5 Q577 70 578 78 L632 489 Z " />
<glyph glyph-name="afii10094" unicode="&#x44c;" horiz-adv-x="558" d="M215 275 Q239 305 264.5 325.5 Q290 346 314 359 Q338 372 360 377.5 Q382 383 400 383 Q459 383 491.5 347 Q524 311 524 245 Q524 208 510.5 164 Q497 120 467 81.5 Q437 43 389.5 17.5 Q342 -8 273 -8 Q258 -8 235.5 -6.5 Q213 -5 187.5 -1 Q162 3 135 10 Q108 17 85 28 L80 39 Q95 162 106 255.5 Q117 349 124 416 L29 431 L30 482 Q72 493 109.5 498 Q147 503 176 503 Q206 503 219.5 493 Q233 483 233 463 Q233 452 231 430 Q229 408 225.5 381.5 Q222 355 218 326.5 Q214 298 210 275 L215 275 Z M353 307 Q340 307 321.5 301 Q303 295 282.5 279.5 Q262 264 240.5 238 Q219 212 199 172 L187 81 Q210 73 233 70 Q256 67 272 67 Q308 67 335.5 82 Q363 97 381 121 Q399 145 408.5 174.5 Q418 204 418 233 Q418 269 401 288 Q384 307 353 307 Z " />
<glyph glyph-name="afii10095" unicode="&#x44d;" horiz-adv-x="450" d="M170 -9 Q116 -9 79 -1.5 Q42 6 17 17 L38 82 Q62 76 93.5 70.5 Q125 65 154 65 Q226 65 264 109.5 Q302 154 310 227 L137 223 L143 290 L314 283 Q317 351 288.5 387.5 Q260 424 207 426 Q180 428 150 420 L120 328 L70 332 Q68 355 65.5 379.5 Q63 404 63 419 Q63 434 67.5 450.5 Q72 467 93 476 Q116 486 150.5 492.5 Q185 499 223 499 Q275 499 312.5 482.5 Q350 466 374 438 Q398 410 409.5 372.5 Q421 335 421 292 Q421 238 408.5 184 Q396 130 366.5 87.5 Q337 45 289 18 Q241 -9 170 -9 Z " />
<glyph glyph-name="afii10096" unicode="&#x44e;" horiz-adv-x="749" d="M529 499 Q582 499 618 482.5 Q654 466 676.5 438 Q699 410 708.5 372.5 Q718 335 718 293 Q718 240 705 186.5 Q692 133 662 90 Q632 47 584.5 20 Q537 -7 468 -7 Q413 -7 377 9 Q341 25 319.5 53 Q298 81 289 119 Q280 157 280 201 Q280 207 280 213.5 Q280 220 281 227 L196 227 L167 0 L65 0 Q79 103 92 206 Q105 309 118 413 Q96 416 74.5 419.5 Q53 423 32 427 Q33 439 33.5 452 Q34 465 36 477 Q78 489 112 494 Q146 499 170 499 Q205 499 215 486.5 Q225 474 225 450 Q225 445 223 428.5 Q221 412 218 389 Q215 366 211.5 340 Q208 314 205 292 L291 292 Q301 334 320 371.5 Q339 409 368.5 437.5 Q398 466 438 482.5 Q478 499 529 499 Z M523 421 Q480 421 452.5 396 Q425 371 409 334 Q393 297 387 255 Q381 213 381 179 Q381 157 385.5 136.5 Q390 116 400.5 100.5 Q411 85 429.5 76 Q448 67 477 67 Q519 67 545.5 91 Q572 115 587.5 150 Q603 185 608.5 224.5 Q614 264 614 296 Q614 321 610 343.5 Q606 366 596 383 Q586 400 568 410.5 Q550 421 523 421 Z " />
<glyph glyph-name="afii10097" unicode="&#x44f;" horiz-adv-x="537" d="M279 501 Q320 501 370 493 Q420 485 462 469 L417 77 Q458 80 498 101 L520 56 Q485 21 447.5 4 Q410 -13 382 -13 Q343 -13 328 5 Q313 23 313 51 Q313 57 313.5 63.5 Q314 70 315 78 L356 412 Q339 419 316 422 Q293 425 276 425 Q256 425 237 420.5 Q218 416 203 405.5 Q188 395 179 377 Q170 359 170 332 Q170 312 179.5 298.5 Q189 285 205 276 Q221 267 242 261.5 Q263 256 286 253 L293 216 L127 0 L23 -5 L13 10 L184 211 Q126 219 95 251 Q64 283 64 331 Q64 375 80 407 Q96 439 124.5 460 Q153 481 192.5 491 Q232 501 279 501 Z " />
<glyph glyph-name="afii10071" unicode="&#x451;" horiz-adv-x="481" d="M308 501 Q377 501 414 466 Q451 431 451 374 Q451 289 370.5 246.5 Q290 204 143 196 Q142 190 142 184 Q142 178 142 173 Q142 153 146 134 Q150 115 161 100 Q172 85 191.5 75.5 Q211 66 242 66 Q279 66 316.5 75.5 Q354 85 390 100 L411 40 Q393 29 370 20.5 Q347 12 322 5.5 Q297 -1 270.5 -4.5 Q244 -8 219 -8 Q164 -8 129.5 7.5 Q95 23 75 49 Q55 75 47.5 110.5 Q40 146 40 185 Q40 236 52.5 291.5 Q65 347 95.5 393.5 Q126 440 178 470.5 Q230 501 308 501 Z M293 424 Q229 424 192 378 Q155 332 146 252 Q249 257 302 283 Q355 309 355 363 Q355 390 340.5 407 Q326 424 293 424 Z M386 677 Q408 677 421.5 664.5 Q435 652 435 630 Q435 604 417.5 585.5 Q400 567 373 567 Q353 567 340 580.5 Q327 594 327 615 Q327 641 345.5 659 Q364 677 386 677 Z M198 677 Q221 677 234.5 664.5 Q248 652 248 630 Q248 604 230 585.5 Q212 567 186 567 Q165 567 151.5 580.5 Q138 594 138 615 Q138 641 157 659 Q176 677 198 677 Z " />
<glyph glyph-name="afii10099" unicode="&#x452;" horiz-adv-x="553" d="M203 345 Q224 386 249.5 413.5 Q275 441 300.5 457.5 Q326 474 349 481 Q372 488 389 488 Q424 488 447.5 472 Q471 456 485.5 428.5 Q500 401 506.5 365.5 Q513 330 513 291 Q513 215 498 151 Q483 87 457.5 40 Q432 -7 397.5 -33.5 Q363 -60 325 -60 Q301 -60 274 -51 Q247 -42 220 -16 L250 35 Q268 24 279.5 19.5 Q291 15 304 15 Q327 15 346.5 39 Q366 63 380.5 102 Q395 141 403 190 Q411 239 411 289 Q411 314 407.5 336 Q404 358 396.5 374 Q389 390 377 399.5 Q365 409 348 409 Q330 409 308.5 398 Q287 387 265 362 Q243 337 221.5 297 Q200 257 182 199 L155 0 L52 0 Q59 52 67 116.5 Q75 181 83 250.5 Q91 320 99.5 391.5 Q108 463 116 531 L46 531 L51 577 L120 577 L127 638 L31 653 L36 703 Q78 714 114.5 719 Q151 724 180 724 Q211 724 224.5 714.5 Q238 705 238 685 Q238 675 235 649 Q232 623 227 577 L392 577 L387 531 L221 531 Q219 508 215.5 479.5 Q212 451 209 424.5 Q206 398 203 376.5 Q200 355 199 346 L203 345 Z " />
<glyph glyph-name="afii10101" unicode="&#x454;" horiz-adv-x="453" d="M225 -8 Q172 -8 137 6 Q102 20 80 45 Q58 70 49 104.5 Q40 139 40 180 Q40 208 44 242.5 Q48 277 59 312.5 Q70 348 88.5 382 Q107 416 136 442 Q165 468 205.5 484 Q246 500 301 500 Q334 500 363.5 494.5 Q393 489 408 482 Q427 474 435.5 464 Q444 454 442 436 Q442 430 439 417 Q436 404 431.5 388 Q427 372 421 355.5 Q415 339 410 327 L355 330 L359 416 Q347 420 331 422.5 Q315 425 299 425 Q240 425 202 384.5 Q164 344 153 276 L327 280 L320 218 L148 220 Q146 209 146 200 Q146 191 147 181 Q148 159 153 138.5 Q158 118 169 102.5 Q180 87 198 78 Q216 69 242 69 Q278 69 311.5 76 Q345 83 384 97 L403 34 Q369 16 321 4 Q273 -8 225 -8 Z " />
<glyph glyph-name="afii10102" unicode="&#x455;" horiz-adv-x="455" d="M192 -8 Q110 -8 68.5 11.5 Q27 31 27 65 Q27 85 37.5 115 Q48 145 64 171 L115 169 L111 73 Q126 66 147 62.5 Q168 59 189 59 Q211 59 232.5 63.5 Q254 68 270.5 77.5 Q287 87 297 101.5 Q307 116 307 137 Q307 154 298 166 Q289 178 274.5 188 Q260 198 241.5 206 Q223 214 203 222 Q173 235 147 248.5 Q121 262 101.5 277.5 Q82 293 71 312.5 Q60 332 60 356 Q60 392 76 419.5 Q92 447 120 465 Q148 483 184.5 492 Q221 501 262 501 Q289 501 315.5 496.5 Q342 492 364 483.5 Q386 475 399.5 462.5 Q413 450 413 433 Q413 424 409.5 410 Q406 396 400.5 381 Q395 366 388.5 351 Q382 336 375 324 L326 327 L330 418 Q304 432 263 432 Q245 432 227.5 428.5 Q210 425 196.5 417 Q183 409 175 395.5 Q167 382 167 363 Q167 349 177 337 Q187 325 202.5 315.5 Q218 306 237 297.5 Q256 289 273 282 Q299 271 323.5 258.5 Q348 246 367.5 229.5 Q387 213 399.5 191.5 Q412 170 412 142 Q412 105 395 77 Q378 49 348.5 30 Q319 11 278.5 1.5 Q238 -8 192 -8 Z " />
<glyph glyph-name="afii10103" unicode="&#x456;" horiz-adv-x="318" d="M184 500 Q216 500 227.5 490 Q239 480 239 459 Q239 456 236 428.5 Q233 401 228 361.5 Q223 322 217 275.5 Q211 229 206 187.5 Q201 146 197 115.5 Q193 85 192 77 Q233 80 272 101 L295 56 Q260 21 221 4 Q182 -13 153 -13 Q115 -13 100.5 5 Q86 23 86 51 Q86 57 86.5 63.5 Q87 70 88 78 L131 413 L46 428 L49 479 Q91 490 125.5 495 Q160 500 184 500 Z M199 691 Q223 691 240 674 Q257 657 257 631 Q257 602 238 581 Q219 560 188 560 Q165 560 148 576.5 Q131 593 131 617 Q131 649 150.5 670 Q170 691 199 691 Z " />
<glyph glyph-name="afii10105" unicode="&#x458;" horiz-adv-x="291" d="M179 500 Q211 500 224 490 Q237 480 237 459 Q237 457 234.5 433.5 Q232 410 228.5 374.5 Q225 339 220 296.5 Q215 254 210.5 214 Q206 174 202.5 141 Q199 108 197 92 Q190 30 175.5 -22 Q161 -74 134 -114.5 Q107 -155 65.5 -182.5 Q24 -210 -37 -223 L-54 -159 Q-10 -140 16.5 -115 Q43 -90 58.5 -59 Q74 -28 80.5 8 Q87 44 92 85 L127 413 L41 428 L46 479 Q130 500 179 500 Z M195 691 Q219 691 236 674 Q253 657 253 631 Q253 602 234 581 Q215 560 184 560 Q161 560 144 576.5 Q127 593 127 617 Q127 649 146.5 670 Q166 691 195 691 Z " />
<glyph glyph-name="afii10106" unicode="&#x459;" horiz-adv-x="749" d="M21 -4 L12 6 Q70 115 131 234.5 Q192 354 257 483 Q286 487 311.5 490.5 Q337 494 366 497 L381 489 Q387 430 391.5 377.5 Q396 325 401 274 L402 274 Q448 324 497.5 352.5 Q547 381 595 381 Q619 381 640.5 373.5 Q662 366 678.5 349 Q695 332 704.5 305.5 Q714 279 714 240 Q714 198 697 153.5 Q680 109 645.5 73 Q611 37 559.5 13.5 Q508 -10 440 -10 Q406 -10 384.5 -5.5 Q363 -1 350 6.5 Q337 14 332 25 Q327 36 326 50 Q326 53 325 60 Q324 67 323 77 Q320 105 316.5 148 Q313 191 309 235 Q305 279 301.5 318.5 Q298 358 297 379 L293 379 Q269 329 248.5 284 Q228 239 207.5 194 Q187 149 165 101.5 Q143 54 116 0 L21 -4 Z M551 305 Q534 305 514.5 296.5 Q495 288 476 275 Q457 262 439.5 246.5 Q422 231 410 217 Q413 179 416 143 Q419 107 424 69 Q432 67 442 66.5 Q452 66 462 66 Q529 67 568.5 111.5 Q608 156 608 229 Q608 265 592.5 285 Q577 305 551 305 Z " />
<glyph glyph-name="afii10107" unicode="&#x45a;" horiz-adv-x="852" d="M509 275 Q557 335 607.5 359 Q658 383 694 383 Q753 383 785.5 347 Q818 311 818 245 Q818 208 804.5 164 Q791 120 761 81.5 Q731 43 683 17.5 Q635 -8 567 -8 Q552 -8 529 -6.5 Q506 -5 480.5 -1 Q455 3 428 10 Q401 17 378 28 L373 39 Q378 81 384 128.5 Q390 176 396 225 L205 225 Q200 188 195.5 152 Q191 116 187 86 Q183 56 179.5 33 Q176 10 175 0 L73 0 Q74 9 79.5 49 Q85 89 92.5 147 Q100 205 109 274.5 Q118 344 126 413 L33 428 L36 479 Q121 500 179 500 Q210 500 222 490 Q234 480 234 459 Q234 454 232.5 438 Q231 422 228 399 Q225 376 221.5 347 Q218 318 214 287 L404 287 Q413 352 419 404.5 Q425 457 429 489 L533 489 Q531 470 527 441 Q523 412 519 381 Q515 350 511.5 321.5 Q508 293 505 275 L509 275 Z M646 307 Q634 307 615.5 301 Q597 295 576.5 279.5 Q556 264 534 238 Q512 212 493 172 L480 81 Q503 73 526 70 Q549 67 566 67 Q602 67 629.5 82 Q657 97 675 121 Q693 145 702.5 174.5 Q712 204 712 233 Q712 269 695 288 Q678 307 646 307 Z " />
<glyph glyph-name="afii10108" unicode="&#x45b;" horiz-adv-x="596" d="M56 572 L129 572 L137 638 L41 653 L46 703 Q88 714 125 719 Q162 724 191 724 Q223 724 235.5 713.5 Q248 703 248 680 Q248 672 245 642 Q242 612 237 572 L403 572 L397 529 L233 529 Q230 502 226 474 Q222 446 219 420.5 Q216 395 213 374 Q210 353 208 340 L212 340 Q234 381 260.5 409 Q287 437 312.5 454 Q338 471 361.5 478 Q385 485 402 485 Q459 485 481.5 456 Q504 427 504 378 Q504 367 502.5 347 Q501 327 497 292.5 Q493 258 487.5 205.5 Q482 153 473 77 Q513 80 552 101 L574 56 Q538 21 499.5 4 Q461 -13 433 -13 Q395 -13 381.5 3.5 Q368 20 368 50 Q368 57 368.5 63.5 Q369 70 370 78 Q380 165 386 215.5 Q392 266 394.5 293.5 Q397 321 397.5 331.5 Q398 342 398 349 Q398 373 388 388 Q378 403 355 403 Q338 403 316.5 392 Q295 381 273 357 Q251 333 230 294 Q209 255 191 199 L165 0 L62 0 Q69 52 77 118 Q85 184 93.5 254.5 Q102 325 110 396 Q118 467 125 529 L50 529 L56 572 Z " />
<glyph glyph-name="afii10193" unicode="&#x45f;" horiz-adv-x="598" d="M179 499 Q211 499 221.5 487 Q232 475 232 449 Q232 444 232 439.5 Q232 435 231 430 Q229 412 226 386 Q223 360 219.5 329.5 Q216 299 212 267.5 Q208 236 205 208 Q202 180 200 158.5 Q198 137 198 127 Q198 101 208 87 Q218 73 241 73 Q259 73 280 84 Q301 95 323 120 Q345 145 366 184.5 Q387 224 404 281 L433 489 L531 489 Q517 389 503.5 281.5 Q490 174 479 76 Q501 78 519.5 84 Q538 90 557 99 L580 55 Q544 20 504.5 4.5 Q465 -11 439 -11 Q421 -11 409.5 -5.5 Q398 0 392 9 Q386 18 384 29.5 Q382 41 382 54 Q382 72 384.5 95.5 Q387 119 389 136 L384 136 Q361 93 335.5 65 Q310 37 284 20.5 Q258 4 234 -2.5 Q210 -9 192 -9 Q139 -9 115 17 Q91 43 91 91 Q91 99 91 108.5 Q91 118 93 132 Q97 173 104.5 239.5 Q112 306 125 414 L33 428 L37 477 Q79 489 114.5 494 Q150 499 179 499 Z M313 1 Q328 -2 343.5 -5 Q359 -8 373 -13 L333 -208 L259 -210 L253 -200 Q267 -146 281.5 -92 Q296 -38 313 1 Z " />
<glyph glyph-name="afii10050" unicode="&#x490;" horiz-adv-x="561" d="M16 0 L24 75 L91 75 L156 611 L93 611 L101 685 L525 685 L542 803 L619 803 L594 611 L263 611 L197 75 L289 75 L280 0 L16 0 Z " />
<glyph glyph-name="afii10098" unicode="&#x491;" horiz-adv-x="448" d="M373 488 Q380 518 387.5 547.5 Q395 577 402 607 L455 607 L458 499 L458 482 Q458 447 444 431.5 Q430 416 405 416 Q369 416 340.5 416 Q312 416 288.5 416.5 Q265 417 245.5 417 Q226 417 207 417 L157 0 L54 0 L106 417 L57 417 L66 488 L373 488 Z " />
<glyph glyph-name="schwacyrillic" unicode="&#x4d9;" horiz-adv-x="481" d="M180 -8 Q111 -8 74 27.5 Q37 63 37 119 Q37 204 117 246.5 Q197 289 345 298 Q346 303 346 309 Q346 315 346 321 Q346 340 342 359 Q338 378 326.5 393 Q315 408 295.5 417.5 Q276 427 245 427 Q208 427 171 418 Q134 409 97 393 L75 453 Q112 475 164.5 488 Q217 501 268 501 Q323 501 358 485 Q393 469 413 442 Q433 415 440.5 379.5 Q448 344 448 305 Q448 254 435.5 198.5 Q423 143 392 97.5 Q361 52 309.5 22 Q258 -8 180 -8 Z M194 69 Q258 69 295.5 115.5 Q333 162 341 242 Q238 237 185 210 Q132 183 132 131 Q132 104 147 86.5 Q162 69 194 69 Z " />
<glyph glyph-name="afii10062" unicode="&#x40e;" horiz-adv-x="608" d="M297 685 L288 610 L225 610 Q239 565 255 512 Q271 459 284 414 L330 266 L335 266 Q348 297 365.5 334 Q383 371 397 401 L492 610 L430 610 Q431 616 432 626.5 Q433 637 434 648 Q435 659 436.5 669 Q438 679 439 685 L658 685 L649 610 L595 610 L349 94 Q334 64 320 43.5 Q306 23 289.5 10 Q273 -3 252.5 -9 Q232 -15 205 -15 Q182 -15 153.5 -11.5 Q125 -8 84 3 L104 76 Q156 65 186 65 Q208 65 225 78 Q242 91 259 125 L292 196 L258 196 Q243 241 225 294 Q207 347 188 402.5 Q169 458 151 511.5 Q133 565 119 610 L66 610 L75 685 L297 685 Z M376 731 Q349 731 326.5 741 Q304 751 285.5 767.5 Q267 784 252 805.5 Q237 827 224 850 L278 889 Q302 849 331.5 826.5 Q361 804 388 804 Q397 804 410 805.5 Q423 807 441 814.5 Q459 822 483 838 Q507 854 539 882 L566 852 Q515 784 465.5 757.5 Q416 731 376 731 Z " />
<glyph glyph-name="afii10061" unicode="&#x40c;" horiz-adv-x="649" d="M194 75 L257 75 L248 0 L16 0 L24 75 L87 75 L153 611 L90 611 L99 685 L331 685 L323 611 L259 611 L194 75 Z M520 80 L609 72 L611 9 Q588 -1 560 -4.5 Q532 -8 515 -8 Q486 -10 466 -0.5 Q446 9 432 33 L259 339 L262 372 L486 645 Q509 673 528.5 683.5 Q548 694 573 693 Q621 693 663 671 L651 608 L567 600 L358 356 L520 80 Z M371 729 L344 772 L526 899 L569 828 L371 729 Z " />
<glyph glyph-name="afii10027" unicode="&#x419;" horiz-adv-x="734" d="M499 610 Q502 629 504 647 Q506 665 508 684 L755 684 L746 610 L679 610 L612 75 L680 75 L672 0 L433 0 Q436 18 437.5 37 Q439 56 442 75 L508 75 Q520 175 532.5 275.5 Q545 376 558 477 L555 477 Q465 383 377 290.5 Q289 198 199 105 L195 75 L260 75 Q257 56 255 37 Q253 18 251 0 L13 0 L22 75 L91 75 Q107 209 123 342 Q139 475 156 610 L90 610 Q92 629 94 647 Q96 665 98 684 L337 684 Q334 665 332 647 Q330 629 328 610 L261 610 L212 212 L214 212 Q304 305 392.5 397 Q481 489 572 582 L575 610 L499 610 Z M435 751 Q408 751 385.5 761 Q363 771 344.5 787.5 Q326 804 311 825.5 Q296 847 283 870 L337 909 Q361 868 390.5 846 Q420 824 447 824 Q456 824 469 825.5 Q482 827 500 834.5 Q518 842 542 857.5 Q566 873 598 902 L625 871 Q599 837 574 814 Q549 791 524.5 777 Q500 763 477.5 757 Q455 751 435 751 Z " />
<glyph glyph-name="Agrave" unicode="&#xc0;" horiz-adv-x="676" d="M408 0 L416 75 L481 75 L460 189 L211 189 L162 75 L228 75 L220 0 L-6 0 L1 75 L58 75 L333 686 L465 686 L588 75 L641 75 L632 0 L408 0 Z M411 464 L389 598 L386 598 L333 472 L245 265 L447 265 L411 464 Z M249 825 L302 901 L459 772 L428 727 L249 825 Z " />
<glyph glyph-name="Aacute" unicode="&#xc1;" horiz-adv-x="676" d="M408 0 L416 75 L481 75 L460 189 L211 189 L162 75 L228 75 L220 0 L-6 0 L1 75 L58 75 L333 686 L465 686 L588 75 L641 75 L632 0 L408 0 Z M411 464 L389 598 L386 598 L333 472 L245 265 L447 265 L411 464 Z M379 726 L352 769 L534 896 L577 825 L379 726 Z " />
<glyph glyph-name="Acircumflex" unicode="&#xc2;" horiz-adv-x="676" d="M408 0 L416 75 L481 75 L460 189 L211 189 L162 75 L228 75 L220 0 L-6 0 L1 75 L58 75 L333 686 L465 686 L588 75 L641 75 L632 0 L408 0 Z M411 464 L389 598 L386 598 L333 472 L245 265 L447 265 L411 464 Z M550 714 L408 814 L242 714 L217 747 L382 893 L449 893 L581 749 L550 714 Z " />
<glyph glyph-name="Atilde" unicode="&#xc3;" horiz-adv-x="676" d="M408 0 L416 75 L481 75 L460 189 L211 189 L162 75 L228 75 L220 0 L-6 0 L1 75 L58 75 L333 686 L465 686 L588 75 L641 75 L632 0 L408 0 Z M411 464 L389 598 L386 598 L333 472 L245 265 L447 265 L411 464 Z M473 737 Q450 737 429.5 743 Q409 749 390.5 756.5 Q372 764 355.5 770 Q339 776 325 776 L266 737 L236 762 Q256 803 282 823.5 Q308 844 337 844 Q356 844 376 838 Q396 832 415 825.5 Q434 819 452 813 Q470 807 485 807 L545 846 L572 820 Q555 782 529.5 759.5 Q504 737 473 737 Z " />
<glyph glyph-name="Adieresis" unicode="&#xc4;" horiz-adv-x="676" d="M408 0 L416 75 L481 75 L460 189 L211 189 L162 75 L228 75 L220 0 L-6 0 L1 75 L58 75 L333 686 L465 686 L588 75 L641 75 L632 0 L408 0 Z M411 464 L389 598 L386 598 L333 472 L245 265 L447 265 L411 464 Z M554 789 Q552 764 535 747.5 Q518 731 493 731 Q472 731 459.5 745 Q447 759 449 780 Q450 804 467 820.5 Q484 837 506 837 Q528 837 542 823.5 Q556 810 554 789 Z M370 789 Q368 764 350.5 747.5 Q333 731 310 731 Q288 731 275 745.5 Q262 760 263 781 Q264 804 282.5 820.5 Q301 837 321 837 Q344 837 357.5 823.5 Q371 810 370 789 Z " />
<glyph glyph-name="Ccedilla" unicode="&#xc7;" horiz-adv-x="575" d="M412 698 Q466 698 508.5 690 Q551 682 583 670 L562 496 L483 496 L495 600 Q478 605 454.5 608.5 Q431 612 406 612 Q347 612 303.5 587 Q260 562 231.5 518 Q203 474 188.5 412 Q174 350 174 277 Q174 184 217 136 Q260 88 362 88 Q374 88 392.5 89 Q411 90 432 93 Q453 96 475 100 Q497 104 517 110 L533 25 Q515 18 492.5 12 Q470 6 445.5 1.5 Q421 -3 395.5 -5.5 Q370 -8 347 -9 Q333 -25 319 -41 Q305 -57 291 -74 Q335 -78 360 -96 Q385 -114 385 -147 Q385 -168 374.5 -188.5 Q364 -209 340.5 -225.5 Q317 -242 280.5 -253 Q244 -264 192 -264 Q192 -253 192.5 -242 Q193 -231 193 -220 Q248 -215 282 -199.5 Q316 -184 316 -158 Q316 -147 307 -140.5 Q298 -134 284.5 -130.5 Q271 -127 255.5 -126 Q240 -125 226 -125 L215 -103 Q235 -78 256 -54 Q277 -30 298 -7 Q233 -3 188 18 Q143 39 115 75 Q87 111 74 160 Q61 209 61 269 Q61 311 66.5 359.5 Q72 408 86.5 455.5 Q101 503 126 547 Q151 591 190 624.5 Q229 658 283.5 678 Q338 698 412 698 Z " />
<glyph glyph-name="Egrave" unicode="&#xc8;" horiz-adv-x="589" d="M16 0 L24 75 L90 75 L156 611 L93 611 L101 685 L601 685 L579 512 L501 512 L513 611 L263 611 L236 393 L472 398 L464 319 L227 323 L197 75 L467 75 L480 177 L560 177 L538 0 L16 0 Z M243 825 L296 901 L453 772 L422 727 L243 825 Z " />
<glyph glyph-name="Eacute" unicode="&#xc9;" horiz-adv-x="589" d="M16 0 L24 75 L90 75 L156 611 L93 611 L101 685 L601 685 L579 512 L501 512 L513 611 L263 611 L236 393 L472 398 L464 319 L227 323 L197 75 L467 75 L480 177 L560 177 L538 0 L16 0 Z M326 726 L299 769 L481 896 L524 825 L326 726 Z " />
<glyph glyph-name="Ecircumflex" unicode="&#xca;" horiz-adv-x="589" d="M16 0 L24 75 L90 75 L156 611 L93 611 L101 685 L601 685 L579 512 L501 512 L513 611 L263 611 L236 393 L472 398 L464 319 L227 323 L197 75 L467 75 L480 177 L560 177 L538 0 L16 0 Z M527 714 L385 814 L219 714 L194 747 L359 893 L426 893 L558 749 L527 714 Z " />
<glyph glyph-name="Edieresis" unicode="&#xcb;" horiz-adv-x="589" d="M16 0 L24 75 L90 75 L156 611 L93 611 L101 685 L601 685 L579 512 L501 512 L513 611 L263 611 L236 393 L472 398 L464 319 L227 323 L197 75 L467 75 L480 177 L560 177 L538 0 L16 0 Z M528 789 Q526 764 509 747.5 Q492 731 467 731 Q446 731 433.5 745 Q421 759 423 780 Q424 804 441 820.5 Q458 837 480 837 Q502 837 516 823.5 Q530 810 528 789 Z M344 789 Q342 764 324.5 747.5 Q307 731 284 731 Q262 731 249 745.5 Q236 760 237 781 Q238 804 256.5 820.5 Q275 837 295 837 Q318 837 331.5 823.5 Q345 810 344 789 Z " />
<glyph glyph-name="Igrave" unicode="&#xcc;" horiz-adv-x="370" d="M43 0 L52 75 L115 75 L180 611 L117 611 L126 686 L360 686 L351 611 L287 611 L221 75 L285 75 L277 0 L43 0 Z M101 825 L154 901 L311 772 L280 727 L101 825 Z " />
<glyph glyph-name="Iacute" unicode="&#xcd;" horiz-adv-x="370" d="M43 0 L52 75 L115 75 L180 611 L117 611 L126 686 L360 686 L351 611 L287 611 L221 75 L285 75 L277 0 L43 0 Z M209 726 L182 769 L364 896 L407 825 L209 726 Z " />
<glyph glyph-name="Icircumflex" unicode="&#xce;" horiz-adv-x="370" d="M43 0 L52 75 L115 75 L180 611 L117 611 L126 686 L360 686 L351 611 L287 611 L221 75 L285 75 L277 0 L43 0 Z M401 714 L259 814 L93 714 L68 747 L233 893 L300 893 L432 749 L401 714 Z " />
<glyph glyph-name="Idieresis" unicode="&#xcf;" horiz-adv-x="370" d="M43 0 L52 75 L115 75 L180 611 L117 611 L126 686 L360 686 L351 611 L287 611 L221 75 L285 75 L277 0 L43 0 Z M397 789 Q395 764 378 747.5 Q361 731 336 731 Q315 731 302.5 745 Q290 759 292 780 Q293 804 310 820.5 Q327 837 349 837 Q371 837 385 823.5 Q399 810 397 789 Z M213 789 Q211 764 193.5 747.5 Q176 731 153 731 Q131 731 118 745.5 Q105 760 106 781 Q107 804 125.5 820.5 Q144 837 164 837 Q187 837 200.5 823.5 Q214 810 213 789 Z " />
<glyph glyph-name="Eth" unicode="&#xd0;" horiz-adv-x="671" d="M16 0 L24 75 L93 75 L123 321 L58 321 L66 376 L129 376 L158 611 L94 611 L103 686 L385 686 Q459 686 508.5 664.5 Q558 643 588 605 Q618 567 630.5 516 Q643 465 643 406 Q643 325 625 251.5 Q607 178 567 122 Q527 66 463 33 Q399 0 308 0 L16 0 Z M267 611 L238 376 L368 376 L361 321 L231 321 L201 76 L297 76 Q314 76 338.5 80 Q363 84 388.5 96 Q414 108 439.5 130 Q465 152 485 188 Q505 224 517.5 276 Q530 328 530 400 Q530 471 513 513 Q496 555 471 576.5 Q446 598 417 604.5 Q388 611 363 611 L267 611 Z " />
<glyph glyph-name="Ntilde" unicode="&#xd1;" horiz-adv-x="747" d="M536 165 Q550 277 563.5 387.5 Q577 498 591 610 L524 610 L533 685 L764 685 Q761 666 759 647.5 Q757 629 755 610 L691 610 Q672 456 654 304.5 Q636 153 616 0 L514 0 Q457 112 406 218.5 Q355 325 296 437 Q284 462 271.5 486.5 Q259 511 248 537 Q247 537 246.5 536.5 Q246 536 245 536 L188 75 L256 75 L247 0 L14 0 Q17 19 19 37.5 Q21 56 23 75 L89 75 Q105 210 121.5 342.5 Q138 475 155 610 L89 610 L98 685 L278 685 Q323 594 371.5 494.5 Q420 395 479 274 L531 165 L536 165 Z M503 766 Q480 766 459.5 772 Q439 778 420.5 785.5 Q402 793 385.5 799 Q369 805 355 805 L296 766 L266 791 Q286 832 312 852.5 Q338 873 367 873 Q386 873 406 867 Q426 861 445 854.5 Q464 848 482 842 Q500 836 515 836 L575 875 L602 849 Q585 811 559.5 788.5 Q534 766 503 766 Z " />
<glyph glyph-name="Ograve" unicode="&#xd2;" horiz-adv-x="684" d="M398 697 Q470 697 519 675 Q568 653 598 614 Q628 575 641.5 523 Q655 471 655 411 Q655 323 633.5 246.5 Q612 170 570 113 Q528 56 466.5 23.5 Q405 -9 325 -9 Q255 -9 205 10.5 Q155 30 123 66 Q91 102 76 153 Q61 204 61 267 Q61 348 80.5 425.5 Q100 503 141 563.5 Q182 624 245.5 660.5 Q309 697 398 697 Z M395 617 Q331 617 288.5 585 Q246 553 220 502.5 Q194 452 183 389.5 Q172 327 172 265 Q172 170 209 121 Q246 72 330 72 Q387 72 427.5 100 Q468 128 493.5 175.5 Q519 223 531 285 Q543 347 543 415 Q543 455 536.5 491.5 Q530 528 513.5 556 Q497 584 468.5 600.5 Q440 617 395 617 Z M256 825 L309 901 L466 772 L435 727 L256 825 Z " />
<glyph glyph-name="Oacute" unicode="&#xd3;" horiz-adv-x="684" d="M398 697 Q470 697 519 675 Q568 653 598 614 Q628 575 641.5 523 Q655 471 655 411 Q655 323 633.5 246.5 Q612 170 570 113 Q528 56 466.5 23.5 Q405 -9 325 -9 Q255 -9 205 10.5 Q155 30 123 66 Q91 102 76 153 Q61 204 61 267 Q61 348 80.5 425.5 Q100 503 141 563.5 Q182 624 245.5 660.5 Q309 697 398 697 Z M395 617 Q331 617 288.5 585 Q246 553 220 502.5 Q194 452 183 389.5 Q172 327 172 265 Q172 170 209 121 Q246 72 330 72 Q387 72 427.5 100 Q468 128 493.5 175.5 Q519 223 531 285 Q543 347 543 415 Q543 455 536.5 491.5 Q530 528 513.5 556 Q497 584 468.5 600.5 Q440 617 395 617 Z M388 726 L361 769 L543 896 L586 825 L388 726 Z " />
<glyph glyph-name="Ocircumflex" unicode="&#xd4;" horiz-adv-x="684" d="M398 697 Q470 697 519 675 Q568 653 598 614 Q628 575 641.5 523 Q655 471 655 411 Q655 323 633.5 246.5 Q612 170 570 113 Q528 56 466.5 23.5 Q405 -9 325 -9 Q255 -9 205 10.5 Q155 30 123 66 Q91 102 76 153 Q61 204 61 267 Q61 348 80.5 425.5 Q100 503 141 563.5 Q182 624 245.5 660.5 Q309 697 398 697 Z M395 617 Q331 617 288.5 585 Q246 553 220 502.5 Q194 452 183 389.5 Q172 327 172 265 Q172 170 209 121 Q246 72 330 72 Q387 72 427.5 100 Q468 128 493.5 175.5 Q519 223 531 285 Q543 347 543 415 Q543 455 536.5 491.5 Q530 528 513.5 556 Q497 584 468.5 600.5 Q440 617 395 617 Z M568 714 L426 814 L260 714 L235 747 L400 893 L467 893 L599 749 L568 714 Z " />
<glyph glyph-name="Otilde" unicode="&#xd5;" horiz-adv-x="684" d="M398 697 Q470 697 519 675 Q568 653 598 614 Q628 575 641.5 523 Q655 471 655 411 Q655 323 633.5 246.5 Q612 170 570 113 Q528 56 466.5 23.5 Q405 -9 325 -9 Q255 -9 205 10.5 Q155 30 123 66 Q91 102 76 153 Q61 204 61 267 Q61 348 80.5 425.5 Q100 503 141 563.5 Q182 624 245.5 660.5 Q309 697 398 697 Z M395 617 Q331 617 288.5 585 Q246 553 220 502.5 Q194 452 183 389.5 Q172 327 172 265 Q172 170 209 121 Q246 72 330 72 Q387 72 427.5 100 Q468 128 493.5 175.5 Q519 223 531 285 Q543 347 543 415 Q543 455 536.5 491.5 Q530 528 513.5 556 Q497 584 468.5 600.5 Q440 617 395 617 Z M492 768 Q469 768 448.5 774 Q428 780 409.5 787.5 Q391 795 374.5 801 Q358 807 344 807 L285 768 L255 793 Q275 834 301 854.5 Q327 875 356 875 Q375 875 395 869 Q415 863 434 856.5 Q453 850 471 844 Q489 838 504 838 L564 877 L591 851 Q574 813 548.5 790.5 Q523 768 492 768 Z " />
<glyph glyph-name="Odieresis" unicode="&#xd6;" horiz-adv-x="684" d="M398 697 Q470 697 519 675 Q568 653 598 614 Q628 575 641.5 523 Q655 471 655 411 Q655 323 633.5 246.5 Q612 170 570 113 Q528 56 466.5 23.5 Q405 -9 325 -9 Q255 -9 205 10.5 Q155 30 123 66 Q91 102 76 153 Q61 204 61 267 Q61 348 80.5 425.5 Q100 503 141 563.5 Q182 624 245.5 660.5 Q309 697 398 697 Z M395 617 Q331 617 288.5 585 Q246 553 220 502.5 Q194 452 183 389.5 Q172 327 172 265 Q172 170 209 121 Q246 72 330 72 Q387 72 427.5 100 Q468 128 493.5 175.5 Q519 223 531 285 Q543 347 543 415 Q543 455 536.5 491.5 Q530 528 513.5 556 Q497 584 468.5 600.5 Q440 617 395 617 Z M565 789 Q563 764 546 747.5 Q529 731 504 731 Q483 731 470.5 745 Q458 759 460 780 Q461 804 478 820.5 Q495 837 517 837 Q539 837 553 823.5 Q567 810 565 789 Z M381 789 Q379 764 361.5 747.5 Q344 731 321 731 Q299 731 286 745.5 Q273 760 274 781 Q275 804 293.5 820.5 Q312 837 332 837 Q355 837 368.5 823.5 Q382 810 381 789 Z " />
<glyph glyph-name="Oslash" unicode="&#xd8;" horiz-adv-x="684" d="M398 697 Q461 697 506.5 680 Q552 663 582 632 L641 698 L696 698 L608 599 Q633 561 644 513 Q655 465 655 411 Q655 323 633.5 246.5 Q612 170 570 113 Q528 56 466.5 23.5 Q405 -9 325 -9 Q257 -9 208.5 9 Q160 27 128 60 L70 -5 L19 -5 Q28 5 50.5 29.5 Q73 54 105 90 Q82 125 71.5 169 Q61 213 61 267 Q61 348 80.5 425.5 Q100 503 141 563.5 Q182 624 245.5 660.5 Q309 697 398 697 Z M543 415 Q543 441 540.5 465.5 Q538 490 531 513 L198 138 Q235 72 330 72 Q387 72 427.5 100 Q468 128 493.5 175.5 Q519 223 531 285 Q543 347 543 415 Z M395 617 Q331 617 288.5 585 Q246 553 220 502.5 Q194 452 183 389.5 Q172 327 172 265 Q172 213 182 177 Q221 221 264 269.5 Q307 318 350.5 367.5 Q394 417 436 464.5 Q478 512 514 554 Q497 583 468.5 600 Q440 617 395 617 Z " />
<glyph glyph-name="Ugrave" unicode="&#xd9;" horiz-adv-x="706" d="M621 249 Q613 190 593 142.5 Q573 95 538.5 61.5 Q504 28 453.5 10 Q403 -8 336 -8 Q263 -8 213 10.5 Q163 29 134 63.5 Q105 98 95.5 147 Q86 196 93 257 L137 611 L80 611 L89 686 L317 686 L309 611 L243 611 L198 246 Q177 72 338 72 Q413 72 459.5 115 Q506 158 517 246 L562 611 L497 611 L506 686 L734 686 L725 611 L666 611 L621 249 Z M261 825 L314 901 L471 772 L440 727 L261 825 Z " />
<glyph glyph-name="Uacute" unicode="&#xda;" horiz-adv-x="706" d="M621 249 Q613 190 593 142.5 Q573 95 538.5 61.5 Q504 28 453.5 10 Q403 -8 336 -8 Q263 -8 213 10.5 Q163 29 134 63.5 Q105 98 95.5 147 Q86 196 93 257 L137 611 L80 611 L89 686 L317 686 L309 611 L243 611 L198 246 Q177 72 338 72 Q413 72 459.5 115 Q506 158 517 246 L562 611 L497 611 L506 686 L734 686 L725 611 L666 611 L621 249 Z M384 726 L357 769 L539 896 L582 825 L384 726 Z " />
<glyph glyph-name="Ucircumflex" unicode="&#xdb;" horiz-adv-x="706" d="M621 249 Q613 190 593 142.5 Q573 95 538.5 61.5 Q504 28 453.5 10 Q403 -8 336 -8 Q263 -8 213 10.5 Q163 29 134 63.5 Q105 98 95.5 147 Q86 196 93 257 L137 611 L80 611 L89 686 L317 686 L309 611 L243 611 L198 246 Q177 72 338 72 Q413 72 459.5 115 Q506 158 517 246 L562 611 L497 611 L506 686 L734 686 L725 611 L666 611 L621 249 Z M576 715 L429 813 L256 715 L230 747 L402 890 L471 890 L608 749 L576 715 Z " />
<glyph glyph-name="Udieresis" unicode="&#xdc;" horiz-adv-x="706" d="M621 249 Q613 190 593 142.5 Q573 95 538.5 61.5 Q504 28 453.5 10 Q403 -8 336 -8 Q263 -8 213 10.5 Q163 29 134 63.5 Q105 98 95.5 147 Q86 196 93 257 L137 611 L80 611 L89 686 L317 686 L309 611 L243 611 L198 246 Q177 72 338 72 Q413 72 459.5 115 Q506 158 517 246 L562 611 L497 611 L506 686 L734 686 L725 611 L666 611 L621 249 Z M574 789 Q572 764 555 747.5 Q538 731 513 731 Q492 731 479.5 745 Q467 759 469 780 Q470 804 487 820.5 Q504 837 526 837 Q548 837 562 823.5 Q576 810 574 789 Z M390 789 Q388 764 370.5 747.5 Q353 731 330 731 Q308 731 295 745.5 Q282 760 283 781 Q284 804 302.5 820.5 Q321 837 341 837 Q364 837 377.5 823.5 Q391 810 390 789 Z " />
<glyph glyph-name="Yacute" unicode="&#xdd;" horiz-adv-x="603" d="M482 610 L420 610 L429 686 L650 686 L641 610 L591 610 L366 287 L341 75 L417 75 L409 0 L141 0 L149 75 L227 75 L252 284 L111 610 L61 610 L70 686 L287 686 L278 610 L218 610 L316 364 L320 364 L482 610 Z M332 725 L305 768 L487 895 L530 824 L332 725 Z " />
<glyph glyph-name="Thorn" unicode="&#xde;" horiz-adv-x="580" d="M251 545 L379 545 Q474 545 524 503 Q574 461 574 376 Q574 337 561 298.5 Q548 260 520.5 229 Q493 198 449 178.5 Q405 159 342 160 L206 160 L194 71 L270 71 L262 0 L14 0 L23 71 L88 71 L153 612 L87 612 L96 686 L344 686 L335 612 L260 612 L251 545 Z M243 478 L213 227 L326 227 Q351 227 375.5 234.5 Q400 242 419.5 259.5 Q439 277 451 304.5 Q463 332 463 372 Q463 427 433.5 452.5 Q404 478 356 478 L243 478 Z " />
<glyph glyph-name="agrave" unicode="&#xe0;" horiz-adv-x="571" d="M295 497 Q324 497 353 490 Q382 483 413 470 L437 497 L506 493 Q497 436 488.5 378.5 Q480 321 472.5 267.5 Q465 214 459 165.5 Q453 117 449 77 Q469 79 490 86.5 Q511 94 531 105 Q535 97 542 82 Q549 67 554 59 Q539 44 520.5 31.5 Q502 19 483 9 Q464 -1 446 -6.5 Q428 -12 413 -12 Q379 -12 365.5 6 Q352 24 350 53 Q350 73 352.5 93.5 Q355 114 359 137 L354 137 Q332 93 309 65 Q286 37 262.5 20 Q239 3 215.5 -3.5 Q192 -10 169 -10 Q111 -10 75.5 32 Q40 74 40 160 Q40 229 56 290 Q72 351 104 397 Q136 443 184 470 Q232 497 295 497 Z M211 66 Q229 66 248.5 76 Q268 86 289 110.5 Q310 135 330.5 175.5 Q351 216 371 276 L391 399 Q362 410 338 413.5 Q314 417 297 417 Q252 417 222.5 392.5 Q193 368 175.5 332 Q158 296 151 254 Q144 212 144 176 Q144 120 162.5 93 Q181 66 211 66 Z M185 688 L253 747 L365 576 L323 541 L185 688 Z " />
<glyph glyph-name="aacute" unicode="&#xe1;" horiz-adv-x="571" d="M295 497 Q324 497 353 490 Q382 483 413 470 L437 497 L506 493 Q497 436 488.5 378.5 Q480 321 472.5 267.5 Q465 214 459 165.5 Q453 117 449 77 Q469 79 490 86.5 Q511 94 531 105 Q535 97 542 82 Q549 67 554 59 Q539 44 520.5 31.5 Q502 19 483 9 Q464 -1 446 -6.5 Q428 -12 413 -12 Q379 -12 365.5 6 Q352 24 350 53 Q350 73 352.5 93.5 Q355 114 359 137 L354 137 Q332 93 309 65 Q286 37 262.5 20 Q239 3 215.5 -3.5 Q192 -10 169 -10 Q111 -10 75.5 32 Q40 74 40 160 Q40 229 56 290 Q72 351 104 397 Q136 443 184 470 Q232 497 295 497 Z M211 66 Q229 66 248.5 76 Q268 86 289 110.5 Q310 135 330.5 175.5 Q351 216 371 276 L391 399 Q362 410 338 413.5 Q314 417 297 417 Q252 417 222.5 392.5 Q193 368 175.5 332 Q158 296 151 254 Q144 212 144 176 Q144 120 162.5 93 Q181 66 211 66 Z M306 539 L270 574 L414 746 L471 686 L306 539 Z " />
<glyph glyph-name="acircumflex" unicode="&#xe2;" horiz-adv-x="571" d="M295 497 Q324 497 353 490 Q382 483 413 470 L437 497 L506 493 Q497 436 488.5 378.5 Q480 321 472.5 267.5 Q465 214 459 165.5 Q453 117 449 77 Q469 79 490 86.5 Q511 94 531 105 Q535 97 542 82 Q549 67 554 59 Q539 44 520.5 31.5 Q502 19 483 9 Q464 -1 446 -6.5 Q428 -12 413 -12 Q379 -12 365.5 6 Q352 24 350 53 Q350 73 352.5 93.5 Q355 114 359 137 L354 137 Q332 93 309 65 Q286 37 262.5 20 Q239 3 215.5 -3.5 Q192 -10 169 -10 Q111 -10 75.5 32 Q40 74 40 160 Q40 229 56 290 Q72 351 104 397 Q136 443 184 470 Q232 497 295 497 Z M211 66 Q229 66 248.5 76 Q268 86 289 110.5 Q310 135 330.5 175.5 Q351 216 371 276 L391 399 Q362 410 338 413.5 Q314 417 297 417 Q252 417 222.5 392.5 Q193 368 175.5 332 Q158 296 151 254 Q144 212 144 176 Q144 120 162.5 93 Q181 66 211 66 Z M477 533 L335 634 L169 534 L145 567 L309 712 L376 712 L507 568 L477 533 Z " />
<glyph glyph-name="atilde" unicode="&#xe3;" horiz-adv-x="571" d="M295 497 Q324 497 353 490 Q382 483 413 470 L437 497 L506 493 Q497 436 488.5 378.5 Q480 321 472.5 267.5 Q465 214 459 165.5 Q453 117 449 77 Q469 79 490 86.5 Q511 94 531 105 Q535 97 542 82 Q549 67 554 59 Q539 44 520.5 31.5 Q502 19 483 9 Q464 -1 446 -6.5 Q428 -12 413 -12 Q379 -12 365.5 6 Q352 24 350 53 Q350 73 352.5 93.5 Q355 114 359 137 L354 137 Q332 93 309 65 Q286 37 262.5 20 Q239 3 215.5 -3.5 Q192 -10 169 -10 Q111 -10 75.5 32 Q40 74 40 160 Q40 229 56 290 Q72 351 104 397 Q136 443 184 470 Q232 497 295 497 Z M211 66 Q229 66 248.5 76 Q268 86 289 110.5 Q310 135 330.5 175.5 Q351 216 371 276 L391 399 Q362 410 338 413.5 Q314 417 297 417 Q252 417 222.5 392.5 Q193 368 175.5 332 Q158 296 151 254 Q144 212 144 176 Q144 120 162.5 93 Q181 66 211 66 Z M400 573 Q377 573 356.5 579 Q336 585 317.5 592.5 Q299 600 282.5 606 Q266 612 252 612 L193 573 L163 598 Q183 639 209 659.5 Q235 680 264 680 Q283 680 303 674 Q323 668 342 661.5 Q361 655 379 649 Q397 643 412 643 L472 682 L499 656 Q482 618 456.5 595.5 Q431 573 400 573 Z " />
</font>
</svg>
