<?xml version="1.0" standalone="no"?>
<!DOCTYPE svg PUBLIC "-//W3C//DTD SVG 1.1//EN" "http://www.w3.org/Graphics/SVG/1.1/DTD/svg11.dtd" >
<svg xmlns="http://www.w3.org/2000/svg">
<metadata></metadata>
<defs>
<font id="sapientsansbolditalicregular" horiz-adv-x="1003" >
<font-face units-per-em="2048" ascent="1638" descent="-410" />
<missing-glyph horiz-adv-x="417" />
<glyph horiz-adv-x="2048" />
<glyph horiz-adv-x="2048" />
<glyph unicode="&#xd;" horiz-adv-x="417" />
<glyph unicode=" "  horiz-adv-x="417" />
<glyph unicode="&#x09;" horiz-adv-x="417" />
<glyph unicode="&#xa0;" horiz-adv-x="417" />
<glyph unicode="!" horiz-adv-x="634" d="M182 0l47 272h260l-47 -272h-260zM299 457l119 1001h301l-236 -1001h-184z" />
<glyph unicode="&#x22;" horiz-adv-x="856" d="M258 1026l78 432h229l-76 -432h-231zM647 1026l76 432h227l-76 -432h-227z" />
<glyph unicode="#" horiz-adv-x="1284" d="M131 389l45 250h166l70 221h-131l43 248h168l116 362h258l-116 -362h219l116 362h256l-114 -362h129l-43 -248h-168l-70 -221h131l-45 -250h-168l-125 -389h-258l127 389h-217l-125 -389h-260l127 389h-131zM600 639h217l70 221h-217z" />
<glyph unicode="$" horiz-adv-x="1146" d="M16 180l203 185q86 -117 279 -123l65 370l-59 9q-164 23 -238 122q-55 74 -55 185q0 47 8 100q33 178 159 298t310 140l33 185h190l-32 -183q223 -14 342 -168l-197 -178q-68 86 -215 99l-64 -357l70 -12q168 -31 238 -115q59 -76 59 -196q0 -52 -10 -111 q-33 -182 -168 -299q-127 -111 -313 -135l-41 -229h-191l39 221q-276 10 -412 192zM473 1038q-10 -63 23.5 -106t111.5 -55l62 342q-168 -25 -197 -181zM637 246q180 22 207 176q14 80 -21 123q-29 37 -123 53z" />
<glyph unicode="%" horiz-adv-x="1579" d="M215 924q0 31 6 63l37 203q23 133 117 209q88 72 205 71q102 0 165.5 -57t63.5 -160q0 -31 -6 -63l-35 -203q-23 -133 -119 -209q-88 -72 -205 -71q-100 0 -164.5 56t-64.5 161zM336 0l893 1458h190l-891 -1458h-192zM397 961q0 -82 78 -82q97 -1 117 116l33 187 q4 18 4 35q0 82 -80 81q-94 0 -117 -116l-33 -187q-2 -18 -2 -34zM944 205q0 31 6 63l35 203q25 133 119 209q88 72 205 72q100 0 164.5 -57.5t64.5 -159.5q0 -31 -6 -64l-35 -203q-25 -133 -116 -206.5t-207 -73.5q-100 0 -165 56t-65 161zM1124 240q0 -80 80 -80 q97 -1 117 116l33 187q4 18 4 35q0 82 -80 82q-96 0 -117 -117l-33 -187q-4 -20 -4 -36z" />
<glyph unicode="&#x26;" horiz-adv-x="1339" d="M127 317q0 53 12 113q37 217 310 391q-84 135 -84 246q0 31 4 63q27 152 140.5 246t276.5 94q137 0 213 -74.5t76 -197.5q0 -35 -6 -72q-25 -145 -182 -254q-35 -25 -109 -75l174 -291q78 90 113 256h231q-66 -297 -221 -453l187 -309h-312l-76 127q-186 -139 -370 -139 q-377 0 -377 329zM373 395q0 -76 48 -121t124 -45q109 0 215 86l-209 342q-154 -102 -174 -223q-4 -20 -4 -39zM614 1124q-8 -51 60 -163q20 12 65 40q101 66 101 150q0 92 -92 92q-111 0 -134 -119z" />
<glyph unicode="'" horiz-adv-x="468" d="M258 1026l78 432h231l-78 -432h-231z" />
<glyph unicode="(" horiz-adv-x="614" d="M135 135q0 57 15 148l157 893q31 172 96 264q51 74 203 211l133 -178q-45 -39 -131 -138q-37 -53 -57 -172l-154 -868q-20 -119 -2 -172q19 -53 82 -137l-196 -179q-53 74 -72 101q-37 57 -55.5 109.5t-18.5 117.5z" />
<glyph unicode=")" horiz-adv-x="614" d="M49 -12q43 37 129 135q39 53 60 172l153 868q20 119 2 172q-18 49 -82 135l197 181q55 -74 72 -101q39 -57 57 -109t18 -118q0 -57 -16 -147l-158 -893q-31 -172 -94 -265q-53 -74 -205 -211z" />
<glyph unicode="*" horiz-adv-x="911" d="M219 942l230 119l-187 119l113 163l176 -137l35 256h174l-53 -256l223 137l57 -163l-231 -119l188 -119l-115 -162l-174 135l-37 -256h-174l56 256l-224 -135z" />
<glyph unicode="+" d="M121 442l45 250h303l57 328h232l-60 -328h303l-45 -250h-301l-57 -327h-231l59 327h-305z" />
<glyph unicode="," horiz-adv-x="505" d="M18 -338l111 629h270l-71 -404z" />
<glyph unicode="-" horiz-adv-x="784" d="M141 461l45 248h580l-43 -248h-582z" />
<glyph unicode="." horiz-adv-x="518" d="M78 0l53 303h281l-54 -303h-280z" />
<glyph unicode="/" horiz-adv-x="741" d="M-78 -152l848 1762h229l-845 -1762h-232z" />
<glyph unicode="0" horiz-adv-x="1128" d="M180 326q0 47 10 96l109 614q35 201 178 322q135 113 307 112q147 0 242.5 -89t95.5 -248q0 -45 -8 -97l-108 -614q-35 -201 -179 -322q-133 -113 -305 -112q-150 0 -246 90t-96 248zM430 373q0 -145 135 -146q72 0 126.5 53.5t70.5 143.5l106 608q4 27 4 51 q0 147 -131 148q-74 0 -128 -54.5t-70 -144.5l-109 -608q-4 -27 -4 -51z" />
<glyph unicode="1" horiz-adv-x="878" d="M242 913l51 287l319 258h244l-256 -1458h-246l207 1171z" />
<glyph unicode="2" horiz-adv-x="1083" d="M90 0l43 240l612 632q86 88 101 177q6 25 6 47q0 135 -135 135q-164 0 -197 -187h-246q35 195 175 314q133 113 311 112q156 0 248 -88t92 -241q0 -45 -8 -94q-18 -98 -68 -177q-39 -59 -135 -157l-459 -473h518l-41 -240h-817z" />
<glyph unicode="3" horiz-adv-x="1095" d="M129 322q0 45 8 96h244q-2 -20 -2 -41q0 -150 151 -150q82 0 141.5 53.5t76.5 149.5q4 27 4 49q0 152 -158 152h-35l41 231h35q170 0 201 182q6 25 6 46q0 141 -137 141q-70 0 -124.5 -47t-72.5 -129h-244q37 190 176 305q133 111 308 110q156 0 250 -91t94 -240 q0 -41 -9 -86q-37 -209 -206 -299q123 -80 122 -242q0 -43 -8 -90q-37 -209 -184 -326q-135 -109 -320 -108q-156 0 -251 78q-106 88 -107 256z" />
<glyph unicode="4" horiz-adv-x="1062" d="M74 207l45 252l637 999h266l-635 -999h281l47 272h235l-47 -272h123l-45 -252h-123l-37 -207h-235l37 207h-549z" />
<glyph unicode="5" horiz-adv-x="1128" d="M186 315q0 39 7 93h245q-12 -180 131 -181q74 0 125 47q63 57 92 218q10 61 11 106q0 156 -129 156q-127 0 -183 -119h-223l144 823h765l-43 -239h-542l-56 -314q86 74 215 74q160 0 232 -95.5t72 -230.5q-1 -67 -19 -161q-45 -256 -186 -386q-129 -119 -316 -118 q-193 0 -280 116q-61 82 -62 211z" />
<glyph unicode="6" horiz-adv-x="1052" d="M131 332q0 51 8 106q25 137 183 389l393 631h268l-385 -602q45 18 102 18q123 0 205 -89t82 -242q0 -48 -10 -101q-37 -211 -176 -332.5t-322 -121.5q-158 0 -253 90t-95 254zM381 385q0 -158 139 -158q78 0 136.5 57.5t74.5 155.5q6 29 6 56q0 158 -141 157 q-76 0 -134.5 -57t-76.5 -156q-4 -29 -4 -55z" />
<glyph unicode="7" horiz-adv-x="1024" d="M236 0l651 1219h-355l-40 -230h-234l82 469h854l-43 -239l-649 -1219h-266z" />
<glyph unicode="8" horiz-adv-x="1122" d="M158 328q0 45 8 96q37 207 225 328q-104 90 -104 233q0 33 6 70q35 188 176 305q137 111 311 110q152 0 248 -89t96 -240q0 -41 -6 -86q-35 -188 -205 -303q119 -98 119 -250q0 -37 -8 -78q-35 -205 -182 -324q-137 -113 -324 -112q-162 0 -258 86q-102 92 -102 254z M408 389q0 -72 43 -117t110 -45q90 0 156.5 74t66.5 166q0 72 -42 118t-111 46q-90 0 -156.5 -75t-66.5 -167zM535 1008q0 -66 37.5 -106t99.5 -40q86 0 144 68.5t58 154.5q0 63 -37.5 104.5t-99.5 41.5q-84 0 -143 -68.5t-59 -154.5z" />
<glyph unicode="9" horiz-adv-x="1052" d="M242 915q0 49 10 101q37 211 178 336q137 119 320 118q158 0 253 -90t95 -254q-1 -51 -11 -106q-25 -143 -178 -389l-397 -631h-264l385 602q-45 -18 -105 -18q-121 0 -200 88q-86 92 -86 243zM492 963q0 -158 141 -158q76 0 134.5 57.5t76.5 155.5q4 29 4 55 q0 158 -141 158q-76 0 -134.5 -57.5t-76.5 -155.5q-4 -29 -4 -55z" />
<glyph unicode=":" horiz-adv-x="563" d="M125 0l53 303h279l-54 -303h-278zM223 555l53 303h279l-53 -303h-279z" />
<glyph unicode=";" horiz-adv-x="563" d="M72 -338l110 629h267l-70 -404zM223 555l53 303h279l-53 -303h-279z" />
<glyph unicode="&#x3c;" horiz-adv-x="1916" d="M147 584l865 788h309l-731 -661h1325l-45 -252h-1325l497 -664h-309z" />
<glyph unicode="=" d="M86 238l43 249h836l-45 -249h-834zM164 682l45 250h833l-43 -250h-835z" />
<glyph unicode="&#x3e;" horiz-adv-x="1916" d="M125 459l45 252h1325l-498 661h310l585 -788l-864 -789h-307l731 664h-1327z" />
<glyph unicode="?" horiz-adv-x="966" d="M260 1061q33 186 170 301q131 109 299 108q145 0 239.5 -86t94.5 -237q0 -41 -8 -86q-23 -123 -137 -256l-177 -201q-41 -49 -51 -104l-8 -43h-246l13 61q18 113 108 213l174 195q82 92 82 176q0 129 -127 129q-72 0 -120 -48t-60 -122h-246zM348 0l49 272h260l-49 -272 h-260z" />
<glyph unicode="@" horiz-adv-x="1665" d="M133 94q0 -162 98.5 -268.5t251.5 -106.5h516q100 0 203 51.5t168 133.5l-190 121q-43 -47 -129 -48h-523q-66 0 -108.5 46.5t-42.5 115.5q0 16 2 35l131 741q14 80 78.5 139.5t140.5 59.5h522q66 0 107 -44t41 -112q0 -18 -4 -36l-84 -480q-12 -74 -80 -73q-57 0 -57 53 q0 10 2 24l90 510h-199l-10 -47q-45 45 -133 45q-139 0 -242 -110q-88 -96 -123 -289q-14 -86 -14 -141q0 -78 30 -140q59 -113 209 -112q90 0 189 78q68 -119 219 -119q121 0 223 88q113 94 139 244l78 450q8 43 8 86q0 160 -99 266.5t-253 106.5h-514q-176 0 -323.5 -135 t-182.5 -326l-127 -721q-8 -43 -8 -86zM766 489q0 31 8 68q33 193 144 193q86 0 86 -113q0 -35 -9 -80q-32 -182 -143 -182q-86 0 -86 114z" />
<glyph unicode="A" horiz-adv-x="1183" d="M-41 0l746 1458h204l234 -1458h-275l-32 258h-478l-127 -258h-272zM475 498h334l-72 530z" />
<glyph unicode="B" horiz-adv-x="1220" d="M106 0l256 1458h539q170 0 261 -84t91 -231q0 -45 -8 -94q-20 -111 -94 -199q-57 -70 -125 -102q133 -74 133 -246q0 -39 -6 -82q-37 -199 -169 -309.5t-316 -110.5h-562zM414 254h272q92 0 151.5 64.5t59.5 156.5q0 137 -147 137h-275zM520 868h258q172 0 203 168 q2 20 2 37q0 131 -147 131h-256z" />
<glyph unicode="C" horiz-adv-x="1148" d="M145 393q0 92 43 334t74 332q53 154 162 252q173 159 386 159h3q195 0 307 -118q108 -114 107 -327v-15h-266q-10 207 -191 207q-104 0 -180 -76q-47 -47 -74 -123q-29 -84 -65.5 -291t-36.5 -289q0 -74 30 -121q48 -75 151 -75h3q180 0 264 207h264q-74 -223 -231 -345 q-149 -116 -339 -116h-3q-215 0 -334 159q-74 98 -74 246z" />
<glyph unicode="D" horiz-adv-x="1222" d="M106 0l256 1458h486q225 0 330 -139q75 -101 75 -252q0 -82 -42.5 -328.5t-67.5 -322.5q-55 -168 -174 -277q-152 -139 -379 -139h-484zM414 254h196q129 0 213 90q70 76 125 391q35 195 35 269q0 70 -25 110q-53 90 -180 90h-198z" />
<glyph unicode="E" horiz-adv-x="1120" d="M106 0l256 1458h885l-45 -254h-622l-60 -342h529l-43 -254h-531l-61 -354h620l-45 -254h-883z" />
<glyph unicode="F" horiz-adv-x="1093" d="M106 0l256 1458h885l-45 -254h-622l-64 -358h531l-46 -254h-528l-104 -592h-263z" />
<glyph unicode="G" horiz-adv-x="1202" d="M145 393q0 92 43 334t74 332q53 154 162 252q173 159 386 159h3q219 0 332 -141q92 -118 92 -302v-23h-264q-10 213 -205 213q-102 0 -180 -78q-47 -47 -74 -125t-63 -285q-37 -213 -37 -295q0 -72 28 -117q48 -75 153 -75h3q119 0 199 82q74 74 96 194l10 55h-248 l43 238h506l-37 -213q-53 -299 -206 -444q-176 -166 -408 -166q-215 0 -334 159q-74 98 -74 246z" />
<glyph unicode="H" horiz-adv-x="1271" d="M106 0l256 1458h263l-105 -596h455l104 596h262l-258 -1458h-262l109 610h-455l-106 -610h-263z" />
<glyph unicode="I" horiz-adv-x="555" d="M106 0l256 1458h263l-256 -1458h-263z" />
<glyph unicode="J" horiz-adv-x="944" d="M-20 137l206 187q59 -82 156 -82q211 0 256 250l170 966h262l-172 -979q-41 -231 -209 -366q-154 -125 -352 -125q-207 0 -317 149z" />
<glyph unicode="K" horiz-adv-x="1234" d="M106 0l256 1458h263l-111 -635l584 635h319l-547 -579l322 -879h-305l-230 664l-213 -226l-75 -438h-263z" />
<glyph unicode="L" horiz-adv-x="1064" d="M106 0l256 1458h263l-211 -1204h608l-45 -254h-871z" />
<glyph unicode="M" horiz-adv-x="1509" d="M106 0l256 1458h259l213 -788l487 788h258l-258 -1458h-262l149 850l-352 -553h-178l-160 553l-149 -850h-263z" />
<glyph unicode="N" horiz-adv-x="1320" d="M106 0l256 1458h234l375 -893l157 893h263l-258 -1458h-234l-373 895l-157 -895h-263z" />
<glyph unicode="O" horiz-adv-x="1193" d="M145 393q0 92 43 334t74 332q53 154 162 252q173 159 388 159h3q184 0 296 -113.5t112 -295.5q0 -92 -42 -331t-75 -331q-53 -152 -162 -252q-175 -159 -386 -159h-3q-184 0 -297 111.5t-113 293.5zM414 436q0 -72 28 -117q50 -77 153 -77h3q104 0 182 77q47 47 75 126 t63.5 285t35.5 288q0 74 -28 121q-51 78 -156 78q-104 0 -182 -78q-47 -47 -74 -125t-63 -285q-37 -213 -37 -293z" />
<glyph unicode="P" horiz-adv-x="1165" d="M106 0l256 1458h521q176 0 276 -104q94 -98 94 -258q0 -45 -8 -92q-33 -193 -174 -320q-147 -135 -348 -135h-258l-96 -549h-263zM510 805h246q88 0 150.5 54.5t76.5 144.5q4 23 4 45q0 155 -160 155h-2h-245z" />
<glyph unicode="Q" horiz-adv-x="1191" d="M145 393q0 92 43 334t74 332q53 154 162 252q173 159 388 159h3q184 0 296 -113.5t112 -295.5q0 -92 -43 -332q-37 -209 -60 -289q-41 -137 -114 -227l94 -125l-164 -149l-96 129q-127 -80 -285 -80q-184 0 -297 111.5t-113 293.5zM414 436q0 -72 28 -117q50 -77 153 -77 h3q51 0 92 26l-94 125l166 150l80 -109q39 76 76 295q36 202 36 285q0 78 -28 125q-51 78 -156 78q-104 0 -182 -78q-47 -47 -74 -125t-63 -285q-37 -213 -37 -293z" />
<glyph unicode="R" horiz-adv-x="1212" d="M106 0l256 1458h527q174 0 272 -102q92 -96 92 -252q0 -45 -8 -92q-25 -145 -117 -250q-82 -92 -196 -133l190 -629h-303l-160 582h-188l-102 -582h-263zM512 819h248q96 0 161.5 69t65.5 165q0 68 -43 109.5t-117 41.5h-247z" />
<glyph unicode="S" horiz-adv-x="1095" d="M16 180l203 185q92 -123 303 -123q238 0 269 180q4 24 4 45q0 49 -23 77q-33 40 -110 52l-158 25q-295 45 -295 305q0 47 10 102q35 199 182.5 320.5t362.5 121.5q272 0 403 -170l-196 -178q-78 100 -258 101q-98 0 -162 -52.5t-78 -132.5q-2 -14 -2 -28q-1 -45 25 -78 q34 -43 112 -55l156 -25q166 -27 235 -113q59 -74 60 -198q0 -52 -10 -111q-37 -207 -198 -324.5t-378 -117.5q-315 0 -457 192z" />
<glyph unicode="T" horiz-adv-x="1056" d="M219 1204l45 254h963l-45 -254h-351l-213 -1204h-262l213 1204h-350z" />
<glyph unicode="U" horiz-adv-x="1239" d="M164 393q0 51 10 107l168 958h262l-168 -948q-6 -37 -6 -70q0 -198 189 -198h2q109 0 184.5 71.5t97.5 196.5l166 948h260l-168 -958q-41 -227 -208 -369.5t-375 -142.5q-184 0 -299 110.5t-115 294.5z" />
<glyph unicode="V" horiz-adv-x="1075" d="M213 1458h270l103 -950l436 950h274l-702 -1458h-197z" />
<glyph unicode="W" horiz-adv-x="1652" d="M217 1458h275l45 -919l407 919h195l84 -919l370 919h273l-617 -1458h-219l-90 885l-403 -885h-218z" />
<glyph unicode="X" horiz-adv-x="1118" d="M-41 0l549 748l-266 710h299l149 -471l320 471h295l-514 -710l286 -748h-301l-170 508l-348 -508h-299z" />
<glyph unicode="Y" horiz-adv-x="1058" d="M213 1458h285l145 -588l352 588h283l-555 -860l-105 -598h-260l107 598z" />
<glyph unicode="Z" horiz-adv-x="1013" d="M25 0l41 229l745 975h-549l45 254h856l-39 -225l-747 -979h575l-45 -254h-882z" />
<glyph unicode="[" horiz-adv-x="694" d="M74 -152l311 1762h483l-43 -240h-237l-228 -1282h240l-43 -240h-483z" />
<glyph unicode="\" horiz-adv-x="741" d="M229 1583h230l223 -1735h-229z" />
<glyph unicode="]" horiz-adv-x="694" d="M2 -152l41 238h240l227 1286h-240l43 238h484l-312 -1762h-483z" />
<glyph unicode="^" horiz-adv-x="1116" d="M209 797l455 676h225l217 -676h-256l-125 385l-260 -385h-256z" />
<glyph unicode="_" horiz-adv-x="1116" d="M-115 -365l31 179h1135l-31 -179h-1135z" />
<glyph unicode="`" horiz-adv-x="923" d="M426 1585h258l59 -348h-165z" />
<glyph unicode="a" horiz-adv-x="987" d="M68 246q0 37 6 78q25 135 121 219q106 90 270 90h231l11 53q4 27 4 49q0 119 -158 119q-119 0 -205 -88l-127 166q86 84 170 115.5t211 31.5q360 0 361 -282q0 -43 -9 -95l-125 -702h-239l16 92q-113 -102 -258 -102q-166 0 -235 94q-45 63 -45 162zM309 303 q0 -96 121 -96q127 0 180 69q29 37 43 117l11 58h-195q-70 0 -115 -40t-45 -108z" />
<glyph unicode="b" horiz-adv-x="1036" d="M88 0l256 1458h246l-86 -485q106 106 256 106q152 0 223 -96q49 -68 49 -195q0 -84 -28.5 -250.5t-57.5 -248.5q-45 -133 -123 -205q-104 -96 -256 -96t-225 112l-18 -100h-236zM410 379q0 -152 129 -152q100 0 153 88q39 66 66 220q18 98 18 153q0 152 -131 152 q-100 0 -151 -88q-41 -66 -68 -217q-16 -98 -16 -156z" />
<glyph unicode="c" horiz-adv-x="884" d="M133 535q51 293 221 434q134 110 311 110h3q197 0 299 -143l-199 -180q-57 84 -143 84t-152.5 -72t-95.5 -233q-12 -72 -12 -121q0 -186 153 -187q86 0 172 84l135 -178q-154 -145 -350 -145q-150 0 -242 80q-116 99 -116 302q0 79 16 165z" />
<glyph unicode="d" horiz-adv-x="1038" d="M111 279q0 86 28 256q29 162 58 243q45 133 122 205q104 96 256 96t222 -106l84 485h245l-258 -1458h-237l16 100q-112 -112 -259 -112h-3q-154 0 -225 96q-49 68 -49 195zM367 379q0 -152 129 -152q102 0 155 88q41 68 68 220q16 96 16 151q0 154 -131 154 q-100 0 -153 -88q-39 -66 -66 -217q-18 -98 -18 -156z" />
<glyph unicode="e" horiz-adv-x="1013" d="M133 535q45 256 189 403q141 141 333 141q170 0 260.5 -103.5t90.5 -277.5q0 -61 -13 -129l-20 -118h-615q-4 -31 -4 -58q0 -180 178 -180q129 0 240 100l121 -157q-184 -168 -404 -168q-372 0 -372 375q0 80 16 172zM391 633h373q4 29 4 55q0 32 -6 60q-25 110 -144 110 h-2q-119 0 -182 -110q-29 -49 -43 -115z" />
<glyph unicode="f" horiz-adv-x="624" d="M117 0l147 834h-102l37 202h102l23 133q23 125 104 209q96 96 236 97h139l-39 -226h-96q-86 0 -103 -96l-20 -117h180l-35 -202h-180l-148 -834h-245z" />
<glyph unicode="g" horiz-adv-x="1026" d="M25 -264l182 168q63 -82 176 -82q102 0 168 69q53 59 70 152l18 109q-106 -106 -252 -107q-147 0 -217 94q-53 72 -53 189q0 78 28.5 238.5t57.5 240.5q41 109 116 178q102 94 252 94q145 0 220 -112l18 100h238l-183 -1028q-35 -195 -174 -318.5t-336 -123.5 q-221 0 -329 139zM375 432q0 -147 127 -147q98 0 149 86q37 61 62 192q14 80 14 129q0 147 -129 148q-98 0 -149 -86q-35 -59 -60 -191q-14 -82 -14 -131z" />
<glyph unicode="h" horiz-adv-x="1052" d="M88 0l256 1458h246l-86 -489q116 110 252 110h2q131 0 203 -80q65 -73 65 -202q0 -53 -8 -107l-123 -690h-244l115 651q4 29 4 51q0 137 -131 138q-160 0 -193 -189l-114 -651h-244z" />
<glyph unicode="i" horiz-adv-x="499" d="M88 0l186 1067h246l-188 -1067h-244zM303 1249l39 217h250l-37 -217h-252z" />
<glyph unicode="j" horiz-adv-x="499" d="M-164 -399l39 225h94q88 0 105 96l200 1145h246l-205 -1161q-23 -125 -104 -209q-94 -96 -236 -96h-139zM303 1249l39 217h250l-37 -217h-252z" />
<glyph unicode="k" horiz-adv-x="1034" d="M88 0l256 1458h246l-148 -827l404 436h297l-428 -430l266 -637h-303l-164 444l-127 -127l-55 -317h-244z" />
<glyph unicode="l" horiz-adv-x="593" d="M125 238q0 33 6 67l205 1153h244l-201 -1136q-2 -16 -2 -31q0 -66 72 -66h94l-39 -225h-139q-121 0 -185 72q-55 61 -55 166z" />
<glyph unicode="m" horiz-adv-x="1632" d="M88 0l186 1067h240l-16 -98q118 110 261 110h3q168 0 235 -135q143 135 318 135q156 0 225 -94q63 -86 64 -203q0 -47 -11 -100l-118 -682h-246l114 645q4 29 5 53q0 141 -134 142q-66 0 -116 -41q-63 -51 -80 -148l-115 -651h-246l115 645q4 29 4 53q0 141 -133 142 q-66 0 -117 -43q-63 -51 -80 -152l-114 -645h-244z" />
<glyph unicode="n" horiz-adv-x="1060" d="M88 0l186 1067h240l-16 -98q114 110 261 110h3q145 0 215 -94q57 -78 57 -188q0 -51 -10 -115l-121 -682h-246l115 645q4 29 4 53q0 141 -133 142q-66 0 -117 -43q-63 -51 -80 -152l-114 -645h-244z" />
<glyph unicode="o" d="M119 332q0 80 20 203q51 287 187.5 415.5t324.5 128.5q190 0 281 -131q61 -86 61 -213v-6q0 -76 -22 -194q-51 -289 -186.5 -418t-325.5 -129q-188 0 -281 131q-59 86 -59 213zM367 383q0 -156 133 -156q72 0 123 47q67 62 102 261q18 98 18 149q0 156 -135 156 q-70 0 -121 -47q-68 -61 -102 -258q-18 -98 -18 -152z" />
<glyph unicode="p" horiz-adv-x="1036" d="M18 -391l256 1458h238l-16 -100q112 112 261 112h3q152 0 223 -96q49 -68 49 -195q0 -84 -28.5 -250.5t-57.5 -248.5q-45 -133 -123 -205q-104 -96 -256 -96q-150 0 -219 106l-86 -485h-244zM410 379q0 -152 129 -152q100 0 153 88q39 66 66 220q18 98 18 153 q0 152 -131 152q-100 0 -151 -88q-41 -66 -68 -217q-16 -98 -16 -156z" />
<glyph unicode="q" horiz-adv-x="1038" d="M111 279q0 86 28 256q29 162 58 243q45 133 122 205q104 96 259 96q150 0 223 -112l16 100h240l-256 -1458h-246l86 485q-106 -106 -258 -106t-223 96q-49 68 -49 195zM367 379q0 -152 129 -152q102 0 155 88q41 68 68 220q16 96 16 151q0 154 -131 154q-100 0 -153 -88 q-39 -66 -66 -217q-18 -98 -18 -156z" />
<glyph unicode="r" horiz-adv-x="837" d="M88 0l186 1067h240l-18 -102q108 114 265 114h3q139 0 213 -100l-219 -203q-47 63 -119 64q-63 0 -117 -47q-59 -55 -76 -150l-114 -643h-244z" />
<glyph unicode="s" horiz-adv-x="925" d="M16 141l191 174q74 -100 244 -100q76 0 129 29q65 34 65 102t-88 78l-151 16q-240 27 -240 224q0 35 6 75q29 160 160 254q121 86 278 86q254 0 355 -125l-181 -166q-61 72 -215 72q-139 0 -157 -102q-2 -10 -2 -19q0 -64 86 -73l151 -17q244 -27 244 -239q0 -35 -6 -74 q-29 -170 -168 -262q-127 -86 -309 -86q-135 0 -218 26q-106 35 -174 127z" />
<glyph unicode="t" horiz-adv-x="645" d="M154 834l34 202h105l55 316h246l-57 -316h174l-35 -202h-174l-90 -512q-2 -16 -2 -29q0 -68 69 -68h88l-39 -225h-133q-121 0 -182 72q-55 61 -55 166q0 33 6 67l92 529h-102z" />
<glyph unicode="u" horiz-adv-x="1060" d="M133 270q0 51 10 115l121 682h246l-115 -645q-6 -29 -6 -53q0 -141 133 -142q68 0 119 43q61 51 80 152l115 645h243l-188 -1067h-238l17 98q-114 -110 -261 -110h-3q-145 0 -216 94q-57 78 -57 188z" />
<glyph unicode="v" horiz-adv-x="909" d="M145 1067h258l84 -659l314 659h258l-547 -1067h-193z" />
<glyph unicode="w" horiz-adv-x="1411" d="M145 1067h261l40 -659l318 659h178l86 -659l275 659h258l-488 -1067h-203l-86 670l-323 -670h-203z" />
<glyph unicode="x" horiz-adv-x="974" d="M-29 0l437 545l-234 522h293l113 -305l221 305h295l-418 -522l242 -545h-293l-125 319l-236 -319h-295z" />
<glyph unicode="y" horiz-adv-x="911" d="M4 -391l41 239h57q55 0 84 21.5t56 75.5l63 131l-160 991h258l89 -659l311 659h258l-639 -1239q-47 -90 -96 -137q-90 -82 -228 -82h-94z" />
<glyph unicode="z" horiz-adv-x="882" d="M18 0l37 203l545 624h-410l41 240h725l-36 -203l-551 -624h440l-41 -240h-750z" />
<glyph unicode="{" horiz-adv-x="841" d="M139 610l41 238h86q63 0 103.5 37t56.5 125l51 297q25 141 119 227q84 76 225 76h193l-43 -240h-101q-82 0 -110 -29q-37 -35 -53 -131l-50 -276q-27 -150 -165 -205q98 -45 98 -147q0 -27 -4 -58l-49 -276q-25 -133 38 -154q23 -6 70 -6h100l-43 -240h-192 q-244 0 -244 228q0 35 8 76l52 297q16 88 -11.5 124.5t-89.5 36.5h-86z" />
<glyph unicode="|" horiz-adv-x="641" d="M131 -152l309 1762h246l-311 -1762h-244z" />
<glyph unicode="}" horiz-adv-x="841" d="M4 -152l43 240h98q82 0 116 32t50 128l49 276q27 150 166 205q-98 45 -98 148q0 27 4 57l49 276q25 133 -39 154q-23 6 -69 6h-101l43 240h191q244 0 244 -228q0 -35 -7 -75l-53 -297q-14 -88 13.5 -125t89.5 -37h86l-41 -238h-86q-63 0 -103.5 -36.5t-56.5 -124.5 l-51 -297q-27 -141 -121 -228q-82 -76 -223 -76h-193z" />
<glyph unicode="~" horiz-adv-x="1122" d="M125 600q106 98 181 137t159 39q100 0 209 -69q76 -49 143 -50q84 0 180 86l125 -168q-193 -176 -342 -176q-98 0 -207 70q-78 49 -145 49q-84 0 -178 -86z" />
<glyph unicode="&#xa1;" horiz-adv-x="634" d="M23 -391l235 1001h184l-116 -1001h-303zM254 795l47 272h258l-47 -272h-258z" />
<glyph unicode="&#xa2;" horiz-adv-x="921" d="M156 604q0 68 14 146q41 227 166 368q115 131 276 166l31 174h191l-31 -174q143 -29 229 -154l-192 -172q-45 66 -105 84l-104 -585q66 18 135 84l133 -172q-133 -125 -285 -154l-36 -215h-191l37 215q-268 61 -268 389zM403 641q0 -76 29 -127q23 -41 62 -53l102 577 q-43 -12 -80 -53q-74 -78 -100 -235q-12 -61 -13 -109z" />
<glyph unicode="&#xa3;" horiz-adv-x="1071" d="M133 608l35 205h115l30 166q39 231 207 367q154 125 352 124q205 0 316 -149l-203 -186q-61 82 -158 82q-213 0 -256 -250l-28 -154h213l-35 -205h-213l-64 -354h557l-45 -254h-817l109 608h-115z" />
<glyph unicode="&#xa4;" horiz-adv-x="1241" d="M94 197l166 149q-29 76 -29 156q0 168 113 323l-113 150l193 176l113 -150q115 66 231 66q117 0 209 -66l164 150l131 -176l-164 -150q39 -111 16 -239q-23 -129 -102 -240l113 -149l-193 -177l-113 150q-115 -66 -231 -66q-117 0 -207 66l-166 -150zM457 541 q0 -84 51 -139.5t131 -55.5q109 0 189.5 88t80.5 197q0 84 -52 139t-132 55q-109 0 -188.5 -89t-79.5 -195z" />
<glyph unicode="&#xa5;" horiz-adv-x="1056" d="M123 289l37 205h286l19 104l-33 102h-235l34 205h142l-160 553h285l143 -590l354 590h283l-354 -553h139l-37 -205h-235l-68 -102l-18 -104h284l-35 -205h-284l-52 -289h-260l52 289h-287z" />
<glyph unicode="&#xa6;" horiz-adv-x="647" d="M131 -152l125 717h246l-127 -717h-244zM313 893l127 717h246l-127 -717h-246z" />
<glyph unicode="&#xa7;" horiz-adv-x="980" d="M63 -115q0 35 7 76h235q-16 -129 117 -129q68 0 115 44t47 112q0 84 -107 127l-110 43q-215 86 -215 284q0 45 8 101q18 104 92 192q61 74 133 113q-102 66 -102 194q0 33 6 74q27 150 133 246q119 109 293 108q154 0 229.5 -74.5t75.5 -199.5q0 -37 -6 -78h-230 q16 125 -110 125q-131 0 -154 -121q-16 -90 103 -135l110 -41q217 -82 217 -284q0 -46 -10 -101q-18 -102 -92 -192q-61 -74 -131 -113q109 -66 108 -207q0 -37 -6 -78q-33 -178 -166 -282q-121 -92 -274 -92q-133 0 -219 67q-96 76 -97 221zM393 502q0 -53 25 -88 q33 -43 100 -43q66 0 113 43q57 51 71 137q16 90 -22 139q-33 43 -98 43q-68 0 -115 -43q-53 -49 -70 -139q-4 -27 -4 -49z" />
<glyph unicode="&#xa8;" horiz-adv-x="923" d="M328 1241l45 256h209l-45 -256h-209zM743 1241l45 256h209l-45 -256h-209z" />
<glyph unicode="&#xa9;" horiz-adv-x="1570" d="M178 588q0 70 12 141q55 307 293 524t521 217q248 0 406.5 -171t158.5 -429q-1 -69 -15 -141q-53 -307 -290.5 -524t-520.5 -217q-248 0 -406.5 171t-158.5 429zM342 610q0 -201 119 -328.5t311 -127.5q219 0 397.5 164.5t221.5 410.5q12 61 12 119q0 203 -119 330 t-309 127q-219 0 -398.5 -165t-224.5 -411q-10 -61 -10 -119zM539 625q0 49 10 104q35 190 151 301q111 102 258 103q133 0 230 -109l-127 -115q-59 66 -131 66q-176 0 -221 -246q-6 -43 -7 -80q0 -166 142 -166q72 0 153 66l86 -115q-129 -106 -268 -106 q-125 0 -200.5 77.5t-75.5 219.5z" />
<glyph unicode="&#xaa;" horiz-adv-x="835" d="M186 805q0 137 89.5 222t228.5 85h182l8 41q4 23 4 39q0 94 -127 94q-92 0 -159 -69l-105 133q121 119 307 118q287 0 287 -227q0 -35 -6 -74l-100 -561h-195l14 74q-90 -82 -204 -82q-223 0 -224 207zM385 870q-16 -94 92 -94q82 0 122 32t54 112l9 47h-154 q-104 0 -123 -97z" />
<glyph unicode="&#xab;" horiz-adv-x="1165" d="M113 563l559 508l-56 -317l-210 -191l143 -190l-55 -318zM637 563l561 508l-57 -317l-213 -191l147 -190l-57 -318z" />
<glyph unicode="&#xac;" horiz-adv-x="1122" d="M205 100v140q0 41 28.5 70.5t69.5 29.5h146q51 0 90 42t39 93v139q0 51 -39 92.5t-90 41.5h-146q-41 0 -69.5 29.5t-28.5 70.5v139q0 41 28.5 70.5t69.5 29.5h146q51 0 90 40t39 92v139q0 43 28.5 71.5t69.5 28.5h143q41 0 70 -29.5t29 -70.5v-139q0 -41 -29 -71t-70 -30 h-143q-51 0 -91 -40t-40 -91v-139q0 -51 40 -92t91 -41h143q41 0 70 -30t29 -71v-139q0 -41 -29 -70.5t-70 -29.5h-143q-51 0 -91 -42t-40 -93v-140q0 -41 -27.5 -70.5t-68.5 -29.5h-146q-41 0 -69.5 29.5t-28.5 70.5z" />
<glyph unicode="&#xad;" horiz-adv-x="784" d="M141 461l45 248h580l-43 -248h-582z" />
<glyph unicode="&#xae;" horiz-adv-x="1570" d="M178 588q0 70 12 141q55 307 293 524t521 217q248 0 406.5 -171t158.5 -429q-1 -69 -15 -141q-53 -307 -290.5 -524t-520.5 -217q-248 0 -406.5 171t-158.5 429zM342 610q0 -203 119 -329.5t311 -126.5q221 0 399.5 164.5t221.5 410.5q12 61 12 119q0 203 -119 330 t-311 127q-221 0 -399.5 -165t-223.5 -411q-10 -61 -10 -119zM555 336l139 788h295q94 0 148.5 -57t54.5 -143q0 -84 -48 -154t-126 -102l94 -332h-186l-78 305h-76l-55 -305h-162zM795 774h112q45 0 78 30t41 73q6 43 -16.5 72.5t-65.5 29.5h-113z" />
<glyph unicode="&#xaf;" horiz-adv-x="923" d="M350 1290l31 178h596l-31 -178h-596z" />
<glyph unicode="&#xb0;" horiz-adv-x="882" d="M242 1038q0 35 8 72q27 158 147.5 268.5t264.5 110.5q127 0 206.5 -87t79.5 -220q0 -35 -6 -72q-27 -156 -147.5 -266.5t-266.5 -110.5q-125 0 -205.5 87t-80.5 218zM444 1077q0 -57 34 -94t89 -37q74 0 127.5 60.5t53.5 134.5q0 59 -35 96t-90 37q-74 0 -126.5 -61.5 t-52.5 -135.5z" />
<glyph unicode="&#xb1;" d="M43 0l45 250h834l-43 -250h-836zM168 698l43 248h303l57 330h232l-60 -330h301l-43 -248h-301l-59 -329h-229l59 329h-303z" />
<glyph unicode="&#xb2;" horiz-adv-x="655" d="M133 584l31 174l356 350q59 59 60 119q0 66 -66 65q-78 0 -94 -90h-178q23 123 110 197q82 68 193 67q98 0 156.5 -54t58.5 -150q0 -27 -4 -58q-18 -98 -135 -213l-240 -233h295l-31 -174h-512z" />
<glyph unicode="&#xb3;" horiz-adv-x="673" d="M174 782q0 31 6 64h176q-2 -12 -2 -25q0 -74 74 -73q88 0 107 102q18 98 -76 98h-23l29 166h24q82 0 99 88q16 90 -64 90t-94 -86h-178q23 119 108.5 189.5t194.5 70.5q96 0 155.5 -57t59.5 -149q0 -25 -4 -52q-20 -117 -115 -172q63 -51 64 -141q0 -24 -4 -51 q-23 -129 -115 -203q-84 -66 -199 -66q-96 0 -155 50q-68 55 -68 157z" />
<glyph unicode="&#xb4;" horiz-adv-x="923" d="M535 1237l182 348h258l-277 -348h-163z" />
<glyph unicode="&#xb6;" horiz-adv-x="1239" d="M193 965q0 39 6 77q35 199 176 310q135 106 334 106h600l-326 -1849h-246l283 1595h-189l-282 -1595h-244l180 1022q-125 0 -208.5 95t-83.5 239z" />
<glyph unicode="&#xb7;" horiz-adv-x="518" d="M154 434l53 303h282l-55 -303h-280z" />
<glyph unicode="&#xb8;" horiz-adv-x="923" d="M176 -422l182 299h183l-135 -299h-230z" />
<glyph unicode="&#xb9;" horiz-adv-x="530" d="M211 1081l39 217l199 160h178l-154 -874h-180l117 657z" />
<glyph unicode="&#xba;" horiz-adv-x="851" d="M219 874q0 61 17 158q41 229 149.5 332.5t257.5 103.5q150 0 223 -104q49 -70 49 -174q0 -62 -16 -158q-41 -227 -150.5 -330.5t-259.5 -103.5t-221 104q-49 70 -49 172zM420 911q0 -121 104 -120q57 0 97 36q52 47 79 205q14 82 15 123q0 121 -105 121q-57 0 -98 -37 q-51 -47 -80 -207q-12 -80 -12 -121z" />
<glyph unicode="&#xbb;" horiz-adv-x="1165" d="M86 55l55 318l213 190l-145 191l55 317l381 -508zM610 55l56 318l211 190l-144 191l55 317l381 -508z" />
<glyph unicode="&#xbc;" horiz-adv-x="1556" d="M211 1081l39 217l199 160h178l-154 -874h-180l117 657zM301 0l891 1458h192l-892 -1458h-191zM907 117l31 182l371 575h194l-373 -575h140l22 127h170l-22 -127h61l-31 -182h-63l-21 -117h-167l20 117h-332z" />
<glyph unicode="&#xbd;" horiz-adv-x="1605" d="M211 1081l39 217l199 160h178l-154 -874h-180l117 657zM293 0l891 1458h190l-891 -1458h-190zM981 0l31 174l354 350q53 51 61 97q14 88 -65 88q-78 0 -94 -91h-178q23 123 108 197q84 68 195 68q98 0 156.5 -54.5t58.5 -150.5q0 -27 -6 -57q-16 -98 -136 -213l-239 -234 h297l-31 -174h-512z" />
<glyph unicode="&#xbe;" horiz-adv-x="1611" d="M174 782q0 31 6 64h176q-2 -12 -2 -25q0 -74 74 -73q88 0 107 102q18 98 -76 98h-23l29 166h24q82 0 99 88q16 90 -64 90t-94 -86h-178q23 119 108.5 189.5t194.5 70.5q96 0 155.5 -57t59.5 -149q0 -25 -4 -52q-20 -117 -115 -172q63 -51 64 -141q0 -24 -4 -51 q-23 -129 -115 -203q-84 -66 -199 -66q-96 0 -155 50q-68 55 -68 157zM360 0l893 1458h191l-891 -1458h-193zM961 117l32 182l371 575h195l-373 -575h139l23 127h170l-23 -127h61l-32 -182h-62l-20 -117h-170l20 117h-331z" />
<glyph unicode="&#xbf;" horiz-adv-x="966" d="M10 -82q0 43 8 88q23 121 138 256l176 203q43 49 51 104l8 41h244l-10 -61q-20 -113 -109 -213l-174 -195q-82 -92 -82 -176q0 -129 125 -129q72 0 121 49t61 123h246q-33 -186 -168 -298.5t-303 -112.5q-145 0 -236 84q-96 88 -96 237zM416 795l47 272h260l-47 -272 h-260z" />
<glyph unicode="&#xc0;" horiz-adv-x="1368" d="M-41 0l746 1458h204l234 -1458h-275l-32 258h-478l-127 -258h-272zM475 498h334l-72 530zM604 1947h258l59 -348h-165z" />
<glyph unicode="&#xc1;" horiz-adv-x="1368" d="M-41 0l746 1458h204l234 -1458h-275l-32 258h-478l-127 -258h-272zM475 498h334l-72 530zM713 1599l182 348h258l-277 -348h-163z" />
<glyph unicode="&#xc2;" horiz-adv-x="1368" d="M-41 0l746 1458h204l234 -1458h-275l-32 258h-478l-127 -258h-272zM471 1599l309 346h197l186 -346h-190l-123 186l-189 -186h-190zM475 498h334l-72 530z" />
<glyph unicode="&#xc3;" horiz-adv-x="1368" d="M-41 0l746 1458h204l234 -1458h-275l-32 258h-478l-127 -258h-272zM475 498h334l-72 530zM504 1763q133 121 233 121q74 0 137 -47q49 -37 97 -37q57 0 122 59l89 -117q-133 -121 -236 -120q-70 0 -135 47q-53 37 -101 36q-55 0 -120 -59z" />
<glyph unicode="&#xc4;" horiz-adv-x="1368" d="M-41 0l746 1458h204l234 -1458h-275l-32 258h-478l-127 -258h-272zM475 498h334l-72 530zM506 1603l45 256h209l-45 -256h-209zM921 1603l45 256h209l-45 -256h-209z" />
<glyph unicode="&#xc5;" horiz-adv-x="1368" d="M-41 0l746 1458h204l234 -1458h-275l-32 258h-478l-127 -258h-272zM475 498h334l-72 530zM606 1759q0 121 90 220.5t209 99.5q88 0 145.5 -61.5t57.5 -155.5q0 -121 -89 -220.5t-210 -99.5q-88 0 -145.5 62.5t-57.5 154.5zM747 1810q-8 -49 17.5 -85t70.5 -36t84 36 t47 85t-17.5 84t-70.5 35t-83.5 -35t-47.5 -84z" />
<glyph unicode="&#xc6;" horiz-adv-x="1824" d="M-45 0l958 1458h1039l-45 -254h-623l-59 -344h530l-45 -254h-530l-62 -352h621l-45 -254h-881l55 319h-424l-208 -319h-281zM600 559h311l113 645z" />
<glyph unicode="&#xc7;" horiz-adv-x="1331" d="M145 393q0 92 43 334t74 332q53 154 162 252q174 160 389 159q195 0 306.5 -118.5t107.5 -341.5h-266q-10 207 -191 207q-104 0 -180 -76q-47 -47 -74 -123q-29 -84 -65.5 -291t-36.5 -289q0 -74 30 -121q49 -76 154 -75q180 0 264 207h264q-74 -223 -231 -345 q-150 -117 -342 -116q-215 0 -334 159q-74 98 -74 246zM287 -422l182 299h183l-135 -299h-230z" />
<glyph unicode="&#xc8;" horiz-adv-x="1300" d="M106 0l256 1458h885l-45 -254h-622l-60 -342h529l-43 -254h-531l-61 -354h620l-45 -254h-883zM590 1947h258l59 -348h-165z" />
<glyph unicode="&#xc9;" horiz-adv-x="1300" d="M106 0l256 1458h885l-45 -254h-622l-60 -342h529l-43 -254h-531l-61 -354h620l-45 -254h-883zM697 1599l182 348h258l-277 -348h-163z" />
<glyph unicode="&#xca;" horiz-adv-x="1300" d="M106 0l256 1458h885l-45 -254h-622l-60 -342h529l-43 -254h-531l-61 -354h620l-45 -254h-883zM457 1599l309 346h197l186 -346h-190l-123 186l-189 -186h-190z" />
<glyph unicode="&#xcb;" horiz-adv-x="1300" d="M106 0l256 1458h885l-45 -254h-622l-60 -342h529l-43 -254h-531l-61 -354h620l-45 -254h-883zM492 1603l45 256h209l-45 -256h-209zM907 1603l45 256h209l-45 -256h-209z" />
<glyph unicode="&#xcc;" horiz-adv-x="686" d="M106 0l256 1458h263l-256 -1458h-263zM342 1947h258l59 -348h-165z" />
<glyph unicode="&#xcd;" horiz-adv-x="686" d="M106 0l256 1458h263l-256 -1458h-263zM349 1599l182 348h258l-277 -348h-163z" />
<glyph unicode="&#xce;" horiz-adv-x="686" d="M106 0l256 1458h263l-256 -1458h-263zM152 1599l309 346h197l186 -346h-190l-123 186l-189 -186h-190z" />
<glyph unicode="&#xcf;" horiz-adv-x="686" d="M106 0l256 1458h263l-256 -1458h-263zM191 1603l45 256h209l-45 -256h-209zM606 1603l45 256h209l-45 -256h-209z" />
<glyph unicode="&#xd0;" horiz-adv-x="1265" d="M131 629l37 217h131l107 612h485q231 0 340 -172q66 -102 65 -229q0 -78 -43.5 -325.5t-70.5 -325.5q-45 -133 -148 -236q-170 -170 -403 -170h-481l110 629h-129zM455 252h198q141 0 230 108q35 45 53 107.5t53 257.5q39 215 39 283q0 51 -20 92q-49 106 -187 106h-196 l-64 -360h217l-37 -217h-219z" />
<glyph unicode="&#xd1;" horiz-adv-x="1517" d="M106 0l256 1458h234l375 -893l157 893h263l-258 -1458h-234l-373 895l-157 -895h-263zM584 1763q133 121 233 121q74 0 137 -47q49 -37 97 -37q57 0 122 59l89 -117q-133 -121 -236 -120q-70 0 -135 47q-53 37 -101 36q-55 0 -120 -59z" />
<glyph unicode="&#xd2;" horiz-adv-x="1380" d="M145 393q0 92 43 334t74 332q53 154 162 252q174 160 391 159q184 0 296 -113.5t112 -295.5q0 -92 -42 -331t-75 -331q-53 -152 -162 -252q-176 -160 -389 -159q-184 0 -297 111.5t-113 293.5zM414 436q0 -72 28 -117q51 -78 156 -77q104 0 182 77q47 47 75 126t63.5 285 t35.5 288q0 74 -28 121q-51 78 -156 78q-104 0 -182 -78q-47 -47 -74 -125t-63 -285q-37 -213 -37 -293zM614 1947h258l59 -348h-165z" />
<glyph unicode="&#xd3;" horiz-adv-x="1380" d="M145 393q0 92 43 334t74 332q53 154 162 252q174 160 391 159q184 0 296 -113.5t112 -295.5q0 -92 -42 -331t-75 -331q-53 -152 -162 -252q-176 -160 -389 -159q-184 0 -297 111.5t-113 293.5zM414 436q0 -72 28 -117q51 -78 156 -77q104 0 182 77q47 47 75 126t63.5 285 t35.5 288q0 74 -28 121q-51 78 -156 78q-104 0 -182 -78q-47 -47 -74 -125t-63 -285q-37 -213 -37 -293zM723 1599l182 348h258l-277 -348h-163z" />
<glyph unicode="&#xd4;" horiz-adv-x="1380" d="M145 393q0 92 43 334t74 332q53 154 162 252q174 160 391 159q184 0 296 -113.5t112 -295.5q0 -92 -42 -331t-75 -331q-53 -152 -162 -252q-176 -160 -389 -159q-184 0 -297 111.5t-113 293.5zM414 436q0 -72 28 -117q51 -78 156 -77q104 0 182 77q47 47 75 126t63.5 285 t35.5 288q0 74 -28 121q-51 78 -156 78q-104 0 -182 -78q-47 -47 -74 -125t-63 -285q-37 -213 -37 -293zM481 1599l309 346h197l186 -346h-190l-123 186l-189 -186h-190z" />
<glyph unicode="&#xd5;" horiz-adv-x="1380" d="M145 393q0 92 43 334t74 332q53 154 162 252q174 160 391 159q184 0 296 -113.5t112 -295.5q0 -92 -42 -331t-75 -331q-53 -152 -162 -252q-176 -160 -389 -159q-184 0 -297 111.5t-113 293.5zM414 436q0 -72 28 -117q51 -78 156 -77q104 0 182 77q47 47 75 126t63.5 285 t35.5 288q0 74 -28 121q-51 78 -156 78q-104 0 -182 -78q-47 -47 -74 -125t-63 -285q-37 -213 -37 -293zM514 1763q133 121 233 121q74 0 137 -47q49 -37 97 -37q57 0 122 59l89 -117q-133 -121 -236 -120q-70 0 -135 47q-53 37 -101 36q-55 0 -120 -59z" />
<glyph unicode="&#xd6;" horiz-adv-x="1380" d="M145 393q0 92 43 334t74 332q53 154 162 252q174 160 391 159q184 0 296 -113.5t112 -295.5q0 -92 -42 -331t-75 -331q-53 -152 -162 -252q-176 -160 -389 -159q-184 0 -297 111.5t-113 293.5zM414 436q0 -72 28 -117q51 -78 156 -77q104 0 182 77q47 47 75 126t63.5 285 t35.5 288q0 74 -28 121q-51 78 -156 78q-104 0 -182 -78q-47 -47 -74 -125t-63 -285q-37 -213 -37 -293zM516 1603l45 256h209l-45 -256h-209zM931 1603l45 256h209l-45 -256h-209z" />
<glyph unicode="&#xd7;" d="M94 297l318 289l-215 288l184 168l213 -288l315 288l125 -168l-315 -288l213 -289l-182 -168l-215 289l-316 -289z" />
<glyph unicode="&#xd8;" horiz-adv-x="1210" d="M86 -90l139 227l-6 10q-74 98 -74 246q0 92 43 334t74 332q53 154 162 252q174 160 391 159q123 0 205 -45l78 123h184l-141 -227l8 -10q74 -98 74 -250q0 -92 -42 -331t-75 -331q-53 -152 -162 -252q-176 -160 -389 -159q-123 0 -205 45l-78 -123h-186zM414 420l471 764 q-45 33 -115 33q-104 0 -182 -78q-47 -47 -74 -125t-63 -285q-41 -233 -37 -309zM485 276q45 -35 113 -34q104 0 182 77q47 47 75 126t63 284q41 225 36 309z" />
<glyph unicode="&#xd9;" horiz-adv-x="1429" d="M164 393q0 51 10 107l168 958h262l-168 -948q-6 -37 -6 -70q0 -199 191 -198q109 0 184.5 71.5t97.5 196.5l166 948h260l-168 -958q-41 -227 -208 -369.5t-375 -142.5q-184 0 -299 110.5t-115 294.5zM639 1947h258l59 -348h-165z" />
<glyph unicode="&#xda;" horiz-adv-x="1429" d="M164 393q0 51 10 107l168 958h262l-168 -948q-6 -37 -6 -70q0 -199 191 -198q109 0 184.5 71.5t97.5 196.5l166 948h260l-168 -958q-41 -227 -208 -369.5t-375 -142.5q-184 0 -299 110.5t-115 294.5zM748 1599l182 348h258l-277 -348h-163z" />
<glyph unicode="&#xdb;" horiz-adv-x="1429" d="M164 393q0 51 10 107l168 958h262l-168 -948q-6 -37 -6 -70q0 -199 191 -198q109 0 184.5 71.5t97.5 196.5l166 948h260l-168 -958q-41 -227 -208 -369.5t-375 -142.5q-184 0 -299 110.5t-115 294.5zM506 1599l309 346h197l186 -346h-190l-123 186l-189 -186h-190z" />
<glyph unicode="&#xdc;" horiz-adv-x="1429" d="M164 393q0 51 10 107l168 958h262l-168 -948q-6 -37 -6 -70q0 -199 191 -198q109 0 184.5 71.5t97.5 196.5l166 948h260l-168 -958q-41 -227 -208 -369.5t-375 -142.5q-184 0 -299 110.5t-115 294.5zM541 1603l45 256h209l-45 -256h-209zM956 1603l45 256h209l-45 -256 h-209z" />
<glyph unicode="&#xdd;" horiz-adv-x="1232" d="M213 1458h285l145 -588l352 588h283l-555 -860l-105 -598h-260l107 598zM607 1599l182 348h258l-277 -348h-163z" />
<glyph unicode="&#xde;" horiz-adv-x="1173" d="M106 0l256 1458h263l-47 -268h258q176 0 276 -105q94 -96 94 -256q0 -45 -8 -92q-33 -193 -174 -319q-147 -135 -348 -135h-258l-49 -283h-263zM463 537h244q90 0 152.5 55t76.5 145q4 23 4 45q0 154 -162 154h-246z" />
<glyph unicode="&#xdf;" horiz-adv-x="1062" d="M88 0l186 1067q37 205 177 309q127 94 319 94q354 0 354 -278q0 -37 -8 -80q-27 -156 -155 -231q84 -51 83 -154q0 -31 -6 -70l-57 -327q-29 -162 -123 -246t-252 -84h-96l39 225h49q117 0 139 127l51 295q12 61 -11 93t-79 32h-53l37 209h53q113 0 135 123 q23 135 -145 135q-174 0 -209 -192l-184 -1047h-244z" />
<glyph unicode="&#xe0;" horiz-adv-x="1155" d="M68 246q0 37 6 78q25 135 121 219q106 90 270 90h231l11 53q4 27 4 49q0 119 -158 119q-119 0 -205 -88l-127 166q86 84 170 115.5t211 31.5q360 0 361 -282q0 -43 -9 -95l-125 -702h-239l16 92q-113 -102 -258 -102q-166 0 -235 94q-45 63 -45 162zM309 303 q0 -96 121 -96q127 0 180 69q29 37 43 117l11 58h-195q-70 0 -115 -40t-45 -108zM449 1585h258l59 -348h-165z" />
<glyph unicode="&#xe1;" horiz-adv-x="1155" d="M68 246q0 37 6 78q25 135 121 219q106 90 270 90h231l11 53q4 27 4 49q0 119 -158 119q-119 0 -205 -88l-127 166q86 84 170 115.5t211 31.5q360 0 361 -282q0 -43 -9 -95l-125 -702h-239l16 92q-113 -102 -258 -102q-166 0 -235 94q-45 63 -45 162zM309 303 q0 -96 121 -96q127 0 180 69q29 37 43 117l11 58h-195q-70 0 -115 -40t-45 -108zM558 1237l182 348h258l-277 -348h-163z" />
<glyph unicode="&#xe2;" horiz-adv-x="1155" d="M68 246q0 37 6 78q25 135 121 219q106 90 270 90h231l11 53q4 27 4 49q0 119 -158 119q-119 0 -205 -88l-127 166q86 84 170 115.5t211 31.5q360 0 361 -282q0 -43 -9 -95l-125 -702h-239l16 92q-113 -102 -258 -102q-166 0 -235 94q-45 63 -45 162zM309 303 q0 -96 121 -96q127 0 180 69q29 37 43 117l11 58h-195q-70 0 -115 -40t-45 -108zM316 1237l309 346h197l186 -346h-190l-123 186l-189 -186h-190z" />
<glyph unicode="&#xe3;" horiz-adv-x="1155" d="M68 246q0 37 6 78q25 135 121 219q106 90 270 90h231l11 53q4 27 4 49q0 119 -158 119q-119 0 -205 -88l-127 166q86 84 170 115.5t211 31.5q360 0 361 -282q0 -43 -9 -95l-125 -702h-239l16 92q-113 -102 -258 -102q-166 0 -235 94q-45 63 -45 162zM309 303 q0 -96 121 -96q127 0 180 69q29 37 43 117l11 58h-195q-70 0 -115 -40t-45 -108zM349 1401q133 121 233 121q74 0 137 -47q49 -37 97 -37q57 0 122 59l89 -117q-133 -121 -236 -120q-70 0 -135 47q-53 37 -101 36q-55 0 -120 -59z" />
<glyph unicode="&#xe4;" horiz-adv-x="1155" d="M68 246q0 37 6 78q25 135 121 219q106 90 270 90h231l11 53q4 27 4 49q0 119 -158 119q-119 0 -205 -88l-127 166q86 84 170 115.5t211 31.5q360 0 361 -282q0 -43 -9 -95l-125 -702h-239l16 92q-113 -102 -258 -102q-166 0 -235 94q-45 63 -45 162zM309 303 q0 -96 121 -96q127 0 180 69q29 37 43 117l11 58h-195q-70 0 -115 -40t-45 -108zM351 1241l45 256h209l-45 -256h-209zM766 1241l45 256h209l-45 -256h-209z" />
<glyph unicode="&#xe5;" horiz-adv-x="1155" d="M68 246q0 37 6 78q25 135 121 219q106 90 270 90h231l11 53q4 27 4 49q0 119 -158 119q-119 0 -205 -88l-127 166q86 84 170 115.5t211 31.5q360 0 361 -282q0 -43 -9 -95l-125 -702h-239l16 92q-113 -102 -258 -102q-166 0 -235 94q-45 63 -45 162zM309 303 q0 -96 121 -96q127 0 180 69q29 37 43 117l11 58h-195q-70 0 -115 -40t-45 -108zM451 1413q0 121 90 220.5t209 99.5q88 0 145.5 -61.5t57.5 -155.5q0 -121 -89 -220.5t-210 -99.5q-88 0 -145.5 62.5t-57.5 154.5zM592 1464q-8 -49 17.5 -85t70.5 -36t84 36t47 85t-17.5 84 t-70.5 35t-83.5 -35t-47.5 -84z" />
<glyph unicode="&#xe6;" horiz-adv-x="1560" d="M68 246q0 37 6 78q25 135 121 219q106 90 270 90h231l11 53q4 27 4 49q0 119 -158 119q-119 0 -205 -88l-127 166q86 84 170 115.5t211 31.5q223 0 301 -116q125 117 299 116q170 0 260 -103.5t90 -277.5q0 -61 -12 -129l-20 -118h-615q-6 -31 -6 -58q0 -180 178 -180 q131 0 242 100l121 -157q-184 -168 -404 -168q-225 0 -317 149q-92 -90 -184 -123q-74 -27 -189 -26q-162 0 -233 96q-45 63 -45 162zM309 303q0 -96 121 -96q127 0 180 69q29 37 43 117l11 58h-195q-70 0 -115 -40t-45 -108zM938 633h373q8 66 -2 115q-27 111 -146 110 q-119 0 -182 -110q-29 -49 -43 -115z" />
<glyph unicode="&#xe7;" horiz-adv-x="1048" d="M117 373q0 76 16 162q51 293 221 434q135 111 314 110q197 0 299 -143l-199 -180q-57 84 -143 84t-152.5 -72t-95.5 -233q-12 -72 -12 -121q0 -186 153 -187q86 0 172 84l135 -178q-154 -145 -350 -145q-150 0 -242 80q-117 100 -116 305zM176 -422l182 299h183 l-135 -299h-230z" />
<glyph unicode="&#xe8;" horiz-adv-x="1183" d="M117 365q0 78 16 170q45 256 189 403q141 141 333 141q170 0 260.5 -103.5t90.5 -277.5q0 -61 -13 -129l-20 -118h-615q-4 -31 -4 -58q0 -180 178 -180q129 0 240 100l121 -157q-184 -168 -404 -168q-373 0 -372 377zM391 633h373q8 66 -2 115q-25 111 -146 110 q-119 0 -182 -110q-29 -49 -43 -115zM481 1585h258l59 -348h-165z" />
<glyph unicode="&#xe9;" horiz-adv-x="1183" d="M117 365q0 78 16 170q45 256 189 403q141 141 333 141q170 0 260.5 -103.5t90.5 -277.5q0 -61 -13 -129l-20 -118h-615q-4 -31 -4 -58q0 -180 178 -180q129 0 240 100l121 -157q-184 -168 -404 -168q-373 0 -372 377zM391 633h373q8 66 -2 115q-25 111 -146 110 q-119 0 -182 -110q-29 -49 -43 -115zM590 1237l182 348h258l-277 -348h-163z" />
<glyph unicode="&#xea;" horiz-adv-x="1183" d="M117 365q0 78 16 170q45 256 189 403q141 141 333 141q170 0 260.5 -103.5t90.5 -277.5q0 -61 -13 -129l-20 -118h-615q-4 -31 -4 -58q0 -180 178 -180q129 0 240 100l121 -157q-184 -168 -404 -168q-373 0 -372 377zM348 1237l309 346h197l186 -346h-190l-123 186 l-189 -186h-190zM391 633h373q8 66 -2 115q-25 111 -146 110q-119 0 -182 -110q-29 -49 -43 -115z" />
<glyph unicode="&#xeb;" horiz-adv-x="1183" d="M117 365q0 78 16 170q45 256 189 403q141 141 333 141q170 0 260.5 -103.5t90.5 -277.5q0 -61 -13 -129l-20 -118h-615q-4 -31 -4 -58q0 -180 178 -180q129 0 240 100l121 -157q-184 -168 -404 -168q-373 0 -372 377zM383 1241l45 256h209l-45 -256h-209zM391 633h373 q8 66 -2 115q-25 111 -146 110q-119 0 -182 -110q-29 -49 -43 -115zM798 1241l45 256h209l-45 -256h-209z" />
<glyph unicode="&#xec;" horiz-adv-x="624" d="M88 0l186 1067h246l-188 -1067h-244zM252 1585h258l59 -348h-165z" />
<glyph unicode="&#xed;" horiz-adv-x="624" d="M88 0l186 1067h246l-188 -1067h-244zM256 1237l182 348h258l-277 -348h-163z" />
<glyph unicode="&#xee;" horiz-adv-x="624" d="M68 1237l309 346h197l186 -346h-190l-123 186l-189 -186h-190zM88 0l186 1067h246l-188 -1067h-244z" />
<glyph unicode="&#xef;" horiz-adv-x="624" d="M88 0l186 1067h246l-188 -1067h-244zM97 1241l45 256h209l-45 -256h-209zM512 1241l45 256h209l-45 -256h-209z" />
<glyph unicode="&#xf0;" d="M125 324q0 78 22 196q49 279 181 404q74 70 184 100q84 23 145 14l-41 127h-215l33 187h129l-37 123h262l37 -123h172l-32 -187h-86l47 -157q53 -172 53 -287q0 -80 -23 -201q-49 -283 -182 -407.5t-315 -124.5q-184 0 -275 127q-59 84 -59 209zM375 375q0 -147 125 -148 q70 0 118 45q60 58 95 248q16 98 16 148q0 63 -24 98q-33 45 -101 45t-117 -45q-63 -59 -96 -246q-16 -94 -16 -145z" />
<glyph unicode="&#xf1;" horiz-adv-x="1234" d="M88 0l186 1067h240l-16 -98q115 111 264 110q145 0 215 -94q57 -78 57 -188q0 -51 -10 -115l-121 -682h-246l115 645q4 29 4 53q0 141 -133 142q-66 0 -117 -43q-63 -51 -80 -152l-114 -645h-244zM408 1401q133 121 233 121q74 0 137 -47q49 -37 97 -37q57 0 122 59 l89 -117q-133 -121 -236 -120q-70 0 -135 47q-53 37 -101 36q-55 0 -120 -59z" />
<glyph unicode="&#xf2;" horiz-adv-x="1173" d="M119 332q0 80 20 203q51 287 187.5 415.5t324.5 128.5q190 0 281 -131q61 -86 61 -213q1 -77 -22 -200q-51 -289 -186.5 -418t-325.5 -129q-188 0 -281 131q-59 86 -59 213zM367 383q0 -156 133 -156q72 0 123 47q67 62 102 261q18 98 18 149q0 156 -135 156 q-70 0 -121 -47q-68 -61 -102 -258q-18 -98 -18 -152zM463 1585h258l59 -348h-165z" />
<glyph unicode="&#xf3;" horiz-adv-x="1173" d="M119 332q0 80 20 203q51 287 187.5 415.5t324.5 128.5q190 0 281 -131q61 -86 61 -213q1 -77 -22 -200q-51 -289 -186.5 -418t-325.5 -129q-188 0 -281 131q-59 86 -59 213zM367 383q0 -156 133 -156q72 0 123 47q67 62 102 261q18 98 18 149q0 156 -135 156 q-70 0 -121 -47q-68 -61 -102 -258q-18 -98 -18 -152zM580 1237l182 348h258l-277 -348h-163z" />
<glyph unicode="&#xf4;" horiz-adv-x="1173" d="M119 332q0 80 20 203q51 287 187.5 415.5t324.5 128.5q190 0 281 -131q61 -86 61 -213q1 -77 -22 -200q-51 -289 -186.5 -418t-325.5 -129q-188 0 -281 131q-59 86 -59 213zM338 1237l309 346h197l186 -346h-190l-123 186l-189 -186h-190zM367 383q0 -156 133 -156 q72 0 123 47q67 62 102 261q18 98 18 149q0 156 -135 156q-70 0 -121 -47q-68 -61 -102 -258q-18 -98 -18 -152z" />
<glyph unicode="&#xf5;" horiz-adv-x="1173" d="M119 332q0 80 20 203q51 287 187.5 415.5t324.5 128.5q190 0 281 -131q61 -86 61 -213q1 -77 -22 -200q-51 -289 -186.5 -418t-325.5 -129q-188 0 -281 131q-59 86 -59 213zM367 383q0 -156 133 -156q72 0 123 47q67 62 102 261q18 98 18 149q0 156 -135 156 q-70 0 -121 -47q-68 -61 -102 -258q-18 -98 -18 -152zM371 1401q133 121 233 121q74 0 137 -47q49 -37 97 -37q57 0 122 59l89 -117q-133 -121 -236 -120q-70 0 -135 47q-53 37 -101 36q-55 0 -120 -59z" />
<glyph unicode="&#xf6;" horiz-adv-x="1173" d="M119 332q0 80 20 203q51 287 187.5 415.5t324.5 128.5q190 0 281 -131q61 -86 61 -213q1 -77 -22 -200q-51 -289 -186.5 -418t-325.5 -129q-188 0 -281 131q-59 86 -59 213zM367 383q0 -156 133 -156q72 0 123 47q67 62 102 261q18 98 18 149q0 156 -135 156 q-70 0 -121 -47q-68 -61 -102 -258q-18 -98 -18 -152zM373 1241l45 256h209l-45 -256h-209zM788 1241l45 256h209l-45 -256h-209z" />
<glyph unicode="&#xf7;" d="M117 461l45 248h850l-45 -248h-850zM346 37l47 266h246l-47 -266h-246zM492 866l47 267h245l-47 -267h-245z" />
<glyph unicode="&#xf8;" d="M31 -90l149 207l-2 2q-61 82 -61 209q0 80 22 207q51 287 187.5 415.5t324.5 128.5q115 0 189 -45l88 123h151l-149 -207l2 -2q61 -84 61 -213q1 -77 -22 -200q-51 -289 -186.5 -418t-325.5 -129q-111 0 -189 47l-90 -125h-149zM367 358l329 455q-35 27 -88 27 q-70 0 -121 -47q-68 -61 -102 -258q-20 -119 -18 -177zM414 254q37 -27 86 -27q72 0 123 47q67 62 102 261q20 109 16 174z" />
<glyph unicode="&#xf9;" horiz-adv-x="1234" d="M133 270q0 51 10 115l121 682h246l-115 -645q-6 -29 -6 -53q0 -141 133 -142q68 0 119 43q61 51 80 152l115 645h243l-188 -1067h-238l17 98q-115 -111 -264 -110q-145 0 -216 94q-57 78 -57 188zM494 1585h258l59 -348h-165z" />
<glyph unicode="&#xfa;" horiz-adv-x="1234" d="M133 270q0 51 10 115l121 682h246l-115 -645q-6 -29 -6 -53q0 -141 133 -142q68 0 119 43q61 51 80 152l115 645h243l-188 -1067h-238l17 98q-115 -111 -264 -110q-145 0 -216 94q-57 78 -57 188zM603 1237l182 348h258l-277 -348h-163z" />
<glyph unicode="&#xfb;" horiz-adv-x="1234" d="M133 270q0 51 10 115l121 682h246l-115 -645q-6 -29 -6 -53q0 -141 133 -142q68 0 119 43q61 51 80 152l115 645h243l-188 -1067h-238l17 98q-115 -111 -264 -110q-145 0 -216 94q-57 78 -57 188zM361 1237l309 346h197l186 -346h-190l-123 186l-189 -186h-190z" />
<glyph unicode="&#xfc;" horiz-adv-x="1234" d="M133 270q0 51 10 115l121 682h246l-115 -645q-6 -29 -6 -53q0 -141 133 -142q68 0 119 43q61 51 80 152l115 645h243l-188 -1067h-238l17 98q-115 -111 -264 -110q-145 0 -216 94q-57 78 -57 188zM396 1241l45 256h209l-45 -256h-209zM811 1241l45 256h209l-45 -256h-209 z" />
<glyph unicode="&#xfd;" horiz-adv-x="1073" d="M4 -391l41 239h57q55 0 84 21.5t56 75.5l63 131l-160 991h258l89 -659l311 659h258l-639 -1239q-47 -90 -96 -137q-90 -82 -228 -82h-94zM523 1237l182 348h258l-277 -348h-163z" />
<glyph unicode="&#xfe;" horiz-adv-x="1040" d="M18 -391l326 1849h246l-86 -485q106 106 256 106q152 0 223 -96q49 -68 49 -195q0 -84 -28.5 -250.5t-57.5 -248.5q-45 -133 -123 -205q-104 -96 -256 -96q-150 0 -219 106l-86 -485h-244zM410 379q0 -152 129 -152q100 0 153 88q39 66 66 220q18 98 18 153 q0 152 -131 152q-100 0 -151 -88q-41 -66 -68 -217q-16 -98 -16 -156z" />
<glyph unicode="&#xff;" horiz-adv-x="1073" d="M4 -391l41 239h57q55 0 84 21.5t56 75.5l63 131l-160 991h258l89 -659l311 659h258l-639 -1239q-47 -90 -96 -137q-90 -82 -228 -82h-94zM316 1241l45 256h209l-45 -256h-209zM731 1241l45 256h209l-45 -256h-209z" />
<glyph unicode="&#x152;" horiz-adv-x="1802" d="M104 389q0 96 43 338t76 336q53 156 160 254q170 154 385 153q152 0 223 -102l15 90h876l-45 -252h-614q-6 -31 -31 -174t-29 -172h523l-44 -250h-524q-4 -29 -31.5 -178t-33.5 -180h618l-45 -252h-876l14 90q-106 -102 -258 -102q-215 0 -330 153q-72 96 -72 248z M373 436q0 -72 28 -117q51 -78 156 -77q104 0 182 77q47 47 75 126t63.5 285t35.5 288q0 74 -28 121q-51 78 -156 78q-104 0 -182 -78q-47 -47 -74 -125t-63 -285q-37 -213 -37 -293z" />
<glyph unicode="&#x153;" horiz-adv-x="1607" d="M119 332q0 80 20 203q51 287 187.5 415.5t324.5 128.5q199 0 279 -141q131 141 319 141q170 0 260 -103.5t90 -277.5q0 -61 -12 -129l-20 -118h-615q-6 -31 -6 -58q0 -180 178 -180q129 0 240 100l123 -157q-184 -168 -404 -168q-217 0 -303 135q-127 -135 -321 -135 q-188 0 -281 131q-59 86 -59 213zM367 383q0 -156 133 -156q72 0 123 47q67 62 102 261q18 98 18 149q0 156 -135 156q-70 0 -121 -47q-68 -61 -102 -258q-18 -98 -18 -152zM985 633h371q10 70 0 115q-27 111 -146 110q-121 0 -184 -110q-27 -45 -41 -115z" />
<glyph unicode="&#x178;" horiz-adv-x="1232" d="M213 1458h285l145 -588l352 588h283l-555 -860l-105 -598h-260l107 598zM441 1603l45 256h209l-45 -256h-209zM856 1603l45 256h209l-45 -256h-209z" />
<glyph unicode="&#x2c6;" horiz-adv-x="923" d="M293 1237l309 346h197l186 -346h-190l-123 186l-189 -186h-190z" />
<glyph unicode="&#x2dc;" horiz-adv-x="923" d="M326 1401q133 121 233 121q74 0 137 -47q49 -37 97 -37q57 0 122 59l89 -117q-133 -121 -236 -120q-70 0 -135 47q-53 37 -101 36q-55 0 -120 -59z" />
<glyph unicode="&#x2000;" horiz-adv-x="1039" />
<glyph unicode="&#x2001;" horiz-adv-x="2079" />
<glyph unicode="&#x2002;" horiz-adv-x="1039" />
<glyph unicode="&#x2003;" horiz-adv-x="2079" />
<glyph unicode="&#x2004;" horiz-adv-x="693" />
<glyph unicode="&#x2005;" horiz-adv-x="519" />
<glyph unicode="&#x2006;" horiz-adv-x="346" />
<glyph unicode="&#x2007;" horiz-adv-x="346" />
<glyph unicode="&#x2008;" horiz-adv-x="259" />
<glyph unicode="&#x2009;" horiz-adv-x="415" />
<glyph unicode="&#x200a;" horiz-adv-x="115" />
<glyph unicode="&#x2010;" horiz-adv-x="784" d="M141 461l45 248h580l-43 -248h-582z" />
<glyph unicode="&#x2011;" horiz-adv-x="784" d="M141 461l45 248h580l-43 -248h-582z" />
<glyph unicode="&#x2012;" horiz-adv-x="784" d="M141 461l45 248h580l-43 -248h-582z" />
<glyph unicode="&#x2013;" d="M125 461l43 248h836l-43 -248h-836z" />
<glyph unicode="&#x2014;" horiz-adv-x="1916" d="M143 463l45 256h1713l-46 -256h-1712z" />
<glyph unicode="&#x2018;" horiz-adv-x="495" d="M291 1206l45 252l293 215l-82 -467h-256z" />
<glyph unicode="&#x2019;" horiz-adv-x="495" d="M252 993l84 465h256l-45 -254z" />
<glyph unicode="&#x201a;" horiz-adv-x="491" d="M41 -213l82 467h256l-45 -254z" />
<glyph unicode="&#x201c;" horiz-adv-x="888" d="M291 1206l45 252l291 215l-82 -467h-254zM686 1206l45 252l293 215l-82 -467h-256z" />
<glyph unicode="&#x201d;" horiz-adv-x="888" d="M252 993l84 465h254l-45 -254zM649 993l82 465h256l-45 -254z" />
<glyph unicode="&#x201e;" horiz-adv-x="894" d="M41 -213l82 467h254l-45 -254zM436 -213l82 467h256l-45 -254z" />
<glyph unicode="&#x2022;" horiz-adv-x="909" d="M221 621q0 150 111.5 273.5t259.5 123.5q113 0 183.5 -77t70.5 -193q0 -150 -109 -273q-115 -125 -262 -125q-113 0 -183.5 77t-70.5 194z" />
<glyph unicode="&#x2026;" horiz-adv-x="1574" d="M78 0l51 289h266l-49 -289h-268zM612 0l52 289h266l-51 -289h-267zM1149 0l51 289h266l-51 -289h-266z" />
<glyph unicode="&#x202f;" horiz-adv-x="415" />
<glyph unicode="&#x2039;" horiz-adv-x="641" d="M113 563l559 508l-56 -317l-210 -191l143 -190l-55 -318z" />
<glyph unicode="&#x203a;" horiz-adv-x="641" d="M86 55l55 318l213 190l-145 191l55 317l381 -508z" />
<glyph unicode="&#x205f;" horiz-adv-x="519" />
<glyph unicode="&#x2122;" horiz-adv-x="1722" d="M260 1284l31 174h594l-31 -174h-207l-123 -700h-180l125 700h-209zM856 584l154 874h178l147 -467l314 467h178l-154 -874h-180l92 516l-207 -322h-159l-95 322l-90 -516h-178z" />
<glyph unicode="&#xe000;" horiz-adv-x="1064" d="M0 0v1065h1065v-1065h-1065z" />
</font>
</defs>
</svg>
